<?xml version="1.0" ?>
<!--Created by PyChart 1.39 Copyright 1999-2006 Yasushi Saito-->
<svg viewBox="178 -544 620 476" xmlns="http://www.w3.org/2000/svg" xmlns:xlink="http://www.w3.org/1999/xlink">
  <defs>
    <clipPath id="clip0">
      <path d="M 294 -294 L 294 -526 L 786 -526 L 786 -294 Z"/>
    </clipPath>
    <clipPath id="clip1">
      <path d="M 294 -294 L 294 -526 L 786 -526 L 786 -294 Z"/>
    </clipPath>
    <clipPath id="clip2">
      <path d="M 280 -280 L 280 -540 L 800 -540 L 800 -280 Z"/>
    </clipPath>
    <clipPath id="clip3">
      <path d="M 343.6363636363636 -449.4915391030642 L 337.3863636363636 -459.4915391030642 L 349.8863636363636 -459.4915391030642 Z"/>
    </clipPath>
    <clipPath id="clip4">
      <path d="M 387.27272727272725 -470.332875987553 L 381.02272727272725 -480.332875987553 L 393.52272727272725 -480.332875987553 Z"/>
    </clipPath>
    <clipPath id="clip5">
      <path d="M 430.9090909090909 -480.6188964515348 L 424.6590909090909 -490.6188964515348 L 437.1590909090909 -490.6188964515348 Z"/>
    </clipPath>
    <clipPath id="clip6">
      <path d="M 474.5454545454545 -487.2482132128093 L 468.2954545454545 -497.2482132128093 L 480.7954545454545 -497.2482132128093 Z"/>
    </clipPath>
    <clipPath id="clip7">
      <path d="M 518.1818181818182 -490.80873978818613 L 511.9318181818182 -500.80873978818613 L 524.4318181818182 -500.80873978818613 Z"/>
    </clipPath>
    <clipPath id="clip8">
      <path d="M 561.8181818181818 -498.17689417377346 L 555.5681818181818 -508.17689417377346 L 568.0681818181818 -508.17689417377346 Z"/>
    </clipPath>
    <clipPath id="clip9">
      <path d="M 605.4545454545455 -502.76478975545456 L 599.2045454545455 -512.7647897554546 L 611.7045454545455 -512.7647897554546 Z"/>
    </clipPath>
    <clipPath id="clip10">
      <path d="M 649.090909090909 -508.834306314062 L 642.840909090909 -518.834306314062 L 655.340909090909 -518.834306314062 Z"/>
    </clipPath>
    <clipPath id="clip11">
      <path d="M 692.7272727272727 -513.303830046721 L 686.4772727272727 -523.303830046721 L 698.9772727272727 -523.303830046721 Z"/>
    </clipPath>
    <clipPath id="clip12">
      <path d="M 736.3636363636364 -515.0 L 730.1136363636364 -525.0 L 742.6136363636364 -525.0 Z"/>
    </clipPath>
    <clipPath id="clip13">
      <path d="M 294 -294 L 294 -526 L 786 -526 L 786 -294 Z"/>
    </clipPath>
    <clipPath id="clip14">
      <path d="M 280 -280 L 280 -540 L 800 -540 L 800 -280 Z"/>
    </clipPath>
    <clipPath id="clip15">
      <path d="M 294 -294 L 294 -526 L 786 -526 L 786 -294 Z"/>
    </clipPath>
    <clipPath id="clip16">
      <path d="M 280 -280 L 280 -540 L 800 -540 L 800 -280 Z"/>
    </clipPath>
    <clipPath id="clip17">
      <path d="M 336.4935064935065 -423.11461443957205 L 343.6363636363636 -430.25747158242916 L 350.7792207792208 -423.11461443957205 L 343.6363636363636 -415.97175729671494 Z"/>
    </clipPath>
    <clipPath id="clip18">
      <path d="M 380.12987012987014 -434.48965591455703 L 387.27272727272725 -441.63251305741414 L 394.4155844155844 -434.48965591455703 L 387.27272727272725 -427.3467987716999 Z"/>
    </clipPath>
    <clipPath id="clip19">
      <path d="M 423.76623376623377 -440.7530063759382 L 430.9090909090909 -447.89586351879535 L 438.05194805194805 -440.7530063759382 L 430.9090909090909 -433.6101492330811 Z"/>
    </clipPath>
    <clipPath id="clip20">
      <path d="M 467.4025974025974 -446.0289383300602 L 474.5454545454545 -453.1717954729173 L 481.68831168831167 -446.0289383300602 L 474.5454545454545 -438.88608118720305 Z"/>
    </clipPath>
    <clipPath id="clip21">
      <path d="M 511.038961038961 -449.39612421870095 L 518.1818181818182 -456.53898136155806 L 525.3246753246754 -449.39612421870095 L 518.1818181818182 -442.25326707584384 Z"/>
    </clipPath>
    <clipPath id="clip22">
      <path d="M 554.6753246753246 -455.9174266677428 L 561.8181818181818 -463.0602838105999 L 568.961038961039 -455.9174266677428 L 561.8181818181818 -448.77456952488564 Z"/>
    </clipPath>
    <clipPath id="clip23">
      <path d="M 598.3116883116883 -460.90186794364786 L 605.4545454545455 -468.04472508650497 L 612.5974025974026 -460.90186794364786 L 605.4545454545455 -453.7590108007907 Z"/>
    </clipPath>
    <clipPath id="clip24">
      <path d="M 641.9480519480519 -463.6071579098401 L 649.090909090909 -470.7500150526972 L 656.2337662337662 -463.6071579098401 L 649.090909090909 -456.464300766983 Z"/>
    </clipPath>
    <clipPath id="clip25">
      <path d="M 685.5844155844156 -467.8611462340714 L 692.7272727272727 -475.0040033769285 L 699.8701298701299 -467.8611462340714 L 692.7272727272727 -460.7182890912143 Z"/>
    </clipPath>
    <clipPath id="clip26">
      <path d="M 729.2207792207791 -469.885304852349 L 736.3636363636364 -477.0281619952062 L 743.5064935064936 -469.885304852349 L 736.3636363636364 -462.7424477094919 Z"/>
    </clipPath>
    <clipPath id="clip27">
      <path d="M 290 -74 L 290 -136 L 422.944 -136 L 422.944 -74 Z"/>
    </clipPath>
    <clipPath id="clip28">
      <path d="M 308.0 -120.33333333333334 L 301.75 -130.33333333333334 L 314.25 -130.33333333333334 Z"/>
    </clipPath>
    <clipPath id="clip29">
      <path d="M 300.85714285714283 -85.33333333333334 L 308.0 -92.47619047619048 L 315.14285714285717 -85.33333333333334 L 308.0 -78.1904761904762 Z"/>
    </clipPath>
  </defs>
  <g style="stroke-linejoin:miter;font-size:8;font-family:Helvetica;fill:none;stroke-linecap:butt;stroke:rgb(0,0,0);font-stretch:normal;stroke-dasharray:none;font-weight:normal;font-style:normal;stroke-width:0.5;">
    <path d="M 300 -300 L 780 -300"/>
    <path d="M 300 -300 L 780 -300"/>
    <path d="M 300.0 -300 L 300.0 -288"/>
    <text style="font-size:12;font-style:italic;stroke:none;fill:rgb(0,0,0);" transform="rotate(90,300,-288)" x="300.0" y="-288.0">
      0
    </text>
    <path d="M 343.6363636363636 -300 L 343.6363636363636 -288"/>
    <text style="font-size:12;font-style:italic;stroke:none;fill:rgb(0,0,0);" transform="rotate(90,343.636,-288)" x="343.6363636363636" y="-288.0">
      200
    </text>
    <path d="M 387.27272727272725 -300 L 387.27272727272725 -288"/>
    <text style="font-size:12;font-style:italic;stroke:none;fill:rgb(0,0,0);" transform="rotate(90,387.273,-288)" x="387.27272727272725" y="-288.0">
      400
    </text>
    <path d="M 430.9090909090909 -300 L 430.9090909090909 -288"/>
    <text style="font-size:12;font-style:italic;stroke:none;fill:rgb(0,0,0);" transform="rotate(90,430.909,-288)" x="430.9090909090909" y="-288.0">
      600
    </text>
    <path d="M 474.5454545454545 -300 L 474.5454545454545 -288"/>
    <text style="font-size:12;font-style:italic;stroke:none;fill:rgb(0,0,0);" transform="rotate(90,474.545,-288)" x="474.5454545454545" y="-288.0">
      800
    </text>
    <path d="M 518.1818181818182 -300 L 518.1818181818182 -288"/>
    <text style="font-size:12;font-style:italic;stroke:none;fill:rgb(0,0,0);" transform="rotate(90,518.182,-288)" x="518.1818181818182" y="-288.0">
      1000
    </text>
    <path d="M 561.8181818181818 -300 L 561.8181818181818 -288"/>
    <text style="font-size:12;font-style:italic;stroke:none;fill:rgb(0,0,0);" transform="rotate(90,561.818,-288)" x="561.8181818181818" y="-288.0">
      1200
    </text>
    <path d="M 605.4545454545455 -300 L 605.4545454545455 -288"/>
    <text style="font-size:12;font-style:italic;stroke:none;fill:rgb(0,0,0);" transform="rotate(90,605.455,-288)" x="605.4545454545455" y="-288.0">
      1400
    </text>
    <path d="M 649.090909090909 -300 L 649.090909090909 -288"/>
    <text style="font-size:12;font-style:italic;stroke:none;fill:rgb(0,0,0);" transform="rotate(90,649.091,-288)" x="649.090909090909" y="-288.0">
      1600
    </text>
    <path d="M 692.7272727272727 -300 L 692.7272727272727 -288"/>
    <text style="font-size:12;font-style:italic;stroke:none;fill:rgb(0,0,0);" transform="rotate(90,692.727,-288)" x="692.7272727272727" y="-288.0">
      1800
    </text>
    <path d="M 736.3636363636364 -300 L 736.3636363636364 -288"/>
    <text style="font-size:12;font-style:italic;stroke:none;fill:rgb(0,0,0);" transform="rotate(90,736.364,-288)" x="736.3636363636364" y="-288.0">
      2000
    </text>
    <path d="M 780.0 -300 L 780.0 -288"/>
    <text style="font-size:12;font-style:italic;stroke:none;fill:rgb(0,0,0);" transform="rotate(90,780,-288)" x="780.0" y="-288.0">
      2200
    </text>
    <text style="font-size:16;stroke:none;fill:rgb(0,0,0);" x="524.44" y="-220.0">
      Size
    </text>
    <path d="M 300 -300 L 300 -520"/>
    <path d="M 300 -300.0 L 288 -300.0"/>
    <text style="font-size:12;font-style:italic;stroke:none;fill:rgb(0,0,0);" x="238.0" y="-294.0">
      0.00e+00
    </text>
    <path d="M 300 -344.0 L 288 -344.0"/>
    <text style="font-size:12;font-style:italic;stroke:none;fill:rgb(0,0,0);" x="238.0" y="-338.0">
      8.92e-08
    </text>
    <path d="M 300 -388.0 L 288 -388.0"/>
    <text style="font-size:12;font-style:italic;stroke:none;fill:rgb(0,0,0);" x="238.0" y="-382.0">
      1.78e-07
    </text>
    <path d="M 300 -432.0 L 288 -432.0"/>
    <text style="font-size:12;font-style:italic;stroke:none;fill:rgb(0,0,0);" x="238.0" y="-426.0">
      2.68e-07
    </text>
    <path d="M 300 -476.0 L 288 -476.0"/>
    <text style="font-size:12;font-style:italic;stroke:none;fill:rgb(0,0,0);" x="238.0" y="-470.0">
      3.57e-07
    </text>
    <path d="M 300 -520.0 L 288 -520.0"/>
    <text style="font-size:12;font-style:italic;stroke:none;fill:rgb(0,0,0);" x="238.0" y="-514.0">
      4.46e-07
    </text>
    <text style="font-size:16;stroke:none;fill:rgb(0,0,0);" transform="rotate(-90,200,-340.648)" x="200.0" y="-340.648">
      Average time (sec.)
    </text>
    <g style="clip-path:url(#clip0);">
      <g style="clip-path:url(#clip1);">
        <path d="M 343.6363636363636 -454.4915391030642 L 387.27272727272725 -475.332875987553 L 430.9090909090909 -485.6188964515348 L 474.5454545454545 -492.2482132128093 L 518.1818181818182 -495.80873978818613 L 561.8181818181818 -503.17689417377346 L 605.4545454545455 -507.76478975545456 L 649.090909090909 -513.834306314062 L 692.7272727272727 -518.303830046721 L 736.3636363636364 -520.0" style="stroke:rgb(126,126,126);stroke-width:0.4;stroke-dasharray:1.5,1.5;"/>
      </g>
      <g style="clip-path:url(#clip2);">
        <g style="fill:rgb(0,0,0);clip-path:url(#clip3);">
          <path d="M 337.3863636363636 -449.4915391030642 L 337.3863636363636 -459.4915391030642 L 349.8863636363636 -459.4915391030642 L 349.8863636363636 -449.4915391030642 Z" style="stroke:none;"/>
        </g>
        <g>
          <path d="M 343.6363636363636 -449.4915391030642 L 337.3863636363636 -459.4915391030642 L 349.8863636363636 -459.4915391030642 Z"/>
          <g style="fill:rgb(0,0,0);clip-path:url(#clip4);">
            <path d="M 381.02272727272725 -470.332875987553 L 381.02272727272725 -480.332875987553 L 393.52272727272725 -480.332875987553 L 393.52272727272725 -470.332875987553 Z" style="stroke:none;"/>
          </g>
          <g>
            <path d="M 387.27272727272725 -470.332875987553 L 381.02272727272725 -480.332875987553 L 393.52272727272725 -480.332875987553 Z"/>
            <g style="fill:rgb(0,0,0);clip-path:url(#clip5);">
              <path d="M 424.6590909090909 -480.6188964515348 L 424.6590909090909 -490.6188964515348 L 437.1590909090909 -490.6188964515348 L 437.1590909090909 -480.6188964515348 Z" style="stroke:none;"/>
            </g>
            <g>
              <path d="M 430.9090909090909 -480.6188964515348 L 424.6590909090909 -490.6188964515348 L 437.1590909090909 -490.6188964515348 Z"/>
              <g style="fill:rgb(0,0,0);clip-path:url(#clip6);">
                <path d="M 468.2954545454545 -487.2482132128093 L 468.2954545454545 -497.2482132128093 L 480.7954545454545 -497.2482132128093 L 480.7954545454545 -487.2482132128093 Z" style="stroke:none;"/>
              </g>
              <g>
                <path d="M 474.5454545454545 -487.2482132128093 L 468.2954545454545 -497.2482132128093 L 480.7954545454545 -497.2482132128093 Z"/>
                <g style="fill:rgb(0,0,0);clip-path:url(#clip7);">
                  <path d="M 511.9318181818182 -490.80873978818613 L 511.9318181818182 -500.80873978818613 L 524.4318181818182 -500.80873978818613 L 524.4318181818182 -490.80873978818613 Z" style="stroke:none;"/>
                </g>
                <g>
                  <path d="M 518.1818181818182 -490.80873978818613 L 511.9318181818182 -500.80873978818613 L 524.4318181818182 -500.80873978818613 Z"/>
                  <g style="fill:rgb(0,0,0);clip-path:url(#clip8);">
                    <path d="M 555.5681818181818 -498.17689417377346 L 555.5681818181818 -508.17689417377346 L 568.0681818181818 -508.17689417377346 L 568.0681818181818 -498.17689417377346 Z" style="stroke:none;"/>
                  </g>
                  <g>
                    <path d="M 561.8181818181818 -498.17689417377346 L 555.5681818181818 -508.17689417377346 L 568.0681818181818 -508.17689417377346 Z"/>
                    <g style="fill:rgb(0,0,0);clip-path:url(#clip9);">
                      <path d="M 599.2045454545455 -502.76478975545456 L 599.2045454545455 -512.7647897554546 L 611.7045454545455 -512.7647897554546 L 611.7045454545455 -502.76478975545456 Z" style="stroke:none;"/>
                    </g>
                    <g>
                      <path d="M 605.4545454545455 -502.76478975545456 L 599.2045454545455 -512.7647897554546 L 611.7045454545455 -512.7647897554546 Z"/>
                      <g style="fill:rgb(0,0,0);clip-path:url(#clip10);">
                        <path d="M 642.840909090909 -508.834306314062 L 642.840909090909 -518.834306314062 L 655.340909090909 -518.834306314062 L 655.340909090909 -508.834306314062 Z" style="stroke:none;"/>
                      </g>
                      <g>
                        <path d="M 649.090909090909 -508.834306314062 L 642.840909090909 -518.834306314062 L 655.340909090909 -518.834306314062 Z"/>
                        <g style="fill:rgb(0,0,0);clip-path:url(#clip11);">
                          <path d="M 686.4772727272727 -513.303830046721 L 686.4772727272727 -523.303830046721 L 698.9772727272727 -523.303830046721 L 698.9772727272727 -513.303830046721 Z" style="stroke:none;"/>
                        </g>
                        <g>
                          <path d="M 692.7272727272727 -513.303830046721 L 686.4772727272727 -523.303830046721 L 698.9772727272727 -523.303830046721 Z"/>
                          <g style="fill:rgb(0,0,0);clip-path:url(#clip12);">
                            <path d="M 730.1136363636364 -515.0 L 730.1136363636364 -525.0 L 742.6136363636364 -525.0 L 742.6136363636364 -515.0 Z" style="stroke:none;"/>
                          </g>
                          <g>
                            <path d="M 736.3636363636364 -515.0 L 730.1136363636364 -525.0 L 742.6136363636364 -525.0 Z"/>
                          </g>
                        </g>
                      </g>
                    </g>
                  </g>
                </g>
              </g>
            </g>
          </g>
        </g>
      </g>
      <g style="clip-path:url(#clip13);">
        <path d="M 343.6363636363636 -425.0199079927901 L 387.27272727272725 -449.5751616403469 L 430.9090909090909 -461.1815214369625 L 474.5454545454545 -472.79527947414203 L 518.1818181818182 -478.27096392348875 L 561.8181818181818 -483.4452933738667 L 605.4545454545455 -488.8603122505896 L 649.090909090909 -491.8062916431268 L 692.7272727272727 -497.884686090411 L 736.3636363636364 -500.1455884067328" style="stroke:rgb(137,42,226);stroke-width:2;"/>
      </g>
      <g style="clip-path:url(#clip14);">
        <path d="M 336.4935064935065 -425.0199079927901 L 350.7792207792208 -425.0199079927901" style="stroke-width:1;"/>
        <path d="M 343.6363636363636 -417.8770508499329 L 343.6363636363636 -432.1627651356472" style="stroke-width:1;"/>
        <path d="M 380.12987012987014 -449.5751616403469 L 394.4155844155844 -449.5751616403469" style="stroke-width:1;"/>
        <path d="M 387.27272727272725 -442.4323044974897 L 387.27272727272725 -456.718018783204" style="stroke-width:1;"/>
        <path d="M 423.76623376623377 -461.1815214369625 L 438.05194805194805 -461.1815214369625" style="stroke-width:1;"/>
        <path d="M 430.9090909090909 -454.0386642941054 L 430.9090909090909 -468.3243785798196" style="stroke-width:1;"/>
        <path d="M 467.4025974025974 -472.79527947414203 L 481.68831168831167 -472.79527947414203" style="stroke-width:1;"/>
        <path d="M 474.5454545454545 -465.65242233128487 L 474.5454545454545 -479.93813661699915" style="stroke-width:1;"/>
        <path d="M 511.038961038961 -478.27096392348875 L 525.3246753246754 -478.27096392348875" style="stroke-width:1;"/>
        <path d="M 518.1818181818182 -471.1281067806316 L 518.1818181818182 -485.4138210663459" style="stroke-width:1;"/>
        <path d="M 554.6753246753246 -483.4452933738667 L 568.961038961039 -483.4452933738667" style="stroke-width:1;"/>
        <path d="M 561.8181818181818 -476.30243623100955 L 561.8181818181818 -490.5881505167239" style="stroke-width:1;"/>
        <path d="M 598.3116883116883 -488.8603122505896 L 612.5974025974026 -488.8603122505896" style="stroke-width:1;"/>
        <path d="M 605.4545454545455 -481.71745510773246 L 605.4545454545455 -496.00316939344674" style="stroke-width:1;"/>
        <path d="M 641.9480519480519 -491.8062916431268 L 656.2337662337662 -491.8062916431268" style="stroke-width:1;"/>
        <path d="M 649.090909090909 -484.66343450026966 L 649.090909090909 -498.949148785984" style="stroke-width:1;"/>
        <path d="M 685.5844155844156 -497.884686090411 L 699.8701298701299 -497.884686090411" style="stroke-width:1;"/>
        <path d="M 692.7272727272727 -490.7418289475538 L 692.7272727272727 -505.02754323326815" style="stroke-width:1;"/>
        <path d="M 729.2207792207791 -500.1455884067328 L 743.5064935064936 -500.1455884067328" style="stroke-width:1;"/>
        <path d="M 736.3636363636364 -493.0027312638757 L 736.3636363636364 -507.28844554959" style="stroke-width:1;"/>
      </g>
      <g style="clip-path:url(#clip15);">
        <path d="M 343.6363636363636 -423.11461443957205 L 387.27272727272725 -434.48965591455703 L 430.9090909090909 -440.7530063759382 L 474.5454545454545 -446.0289383300602 L 518.1818181818182 -449.39612421870095 L 561.8181818181818 -455.9174266677428 L 605.4545454545455 -460.90186794364786 L 649.090909090909 -463.6071579098401 L 692.7272727272727 -467.8611462340714 L 736.3636363636364 -469.885304852349" style="stroke:rgb(126,126,126);stroke-width:0.4;stroke-dasharray:5,2,5,2;"/>
      </g>
      <g style="clip-path:url(#clip16);">
        <g style="fill:rgb(0,0,0);clip-path:url(#clip17);">
          <path d="M 336.4935064935065 -415.97175729671494 L 336.4935064935065 -430.25747158242916 L 350.7792207792208 -430.25747158242916 L 350.7792207792208 -415.97175729671494 Z" style="stroke:none;"/>
        </g>
        <g>
          <path d="M 336.4935064935065 -423.11461443957205 L 343.6363636363636 -430.25747158242916 L 350.7792207792208 -423.11461443957205 L 343.6363636363636 -415.97175729671494 Z"/>
          <g style="fill:rgb(0,0,0);clip-path:url(#clip18);">
            <path d="M 380.12987012987014 -427.3467987716999 L 380.12987012987014 -441.63251305741414 L 394.4155844155844 -441.63251305741414 L 394.4155844155844 -427.3467987716999 Z" style="stroke:none;"/>
          </g>
          <g>
            <path d="M 380.12987012987014 -434.48965591455703 L 387.27272727272725 -441.63251305741414 L 394.4155844155844 -434.48965591455703 L 387.27272727272725 -427.3467987716999 Z"/>
            <g style="fill:rgb(0,0,0);clip-path:url(#clip19);">
              <path d="M 423.76623376623377 -433.6101492330811 L 423.76623376623377 -447.89586351879535 L 438.05194805194805 -447.89586351879535 L 438.05194805194805 -433.6101492330811 Z" style="stroke:none;"/>
            </g>
            <g>
              <path d="M 423.76623376623377 -440.7530063759382 L 430.9090909090909 -447.89586351879535 L 438.05194805194805 -440.7530063759382 L 430.9090909090909 -433.6101492330811 Z"/>
              <g style="fill:rgb(0,0,0);clip-path:url(#clip20);">
                <path d="M 467.4025974025974 -438.88608118720305 L 467.4025974025974 -453.1717954729173 L 481.68831168831167 -453.1717954729173 L 481.68831168831167 -438.88608118720305 Z" style="stroke:none;"/>
              </g>
              <g>
                <path d="M 467.4025974025974 -446.0289383300602 L 474.5454545454545 -453.1717954729173 L 481.68831168831167 -446.0289383300602 L 474.5454545454545 -438.88608118720305 Z"/>
                <g style="fill:rgb(0,0,0);clip-path:url(#clip21);">
                  <path d="M 511.038961038961 -442.25326707584384 L 511.038961038961 -456.53898136155806 L 525.3246753246754 -456.53898136155806 L 525.3246753246754 -442.25326707584384 Z" style="stroke:none;"/>
                </g>
                <g>
                  <path d="M 511.038961038961 -449.39612421870095 L 518.1818181818182 -456.53898136155806 L 525.3246753246754 -449.39612421870095 L 518.1818181818182 -442.25326707584384 Z"/>
                  <g style="fill:rgb(0,0,0);clip-path:url(#clip22);">
                    <path d="M 554.6753246753246 -448.77456952488564 L 554.6753246753246 -463.0602838105999 L 568.961038961039 -463.0602838105999 L 568.961038961039 -448.77456952488564 Z" style="stroke:none;"/>
                  </g>
                  <g>
                    <path d="M 554.6753246753246 -455.9174266677428 L 561.8181818181818 -463.0602838105999 L 568.961038961039 -455.9174266677428 L 561.8181818181818 -448.77456952488564 Z"/>
                    <g style="fill:rgb(0,0,0);clip-path:url(#clip23);">
                      <path d="M 598.3116883116883 -453.7590108007907 L 598.3116883116883 -468.04472508650497 L 612.5974025974026 -468.04472508650497 L 612.5974025974026 -453.7590108007907 Z" style="stroke:none;"/>
                    </g>
                    <g>
                      <path d="M 598.3116883116883 -460.90186794364786 L 605.4545454545455 -468.04472508650497 L 612.5974025974026 -460.90186794364786 L 605.4545454545455 -453.7590108007907 Z"/>
                      <g style="fill:rgb(0,0,0);clip-path:url(#clip24);">
                        <path d="M 641.9480519480519 -456.464300766983 L 641.9480519480519 -470.7500150526972 L 656.2337662337662 -470.7500150526972 L 656.2337662337662 -456.464300766983 Z" style="stroke:none;"/>
                      </g>
                      <g>
                        <path d="M 641.9480519480519 -463.6071579098401 L 649.090909090909 -470.7500150526972 L 656.2337662337662 -463.6071579098401 L 649.090909090909 -456.464300766983 Z"/>
                        <g style="fill:rgb(0,0,0);clip-path:url(#clip25);">
                          <path d="M 685.5844155844156 -460.7182890912143 L 685.5844155844156 -475.0040033769285 L 699.8701298701299 -475.0040033769285 L 699.8701298701299 -460.7182890912143 Z" style="stroke:none;"/>
                        </g>
                        <g>
                          <path d="M 685.5844155844156 -467.8611462340714 L 692.7272727272727 -475.0040033769285 L 699.8701298701299 -467.8611462340714 L 692.7272727272727 -460.7182890912143 Z"/>
                          <g style="fill:rgb(0,0,0);clip-path:url(#clip26);">
                            <path d="M 729.2207792207791 -462.7424477094919 L 729.2207792207791 -477.0281619952062 L 743.5064935064936 -477.0281619952062 L 743.5064935064936 -462.7424477094919 Z" style="stroke:none;"/>
                          </g>
                          <g>
                            <path d="M 729.2207792207791 -469.885304852349 L 736.3636363636364 -477.0281619952062 L 743.5064935064936 -469.885304852349 L 736.3636363636364 -462.7424477094919 Z"/>
                          </g>
                        </g>
                      </g>
                    </g>
                  </g>
                </g>
              </g>
            </g>
          </g>
        </g>
      </g>
    </g>
    <g style="fill:rgb(255,255,255);clip-path:url(#clip27);">
      <path d="M 290 -74 L 290 -136 L 422.944 -136 L 422.944 -74 Z" style="stroke:none;"/>
    </g>
    <path d="M 300 -125.33333333333334 L 316 -125.33333333333334" style="stroke:rgb(126,126,126);stroke-width:0.4;stroke-dasharray:1.5,1.5;"/>
    <g style="fill:rgb(0,0,0);clip-path:url(#clip28);">
      <path d="M 301.75 -120.33333333333334 L 301.75 -130.33333333333334 L 314.25 -130.33333333333334 L 314.25 -120.33333333333334 Z" style="stroke:none;"/>
    </g>
    <g>
      <path d="M 308.0 -120.33333333333334 L 301.75 -130.33333333333334 L 314.25 -130.33333333333334 Z"/>
      <text style="font-size:16;stroke:none;fill:rgb(0,0,0);" x="316.0" y="-120.0">
        n_pq_deque
      </text>
      <path d="M 300 -105.33333333333334 L 316 -105.33333333333334" style="stroke:rgb(137,42,226);stroke-width:2;"/>
      <path d="M 300.85714285714283 -105.33333333333334 L 315.14285714285717 -105.33333333333334" style="stroke-width:1;"/>
      <path d="M 308.0 -98.1904761904762 L 308.0 -112.47619047619048" style="stroke-width:1;"/>
      <text style="font-size:16;stroke:none;fill:rgb(0,0,0);" x="316.0" y="-100.0">
        pairing_heap
      </text>
      <path d="M 300 -85.33333333333334 L 316 -85.33333333333334" style="stroke:rgb(126,126,126);stroke-width:0.4;stroke-dasharray:5,2,5,2;"/>
      <g style="fill:rgb(0,0,0);clip-path:url(#clip29);">
        <path d="M 300.85714285714283 -78.1904761904762 L 300.85714285714283 -92.47619047619048 L 315.14285714285717 -92.47619047619048 L 315.14285714285717 -78.1904761904762 Z" style="stroke:none;"/>
      </g>
      <g>
        <path d="M 300.85714285714283 -85.33333333333334 L 308.0 -92.47619047619048 L 315.14285714285717 -85.33333333333334 L 308.0 -78.1904761904762 Z"/>
        <text style="font-size:16;stroke:none;fill:rgb(0,0,0);" x="316.0" y="-80.0">
          n_pq_vector
        </text>
      </g>
    </g>
  </g>
</svg>
