<?xml version="1.0" ?>
<!--Created by PyChart 1.39 Copyright 1999-2006 Yasushi Saito-->
<svg viewBox="178 -544 620 496" xmlns="http://www.w3.org/2000/svg" xmlns:xlink="http://www.w3.org/1999/xlink">
  <defs>
    <clipPath id="clip0">
      <path d="M 294 -294 L 294 -526 L 786 -526 L 786 -294 Z"/>
    </clipPath>
    <clipPath id="clip1">
      <path d="M 294 -294 L 294 -526 L 786 -526 L 786 -294 Z"/>
    </clipPath>
    <clipPath id="clip2">
      <path d="M 280 -280 L 280 -540 L 800 -540 L 800 -280 Z"/>
    </clipPath>
    <clipPath id="clip3">
      <path d="M 343.6363636363636 -498.1253144878448 L 337.3863636363636 -508.1253144878448 L 349.8863636363636 -508.1253144878448 Z"/>
    </clipPath>
    <clipPath id="clip4">
      <path d="M 387.27272727272725 -497.9976793613362 L 381.02272727272725 -507.9976793613362 L 393.52272727272725 -507.9976793613362 Z"/>
    </clipPath>
    <clipPath id="clip5">
      <path d="M 430.9090909090909 -504.46163436047254 L 424.6590909090909 -514.4616343604725 L 437.1590909090909 -514.4616343604725 Z"/>
    </clipPath>
    <clipPath id="clip6">
      <path d="M 474.5454545454545 -500.38350619212486 L 468.2954545454545 -510.38350619212486 L 480.7954545454545 -510.38350619212486 Z"/>
    </clipPath>
    <clipPath id="clip7">
      <path d="M 518.1818181818182 -503.0382342117714 L 511.9318181818182 -513.0382342117714 L 524.4318181818182 -513.0382342117714 Z"/>
    </clipPath>
    <clipPath id="clip8">
      <path d="M 561.8181818181818 -508.315471675441 L 555.5681818181818 -518.315471675441 L 568.0681818181818 -518.315471675441 Z"/>
    </clipPath>
    <clipPath id="clip9">
      <path d="M 605.4545454545455 -512.1023934871914 L 599.2045454545455 -522.1023934871914 L 611.7045454545455 -522.1023934871914 Z"/>
    </clipPath>
    <clipPath id="clip10">
      <path d="M 649.090909090909 -515.0 L 642.840909090909 -525.0 L 655.340909090909 -525.0 Z"/>
    </clipPath>
    <clipPath id="clip11">
      <path d="M 692.7272727272727 -493.7898507731707 L 686.4772727272727 -503.7898507731707 L 698.9772727272727 -503.7898507731707 Z"/>
    </clipPath>
    <clipPath id="clip12">
      <path d="M 736.3636363636364 -500.06462490518425 L 730.1136363636364 -510.06462490518425 L 742.6136363636364 -510.06462490518425 Z"/>
    </clipPath>
    <clipPath id="clip13">
      <path d="M 294 -294 L 294 -526 L 786 -526 L 786 -294 Z"/>
    </clipPath>
    <clipPath id="clip14">
      <path d="M 280 -280 L 280 -540 L 800 -540 L 800 -280 Z"/>
    </clipPath>
    <clipPath id="clip15">
      <path d="M 336.4935064935065 -457.2126050483279 L 343.6363636363636 -464.355462191185 L 350.7792207792208 -457.2126050483279 L 343.6363636363636 -450.0697479054707 Z"/>
    </clipPath>
    <clipPath id="clip16">
      <path d="M 380.12987012987014 -470.17562503285694 L 387.27272727272725 -477.31848217571405 L 394.4155844155844 -470.17562503285694 L 387.27272727272725 -463.03276788999983 Z"/>
    </clipPath>
    <clipPath id="clip17">
      <path d="M 423.76623376623377 -463.46011730865996 L 430.9090909090909 -470.60297445151707 L 438.05194805194805 -463.46011730865996 L 430.9090909090909 -456.31726016580285 Z"/>
    </clipPath>
    <clipPath id="clip18">
      <path d="M 467.4025974025974 -470.70764458930705 L 474.5454545454545 -477.85050173216416 L 481.68831168831167 -470.70764458930705 L 474.5454545454545 -463.56478744644994 Z"/>
    </clipPath>
    <clipPath id="clip19">
      <path d="M 511.038961038961 -459.0606295014006 L 518.1818181818182 -466.2034866442578 L 525.3246753246754 -459.0606295014006 L 518.1818181818182 -451.9177723585435 Z"/>
    </clipPath>
    <clipPath id="clip20">
      <path d="M 554.6753246753246 -464.9785209495843 L 561.8181818181818 -472.12137809244143 L 568.961038961039 -464.9785209495843 L 561.8181818181818 -457.8356638067272 Z"/>
    </clipPath>
    <clipPath id="clip21">
      <path d="M 598.3116883116883 -466.1780433035681 L 605.4545454545455 -473.3209004464252 L 612.5974025974026 -466.1780433035681 L 605.4545454545455 -459.03518616071096 Z"/>
    </clipPath>
    <clipPath id="clip22">
      <path d="M 641.9480519480519 -469.82617740494015 L 649.090909090909 -476.9690345477973 L 656.2337662337662 -469.82617740494015 L 649.090909090909 -462.68332026208304 Z"/>
    </clipPath>
    <clipPath id="clip23">
      <path d="M 685.5844155844156 -470.6907091841716 L 692.7272727272727 -477.83356632702873 L 699.8701298701299 -470.6907091841716 L 692.7272727272727 -463.54785204131446 Z"/>
    </clipPath>
    <clipPath id="clip24">
      <path d="M 729.2207792207791 -478.273227039571 L 736.3636363636364 -485.41608418242816 L 743.5064935064936 -478.273227039571 L 736.3636363636364 -471.1303698967139 Z"/>
    </clipPath>
    <clipPath id="clip25">
      <path d="M 294 -294 L 294 -526 L 786 -526 L 786 -294 Z"/>
    </clipPath>
    <clipPath id="clip26">
      <path d="M 280 -280 L 280 -540 L 800 -540 L 800 -280 Z"/>
    </clipPath>
    <clipPath id="clip27">
      <path d="M 336.4935064935065 -449.5991077932904 L 343.6363636363636 -456.74196493614755 L 350.7792207792208 -449.5991077932904 L 343.6363636363636 -442.4562506504333 Z"/>
    </clipPath>
    <clipPath id="clip28">
      <path d="M 380.12987012987014 -457.63062041411007 L 387.27272727272725 -464.77347755696724 L 394.4155844155844 -457.63062041411007 L 387.27272727272725 -450.4877632712529 Z"/>
    </clipPath>
    <clipPath id="clip29">
      <path d="M 423.76623376623377 -456.300158464323 L 430.9090909090909 -463.44301560718014 L 438.05194805194805 -456.300158464323 L 430.9090909090909 -449.15730132146587 Z"/>
    </clipPath>
    <clipPath id="clip30">
      <path d="M 467.4025974025974 -459.93342245386884 L 474.5454545454545 -467.07627959672595 L 481.68831168831167 -459.93342245386884 L 474.5454545454545 -452.79056531101173 Z"/>
    </clipPath>
    <clipPath id="clip31">
      <path d="M 511.038961038961 -461.9838456512433 L 518.1818181818182 -469.1267027941004 L 525.3246753246754 -461.9838456512433 L 518.1818181818182 -454.8409885083862 Z"/>
    </clipPath>
    <clipPath id="clip32">
      <path d="M 554.6753246753246 -460.4295059067389 L 561.8181818181818 -467.572363049596 L 568.961038961039 -460.4295059067389 L 561.8181818181818 -453.2866487638818 Z"/>
    </clipPath>
    <clipPath id="clip33">
      <path d="M 598.3116883116883 -461.5534385256059 L 605.4545454545455 -468.696295668463 L 612.5974025974026 -461.5534385256059 L 605.4545454545455 -454.4105813827487 Z"/>
    </clipPath>
    <clipPath id="clip34">
      <path d="M 641.9480519480519 -462.6216082251245 L 649.090909090909 -469.76446536798164 L 656.2337662337662 -462.6216082251245 L 649.090909090909 -455.4787510822673 Z"/>
    </clipPath>
    <clipPath id="clip35">
      <path d="M 685.5844155844156 -463.2321089273242 L 692.7272727272727 -470.37496607018136 L 699.8701298701299 -463.2321089273242 L 692.7272727272727 -456.089251784467 Z"/>
    </clipPath>
    <clipPath id="clip36">
      <path d="M 729.2207792207791 -466.05206041170686 L 736.3636363636364 -473.194917554564 L 743.5064935064936 -466.05206041170686 L 736.3636363636364 -458.9092032688497 Z"/>
    </clipPath>
    <clipPath id="clip37">
      <path d="M 294 -294 L 294 -526 L 786 -526 L 786 -294 Z"/>
    </clipPath>
    <clipPath id="clip38">
      <path d="M 280 -280 L 280 -540 L 800 -540 L 800 -280 Z"/>
    </clipPath>
    <clipPath id="clip39">
      <path d="M 290 -54 L 290 -136 L 708.4 -136 L 708.4 -54 Z"/>
    </clipPath>
    <clipPath id="clip40">
      <path d="M 308.0 -120.33333333333334 L 301.75 -130.33333333333334 L 314.25 -130.33333333333334 Z"/>
    </clipPath>
    <clipPath id="clip41">
      <path d="M 300.85714285714283 -105.33333333333334 L 308.0 -112.47619047619048 L 315.14285714285717 -105.33333333333334 L 308.0 -98.1904761904762 Z"/>
    </clipPath>
    <clipPath id="clip42">
      <path d="M 300.85714285714283 -85.33333333333334 L 308.0 -92.47619047619048 L 315.14285714285717 -85.33333333333334 L 308.0 -78.1904761904762 Z"/>
    </clipPath>
  </defs>
  <g style="stroke-linejoin:miter;font-size:8;font-family:Helvetica;fill:none;stroke-linecap:butt;stroke:rgb(0,0,0);font-stretch:normal;stroke-dasharray:none;font-weight:normal;font-style:normal;stroke-width:0.5;">
    <path d="M 300 -300 L 780 -300"/>
    <path d="M 300 -300 L 780 -300"/>
    <path d="M 300.0 -300 L 300.0 -288"/>
    <text style="font-size:12;font-style:italic;stroke:none;fill:rgb(0,0,0);" transform="rotate(90,300,-288)" x="300.0" y="-288.0">
      0
    </text>
    <path d="M 343.6363636363636 -300 L 343.6363636363636 -288"/>
    <text style="font-size:12;font-style:italic;stroke:none;fill:rgb(0,0,0);" transform="rotate(90,343.636,-288)" x="343.6363636363636" y="-288.0">
      200
    </text>
    <path d="M 387.27272727272725 -300 L 387.27272727272725 -288"/>
    <text style="font-size:12;font-style:italic;stroke:none;fill:rgb(0,0,0);" transform="rotate(90,387.273,-288)" x="387.27272727272725" y="-288.0">
      400
    </text>
    <path d="M 430.9090909090909 -300 L 430.9090909090909 -288"/>
    <text style="font-size:12;font-style:italic;stroke:none;fill:rgb(0,0,0);" transform="rotate(90,430.909,-288)" x="430.9090909090909" y="-288.0">
      600
    </text>
    <path d="M 474.5454545454545 -300 L 474.5454545454545 -288"/>
    <text style="font-size:12;font-style:italic;stroke:none;fill:rgb(0,0,0);" transform="rotate(90,474.545,-288)" x="474.5454545454545" y="-288.0">
      800
    </text>
    <path d="M 518.1818181818182 -300 L 518.1818181818182 -288"/>
    <text style="font-size:12;font-style:italic;stroke:none;fill:rgb(0,0,0);" transform="rotate(90,518.182,-288)" x="518.1818181818182" y="-288.0">
      1000
    </text>
    <path d="M 561.8181818181818 -300 L 561.8181818181818 -288"/>
    <text style="font-size:12;font-style:italic;stroke:none;fill:rgb(0,0,0);" transform="rotate(90,561.818,-288)" x="561.8181818181818" y="-288.0">
      1200
    </text>
    <path d="M 605.4545454545455 -300 L 605.4545454545455 -288"/>
    <text style="font-size:12;font-style:italic;stroke:none;fill:rgb(0,0,0);" transform="rotate(90,605.455,-288)" x="605.4545454545455" y="-288.0">
      1400
    </text>
    <path d="M 649.090909090909 -300 L 649.090909090909 -288"/>
    <text style="font-size:12;font-style:italic;stroke:none;fill:rgb(0,0,0);" transform="rotate(90,649.091,-288)" x="649.090909090909" y="-288.0">
      1600
    </text>
    <path d="M 692.7272727272727 -300 L 692.7272727272727 -288"/>
    <text style="font-size:12;font-style:italic;stroke:none;fill:rgb(0,0,0);" transform="rotate(90,692.727,-288)" x="692.7272727272727" y="-288.0">
      1800
    </text>
    <path d="M 736.3636363636364 -300 L 736.3636363636364 -288"/>
    <text style="font-size:12;font-style:italic;stroke:none;fill:rgb(0,0,0);" transform="rotate(90,736.364,-288)" x="736.3636363636364" y="-288.0">
      2000
    </text>
    <path d="M 780.0 -300 L 780.0 -288"/>
    <text style="font-size:12;font-style:italic;stroke:none;fill:rgb(0,0,0);" transform="rotate(90,780,-288)" x="780.0" y="-288.0">
      2200
    </text>
    <text style="font-size:16;stroke:none;fill:rgb(0,0,0);" x="524.44" y="-220.0">
      Size
    </text>
    <path d="M 300 -300 L 300 -520"/>
    <path d="M 300 -300.0 L 288 -300.0"/>
    <text style="font-size:12;font-style:italic;stroke:none;fill:rgb(0,0,0);" x="238.0" y="-294.0">
      0.00e+00
    </text>
    <path d="M 300 -344.0 L 288 -344.0"/>
    <text style="font-size:12;font-style:italic;stroke:none;fill:rgb(0,0,0);" x="238.0" y="-338.0">
      1.07e-08
    </text>
    <path d="M 300 -388.0 L 288 -388.0"/>
    <text style="font-size:12;font-style:italic;stroke:none;fill:rgb(0,0,0);" x="238.0" y="-382.0">
      2.13e-08
    </text>
    <path d="M 300 -432.0 L 288 -432.0"/>
    <text style="font-size:12;font-style:italic;stroke:none;fill:rgb(0,0,0);" x="238.0" y="-426.0">
      3.20e-08
    </text>
    <path d="M 300 -476.0 L 288 -476.0"/>
    <text style="font-size:12;font-style:italic;stroke:none;fill:rgb(0,0,0);" x="238.0" y="-470.0">
      4.26e-08
    </text>
    <path d="M 300 -520.0 L 288 -520.0"/>
    <text style="font-size:12;font-style:italic;stroke:none;fill:rgb(0,0,0);" x="238.0" y="-514.0">
      5.33e-08
    </text>
    <text style="font-size:16;stroke:none;fill:rgb(0,0,0);" transform="rotate(-90,200,-340.648)" x="200.0" y="-340.648">
      Average time (sec.)
    </text>
    <g style="clip-path:url(#clip0);">
      <g style="clip-path:url(#clip1);">
        <path d="M 343.6363636363636 -503.1253144878448 L 387.27272727272725 -502.9976793613362 L 430.9090909090909 -509.46163436047254 L 474.5454545454545 -505.38350619212486 L 518.1818181818182 -508.0382342117714 L 561.8181818181818 -513.315471675441 L 605.4545454545455 -517.1023934871914 L 649.090909090909 -520.0 L 692.7272727272727 -498.7898507731707 L 736.3636363636364 -505.06462490518425" style="stroke:rgb(0,138,0);stroke-width:2;"/>
      </g>
      <g style="clip-path:url(#clip2);">
        <g style="fill:rgb(255,255,255);clip-path:url(#clip3);">
          <path d="M 337.3863636363636 -498.1253144878448 L 337.3863636363636 -508.1253144878448 L 349.8863636363636 -508.1253144878448 L 349.8863636363636 -498.1253144878448 Z" style="stroke:none;"/>
        </g>
        <g>
          <path d="M 343.6363636363636 -498.1253144878448 L 337.3863636363636 -508.1253144878448 L 349.8863636363636 -508.1253144878448 Z"/>
          <g style="fill:rgb(255,255,255);clip-path:url(#clip4);">
            <path d="M 381.02272727272725 -497.9976793613362 L 381.02272727272725 -507.9976793613362 L 393.52272727272725 -507.9976793613362 L 393.52272727272725 -497.9976793613362 Z" style="stroke:none;"/>
          </g>
          <g>
            <path d="M 387.27272727272725 -497.9976793613362 L 381.02272727272725 -507.9976793613362 L 393.52272727272725 -507.9976793613362 Z"/>
            <g style="fill:rgb(255,255,255);clip-path:url(#clip5);">
              <path d="M 424.6590909090909 -504.46163436047254 L 424.6590909090909 -514.4616343604725 L 437.1590909090909 -514.4616343604725 L 437.1590909090909 -504.46163436047254 Z" style="stroke:none;"/>
            </g>
            <g>
              <path d="M 430.9090909090909 -504.46163436047254 L 424.6590909090909 -514.4616343604725 L 437.1590909090909 -514.4616343604725 Z"/>
              <g style="fill:rgb(255,255,255);clip-path:url(#clip6);">
                <path d="M 468.2954545454545 -500.38350619212486 L 468.2954545454545 -510.38350619212486 L 480.7954545454545 -510.38350619212486 L 480.7954545454545 -500.38350619212486 Z" style="stroke:none;"/>
              </g>
              <g>
                <path d="M 474.5454545454545 -500.38350619212486 L 468.2954545454545 -510.38350619212486 L 480.7954545454545 -510.38350619212486 Z"/>
                <g style="fill:rgb(255,255,255);clip-path:url(#clip7);">
                  <path d="M 511.9318181818182 -503.0382342117714 L 511.9318181818182 -513.0382342117714 L 524.4318181818182 -513.0382342117714 L 524.4318181818182 -503.0382342117714 Z" style="stroke:none;"/>
                </g>
                <g>
                  <path d="M 518.1818181818182 -503.0382342117714 L 511.9318181818182 -513.0382342117714 L 524.4318181818182 -513.0382342117714 Z"/>
                  <g style="fill:rgb(255,255,255);clip-path:url(#clip8);">
                    <path d="M 555.5681818181818 -508.315471675441 L 555.5681818181818 -518.315471675441 L 568.0681818181818 -518.315471675441 L 568.0681818181818 -508.315471675441 Z" style="stroke:none;"/>
                  </g>
                  <g>
                    <path d="M 561.8181818181818 -508.315471675441 L 555.5681818181818 -518.315471675441 L 568.0681818181818 -518.315471675441 Z"/>
                    <g style="fill:rgb(255,255,255);clip-path:url(#clip9);">
                      <path d="M 599.2045454545455 -512.1023934871914 L 599.2045454545455 -522.1023934871914 L 611.7045454545455 -522.1023934871914 L 611.7045454545455 -512.1023934871914 Z" style="stroke:none;"/>
                    </g>
                    <g>
                      <path d="M 605.4545454545455 -512.1023934871914 L 599.2045454545455 -522.1023934871914 L 611.7045454545455 -522.1023934871914 Z"/>
                      <g style="fill:rgb(255,255,255);clip-path:url(#clip10);">
                        <path d="M 642.840909090909 -515.0 L 642.840909090909 -525.0 L 655.340909090909 -525.0 L 655.340909090909 -515.0 Z" style="stroke:none;"/>
                      </g>
                      <g>
                        <path d="M 649.090909090909 -515.0 L 642.840909090909 -525.0 L 655.340909090909 -525.0 Z"/>
                        <g style="fill:rgb(255,255,255);clip-path:url(#clip11);">
                          <path d="M 686.4772727272727 -493.7898507731707 L 686.4772727272727 -503.7898507731707 L 698.9772727272727 -503.7898507731707 L 698.9772727272727 -493.7898507731707 Z" style="stroke:none;"/>
                        </g>
                        <g>
                          <path d="M 692.7272727272727 -493.7898507731707 L 686.4772727272727 -503.7898507731707 L 698.9772727272727 -503.7898507731707 Z"/>
                          <g style="fill:rgb(255,255,255);clip-path:url(#clip12);">
                            <path d="M 730.1136363636364 -500.06462490518425 L 730.1136363636364 -510.06462490518425 L 742.6136363636364 -510.06462490518425 L 742.6136363636364 -500.06462490518425 Z" style="stroke:none;"/>
                          </g>
                          <g>
                            <path d="M 736.3636363636364 -500.06462490518425 L 730.1136363636364 -510.06462490518425 L 742.6136363636364 -510.06462490518425 Z"/>
                          </g>
                        </g>
                      </g>
                    </g>
                  </g>
                </g>
              </g>
            </g>
          </g>
        </g>
      </g>
      <g style="clip-path:url(#clip13);">
        <path d="M 343.6363636363636 -457.2126050483279 L 387.27272727272725 -470.17562503285694 L 430.9090909090909 -463.46011730865996 L 474.5454545454545 -470.70764458930705 L 518.1818181818182 -459.0606295014006 L 561.8181818181818 -464.9785209495843 L 605.4545454545455 -466.1780433035681 L 649.090909090909 -469.82617740494015 L 692.7272727272727 -470.6907091841716 L 736.3636363636364 -478.273227039571" style="stroke:rgb(0,0,128);stroke-width:2;"/>
      </g>
      <g style="clip-path:url(#clip14);">
        <g style="fill:rgb(255,255,255);clip-path:url(#clip15);">
          <path d="M 336.4935064935065 -450.0697479054707 L 336.4935064935065 -464.355462191185 L 350.7792207792208 -464.355462191185 L 350.7792207792208 -450.0697479054707 Z" style="stroke:none;"/>
        </g>
        <g>
          <path d="M 336.4935064935065 -457.2126050483279 L 343.6363636363636 -464.355462191185 L 350.7792207792208 -457.2126050483279 L 343.6363636363636 -450.0697479054707 Z"/>
          <g style="fill:rgb(255,255,255);clip-path:url(#clip16);">
            <path d="M 380.12987012987014 -463.03276788999983 L 380.12987012987014 -477.31848217571405 L 394.4155844155844 -477.31848217571405 L 394.4155844155844 -463.03276788999983 Z" style="stroke:none;"/>
          </g>
          <g>
            <path d="M 380.12987012987014 -470.17562503285694 L 387.27272727272725 -477.31848217571405 L 394.4155844155844 -470.17562503285694 L 387.27272727272725 -463.03276788999983 Z"/>
            <g style="fill:rgb(255,255,255);clip-path:url(#clip17);">
              <path d="M 423.76623376623377 -456.31726016580285 L 423.76623376623377 -470.60297445151707 L 438.05194805194805 -470.60297445151707 L 438.05194805194805 -456.31726016580285 Z" style="stroke:none;"/>
            </g>
            <g>
              <path d="M 423.76623376623377 -463.46011730865996 L 430.9090909090909 -470.60297445151707 L 438.05194805194805 -463.46011730865996 L 430.9090909090909 -456.31726016580285 Z"/>
              <g style="fill:rgb(255,255,255);clip-path:url(#clip18);">
                <path d="M 467.4025974025974 -463.56478744644994 L 467.4025974025974 -477.85050173216416 L 481.68831168831167 -477.85050173216416 L 481.68831168831167 -463.56478744644994 Z" style="stroke:none;"/>
              </g>
              <g>
                <path d="M 467.4025974025974 -470.70764458930705 L 474.5454545454545 -477.85050173216416 L 481.68831168831167 -470.70764458930705 L 474.5454545454545 -463.56478744644994 Z"/>
                <g style="fill:rgb(255,255,255);clip-path:url(#clip19);">
                  <path d="M 511.038961038961 -451.9177723585435 L 511.038961038961 -466.2034866442578 L 525.3246753246754 -466.2034866442578 L 525.3246753246754 -451.9177723585435 Z" style="stroke:none;"/>
                </g>
                <g>
                  <path d="M 511.038961038961 -459.0606295014006 L 518.1818181818182 -466.2034866442578 L 525.3246753246754 -459.0606295014006 L 518.1818181818182 -451.9177723585435 Z"/>
                  <g style="fill:rgb(255,255,255);clip-path:url(#clip20);">
                    <path d="M 554.6753246753246 -457.8356638067272 L 554.6753246753246 -472.12137809244143 L 568.961038961039 -472.12137809244143 L 568.961038961039 -457.8356638067272 Z" style="stroke:none;"/>
                  </g>
                  <g>
                    <path d="M 554.6753246753246 -464.9785209495843 L 561.8181818181818 -472.12137809244143 L 568.961038961039 -464.9785209495843 L 561.8181818181818 -457.8356638067272 Z"/>
                    <g style="fill:rgb(255,255,255);clip-path:url(#clip21);">
                      <path d="M 598.3116883116883 -459.03518616071096 L 598.3116883116883 -473.3209004464252 L 612.5974025974026 -473.3209004464252 L 612.5974025974026 -459.03518616071096 Z" style="stroke:none;"/>
                    </g>
                    <g>
                      <path d="M 598.3116883116883 -466.1780433035681 L 605.4545454545455 -473.3209004464252 L 612.5974025974026 -466.1780433035681 L 605.4545454545455 -459.03518616071096 Z"/>
                      <g style="fill:rgb(255,255,255);clip-path:url(#clip22);">
                        <path d="M 641.9480519480519 -462.68332026208304 L 641.9480519480519 -476.9690345477973 L 656.2337662337662 -476.9690345477973 L 656.2337662337662 -462.68332026208304 Z" style="stroke:none;"/>
                      </g>
                      <g>
                        <path d="M 641.9480519480519 -469.82617740494015 L 649.090909090909 -476.9690345477973 L 656.2337662337662 -469.82617740494015 L 649.090909090909 -462.68332026208304 Z"/>
                        <g style="fill:rgb(255,255,255);clip-path:url(#clip23);">
                          <path d="M 685.5844155844156 -463.54785204131446 L 685.5844155844156 -477.83356632702873 L 699.8701298701299 -477.83356632702873 L 699.8701298701299 -463.54785204131446 Z" style="stroke:none;"/>
                        </g>
                        <g>
                          <path d="M 685.5844155844156 -470.6907091841716 L 692.7272727272727 -477.83356632702873 L 699.8701298701299 -470.6907091841716 L 692.7272727272727 -463.54785204131446 Z"/>
                          <g style="fill:rgb(255,255,255);clip-path:url(#clip24);">
                            <path d="M 729.2207792207791 -471.1303698967139 L 729.2207792207791 -485.41608418242816 L 743.5064935064936 -485.41608418242816 L 743.5064935064936 -471.1303698967139 Z" style="stroke:none;"/>
                          </g>
                          <g>
                            <path d="M 729.2207792207791 -478.273227039571 L 736.3636363636364 -485.41608418242816 L 743.5064935064936 -478.273227039571 L 736.3636363636364 -471.1303698967139 Z"/>
                          </g>
                        </g>
                      </g>
                    </g>
                  </g>
                </g>
              </g>
            </g>
          </g>
        </g>
      </g>
      <g style="clip-path:url(#clip25);">
        <path d="M 343.6363636363636 -449.5991077932904 L 387.27272727272725 -457.63062041411007 L 430.9090909090909 -456.300158464323 L 474.5454545454545 -459.93342245386884 L 518.1818181818182 -461.9838456512433 L 561.8181818181818 -460.4295059067389 L 605.4545454545455 -461.5534385256059 L 649.090909090909 -462.6216082251245 L 692.7272727272727 -463.2321089273242 L 736.3636363636364 -466.05206041170686" style="stroke:rgb(0,0,128);stroke-width:2;"/>
      </g>
      <g style="clip-path:url(#clip26);">
        <g style="fill:rgb(179,179,179);clip-path:url(#clip27);">
          <path d="M 336.4935064935065 -442.4562506504333 L 336.4935064935065 -456.74196493614755 L 350.7792207792208 -456.74196493614755 L 350.7792207792208 -442.4562506504333 Z" style="stroke:none;"/>
        </g>
        <g>
          <path d="M 336.4935064935065 -449.5991077932904 L 343.6363636363636 -456.74196493614755 L 350.7792207792208 -449.5991077932904 L 343.6363636363636 -442.4562506504333 Z"/>
          <g style="fill:rgb(179,179,179);clip-path:url(#clip28);">
            <path d="M 380.12987012987014 -450.4877632712529 L 380.12987012987014 -464.77347755696724 L 394.4155844155844 -464.77347755696724 L 394.4155844155844 -450.4877632712529 Z" style="stroke:none;"/>
          </g>
          <g>
            <path d="M 380.12987012987014 -457.63062041411007 L 387.27272727272725 -464.77347755696724 L 394.4155844155844 -457.63062041411007 L 387.27272727272725 -450.4877632712529 Z"/>
            <g style="fill:rgb(179,179,179);clip-path:url(#clip29);">
              <path d="M 423.76623376623377 -449.15730132146587 L 423.76623376623377 -463.44301560718014 L 438.05194805194805 -463.44301560718014 L 438.05194805194805 -449.15730132146587 Z" style="stroke:none;"/>
            </g>
            <g>
              <path d="M 423.76623376623377 -456.300158464323 L 430.9090909090909 -463.44301560718014 L 438.05194805194805 -456.300158464323 L 430.9090909090909 -449.15730132146587 Z"/>
              <g style="fill:rgb(179,179,179);clip-path:url(#clip30);">
                <path d="M 467.4025974025974 -452.79056531101173 L 467.4025974025974 -467.07627959672595 L 481.68831168831167 -467.07627959672595 L 481.68831168831167 -452.79056531101173 Z" style="stroke:none;"/>
              </g>
              <g>
                <path d="M 467.4025974025974 -459.93342245386884 L 474.5454545454545 -467.07627959672595 L 481.68831168831167 -459.93342245386884 L 474.5454545454545 -452.79056531101173 Z"/>
                <g style="fill:rgb(179,179,179);clip-path:url(#clip31);">
                  <path d="M 511.038961038961 -454.8409885083862 L 511.038961038961 -469.1267027941004 L 525.3246753246754 -469.1267027941004 L 525.3246753246754 -454.8409885083862 Z" style="stroke:none;"/>
                </g>
                <g>
                  <path d="M 511.038961038961 -461.9838456512433 L 518.1818181818182 -469.1267027941004 L 525.3246753246754 -461.9838456512433 L 518.1818181818182 -454.8409885083862 Z"/>
                  <g style="fill:rgb(179,179,179);clip-path:url(#clip32);">
                    <path d="M 554.6753246753246 -453.2866487638818 L 554.6753246753246 -467.572363049596 L 568.961038961039 -467.572363049596 L 568.961038961039 -453.2866487638818 Z" style="stroke:none;"/>
                  </g>
                  <g>
                    <path d="M 554.6753246753246 -460.4295059067389 L 561.8181818181818 -467.572363049596 L 568.961038961039 -460.4295059067389 L 561.8181818181818 -453.2866487638818 Z"/>
                    <g style="fill:rgb(179,179,179);clip-path:url(#clip33);">
                      <path d="M 598.3116883116883 -454.4105813827487 L 598.3116883116883 -468.696295668463 L 612.5974025974026 -468.696295668463 L 612.5974025974026 -454.4105813827487 Z" style="stroke:none;"/>
                    </g>
                    <g>
                      <path d="M 598.3116883116883 -461.5534385256059 L 605.4545454545455 -468.696295668463 L 612.5974025974026 -461.5534385256059 L 605.4545454545455 -454.4105813827487 Z"/>
                      <g style="fill:rgb(179,179,179);clip-path:url(#clip34);">
                        <path d="M 641.9480519480519 -455.4787510822673 L 641.9480519480519 -469.76446536798164 L 656.2337662337662 -469.76446536798164 L 656.2337662337662 -455.4787510822673 Z" style="stroke:none;"/>
                      </g>
                      <g>
                        <path d="M 641.9480519480519 -462.6216082251245 L 649.090909090909 -469.76446536798164 L 656.2337662337662 -462.6216082251245 L 649.090909090909 -455.4787510822673 Z"/>
                        <g style="fill:rgb(179,179,179);clip-path:url(#clip35);">
                          <path d="M 685.5844155844156 -456.089251784467 L 685.5844155844156 -470.37496607018136 L 699.8701298701299 -470.37496607018136 L 699.8701298701299 -456.089251784467 Z" style="stroke:none;"/>
                        </g>
                        <g>
                          <path d="M 685.5844155844156 -463.2321089273242 L 692.7272727272727 -470.37496607018136 L 699.8701298701299 -463.2321089273242 L 692.7272727272727 -456.089251784467 Z"/>
                          <g style="fill:rgb(179,179,179);clip-path:url(#clip36);">
                            <path d="M 729.2207792207791 -458.9092032688497 L 729.2207792207791 -473.194917554564 L 743.5064935064936 -473.194917554564 L 743.5064935064936 -458.9092032688497 Z" style="stroke:none;"/>
                          </g>
                          <g>
                            <path d="M 729.2207792207791 -466.05206041170686 L 736.3636363636364 -473.194917554564 L 743.5064935064936 -466.05206041170686 L 736.3636363636364 -458.9092032688497 Z"/>
                          </g>
                        </g>
                      </g>
                    </g>
                  </g>
                </g>
              </g>
            </g>
          </g>
        </g>
      </g>
      <g style="clip-path:url(#clip37);">
        <path d="M 343.6363636363636 -448.23807950252717 L 387.27272727272725 -456.5062747365812 L 430.9090909090909 -454.65329357956637 L 474.5454545454545 -460.05527475911174 L 518.1818181818182 -456.11676041846596 L 561.8181818181818 -459.08623913843473 L 605.4545454545455 -460.2477600955292 L 649.090909090909 -462.6216082251245 L 692.7272727272727 -462.638130571598 L 736.3636363636364 -466.50022905980336" style="stroke:rgb(0,0,128);stroke-width:2;"/>
      </g>
      <g style="clip-path:url(#clip38);">
        <path d="M 338.6363636363636 -443.23807950252717 L 348.6363636363636 -453.23807950252717" style="stroke-width:0.7;"/>
        <path d="M 348.6363636363636 -443.23807950252717 L 338.6363636363636 -453.23807950252717" style="stroke-width:0.7;"/>
        <path d="M 382.27272727272725 -451.5062747365812 L 392.27272727272725 -461.5062747365812" style="stroke-width:0.7;"/>
        <path d="M 392.27272727272725 -451.5062747365812 L 382.27272727272725 -461.5062747365812" style="stroke-width:0.7;"/>
        <path d="M 425.9090909090909 -449.65329357956637 L 435.9090909090909 -459.65329357956637" style="stroke-width:0.7;"/>
        <path d="M 435.9090909090909 -449.65329357956637 L 425.9090909090909 -459.65329357956637" style="stroke-width:0.7;"/>
        <path d="M 469.5454545454545 -455.05527475911174 L 479.5454545454545 -465.05527475911174" style="stroke-width:0.7;"/>
        <path d="M 479.5454545454545 -455.05527475911174 L 469.5454545454545 -465.05527475911174" style="stroke-width:0.7;"/>
        <path d="M 513.1818181818182 -451.11676041846596 L 523.1818181818182 -461.11676041846596" style="stroke-width:0.7;"/>
        <path d="M 523.1818181818182 -451.11676041846596 L 513.1818181818182 -461.11676041846596" style="stroke-width:0.7;"/>
        <path d="M 556.8181818181818 -454.08623913843473 L 566.8181818181818 -464.08623913843473" style="stroke-width:0.7;"/>
        <path d="M 566.8181818181818 -454.08623913843473 L 556.8181818181818 -464.08623913843473" style="stroke-width:0.7;"/>
        <path d="M 600.4545454545455 -455.2477600955292 L 610.4545454545455 -465.2477600955292" style="stroke-width:0.7;"/>
        <path d="M 610.4545454545455 -455.2477600955292 L 600.4545454545455 -465.2477600955292" style="stroke-width:0.7;"/>
        <path d="M 644.090909090909 -457.6216082251245 L 654.090909090909 -467.6216082251245" style="stroke-width:0.7;"/>
        <path d="M 654.090909090909 -457.6216082251245 L 644.090909090909 -467.6216082251245" style="stroke-width:0.7;"/>
        <path d="M 687.7272727272727 -457.638130571598 L 697.7272727272727 -467.638130571598" style="stroke-width:0.7;"/>
        <path d="M 697.7272727272727 -457.638130571598 L 687.7272727272727 -467.638130571598" style="stroke-width:0.7;"/>
        <path d="M 731.3636363636364 -461.50022905980336 L 741.3636363636364 -471.50022905980336" style="stroke-width:0.7;"/>
        <path d="M 741.3636363636364 -461.50022905980336 L 731.3636363636364 -471.50022905980336" style="stroke-width:0.7;"/>
      </g>
    </g>
    <g style="fill:rgb(255,255,255);clip-path:url(#clip39);">
      <path d="M 290 -54 L 290 -136 L 708.4 -136 L 708.4 -54 Z" style="stroke:none;"/>
    </g>
    <path d="M 300 -125.33333333333334 L 316 -125.33333333333334" style="stroke:rgb(0,138,0);stroke-width:2;"/>
    <g style="fill:rgb(255,255,255);clip-path:url(#clip40);">
      <path d="M 301.75 -120.33333333333334 L 301.75 -130.33333333333334 L 314.25 -130.33333333333334 L 314.25 -120.33333333333334 Z" style="stroke:none;"/>
    </g>
    <g>
      <path d="M 308.0 -120.33333333333334 L 301.75 -130.33333333333334 L 314.25 -130.33333333333334 Z"/>
      <text style="font-size:16;stroke:none;fill:rgb(0,0,0);" x="316.0" y="-120.0">
        cc_hash_mod_prime_nea_lc_1div8_1div1_nsth_map
      </text>
      <path d="M 300 -105.33333333333334 L 316 -105.33333333333334" style="stroke:rgb(0,0,128);stroke-width:2;"/>
      <g style="fill:rgb(255,255,255);clip-path:url(#clip41);">
        <path d="M 300.85714285714283 -98.1904761904762 L 300.85714285714283 -112.47619047619048 L 315.14285714285717 -112.47619047619048 L 315.14285714285717 -98.1904761904762 Z" style="stroke:none;"/>
      </g>
      <g>
        <path d="M 300.85714285714283 -105.33333333333334 L 308.0 -112.47619047619048 L 315.14285714285717 -105.33333333333334 L 308.0 -98.1904761904762 Z"/>
        <text style="font-size:16;stroke:none;fill:rgb(0,0,0);" x="316.0" y="-100.0">
          cc_hash_mask_exp_nea_lc_1div8_1div1_nsth_map
        </text>
        <path d="M 300 -85.33333333333334 L 316 -85.33333333333334" style="stroke:rgb(0,0,128);stroke-width:2;"/>
        <g style="fill:rgb(179,179,179);clip-path:url(#clip42);">
          <path d="M 300.85714285714283 -78.1904761904762 L 300.85714285714283 -92.47619047619048 L 315.14285714285717 -92.47619047619048 L 315.14285714285717 -78.1904761904762 Z" style="stroke:none;"/>
        </g>
        <g>
          <path d="M 300.85714285714283 -85.33333333333334 L 308.0 -92.47619047619048 L 315.14285714285717 -85.33333333333334 L 308.0 -78.1904761904762 Z"/>
          <text style="font-size:16;stroke:none;fill:rgb(0,0,0);" x="316.0" y="-80.0">
            cc_hash_mask_exp_nea_lc_1div8_1div2_sth_map
          </text>
          <path d="M 300 -65.33333333333334 L 316 -65.33333333333334" style="stroke:rgb(0,0,128);stroke-width:2;"/>
          <path d="M 303.0 -60.33333333333334 L 313.0 -70.33333333333334" style="stroke-width:0.7;"/>
          <path d="M 313.0 -60.33333333333334 L 303.0 -70.33333333333334" style="stroke-width:0.7;"/>
          <text style="font-size:16;stroke:none;fill:rgb(0,0,0);" x="316.0" y="-60.0">
            cc_hash_mask_exp_nea_lc_1div8_1div2_nsth_map
          </text>
        </g>
      </g>
    </g>
  </g>
</svg>
