<?xml version="1.0" ?>
<!--Created by PyChart 1.39 Copyright 1999-2006 Yasushi Saito-->
<svg viewBox="178 -544 620 476" xmlns="http://www.w3.org/2000/svg" xmlns:xlink="http://www.w3.org/1999/xlink">
  <defs>
    <clipPath id="clip0">
      <path d="M 294 -294 L 294 -526 L 786 -526 L 786 -294 Z"/>
    </clipPath>
    <clipPath id="clip1">
      <path d="M 294 -294 L 294 -526 L 786 -526 L 786 -294 Z"/>
    </clipPath>
    <clipPath id="clip2">
      <path d="M 280 -280 L 280 -540 L 800 -540 L 800 -280 Z"/>
    </clipPath>
    <clipPath id="clip3">
      <path d="M 343.6363636363636 -316.5437748370624 L 337.3863636363636 -326.5437748370624 L 349.8863636363636 -326.5437748370624 Z"/>
    </clipPath>
    <clipPath id="clip4">
      <path d="M 387.27272727272725 -338.0876439598728 L 381.02272727272725 -348.0876439598728 L 393.52272727272725 -348.0876439598728 Z"/>
    </clipPath>
    <clipPath id="clip5">
      <path d="M 430.9090909090909 -358.43497979820705 L 424.6590909090909 -368.4349797982071 L 437.1590909090909 -368.4349797982071 Z"/>
    </clipPath>
    <clipPath id="clip6">
      <path d="M 474.5454545454545 -380.3337876192099 L 468.2954545454545 -390.3337876192099 L 480.7954545454545 -390.3337876192099 Z"/>
    </clipPath>
    <clipPath id="clip7">
      <path d="M 518.1818181818182 -400.28583045922517 L 511.9318181818182 -410.28583045922517 L 524.4318181818182 -410.28583045922517 Z"/>
    </clipPath>
    <clipPath id="clip8">
      <path d="M 561.8181818181818 -425.62512522325903 L 555.5681818181818 -435.62512522325903 L 568.0681818181818 -435.62512522325903 Z"/>
    </clipPath>
    <clipPath id="clip9">
      <path d="M 605.4545454545455 -445.8291467246953 L 599.2045454545455 -455.8291467246953 L 611.7045454545455 -455.8291467246953 Z"/>
    </clipPath>
    <clipPath id="clip10">
      <path d="M 649.090909090909 -466.8751399554071 L 642.840909090909 -476.8751399554071 L 655.340909090909 -476.8751399554071 Z"/>
    </clipPath>
    <clipPath id="clip11">
      <path d="M 692.7272727272727 -491.4285630102011 L 686.4772727272727 -501.4285630102011 L 698.9772727272727 -501.4285630102011 Z"/>
    </clipPath>
    <clipPath id="clip12">
      <path d="M 736.3636363636364 -515.0 L 730.1136363636364 -525.0 L 742.6136363636364 -525.0 Z"/>
    </clipPath>
    <clipPath id="clip13">
      <path d="M 294 -294 L 294 -526 L 786 -526 L 786 -294 Z"/>
    </clipPath>
    <clipPath id="clip14">
      <path d="M 280 -280 L 280 -540 L 800 -540 L 800 -280 Z"/>
    </clipPath>
    <clipPath id="clip15">
      <path d="M 337.3863636363636 -298.6778984563923 L 349.8863636363636 -298.6778984563923 L 343.6363636363636 -308.6778984563923 Z"/>
    </clipPath>
    <clipPath id="clip16">
      <path d="M 381.02272727272725 -301.9311810468504 L 393.52272727272725 -301.9311810468504 L 387.27272727272725 -311.9311810468504 Z"/>
    </clipPath>
    <clipPath id="clip17">
      <path d="M 424.6590909090909 -305.13826362080846 L 437.1590909090909 -305.13826362080846 L 430.9090909090909 -315.13826362080846 Z"/>
    </clipPath>
    <clipPath id="clip18">
      <path d="M 468.2954545454545 -311.8510788753853 L 480.7954545454545 -311.8510788753853 L 474.5454545454545 -321.8510788753853 Z"/>
    </clipPath>
    <clipPath id="clip19">
      <path d="M 511.9318181818182 -321.61804522073044 L 524.4318181818182 -321.61804522073044 L 518.1818181818182 -331.61804522073044 Z"/>
    </clipPath>
    <clipPath id="clip20">
      <path d="M 555.5681818181818 -330.3767197773999 L 568.0681818181818 -330.3767197773999 L 561.8181818181818 -340.3767197773999 Z"/>
    </clipPath>
    <clipPath id="clip21">
      <path d="M 599.2045454545455 -338.877522813401 L 611.7045454545455 -338.877522813401 L 605.4545454545455 -348.877522813401 Z"/>
    </clipPath>
    <clipPath id="clip22">
      <path d="M 642.840909090909 -347.380918707471 L 655.340909090909 -347.380918707471 L 649.090909090909 -357.380918707471 Z"/>
    </clipPath>
    <clipPath id="clip23">
      <path d="M 686.4772727272727 -355.23822151365056 L 698.9772727272727 -355.23822151365056 L 692.7272727272727 -365.23822151365056 Z"/>
    </clipPath>
    <clipPath id="clip24">
      <path d="M 730.1136363636364 -361.2946665338095 L 742.6136363636364 -361.2946665338095 L 736.3636363636364 -371.2946665338095 Z"/>
    </clipPath>
    <clipPath id="clip25">
      <path d="M 294 -294 L 294 -526 L 786 -526 L 786 -294 Z"/>
    </clipPath>
    <clipPath id="clip26">
      <path d="M 280 -280 L 280 -540 L 800 -540 L 800 -280 Z"/>
    </clipPath>
    <clipPath id="clip27">
      <path d="M 343.6363636363636 -296.12794983141066 L 337.3863636363636 -306.12794983141066 L 349.8863636363636 -306.12794983141066 Z"/>
    </clipPath>
    <clipPath id="clip28">
      <path d="M 387.27272727272725 -296.14112626468795 L 381.02272727272725 -306.14112626468795 L 393.52272727272725 -306.14112626468795 Z"/>
    </clipPath>
    <clipPath id="clip29">
      <path d="M 430.9090909090909 -296.2265114380398 L 424.6590909090909 -306.2265114380398 L 437.1590909090909 -306.2265114380398 Z"/>
    </clipPath>
    <clipPath id="clip30">
      <path d="M 474.5454545454545 -296.28001388571926 L 468.2954545454545 -306.28001388571926 L 480.7954545454545 -306.28001388571926 Z"/>
    </clipPath>
    <clipPath id="clip31">
      <path d="M 518.1818181818182 -296.303632465583 L 511.9318181818182 -306.303632465583 L 524.4318181818182 -306.303632465583 Z"/>
    </clipPath>
    <clipPath id="clip32">
      <path d="M 561.8181818181818 -296.326145545052 L 555.5681818181818 -306.326145545052 L 568.0681818181818 -306.326145545052 Z"/>
    </clipPath>
    <clipPath id="clip33">
      <path d="M 605.4545454545455 -296.31326611188075 L 599.2045454545455 -306.31326611188075 L 611.7045454545455 -306.31326611188075 Z"/>
    </clipPath>
    <clipPath id="clip34">
      <path d="M 649.090909090909 -296.34661733807764 L 642.840909090909 -306.34661733807764 L 655.340909090909 -306.34661733807764 Z"/>
    </clipPath>
    <clipPath id="clip35">
      <path d="M 692.7272727272727 -296.33220104721465 L 686.4772727272727 -306.33220104721465 L 698.9772727272727 -306.33220104721465 Z"/>
    </clipPath>
    <clipPath id="clip36">
      <path d="M 736.3636363636364 -296.33794069212166 L 730.1136363636364 -306.33794069212166 L 742.6136363636364 -306.33794069212166 Z"/>
    </clipPath>
    <clipPath id="clip37">
      <path d="M 290 -74 L 290 -136 L 464.736 -136 L 464.736 -74 Z"/>
    </clipPath>
    <clipPath id="clip38">
      <path d="M 308.0 -120.33333333333334 L 301.75 -130.33333333333334 L 314.25 -130.33333333333334 Z"/>
    </clipPath>
    <clipPath id="clip39">
      <path d="M 301.75 -100.33333333333334 L 314.25 -100.33333333333334 L 308.0 -110.33333333333334 Z"/>
    </clipPath>
    <clipPath id="clip40">
      <path d="M 308.0 -80.33333333333334 L 301.75 -90.33333333333334 L 314.25 -90.33333333333334 Z"/>
    </clipPath>
  </defs>
  <g style="stroke-linejoin:miter;font-size:8;font-family:Helvetica;fill:none;stroke-linecap:butt;stroke:rgb(0,0,0);font-stretch:normal;stroke-dasharray:none;font-weight:normal;font-style:normal;stroke-width:0.5;">
    <path d="M 300 -300 L 780 -300"/>
    <path d="M 300 -300 L 780 -300"/>
    <path d="M 300.0 -300 L 300.0 -288"/>
    <text style="font-size:12;font-style:italic;stroke:none;fill:rgb(0,0,0);" transform="rotate(90,300,-288)" x="300.0" y="-288.0">
      0
    </text>
    <path d="M 343.6363636363636 -300 L 343.6363636363636 -288"/>
    <text style="font-size:12;font-style:italic;stroke:none;fill:rgb(0,0,0);" transform="rotate(90,343.636,-288)" x="343.6363636363636" y="-288.0">
      200
    </text>
    <path d="M 387.27272727272725 -300 L 387.27272727272725 -288"/>
    <text style="font-size:12;font-style:italic;stroke:none;fill:rgb(0,0,0);" transform="rotate(90,387.273,-288)" x="387.27272727272725" y="-288.0">
      400
    </text>
    <path d="M 430.9090909090909 -300 L 430.9090909090909 -288"/>
    <text style="font-size:12;font-style:italic;stroke:none;fill:rgb(0,0,0);" transform="rotate(90,430.909,-288)" x="430.9090909090909" y="-288.0">
      600
    </text>
    <path d="M 474.5454545454545 -300 L 474.5454545454545 -288"/>
    <text style="font-size:12;font-style:italic;stroke:none;fill:rgb(0,0,0);" transform="rotate(90,474.545,-288)" x="474.5454545454545" y="-288.0">
      800
    </text>
    <path d="M 518.1818181818182 -300 L 518.1818181818182 -288"/>
    <text style="font-size:12;font-style:italic;stroke:none;fill:rgb(0,0,0);" transform="rotate(90,518.182,-288)" x="518.1818181818182" y="-288.0">
      1000
    </text>
    <path d="M 561.8181818181818 -300 L 561.8181818181818 -288"/>
    <text style="font-size:12;font-style:italic;stroke:none;fill:rgb(0,0,0);" transform="rotate(90,561.818,-288)" x="561.8181818181818" y="-288.0">
      1200
    </text>
    <path d="M 605.4545454545455 -300 L 605.4545454545455 -288"/>
    <text style="font-size:12;font-style:italic;stroke:none;fill:rgb(0,0,0);" transform="rotate(90,605.455,-288)" x="605.4545454545455" y="-288.0">
      1400
    </text>
    <path d="M 649.090909090909 -300 L 649.090909090909 -288"/>
    <text style="font-size:12;font-style:italic;stroke:none;fill:rgb(0,0,0);" transform="rotate(90,649.091,-288)" x="649.090909090909" y="-288.0">
      1600
    </text>
    <path d="M 692.7272727272727 -300 L 692.7272727272727 -288"/>
    <text style="font-size:12;font-style:italic;stroke:none;fill:rgb(0,0,0);" transform="rotate(90,692.727,-288)" x="692.7272727272727" y="-288.0">
      1800
    </text>
    <path d="M 736.3636363636364 -300 L 736.3636363636364 -288"/>
    <text style="font-size:12;font-style:italic;stroke:none;fill:rgb(0,0,0);" transform="rotate(90,736.364,-288)" x="736.3636363636364" y="-288.0">
      2000
    </text>
    <path d="M 780.0 -300 L 780.0 -288"/>
    <text style="font-size:12;font-style:italic;stroke:none;fill:rgb(0,0,0);" transform="rotate(90,780,-288)" x="780.0" y="-288.0">
      2200
    </text>
    <text style="font-size:16;stroke:none;fill:rgb(0,0,0);" x="524.44" y="-220.0">
      Size
    </text>
    <path d="M 300 -300 L 300 -520"/>
    <path d="M 300 -300.0 L 288 -300.0"/>
    <text style="font-size:12;font-style:italic;stroke:none;fill:rgb(0,0,0);" x="238.0" y="-294.0">
      0.00e+00
    </text>
    <path d="M 300 -344.0 L 288 -344.0"/>
    <text style="font-size:12;font-style:italic;stroke:none;fill:rgb(0,0,0);" x="238.0" y="-338.0">
      1.87e-06
    </text>
    <path d="M 300 -388.0 L 288 -388.0"/>
    <text style="font-size:12;font-style:italic;stroke:none;fill:rgb(0,0,0);" x="238.0" y="-382.0">
      3.73e-06
    </text>
    <path d="M 300 -432.0 L 288 -432.0"/>
    <text style="font-size:12;font-style:italic;stroke:none;fill:rgb(0,0,0);" x="238.0" y="-426.0">
      5.60e-06
    </text>
    <path d="M 300 -476.0 L 288 -476.0"/>
    <text style="font-size:12;font-style:italic;stroke:none;fill:rgb(0,0,0);" x="238.0" y="-470.0">
      7.47e-06
    </text>
    <path d="M 300 -520.0 L 288 -520.0"/>
    <text style="font-size:12;font-style:italic;stroke:none;fill:rgb(0,0,0);" x="238.0" y="-514.0">
      9.33e-06
    </text>
    <text style="font-size:16;stroke:none;fill:rgb(0,0,0);" transform="rotate(-90,200,-340.648)" x="200.0" y="-340.648">
      Average time (sec.)
    </text>
    <g style="clip-path:url(#clip0);">
      <g style="clip-path:url(#clip1);">
        <path d="M 343.6363636363636 -321.5437748370624 L 387.27272727272725 -343.0876439598728 L 430.9090909090909 -363.43497979820705 L 474.5454545454545 -385.3337876192099 L 518.1818181818182 -405.28583045922517 L 561.8181818181818 -430.62512522325903 L 605.4545454545455 -450.8291467246953 L 649.090909090909 -471.8751399554071 L 692.7272727272727 -496.4285630102011 L 736.3636363636364 -520.0" style="stroke:rgb(126,126,126);stroke-width:0.4;stroke-dasharray:1.5,1.5;"/>
      </g>
      <g style="clip-path:url(#clip2);">
        <g style="fill:rgb(0,0,0);clip-path:url(#clip3);">
          <path d="M 337.3863636363636 -316.5437748370624 L 337.3863636363636 -326.5437748370624 L 349.8863636363636 -326.5437748370624 L 349.8863636363636 -316.5437748370624 Z" style="stroke:none;"/>
        </g>
        <g>
          <path d="M 343.6363636363636 -316.5437748370624 L 337.3863636363636 -326.5437748370624 L 349.8863636363636 -326.5437748370624 Z"/>
          <g style="fill:rgb(0,0,0);clip-path:url(#clip4);">
            <path d="M 381.02272727272725 -338.0876439598728 L 381.02272727272725 -348.0876439598728 L 393.52272727272725 -348.0876439598728 L 393.52272727272725 -338.0876439598728 Z" style="stroke:none;"/>
          </g>
          <g>
            <path d="M 387.27272727272725 -338.0876439598728 L 381.02272727272725 -348.0876439598728 L 393.52272727272725 -348.0876439598728 Z"/>
            <g style="fill:rgb(0,0,0);clip-path:url(#clip5);">
              <path d="M 424.6590909090909 -358.43497979820705 L 424.6590909090909 -368.4349797982071 L 437.1590909090909 -368.4349797982071 L 437.1590909090909 -358.43497979820705 Z" style="stroke:none;"/>
            </g>
            <g>
              <path d="M 430.9090909090909 -358.43497979820705 L 424.6590909090909 -368.4349797982071 L 437.1590909090909 -368.4349797982071 Z"/>
              <g style="fill:rgb(0,0,0);clip-path:url(#clip6);">
                <path d="M 468.2954545454545 -380.3337876192099 L 468.2954545454545 -390.3337876192099 L 480.7954545454545 -390.3337876192099 L 480.7954545454545 -380.3337876192099 Z" style="stroke:none;"/>
              </g>
              <g>
                <path d="M 474.5454545454545 -380.3337876192099 L 468.2954545454545 -390.3337876192099 L 480.7954545454545 -390.3337876192099 Z"/>
                <g style="fill:rgb(0,0,0);clip-path:url(#clip7);">
                  <path d="M 511.9318181818182 -400.28583045922517 L 511.9318181818182 -410.28583045922517 L 524.4318181818182 -410.28583045922517 L 524.4318181818182 -400.28583045922517 Z" style="stroke:none;"/>
                </g>
                <g>
                  <path d="M 518.1818181818182 -400.28583045922517 L 511.9318181818182 -410.28583045922517 L 524.4318181818182 -410.28583045922517 Z"/>
                  <g style="fill:rgb(0,0,0);clip-path:url(#clip8);">
                    <path d="M 555.5681818181818 -425.62512522325903 L 555.5681818181818 -435.62512522325903 L 568.0681818181818 -435.62512522325903 L 568.0681818181818 -425.62512522325903 Z" style="stroke:none;"/>
                  </g>
                  <g>
                    <path d="M 561.8181818181818 -425.62512522325903 L 555.5681818181818 -435.62512522325903 L 568.0681818181818 -435.62512522325903 Z"/>
                    <g style="fill:rgb(0,0,0);clip-path:url(#clip9);">
                      <path d="M 599.2045454545455 -445.8291467246953 L 599.2045454545455 -455.8291467246953 L 611.7045454545455 -455.8291467246953 L 611.7045454545455 -445.8291467246953 Z" style="stroke:none;"/>
                    </g>
                    <g>
                      <path d="M 605.4545454545455 -445.8291467246953 L 599.2045454545455 -455.8291467246953 L 611.7045454545455 -455.8291467246953 Z"/>
                      <g style="fill:rgb(0,0,0);clip-path:url(#clip10);">
                        <path d="M 642.840909090909 -466.8751399554071 L 642.840909090909 -476.8751399554071 L 655.340909090909 -476.8751399554071 L 655.340909090909 -466.8751399554071 Z" style="stroke:none;"/>
                      </g>
                      <g>
                        <path d="M 649.090909090909 -466.8751399554071 L 642.840909090909 -476.8751399554071 L 655.340909090909 -476.8751399554071 Z"/>
                        <g style="fill:rgb(0,0,0);clip-path:url(#clip11);">
                          <path d="M 686.4772727272727 -491.4285630102011 L 686.4772727272727 -501.4285630102011 L 698.9772727272727 -501.4285630102011 L 698.9772727272727 -491.4285630102011 Z" style="stroke:none;"/>
                        </g>
                        <g>
                          <path d="M 692.7272727272727 -491.4285630102011 L 686.4772727272727 -501.4285630102011 L 698.9772727272727 -501.4285630102011 Z"/>
                          <g style="fill:rgb(0,0,0);clip-path:url(#clip12);">
                            <path d="M 730.1136363636364 -515.0 L 730.1136363636364 -525.0 L 742.6136363636364 -525.0 L 742.6136363636364 -515.0 Z" style="stroke:none;"/>
                          </g>
                          <g>
                            <path d="M 736.3636363636364 -515.0 L 730.1136363636364 -525.0 L 742.6136363636364 -525.0 Z"/>
                          </g>
                        </g>
                      </g>
                    </g>
                  </g>
                </g>
              </g>
            </g>
          </g>
        </g>
      </g>
      <g style="clip-path:url(#clip13);">
        <path d="M 343.6363636363636 -303.6778984563923 L 387.27272727272725 -306.9311810468504 L 430.9090909090909 -310.13826362080846 L 474.5454545454545 -316.8510788753853 L 518.1818181818182 -326.61804522073044 L 561.8181818181818 -335.3767197773999 L 605.4545454545455 -343.877522813401 L 649.090909090909 -352.380918707471 L 692.7272727272727 -360.23822151365056 L 736.3636363636364 -366.2946665338095" style="stroke:rgb(147,147,147);stroke-width:2;"/>
      </g>
      <g style="clip-path:url(#clip14);">
        <g style="fill:rgb(255,255,255);clip-path:url(#clip15);">
          <path d="M 337.3863636363636 -298.6778984563923 L 337.3863636363636 -308.6778984563923 L 349.8863636363636 -308.6778984563923 L 349.8863636363636 -298.6778984563923 Z" style="stroke:none;"/>
        </g>
        <g>
          <path d="M 337.3863636363636 -298.6778984563923 L 349.8863636363636 -298.6778984563923 L 343.6363636363636 -308.6778984563923 Z"/>
          <g style="fill:rgb(255,255,255);clip-path:url(#clip16);">
            <path d="M 381.02272727272725 -301.9311810468504 L 381.02272727272725 -311.9311810468504 L 393.52272727272725 -311.9311810468504 L 393.52272727272725 -301.9311810468504 Z" style="stroke:none;"/>
          </g>
          <g>
            <path d="M 381.02272727272725 -301.9311810468504 L 393.52272727272725 -301.9311810468504 L 387.27272727272725 -311.9311810468504 Z"/>
            <g style="fill:rgb(255,255,255);clip-path:url(#clip17);">
              <path d="M 424.6590909090909 -305.13826362080846 L 424.6590909090909 -315.13826362080846 L 437.1590909090909 -315.13826362080846 L 437.1590909090909 -305.13826362080846 Z" style="stroke:none;"/>
            </g>
            <g>
              <path d="M 424.6590909090909 -305.13826362080846 L 437.1590909090909 -305.13826362080846 L 430.9090909090909 -315.13826362080846 Z"/>
              <g style="fill:rgb(255,255,255);clip-path:url(#clip18);">
                <path d="M 468.2954545454545 -311.8510788753853 L 468.2954545454545 -321.8510788753853 L 480.7954545454545 -321.8510788753853 L 480.7954545454545 -311.8510788753853 Z" style="stroke:none;"/>
              </g>
              <g>
                <path d="M 468.2954545454545 -311.8510788753853 L 480.7954545454545 -311.8510788753853 L 474.5454545454545 -321.8510788753853 Z"/>
                <g style="fill:rgb(255,255,255);clip-path:url(#clip19);">
                  <path d="M 511.9318181818182 -321.61804522073044 L 511.9318181818182 -331.61804522073044 L 524.4318181818182 -331.61804522073044 L 524.4318181818182 -321.61804522073044 Z" style="stroke:none;"/>
                </g>
                <g>
                  <path d="M 511.9318181818182 -321.61804522073044 L 524.4318181818182 -321.61804522073044 L 518.1818181818182 -331.61804522073044 Z"/>
                  <g style="fill:rgb(255,255,255);clip-path:url(#clip20);">
                    <path d="M 555.5681818181818 -330.3767197773999 L 555.5681818181818 -340.3767197773999 L 568.0681818181818 -340.3767197773999 L 568.0681818181818 -330.3767197773999 Z" style="stroke:none;"/>
                  </g>
                  <g>
                    <path d="M 555.5681818181818 -330.3767197773999 L 568.0681818181818 -330.3767197773999 L 561.8181818181818 -340.3767197773999 Z"/>
                    <g style="fill:rgb(255,255,255);clip-path:url(#clip21);">
                      <path d="M 599.2045454545455 -338.877522813401 L 599.2045454545455 -348.877522813401 L 611.7045454545455 -348.877522813401 L 611.7045454545455 -338.877522813401 Z" style="stroke:none;"/>
                    </g>
                    <g>
                      <path d="M 599.2045454545455 -338.877522813401 L 611.7045454545455 -338.877522813401 L 605.4545454545455 -348.877522813401 Z"/>
                      <g style="fill:rgb(255,255,255);clip-path:url(#clip22);">
                        <path d="M 642.840909090909 -347.380918707471 L 642.840909090909 -357.380918707471 L 655.340909090909 -357.380918707471 L 655.340909090909 -347.380918707471 Z" style="stroke:none;"/>
                      </g>
                      <g>
                        <path d="M 642.840909090909 -347.380918707471 L 655.340909090909 -347.380918707471 L 649.090909090909 -357.380918707471 Z"/>
                        <g style="fill:rgb(255,255,255);clip-path:url(#clip23);">
                          <path d="M 686.4772727272727 -355.23822151365056 L 686.4772727272727 -365.23822151365056 L 698.9772727272727 -365.23822151365056 L 698.9772727272727 -355.23822151365056 Z" style="stroke:none;"/>
                        </g>
                        <g>
                          <path d="M 686.4772727272727 -355.23822151365056 L 698.9772727272727 -355.23822151365056 L 692.7272727272727 -365.23822151365056 Z"/>
                          <g style="fill:rgb(255,255,255);clip-path:url(#clip24);">
                            <path d="M 730.1136363636364 -361.2946665338095 L 730.1136363636364 -371.2946665338095 L 742.6136363636364 -371.2946665338095 L 742.6136363636364 -361.2946665338095 Z" style="stroke:none;"/>
                          </g>
                          <g>
                            <path d="M 730.1136363636364 -361.2946665338095 L 742.6136363636364 -361.2946665338095 L 736.3636363636364 -371.2946665338095 Z"/>
                          </g>
                        </g>
                      </g>
                    </g>
                  </g>
                </g>
              </g>
            </g>
          </g>
        </g>
      </g>
      <g style="clip-path:url(#clip25);">
        <path d="M 343.6363636363636 -301.12794983141066 L 387.27272727272725 -301.14112626468795 L 430.9090909090909 -301.2265114380398 L 474.5454545454545 -301.28001388571926 L 518.1818181818182 -301.303632465583 L 561.8181818181818 -301.326145545052 L 605.4545454545455 -301.31326611188075 L 649.090909090909 -301.34661733807764 L 692.7272727272727 -301.33220104721465 L 736.3636363636364 -301.33794069212166" style="stroke:rgb(205,0,0);stroke-width:2;"/>
      </g>
      <g style="clip-path:url(#clip26);">
        <g style="fill:rgb(255,255,255);clip-path:url(#clip27);">
          <path d="M 337.3863636363636 -296.12794983141066 L 337.3863636363636 -306.12794983141066 L 349.8863636363636 -306.12794983141066 L 349.8863636363636 -296.12794983141066 Z" style="stroke:none;"/>
        </g>
        <g>
          <path d="M 343.6363636363636 -296.12794983141066 L 337.3863636363636 -306.12794983141066 L 349.8863636363636 -306.12794983141066 Z"/>
          <g style="fill:rgb(255,255,255);clip-path:url(#clip28);">
            <path d="M 381.02272727272725 -296.14112626468795 L 381.02272727272725 -306.14112626468795 L 393.52272727272725 -306.14112626468795 L 393.52272727272725 -296.14112626468795 Z" style="stroke:none;"/>
          </g>
          <g>
            <path d="M 387.27272727272725 -296.14112626468795 L 381.02272727272725 -306.14112626468795 L 393.52272727272725 -306.14112626468795 Z"/>
            <g style="fill:rgb(255,255,255);clip-path:url(#clip29);">
              <path d="M 424.6590909090909 -296.2265114380398 L 424.6590909090909 -306.2265114380398 L 437.1590909090909 -306.2265114380398 L 437.1590909090909 -296.2265114380398 Z" style="stroke:none;"/>
            </g>
            <g>
              <path d="M 430.9090909090909 -296.2265114380398 L 424.6590909090909 -306.2265114380398 L 437.1590909090909 -306.2265114380398 Z"/>
              <g style="fill:rgb(255,255,255);clip-path:url(#clip30);">
                <path d="M 468.2954545454545 -296.28001388571926 L 468.2954545454545 -306.28001388571926 L 480.7954545454545 -306.28001388571926 L 480.7954545454545 -296.28001388571926 Z" style="stroke:none;"/>
              </g>
              <g>
                <path d="M 474.5454545454545 -296.28001388571926 L 468.2954545454545 -306.28001388571926 L 480.7954545454545 -306.28001388571926 Z"/>
                <g style="fill:rgb(255,255,255);clip-path:url(#clip31);">
                  <path d="M 511.9318181818182 -296.303632465583 L 511.9318181818182 -306.303632465583 L 524.4318181818182 -306.303632465583 L 524.4318181818182 -296.303632465583 Z" style="stroke:none;"/>
                </g>
                <g>
                  <path d="M 518.1818181818182 -296.303632465583 L 511.9318181818182 -306.303632465583 L 524.4318181818182 -306.303632465583 Z"/>
                  <g style="fill:rgb(255,255,255);clip-path:url(#clip32);">
                    <path d="M 555.5681818181818 -296.326145545052 L 555.5681818181818 -306.326145545052 L 568.0681818181818 -306.326145545052 L 568.0681818181818 -296.326145545052 Z" style="stroke:none;"/>
                  </g>
                  <g>
                    <path d="M 561.8181818181818 -296.326145545052 L 555.5681818181818 -306.326145545052 L 568.0681818181818 -306.326145545052 Z"/>
                    <g style="fill:rgb(255,255,255);clip-path:url(#clip33);">
                      <path d="M 599.2045454545455 -296.31326611188075 L 599.2045454545455 -306.31326611188075 L 611.7045454545455 -306.31326611188075 L 611.7045454545455 -296.31326611188075 Z" style="stroke:none;"/>
                    </g>
                    <g>
                      <path d="M 605.4545454545455 -296.31326611188075 L 599.2045454545455 -306.31326611188075 L 611.7045454545455 -306.31326611188075 Z"/>
                      <g style="fill:rgb(255,255,255);clip-path:url(#clip34);">
                        <path d="M 642.840909090909 -296.34661733807764 L 642.840909090909 -306.34661733807764 L 655.340909090909 -306.34661733807764 L 655.340909090909 -296.34661733807764 Z" style="stroke:none;"/>
                      </g>
                      <g>
                        <path d="M 649.090909090909 -296.34661733807764 L 642.840909090909 -306.34661733807764 L 655.340909090909 -306.34661733807764 Z"/>
                        <g style="fill:rgb(255,255,255);clip-path:url(#clip35);">
                          <path d="M 686.4772727272727 -296.33220104721465 L 686.4772727272727 -306.33220104721465 L 698.9772727272727 -306.33220104721465 L 698.9772727272727 -296.33220104721465 Z" style="stroke:none;"/>
                        </g>
                        <g>
                          <path d="M 692.7272727272727 -296.33220104721465 L 686.4772727272727 -306.33220104721465 L 698.9772727272727 -306.33220104721465 Z"/>
                          <g style="fill:rgb(255,255,255);clip-path:url(#clip36);">
                            <path d="M 730.1136363636364 -296.33794069212166 L 730.1136363636364 -306.33794069212166 L 742.6136363636364 -306.33794069212166 L 742.6136363636364 -296.33794069212166 Z" style="stroke:none;"/>
                          </g>
                          <g>
                            <path d="M 736.3636363636364 -296.33794069212166 L 730.1136363636364 -306.33794069212166 L 742.6136363636364 -306.33794069212166 Z"/>
                          </g>
                        </g>
                      </g>
                    </g>
                  </g>
                </g>
              </g>
            </g>
          </g>
        </g>
      </g>
    </g>
    <g style="fill:rgb(255,255,255);clip-path:url(#clip37);">
      <path d="M 290 -74 L 290 -136 L 464.736 -136 L 464.736 -74 Z" style="stroke:none;"/>
    </g>
    <path d="M 300 -125.33333333333334 L 316 -125.33333333333334" style="stroke:rgb(126,126,126);stroke-width:0.4;stroke-dasharray:1.5,1.5;"/>
    <g style="fill:rgb(0,0,0);clip-path:url(#clip38);">
      <path d="M 301.75 -120.33333333333334 L 301.75 -130.33333333333334 L 314.25 -130.33333333333334 L 314.25 -120.33333333333334 Z" style="stroke:none;"/>
    </g>
    <g>
      <path d="M 308.0 -120.33333333333334 L 301.75 -130.33333333333334 L 314.25 -130.33333333333334 Z"/>
      <text style="font-size:16;stroke:none;fill:rgb(0,0,0);" x="316.0" y="-120.0">
        n_set
      </text>
      <path d="M 300 -105.33333333333334 L 316 -105.33333333333334" style="stroke:rgb(147,147,147);stroke-width:2;"/>
      <g style="fill:rgb(255,255,255);clip-path:url(#clip39);">
        <path d="M 301.75 -100.33333333333334 L 301.75 -110.33333333333334 L 314.25 -110.33333333333334 L 314.25 -100.33333333333334 Z" style="stroke:none;"/>
      </g>
      <g>
        <path d="M 301.75 -100.33333333333334 L 314.25 -100.33333333333334 L 308.0 -110.33333333333334 Z"/>
        <text style="font-size:16;stroke:none;fill:rgb(0,0,0);" x="316.0" y="-100.0">
          splay_tree_ost_set
        </text>
        <path d="M 300 -85.33333333333334 L 316 -85.33333333333334" style="stroke:rgb(205,0,0);stroke-width:2;"/>
        <g style="fill:rgb(255,255,255);clip-path:url(#clip40);">
          <path d="M 301.75 -80.33333333333334 L 301.75 -90.33333333333334 L 314.25 -90.33333333333334 L 314.25 -80.33333333333334 Z" style="stroke:none;"/>
        </g>
        <g>
          <path d="M 308.0 -80.33333333333334 L 301.75 -90.33333333333334 L 314.25 -90.33333333333334 Z"/>
          <text style="font-size:16;stroke:none;fill:rgb(0,0,0);" x="316.0" y="-80.0">
            rb_tree_ost_set
          </text>
        </g>
      </g>
    </g>
  </g>
</svg>
