<?xml version="1.0" ?>
<!--Created by PyChart 1.39 Copyright 1999-2006 Yasushi Saito-->
<svg viewBox="178 -526 620 478" xmlns="http://www.w3.org/2000/svg" xmlns:xlink="http://www.w3.org/1999/xlink">
  <defs>
    <clipPath id="clip0">
      <path d="M 294 -294 L 294 -526 L 786 -526 L 786 -294 Z"/>
    </clipPath>
    <clipPath id="clip1">
      <path d="M 294 -294 L 294 -526 L 786 -526 L 786 -294 Z"/>
    </clipPath>
    <clipPath id="clip2">
      <path d="M 280 -280 L 280 -540 L 800 -540 L 800 -280 Z"/>
    </clipPath>
    <clipPath id="clip3">
      <path d="M 343.6363636363636 -310.0656 L 337.3863636363636 -320.0656 L 349.8863636363636 -320.0656 Z"/>
    </clipPath>
    <clipPath id="clip4">
      <path d="M 387.27272727272725 -324.0048 L 381.02272727272725 -334.0048 L 393.52272727272725 -334.0048 Z"/>
    </clipPath>
    <clipPath id="clip5">
      <path d="M 430.9090909090909 -338.7888 L 424.6590909090909 -348.7888 L 437.1590909090909 -348.7888 Z"/>
    </clipPath>
    <clipPath id="clip6">
      <path d="M 474.5454545454545 -353.1504 L 468.2954545454545 -363.1504 L 480.7954545454545 -363.1504 Z"/>
    </clipPath>
    <clipPath id="clip7">
      <path d="M 518.1818181818182 -367.79359999999997 L 511.9318181818182 -377.79359999999997 L 524.4318181818182 -377.79359999999997 Z"/>
    </clipPath>
    <clipPath id="clip8">
      <path d="M 561.8181818181818 -385.9568 L 555.5681818181818 -395.9568 L 568.0681818181818 -395.9568 Z"/>
    </clipPath>
    <clipPath id="clip9">
      <path d="M 605.4545454545455 -400.3184 L 599.2045454545455 -410.3184 L 611.7045454545455 -410.3184 Z"/>
    </clipPath>
    <clipPath id="clip10">
      <path d="M 649.090909090909 -408.7664 L 642.840909090909 -418.7664 L 655.340909090909 -418.7664 Z"/>
    </clipPath>
    <clipPath id="clip11">
      <path d="M 692.7272727272727 -427.4928 L 686.4772727272727 -437.4928 L 698.9772727272727 -437.4928 Z"/>
    </clipPath>
    <clipPath id="clip12">
      <path d="M 736.3636363636364 -438.0528 L 730.1136363636364 -448.0528 L 742.6136363636364 -448.0528 Z"/>
    </clipPath>
    <clipPath id="clip13">
      <path d="M 294 -294 L 294 -526 L 786 -526 L 786 -294 Z"/>
    </clipPath>
    <clipPath id="clip14">
      <path d="M 280 -280 L 280 -540 L 800 -540 L 800 -280 Z"/>
    </clipPath>
    <clipPath id="clip15">
      <path d="M 343.6363636363636 -295.9152 L 337.3863636363636 -305.9152 L 349.8863636363636 -305.9152 Z"/>
    </clipPath>
    <clipPath id="clip16">
      <path d="M 387.27272727272725 -295.9152 L 381.02272727272725 -305.9152 L 393.52272727272725 -305.9152 Z"/>
    </clipPath>
    <clipPath id="clip17">
      <path d="M 430.9090909090909 -295.9152 L 424.6590909090909 -305.9152 L 437.1590909090909 -305.9152 Z"/>
    </clipPath>
    <clipPath id="clip18">
      <path d="M 474.5454545454545 -295.9152 L 468.2954545454545 -305.9152 L 480.7954545454545 -305.9152 Z"/>
    </clipPath>
    <clipPath id="clip19">
      <path d="M 518.1818181818182 -295.9152 L 511.9318181818182 -305.9152 L 524.4318181818182 -305.9152 Z"/>
    </clipPath>
    <clipPath id="clip20">
      <path d="M 561.8181818181818 -295.9152 L 555.5681818181818 -305.9152 L 568.0681818181818 -305.9152 Z"/>
    </clipPath>
    <clipPath id="clip21">
      <path d="M 605.4545454545455 -295.9152 L 599.2045454545455 -305.9152 L 611.7045454545455 -305.9152 Z"/>
    </clipPath>
    <clipPath id="clip22">
      <path d="M 649.090909090909 -295.9152 L 642.840909090909 -305.9152 L 655.340909090909 -305.9152 Z"/>
    </clipPath>
    <clipPath id="clip23">
      <path d="M 692.7272727272727 -295.9152 L 686.4772727272727 -305.9152 L 698.9772727272727 -305.9152 Z"/>
    </clipPath>
    <clipPath id="clip24">
      <path d="M 736.3636363636364 -295.9152 L 730.1136363636364 -305.9152 L 742.6136363636364 -305.9152 Z"/>
    </clipPath>
    <clipPath id="clip25">
      <path d="M 294 -294 L 294 -526 L 786 -526 L 786 -294 Z"/>
    </clipPath>
    <clipPath id="clip26">
      <path d="M 280 -280 L 280 -540 L 800 -540 L 800 -280 Z"/>
    </clipPath>
    <clipPath id="clip27">
      <path d="M 294 -294 L 294 -526 L 786 -526 L 786 -294 Z"/>
    </clipPath>
    <clipPath id="clip28">
      <path d="M 280 -280 L 280 -540 L 800 -540 L 800 -280 Z"/>
    </clipPath>
    <clipPath id="clip29">
      <path d="M 290 -54 L 290 -136 L 727.104 -136 L 727.104 -54 Z"/>
    </clipPath>
    <clipPath id="clip30">
      <path d="M 308.0 -120.33333333333334 L 301.75 -130.33333333333334 L 314.25 -130.33333333333334 Z"/>
    </clipPath>
    <clipPath id="clip31">
      <path d="M 308.0 -100.33333333333334 L 301.75 -110.33333333333334 L 314.25 -110.33333333333334 Z"/>
    </clipPath>
  </defs>
  <g style="stroke-linejoin:miter;font-size:8;font-family:Helvetica;fill:none;stroke-linecap:butt;stroke:rgb(0,0,0);font-stretch:normal;stroke-dasharray:none;font-weight:normal;font-style:normal;stroke-width:0.5;">
    <path d="M 300 -300 L 780 -300"/>
    <path d="M 300 -300 L 780 -300"/>
    <path d="M 300.0 -300 L 300.0 -288"/>
    <text style="font-size:12;font-style:italic;stroke:none;fill:rgb(0,0,0);" transform="rotate(90,300,-288)" x="300.0" y="-288.0">
      0
    </text>
    <path d="M 343.6363636363636 -300 L 343.6363636363636 -288"/>
    <text style="font-size:12;font-style:italic;stroke:none;fill:rgb(0,0,0);" transform="rotate(90,343.636,-288)" x="343.6363636363636" y="-288.0">
      200
    </text>
    <path d="M 387.27272727272725 -300 L 387.27272727272725 -288"/>
    <text style="font-size:12;font-style:italic;stroke:none;fill:rgb(0,0,0);" transform="rotate(90,387.273,-288)" x="387.27272727272725" y="-288.0">
      400
    </text>
    <path d="M 430.9090909090909 -300 L 430.9090909090909 -288"/>
    <text style="font-size:12;font-style:italic;stroke:none;fill:rgb(0,0,0);" transform="rotate(90,430.909,-288)" x="430.9090909090909" y="-288.0">
      600
    </text>
    <path d="M 474.5454545454545 -300 L 474.5454545454545 -288"/>
    <text style="font-size:12;font-style:italic;stroke:none;fill:rgb(0,0,0);" transform="rotate(90,474.545,-288)" x="474.5454545454545" y="-288.0">
      800
    </text>
    <path d="M 518.1818181818182 -300 L 518.1818181818182 -288"/>
    <text style="font-size:12;font-style:italic;stroke:none;fill:rgb(0,0,0);" transform="rotate(90,518.182,-288)" x="518.1818181818182" y="-288.0">
      1000
    </text>
    <path d="M 561.8181818181818 -300 L 561.8181818181818 -288"/>
    <text style="font-size:12;font-style:italic;stroke:none;fill:rgb(0,0,0);" transform="rotate(90,561.818,-288)" x="561.8181818181818" y="-288.0">
      1200
    </text>
    <path d="M 605.4545454545455 -300 L 605.4545454545455 -288"/>
    <text style="font-size:12;font-style:italic;stroke:none;fill:rgb(0,0,0);" transform="rotate(90,605.455,-288)" x="605.4545454545455" y="-288.0">
      1400
    </text>
    <path d="M 649.090909090909 -300 L 649.090909090909 -288"/>
    <text style="font-size:12;font-style:italic;stroke:none;fill:rgb(0,0,0);" transform="rotate(90,649.091,-288)" x="649.090909090909" y="-288.0">
      1600
    </text>
    <path d="M 692.7272727272727 -300 L 692.7272727272727 -288"/>
    <text style="font-size:12;font-style:italic;stroke:none;fill:rgb(0,0,0);" transform="rotate(90,692.727,-288)" x="692.7272727272727" y="-288.0">
      1800
    </text>
    <path d="M 736.3636363636364 -300 L 736.3636363636364 -288"/>
    <text style="font-size:12;font-style:italic;stroke:none;fill:rgb(0,0,0);" transform="rotate(90,736.364,-288)" x="736.3636363636364" y="-288.0">
      2000
    </text>
    <path d="M 780.0 -300 L 780.0 -288"/>
    <text style="font-size:12;font-style:italic;stroke:none;fill:rgb(0,0,0);" transform="rotate(90,780,-288)" x="780.0" y="-288.0">
      2200
    </text>
    <text style="font-size:16;stroke:none;fill:rgb(0,0,0);" x="524.44" y="-220.0">
      Size
    </text>
    <path d="M 300 -388.0 L 780 -388.0" style="stroke:rgb(179,179,179);stroke-width:0.4;stroke-dasharray:1,1;"/>
    <path d="M 300 -476.0 L 780 -476.0" style="stroke:rgb(179,179,179);stroke-width:0.4;stroke-dasharray:1,1;"/>
    <path d="M 300 -300 L 300 -520"/>
    <path d="M 300 -300.0 L 288 -300.0"/>
    <text style="font-size:12;font-style:italic;stroke:none;fill:rgb(0,0,0);" x="238.0" y="-294.0">
      0.00e+00
    </text>
    <path d="M 300 -328.61056 L 288 -328.61056"/>
    <text style="font-size:12;font-style:italic;stroke:none;fill:rgb(0,0,0);" x="238.0" y="-322.61056">
      3.25e+03
    </text>
    <path d="M 300 -357.22112 L 288 -357.22112"/>
    <text style="font-size:12;font-style:italic;stroke:none;fill:rgb(0,0,0);" x="238.0" y="-351.22112">
      6.50e+03
    </text>
    <path d="M 300 -385.83168 L 288 -385.83168"/>
    <text style="font-size:12;font-style:italic;stroke:none;fill:rgb(0,0,0);" x="238.0" y="-379.83168">
      9.75e+03
    </text>
    <path d="M 300 -414.44223999999997 L 288 -414.44223999999997"/>
    <text style="font-size:12;font-style:italic;stroke:none;fill:rgb(0,0,0);" x="238.0" y="-408.44223999999997">
      1.30e+04
    </text>
    <path d="M 300 -443.0528 L 288 -443.0528"/>
    <text style="font-size:12;font-style:italic;stroke:none;fill:rgb(0,0,0);" x="238.0" y="-437.0528">
      1.63e+04
    </text>
    <path d="M 300 -471.66336 L 288 -471.66336"/>
    <text style="font-size:12;font-style:italic;stroke:none;fill:rgb(0,0,0);" x="238.0" y="-465.66336">
      1.95e+04
    </text>
    <path d="M 300 -500.27392 L 288 -500.27392"/>
    <text style="font-size:12;font-style:italic;stroke:none;fill:rgb(0,0,0);" x="238.0" y="-494.27392">
      2.28e+04
    </text>
    <text style="font-size:16;stroke:none;fill:rgb(0,0,0);" transform="rotate(-90,200,-354.44)" x="200.0" y="-354.44">
      Memory (bytes)
    </text>
    <g style="clip-path:url(#clip0);">
      <g style="clip-path:url(#clip1);">
        <path d="M 343.6363636363636 -315.0656 L 387.27272727272725 -329.0048 L 430.9090909090909 -343.7888 L 474.5454545454545 -358.1504 L 518.1818181818182 -372.79359999999997 L 561.8181818181818 -390.9568 L 605.4545454545455 -405.3184 L 649.090909090909 -413.7664 L 692.7272727272727 -432.4928 L 736.3636363636364 -443.0528" style="stroke:rgb(126,126,126);stroke-width:0.4;stroke-dasharray:1.5,1.5;"/>
      </g>
      <g style="clip-path:url(#clip2);">
        <g style="fill:rgb(0,0,0);clip-path:url(#clip3);">
          <path d="M 337.3863636363636 -310.0656 L 337.3863636363636 -320.0656 L 349.8863636363636 -320.0656 L 349.8863636363636 -310.0656 Z" style="stroke:none;"/>
        </g>
        <g>
          <path d="M 343.6363636363636 -310.0656 L 337.3863636363636 -320.0656 L 349.8863636363636 -320.0656 Z"/>
          <g style="fill:rgb(0,0,0);clip-path:url(#clip4);">
            <path d="M 381.02272727272725 -324.0048 L 381.02272727272725 -334.0048 L 393.52272727272725 -334.0048 L 393.52272727272725 -324.0048 Z" style="stroke:none;"/>
          </g>
          <g>
            <path d="M 387.27272727272725 -324.0048 L 381.02272727272725 -334.0048 L 393.52272727272725 -334.0048 Z"/>
            <g style="fill:rgb(0,0,0);clip-path:url(#clip5);">
              <path d="M 424.6590909090909 -338.7888 L 424.6590909090909 -348.7888 L 437.1590909090909 -348.7888 L 437.1590909090909 -338.7888 Z" style="stroke:none;"/>
            </g>
            <g>
              <path d="M 430.9090909090909 -338.7888 L 424.6590909090909 -348.7888 L 437.1590909090909 -348.7888 Z"/>
              <g style="fill:rgb(0,0,0);clip-path:url(#clip6);">
                <path d="M 468.2954545454545 -353.1504 L 468.2954545454545 -363.1504 L 480.7954545454545 -363.1504 L 480.7954545454545 -353.1504 Z" style="stroke:none;"/>
              </g>
              <g>
                <path d="M 474.5454545454545 -353.1504 L 468.2954545454545 -363.1504 L 480.7954545454545 -363.1504 Z"/>
                <g style="fill:rgb(0,0,0);clip-path:url(#clip7);">
                  <path d="M 511.9318181818182 -367.79359999999997 L 511.9318181818182 -377.79359999999997 L 524.4318181818182 -377.79359999999997 L 524.4318181818182 -367.79359999999997 Z" style="stroke:none;"/>
                </g>
                <g>
                  <path d="M 518.1818181818182 -367.79359999999997 L 511.9318181818182 -377.79359999999997 L 524.4318181818182 -377.79359999999997 Z"/>
                  <g style="fill:rgb(0,0,0);clip-path:url(#clip8);">
                    <path d="M 555.5681818181818 -385.9568 L 555.5681818181818 -395.9568 L 568.0681818181818 -395.9568 L 568.0681818181818 -385.9568 Z" style="stroke:none;"/>
                  </g>
                  <g>
                    <path d="M 561.8181818181818 -385.9568 L 555.5681818181818 -395.9568 L 568.0681818181818 -395.9568 Z"/>
                    <g style="fill:rgb(0,0,0);clip-path:url(#clip9);">
                      <path d="M 599.2045454545455 -400.3184 L 599.2045454545455 -410.3184 L 611.7045454545455 -410.3184 L 611.7045454545455 -400.3184 Z" style="stroke:none;"/>
                    </g>
                    <g>
                      <path d="M 605.4545454545455 -400.3184 L 599.2045454545455 -410.3184 L 611.7045454545455 -410.3184 Z"/>
                      <g style="fill:rgb(0,0,0);clip-path:url(#clip10);">
                        <path d="M 642.840909090909 -408.7664 L 642.840909090909 -418.7664 L 655.340909090909 -418.7664 L 655.340909090909 -408.7664 Z" style="stroke:none;"/>
                      </g>
                      <g>
                        <path d="M 649.090909090909 -408.7664 L 642.840909090909 -418.7664 L 655.340909090909 -418.7664 Z"/>
                        <g style="fill:rgb(0,0,0);clip-path:url(#clip11);">
                          <path d="M 686.4772727272727 -427.4928 L 686.4772727272727 -437.4928 L 698.9772727272727 -437.4928 L 698.9772727272727 -427.4928 Z" style="stroke:none;"/>
                        </g>
                        <g>
                          <path d="M 692.7272727272727 -427.4928 L 686.4772727272727 -437.4928 L 698.9772727272727 -437.4928 Z"/>
                          <g style="fill:rgb(0,0,0);clip-path:url(#clip12);">
                            <path d="M 730.1136363636364 -438.0528 L 730.1136363636364 -448.0528 L 742.6136363636364 -448.0528 L 742.6136363636364 -438.0528 Z" style="stroke:none;"/>
                          </g>
                          <g>
                            <path d="M 736.3636363636364 -438.0528 L 730.1136363636364 -448.0528 L 742.6136363636364 -448.0528 Z"/>
                          </g>
                        </g>
                      </g>
                    </g>
                  </g>
                </g>
              </g>
            </g>
          </g>
        </g>
      </g>
      <g style="clip-path:url(#clip13);">
        <path d="M 343.6363636363636 -300.9152 L 387.27272727272725 -300.9152 L 430.9090909090909 -300.9152 L 474.5454545454545 -300.9152 L 518.1818181818182 -300.9152 L 561.8181818181818 -300.9152 L 605.4545454545455 -300.9152 L 649.090909090909 -300.9152 L 692.7272727272727 -300.9152 L 736.3636363636364 -300.9152" style="stroke:rgb(0,138,0);stroke-width:2;"/>
      </g>
      <g style="clip-path:url(#clip14);">
        <g style="fill:rgb(255,255,255);clip-path:url(#clip15);">
          <path d="M 337.3863636363636 -295.9152 L 337.3863636363636 -305.9152 L 349.8863636363636 -305.9152 L 349.8863636363636 -295.9152 Z" style="stroke:none;"/>
        </g>
        <g>
          <path d="M 343.6363636363636 -295.9152 L 337.3863636363636 -305.9152 L 349.8863636363636 -305.9152 Z"/>
          <g style="fill:rgb(255,255,255);clip-path:url(#clip16);">
            <path d="M 381.02272727272725 -295.9152 L 381.02272727272725 -305.9152 L 393.52272727272725 -305.9152 L 393.52272727272725 -295.9152 Z" style="stroke:none;"/>
          </g>
          <g>
            <path d="M 387.27272727272725 -295.9152 L 381.02272727272725 -305.9152 L 393.52272727272725 -305.9152 Z"/>
            <g style="fill:rgb(255,255,255);clip-path:url(#clip17);">
              <path d="M 424.6590909090909 -295.9152 L 424.6590909090909 -305.9152 L 437.1590909090909 -305.9152 L 437.1590909090909 -295.9152 Z" style="stroke:none;"/>
            </g>
            <g>
              <path d="M 430.9090909090909 -295.9152 L 424.6590909090909 -305.9152 L 437.1590909090909 -305.9152 Z"/>
              <g style="fill:rgb(255,255,255);clip-path:url(#clip18);">
                <path d="M 468.2954545454545 -295.9152 L 468.2954545454545 -305.9152 L 480.7954545454545 -305.9152 L 480.7954545454545 -295.9152 Z" style="stroke:none;"/>
              </g>
              <g>
                <path d="M 474.5454545454545 -295.9152 L 468.2954545454545 -305.9152 L 480.7954545454545 -305.9152 Z"/>
                <g style="fill:rgb(255,255,255);clip-path:url(#clip19);">
                  <path d="M 511.9318181818182 -295.9152 L 511.9318181818182 -305.9152 L 524.4318181818182 -305.9152 L 524.4318181818182 -295.9152 Z" style="stroke:none;"/>
                </g>
                <g>
                  <path d="M 518.1818181818182 -295.9152 L 511.9318181818182 -305.9152 L 524.4318181818182 -305.9152 Z"/>
                  <g style="fill:rgb(255,255,255);clip-path:url(#clip20);">
                    <path d="M 555.5681818181818 -295.9152 L 555.5681818181818 -305.9152 L 568.0681818181818 -305.9152 L 568.0681818181818 -295.9152 Z" style="stroke:none;"/>
                  </g>
                  <g>
                    <path d="M 561.8181818181818 -295.9152 L 555.5681818181818 -305.9152 L 568.0681818181818 -305.9152 Z"/>
                    <g style="fill:rgb(255,255,255);clip-path:url(#clip21);">
                      <path d="M 599.2045454545455 -295.9152 L 599.2045454545455 -305.9152 L 611.7045454545455 -305.9152 L 611.7045454545455 -295.9152 Z" style="stroke:none;"/>
                    </g>
                    <g>
                      <path d="M 605.4545454545455 -295.9152 L 599.2045454545455 -305.9152 L 611.7045454545455 -305.9152 Z"/>
                      <g style="fill:rgb(255,255,255);clip-path:url(#clip22);">
                        <path d="M 642.840909090909 -295.9152 L 642.840909090909 -305.9152 L 655.340909090909 -305.9152 L 655.340909090909 -295.9152 Z" style="stroke:none;"/>
                      </g>
                      <g>
                        <path d="M 649.090909090909 -295.9152 L 642.840909090909 -305.9152 L 655.340909090909 -305.9152 Z"/>
                        <g style="fill:rgb(255,255,255);clip-path:url(#clip23);">
                          <path d="M 686.4772727272727 -295.9152 L 686.4772727272727 -305.9152 L 698.9772727272727 -305.9152 L 698.9772727272727 -295.9152 Z" style="stroke:none;"/>
                        </g>
                        <g>
                          <path d="M 692.7272727272727 -295.9152 L 686.4772727272727 -305.9152 L 698.9772727272727 -305.9152 Z"/>
                          <g style="fill:rgb(255,255,255);clip-path:url(#clip24);">
                            <path d="M 730.1136363636364 -295.9152 L 730.1136363636364 -305.9152 L 742.6136363636364 -305.9152 L 742.6136363636364 -295.9152 Z" style="stroke:none;"/>
                          </g>
                          <g>
                            <path d="M 736.3636363636364 -295.9152 L 730.1136363636364 -305.9152 L 742.6136363636364 -305.9152 Z"/>
                          </g>
                        </g>
                      </g>
                    </g>
                  </g>
                </g>
              </g>
            </g>
          </g>
        </g>
      </g>
      <g style="clip-path:url(#clip25);">
        <path d="M 343.6363636363636 -300.704 L 387.27272727272725 -300.704 L 430.9090909090909 -300.704 L 474.5454545454545 -300.704 L 518.1818181818182 -300.704 L 561.8181818181818 -300.704 L 605.4545454545455 -300.704 L 649.090909090909 -300.704 L 692.7272727272727 -300.704 L 736.3636363636364 -300.704" style="stroke:rgb(0,0,128);stroke-width:2;"/>
      </g>
      <g style="clip-path:url(#clip26);">
        <path d="M 338.6363636363636 -295.704 L 348.6363636363636 -305.704" style="stroke-width:0.7;"/>
        <path d="M 348.6363636363636 -295.704 L 338.6363636363636 -305.704" style="stroke-width:0.7;"/>
        <path d="M 382.27272727272725 -295.704 L 392.27272727272725 -305.704" style="stroke-width:0.7;"/>
        <path d="M 392.27272727272725 -295.704 L 382.27272727272725 -305.704" style="stroke-width:0.7;"/>
        <path d="M 425.9090909090909 -295.704 L 435.9090909090909 -305.704" style="stroke-width:0.7;"/>
        <path d="M 435.9090909090909 -295.704 L 425.9090909090909 -305.704" style="stroke-width:0.7;"/>
        <path d="M 469.5454545454545 -295.704 L 479.5454545454545 -305.704" style="stroke-width:0.7;"/>
        <path d="M 479.5454545454545 -295.704 L 469.5454545454545 -305.704" style="stroke-width:0.7;"/>
        <path d="M 513.1818181818182 -295.704 L 523.1818181818182 -305.704" style="stroke-width:0.7;"/>
        <path d="M 523.1818181818182 -295.704 L 513.1818181818182 -305.704" style="stroke-width:0.7;"/>
        <path d="M 556.8181818181818 -295.704 L 566.8181818181818 -305.704" style="stroke-width:0.7;"/>
        <path d="M 566.8181818181818 -295.704 L 556.8181818181818 -305.704" style="stroke-width:0.7;"/>
        <path d="M 600.4545454545455 -295.704 L 610.4545454545455 -305.704" style="stroke-width:0.7;"/>
        <path d="M 610.4545454545455 -295.704 L 600.4545454545455 -305.704" style="stroke-width:0.7;"/>
        <path d="M 644.090909090909 -295.704 L 654.090909090909 -305.704" style="stroke-width:0.7;"/>
        <path d="M 654.090909090909 -295.704 L 644.090909090909 -305.704" style="stroke-width:0.7;"/>
        <path d="M 687.7272727272727 -295.704 L 697.7272727272727 -305.704" style="stroke-width:0.7;"/>
        <path d="M 697.7272727272727 -295.704 L 687.7272727272727 -305.704" style="stroke-width:0.7;"/>
        <path d="M 731.3636363636364 -295.704 L 741.3636363636364 -305.704" style="stroke-width:0.7;"/>
        <path d="M 741.3636363636364 -295.704 L 731.3636363636364 -305.704" style="stroke-width:0.7;"/>
      </g>
      <g style="clip-path:url(#clip27);">
        <path d="M 343.6363636363636 -300.5632 L 387.27272727272725 -300.5632 L 430.9090909090909 -300.5632 L 474.5454545454545 -300.5632 L 518.1818181818182 -300.5632 L 561.8181818181818 -300.5632 L 605.4545454545455 -300.5632 L 649.090909090909 -300.5632 L 692.7272727272727 -300.5632 L 736.3636363636364 -300.5632" style="stroke:rgb(0,0,128);stroke-width:2;"/>
      </g>
      <g style="clip-path:url(#clip28);">
        <path d="M 338.6363636363636 -295.5632 L 348.6363636363636 -305.5632" style="stroke-width:0.7;"/>
        <path d="M 348.6363636363636 -295.5632 L 338.6363636363636 -305.5632" style="stroke-width:0.7;"/>
        <path d="M 382.27272727272725 -295.5632 L 392.27272727272725 -305.5632" style="stroke-width:0.7;"/>
        <path d="M 392.27272727272725 -295.5632 L 382.27272727272725 -305.5632" style="stroke-width:0.7;"/>
        <path d="M 425.9090909090909 -295.5632 L 435.9090909090909 -305.5632" style="stroke-width:0.7;"/>
        <path d="M 435.9090909090909 -295.5632 L 425.9090909090909 -305.5632" style="stroke-width:0.7;"/>
        <path d="M 469.5454545454545 -295.5632 L 479.5454545454545 -305.5632" style="stroke-width:0.7;"/>
        <path d="M 479.5454545454545 -295.5632 L 469.5454545454545 -305.5632" style="stroke-width:0.7;"/>
        <path d="M 513.1818181818182 -295.5632 L 523.1818181818182 -305.5632" style="stroke-width:0.7;"/>
        <path d="M 523.1818181818182 -295.5632 L 513.1818181818182 -305.5632" style="stroke-width:0.7;"/>
        <path d="M 556.8181818181818 -295.5632 L 566.8181818181818 -305.5632" style="stroke-width:0.7;"/>
        <path d="M 566.8181818181818 -295.5632 L 556.8181818181818 -305.5632" style="stroke-width:0.7;"/>
        <path d="M 600.4545454545455 -295.5632 L 610.4545454545455 -305.5632" style="stroke-width:0.7;"/>
        <path d="M 610.4545454545455 -295.5632 L 600.4545454545455 -305.5632" style="stroke-width:0.7;"/>
        <path d="M 644.090909090909 -295.5632 L 654.090909090909 -305.5632" style="stroke-width:0.7;"/>
        <path d="M 654.090909090909 -295.5632 L 644.090909090909 -305.5632" style="stroke-width:0.7;"/>
        <path d="M 687.7272727272727 -295.5632 L 697.7272727272727 -305.5632" style="stroke-width:0.7;"/>
        <path d="M 697.7272727272727 -295.5632 L 687.7272727272727 -305.5632" style="stroke-width:0.7;"/>
        <path d="M 731.3636363636364 -295.5632 L 741.3636363636364 -305.5632" style="stroke-width:0.7;"/>
        <path d="M 741.3636363636364 -295.5632 L 731.3636363636364 -305.5632" style="stroke-width:0.7;"/>
      </g>
    </g>
    <g style="fill:rgb(255,255,255);clip-path:url(#clip29);">
      <path d="M 290 -54 L 290 -136 L 727.104 -136 L 727.104 -54 Z" style="stroke:none;"/>
    </g>
    <path d="M 300 -125.33333333333334 L 316 -125.33333333333334" style="stroke:rgb(126,126,126);stroke-width:0.4;stroke-dasharray:1.5,1.5;"/>
    <g style="fill:rgb(0,0,0);clip-path:url(#clip30);">
      <path d="M 301.75 -120.33333333333334 L 301.75 -130.33333333333334 L 314.25 -130.33333333333334 L 314.25 -120.33333333333334 Z" style="stroke:none;"/>
    </g>
    <g>
      <path d="M 308.0 -120.33333333333334 L 301.75 -130.33333333333334 L 314.25 -130.33333333333334 Z"/>
      <text style="font-size:16;stroke:none;fill:rgb(0,0,0);" x="316.0" y="-120.0">
        n_hash_set_ncah
      </text>
      <path d="M 300 -105.33333333333334 L 316 -105.33333333333334" style="stroke:rgb(0,138,0);stroke-width:2;"/>
      <g style="fill:rgb(255,255,255);clip-path:url(#clip31);">
        <path d="M 301.75 -100.33333333333334 L 301.75 -110.33333333333334 L 314.25 -110.33333333333334 L 314.25 -100.33333333333334 Z" style="stroke:none;"/>
      </g>
      <g>
        <path d="M 308.0 -100.33333333333334 L 301.75 -110.33333333333334 L 314.25 -110.33333333333334 Z"/>
        <text style="font-size:16;stroke:none;fill:rgb(0,0,0);" x="316.0" y="-100.0">
          cc_hash_mod_prime_nea_lc_1div8_1div1_nsth_set
        </text>
        <path d="M 300 -85.33333333333334 L 316 -85.33333333333334" style="stroke:rgb(0,0,128);stroke-width:2;"/>
        <path d="M 303.0 -80.33333333333334 L 313.0 -90.33333333333334" style="stroke-width:0.7;"/>
        <path d="M 313.0 -80.33333333333334 L 303.0 -90.33333333333334" style="stroke-width:0.7;"/>
        <text style="font-size:16;stroke:none;fill:rgb(0,0,0);" x="316.0" y="-80.0">
          cc_hash_mask_exp_nea_lc_1div8_1div2_nsth_set
        </text>
        <path d="M 300 -65.33333333333334 L 316 -65.33333333333334" style="stroke:rgb(0,0,128);stroke-width:2;"/>
        <path d="M 303.0 -60.33333333333334 L 313.0 -70.33333333333334" style="stroke-width:0.7;"/>
        <path d="M 313.0 -60.33333333333334 L 303.0 -70.33333333333334" style="stroke-width:0.7;"/>
        <text style="font-size:16;stroke:none;fill:rgb(0,0,0);" x="316.0" y="-60.0">
          gp_hash_mask_linp_exp_nea_lc_1div8_1div2_nsth_set
        </text>
      </g>
    </g>
  </g>
</svg>
