<?xml version="1.0" encoding="UTF-8" standalone="no"?>
<!DOCTYPE svg PUBLIC "-//W3C//DTD SVG 1.1//EN" "http://www.w3.org/Graphics/SVG/1.1/DTD/svg11.dtd">
<!-- Generated by graphviz version 2.26.3 (20100126.1600)
 -->
<!-- Title: G Pages: 1 -->
<svg width="568pt" height="180pt" viewBox="0.00 0.00 568.00 180.00" xmlns="http://www.w3.org/2000/svg" xmlns:xlink="http://www.w3.org/1999/xlink">
<g id="graph1" class="graph" transform="scale(1) rotate(0) translate(4, 176)">
<title>G</title>
<polygon fill="white" stroke="white" points="-4,5 -4,-176 565,-176 565,5 -4,5"/>
<!-- Node1 -->
<g id="node1" class="node"><title>Node1</title>
<polygon fill="#bfbfbf" stroke="black" points="180,-76 180,-96 344,-96 344,-76 180,-76"/>
<text text-anchor="middle" x="262" y="-83.9" font-family="FreeSans" font-size="9.00">__gnu_pbds::priority_queue_tag</text>
</g>
<!-- Node3 -->
<g id="node5" class="node"><title>Node3</title>
<a xlink:href="a00187.html" target="_top" xlink:title="Binary-heap (array-based).">
<polygon fill="white" stroke="black" points="392.5,-152 392.5,-172 547.5,-172 547.5,-152 392.5,-152"/>
<text text-anchor="middle" x="470" y="-159.9" font-family="FreeSans" font-size="9.00">__gnu_pbds::binary_heap_tag</text>
</a>
</g>
<!-- Node1&#45;&gt;Node3 -->
<g id="edge4" class="edge"><title>Node1-&gt;Node3</title>
<path fill="none" stroke="midnightblue" d="M288.374,-101.033C311.786,-113.814 347.263,-131.822 380,-143 390.277,-146.509 401.444,-149.494 412.304,-151.987"/>
<polygon fill="midnightblue" stroke="midnightblue" points="289.867,-97.859 279.422,-96.0793 286.477,-103.984 289.867,-97.859"/>
</g>
<!-- Node4 -->
<g id="node7" class="node"><title>Node4</title>
<a xlink:href="a00188.html" target="_top" xlink:title="Binomial-heap.">
<polygon fill="white" stroke="black" points="387.5,-114 387.5,-134 552.5,-134 552.5,-114 387.5,-114"/>
<text text-anchor="middle" x="470" y="-121.9" font-family="FreeSans" font-size="9.00">__gnu_pbds::binomial_heap_tag</text>
</a>
</g>
<!-- Node1&#45;&gt;Node4 -->
<g id="edge6" class="edge"><title>Node1-&gt;Node4</title>
<path fill="none" stroke="midnightblue" d="M327.114,-97.8959C355.381,-103.06 388.126,-109.042 415.132,-113.976"/>
<polygon fill="midnightblue" stroke="midnightblue" points="327.388,-94.388 316.922,-96.0338 326.13,-101.274 327.388,-94.388"/>
</g>
<!-- Node5 -->
<g id="node9" class="node"><title>Node5</title>
<a xlink:href="a00349.html" target="_top" xlink:title="Pairing-heap.">
<polygon fill="white" stroke="black" points="391,-76 391,-96 549,-96 549,-76 391,-76"/>
<text text-anchor="middle" x="470" y="-83.9" font-family="FreeSans" font-size="9.00">__gnu_pbds::pairing_heap_tag</text>
</a>
</g>
<!-- Node1&#45;&gt;Node5 -->
<g id="edge8" class="edge"><title>Node1-&gt;Node5</title>
<path fill="none" stroke="midnightblue" d="M354.347,-86C366.497,-86 378.861,-86 390.766,-86"/>
<polygon fill="midnightblue" stroke="midnightblue" points="354.207,-82.5001 344.207,-86 354.207,-89.5001 354.207,-82.5001"/>
</g>
<!-- Node6 -->
<g id="node11" class="node"><title>Node6</title>
<a xlink:href="a00357.html" target="_top" xlink:title="Redundant-counter binomial-heap.">
<polygon fill="white" stroke="black" points="380.5,-38 380.5,-58 559.5,-58 559.5,-38 380.5,-38"/>
<text text-anchor="middle" x="470" y="-45.9" font-family="FreeSans" font-size="9.00">__gnu_pbds::rc_binomial_heap_tag</text>
</a>
</g>
<!-- Node1&#45;&gt;Node6 -->
<g id="edge10" class="edge"><title>Node1-&gt;Node6</title>
<path fill="none" stroke="midnightblue" d="M327.114,-74.1041C355.381,-68.9399 388.126,-62.9578 415.132,-58.024"/>
<polygon fill="midnightblue" stroke="midnightblue" points="326.13,-70.726 316.922,-75.9662 327.388,-77.612 326.13,-70.726"/>
</g>
<!-- Node7 -->
<g id="node13" class="node"><title>Node7</title>
<a xlink:href="a00373.html" target="_top" xlink:title="Thin heap.">
<polygon fill="white" stroke="black" points="398,-0 398,-20 542,-20 542,-0 398,-0"/>
<text text-anchor="middle" x="470" y="-7.9" font-family="FreeSans" font-size="9.00">__gnu_pbds::thin_heap_tag</text>
</a>
</g>
<!-- Node1&#45;&gt;Node7 -->
<g id="edge12" class="edge"><title>Node1-&gt;Node7</title>
<path fill="none" stroke="midnightblue" d="M288.374,-70.967C311.786,-58.1857 347.263,-40.1778 380,-29 390.277,-25.4912 401.444,-22.5058 412.304,-20.0134"/>
<polygon fill="midnightblue" stroke="midnightblue" points="286.477,-68.0163 279.422,-75.9207 289.867,-74.141 286.477,-68.0163"/>
</g>
<!-- Node2 -->
<g id="node2" class="node"><title>Node2</title>
<a xlink:href="a00193.html" target="_top" xlink:title="Base data structure tag.">
<polygon fill="white" stroke="black" points="0.5,-76 0.5,-96 143.5,-96 143.5,-76 0.5,-76"/>
<text text-anchor="middle" x="72" y="-83.9" font-family="FreeSans" font-size="9.00">__gnu_pbds::container_tag</text>
</a>
</g>
<!-- Node2&#45;&gt;Node1 -->
<g id="edge2" class="edge"><title>Node2-&gt;Node1</title>
<path fill="none" stroke="midnightblue" d="M153.696,-86C162.404,-86 171.265,-86 179.978,-86"/>
<polygon fill="midnightblue" stroke="midnightblue" points="153.56,-82.5001 143.56,-86 153.56,-89.5001 153.56,-82.5001"/>
</g>
</g>
</svg>