<?xml version="1.0" ?>
<!--Created by PyChart 1.39 Copyright 1999-2006 Yasushi Saito-->
<svg viewBox="178 -544 620 476" xmlns="http://www.w3.org/2000/svg" xmlns:xlink="http://www.w3.org/1999/xlink">
  <defs>
    <clipPath id="clip0">
      <path d="M 294 -294 L 294 -526 L 786 -526 L 786 -294 Z"/>
    </clipPath>
    <clipPath id="clip1">
      <path d="M 294 -294 L 294 -526 L 786 -526 L 786 -294 Z"/>
    </clipPath>
    <clipPath id="clip2">
      <path d="M 280 -280 L 280 -540 L 800 -540 L 800 -280 Z"/>
    </clipPath>
    <clipPath id="clip3">
      <path d="M 343.6363636363636 -320.1915104477612 L 337.3863636363636 -330.1915104477612 L 349.8863636363636 -330.1915104477612 Z"/>
    </clipPath>
    <clipPath id="clip4">
      <path d="M 387.27272727272725 -344.63561194029853 L 381.02272727272725 -354.63561194029853 L 393.52272727272725 -354.63561194029853 Z"/>
    </clipPath>
    <clipPath id="clip5">
      <path d="M 430.9090909090909 -362.9274626865672 L 424.6590909090909 -372.9274626865672 L 437.1590909090909 -372.9274626865672 Z"/>
    </clipPath>
    <clipPath id="clip6">
      <path d="M 474.5454545454545 -388.45337313432833 L 468.2954545454545 -398.45337313432833 L 480.7954545454545 -398.45337313432833 Z"/>
    </clipPath>
    <clipPath id="clip7">
      <path d="M 518.1818181818182 -411.7497313432836 L 511.9318181818182 -421.7497313432836 L 524.4318181818182 -421.7497313432836 Z"/>
    </clipPath>
    <clipPath id="clip8">
      <path d="M 561.8181818181818 -433.88895522388054 L 555.5681818181818 -443.88895522388054 L 568.0681818181818 -443.88895522388054 Z"/>
    </clipPath>
    <clipPath id="clip9">
      <path d="M 605.4545454545455 -453.96707462686567 L 599.2045454545455 -463.96707462686567 L 611.7045454545455 -463.96707462686567 Z"/>
    </clipPath>
    <clipPath id="clip10">
      <path d="M 649.090909090909 -476.544328358209 L 642.840909090909 -486.544328358209 L 655.340909090909 -486.544328358209 Z"/>
    </clipPath>
    <clipPath id="clip11">
      <path d="M 692.7272727272727 -495.07489552238803 L 686.4772727272727 -505.07489552238803 L 698.9772727272727 -505.07489552238803 Z"/>
    </clipPath>
    <clipPath id="clip12">
      <path d="M 736.3636363636364 -515.0 L 730.1136363636364 -525.0 L 742.6136363636364 -525.0 Z"/>
    </clipPath>
    <clipPath id="clip13">
      <path d="M 294 -294 L 294 -526 L 786 -526 L 786 -294 Z"/>
    </clipPath>
    <clipPath id="clip14">
      <path d="M 280 -280 L 280 -540 L 800 -540 L 800 -280 Z"/>
    </clipPath>
    <clipPath id="clip15">
      <path d="M 343.6363636363636 -298.2357928358209 L 337.3863636363636 -308.2357928358209 L 349.8863636363636 -308.2357928358209 Z"/>
    </clipPath>
    <clipPath id="clip16">
      <path d="M 387.27272727272725 -298.6628029850746 L 381.02272727272725 -308.6628029850746 L 393.52272727272725 -308.6628029850746 Z"/>
    </clipPath>
    <clipPath id="clip17">
      <path d="M 430.9090909090909 -299.02189552238804 L 424.6590909090909 -309.02189552238804 L 437.1590909090909 -309.02189552238804 Z"/>
    </clipPath>
    <clipPath id="clip18">
      <path d="M 474.5454545454545 -299.2205194029851 L 468.2954545454545 -309.2205194029851 L 480.7954545454545 -309.2205194029851 Z"/>
    </clipPath>
    <clipPath id="clip19">
      <path d="M 518.1818181818182 -299.41576119402987 L 511.9318181818182 -309.41576119402987 L 524.4318181818182 -309.41576119402987 Z"/>
    </clipPath>
    <clipPath id="clip20">
      <path d="M 561.8181818181818 -299.51932537313434 L 555.5681818181818 -309.51932537313434 L 568.0681818181818 -309.51932537313434 Z"/>
    </clipPath>
    <clipPath id="clip21">
      <path d="M 605.4545454545455 -299.6235791044776 L 599.2045454545455 -309.6235791044776 L 611.7045454545455 -309.6235791044776 Z"/>
    </clipPath>
    <clipPath id="clip22">
      <path d="M 649.090909090909 -299.75291940298507 L 642.840909090909 -309.75291940298507 L 655.340909090909 -309.75291940298507 Z"/>
    </clipPath>
    <clipPath id="clip23">
      <path d="M 692.7272727272727 -299.8146507462687 L 686.4772727272727 -309.8146507462687 L 698.9772727272727 -309.8146507462687 Z"/>
    </clipPath>
    <clipPath id="clip24">
      <path d="M 736.3636363636364 -299.8596029850746 L 730.1136363636364 -309.8596029850746 L 742.6136363636364 -309.8596029850746 Z"/>
    </clipPath>
    <clipPath id="clip25">
      <path d="M 294 -294 L 294 -526 L 786 -526 L 786 -294 Z"/>
    </clipPath>
    <clipPath id="clip26">
      <path d="M 280 -280 L 280 -540 L 800 -540 L 800 -280 Z"/>
    </clipPath>
    <clipPath id="clip27">
      <path d="M 336.4935064935065 -302.0788095522388 L 343.6363636363636 -309.22166669509596 L 350.7792207792208 -302.0788095522388 L 343.6363636363636 -294.9359524093817 Z"/>
    </clipPath>
    <clipPath id="clip28">
      <path d="M 380.12987012987014 -302.2534402985075 L 387.27272727272725 -309.3962974413646 L 394.4155844155844 -302.2534402985075 L 387.27272727272725 -295.1105831556503 Z"/>
    </clipPath>
    <clipPath id="clip29">
      <path d="M 423.76623376623377 -302.34449731343284 L 430.9090909090909 -309.48735445628995 L 438.05194805194805 -302.34449731343284 L 430.9090909090909 -295.2016401705757 Z"/>
    </clipPath>
    <clipPath id="clip30">
      <path d="M 467.4025974025974 -302.4607919402985 L 474.5454545454545 -309.60364908315563 L 481.68831168831167 -302.4607919402985 L 474.5454545454545 -295.31793479744135 Z"/>
    </clipPath>
    <clipPath id="clip31">
      <path d="M 511.038961038961 -302.4959032835821 L 518.1818181818182 -309.63876042643926 L 525.3246753246754 -302.4959032835821 L 518.1818181818182 -295.3530461407249 Z"/>
    </clipPath>
    <clipPath id="clip32">
      <path d="M 554.6753246753246 -302.54936656716416 L 561.8181818181818 -309.6922237100213 L 568.961038961039 -302.54936656716416 L 561.8181818181818 -295.40650942430705 Z"/>
    </clipPath>
    <clipPath id="clip33">
      <path d="M 598.3116883116883 -302.6060182089552 L 605.4545454545455 -309.7488753518124 L 612.5974025974026 -302.6060182089552 L 605.4545454545455 -295.4631610660981 Z"/>
    </clipPath>
    <clipPath id="clip34">
      <path d="M 641.9480519480519 -302.64897402985076 L 649.090909090909 -309.7918311727079 L 656.2337662337662 -302.64897402985076 L 649.090909090909 -295.5061168869936 Z"/>
    </clipPath>
    <clipPath id="clip35">
      <path d="M 685.5844155844156 -302.66701402985075 L 692.7272727272727 -309.8098711727079 L 699.8701298701299 -302.66701402985075 L 692.7272727272727 -295.5241568869936 Z"/>
    </clipPath>
    <clipPath id="clip36">
      <path d="M 729.2207792207791 -302.66857701492535 L 736.3636363636364 -309.8114341577825 L 743.5064935064936 -302.66857701492535 L 736.3636363636364 -295.52571987206824 Z"/>
    </clipPath>
    <clipPath id="clip37">
      <path d="M 290 -74 L 290 -136 L 419.408 -136 L 419.408 -74 Z"/>
    </clipPath>
    <clipPath id="clip38">
      <path d="M 308.0 -120.33333333333334 L 301.75 -130.33333333333334 L 314.25 -130.33333333333334 Z"/>
    </clipPath>
    <clipPath id="clip39">
      <path d="M 308.0 -100.33333333333334 L 301.75 -110.33333333333334 L 314.25 -110.33333333333334 Z"/>
    </clipPath>
    <clipPath id="clip40">
      <path d="M 300.85714285714283 -85.33333333333334 L 308.0 -92.47619047619048 L 315.14285714285717 -85.33333333333334 L 308.0 -78.1904761904762 Z"/>
    </clipPath>
  </defs>
  <g style="stroke-linejoin:miter;font-size:8;font-family:Helvetica;fill:none;stroke-linecap:butt;stroke:rgb(0,0,0);font-stretch:normal;stroke-dasharray:none;font-weight:normal;font-style:normal;stroke-width:0.5;">
    <path d="M 300 -300 L 780 -300"/>
    <path d="M 300 -300 L 780 -300"/>
    <path d="M 300.0 -300 L 300.0 -288"/>
    <text style="font-size:12;font-style:italic;stroke:none;fill:rgb(0,0,0);" transform="rotate(90,300,-288)" x="300.0" y="-288.0">
      0
    </text>
    <path d="M 343.6363636363636 -300 L 343.6363636363636 -288"/>
    <text style="font-size:12;font-style:italic;stroke:none;fill:rgb(0,0,0);" transform="rotate(90,343.636,-288)" x="343.6363636363636" y="-288.0">
      200
    </text>
    <path d="M 387.27272727272725 -300 L 387.27272727272725 -288"/>
    <text style="font-size:12;font-style:italic;stroke:none;fill:rgb(0,0,0);" transform="rotate(90,387.273,-288)" x="387.27272727272725" y="-288.0">
      400
    </text>
    <path d="M 430.9090909090909 -300 L 430.9090909090909 -288"/>
    <text style="font-size:12;font-style:italic;stroke:none;fill:rgb(0,0,0);" transform="rotate(90,430.909,-288)" x="430.9090909090909" y="-288.0">
      600
    </text>
    <path d="M 474.5454545454545 -300 L 474.5454545454545 -288"/>
    <text style="font-size:12;font-style:italic;stroke:none;fill:rgb(0,0,0);" transform="rotate(90,474.545,-288)" x="474.5454545454545" y="-288.0">
      800
    </text>
    <path d="M 518.1818181818182 -300 L 518.1818181818182 -288"/>
    <text style="font-size:12;font-style:italic;stroke:none;fill:rgb(0,0,0);" transform="rotate(90,518.182,-288)" x="518.1818181818182" y="-288.0">
      1000
    </text>
    <path d="M 561.8181818181818 -300 L 561.8181818181818 -288"/>
    <text style="font-size:12;font-style:italic;stroke:none;fill:rgb(0,0,0);" transform="rotate(90,561.818,-288)" x="561.8181818181818" y="-288.0">
      1200
    </text>
    <path d="M 605.4545454545455 -300 L 605.4545454545455 -288"/>
    <text style="font-size:12;font-style:italic;stroke:none;fill:rgb(0,0,0);" transform="rotate(90,605.455,-288)" x="605.4545454545455" y="-288.0">
      1400
    </text>
    <path d="M 649.090909090909 -300 L 649.090909090909 -288"/>
    <text style="font-size:12;font-style:italic;stroke:none;fill:rgb(0,0,0);" transform="rotate(90,649.091,-288)" x="649.090909090909" y="-288.0">
      1600
    </text>
    <path d="M 692.7272727272727 -300 L 692.7272727272727 -288"/>
    <text style="font-size:12;font-style:italic;stroke:none;fill:rgb(0,0,0);" transform="rotate(90,692.727,-288)" x="692.7272727272727" y="-288.0">
      1800
    </text>
    <path d="M 736.3636363636364 -300 L 736.3636363636364 -288"/>
    <text style="font-size:12;font-style:italic;stroke:none;fill:rgb(0,0,0);" transform="rotate(90,736.364,-288)" x="736.3636363636364" y="-288.0">
      2000
    </text>
    <path d="M 780.0 -300 L 780.0 -288"/>
    <text style="font-size:12;font-style:italic;stroke:none;fill:rgb(0,0,0);" transform="rotate(90,780,-288)" x="780.0" y="-288.0">
      2200
    </text>
    <text style="font-size:16;stroke:none;fill:rgb(0,0,0);" x="524.44" y="-220.0">
      Size
    </text>
    <path d="M 300 -300 L 300 -520"/>
    <path d="M 300 -300.0 L 288 -300.0"/>
    <text style="font-size:12;font-style:italic;stroke:none;fill:rgb(0,0,0);" x="238.0" y="-294.0">
      0.00e+00
    </text>
    <path d="M 300 -344.0 L 288 -344.0"/>
    <text style="font-size:12;font-style:italic;stroke:none;fill:rgb(0,0,0);" x="238.0" y="-338.0">
      1.34e-06
    </text>
    <path d="M 300 -388.0 L 288 -388.0"/>
    <text style="font-size:12;font-style:italic;stroke:none;fill:rgb(0,0,0);" x="238.0" y="-382.0">
      2.68e-06
    </text>
    <path d="M 300 -432.0 L 288 -432.0"/>
    <text style="font-size:12;font-style:italic;stroke:none;fill:rgb(0,0,0);" x="238.0" y="-426.0">
      4.02e-06
    </text>
    <path d="M 300 -476.0 L 288 -476.0"/>
    <text style="font-size:12;font-style:italic;stroke:none;fill:rgb(0,0,0);" x="238.0" y="-470.0">
      5.36e-06
    </text>
    <path d="M 300 -520.0 L 288 -520.0"/>
    <text style="font-size:12;font-style:italic;stroke:none;fill:rgb(0,0,0);" x="238.0" y="-514.0">
      6.70e-06
    </text>
    <text style="font-size:16;stroke:none;fill:rgb(0,0,0);" transform="rotate(-90,200,-340.648)" x="200.0" y="-340.648">
      Average time (sec.)
    </text>
    <g style="clip-path:url(#clip0);">
      <g style="clip-path:url(#clip1);">
        <path d="M 343.6363636363636 -325.1915104477612 L 387.27272727272725 -349.63561194029853 L 430.9090909090909 -367.9274626865672 L 474.5454545454545 -393.45337313432833 L 518.1818181818182 -416.7497313432836 L 561.8181818181818 -438.88895522388054 L 605.4545454545455 -458.96707462686567 L 649.090909090909 -481.544328358209 L 692.7272727272727 -500.07489552238803 L 736.3636363636364 -520.0" style="stroke:rgb(205,0,0);stroke-width:2;"/>
      </g>
      <g style="clip-path:url(#clip2);">
        <g style="fill:rgb(255,255,255);clip-path:url(#clip3);">
          <path d="M 337.3863636363636 -320.1915104477612 L 337.3863636363636 -330.1915104477612 L 349.8863636363636 -330.1915104477612 L 349.8863636363636 -320.1915104477612 Z" style="stroke:none;"/>
        </g>
        <g>
          <path d="M 343.6363636363636 -320.1915104477612 L 337.3863636363636 -330.1915104477612 L 349.8863636363636 -330.1915104477612 Z"/>
          <g style="fill:rgb(255,255,255);clip-path:url(#clip4);">
            <path d="M 381.02272727272725 -344.63561194029853 L 381.02272727272725 -354.63561194029853 L 393.52272727272725 -354.63561194029853 L 393.52272727272725 -344.63561194029853 Z" style="stroke:none;"/>
          </g>
          <g>
            <path d="M 387.27272727272725 -344.63561194029853 L 381.02272727272725 -354.63561194029853 L 393.52272727272725 -354.63561194029853 Z"/>
            <g style="fill:rgb(255,255,255);clip-path:url(#clip5);">
              <path d="M 424.6590909090909 -362.9274626865672 L 424.6590909090909 -372.9274626865672 L 437.1590909090909 -372.9274626865672 L 437.1590909090909 -362.9274626865672 Z" style="stroke:none;"/>
            </g>
            <g>
              <path d="M 430.9090909090909 -362.9274626865672 L 424.6590909090909 -372.9274626865672 L 437.1590909090909 -372.9274626865672 Z"/>
              <g style="fill:rgb(255,255,255);clip-path:url(#clip6);">
                <path d="M 468.2954545454545 -388.45337313432833 L 468.2954545454545 -398.45337313432833 L 480.7954545454545 -398.45337313432833 L 480.7954545454545 -388.45337313432833 Z" style="stroke:none;"/>
              </g>
              <g>
                <path d="M 474.5454545454545 -388.45337313432833 L 468.2954545454545 -398.45337313432833 L 480.7954545454545 -398.45337313432833 Z"/>
                <g style="fill:rgb(255,255,255);clip-path:url(#clip7);">
                  <path d="M 511.9318181818182 -411.7497313432836 L 511.9318181818182 -421.7497313432836 L 524.4318181818182 -421.7497313432836 L 524.4318181818182 -411.7497313432836 Z" style="stroke:none;"/>
                </g>
                <g>
                  <path d="M 518.1818181818182 -411.7497313432836 L 511.9318181818182 -421.7497313432836 L 524.4318181818182 -421.7497313432836 Z"/>
                  <g style="fill:rgb(255,255,255);clip-path:url(#clip8);">
                    <path d="M 555.5681818181818 -433.88895522388054 L 555.5681818181818 -443.88895522388054 L 568.0681818181818 -443.88895522388054 L 568.0681818181818 -433.88895522388054 Z" style="stroke:none;"/>
                  </g>
                  <g>
                    <path d="M 561.8181818181818 -433.88895522388054 L 555.5681818181818 -443.88895522388054 L 568.0681818181818 -443.88895522388054 Z"/>
                    <g style="fill:rgb(255,255,255);clip-path:url(#clip9);">
                      <path d="M 599.2045454545455 -453.96707462686567 L 599.2045454545455 -463.96707462686567 L 611.7045454545455 -463.96707462686567 L 611.7045454545455 -453.96707462686567 Z" style="stroke:none;"/>
                    </g>
                    <g>
                      <path d="M 605.4545454545455 -453.96707462686567 L 599.2045454545455 -463.96707462686567 L 611.7045454545455 -463.96707462686567 Z"/>
                      <g style="fill:rgb(255,255,255);clip-path:url(#clip10);">
                        <path d="M 642.840909090909 -476.544328358209 L 642.840909090909 -486.544328358209 L 655.340909090909 -486.544328358209 L 655.340909090909 -476.544328358209 Z" style="stroke:none;"/>
                      </g>
                      <g>
                        <path d="M 649.090909090909 -476.544328358209 L 642.840909090909 -486.544328358209 L 655.340909090909 -486.544328358209 Z"/>
                        <g style="fill:rgb(255,255,255);clip-path:url(#clip11);">
                          <path d="M 686.4772727272727 -495.07489552238803 L 686.4772727272727 -505.07489552238803 L 698.9772727272727 -505.07489552238803 L 698.9772727272727 -495.07489552238803 Z" style="stroke:none;"/>
                        </g>
                        <g>
                          <path d="M 692.7272727272727 -495.07489552238803 L 686.4772727272727 -505.07489552238803 L 698.9772727272727 -505.07489552238803 Z"/>
                          <g style="fill:rgb(255,255,255);clip-path:url(#clip12);">
                            <path d="M 730.1136363636364 -515.0 L 730.1136363636364 -525.0 L 742.6136363636364 -525.0 L 742.6136363636364 -515.0 Z" style="stroke:none;"/>
                          </g>
                          <g>
                            <path d="M 736.3636363636364 -515.0 L 730.1136363636364 -525.0 L 742.6136363636364 -525.0 Z"/>
                          </g>
                        </g>
                      </g>
                    </g>
                  </g>
                </g>
              </g>
            </g>
          </g>
        </g>
      </g>
      <g style="clip-path:url(#clip13);">
        <path d="M 343.6363636363636 -303.2357928358209 L 387.27272727272725 -303.6628029850746 L 430.9090909090909 -304.02189552238804 L 474.5454545454545 -304.2205194029851 L 518.1818181818182 -304.41576119402987 L 561.8181818181818 -304.51932537313434 L 605.4545454545455 -304.6235791044776 L 649.090909090909 -304.75291940298507 L 692.7272727272727 -304.8146507462687 L 736.3636363636364 -304.8596029850746" style="stroke:rgb(126,126,126);stroke-width:0.4;stroke-dasharray:1.5,1.5;"/>
      </g>
      <g style="clip-path:url(#clip14);">
        <g style="fill:rgb(0,0,0);clip-path:url(#clip15);">
          <path d="M 337.3863636363636 -298.2357928358209 L 337.3863636363636 -308.2357928358209 L 349.8863636363636 -308.2357928358209 L 349.8863636363636 -298.2357928358209 Z" style="stroke:none;"/>
        </g>
        <g>
          <path d="M 343.6363636363636 -298.2357928358209 L 337.3863636363636 -308.2357928358209 L 349.8863636363636 -308.2357928358209 Z"/>
          <g style="fill:rgb(0,0,0);clip-path:url(#clip16);">
            <path d="M 381.02272727272725 -298.6628029850746 L 381.02272727272725 -308.6628029850746 L 393.52272727272725 -308.6628029850746 L 393.52272727272725 -298.6628029850746 Z" style="stroke:none;"/>
          </g>
          <g>
            <path d="M 387.27272727272725 -298.6628029850746 L 381.02272727272725 -308.6628029850746 L 393.52272727272725 -308.6628029850746 Z"/>
            <g style="fill:rgb(0,0,0);clip-path:url(#clip17);">
              <path d="M 424.6590909090909 -299.02189552238804 L 424.6590909090909 -309.02189552238804 L 437.1590909090909 -309.02189552238804 L 437.1590909090909 -299.02189552238804 Z" style="stroke:none;"/>
            </g>
            <g>
              <path d="M 430.9090909090909 -299.02189552238804 L 424.6590909090909 -309.02189552238804 L 437.1590909090909 -309.02189552238804 Z"/>
              <g style="fill:rgb(0,0,0);clip-path:url(#clip18);">
                <path d="M 468.2954545454545 -299.2205194029851 L 468.2954545454545 -309.2205194029851 L 480.7954545454545 -309.2205194029851 L 480.7954545454545 -299.2205194029851 Z" style="stroke:none;"/>
              </g>
              <g>
                <path d="M 474.5454545454545 -299.2205194029851 L 468.2954545454545 -309.2205194029851 L 480.7954545454545 -309.2205194029851 Z"/>
                <g style="fill:rgb(0,0,0);clip-path:url(#clip19);">
                  <path d="M 511.9318181818182 -299.41576119402987 L 511.9318181818182 -309.41576119402987 L 524.4318181818182 -309.41576119402987 L 524.4318181818182 -299.41576119402987 Z" style="stroke:none;"/>
                </g>
                <g>
                  <path d="M 518.1818181818182 -299.41576119402987 L 511.9318181818182 -309.41576119402987 L 524.4318181818182 -309.41576119402987 Z"/>
                  <g style="fill:rgb(0,0,0);clip-path:url(#clip20);">
                    <path d="M 555.5681818181818 -299.51932537313434 L 555.5681818181818 -309.51932537313434 L 568.0681818181818 -309.51932537313434 L 568.0681818181818 -299.51932537313434 Z" style="stroke:none;"/>
                  </g>
                  <g>
                    <path d="M 561.8181818181818 -299.51932537313434 L 555.5681818181818 -309.51932537313434 L 568.0681818181818 -309.51932537313434 Z"/>
                    <g style="fill:rgb(0,0,0);clip-path:url(#clip21);">
                      <path d="M 599.2045454545455 -299.6235791044776 L 599.2045454545455 -309.6235791044776 L 611.7045454545455 -309.6235791044776 L 611.7045454545455 -299.6235791044776 Z" style="stroke:none;"/>
                    </g>
                    <g>
                      <path d="M 605.4545454545455 -299.6235791044776 L 599.2045454545455 -309.6235791044776 L 611.7045454545455 -309.6235791044776 Z"/>
                      <g style="fill:rgb(0,0,0);clip-path:url(#clip22);">
                        <path d="M 642.840909090909 -299.75291940298507 L 642.840909090909 -309.75291940298507 L 655.340909090909 -309.75291940298507 L 655.340909090909 -299.75291940298507 Z" style="stroke:none;"/>
                      </g>
                      <g>
                        <path d="M 649.090909090909 -299.75291940298507 L 642.840909090909 -309.75291940298507 L 655.340909090909 -309.75291940298507 Z"/>
                        <g style="fill:rgb(0,0,0);clip-path:url(#clip23);">
                          <path d="M 686.4772727272727 -299.8146507462687 L 686.4772727272727 -309.8146507462687 L 698.9772727272727 -309.8146507462687 L 698.9772727272727 -299.8146507462687 Z" style="stroke:none;"/>
                        </g>
                        <g>
                          <path d="M 692.7272727272727 -299.8146507462687 L 686.4772727272727 -309.8146507462687 L 698.9772727272727 -309.8146507462687 Z"/>
                          <g style="fill:rgb(0,0,0);clip-path:url(#clip24);">
                            <path d="M 730.1136363636364 -299.8596029850746 L 730.1136363636364 -309.8596029850746 L 742.6136363636364 -309.8596029850746 L 742.6136363636364 -299.8596029850746 Z" style="stroke:none;"/>
                          </g>
                          <g>
                            <path d="M 736.3636363636364 -299.8596029850746 L 730.1136363636364 -309.8596029850746 L 742.6136363636364 -309.8596029850746 Z"/>
                          </g>
                        </g>
                      </g>
                    </g>
                  </g>
                </g>
              </g>
            </g>
          </g>
        </g>
      </g>
      <g style="clip-path:url(#clip25);">
        <path d="M 343.6363636363636 -302.0788095522388 L 387.27272727272725 -302.2534402985075 L 430.9090909090909 -302.34449731343284 L 474.5454545454545 -302.4607919402985 L 518.1818181818182 -302.4959032835821 L 561.8181818181818 -302.54936656716416 L 605.4545454545455 -302.6060182089552 L 649.090909090909 -302.64897402985076 L 692.7272727272727 -302.66701402985075 L 736.3636363636364 -302.66857701492535" style="stroke:rgb(126,126,126);stroke-width:0.4;stroke-dasharray:5,2,5,2;"/>
      </g>
      <g style="clip-path:url(#clip26);">
        <g style="fill:rgb(0,0,0);clip-path:url(#clip27);">
          <path d="M 336.4935064935065 -294.9359524093817 L 336.4935064935065 -309.22166669509596 L 350.7792207792208 -309.22166669509596 L 350.7792207792208 -294.9359524093817 Z" style="stroke:none;"/>
        </g>
        <g>
          <path d="M 336.4935064935065 -302.0788095522388 L 343.6363636363636 -309.22166669509596 L 350.7792207792208 -302.0788095522388 L 343.6363636363636 -294.9359524093817 Z"/>
          <g style="fill:rgb(0,0,0);clip-path:url(#clip28);">
            <path d="M 380.12987012987014 -295.1105831556503 L 380.12987012987014 -309.3962974413646 L 394.4155844155844 -309.3962974413646 L 394.4155844155844 -295.1105831556503 Z" style="stroke:none;"/>
          </g>
          <g>
            <path d="M 380.12987012987014 -302.2534402985075 L 387.27272727272725 -309.3962974413646 L 394.4155844155844 -302.2534402985075 L 387.27272727272725 -295.1105831556503 Z"/>
            <g style="fill:rgb(0,0,0);clip-path:url(#clip29);">
              <path d="M 423.76623376623377 -295.2016401705757 L 423.76623376623377 -309.48735445628995 L 438.05194805194805 -309.48735445628995 L 438.05194805194805 -295.2016401705757 Z" style="stroke:none;"/>
            </g>
            <g>
              <path d="M 423.76623376623377 -302.34449731343284 L 430.9090909090909 -309.48735445628995 L 438.05194805194805 -302.34449731343284 L 430.9090909090909 -295.2016401705757 Z"/>
              <g style="fill:rgb(0,0,0);clip-path:url(#clip30);">
                <path d="M 467.4025974025974 -295.31793479744135 L 467.4025974025974 -309.60364908315563 L 481.68831168831167 -309.60364908315563 L 481.68831168831167 -295.31793479744135 Z" style="stroke:none;"/>
              </g>
              <g>
                <path d="M 467.4025974025974 -302.4607919402985 L 474.5454545454545 -309.60364908315563 L 481.68831168831167 -302.4607919402985 L 474.5454545454545 -295.31793479744135 Z"/>
                <g style="fill:rgb(0,0,0);clip-path:url(#clip31);">
                  <path d="M 511.038961038961 -295.3530461407249 L 511.038961038961 -309.63876042643926 L 525.3246753246754 -309.63876042643926 L 525.3246753246754 -295.3530461407249 Z" style="stroke:none;"/>
                </g>
                <g>
                  <path d="M 511.038961038961 -302.4959032835821 L 518.1818181818182 -309.63876042643926 L 525.3246753246754 -302.4959032835821 L 518.1818181818182 -295.3530461407249 Z"/>
                  <g style="fill:rgb(0,0,0);clip-path:url(#clip32);">
                    <path d="M 554.6753246753246 -295.40650942430705 L 554.6753246753246 -309.6922237100213 L 568.961038961039 -309.6922237100213 L 568.961038961039 -295.40650942430705 Z" style="stroke:none;"/>
                  </g>
                  <g>
                    <path d="M 554.6753246753246 -302.54936656716416 L 561.8181818181818 -309.6922237100213 L 568.961038961039 -302.54936656716416 L 561.8181818181818 -295.40650942430705 Z"/>
                    <g style="fill:rgb(0,0,0);clip-path:url(#clip33);">
                      <path d="M 598.3116883116883 -295.4631610660981 L 598.3116883116883 -309.7488753518124 L 612.5974025974026 -309.7488753518124 L 612.5974025974026 -295.4631610660981 Z" style="stroke:none;"/>
                    </g>
                    <g>
                      <path d="M 598.3116883116883 -302.6060182089552 L 605.4545454545455 -309.7488753518124 L 612.5974025974026 -302.6060182089552 L 605.4545454545455 -295.4631610660981 Z"/>
                      <g style="fill:rgb(0,0,0);clip-path:url(#clip34);">
                        <path d="M 641.9480519480519 -295.5061168869936 L 641.9480519480519 -309.7918311727079 L 656.2337662337662 -309.7918311727079 L 656.2337662337662 -295.5061168869936 Z" style="stroke:none;"/>
                      </g>
                      <g>
                        <path d="M 641.9480519480519 -302.64897402985076 L 649.090909090909 -309.7918311727079 L 656.2337662337662 -302.64897402985076 L 649.090909090909 -295.5061168869936 Z"/>
                        <g style="fill:rgb(0,0,0);clip-path:url(#clip35);">
                          <path d="M 685.5844155844156 -295.5241568869936 L 685.5844155844156 -309.8098711727079 L 699.8701298701299 -309.8098711727079 L 699.8701298701299 -295.5241568869936 Z" style="stroke:none;"/>
                        </g>
                        <g>
                          <path d="M 685.5844155844156 -302.66701402985075 L 692.7272727272727 -309.8098711727079 L 699.8701298701299 -302.66701402985075 L 692.7272727272727 -295.5241568869936 Z"/>
                          <g style="fill:rgb(0,0,0);clip-path:url(#clip36);">
                            <path d="M 729.2207792207791 -295.52571987206824 L 729.2207792207791 -309.8114341577825 L 743.5064935064936 -309.8114341577825 L 743.5064935064936 -295.52571987206824 Z" style="stroke:none;"/>
                          </g>
                          <g>
                            <path d="M 729.2207792207791 -302.66857701492535 L 736.3636363636364 -309.8114341577825 L 743.5064935064936 -302.66857701492535 L 736.3636363636364 -295.52571987206824 Z"/>
                          </g>
                        </g>
                      </g>
                    </g>
                  </g>
                </g>
              </g>
            </g>
          </g>
        </g>
      </g>
    </g>
    <g style="fill:rgb(255,255,255);clip-path:url(#clip37);">
      <path d="M 290 -74 L 290 -136 L 419.408 -136 L 419.408 -74 Z" style="stroke:none;"/>
    </g>
    <path d="M 300 -125.33333333333334 L 316 -125.33333333333334" style="stroke:rgb(205,0,0);stroke-width:2;"/>
    <g style="fill:rgb(255,255,255);clip-path:url(#clip38);">
      <path d="M 301.75 -120.33333333333334 L 301.75 -130.33333333333334 L 314.25 -130.33333333333334 L 314.25 -120.33333333333334 Z" style="stroke:none;"/>
    </g>
    <g>
      <path d="M 308.0 -120.33333333333334 L 301.75 -130.33333333333334 L 314.25 -130.33333333333334 Z"/>
      <text style="font-size:16;stroke:none;fill:rgb(0,0,0);" x="316.0" y="-120.0">
        binary_heap
      </text>
      <path d="M 300 -105.33333333333334 L 316 -105.33333333333334" style="stroke:rgb(126,126,126);stroke-width:0.4;stroke-dasharray:1.5,1.5;"/>
      <g style="fill:rgb(0,0,0);clip-path:url(#clip39);">
        <path d="M 301.75 -100.33333333333334 L 301.75 -110.33333333333334 L 314.25 -110.33333333333334 L 314.25 -100.33333333333334 Z" style="stroke:none;"/>
      </g>
      <g>
        <path d="M 308.0 -100.33333333333334 L 301.75 -110.33333333333334 L 314.25 -110.33333333333334 Z"/>
        <text style="font-size:16;stroke:none;fill:rgb(0,0,0);" x="316.0" y="-100.0">
          n_pq_deque
        </text>
        <path d="M 300 -85.33333333333334 L 316 -85.33333333333334" style="stroke:rgb(126,126,126);stroke-width:0.4;stroke-dasharray:5,2,5,2;"/>
        <g style="fill:rgb(0,0,0);clip-path:url(#clip40);">
          <path d="M 300.85714285714283 -78.1904761904762 L 300.85714285714283 -92.47619047619048 L 315.14285714285717 -92.47619047619048 L 315.14285714285717 -78.1904761904762 Z" style="stroke:none;"/>
        </g>
        <g>
          <path d="M 300.85714285714283 -85.33333333333334 L 308.0 -92.47619047619048 L 315.14285714285717 -85.33333333333334 L 308.0 -78.1904761904762 Z"/>
          <text style="font-size:16;stroke:none;fill:rgb(0,0,0);" x="316.0" y="-80.0">
            n_pq_vector
          </text>
        </g>
      </g>
    </g>
  </g>
</svg>
