<?xml version="1.0" ?>
<!--Created by PyChart 1.39 Copyright 1999-2006 Yasushi Saito-->
<svg viewBox="178 -544 620 496" xmlns="http://www.w3.org/2000/svg" xmlns:xlink="http://www.w3.org/1999/xlink">
  <defs>
    <clipPath id="clip0">
      <path d="M 294 -294 L 294 -526 L 786 -526 L 786 -294 Z"/>
    </clipPath>
    <clipPath id="clip1">
      <path d="M 294 -294 L 294 -526 L 786 -526 L 786 -294 Z"/>
    </clipPath>
    <clipPath id="clip2">
      <path d="M 280 -280 L 280 -540 L 800 -540 L 800 -280 Z"/>
    </clipPath>
    <clipPath id="clip3">
      <path d="M 337.3863636363636 -442.3171620078976 L 349.8863636363636 -442.3171620078976 L 343.6363636363636 -452.3171620078976 Z"/>
    </clipPath>
    <clipPath id="clip4">
      <path d="M 381.02272727272725 -461.4040047794395 L 393.52272727272725 -461.4040047794395 L 387.27272727272725 -471.4040047794395 Z"/>
    </clipPath>
    <clipPath id="clip5">
      <path d="M 424.6590909090909 -472.6428834767313 L 437.1590909090909 -472.6428834767313 L 430.9090909090909 -482.6428834767313 Z"/>
    </clipPath>
    <clipPath id="clip6">
      <path d="M 468.2954545454545 -482.85471569885976 L 480.7954545454545 -482.85471569885976 L 474.5454545454545 -492.85471569885976 Z"/>
    </clipPath>
    <clipPath id="clip7">
      <path d="M 511.9318181818182 -490.70463419076003 L 524.4318181818182 -490.70463419076003 L 518.1818181818182 -500.70463419076003 Z"/>
    </clipPath>
    <clipPath id="clip8">
      <path d="M 555.5681818181818 -496.39589838804966 L 568.0681818181818 -496.39589838804966 L 561.8181818181818 -506.39589838804966 Z"/>
    </clipPath>
    <clipPath id="clip9">
      <path d="M 599.2045454545455 -502.34710013281153 L 611.7045454545455 -502.34710013281153 L 605.4545454545455 -512.3471001328115 Z"/>
    </clipPath>
    <clipPath id="clip10">
      <path d="M 642.840909090909 -506.41522047163653 L 655.340909090909 -506.41522047163653 L 649.090909090909 -516.4152204716365 Z"/>
    </clipPath>
    <clipPath id="clip11">
      <path d="M 686.4772727272727 -511.3413301588853 L 698.9772727272727 -511.3413301588853 L 692.7272727272727 -521.3413301588853 Z"/>
    </clipPath>
    <clipPath id="clip12">
      <path d="M 730.1136363636364 -515.0 L 742.6136363636364 -515.0 L 736.3636363636364 -525.0 Z"/>
    </clipPath>
    <clipPath id="clip13">
      <path d="M 294 -294 L 294 -526 L 786 -526 L 786 -294 Z"/>
    </clipPath>
    <clipPath id="clip14">
      <path d="M 280 -280 L 280 -540 L 800 -540 L 800 -280 Z"/>
    </clipPath>
    <clipPath id="clip15">
      <path d="M 343.6363636363636 -339.8071744895194 L 337.3863636363636 -349.8071744895194 L 349.8863636363636 -349.8071744895194 Z"/>
    </clipPath>
    <clipPath id="clip16">
      <path d="M 387.27272727272725 -349.47098800254076 L 381.02272727272725 -359.47098800254076 L 393.52272727272725 -359.47098800254076 Z"/>
    </clipPath>
    <clipPath id="clip17">
      <path d="M 430.9090909090909 -354.611888189543 L 424.6590909090909 -364.611888189543 L 437.1590909090909 -364.611888189543 Z"/>
    </clipPath>
    <clipPath id="clip18">
      <path d="M 474.5454545454545 -356.92533236204696 L 468.2954545454545 -366.925332362047 L 480.7954545454545 -366.925332362047 Z"/>
    </clipPath>
    <clipPath id="clip19">
      <path d="M 518.1818181818182 -360.18999160488784 L 511.9318181818182 -370.18999160488784 L 524.4318181818182 -370.18999160488784 Z"/>
    </clipPath>
    <clipPath id="clip20">
      <path d="M 561.8181818181818 -361.73769494205595 L 555.5681818181818 -371.73769494205595 L 568.0681818181818 -371.73769494205595 Z"/>
    </clipPath>
    <clipPath id="clip21">
      <path d="M 605.4545454545455 -362.9064366968565 L 599.2045454545455 -372.9064366968565 L 611.7045454545455 -372.9064366968565 Z"/>
    </clipPath>
    <clipPath id="clip22">
      <path d="M 649.090909090909 -364.3109789411498 L 642.840909090909 -374.3109789411498 L 655.340909090909 -374.3109789411498 Z"/>
    </clipPath>
    <clipPath id="clip23">
      <path d="M 692.7272727272727 -365.96646841172475 L 686.4772727272727 -375.96646841172475 L 698.9772727272727 -375.96646841172475 Z"/>
    </clipPath>
    <clipPath id="clip24">
      <path d="M 736.3636363636364 -366.88836721730905 L 730.1136363636364 -376.88836721730905 L 742.6136363636364 -376.88836721730905 Z"/>
    </clipPath>
    <clipPath id="clip25">
      <path d="M 294 -294 L 294 -526 L 786 -526 L 786 -294 Z"/>
    </clipPath>
    <clipPath id="clip26">
      <path d="M 280 -280 L 280 -540 L 800 -540 L 800 -280 Z"/>
    </clipPath>
    <clipPath id="clip27">
      <path d="M 343.6363636363636 -342.7619608139261 L 337.3863636363636 -352.7619608139261 L 349.8863636363636 -352.7619608139261 Z"/>
    </clipPath>
    <clipPath id="clip28">
      <path d="M 387.27272727272725 -347.4715210255363 L 381.02272727272725 -357.4715210255363 L 393.52272727272725 -357.4715210255363 Z"/>
    </clipPath>
    <clipPath id="clip29">
      <path d="M 430.9090909090909 -351.3141015675318 L 424.6590909090909 -361.3141015675318 L 437.1590909090909 -361.3141015675318 Z"/>
    </clipPath>
    <clipPath id="clip30">
      <path d="M 474.5454545454545 -354.7129315820567 L 468.2954545454545 -364.7129315820567 L 480.7954545454545 -364.7129315820567 Z"/>
    </clipPath>
    <clipPath id="clip31">
      <path d="M 518.1818181818182 -357.5798668330883 L 511.9318181818182 -367.5798668330883 L 524.4318181818182 -367.5798668330883 Z"/>
    </clipPath>
    <clipPath id="clip32">
      <path d="M 561.8181818181818 -359.9633768783508 L 555.5681818181818 -369.9633768783508 L 568.0681818181818 -369.9633768783508 Z"/>
    </clipPath>
    <clipPath id="clip33">
      <path d="M 605.4545454545455 -361.3943037609214 L 599.2045454545455 -371.3943037609214 L 611.7045454545455 -371.3943037609214 Z"/>
    </clipPath>
    <clipPath id="clip34">
      <path d="M 649.090909090909 -363.8192474603675 L 642.840909090909 -373.8192474603675 L 655.340909090909 -373.8192474603675 Z"/>
    </clipPath>
    <clipPath id="clip35">
      <path d="M 692.7272727272727 -365.2301415620239 L 686.4772727272727 -375.2301415620239 L 698.9772727272727 -375.2301415620239 Z"/>
    </clipPath>
    <clipPath id="clip36">
      <path d="M 736.3636363636364 -366.88836721730905 L 730.1136363636364 -376.88836721730905 L 742.6136363636364 -376.88836721730905 Z"/>
    </clipPath>
    <clipPath id="clip37">
      <path d="M 294 -294 L 294 -526 L 786 -526 L 786 -294 Z"/>
    </clipPath>
    <clipPath id="clip38">
      <path d="M 280 -280 L 280 -540 L 800 -540 L 800 -280 Z"/>
    </clipPath>
    <clipPath id="clip39">
      <path d="M 290 -54 L 290 -136 L 444.272 -136 L 444.272 -54 Z"/>
    </clipPath>
    <clipPath id="clip40">
      <path d="M 301.75 -120.33333333333334 L 314.25 -120.33333333333334 L 308.0 -130.33333333333334 Z"/>
    </clipPath>
    <clipPath id="clip41">
      <path d="M 308.0 -100.33333333333334 L 301.75 -110.33333333333334 L 314.25 -110.33333333333334 Z"/>
    </clipPath>
    <clipPath id="clip42">
      <path d="M 308.0 -80.33333333333334 L 301.75 -90.33333333333334 L 314.25 -90.33333333333334 Z"/>
    </clipPath>
  </defs>
  <g style="stroke-linejoin:miter;font-size:8;font-family:Helvetica;fill:none;stroke-linecap:butt;stroke:rgb(0,0,0);font-stretch:normal;stroke-dasharray:none;font-weight:normal;font-style:normal;stroke-width:0.5;">
    <path d="M 300 -300 L 780 -300"/>
    <path d="M 300 -300 L 780 -300"/>
    <path d="M 300.0 -300 L 300.0 -288"/>
    <text style="font-size:12;font-style:italic;stroke:none;fill:rgb(0,0,0);" transform="rotate(90,300,-288)" x="300.0" y="-288.0">
      0
    </text>
    <path d="M 343.6363636363636 -300 L 343.6363636363636 -288"/>
    <text style="font-size:12;font-style:italic;stroke:none;fill:rgb(0,0,0);" transform="rotate(90,343.636,-288)" x="343.6363636363636" y="-288.0">
      200
    </text>
    <path d="M 387.27272727272725 -300 L 387.27272727272725 -288"/>
    <text style="font-size:12;font-style:italic;stroke:none;fill:rgb(0,0,0);" transform="rotate(90,387.273,-288)" x="387.27272727272725" y="-288.0">
      400
    </text>
    <path d="M 430.9090909090909 -300 L 430.9090909090909 -288"/>
    <text style="font-size:12;font-style:italic;stroke:none;fill:rgb(0,0,0);" transform="rotate(90,430.909,-288)" x="430.9090909090909" y="-288.0">
      600
    </text>
    <path d="M 474.5454545454545 -300 L 474.5454545454545 -288"/>
    <text style="font-size:12;font-style:italic;stroke:none;fill:rgb(0,0,0);" transform="rotate(90,474.545,-288)" x="474.5454545454545" y="-288.0">
      800
    </text>
    <path d="M 518.1818181818182 -300 L 518.1818181818182 -288"/>
    <text style="font-size:12;font-style:italic;stroke:none;fill:rgb(0,0,0);" transform="rotate(90,518.182,-288)" x="518.1818181818182" y="-288.0">
      1000
    </text>
    <path d="M 561.8181818181818 -300 L 561.8181818181818 -288"/>
    <text style="font-size:12;font-style:italic;stroke:none;fill:rgb(0,0,0);" transform="rotate(90,561.818,-288)" x="561.8181818181818" y="-288.0">
      1200
    </text>
    <path d="M 605.4545454545455 -300 L 605.4545454545455 -288"/>
    <text style="font-size:12;font-style:italic;stroke:none;fill:rgb(0,0,0);" transform="rotate(90,605.455,-288)" x="605.4545454545455" y="-288.0">
      1400
    </text>
    <path d="M 649.090909090909 -300 L 649.090909090909 -288"/>
    <text style="font-size:12;font-style:italic;stroke:none;fill:rgb(0,0,0);" transform="rotate(90,649.091,-288)" x="649.090909090909" y="-288.0">
      1600
    </text>
    <path d="M 692.7272727272727 -300 L 692.7272727272727 -288"/>
    <text style="font-size:12;font-style:italic;stroke:none;fill:rgb(0,0,0);" transform="rotate(90,692.727,-288)" x="692.7272727272727" y="-288.0">
      1800
    </text>
    <path d="M 736.3636363636364 -300 L 736.3636363636364 -288"/>
    <text style="font-size:12;font-style:italic;stroke:none;fill:rgb(0,0,0);" transform="rotate(90,736.364,-288)" x="736.3636363636364" y="-288.0">
      2000
    </text>
    <path d="M 780.0 -300 L 780.0 -288"/>
    <text style="font-size:12;font-style:italic;stroke:none;fill:rgb(0,0,0);" transform="rotate(90,780,-288)" x="780.0" y="-288.0">
      2200
    </text>
    <text style="font-size:16;stroke:none;fill:rgb(0,0,0);" x="524.44" y="-220.0">
      Size
    </text>
    <path d="M 300 -300 L 300 -520"/>
    <path d="M 300 -300.0 L 288 -300.0"/>
    <text style="font-size:12;font-style:italic;stroke:none;fill:rgb(0,0,0);" x="238.0" y="-294.0">
      0.00e+00
    </text>
    <path d="M 300 -344.0 L 288 -344.0"/>
    <text style="font-size:12;font-style:italic;stroke:none;fill:rgb(0,0,0);" x="238.0" y="-338.0">
      4.50e-08
    </text>
    <path d="M 300 -388.0 L 288 -388.0"/>
    <text style="font-size:12;font-style:italic;stroke:none;fill:rgb(0,0,0);" x="238.0" y="-382.0">
      9.01e-08
    </text>
    <path d="M 300 -432.0 L 288 -432.0"/>
    <text style="font-size:12;font-style:italic;stroke:none;fill:rgb(0,0,0);" x="238.0" y="-426.0">
      1.35e-07
    </text>
    <path d="M 300 -476.0 L 288 -476.0"/>
    <text style="font-size:12;font-style:italic;stroke:none;fill:rgb(0,0,0);" x="238.0" y="-470.0">
      1.80e-07
    </text>
    <path d="M 300 -520.0 L 288 -520.0"/>
    <text style="font-size:12;font-style:italic;stroke:none;fill:rgb(0,0,0);" x="238.0" y="-514.0">
      2.25e-07
    </text>
    <text style="font-size:16;stroke:none;fill:rgb(0,0,0);" transform="rotate(-90,200,-340.648)" x="200.0" y="-340.648">
      Average time (sec.)
    </text>
    <g style="clip-path:url(#clip0);">
      <g style="clip-path:url(#clip1);">
        <path d="M 343.6363636363636 -447.3171620078976 L 387.27272727272725 -466.4040047794395 L 430.9090909090909 -477.6428834767313 L 474.5454545454545 -487.85471569885976 L 518.1818181818182 -495.70463419076003 L 561.8181818181818 -501.39589838804966 L 605.4545454545455 -507.34710013281153 L 649.090909090909 -511.41522047163653 L 692.7272727272727 -516.3413301588853 L 736.3636363636364 -520.0" style="stroke:rgb(147,147,147);stroke-width:2;"/>
      </g>
      <g style="clip-path:url(#clip2);">
        <g style="fill:rgb(255,255,255);clip-path:url(#clip3);">
          <path d="M 337.3863636363636 -442.3171620078976 L 337.3863636363636 -452.3171620078976 L 349.8863636363636 -452.3171620078976 L 349.8863636363636 -442.3171620078976 Z" style="stroke:none;"/>
        </g>
        <g>
          <path d="M 337.3863636363636 -442.3171620078976 L 349.8863636363636 -442.3171620078976 L 343.6363636363636 -452.3171620078976 Z"/>
          <g style="fill:rgb(255,255,255);clip-path:url(#clip4);">
            <path d="M 381.02272727272725 -461.4040047794395 L 381.02272727272725 -471.4040047794395 L 393.52272727272725 -471.4040047794395 L 393.52272727272725 -461.4040047794395 Z" style="stroke:none;"/>
          </g>
          <g>
            <path d="M 381.02272727272725 -461.4040047794395 L 393.52272727272725 -461.4040047794395 L 387.27272727272725 -471.4040047794395 Z"/>
            <g style="fill:rgb(255,255,255);clip-path:url(#clip5);">
              <path d="M 424.6590909090909 -472.6428834767313 L 424.6590909090909 -482.6428834767313 L 437.1590909090909 -482.6428834767313 L 437.1590909090909 -472.6428834767313 Z" style="stroke:none;"/>
            </g>
            <g>
              <path d="M 424.6590909090909 -472.6428834767313 L 437.1590909090909 -472.6428834767313 L 430.9090909090909 -482.6428834767313 Z"/>
              <g style="fill:rgb(255,255,255);clip-path:url(#clip6);">
                <path d="M 468.2954545454545 -482.85471569885976 L 468.2954545454545 -492.85471569885976 L 480.7954545454545 -492.85471569885976 L 480.7954545454545 -482.85471569885976 Z" style="stroke:none;"/>
              </g>
              <g>
                <path d="M 468.2954545454545 -482.85471569885976 L 480.7954545454545 -482.85471569885976 L 474.5454545454545 -492.85471569885976 Z"/>
                <g style="fill:rgb(255,255,255);clip-path:url(#clip7);">
                  <path d="M 511.9318181818182 -490.70463419076003 L 511.9318181818182 -500.70463419076003 L 524.4318181818182 -500.70463419076003 L 524.4318181818182 -490.70463419076003 Z" style="stroke:none;"/>
                </g>
                <g>
                  <path d="M 511.9318181818182 -490.70463419076003 L 524.4318181818182 -490.70463419076003 L 518.1818181818182 -500.70463419076003 Z"/>
                  <g style="fill:rgb(255,255,255);clip-path:url(#clip8);">
                    <path d="M 555.5681818181818 -496.39589838804966 L 555.5681818181818 -506.39589838804966 L 568.0681818181818 -506.39589838804966 L 568.0681818181818 -496.39589838804966 Z" style="stroke:none;"/>
                  </g>
                  <g>
                    <path d="M 555.5681818181818 -496.39589838804966 L 568.0681818181818 -496.39589838804966 L 561.8181818181818 -506.39589838804966 Z"/>
                    <g style="fill:rgb(255,255,255);clip-path:url(#clip9);">
                      <path d="M 599.2045454545455 -502.34710013281153 L 599.2045454545455 -512.3471001328115 L 611.7045454545455 -512.3471001328115 L 611.7045454545455 -502.34710013281153 Z" style="stroke:none;"/>
                    </g>
                    <g>
                      <path d="M 599.2045454545455 -502.34710013281153 L 611.7045454545455 -502.34710013281153 L 605.4545454545455 -512.3471001328115 Z"/>
                      <g style="fill:rgb(255,255,255);clip-path:url(#clip10);">
                        <path d="M 642.840909090909 -506.41522047163653 L 642.840909090909 -516.4152204716365 L 655.340909090909 -516.4152204716365 L 655.340909090909 -506.41522047163653 Z" style="stroke:none;"/>
                      </g>
                      <g>
                        <path d="M 642.840909090909 -506.41522047163653 L 655.340909090909 -506.41522047163653 L 649.090909090909 -516.4152204716365 Z"/>
                        <g style="fill:rgb(255,255,255);clip-path:url(#clip11);">
                          <path d="M 686.4772727272727 -511.3413301588853 L 686.4772727272727 -521.3413301588853 L 698.9772727272727 -521.3413301588853 L 698.9772727272727 -511.3413301588853 Z" style="stroke:none;"/>
                        </g>
                        <g>
                          <path d="M 686.4772727272727 -511.3413301588853 L 698.9772727272727 -511.3413301588853 L 692.7272727272727 -521.3413301588853 Z"/>
                          <g style="fill:rgb(255,255,255);clip-path:url(#clip12);">
                            <path d="M 730.1136363636364 -515.0 L 730.1136363636364 -525.0 L 742.6136363636364 -525.0 L 742.6136363636364 -515.0 Z" style="stroke:none;"/>
                          </g>
                          <g>
                            <path d="M 730.1136363636364 -515.0 L 742.6136363636364 -515.0 L 736.3636363636364 -525.0 Z"/>
                          </g>
                        </g>
                      </g>
                    </g>
                  </g>
                </g>
              </g>
            </g>
          </g>
        </g>
      </g>
      <g style="clip-path:url(#clip13);">
        <path d="M 343.6363636363636 -344.8071744895194 L 387.27272727272725 -354.47098800254076 L 430.9090909090909 -359.611888189543 L 474.5454545454545 -361.92533236204696 L 518.1818181818182 -365.18999160488784 L 561.8181818181818 -366.73769494205595 L 605.4545454545455 -367.9064366968565 L 649.090909090909 -369.3109789411498 L 692.7272727272727 -370.96646841172475 L 736.3636363636364 -371.88836721730905" style="stroke:rgb(205,0,0);stroke-width:2;"/>
      </g>
      <g style="clip-path:url(#clip14);">
        <g style="fill:rgb(255,255,255);clip-path:url(#clip15);">
          <path d="M 337.3863636363636 -339.8071744895194 L 337.3863636363636 -349.8071744895194 L 349.8863636363636 -349.8071744895194 L 349.8863636363636 -339.8071744895194 Z" style="stroke:none;"/>
        </g>
        <g>
          <path d="M 343.6363636363636 -339.8071744895194 L 337.3863636363636 -349.8071744895194 L 349.8863636363636 -349.8071744895194 Z"/>
          <g style="fill:rgb(255,255,255);clip-path:url(#clip16);">
            <path d="M 381.02272727272725 -349.47098800254076 L 381.02272727272725 -359.47098800254076 L 393.52272727272725 -359.47098800254076 L 393.52272727272725 -349.47098800254076 Z" style="stroke:none;"/>
          </g>
          <g>
            <path d="M 387.27272727272725 -349.47098800254076 L 381.02272727272725 -359.47098800254076 L 393.52272727272725 -359.47098800254076 Z"/>
            <g style="fill:rgb(255,255,255);clip-path:url(#clip17);">
              <path d="M 424.6590909090909 -354.611888189543 L 424.6590909090909 -364.611888189543 L 437.1590909090909 -364.611888189543 L 437.1590909090909 -354.611888189543 Z" style="stroke:none;"/>
            </g>
            <g>
              <path d="M 430.9090909090909 -354.611888189543 L 424.6590909090909 -364.611888189543 L 437.1590909090909 -364.611888189543 Z"/>
              <g style="fill:rgb(255,255,255);clip-path:url(#clip18);">
                <path d="M 468.2954545454545 -356.92533236204696 L 468.2954545454545 -366.925332362047 L 480.7954545454545 -366.925332362047 L 480.7954545454545 -356.92533236204696 Z" style="stroke:none;"/>
              </g>
              <g>
                <path d="M 474.5454545454545 -356.92533236204696 L 468.2954545454545 -366.925332362047 L 480.7954545454545 -366.925332362047 Z"/>
                <g style="fill:rgb(255,255,255);clip-path:url(#clip19);">
                  <path d="M 511.9318181818182 -360.18999160488784 L 511.9318181818182 -370.18999160488784 L 524.4318181818182 -370.18999160488784 L 524.4318181818182 -360.18999160488784 Z" style="stroke:none;"/>
                </g>
                <g>
                  <path d="M 518.1818181818182 -360.18999160488784 L 511.9318181818182 -370.18999160488784 L 524.4318181818182 -370.18999160488784 Z"/>
                  <g style="fill:rgb(255,255,255);clip-path:url(#clip20);">
                    <path d="M 555.5681818181818 -361.73769494205595 L 555.5681818181818 -371.73769494205595 L 568.0681818181818 -371.73769494205595 L 568.0681818181818 -361.73769494205595 Z" style="stroke:none;"/>
                  </g>
                  <g>
                    <path d="M 561.8181818181818 -361.73769494205595 L 555.5681818181818 -371.73769494205595 L 568.0681818181818 -371.73769494205595 Z"/>
                    <g style="fill:rgb(255,255,255);clip-path:url(#clip21);">
                      <path d="M 599.2045454545455 -362.9064366968565 L 599.2045454545455 -372.9064366968565 L 611.7045454545455 -372.9064366968565 L 611.7045454545455 -362.9064366968565 Z" style="stroke:none;"/>
                    </g>
                    <g>
                      <path d="M 605.4545454545455 -362.9064366968565 L 599.2045454545455 -372.9064366968565 L 611.7045454545455 -372.9064366968565 Z"/>
                      <g style="fill:rgb(255,255,255);clip-path:url(#clip22);">
                        <path d="M 642.840909090909 -364.3109789411498 L 642.840909090909 -374.3109789411498 L 655.340909090909 -374.3109789411498 L 655.340909090909 -364.3109789411498 Z" style="stroke:none;"/>
                      </g>
                      <g>
                        <path d="M 649.090909090909 -364.3109789411498 L 642.840909090909 -374.3109789411498 L 655.340909090909 -374.3109789411498 Z"/>
                        <g style="fill:rgb(255,255,255);clip-path:url(#clip23);">
                          <path d="M 686.4772727272727 -365.96646841172475 L 686.4772727272727 -375.96646841172475 L 698.9772727272727 -375.96646841172475 L 698.9772727272727 -365.96646841172475 Z" style="stroke:none;"/>
                        </g>
                        <g>
                          <path d="M 692.7272727272727 -365.96646841172475 L 686.4772727272727 -375.96646841172475 L 698.9772727272727 -375.96646841172475 Z"/>
                          <g style="fill:rgb(255,255,255);clip-path:url(#clip24);">
                            <path d="M 730.1136363636364 -366.88836721730905 L 730.1136363636364 -376.88836721730905 L 742.6136363636364 -376.88836721730905 L 742.6136363636364 -366.88836721730905 Z" style="stroke:none;"/>
                          </g>
                          <g>
                            <path d="M 736.3636363636364 -366.88836721730905 L 730.1136363636364 -376.88836721730905 L 742.6136363636364 -376.88836721730905 Z"/>
                          </g>
                        </g>
                      </g>
                    </g>
                  </g>
                </g>
              </g>
            </g>
          </g>
        </g>
      </g>
      <g style="clip-path:url(#clip25);">
        <path d="M 343.6363636363636 -347.7619608139261 L 387.27272727272725 -352.4715210255363 L 430.9090909090909 -356.3141015675318 L 474.5454545454545 -359.7129315820567 L 518.1818181818182 -362.5798668330883 L 561.8181818181818 -364.9633768783508 L 605.4545454545455 -366.3943037609214 L 649.090909090909 -368.8192474603675 L 692.7272727272727 -370.2301415620239 L 736.3636363636364 -371.88836721730905" style="stroke:rgb(126,126,126);stroke-width:0.4;stroke-dasharray:1.5,1.5;"/>
      </g>
      <g style="clip-path:url(#clip26);">
        <g style="fill:rgb(0,0,0);clip-path:url(#clip27);">
          <path d="M 337.3863636363636 -342.7619608139261 L 337.3863636363636 -352.7619608139261 L 349.8863636363636 -352.7619608139261 L 349.8863636363636 -342.7619608139261 Z" style="stroke:none;"/>
        </g>
        <g>
          <path d="M 343.6363636363636 -342.7619608139261 L 337.3863636363636 -352.7619608139261 L 349.8863636363636 -352.7619608139261 Z"/>
          <g style="fill:rgb(0,0,0);clip-path:url(#clip28);">
            <path d="M 381.02272727272725 -347.4715210255363 L 381.02272727272725 -357.4715210255363 L 393.52272727272725 -357.4715210255363 L 393.52272727272725 -347.4715210255363 Z" style="stroke:none;"/>
          </g>
          <g>
            <path d="M 387.27272727272725 -347.4715210255363 L 381.02272727272725 -357.4715210255363 L 393.52272727272725 -357.4715210255363 Z"/>
            <g style="fill:rgb(0,0,0);clip-path:url(#clip29);">
              <path d="M 424.6590909090909 -351.3141015675318 L 424.6590909090909 -361.3141015675318 L 437.1590909090909 -361.3141015675318 L 437.1590909090909 -351.3141015675318 Z" style="stroke:none;"/>
            </g>
            <g>
              <path d="M 430.9090909090909 -351.3141015675318 L 424.6590909090909 -361.3141015675318 L 437.1590909090909 -361.3141015675318 Z"/>
              <g style="fill:rgb(0,0,0);clip-path:url(#clip30);">
                <path d="M 468.2954545454545 -354.7129315820567 L 468.2954545454545 -364.7129315820567 L 480.7954545454545 -364.7129315820567 L 480.7954545454545 -354.7129315820567 Z" style="stroke:none;"/>
              </g>
              <g>
                <path d="M 474.5454545454545 -354.7129315820567 L 468.2954545454545 -364.7129315820567 L 480.7954545454545 -364.7129315820567 Z"/>
                <g style="fill:rgb(0,0,0);clip-path:url(#clip31);">
                  <path d="M 511.9318181818182 -357.5798668330883 L 511.9318181818182 -367.5798668330883 L 524.4318181818182 -367.5798668330883 L 524.4318181818182 -357.5798668330883 Z" style="stroke:none;"/>
                </g>
                <g>
                  <path d="M 518.1818181818182 -357.5798668330883 L 511.9318181818182 -367.5798668330883 L 524.4318181818182 -367.5798668330883 Z"/>
                  <g style="fill:rgb(0,0,0);clip-path:url(#clip32);">
                    <path d="M 555.5681818181818 -359.9633768783508 L 555.5681818181818 -369.9633768783508 L 568.0681818181818 -369.9633768783508 L 568.0681818181818 -359.9633768783508 Z" style="stroke:none;"/>
                  </g>
                  <g>
                    <path d="M 561.8181818181818 -359.9633768783508 L 555.5681818181818 -369.9633768783508 L 568.0681818181818 -369.9633768783508 Z"/>
                    <g style="fill:rgb(0,0,0);clip-path:url(#clip33);">
                      <path d="M 599.2045454545455 -361.3943037609214 L 599.2045454545455 -371.3943037609214 L 611.7045454545455 -371.3943037609214 L 611.7045454545455 -361.3943037609214 Z" style="stroke:none;"/>
                    </g>
                    <g>
                      <path d="M 605.4545454545455 -361.3943037609214 L 599.2045454545455 -371.3943037609214 L 611.7045454545455 -371.3943037609214 Z"/>
                      <g style="fill:rgb(0,0,0);clip-path:url(#clip34);">
                        <path d="M 642.840909090909 -363.8192474603675 L 642.840909090909 -373.8192474603675 L 655.340909090909 -373.8192474603675 L 655.340909090909 -363.8192474603675 Z" style="stroke:none;"/>
                      </g>
                      <g>
                        <path d="M 649.090909090909 -363.8192474603675 L 642.840909090909 -373.8192474603675 L 655.340909090909 -373.8192474603675 Z"/>
                        <g style="fill:rgb(0,0,0);clip-path:url(#clip35);">
                          <path d="M 686.4772727272727 -365.2301415620239 L 686.4772727272727 -375.2301415620239 L 698.9772727272727 -375.2301415620239 L 698.9772727272727 -365.2301415620239 Z" style="stroke:none;"/>
                        </g>
                        <g>
                          <path d="M 692.7272727272727 -365.2301415620239 L 686.4772727272727 -375.2301415620239 L 698.9772727272727 -375.2301415620239 Z"/>
                          <g style="fill:rgb(0,0,0);clip-path:url(#clip36);">
                            <path d="M 730.1136363636364 -366.88836721730905 L 730.1136363636364 -376.88836721730905 L 742.6136363636364 -376.88836721730905 L 742.6136363636364 -366.88836721730905 Z" style="stroke:none;"/>
                          </g>
                          <g>
                            <path d="M 736.3636363636364 -366.88836721730905 L 730.1136363636364 -376.88836721730905 L 742.6136363636364 -376.88836721730905 Z"/>
                          </g>
                        </g>
                      </g>
                    </g>
                  </g>
                </g>
              </g>
            </g>
          </g>
        </g>
      </g>
      <g style="clip-path:url(#clip37);">
        <path d="M 343.6363636363636 -339.30177541076085 L 387.27272727272725 -351.60913423739953 L 430.9090909090909 -357.9247371530353 L 474.5454545454545 -361.6438962204228 L 518.1818181818182 -363.8085114888665 L 561.8181818181818 -364.9633768783508 L 605.4545454545455 -366.7334929441081 L 649.090909090909 -367.6362384567208 L 692.7272727272727 -368.9388578205578 L 736.3636363636364 -369.73235138652603" style="stroke:rgb(255,68,0);stroke-width:2;"/>
      </g>
      <g style="clip-path:url(#clip38);">
        <path d="M 338.6363636363636 -334.30177541076085 L 348.6363636363636 -344.30177541076085" style="stroke-width:1;"/>
        <path d="M 348.6363636363636 -334.30177541076085 L 338.6363636363636 -344.30177541076085" style="stroke-width:1;"/>
        <path d="M 343.6363636363636 -332.23177541076086 L 343.6363636363636 -346.37177541076085" style="stroke-width:1;"/>
        <path d="M 336.56636363636363 -339.30177541076085 L 350.7063636363636 -339.30177541076085" style="stroke-width:1;"/>
        <path d="M 382.27272727272725 -346.60913423739953 L 392.27272727272725 -356.60913423739953" style="stroke-width:1;"/>
        <path d="M 392.27272727272725 -346.60913423739953 L 382.27272727272725 -356.60913423739953" style="stroke-width:1;"/>
        <path d="M 387.27272727272725 -344.53913423739954 L 387.27272727272725 -358.6791342373996" style="stroke-width:1;"/>
        <path d="M 380.20272727272726 -351.60913423739953 L 394.34272727272725 -351.60913423739953" style="stroke-width:1;"/>
        <path d="M 425.9090909090909 -352.9247371530353 L 435.9090909090909 -362.9247371530353" style="stroke-width:1;"/>
        <path d="M 435.9090909090909 -352.9247371530353 L 425.9090909090909 -362.9247371530353" style="stroke-width:1;"/>
        <path d="M 430.9090909090909 -350.85473715303533 L 430.9090909090909 -364.9947371530353" style="stroke-width:1;"/>
        <path d="M 423.83909090909094 -357.9247371530353 L 437.9790909090909 -357.9247371530353" style="stroke-width:1;"/>
        <path d="M 469.5454545454545 -356.6438962204228 L 479.5454545454545 -366.6438962204228" style="stroke-width:1;"/>
        <path d="M 479.5454545454545 -356.6438962204228 L 469.5454545454545 -366.6438962204228" style="stroke-width:1;"/>
        <path d="M 474.5454545454545 -354.5738962204228 L 474.5454545454545 -368.7138962204228" style="stroke-width:1;"/>
        <path d="M 467.47545454545457 -361.6438962204228 L 481.61545454545455 -361.6438962204228" style="stroke-width:1;"/>
        <path d="M 513.1818181818182 -358.8085114888665 L 523.1818181818182 -368.8085114888665" style="stroke-width:1;"/>
        <path d="M 523.1818181818182 -358.8085114888665 L 513.1818181818182 -368.8085114888665" style="stroke-width:1;"/>
        <path d="M 518.1818181818182 -356.7385114888665 L 518.1818181818182 -370.8785114888665" style="stroke-width:1;"/>
        <path d="M 511.1118181818182 -363.8085114888665 L 525.2518181818182 -363.8085114888665" style="stroke-width:1;"/>
        <path d="M 556.8181818181818 -359.9633768783508 L 566.8181818181818 -369.9633768783508" style="stroke-width:1;"/>
        <path d="M 566.8181818181818 -359.9633768783508 L 556.8181818181818 -369.9633768783508" style="stroke-width:1;"/>
        <path d="M 561.8181818181818 -357.8933768783508 L 561.8181818181818 -372.0333768783508" style="stroke-width:1;"/>
        <path d="M 554.7481818181818 -364.9633768783508 L 568.8881818181818 -364.9633768783508" style="stroke-width:1;"/>
        <path d="M 600.4545454545455 -361.7334929441081 L 610.4545454545455 -371.7334929441081" style="stroke-width:1;"/>
        <path d="M 610.4545454545455 -361.7334929441081 L 600.4545454545455 -371.7334929441081" style="stroke-width:1;"/>
        <path d="M 605.4545454545455 -359.6634929441081 L 605.4545454545455 -373.8034929441081" style="stroke-width:1;"/>
        <path d="M 598.3845454545454 -366.7334929441081 L 612.5245454545454 -366.7334929441081" style="stroke-width:1;"/>
        <path d="M 644.090909090909 -362.6362384567208 L 654.090909090909 -372.6362384567208" style="stroke-width:1;"/>
        <path d="M 654.090909090909 -362.6362384567208 L 644.090909090909 -372.6362384567208" style="stroke-width:1;"/>
        <path d="M 649.090909090909 -360.5662384567207 L 649.090909090909 -374.7062384567207" style="stroke-width:1;"/>
        <path d="M 642.0209090909091 -367.6362384567208 L 656.1609090909091 -367.6362384567208" style="stroke-width:1;"/>
        <path d="M 687.7272727272727 -363.9388578205578 L 697.7272727272727 -373.9388578205578" style="stroke-width:1;"/>
        <path d="M 697.7272727272727 -363.9388578205578 L 687.7272727272727 -373.9388578205578" style="stroke-width:1;"/>
        <path d="M 692.7272727272727 -361.8688578205578 L 692.7272727272727 -376.0088578205578" style="stroke-width:1;"/>
        <path d="M 685.6572727272728 -368.9388578205578 L 699.7972727272727 -368.9388578205578" style="stroke-width:1;"/>
        <path d="M 731.3636363636364 -364.73235138652603 L 741.3636363636364 -374.73235138652603" style="stroke-width:1;"/>
        <path d="M 741.3636363636364 -364.73235138652603 L 731.3636363636364 -374.73235138652603" style="stroke-width:1;"/>
        <path d="M 736.3636363636364 -362.66235138652604 L 736.3636363636364 -376.8023513865261" style="stroke-width:1;"/>
        <path d="M 729.2936363636363 -369.73235138652603 L 743.4336363636364 -369.73235138652603" style="stroke-width:1;"/>
      </g>
    </g>
    <g style="fill:rgb(255,255,255);clip-path:url(#clip39);">
      <path d="M 290 -54 L 290 -136 L 444.272 -136 L 444.272 -54 Z" style="stroke:none;"/>
    </g>
    <path d="M 300 -125.33333333333334 L 316 -125.33333333333334" style="stroke:rgb(147,147,147);stroke-width:2;"/>
    <g style="fill:rgb(255,255,255);clip-path:url(#clip40);">
      <path d="M 301.75 -120.33333333333334 L 301.75 -130.33333333333334 L 314.25 -130.33333333333334 L 314.25 -120.33333333333334 Z" style="stroke:none;"/>
    </g>
    <g>
      <path d="M 301.75 -120.33333333333334 L 314.25 -120.33333333333334 L 308.0 -130.33333333333334 Z"/>
      <text style="font-size:16;stroke:none;fill:rgb(0,0,0);" x="316.0" y="-120.0">
        splay_tree_map
      </text>
      <path d="M 300 -105.33333333333334 L 316 -105.33333333333334" style="stroke:rgb(205,0,0);stroke-width:2;"/>
      <g style="fill:rgb(255,255,255);clip-path:url(#clip41);">
        <path d="M 301.75 -100.33333333333334 L 301.75 -110.33333333333334 L 314.25 -110.33333333333334 L 314.25 -100.33333333333334 Z" style="stroke:none;"/>
      </g>
      <g>
        <path d="M 308.0 -100.33333333333334 L 301.75 -110.33333333333334 L 314.25 -110.33333333333334 Z"/>
        <text style="font-size:16;stroke:none;fill:rgb(0,0,0);" x="316.0" y="-100.0">
          rb_tree_map
        </text>
        <path d="M 300 -85.33333333333334 L 316 -85.33333333333334" style="stroke:rgb(126,126,126);stroke-width:0.4;stroke-dasharray:1.5,1.5;"/>
        <g style="fill:rgb(0,0,0);clip-path:url(#clip42);">
          <path d="M 301.75 -80.33333333333334 L 301.75 -90.33333333333334 L 314.25 -90.33333333333334 L 314.25 -80.33333333333334 Z" style="stroke:none;"/>
        </g>
        <g>
          <path d="M 308.0 -80.33333333333334 L 301.75 -90.33333333333334 L 314.25 -90.33333333333334 Z"/>
          <text style="font-size:16;stroke:none;fill:rgb(0,0,0);" x="316.0" y="-80.0">
            n_map
          </text>
          <path d="M 300 -65.33333333333334 L 316 -65.33333333333334" style="stroke:rgb(255,68,0);stroke-width:2;"/>
          <path d="M 303.0 -60.33333333333334 L 313.0 -70.33333333333334" style="stroke-width:1;"/>
          <path d="M 313.0 -60.33333333333334 L 303.0 -70.33333333333334" style="stroke-width:1;"/>
          <path d="M 308.0 -58.26333333333335 L 308.0 -72.40333333333334" style="stroke-width:1;"/>
          <path d="M 300.93 -65.33333333333334 L 315.07 -65.33333333333334" style="stroke-width:1;"/>
          <text style="font-size:16;stroke:none;fill:rgb(0,0,0);" x="316.0" y="-60.0">
            ov_tree_map
          </text>
        </g>
      </g>
    </g>
  </g>
</svg>
