<?xml version="1.0" ?>
<!--Created by PyChart 1.39 Copyright 1999-2006 Yasushi Saito-->
<svg viewBox="178 -544 620 516" xmlns="http://www.w3.org/2000/svg" xmlns:xlink="http://www.w3.org/1999/xlink">
  <defs>
    <clipPath id="clip0">
      <path d="M 294 -294 L 294 -526 L 786 -526 L 786 -294 Z"/>
    </clipPath>
    <clipPath id="clip1">
      <path d="M 294 -294 L 294 -526 L 786 -526 L 786 -294 Z"/>
    </clipPath>
    <clipPath id="clip2">
      <path d="M 280 -280 L 280 -540 L 800 -540 L 800 -280 Z"/>
    </clipPath>
    <clipPath id="clip3">
      <path d="M 343.6363636363636 -502.2555950660012 L 337.3863636363636 -512.2555950660012 L 349.8863636363636 -512.2555950660012 Z"/>
    </clipPath>
    <clipPath id="clip4">
      <path d="M 387.27272727272725 -507.7363856031908 L 381.02272727272725 -517.7363856031908 L 393.52272727272725 -517.7363856031908 Z"/>
    </clipPath>
    <clipPath id="clip5">
      <path d="M 430.9090909090909 -500.0723322535374 L 424.6590909090909 -510.0723322535374 L 437.1590909090909 -510.0723322535374 Z"/>
    </clipPath>
    <clipPath id="clip6">
      <path d="M 474.5454545454545 -502.5596965316395 L 468.2954545454545 -512.5596965316395 L 480.7954545454545 -512.5596965316395 Z"/>
    </clipPath>
    <clipPath id="clip7">
      <path d="M 518.1818181818182 -502.2497916029165 L 511.9318181818182 -512.2497916029165 L 524.4318181818182 -512.2497916029165 Z"/>
    </clipPath>
    <clipPath id="clip8">
      <path d="M 561.8181818181818 -502.74540735034975 L 555.5681818181818 -512.7454073503498 L 568.0681818181818 -512.7454073503498 Z"/>
    </clipPath>
    <clipPath id="clip9">
      <path d="M 605.4545454545455 -503.9618132129027 L 599.2045454545455 -513.9618132129027 L 611.7045454545455 -513.9618132129027 Z"/>
    </clipPath>
    <clipPath id="clip10">
      <path d="M 649.090909090909 -506.80551012440515 L 642.840909090909 -516.8055101244051 L 655.340909090909 -516.8055101244051 Z"/>
    </clipPath>
    <clipPath id="clip11">
      <path d="M 692.7272727272727 -509.24064323474477 L 686.4772727272727 -519.2406432347448 L 698.9772727272727 -519.2406432347448 Z"/>
    </clipPath>
    <clipPath id="clip12">
      <path d="M 736.3636363636364 -515.0 L 730.1136363636364 -525.0 L 742.6136363636364 -525.0 Z"/>
    </clipPath>
    <clipPath id="clip13">
      <path d="M 294 -294 L 294 -526 L 786 -526 L 786 -294 Z"/>
    </clipPath>
    <clipPath id="clip14">
      <path d="M 280 -280 L 280 -540 L 800 -540 L 800 -280 Z"/>
    </clipPath>
    <clipPath id="clip15">
      <path d="M 343.6363636363636 -452.0080509860611 L 337.3863636363636 -462.0080509860611 L 349.8863636363636 -462.0080509860611 Z"/>
    </clipPath>
    <clipPath id="clip16">
      <path d="M 387.27272727272725 -490.89009296092684 L 381.02272727272725 -500.89009296092684 L 393.52272727272725 -500.89009296092684 Z"/>
    </clipPath>
    <clipPath id="clip17">
      <path d="M 430.9090909090909 -471.49259794662925 L 424.6590909090909 -481.49259794662925 L 437.1590909090909 -481.49259794662925 Z"/>
    </clipPath>
    <clipPath id="clip18">
      <path d="M 474.5454545454545 -490.2261767840373 L 468.2954545454545 -500.2261767840373 L 480.7954545454545 -500.2261767840373 Z"/>
    </clipPath>
    <clipPath id="clip19">
      <path d="M 518.1818181818182 -471.2302814152008 L 511.9318181818182 -481.2302814152008 L 524.4318181818182 -481.2302814152008 Z"/>
    </clipPath>
    <clipPath id="clip20">
      <path d="M 561.8181818181818 -487.13177026727584 L 555.5681818181818 -497.13177026727584 L 568.0681818181818 -497.13177026727584 Z"/>
    </clipPath>
    <clipPath id="clip21">
      <path d="M 605.4545454545455 -498.0306739403404 L 599.2045454545455 -508.0306739403404 L 611.7045454545455 -508.0306739403404 Z"/>
    </clipPath>
    <clipPath id="clip22">
      <path d="M 649.090909090909 -504.8323326756075 L 642.840909090909 -514.8323326756075 L 655.340909090909 -514.8323326756075 Z"/>
    </clipPath>
    <clipPath id="clip23">
      <path d="M 692.7272727272727 -475.1731542349453 L 686.4772727272727 -485.1731542349453 L 698.9772727272727 -485.1731542349453 Z"/>
    </clipPath>
    <clipPath id="clip24">
      <path d="M 736.3636363636364 -479.6801236665225 L 730.1136363636364 -489.6801236665225 L 742.6136363636364 -489.6801236665225 Z"/>
    </clipPath>
    <clipPath id="clip25">
      <path d="M 294 -294 L 294 -526 L 786 -526 L 786 -294 Z"/>
    </clipPath>
    <clipPath id="clip26">
      <path d="M 280 -280 L 280 -540 L 800 -540 L 800 -280 Z"/>
    </clipPath>
    <clipPath id="clip27">
      <path d="M 337.3863636363636 -450.8427155986536 L 349.8863636363636 -450.8427155986536 L 343.6363636363636 -460.8427155986536 Z"/>
    </clipPath>
    <clipPath id="clip28">
      <path d="M 381.02272727272725 -446.83600468497747 L 393.52272727272725 -446.83600468497747 L 387.27272727272725 -456.83600468497747 Z"/>
    </clipPath>
    <clipPath id="clip29">
      <path d="M 424.6590909090909 -441.7150288590392 L 437.1590909090909 -441.7150288590392 L 430.9090909090909 -451.7150288590392 Z"/>
    </clipPath>
    <clipPath id="clip30">
      <path d="M 468.2954545454545 -461.6522459402138 L 480.7954545454545 -461.6522459402138 L 474.5454545454545 -471.6522459402138 Z"/>
    </clipPath>
    <clipPath id="clip31">
      <path d="M 511.9318181818182 -444.2325711451815 L 524.4318181818182 -444.2325711451815 L 518.1818181818182 -454.2325711451815 Z"/>
    </clipPath>
    <clipPath id="clip32">
      <path d="M 555.5681818181818 -453.1362442097266 L 568.0681818181818 -453.1362442097266 L 561.8181818181818 -463.1362442097266 Z"/>
    </clipPath>
    <clipPath id="clip33">
      <path d="M 599.2045454545455 -457.1499192791044 L 611.7045454545455 -457.1499192791044 L 605.4545454545455 -467.1499192791044 Z"/>
    </clipPath>
    <clipPath id="clip34">
      <path d="M 642.840909090909 -461.20305789745805 L 655.340909090909 -461.20305789745805 L 649.090909090909 -471.20305789745805 Z"/>
    </clipPath>
    <clipPath id="clip35">
      <path d="M 686.4772727272727 -439.4992666533011 L 698.9772727272727 -439.4992666533011 L 692.7272727272727 -449.4992666533011 Z"/>
    </clipPath>
    <clipPath id="clip36">
      <path d="M 730.1136363636364 -445.6045098184044 L 742.6136363636364 -445.6045098184044 L 736.3636363636364 -455.6045098184044 Z"/>
    </clipPath>
    <clipPath id="clip37">
      <path d="M 294 -294 L 294 -526 L 786 -526 L 786 -294 Z"/>
    </clipPath>
    <clipPath id="clip38">
      <path d="M 280 -280 L 280 -540 L 800 -540 L 800 -280 Z"/>
    </clipPath>
    <clipPath id="clip39">
      <path d="M 336.4935064935065 -383.98261071424804 L 343.6363636363636 -391.12546785710515 L 350.7792207792208 -383.98261071424804 L 343.6363636363636 -376.83975357139093 Z"/>
    </clipPath>
    <clipPath id="clip40">
      <path d="M 380.12987012987014 -386.882253009887 L 387.27272727272725 -394.0251101527441 L 394.4155844155844 -386.882253009887 L 387.27272727272725 -379.7393958670298 Z"/>
    </clipPath>
    <clipPath id="clip41">
      <path d="M 423.76623376623377 -380.8364373067711 L 430.9090909090909 -387.9792944496282 L 438.05194805194805 -380.8364373067711 L 430.9090909090909 -373.6935801639139 Z"/>
    </clipPath>
    <clipPath id="clip42">
      <path d="M 467.4025974025974 -390.8967405640966 L 474.5454545454545 -398.0395977069537 L 481.68831168831167 -390.8967405640966 L 474.5454545454545 -383.7538834212395 Z"/>
    </clipPath>
    <clipPath id="clip43">
      <path d="M 511.038961038961 -405.7154192738285 L 518.1818181818182 -412.8582764166856 L 525.3246753246754 -405.7154192738285 L 518.1818181818182 -398.5725621309714 Z"/>
    </clipPath>
    <clipPath id="clip44">
      <path d="M 554.6753246753246 -391.3980437053529 L 561.8181818181818 -398.54090084821 L 568.961038961039 -391.3980437053529 L 561.8181818181818 -384.25518656249574 Z"/>
    </clipPath>
    <clipPath id="clip45">
      <path d="M 598.3116883116883 -394.78761435460217 L 605.4545454545455 -401.9304714974593 L 612.5974025974026 -394.78761435460217 L 605.4545454545455 -387.644757211745 Z"/>
    </clipPath>
    <clipPath id="clip46">
      <path d="M 641.9480519480519 -403.7800804043431 L 649.090909090909 -410.92293754720026 L 656.2337662337662 -403.7800804043431 L 649.090909090909 -396.63722326148593 Z"/>
    </clipPath>
    <clipPath id="clip47">
      <path d="M 685.5844155844156 -410.0746325352692 L 692.7272727272727 -417.21748967812636 L 699.8701298701299 -410.0746325352692 L 692.7272727272727 -402.9317753924121 Z"/>
    </clipPath>
    <clipPath id="clip48">
      <path d="M 729.2207792207791 -415.2789460911038 L 736.3636363636364 -422.421803233961 L 743.5064935064936 -415.2789460911038 L 736.3636363636364 -408.1360889482467 Z"/>
    </clipPath>
    <clipPath id="clip49">
      <path d="M 294 -294 L 294 -526 L 786 -526 L 786 -294 Z"/>
    </clipPath>
    <clipPath id="clip50">
      <path d="M 280 -280 L 280 -540 L 800 -540 L 800 -280 Z"/>
    </clipPath>
    <clipPath id="clip51">
      <path d="M 290 -34 L 290 -136 L 708.4 -136 L 708.4 -34 Z"/>
    </clipPath>
    <clipPath id="clip52">
      <path d="M 308.0 -120.33333333333334 L 301.75 -130.33333333333334 L 314.25 -130.33333333333334 Z"/>
    </clipPath>
    <clipPath id="clip53">
      <path d="M 308.0 -100.33333333333334 L 301.75 -110.33333333333334 L 314.25 -110.33333333333334 Z"/>
    </clipPath>
    <clipPath id="clip54">
      <path d="M 301.75 -80.33333333333334 L 314.25 -80.33333333333334 L 308.0 -90.33333333333334 Z"/>
    </clipPath>
    <clipPath id="clip55">
      <path d="M 300.85714285714283 -65.33333333333334 L 308.0 -72.47619047619048 L 315.14285714285717 -65.33333333333334 L 308.0 -58.190476190476204 Z"/>
    </clipPath>
  </defs>
  <g style="stroke-linejoin:miter;font-size:8;font-family:Helvetica;fill:none;stroke-linecap:butt;stroke:rgb(0,0,0);font-stretch:normal;stroke-dasharray:none;font-weight:normal;font-style:normal;stroke-width:0.5;">
    <path d="M 300 -300 L 780 -300"/>
    <path d="M 300 -300 L 780 -300"/>
    <path d="M 300.0 -300 L 300.0 -288"/>
    <text style="font-size:12;font-style:italic;stroke:none;fill:rgb(0,0,0);" transform="rotate(90,300,-288)" x="300.0" y="-288.0">
      0
    </text>
    <path d="M 343.6363636363636 -300 L 343.6363636363636 -288"/>
    <text style="font-size:12;font-style:italic;stroke:none;fill:rgb(0,0,0);" transform="rotate(90,343.636,-288)" x="343.6363636363636" y="-288.0">
      200
    </text>
    <path d="M 387.27272727272725 -300 L 387.27272727272725 -288"/>
    <text style="font-size:12;font-style:italic;stroke:none;fill:rgb(0,0,0);" transform="rotate(90,387.273,-288)" x="387.27272727272725" y="-288.0">
      400
    </text>
    <path d="M 430.9090909090909 -300 L 430.9090909090909 -288"/>
    <text style="font-size:12;font-style:italic;stroke:none;fill:rgb(0,0,0);" transform="rotate(90,430.909,-288)" x="430.9090909090909" y="-288.0">
      600
    </text>
    <path d="M 474.5454545454545 -300 L 474.5454545454545 -288"/>
    <text style="font-size:12;font-style:italic;stroke:none;fill:rgb(0,0,0);" transform="rotate(90,474.545,-288)" x="474.5454545454545" y="-288.0">
      800
    </text>
    <path d="M 518.1818181818182 -300 L 518.1818181818182 -288"/>
    <text style="font-size:12;font-style:italic;stroke:none;fill:rgb(0,0,0);" transform="rotate(90,518.182,-288)" x="518.1818181818182" y="-288.0">
      1000
    </text>
    <path d="M 561.8181818181818 -300 L 561.8181818181818 -288"/>
    <text style="font-size:12;font-style:italic;stroke:none;fill:rgb(0,0,0);" transform="rotate(90,561.818,-288)" x="561.8181818181818" y="-288.0">
      1200
    </text>
    <path d="M 605.4545454545455 -300 L 605.4545454545455 -288"/>
    <text style="font-size:12;font-style:italic;stroke:none;fill:rgb(0,0,0);" transform="rotate(90,605.455,-288)" x="605.4545454545455" y="-288.0">
      1400
    </text>
    <path d="M 649.090909090909 -300 L 649.090909090909 -288"/>
    <text style="font-size:12;font-style:italic;stroke:none;fill:rgb(0,0,0);" transform="rotate(90,649.091,-288)" x="649.090909090909" y="-288.0">
      1600
    </text>
    <path d="M 692.7272727272727 -300 L 692.7272727272727 -288"/>
    <text style="font-size:12;font-style:italic;stroke:none;fill:rgb(0,0,0);" transform="rotate(90,692.727,-288)" x="692.7272727272727" y="-288.0">
      1800
    </text>
    <path d="M 736.3636363636364 -300 L 736.3636363636364 -288"/>
    <text style="font-size:12;font-style:italic;stroke:none;fill:rgb(0,0,0);" transform="rotate(90,736.364,-288)" x="736.3636363636364" y="-288.0">
      2000
    </text>
    <path d="M 780.0 -300 L 780.0 -288"/>
    <text style="font-size:12;font-style:italic;stroke:none;fill:rgb(0,0,0);" transform="rotate(90,780,-288)" x="780.0" y="-288.0">
      2200
    </text>
    <text style="font-size:16;stroke:none;fill:rgb(0,0,0);" x="524.44" y="-220.0">
      Size
    </text>
    <path d="M 300 -300 L 300 -520"/>
    <path d="M 300 -300.0 L 288 -300.0"/>
    <text style="font-size:12;font-style:italic;stroke:none;fill:rgb(0,0,0);" x="238.0" y="-294.0">
      0.00e+00
    </text>
    <path d="M 300 -344.0 L 288 -344.0"/>
    <text style="font-size:12;font-style:italic;stroke:none;fill:rgb(0,0,0);" x="238.0" y="-338.0">
      3.79e-09
    </text>
    <path d="M 300 -388.0 L 288 -388.0"/>
    <text style="font-size:12;font-style:italic;stroke:none;fill:rgb(0,0,0);" x="238.0" y="-382.0">
      7.58e-09
    </text>
    <path d="M 300 -432.0 L 288 -432.0"/>
    <text style="font-size:12;font-style:italic;stroke:none;fill:rgb(0,0,0);" x="238.0" y="-426.0">
      1.14e-08
    </text>
    <path d="M 300 -476.0 L 288 -476.0"/>
    <text style="font-size:12;font-style:italic;stroke:none;fill:rgb(0,0,0);" x="238.0" y="-470.0">
      1.52e-08
    </text>
    <path d="M 300 -520.0 L 288 -520.0"/>
    <text style="font-size:12;font-style:italic;stroke:none;fill:rgb(0,0,0);" x="238.0" y="-514.0">
      1.90e-08
    </text>
    <text style="font-size:16;stroke:none;fill:rgb(0,0,0);" transform="rotate(-90,200,-340.648)" x="200.0" y="-340.648">
      Average time (sec.)
    </text>
    <g style="clip-path:url(#clip0);">
      <g style="clip-path:url(#clip1);">
        <path d="M 343.6363636363636 -507.2555950660012 L 387.27272727272725 -512.7363856031908 L 430.9090909090909 -505.0723322535374 L 474.5454545454545 -507.5596965316395 L 518.1818181818182 -507.2497916029165 L 561.8181818181818 -507.74540735034975 L 605.4545454545455 -508.9618132129027 L 649.090909090909 -511.80551012440515 L 692.7272727272727 -514.2406432347448 L 736.3636363636364 -520.0" style="stroke:rgb(126,126,126);stroke-width:0.4;stroke-dasharray:1.5,1.5;"/>
      </g>
      <g style="clip-path:url(#clip2);">
        <g style="fill:rgb(0,0,0);clip-path:url(#clip3);">
          <path d="M 337.3863636363636 -502.2555950660012 L 337.3863636363636 -512.2555950660012 L 349.8863636363636 -512.2555950660012 L 349.8863636363636 -502.2555950660012 Z" style="stroke:none;"/>
        </g>
        <g>
          <path d="M 343.6363636363636 -502.2555950660012 L 337.3863636363636 -512.2555950660012 L 349.8863636363636 -512.2555950660012 Z"/>
          <g style="fill:rgb(0,0,0);clip-path:url(#clip4);">
            <path d="M 381.02272727272725 -507.7363856031908 L 381.02272727272725 -517.7363856031908 L 393.52272727272725 -517.7363856031908 L 393.52272727272725 -507.7363856031908 Z" style="stroke:none;"/>
          </g>
          <g>
            <path d="M 387.27272727272725 -507.7363856031908 L 381.02272727272725 -517.7363856031908 L 393.52272727272725 -517.7363856031908 Z"/>
            <g style="fill:rgb(0,0,0);clip-path:url(#clip5);">
              <path d="M 424.6590909090909 -500.0723322535374 L 424.6590909090909 -510.0723322535374 L 437.1590909090909 -510.0723322535374 L 437.1590909090909 -500.0723322535374 Z" style="stroke:none;"/>
            </g>
            <g>
              <path d="M 430.9090909090909 -500.0723322535374 L 424.6590909090909 -510.0723322535374 L 437.1590909090909 -510.0723322535374 Z"/>
              <g style="fill:rgb(0,0,0);clip-path:url(#clip6);">
                <path d="M 468.2954545454545 -502.5596965316395 L 468.2954545454545 -512.5596965316395 L 480.7954545454545 -512.5596965316395 L 480.7954545454545 -502.5596965316395 Z" style="stroke:none;"/>
              </g>
              <g>
                <path d="M 474.5454545454545 -502.5596965316395 L 468.2954545454545 -512.5596965316395 L 480.7954545454545 -512.5596965316395 Z"/>
                <g style="fill:rgb(0,0,0);clip-path:url(#clip7);">
                  <path d="M 511.9318181818182 -502.2497916029165 L 511.9318181818182 -512.2497916029165 L 524.4318181818182 -512.2497916029165 L 524.4318181818182 -502.2497916029165 Z" style="stroke:none;"/>
                </g>
                <g>
                  <path d="M 518.1818181818182 -502.2497916029165 L 511.9318181818182 -512.2497916029165 L 524.4318181818182 -512.2497916029165 Z"/>
                  <g style="fill:rgb(0,0,0);clip-path:url(#clip8);">
                    <path d="M 555.5681818181818 -502.74540735034975 L 555.5681818181818 -512.7454073503498 L 568.0681818181818 -512.7454073503498 L 568.0681818181818 -502.74540735034975 Z" style="stroke:none;"/>
                  </g>
                  <g>
                    <path d="M 561.8181818181818 -502.74540735034975 L 555.5681818181818 -512.7454073503498 L 568.0681818181818 -512.7454073503498 Z"/>
                    <g style="fill:rgb(0,0,0);clip-path:url(#clip9);">
                      <path d="M 599.2045454545455 -503.9618132129027 L 599.2045454545455 -513.9618132129027 L 611.7045454545455 -513.9618132129027 L 611.7045454545455 -503.9618132129027 Z" style="stroke:none;"/>
                    </g>
                    <g>
                      <path d="M 605.4545454545455 -503.9618132129027 L 599.2045454545455 -513.9618132129027 L 611.7045454545455 -513.9618132129027 Z"/>
                      <g style="fill:rgb(0,0,0);clip-path:url(#clip10);">
                        <path d="M 642.840909090909 -506.80551012440515 L 642.840909090909 -516.8055101244051 L 655.340909090909 -516.8055101244051 L 655.340909090909 -506.80551012440515 Z" style="stroke:none;"/>
                      </g>
                      <g>
                        <path d="M 649.090909090909 -506.80551012440515 L 642.840909090909 -516.8055101244051 L 655.340909090909 -516.8055101244051 Z"/>
                        <g style="fill:rgb(0,0,0);clip-path:url(#clip11);">
                          <path d="M 686.4772727272727 -509.24064323474477 L 686.4772727272727 -519.2406432347448 L 698.9772727272727 -519.2406432347448 L 698.9772727272727 -509.24064323474477 Z" style="stroke:none;"/>
                        </g>
                        <g>
                          <path d="M 692.7272727272727 -509.24064323474477 L 686.4772727272727 -519.2406432347448 L 698.9772727272727 -519.2406432347448 Z"/>
                          <g style="fill:rgb(0,0,0);clip-path:url(#clip12);">
                            <path d="M 730.1136363636364 -515.0 L 730.1136363636364 -525.0 L 742.6136363636364 -525.0 L 742.6136363636364 -515.0 Z" style="stroke:none;"/>
                          </g>
                          <g>
                            <path d="M 736.3636363636364 -515.0 L 730.1136363636364 -525.0 L 742.6136363636364 -525.0 Z"/>
                          </g>
                        </g>
                      </g>
                    </g>
                  </g>
                </g>
              </g>
            </g>
          </g>
        </g>
      </g>
      <g style="clip-path:url(#clip13);">
        <path d="M 343.6363636363636 -457.0080509860611 L 387.27272727272725 -495.89009296092684 L 430.9090909090909 -476.49259794662925 L 474.5454545454545 -495.2261767840373 L 518.1818181818182 -476.2302814152008 L 561.8181818181818 -492.13177026727584 L 605.4545454545455 -503.0306739403404 L 649.090909090909 -509.8323326756075 L 692.7272727272727 -480.1731542349453 L 736.3636363636364 -484.6801236665225" style="stroke:rgb(0,138,0);stroke-width:2;"/>
      </g>
      <g style="clip-path:url(#clip14);">
        <g style="fill:rgb(255,255,255);clip-path:url(#clip15);">
          <path d="M 337.3863636363636 -452.0080509860611 L 337.3863636363636 -462.0080509860611 L 349.8863636363636 -462.0080509860611 L 349.8863636363636 -452.0080509860611 Z" style="stroke:none;"/>
        </g>
        <g>
          <path d="M 343.6363636363636 -452.0080509860611 L 337.3863636363636 -462.0080509860611 L 349.8863636363636 -462.0080509860611 Z"/>
          <g style="fill:rgb(255,255,255);clip-path:url(#clip16);">
            <path d="M 381.02272727272725 -490.89009296092684 L 381.02272727272725 -500.89009296092684 L 393.52272727272725 -500.89009296092684 L 393.52272727272725 -490.89009296092684 Z" style="stroke:none;"/>
          </g>
          <g>
            <path d="M 387.27272727272725 -490.89009296092684 L 381.02272727272725 -500.89009296092684 L 393.52272727272725 -500.89009296092684 Z"/>
            <g style="fill:rgb(255,255,255);clip-path:url(#clip17);">
              <path d="M 424.6590909090909 -471.49259794662925 L 424.6590909090909 -481.49259794662925 L 437.1590909090909 -481.49259794662925 L 437.1590909090909 -471.49259794662925 Z" style="stroke:none;"/>
            </g>
            <g>
              <path d="M 430.9090909090909 -471.49259794662925 L 424.6590909090909 -481.49259794662925 L 437.1590909090909 -481.49259794662925 Z"/>
              <g style="fill:rgb(255,255,255);clip-path:url(#clip18);">
                <path d="M 468.2954545454545 -490.2261767840373 L 468.2954545454545 -500.2261767840373 L 480.7954545454545 -500.2261767840373 L 480.7954545454545 -490.2261767840373 Z" style="stroke:none;"/>
              </g>
              <g>
                <path d="M 474.5454545454545 -490.2261767840373 L 468.2954545454545 -500.2261767840373 L 480.7954545454545 -500.2261767840373 Z"/>
                <g style="fill:rgb(255,255,255);clip-path:url(#clip19);">
                  <path d="M 511.9318181818182 -471.2302814152008 L 511.9318181818182 -481.2302814152008 L 524.4318181818182 -481.2302814152008 L 524.4318181818182 -471.2302814152008 Z" style="stroke:none;"/>
                </g>
                <g>
                  <path d="M 518.1818181818182 -471.2302814152008 L 511.9318181818182 -481.2302814152008 L 524.4318181818182 -481.2302814152008 Z"/>
                  <g style="fill:rgb(255,255,255);clip-path:url(#clip20);">
                    <path d="M 555.5681818181818 -487.13177026727584 L 555.5681818181818 -497.13177026727584 L 568.0681818181818 -497.13177026727584 L 568.0681818181818 -487.13177026727584 Z" style="stroke:none;"/>
                  </g>
                  <g>
                    <path d="M 561.8181818181818 -487.13177026727584 L 555.5681818181818 -497.13177026727584 L 568.0681818181818 -497.13177026727584 Z"/>
                    <g style="fill:rgb(255,255,255);clip-path:url(#clip21);">
                      <path d="M 599.2045454545455 -498.0306739403404 L 599.2045454545455 -508.0306739403404 L 611.7045454545455 -508.0306739403404 L 611.7045454545455 -498.0306739403404 Z" style="stroke:none;"/>
                    </g>
                    <g>
                      <path d="M 605.4545454545455 -498.0306739403404 L 599.2045454545455 -508.0306739403404 L 611.7045454545455 -508.0306739403404 Z"/>
                      <g style="fill:rgb(255,255,255);clip-path:url(#clip22);">
                        <path d="M 642.840909090909 -504.8323326756075 L 642.840909090909 -514.8323326756075 L 655.340909090909 -514.8323326756075 L 655.340909090909 -504.8323326756075 Z" style="stroke:none;"/>
                      </g>
                      <g>
                        <path d="M 649.090909090909 -504.8323326756075 L 642.840909090909 -514.8323326756075 L 655.340909090909 -514.8323326756075 Z"/>
                        <g style="fill:rgb(255,255,255);clip-path:url(#clip23);">
                          <path d="M 686.4772727272727 -475.1731542349453 L 686.4772727272727 -485.1731542349453 L 698.9772727272727 -485.1731542349453 L 698.9772727272727 -475.1731542349453 Z" style="stroke:none;"/>
                        </g>
                        <g>
                          <path d="M 692.7272727272727 -475.1731542349453 L 686.4772727272727 -485.1731542349453 L 698.9772727272727 -485.1731542349453 Z"/>
                          <g style="fill:rgb(255,255,255);clip-path:url(#clip24);">
                            <path d="M 730.1136363636364 -479.6801236665225 L 730.1136363636364 -489.6801236665225 L 742.6136363636364 -489.6801236665225 L 742.6136363636364 -479.6801236665225 Z" style="stroke:none;"/>
                          </g>
                          <g>
                            <path d="M 736.3636363636364 -479.6801236665225 L 730.1136363636364 -489.6801236665225 L 742.6136363636364 -489.6801236665225 Z"/>
                          </g>
                        </g>
                      </g>
                    </g>
                  </g>
                </g>
              </g>
            </g>
          </g>
        </g>
      </g>
      <g style="clip-path:url(#clip25);">
        <path d="M 343.6363636363636 -455.8427155986536 L 387.27272727272725 -451.83600468497747 L 430.9090909090909 -446.7150288590392 L 474.5454545454545 -466.6522459402138 L 518.1818181818182 -449.2325711451815 L 561.8181818181818 -458.1362442097266 L 605.4545454545455 -462.1499192791044 L 649.090909090909 -466.20305789745805 L 692.7272727272727 -444.4992666533011 L 736.3636363636364 -450.6045098184044" style="stroke:rgb(0,138,0);stroke-width:2;"/>
      </g>
      <g style="clip-path:url(#clip26);">
        <g style="fill:rgb(255,255,255);clip-path:url(#clip27);">
          <path d="M 337.3863636363636 -450.8427155986536 L 337.3863636363636 -460.8427155986536 L 349.8863636363636 -460.8427155986536 L 349.8863636363636 -450.8427155986536 Z" style="stroke:none;"/>
        </g>
        <g>
          <path d="M 337.3863636363636 -450.8427155986536 L 349.8863636363636 -450.8427155986536 L 343.6363636363636 -460.8427155986536 Z"/>
          <g style="fill:rgb(255,255,255);clip-path:url(#clip28);">
            <path d="M 381.02272727272725 -446.83600468497747 L 381.02272727272725 -456.83600468497747 L 393.52272727272725 -456.83600468497747 L 393.52272727272725 -446.83600468497747 Z" style="stroke:none;"/>
          </g>
          <g>
            <path d="M 381.02272727272725 -446.83600468497747 L 393.52272727272725 -446.83600468497747 L 387.27272727272725 -456.83600468497747 Z"/>
            <g style="fill:rgb(255,255,255);clip-path:url(#clip29);">
              <path d="M 424.6590909090909 -441.7150288590392 L 424.6590909090909 -451.7150288590392 L 437.1590909090909 -451.7150288590392 L 437.1590909090909 -441.7150288590392 Z" style="stroke:none;"/>
            </g>
            <g>
              <path d="M 424.6590909090909 -441.7150288590392 L 437.1590909090909 -441.7150288590392 L 430.9090909090909 -451.7150288590392 Z"/>
              <g style="fill:rgb(255,255,255);clip-path:url(#clip30);">
                <path d="M 468.2954545454545 -461.6522459402138 L 468.2954545454545 -471.6522459402138 L 480.7954545454545 -471.6522459402138 L 480.7954545454545 -461.6522459402138 Z" style="stroke:none;"/>
              </g>
              <g>
                <path d="M 468.2954545454545 -461.6522459402138 L 480.7954545454545 -461.6522459402138 L 474.5454545454545 -471.6522459402138 Z"/>
                <g style="fill:rgb(255,255,255);clip-path:url(#clip31);">
                  <path d="M 511.9318181818182 -444.2325711451815 L 511.9318181818182 -454.2325711451815 L 524.4318181818182 -454.2325711451815 L 524.4318181818182 -444.2325711451815 Z" style="stroke:none;"/>
                </g>
                <g>
                  <path d="M 511.9318181818182 -444.2325711451815 L 524.4318181818182 -444.2325711451815 L 518.1818181818182 -454.2325711451815 Z"/>
                  <g style="fill:rgb(255,255,255);clip-path:url(#clip32);">
                    <path d="M 555.5681818181818 -453.1362442097266 L 555.5681818181818 -463.1362442097266 L 568.0681818181818 -463.1362442097266 L 568.0681818181818 -453.1362442097266 Z" style="stroke:none;"/>
                  </g>
                  <g>
                    <path d="M 555.5681818181818 -453.1362442097266 L 568.0681818181818 -453.1362442097266 L 561.8181818181818 -463.1362442097266 Z"/>
                    <g style="fill:rgb(255,255,255);clip-path:url(#clip33);">
                      <path d="M 599.2045454545455 -457.1499192791044 L 599.2045454545455 -467.1499192791044 L 611.7045454545455 -467.1499192791044 L 611.7045454545455 -457.1499192791044 Z" style="stroke:none;"/>
                    </g>
                    <g>
                      <path d="M 599.2045454545455 -457.1499192791044 L 611.7045454545455 -457.1499192791044 L 605.4545454545455 -467.1499192791044 Z"/>
                      <g style="fill:rgb(255,255,255);clip-path:url(#clip34);">
                        <path d="M 642.840909090909 -461.20305789745805 L 642.840909090909 -471.20305789745805 L 655.340909090909 -471.20305789745805 L 655.340909090909 -461.20305789745805 Z" style="stroke:none;"/>
                      </g>
                      <g>
                        <path d="M 642.840909090909 -461.20305789745805 L 655.340909090909 -461.20305789745805 L 649.090909090909 -471.20305789745805 Z"/>
                        <g style="fill:rgb(255,255,255);clip-path:url(#clip35);">
                          <path d="M 686.4772727272727 -439.4992666533011 L 686.4772727272727 -449.4992666533011 L 698.9772727272727 -449.4992666533011 L 698.9772727272727 -439.4992666533011 Z" style="stroke:none;"/>
                        </g>
                        <g>
                          <path d="M 686.4772727272727 -439.4992666533011 L 698.9772727272727 -439.4992666533011 L 692.7272727272727 -449.4992666533011 Z"/>
                          <g style="fill:rgb(255,255,255);clip-path:url(#clip36);">
                            <path d="M 730.1136363636364 -445.6045098184044 L 730.1136363636364 -455.6045098184044 L 742.6136363636364 -455.6045098184044 L 742.6136363636364 -445.6045098184044 Z" style="stroke:none;"/>
                          </g>
                          <g>
                            <path d="M 730.1136363636364 -445.6045098184044 L 742.6136363636364 -445.6045098184044 L 736.3636363636364 -455.6045098184044 Z"/>
                          </g>
                        </g>
                      </g>
                    </g>
                  </g>
                </g>
              </g>
            </g>
          </g>
        </g>
      </g>
      <g style="clip-path:url(#clip37);">
        <path d="M 343.6363636363636 -383.98261071424804 L 387.27272727272725 -386.882253009887 L 430.9090909090909 -380.8364373067711 L 474.5454545454545 -390.8967405640966 L 518.1818181818182 -405.7154192738285 L 561.8181818181818 -391.3980437053529 L 605.4545454545455 -394.78761435460217 L 649.090909090909 -403.7800804043431 L 692.7272727272727 -410.0746325352692 L 736.3636363636364 -415.2789460911038" style="stroke:rgb(0,0,128);stroke-width:2;"/>
      </g>
      <g style="clip-path:url(#clip38);">
        <g style="fill:rgb(255,255,255);clip-path:url(#clip39);">
          <path d="M 336.4935064935065 -376.83975357139093 L 336.4935064935065 -391.12546785710515 L 350.7792207792208 -391.12546785710515 L 350.7792207792208 -376.83975357139093 Z" style="stroke:none;"/>
        </g>
        <g>
          <path d="M 336.4935064935065 -383.98261071424804 L 343.6363636363636 -391.12546785710515 L 350.7792207792208 -383.98261071424804 L 343.6363636363636 -376.83975357139093 Z"/>
          <g style="fill:rgb(255,255,255);clip-path:url(#clip40);">
            <path d="M 380.12987012987014 -379.7393958670298 L 380.12987012987014 -394.0251101527441 L 394.4155844155844 -394.0251101527441 L 394.4155844155844 -379.7393958670298 Z" style="stroke:none;"/>
          </g>
          <g>
            <path d="M 380.12987012987014 -386.882253009887 L 387.27272727272725 -394.0251101527441 L 394.4155844155844 -386.882253009887 L 387.27272727272725 -379.7393958670298 Z"/>
            <g style="fill:rgb(255,255,255);clip-path:url(#clip41);">
              <path d="M 423.76623376623377 -373.6935801639139 L 423.76623376623377 -387.9792944496282 L 438.05194805194805 -387.9792944496282 L 438.05194805194805 -373.6935801639139 Z" style="stroke:none;"/>
            </g>
            <g>
              <path d="M 423.76623376623377 -380.8364373067711 L 430.9090909090909 -387.9792944496282 L 438.05194805194805 -380.8364373067711 L 430.9090909090909 -373.6935801639139 Z"/>
              <g style="fill:rgb(255,255,255);clip-path:url(#clip42);">
                <path d="M 467.4025974025974 -383.7538834212395 L 467.4025974025974 -398.0395977069537 L 481.68831168831167 -398.0395977069537 L 481.68831168831167 -383.7538834212395 Z" style="stroke:none;"/>
              </g>
              <g>
                <path d="M 467.4025974025974 -390.8967405640966 L 474.5454545454545 -398.0395977069537 L 481.68831168831167 -390.8967405640966 L 474.5454545454545 -383.7538834212395 Z"/>
                <g style="fill:rgb(255,255,255);clip-path:url(#clip43);">
                  <path d="M 511.038961038961 -398.5725621309714 L 511.038961038961 -412.8582764166856 L 525.3246753246754 -412.8582764166856 L 525.3246753246754 -398.5725621309714 Z" style="stroke:none;"/>
                </g>
                <g>
                  <path d="M 511.038961038961 -405.7154192738285 L 518.1818181818182 -412.8582764166856 L 525.3246753246754 -405.7154192738285 L 518.1818181818182 -398.5725621309714 Z"/>
                  <g style="fill:rgb(255,255,255);clip-path:url(#clip44);">
                    <path d="M 554.6753246753246 -384.25518656249574 L 554.6753246753246 -398.54090084821 L 568.961038961039 -398.54090084821 L 568.961038961039 -384.25518656249574 Z" style="stroke:none;"/>
                  </g>
                  <g>
                    <path d="M 554.6753246753246 -391.3980437053529 L 561.8181818181818 -398.54090084821 L 568.961038961039 -391.3980437053529 L 561.8181818181818 -384.25518656249574 Z"/>
                    <g style="fill:rgb(255,255,255);clip-path:url(#clip45);">
                      <path d="M 598.3116883116883 -387.644757211745 L 598.3116883116883 -401.9304714974593 L 612.5974025974026 -401.9304714974593 L 612.5974025974026 -387.644757211745 Z" style="stroke:none;"/>
                    </g>
                    <g>
                      <path d="M 598.3116883116883 -394.78761435460217 L 605.4545454545455 -401.9304714974593 L 612.5974025974026 -394.78761435460217 L 605.4545454545455 -387.644757211745 Z"/>
                      <g style="fill:rgb(255,255,255);clip-path:url(#clip46);">
                        <path d="M 641.9480519480519 -396.63722326148593 L 641.9480519480519 -410.92293754720026 L 656.2337662337662 -410.92293754720026 L 656.2337662337662 -396.63722326148593 Z" style="stroke:none;"/>
                      </g>
                      <g>
                        <path d="M 641.9480519480519 -403.7800804043431 L 649.090909090909 -410.92293754720026 L 656.2337662337662 -403.7800804043431 L 649.090909090909 -396.63722326148593 Z"/>
                        <g style="fill:rgb(255,255,255);clip-path:url(#clip47);">
                          <path d="M 685.5844155844156 -402.9317753924121 L 685.5844155844156 -417.21748967812636 L 699.8701298701299 -417.21748967812636 L 699.8701298701299 -402.9317753924121 Z" style="stroke:none;"/>
                        </g>
                        <g>
                          <path d="M 685.5844155844156 -410.0746325352692 L 692.7272727272727 -417.21748967812636 L 699.8701298701299 -410.0746325352692 L 692.7272727272727 -402.9317753924121 Z"/>
                          <g style="fill:rgb(255,255,255);clip-path:url(#clip48);">
                            <path d="M 729.2207792207791 -408.1360889482467 L 729.2207792207791 -422.421803233961 L 743.5064935064936 -422.421803233961 L 743.5064935064936 -408.1360889482467 Z" style="stroke:none;"/>
                          </g>
                          <g>
                            <path d="M 729.2207792207791 -415.2789460911038 L 736.3636363636364 -422.421803233961 L 743.5064935064936 -415.2789460911038 L 736.3636363636364 -408.1360889482467 Z"/>
                          </g>
                        </g>
                      </g>
                    </g>
                  </g>
                </g>
              </g>
            </g>
          </g>
        </g>
      </g>
      <g style="clip-path:url(#clip49);">
        <path d="M 343.6363636363636 -362.1505629359192 L 387.27272727272725 -368.4983908579629 L 430.9090909090909 -363.4398602948159 L 474.5454545454545 -372.22200884236736 L 518.1818181818182 -380.7117789197117 L 561.8181818181818 -370.55954880712454 L 605.4545454545455 -375.21241730065105 L 649.090909090909 -381.1219676905382 L 692.7272727272727 -384.34103259435904 L 736.3636363636364 -387.58423990461216" style="stroke:rgb(0,0,128);stroke-width:2;"/>
      </g>
      <g style="clip-path:url(#clip50);">
        <path d="M 338.6363636363636 -357.1505629359192 L 348.6363636363636 -367.1505629359192" style="stroke-width:0.7;"/>
        <path d="M 348.6363636363636 -357.1505629359192 L 338.6363636363636 -367.1505629359192" style="stroke-width:0.7;"/>
        <path d="M 382.27272727272725 -363.4983908579629 L 392.27272727272725 -373.4983908579629" style="stroke-width:0.7;"/>
        <path d="M 392.27272727272725 -363.4983908579629 L 382.27272727272725 -373.4983908579629" style="stroke-width:0.7;"/>
        <path d="M 425.9090909090909 -358.4398602948159 L 435.9090909090909 -368.43986029481596" style="stroke-width:0.7;"/>
        <path d="M 435.9090909090909 -358.4398602948159 L 425.9090909090909 -368.43986029481596" style="stroke-width:0.7;"/>
        <path d="M 469.5454545454545 -367.22200884236736 L 479.5454545454545 -377.22200884236736" style="stroke-width:0.7;"/>
        <path d="M 479.5454545454545 -367.22200884236736 L 469.5454545454545 -377.22200884236736" style="stroke-width:0.7;"/>
        <path d="M 513.1818181818182 -375.7117789197117 L 523.1818181818182 -385.7117789197117" style="stroke-width:0.7;"/>
        <path d="M 523.1818181818182 -375.7117789197117 L 513.1818181818182 -385.7117789197117" style="stroke-width:0.7;"/>
        <path d="M 556.8181818181818 -365.55954880712454 L 566.8181818181818 -375.55954880712454" style="stroke-width:0.7;"/>
        <path d="M 566.8181818181818 -365.55954880712454 L 556.8181818181818 -375.55954880712454" style="stroke-width:0.7;"/>
        <path d="M 600.4545454545455 -370.21241730065105 L 610.4545454545455 -380.21241730065105" style="stroke-width:0.7;"/>
        <path d="M 610.4545454545455 -370.21241730065105 L 600.4545454545455 -380.21241730065105" style="stroke-width:0.7;"/>
        <path d="M 644.090909090909 -376.1219676905382 L 654.090909090909 -386.1219676905382" style="stroke-width:0.7;"/>
        <path d="M 654.090909090909 -376.1219676905382 L 644.090909090909 -386.1219676905382" style="stroke-width:0.7;"/>
        <path d="M 687.7272727272727 -379.34103259435904 L 697.7272727272727 -389.34103259435904" style="stroke-width:0.7;"/>
        <path d="M 697.7272727272727 -379.34103259435904 L 687.7272727272727 -389.34103259435904" style="stroke-width:0.7;"/>
        <path d="M 731.3636363636364 -382.58423990461216 L 741.3636363636364 -392.58423990461216" style="stroke-width:0.7;"/>
        <path d="M 741.3636363636364 -382.58423990461216 L 731.3636363636364 -392.58423990461216" style="stroke-width:0.7;"/>
      </g>
    </g>
    <g style="fill:rgb(255,255,255);clip-path:url(#clip51);">
      <path d="M 290 -34 L 290 -136 L 708.4 -136 L 708.4 -34 Z" style="stroke:none;"/>
    </g>
    <path d="M 300 -125.33333333333334 L 316 -125.33333333333334" style="stroke:rgb(126,126,126);stroke-width:0.4;stroke-dasharray:1.5,1.5;"/>
    <g style="fill:rgb(0,0,0);clip-path:url(#clip52);">
      <path d="M 301.75 -120.33333333333334 L 301.75 -130.33333333333334 L 314.25 -130.33333333333334 L 314.25 -120.33333333333334 Z" style="stroke:none;"/>
    </g>
    <g>
      <path d="M 308.0 -120.33333333333334 L 301.75 -130.33333333333334 L 314.25 -130.33333333333334 Z"/>
      <text style="font-size:16;stroke:none;fill:rgb(0,0,0);" x="316.0" y="-120.0">
        n_hash_map_ncah
      </text>
      <path d="M 300 -105.33333333333334 L 316 -105.33333333333334" style="stroke:rgb(0,138,0);stroke-width:2;"/>
      <g style="fill:rgb(255,255,255);clip-path:url(#clip53);">
        <path d="M 301.75 -100.33333333333334 L 301.75 -110.33333333333334 L 314.25 -110.33333333333334 L 314.25 -100.33333333333334 Z" style="stroke:none;"/>
      </g>
      <g>
        <path d="M 308.0 -100.33333333333334 L 301.75 -110.33333333333334 L 314.25 -110.33333333333334 Z"/>
        <text style="font-size:16;stroke:none;fill:rgb(0,0,0);" x="316.0" y="-100.0">
          cc_hash_mod_prime_nea_lc_1div8_1div1_nsth_map
        </text>
        <path d="M 300 -85.33333333333334 L 316 -85.33333333333334" style="stroke:rgb(0,138,0);stroke-width:2;"/>
        <g style="fill:rgb(255,255,255);clip-path:url(#clip54);">
          <path d="M 301.75 -80.33333333333334 L 301.75 -90.33333333333334 L 314.25 -90.33333333333334 L 314.25 -80.33333333333334 Z" style="stroke:none;"/>
        </g>
        <g>
          <path d="M 301.75 -80.33333333333334 L 314.25 -80.33333333333334 L 308.0 -90.33333333333334 Z"/>
          <text style="font-size:16;stroke:none;fill:rgb(0,0,0);" x="316.0" y="-80.0">
            cc_hash_mod_prime_nea_lc_1div8_1div2_nsth_map
          </text>
          <path d="M 300 -65.33333333333334 L 316 -65.33333333333334" style="stroke:rgb(0,0,128);stroke-width:2;"/>
          <g style="fill:rgb(255,255,255);clip-path:url(#clip55);">
            <path d="M 300.85714285714283 -58.190476190476204 L 300.85714285714283 -72.47619047619048 L 315.14285714285717 -72.47619047619048 L 315.14285714285717 -58.190476190476204 Z" style="stroke:none;"/>
          </g>
          <g>
            <path d="M 300.85714285714283 -65.33333333333334 L 308.0 -72.47619047619048 L 315.14285714285717 -65.33333333333334 L 308.0 -58.190476190476204 Z"/>
            <text style="font-size:16;stroke:none;fill:rgb(0,0,0);" x="316.0" y="-60.0">
              cc_hash_mask_exp_nea_lc_1div8_1div1_nsth_map
            </text>
            <path d="M 300 -45.33333333333334 L 316 -45.33333333333334" style="stroke:rgb(0,0,128);stroke-width:2;"/>
            <path d="M 303.0 -40.33333333333337 L 313.0 -50.33333333333337" style="stroke-width:0.7;"/>
            <path d="M 313.0 -40.33333333333337 L 303.0 -50.33333333333337" style="stroke-width:0.7;"/>
            <text style="font-size:16;stroke:none;fill:rgb(0,0,0);" x="316.0" y="-40.0">
              cc_hash_mask_exp_nea_lc_1div8_1div2_nsth_map
            </text>
          </g>
        </g>
      </g>
    </g>
  </g>
</svg>
