<?xml version="1.0" ?>
<!--Created by PyChart 1.39 Copyright 1999-2006 Yasushi Saito-->
<svg viewBox="178 -544 620 496" xmlns="http://www.w3.org/2000/svg" xmlns:xlink="http://www.w3.org/1999/xlink">
  <defs>
    <clipPath id="clip0">
      <path d="M 294 -294 L 294 -526 L 786 -526 L 786 -294 Z"/>
    </clipPath>
    <clipPath id="clip1">
      <path d="M 294 -294 L 294 -526 L 786 -526 L 786 -294 Z"/>
    </clipPath>
    <clipPath id="clip2">
      <path d="M 280 -280 L 280 -540 L 800 -540 L 800 -280 Z"/>
    </clipPath>
    <clipPath id="clip3">
      <path d="M 343.6363636363636 -315.8178001679261 L 337.3863636363636 -325.8178001679261 L 349.8863636363636 -325.8178001679261 Z"/>
    </clipPath>
    <clipPath id="clip4">
      <path d="M 387.27272727272725 -337.6809403862301 L 381.02272727272725 -347.6809403862301 L 393.52272727272725 -347.6809403862301 Z"/>
    </clipPath>
    <clipPath id="clip5">
      <path d="M 430.9090909090909 -360.25188916876573 L 424.6590909090909 -370.25188916876573 L 437.1590909090909 -370.25188916876573 Z"/>
    </clipPath>
    <clipPath id="clip6">
      <path d="M 474.5454545454545 -383.1842522623379 L 468.2954545454545 -393.1842522623379 L 480.7954545454545 -393.1842522623379 Z"/>
    </clipPath>
    <clipPath id="clip7">
      <path d="M 518.1818181818182 -406.11017818826383 L 511.9318181818182 -416.11017818826383 L 524.4318181818182 -416.11017818826383 Z"/>
    </clipPath>
    <clipPath id="clip8">
      <path d="M 561.8181818181818 -429.3082377087415 L 555.5681818181818 -439.3082377087415 L 568.0681818181818 -439.3082377087415 Z"/>
    </clipPath>
    <clipPath id="clip9">
      <path d="M 605.4545454545455 -447.03843642130795 L 599.2045454545455 -457.03843642130795 L 611.7045454545455 -457.03843642130795 Z"/>
    </clipPath>
    <clipPath id="clip10">
      <path d="M 649.090909090909 -470.81957272133593 L 642.840909090909 -480.81957272133593 L 655.340909090909 -480.81957272133593 Z"/>
    </clipPath>
    <clipPath id="clip11">
      <path d="M 692.7272727272727 -493.63699972012313 L 686.4772727272727 -503.63699972012313 L 698.9772727272727 -503.63699972012313 Z"/>
    </clipPath>
    <clipPath id="clip12">
      <path d="M 736.3636363636364 -515.0 L 730.1136363636364 -525.0 L 742.6136363636364 -525.0 Z"/>
    </clipPath>
    <clipPath id="clip13">
      <path d="M 294 -294 L 294 -526 L 786 -526 L 786 -294 Z"/>
    </clipPath>
    <clipPath id="clip14">
      <path d="M 280 -280 L 280 -540 L 800 -540 L 800 -280 Z"/>
    </clipPath>
    <clipPath id="clip15">
      <path d="M 337.3863636363636 -296.3074167366359 L 349.8863636363636 -296.3074167366359 L 343.6363636363636 -306.3074167366359 Z"/>
    </clipPath>
    <clipPath id="clip16">
      <path d="M 381.02272727272725 -297.5376714245732 L 393.52272727272725 -297.5376714245732 L 387.27272727272725 -307.5376714245732 Z"/>
    </clipPath>
    <clipPath id="clip17">
      <path d="M 424.6590909090909 -298.76567776844854 L 437.1590909090909 -298.76567776844854 L 430.9090909090909 -308.76567776844854 Z"/>
    </clipPath>
    <clipPath id="clip18">
      <path d="M 468.2954545454545 -300.2796995988432 L 480.7954545454545 -300.2796995988432 L 474.5454545454545 -310.2796995988432 Z"/>
    </clipPath>
    <clipPath id="clip19">
      <path d="M 511.9318181818182 -302.20873215785053 L 524.4318181818182 -302.20873215785053 L 518.1818181818182 -312.20873215785053 Z"/>
    </clipPath>
    <clipPath id="clip20">
      <path d="M 555.5681818181818 -303.84382871536525 L 568.0681818181818 -303.84382871536525 L 561.8181818181818 -313.84382871536525 Z"/>
    </clipPath>
    <clipPath id="clip21">
      <path d="M 599.2045454545455 -305.666200205243 L 611.7045454545455 -305.666200205243 L 605.4545454545455 -315.666200205243 Z"/>
    </clipPath>
    <clipPath id="clip22">
      <path d="M 642.840909090909 -307.39901110178187 L 655.340909090909 -307.39901110178187 L 649.090909090909 -317.39901110178187 Z"/>
    </clipPath>
    <clipPath id="clip23">
      <path d="M 686.4772727272727 -309.03106633081444 L 698.9772727272727 -309.03106633081444 L 692.7272727272727 -319.03106633081444 Z"/>
    </clipPath>
    <clipPath id="clip24">
      <path d="M 730.1136363636364 -310.728985912865 L 742.6136363636364 -310.728985912865 L 736.3636363636364 -320.728985912865 Z"/>
    </clipPath>
    <clipPath id="clip25">
      <path d="M 294 -294 L 294 -526 L 786 -526 L 786 -294 Z"/>
    </clipPath>
    <clipPath id="clip26">
      <path d="M 280 -280 L 280 -540 L 800 -540 L 800 -280 Z"/>
    </clipPath>
    <clipPath id="clip27">
      <path d="M 343.6363636363636 -296.1829088534378 L 337.3863636363636 -306.1829088534378 L 349.8863636363636 -306.1829088534378 Z"/>
    </clipPath>
    <clipPath id="clip28">
      <path d="M 387.27272727272725 -297.31474018098703 L 381.02272727272725 -307.31474018098703 L 393.52272727272725 -307.31474018098703 Z"/>
    </clipPath>
    <clipPath id="clip29">
      <path d="M 430.9090909090909 -298.5415430543894 L 424.6590909090909 -308.5415430543894 L 437.1590909090909 -308.5415430543894 Z"/>
    </clipPath>
    <clipPath id="clip30">
      <path d="M 474.5454545454545 -300.2289206082657 L 468.2954545454545 -310.2289206082657 L 480.7954545454545 -310.2289206082657 Z"/>
    </clipPath>
    <clipPath id="clip31">
      <path d="M 518.1818181818182 -301.5996268308611 L 511.9318181818182 -311.5996268308611 L 524.4318181818182 -311.5996268308611 Z"/>
    </clipPath>
    <clipPath id="clip32">
      <path d="M 561.8181818181818 -303.0672357496035 L 555.5681818181818 -313.0672357496035 L 568.0681818181818 -313.0672357496035 Z"/>
    </clipPath>
    <clipPath id="clip33">
      <path d="M 605.4545454545455 -304.12840750069967 L 599.2045454545455 -314.12840750069967 L 611.7045454545455 -314.12840750069967 Z"/>
    </clipPath>
    <clipPath id="clip34">
      <path d="M 649.090909090909 -305.51338744285846 L 642.840909090909 -315.51338744285846 L 655.340909090909 -315.51338744285846 Z"/>
    </clipPath>
    <clipPath id="clip35">
      <path d="M 692.7272727272727 -306.60322791305157 L 686.4772727272727 -316.60322791305157 L 698.9772727272727 -316.60322791305157 Z"/>
    </clipPath>
    <clipPath id="clip36">
      <path d="M 736.3636363636364 -308.3463942531953 L 730.1136363636364 -318.3463942531953 L 742.6136363636364 -318.3463942531953 Z"/>
    </clipPath>
    <clipPath id="clip37">
      <path d="M 294 -294 L 294 -526 L 786 -526 L 786 -294 Z"/>
    </clipPath>
    <clipPath id="clip38">
      <path d="M 280 -280 L 280 -540 L 800 -540 L 800 -280 Z"/>
    </clipPath>
    <clipPath id="clip39">
      <path d="M 290 -54 L 290 -136 L 434.496 -136 L 434.496 -54 Z"/>
    </clipPath>
    <clipPath id="clip40">
      <path d="M 308.0 -120.33333333333334 L 301.75 -130.33333333333334 L 314.25 -130.33333333333334 Z"/>
    </clipPath>
    <clipPath id="clip41">
      <path d="M 301.75 -100.33333333333334 L 314.25 -100.33333333333334 L 308.0 -110.33333333333334 Z"/>
    </clipPath>
    <clipPath id="clip42">
      <path d="M 308.0 -80.33333333333334 L 301.75 -90.33333333333334 L 314.25 -90.33333333333334 Z"/>
    </clipPath>
  </defs>
  <g style="stroke-linejoin:miter;font-size:8;font-family:Helvetica;fill:none;stroke-linecap:butt;stroke:rgb(0,0,0);font-stretch:normal;stroke-dasharray:none;font-weight:normal;font-style:normal;stroke-width:0.5;">
    <path d="M 300 -300 L 780 -300"/>
    <path d="M 300 -300 L 780 -300"/>
    <path d="M 300.0 -300 L 300.0 -288"/>
    <text style="font-size:12;font-style:italic;stroke:none;fill:rgb(0,0,0);" transform="rotate(90,300,-288)" x="300.0" y="-288.0">
      0
    </text>
    <path d="M 343.6363636363636 -300 L 343.6363636363636 -288"/>
    <text style="font-size:12;font-style:italic;stroke:none;fill:rgb(0,0,0);" transform="rotate(90,343.636,-288)" x="343.6363636363636" y="-288.0">
      200
    </text>
    <path d="M 387.27272727272725 -300 L 387.27272727272725 -288"/>
    <text style="font-size:12;font-style:italic;stroke:none;fill:rgb(0,0,0);" transform="rotate(90,387.273,-288)" x="387.27272727272725" y="-288.0">
      400
    </text>
    <path d="M 430.9090909090909 -300 L 430.9090909090909 -288"/>
    <text style="font-size:12;font-style:italic;stroke:none;fill:rgb(0,0,0);" transform="rotate(90,430.909,-288)" x="430.9090909090909" y="-288.0">
      600
    </text>
    <path d="M 474.5454545454545 -300 L 474.5454545454545 -288"/>
    <text style="font-size:12;font-style:italic;stroke:none;fill:rgb(0,0,0);" transform="rotate(90,474.545,-288)" x="474.5454545454545" y="-288.0">
      800
    </text>
    <path d="M 518.1818181818182 -300 L 518.1818181818182 -288"/>
    <text style="font-size:12;font-style:italic;stroke:none;fill:rgb(0,0,0);" transform="rotate(90,518.182,-288)" x="518.1818181818182" y="-288.0">
      1000
    </text>
    <path d="M 561.8181818181818 -300 L 561.8181818181818 -288"/>
    <text style="font-size:12;font-style:italic;stroke:none;fill:rgb(0,0,0);" transform="rotate(90,561.818,-288)" x="561.8181818181818" y="-288.0">
      1200
    </text>
    <path d="M 605.4545454545455 -300 L 605.4545454545455 -288"/>
    <text style="font-size:12;font-style:italic;stroke:none;fill:rgb(0,0,0);" transform="rotate(90,605.455,-288)" x="605.4545454545455" y="-288.0">
      1400
    </text>
    <path d="M 649.090909090909 -300 L 649.090909090909 -288"/>
    <text style="font-size:12;font-style:italic;stroke:none;fill:rgb(0,0,0);" transform="rotate(90,649.091,-288)" x="649.090909090909" y="-288.0">
      1600
    </text>
    <path d="M 692.7272727272727 -300 L 692.7272727272727 -288"/>
    <text style="font-size:12;font-style:italic;stroke:none;fill:rgb(0,0,0);" transform="rotate(90,692.727,-288)" x="692.7272727272727" y="-288.0">
      1800
    </text>
    <path d="M 736.3636363636364 -300 L 736.3636363636364 -288"/>
    <text style="font-size:12;font-style:italic;stroke:none;fill:rgb(0,0,0);" transform="rotate(90,736.364,-288)" x="736.3636363636364" y="-288.0">
      2000
    </text>
    <path d="M 780.0 -300 L 780.0 -288"/>
    <text style="font-size:12;font-style:italic;stroke:none;fill:rgb(0,0,0);" transform="rotate(90,780,-288)" x="780.0" y="-288.0">
      2200
    </text>
    <text style="font-size:16;stroke:none;fill:rgb(0,0,0);" x="524.44" y="-220.0">
      Size
    </text>
    <path d="M 300 -300 L 300 -520"/>
    <path d="M 300 -300.0 L 288 -300.0"/>
    <text style="font-size:12;font-style:italic;stroke:none;fill:rgb(0,0,0);" x="238.0" y="-294.0">
      0.00e+00
    </text>
    <path d="M 300 -344.0 L 288 -344.0"/>
    <text style="font-size:12;font-style:italic;stroke:none;fill:rgb(0,0,0);" x="238.0" y="-338.0">
      4.72e-05
    </text>
    <path d="M 300 -388.0 L 288 -388.0"/>
    <text style="font-size:12;font-style:italic;stroke:none;fill:rgb(0,0,0);" x="238.0" y="-382.0">
      9.43e-05
    </text>
    <path d="M 300 -432.0 L 288 -432.0"/>
    <text style="font-size:12;font-style:italic;stroke:none;fill:rgb(0,0,0);" x="238.0" y="-426.0">
      1.41e-04
    </text>
    <path d="M 300 -476.0 L 288 -476.0"/>
    <text style="font-size:12;font-style:italic;stroke:none;fill:rgb(0,0,0);" x="238.0" y="-470.0">
      1.89e-04
    </text>
    <path d="M 300 -520.0 L 288 -520.0"/>
    <text style="font-size:12;font-style:italic;stroke:none;fill:rgb(0,0,0);" x="238.0" y="-514.0">
      2.36e-04
    </text>
    <text style="font-size:16;stroke:none;fill:rgb(0,0,0);" transform="rotate(-90,200,-340.648)" x="200.0" y="-340.648">
      Average time (sec.)
    </text>
    <g style="clip-path:url(#clip0);">
      <g style="clip-path:url(#clip1);">
        <path d="M 343.6363636363636 -320.8178001679261 L 387.27272727272725 -342.6809403862301 L 430.9090909090909 -365.25188916876573 L 474.5454545454545 -388.1842522623379 L 518.1818181818182 -411.11017818826383 L 561.8181818181818 -434.3082377087415 L 605.4545454545455 -452.03843642130795 L 649.090909090909 -475.81957272133593 L 692.7272727272727 -498.63699972012313 L 736.3636363636364 -520.0" style="stroke:rgb(126,126,126);stroke-width:0.4;stroke-dasharray:1.5,1.5;"/>
      </g>
      <g style="clip-path:url(#clip2);">
        <g style="fill:rgb(0,0,0);clip-path:url(#clip3);">
          <path d="M 337.3863636363636 -315.8178001679261 L 337.3863636363636 -325.8178001679261 L 349.8863636363636 -325.8178001679261 L 349.8863636363636 -315.8178001679261 Z" style="stroke:none;"/>
        </g>
        <g>
          <path d="M 343.6363636363636 -315.8178001679261 L 337.3863636363636 -325.8178001679261 L 349.8863636363636 -325.8178001679261 Z"/>
          <g style="fill:rgb(0,0,0);clip-path:url(#clip4);">
            <path d="M 381.02272727272725 -337.6809403862301 L 381.02272727272725 -347.6809403862301 L 393.52272727272725 -347.6809403862301 L 393.52272727272725 -337.6809403862301 Z" style="stroke:none;"/>
          </g>
          <g>
            <path d="M 387.27272727272725 -337.6809403862301 L 381.02272727272725 -347.6809403862301 L 393.52272727272725 -347.6809403862301 Z"/>
            <g style="fill:rgb(0,0,0);clip-path:url(#clip5);">
              <path d="M 424.6590909090909 -360.25188916876573 L 424.6590909090909 -370.25188916876573 L 437.1590909090909 -370.25188916876573 L 437.1590909090909 -360.25188916876573 Z" style="stroke:none;"/>
            </g>
            <g>
              <path d="M 430.9090909090909 -360.25188916876573 L 424.6590909090909 -370.25188916876573 L 437.1590909090909 -370.25188916876573 Z"/>
              <g style="fill:rgb(0,0,0);clip-path:url(#clip6);">
                <path d="M 468.2954545454545 -383.1842522623379 L 468.2954545454545 -393.1842522623379 L 480.7954545454545 -393.1842522623379 L 480.7954545454545 -383.1842522623379 Z" style="stroke:none;"/>
              </g>
              <g>
                <path d="M 474.5454545454545 -383.1842522623379 L 468.2954545454545 -393.1842522623379 L 480.7954545454545 -393.1842522623379 Z"/>
                <g style="fill:rgb(0,0,0);clip-path:url(#clip7);">
                  <path d="M 511.9318181818182 -406.11017818826383 L 511.9318181818182 -416.11017818826383 L 524.4318181818182 -416.11017818826383 L 524.4318181818182 -406.11017818826383 Z" style="stroke:none;"/>
                </g>
                <g>
                  <path d="M 518.1818181818182 -406.11017818826383 L 511.9318181818182 -416.11017818826383 L 524.4318181818182 -416.11017818826383 Z"/>
                  <g style="fill:rgb(0,0,0);clip-path:url(#clip8);">
                    <path d="M 555.5681818181818 -429.3082377087415 L 555.5681818181818 -439.3082377087415 L 568.0681818181818 -439.3082377087415 L 568.0681818181818 -429.3082377087415 Z" style="stroke:none;"/>
                  </g>
                  <g>
                    <path d="M 561.8181818181818 -429.3082377087415 L 555.5681818181818 -439.3082377087415 L 568.0681818181818 -439.3082377087415 Z"/>
                    <g style="fill:rgb(0,0,0);clip-path:url(#clip9);">
                      <path d="M 599.2045454545455 -447.03843642130795 L 599.2045454545455 -457.03843642130795 L 611.7045454545455 -457.03843642130795 L 611.7045454545455 -447.03843642130795 Z" style="stroke:none;"/>
                    </g>
                    <g>
                      <path d="M 605.4545454545455 -447.03843642130795 L 599.2045454545455 -457.03843642130795 L 611.7045454545455 -457.03843642130795 Z"/>
                      <g style="fill:rgb(0,0,0);clip-path:url(#clip10);">
                        <path d="M 642.840909090909 -470.81957272133593 L 642.840909090909 -480.81957272133593 L 655.340909090909 -480.81957272133593 L 655.340909090909 -470.81957272133593 Z" style="stroke:none;"/>
                      </g>
                      <g>
                        <path d="M 649.090909090909 -470.81957272133593 L 642.840909090909 -480.81957272133593 L 655.340909090909 -480.81957272133593 Z"/>
                        <g style="fill:rgb(0,0,0);clip-path:url(#clip11);">
                          <path d="M 686.4772727272727 -493.63699972012313 L 686.4772727272727 -503.63699972012313 L 698.9772727272727 -503.63699972012313 L 698.9772727272727 -493.63699972012313 Z" style="stroke:none;"/>
                        </g>
                        <g>
                          <path d="M 692.7272727272727 -493.63699972012313 L 686.4772727272727 -503.63699972012313 L 698.9772727272727 -503.63699972012313 Z"/>
                          <g style="fill:rgb(0,0,0);clip-path:url(#clip12);">
                            <path d="M 730.1136363636364 -515.0 L 730.1136363636364 -525.0 L 742.6136363636364 -525.0 L 742.6136363636364 -515.0 Z" style="stroke:none;"/>
                          </g>
                          <g>
                            <path d="M 736.3636363636364 -515.0 L 730.1136363636364 -525.0 L 742.6136363636364 -525.0 Z"/>
                          </g>
                        </g>
                      </g>
                    </g>
                  </g>
                </g>
              </g>
            </g>
          </g>
        </g>
      </g>
      <g style="clip-path:url(#clip13);">
        <path d="M 343.6363636363636 -301.3074167366359 L 387.27272727272725 -302.5376714245732 L 430.9090909090909 -303.76567776844854 L 474.5454545454545 -305.2796995988432 L 518.1818181818182 -307.20873215785053 L 561.8181818181818 -308.84382871536525 L 605.4545454545455 -310.666200205243 L 649.090909090909 -312.39901110178187 L 692.7272727272727 -314.03106633081444 L 736.3636363636364 -315.728985912865" style="stroke:rgb(147,147,147);stroke-width:2;"/>
      </g>
      <g style="clip-path:url(#clip14);">
        <g style="fill:rgb(255,255,255);clip-path:url(#clip15);">
          <path d="M 337.3863636363636 -296.3074167366359 L 337.3863636363636 -306.3074167366359 L 349.8863636363636 -306.3074167366359 L 349.8863636363636 -296.3074167366359 Z" style="stroke:none;"/>
        </g>
        <g>
          <path d="M 337.3863636363636 -296.3074167366359 L 349.8863636363636 -296.3074167366359 L 343.6363636363636 -306.3074167366359 Z"/>
          <g style="fill:rgb(255,255,255);clip-path:url(#clip16);">
            <path d="M 381.02272727272725 -297.5376714245732 L 381.02272727272725 -307.5376714245732 L 393.52272727272725 -307.5376714245732 L 393.52272727272725 -297.5376714245732 Z" style="stroke:none;"/>
          </g>
          <g>
            <path d="M 381.02272727272725 -297.5376714245732 L 393.52272727272725 -297.5376714245732 L 387.27272727272725 -307.5376714245732 Z"/>
            <g style="fill:rgb(255,255,255);clip-path:url(#clip17);">
              <path d="M 424.6590909090909 -298.76567776844854 L 424.6590909090909 -308.76567776844854 L 437.1590909090909 -308.76567776844854 L 437.1590909090909 -298.76567776844854 Z" style="stroke:none;"/>
            </g>
            <g>
              <path d="M 424.6590909090909 -298.76567776844854 L 437.1590909090909 -298.76567776844854 L 430.9090909090909 -308.76567776844854 Z"/>
              <g style="fill:rgb(255,255,255);clip-path:url(#clip18);">
                <path d="M 468.2954545454545 -300.2796995988432 L 468.2954545454545 -310.2796995988432 L 480.7954545454545 -310.2796995988432 L 480.7954545454545 -300.2796995988432 Z" style="stroke:none;"/>
              </g>
              <g>
                <path d="M 468.2954545454545 -300.2796995988432 L 480.7954545454545 -300.2796995988432 L 474.5454545454545 -310.2796995988432 Z"/>
                <g style="fill:rgb(255,255,255);clip-path:url(#clip19);">
                  <path d="M 511.9318181818182 -302.20873215785053 L 511.9318181818182 -312.20873215785053 L 524.4318181818182 -312.20873215785053 L 524.4318181818182 -302.20873215785053 Z" style="stroke:none;"/>
                </g>
                <g>
                  <path d="M 511.9318181818182 -302.20873215785053 L 524.4318181818182 -302.20873215785053 L 518.1818181818182 -312.20873215785053 Z"/>
                  <g style="fill:rgb(255,255,255);clip-path:url(#clip20);">
                    <path d="M 555.5681818181818 -303.84382871536525 L 555.5681818181818 -313.84382871536525 L 568.0681818181818 -313.84382871536525 L 568.0681818181818 -303.84382871536525 Z" style="stroke:none;"/>
                  </g>
                  <g>
                    <path d="M 555.5681818181818 -303.84382871536525 L 568.0681818181818 -303.84382871536525 L 561.8181818181818 -313.84382871536525 Z"/>
                    <g style="fill:rgb(255,255,255);clip-path:url(#clip21);">
                      <path d="M 599.2045454545455 -305.666200205243 L 599.2045454545455 -315.666200205243 L 611.7045454545455 -315.666200205243 L 611.7045454545455 -305.666200205243 Z" style="stroke:none;"/>
                    </g>
                    <g>
                      <path d="M 599.2045454545455 -305.666200205243 L 611.7045454545455 -305.666200205243 L 605.4545454545455 -315.666200205243 Z"/>
                      <g style="fill:rgb(255,255,255);clip-path:url(#clip22);">
                        <path d="M 642.840909090909 -307.39901110178187 L 642.840909090909 -317.39901110178187 L 655.340909090909 -317.39901110178187 L 655.340909090909 -307.39901110178187 Z" style="stroke:none;"/>
                      </g>
                      <g>
                        <path d="M 642.840909090909 -307.39901110178187 L 655.340909090909 -307.39901110178187 L 649.090909090909 -317.39901110178187 Z"/>
                        <g style="fill:rgb(255,255,255);clip-path:url(#clip23);">
                          <path d="M 686.4772727272727 -309.03106633081444 L 686.4772727272727 -319.03106633081444 L 698.9772727272727 -319.03106633081444 L 698.9772727272727 -309.03106633081444 Z" style="stroke:none;"/>
                        </g>
                        <g>
                          <path d="M 686.4772727272727 -309.03106633081444 L 698.9772727272727 -309.03106633081444 L 692.7272727272727 -319.03106633081444 Z"/>
                          <g style="fill:rgb(255,255,255);clip-path:url(#clip24);">
                            <path d="M 730.1136363636364 -310.728985912865 L 730.1136363636364 -320.728985912865 L 742.6136363636364 -320.728985912865 L 742.6136363636364 -310.728985912865 Z" style="stroke:none;"/>
                          </g>
                          <g>
                            <path d="M 730.1136363636364 -310.728985912865 L 742.6136363636364 -310.728985912865 L 736.3636363636364 -320.728985912865 Z"/>
                          </g>
                        </g>
                      </g>
                    </g>
                  </g>
                </g>
              </g>
            </g>
          </g>
        </g>
      </g>
      <g style="clip-path:url(#clip25);">
        <path d="M 343.6363636363636 -301.1829088534378 L 387.27272727272725 -302.31474018098703 L 430.9090909090909 -303.5415430543894 L 474.5454545454545 -305.2289206082657 L 518.1818181818182 -306.5996268308611 L 561.8181818181818 -308.0672357496035 L 605.4545454545455 -309.12840750069967 L 649.090909090909 -310.51338744285846 L 692.7272727272727 -311.60322791305157 L 736.3636363636364 -313.3463942531953" style="stroke:rgb(205,0,0);stroke-width:2;"/>
      </g>
      <g style="clip-path:url(#clip26);">
        <g style="fill:rgb(255,255,255);clip-path:url(#clip27);">
          <path d="M 337.3863636363636 -296.1829088534378 L 337.3863636363636 -306.1829088534378 L 349.8863636363636 -306.1829088534378 L 349.8863636363636 -296.1829088534378 Z" style="stroke:none;"/>
        </g>
        <g>
          <path d="M 343.6363636363636 -296.1829088534378 L 337.3863636363636 -306.1829088534378 L 349.8863636363636 -306.1829088534378 Z"/>
          <g style="fill:rgb(255,255,255);clip-path:url(#clip28);">
            <path d="M 381.02272727272725 -297.31474018098703 L 381.02272727272725 -307.31474018098703 L 393.52272727272725 -307.31474018098703 L 393.52272727272725 -297.31474018098703 Z" style="stroke:none;"/>
          </g>
          <g>
            <path d="M 387.27272727272725 -297.31474018098703 L 381.02272727272725 -307.31474018098703 L 393.52272727272725 -307.31474018098703 Z"/>
            <g style="fill:rgb(255,255,255);clip-path:url(#clip29);">
              <path d="M 424.6590909090909 -298.5415430543894 L 424.6590909090909 -308.5415430543894 L 437.1590909090909 -308.5415430543894 L 437.1590909090909 -298.5415430543894 Z" style="stroke:none;"/>
            </g>
            <g>
              <path d="M 430.9090909090909 -298.5415430543894 L 424.6590909090909 -308.5415430543894 L 437.1590909090909 -308.5415430543894 Z"/>
              <g style="fill:rgb(255,255,255);clip-path:url(#clip30);">
                <path d="M 468.2954545454545 -300.2289206082657 L 468.2954545454545 -310.2289206082657 L 480.7954545454545 -310.2289206082657 L 480.7954545454545 -300.2289206082657 Z" style="stroke:none;"/>
              </g>
              <g>
                <path d="M 474.5454545454545 -300.2289206082657 L 468.2954545454545 -310.2289206082657 L 480.7954545454545 -310.2289206082657 Z"/>
                <g style="fill:rgb(255,255,255);clip-path:url(#clip31);">
                  <path d="M 511.9318181818182 -301.5996268308611 L 511.9318181818182 -311.5996268308611 L 524.4318181818182 -311.5996268308611 L 524.4318181818182 -301.5996268308611 Z" style="stroke:none;"/>
                </g>
                <g>
                  <path d="M 518.1818181818182 -301.5996268308611 L 511.9318181818182 -311.5996268308611 L 524.4318181818182 -311.5996268308611 Z"/>
                  <g style="fill:rgb(255,255,255);clip-path:url(#clip32);">
                    <path d="M 555.5681818181818 -303.0672357496035 L 555.5681818181818 -313.0672357496035 L 568.0681818181818 -313.0672357496035 L 568.0681818181818 -303.0672357496035 Z" style="stroke:none;"/>
                  </g>
                  <g>
                    <path d="M 561.8181818181818 -303.0672357496035 L 555.5681818181818 -313.0672357496035 L 568.0681818181818 -313.0672357496035 Z"/>
                    <g style="fill:rgb(255,255,255);clip-path:url(#clip33);">
                      <path d="M 599.2045454545455 -304.12840750069967 L 599.2045454545455 -314.12840750069967 L 611.7045454545455 -314.12840750069967 L 611.7045454545455 -304.12840750069967 Z" style="stroke:none;"/>
                    </g>
                    <g>
                      <path d="M 605.4545454545455 -304.12840750069967 L 599.2045454545455 -314.12840750069967 L 611.7045454545455 -314.12840750069967 Z"/>
                      <g style="fill:rgb(255,255,255);clip-path:url(#clip34);">
                        <path d="M 642.840909090909 -305.51338744285846 L 642.840909090909 -315.51338744285846 L 655.340909090909 -315.51338744285846 L 655.340909090909 -305.51338744285846 Z" style="stroke:none;"/>
                      </g>
                      <g>
                        <path d="M 649.090909090909 -305.51338744285846 L 642.840909090909 -315.51338744285846 L 655.340909090909 -315.51338744285846 Z"/>
                        <g style="fill:rgb(255,255,255);clip-path:url(#clip35);">
                          <path d="M 686.4772727272727 -306.60322791305157 L 686.4772727272727 -316.60322791305157 L 698.9772727272727 -316.60322791305157 L 698.9772727272727 -306.60322791305157 Z" style="stroke:none;"/>
                        </g>
                        <g>
                          <path d="M 692.7272727272727 -306.60322791305157 L 686.4772727272727 -316.60322791305157 L 698.9772727272727 -316.60322791305157 Z"/>
                          <g style="fill:rgb(255,255,255);clip-path:url(#clip36);">
                            <path d="M 730.1136363636364 -308.3463942531953 L 730.1136363636364 -318.3463942531953 L 742.6136363636364 -318.3463942531953 L 742.6136363636364 -308.3463942531953 Z" style="stroke:none;"/>
                          </g>
                          <g>
                            <path d="M 736.3636363636364 -308.3463942531953 L 730.1136363636364 -318.3463942531953 L 742.6136363636364 -318.3463942531953 Z"/>
                          </g>
                        </g>
                      </g>
                    </g>
                  </g>
                </g>
              </g>
            </g>
          </g>
        </g>
      </g>
      <g style="clip-path:url(#clip37);">
        <path d="M 343.6363636363636 -300.60568989644554 L 387.27272727272725 -300.95946450228564 L 430.9090909090909 -301.30347980222035 L 474.5454545454545 -301.69613769941225 L 518.1818181818182 -302.10041981528127 L 561.8181818181818 -302.55161862114005 L 605.4545454545455 -302.95075100289205 L 649.090909090909 -303.3317007183506 L 692.7272727272727 -303.64468700438476 L 736.3636363636364 -304.0407407407407" style="stroke:rgb(255,68,0);stroke-width:2;"/>
      </g>
      <g style="clip-path:url(#clip38);">
        <path d="M 338.6363636363636 -295.60568989644554 L 348.6363636363636 -305.60568989644554" style="stroke-width:1;"/>
        <path d="M 348.6363636363636 -295.60568989644554 L 338.6363636363636 -305.60568989644554" style="stroke-width:1;"/>
        <path d="M 343.6363636363636 -293.53568989644555 L 343.6363636363636 -307.6756898964456" style="stroke-width:1;"/>
        <path d="M 336.56636363636363 -300.60568989644554 L 350.7063636363636 -300.60568989644554" style="stroke-width:1;"/>
        <path d="M 382.27272727272725 -295.95946450228564 L 392.27272727272725 -305.95946450228564" style="stroke-width:1;"/>
        <path d="M 392.27272727272725 -295.95946450228564 L 382.27272727272725 -305.95946450228564" style="stroke-width:1;"/>
        <path d="M 387.27272727272725 -293.88946450228565 L 387.27272727272725 -308.02946450228563" style="stroke-width:1;"/>
        <path d="M 380.20272727272726 -300.95946450228564 L 394.34272727272725 -300.95946450228564" style="stroke-width:1;"/>
        <path d="M 425.9090909090909 -296.30347980222035 L 435.9090909090909 -306.30347980222035" style="stroke-width:1;"/>
        <path d="M 435.9090909090909 -296.30347980222035 L 425.9090909090909 -306.30347980222035" style="stroke-width:1;"/>
        <path d="M 430.9090909090909 -294.23347980222036 L 430.9090909090909 -308.37347980222034" style="stroke-width:1;"/>
        <path d="M 423.83909090909094 -301.30347980222035 L 437.9790909090909 -301.30347980222035" style="stroke-width:1;"/>
        <path d="M 469.5454545454545 -296.69613769941225 L 479.5454545454545 -306.69613769941225" style="stroke-width:1;"/>
        <path d="M 479.5454545454545 -296.69613769941225 L 469.5454545454545 -306.69613769941225" style="stroke-width:1;"/>
        <path d="M 474.5454545454545 -294.62613769941225 L 474.5454545454545 -308.76613769941224" style="stroke-width:1;"/>
        <path d="M 467.47545454545457 -301.69613769941225 L 481.61545454545455 -301.69613769941225" style="stroke-width:1;"/>
        <path d="M 513.1818181818182 -297.10041981528127 L 523.1818181818182 -307.10041981528127" style="stroke-width:1;"/>
        <path d="M 523.1818181818182 -297.10041981528127 L 513.1818181818182 -307.10041981528127" style="stroke-width:1;"/>
        <path d="M 518.1818181818182 -295.0304198152813 L 518.1818181818182 -309.17041981528126" style="stroke-width:1;"/>
        <path d="M 511.1118181818182 -302.10041981528127 L 525.2518181818182 -302.10041981528127" style="stroke-width:1;"/>
        <path d="M 556.8181818181818 -297.55161862114005 L 566.8181818181818 -307.55161862114005" style="stroke-width:1;"/>
        <path d="M 566.8181818181818 -297.55161862114005 L 556.8181818181818 -307.55161862114005" style="stroke-width:1;"/>
        <path d="M 561.8181818181818 -295.48161862114006 L 561.8181818181818 -309.62161862114004" style="stroke-width:1;"/>
        <path d="M 554.7481818181818 -302.55161862114005 L 568.8881818181818 -302.55161862114005" style="stroke-width:1;"/>
        <path d="M 600.4545454545455 -297.95075100289205 L 610.4545454545455 -307.95075100289205" style="stroke-width:1;"/>
        <path d="M 610.4545454545455 -297.95075100289205 L 600.4545454545455 -307.95075100289205" style="stroke-width:1;"/>
        <path d="M 605.4545454545455 -295.88075100289205 L 605.4545454545455 -310.02075100289204" style="stroke-width:1;"/>
        <path d="M 598.3845454545454 -302.95075100289205 L 612.5245454545454 -302.95075100289205" style="stroke-width:1;"/>
        <path d="M 644.090909090909 -298.3317007183506 L 654.090909090909 -308.3317007183506" style="stroke-width:1;"/>
        <path d="M 654.090909090909 -298.3317007183506 L 644.090909090909 -308.3317007183506" style="stroke-width:1;"/>
        <path d="M 649.090909090909 -296.2617007183506 L 649.090909090909 -310.4017007183506" style="stroke-width:1;"/>
        <path d="M 642.0209090909091 -303.3317007183506 L 656.1609090909091 -303.3317007183506" style="stroke-width:1;"/>
        <path d="M 687.7272727272727 -298.64468700438476 L 697.7272727272727 -308.64468700438476" style="stroke-width:1;"/>
        <path d="M 697.7272727272727 -298.64468700438476 L 687.7272727272727 -308.64468700438476" style="stroke-width:1;"/>
        <path d="M 692.7272727272727 -296.5746870043847 L 692.7272727272727 -310.71468700438476" style="stroke-width:1;"/>
        <path d="M 685.6572727272728 -303.64468700438476 L 699.7972727272727 -303.64468700438476" style="stroke-width:1;"/>
        <path d="M 731.3636363636364 -299.0407407407407 L 741.3636363636364 -309.0407407407407" style="stroke-width:1;"/>
        <path d="M 741.3636363636364 -299.0407407407407 L 731.3636363636364 -309.0407407407407" style="stroke-width:1;"/>
        <path d="M 736.3636363636364 -296.9707407407407 L 736.3636363636364 -311.11074074074077" style="stroke-width:1;"/>
        <path d="M 729.2936363636363 -304.0407407407407 L 743.4336363636364 -304.0407407407407" style="stroke-width:1;"/>
      </g>
    </g>
    <g style="fill:rgb(255,255,255);clip-path:url(#clip39);">
      <path d="M 290 -54 L 290 -136 L 434.496 -136 L 434.496 -54 Z" style="stroke:none;"/>
    </g>
    <path d="M 300 -125.33333333333334 L 316 -125.33333333333334" style="stroke:rgb(126,126,126);stroke-width:0.4;stroke-dasharray:1.5,1.5;"/>
    <g style="fill:rgb(0,0,0);clip-path:url(#clip40);">
      <path d="M 301.75 -120.33333333333334 L 301.75 -130.33333333333334 L 314.25 -130.33333333333334 L 314.25 -120.33333333333334 Z" style="stroke:none;"/>
    </g>
    <g>
      <path d="M 308.0 -120.33333333333334 L 301.75 -130.33333333333334 L 314.25 -130.33333333333334 Z"/>
      <text style="font-size:16;stroke:none;fill:rgb(0,0,0);" x="316.0" y="-120.0">
        n_set
      </text>
      <path d="M 300 -105.33333333333334 L 316 -105.33333333333334" style="stroke:rgb(147,147,147);stroke-width:2;"/>
      <g style="fill:rgb(255,255,255);clip-path:url(#clip41);">
        <path d="M 301.75 -100.33333333333334 L 301.75 -110.33333333333334 L 314.25 -110.33333333333334 L 314.25 -100.33333333333334 Z" style="stroke:none;"/>
      </g>
      <g>
        <path d="M 301.75 -100.33333333333334 L 314.25 -100.33333333333334 L 308.0 -110.33333333333334 Z"/>
        <text style="font-size:16;stroke:none;fill:rgb(0,0,0);" x="316.0" y="-100.0">
          splay_tree_set
        </text>
        <path d="M 300 -85.33333333333334 L 316 -85.33333333333334" style="stroke:rgb(205,0,0);stroke-width:2;"/>
        <g style="fill:rgb(255,255,255);clip-path:url(#clip42);">
          <path d="M 301.75 -80.33333333333334 L 301.75 -90.33333333333334 L 314.25 -90.33333333333334 L 314.25 -80.33333333333334 Z" style="stroke:none;"/>
        </g>
        <g>
          <path d="M 308.0 -80.33333333333334 L 301.75 -90.33333333333334 L 314.25 -90.33333333333334 Z"/>
          <text style="font-size:16;stroke:none;fill:rgb(0,0,0);" x="316.0" y="-80.0">
            rb_tree_set
          </text>
          <path d="M 300 -65.33333333333334 L 316 -65.33333333333334" style="stroke:rgb(255,68,0);stroke-width:2;"/>
          <path d="M 303.0 -60.33333333333334 L 313.0 -70.33333333333334" style="stroke-width:1;"/>
          <path d="M 313.0 -60.33333333333334 L 303.0 -70.33333333333334" style="stroke-width:1;"/>
          <path d="M 308.0 -58.26333333333335 L 308.0 -72.40333333333334" style="stroke-width:1;"/>
          <path d="M 300.93 -65.33333333333334 L 315.07 -65.33333333333334" style="stroke-width:1;"/>
          <text style="font-size:16;stroke:none;fill:rgb(0,0,0);" x="316.0" y="-60.0">
            ov_tree_set
          </text>
        </g>
      </g>
    </g>
  </g>
</svg>
