<?xml version="1.0" ?>
<!--Created by PyChart 1.39 Copyright 1999-2006 Yasushi Saito-->
<svg viewBox="178 -544 620 556" xmlns="http://www.w3.org/2000/svg" xmlns:xlink="http://www.w3.org/1999/xlink">
  <defs>
    <clipPath id="clip0">
      <path d="M 294 -294 L 294 -526 L 786 -526 L 786 -294 Z"/>
    </clipPath>
    <clipPath id="clip1">
      <path d="M 294 -294 L 294 -526 L 786 -526 L 786 -294 Z"/>
    </clipPath>
    <clipPath id="clip2">
      <path d="M 280 -280 L 280 -540 L 800 -540 L 800 -280 Z"/>
    </clipPath>
    <clipPath id="clip3">
      <path d="M 321.8181818181818 -311.0586161194328 L 315.5681818181818 -321.0586161194328 L 328.0681818181818 -321.0586161194328 Z"/>
    </clipPath>
    <clipPath id="clip4">
      <path d="M 343.6363636363636 -330.8848683387932 L 337.3863636363636 -340.8848683387932 L 349.8863636363636 -340.8848683387932 Z"/>
    </clipPath>
    <clipPath id="clip5">
      <path d="M 365.45454545454544 -352.1757233239141 L 359.20454545454544 -362.1757233239141 L 371.70454545454544 -362.1757233239141 Z"/>
    </clipPath>
    <clipPath id="clip6">
      <path d="M 387.27272727272725 -374.12725999649905 L 381.02272727272725 -384.12725999649905 L 393.52272727272725 -384.12725999649905 Z"/>
    </clipPath>
    <clipPath id="clip7">
      <path d="M 409.0909090909091 -396.6339493360674 L 402.8409090909091 -406.6339493360674 L 415.3409090909091 -406.6339493360674 Z"/>
    </clipPath>
    <clipPath id="clip8">
      <path d="M 430.9090909090909 -419.9728675385731 L 424.6590909090909 -429.9728675385731 L 437.1590909090909 -429.9728675385731 Z"/>
    </clipPath>
    <clipPath id="clip9">
      <path d="M 452.72727272727275 -443.0742204106129 L 446.47727272727275 -453.0742204106129 L 458.97727272727275 -453.0742204106129 Z"/>
    </clipPath>
    <clipPath id="clip10">
      <path d="M 474.5454545454545 -466.44414714046366 L 468.2954545454545 -476.44414714046366 L 480.7954545454545 -476.44414714046366 Z"/>
    </clipPath>
    <clipPath id="clip11">
      <path d="M 496.3636363636364 -490.79434344444724 L 490.1136363636364 -500.79434344444724 L 502.6136363636364 -500.79434344444724 Z"/>
    </clipPath>
    <clipPath id="clip12">
      <path d="M 518.1818181818182 -515.0 L 511.9318181818182 -525.0 L 524.4318181818182 -525.0 Z"/>
    </clipPath>
    <clipPath id="clip13">
      <path d="M 294 -294 L 294 -526 L 786 -526 L 786 -294 Z"/>
    </clipPath>
    <clipPath id="clip14">
      <path d="M 280 -280 L 280 -540 L 800 -540 L 800 -280 Z"/>
    </clipPath>
    <clipPath id="clip15">
      <path d="M 314.67532467532465 -313.35602290629924 L 321.8181818181818 -320.49888004915636 L 328.961038961039 -313.35602290629924 L 321.8181818181818 -306.2131657634421 Z"/>
    </clipPath>
    <clipPath id="clip16">
      <path d="M 336.4935064935065 -328.7058941208832 L 343.6363636363636 -335.8487512637404 L 350.7792207792208 -328.7058941208832 L 343.6363636363636 -321.5630369780261 Z"/>
    </clipPath>
    <clipPath id="clip17">
      <path d="M 358.31168831168833 -346.0712695991398 L 365.45454545454544 -353.2141267419969 L 372.5974025974026 -346.0712695991398 L 365.45454545454544 -338.9284124562826 Z"/>
    </clipPath>
    <clipPath id="clip18">
      <path d="M 380.12987012987014 -362.8837930430868 L 387.27272727272725 -370.026650185944 L 394.4155844155844 -362.8837930430868 L 387.27272727272725 -355.7409359002297 Z"/>
    </clipPath>
    <clipPath id="clip19">
      <path d="M 401.94805194805195 -379.9734927104954 L 409.0909090909091 -387.1163498533525 L 416.23376623376623 -379.9734927104954 L 409.0909090909091 -372.83063556763824 Z"/>
    </clipPath>
    <clipPath id="clip20">
      <path d="M 423.76623376623377 -399.69891720223063 L 430.9090909090909 -406.84177434508774 L 438.05194805194805 -399.69891720223063 L 430.9090909090909 -392.55606005937346 Z"/>
    </clipPath>
    <clipPath id="clip21">
      <path d="M 445.5844155844156 -417.3637750381355 L 452.72727272727275 -424.5066321809926 L 459.87012987012986 -417.3637750381355 L 452.72727272727275 -410.2209178952784 Z"/>
    </clipPath>
    <clipPath id="clip22">
      <path d="M 467.4025974025974 -435.82185100902745 L 474.5454545454545 -442.96470815188457 L 481.68831168831167 -435.82185100902745 L 474.5454545454545 -428.67899386617034 Z"/>
    </clipPath>
    <clipPath id="clip23">
      <path d="M 489.22077922077926 -454.25341969041483 L 496.3636363636364 -461.396276833272 L 503.5064935064935 -454.25341969041483 L 496.3636363636364 -447.1105625475577 Z"/>
    </clipPath>
    <clipPath id="clip24">
      <path d="M 511.038961038961 -472.6664832829028 L 518.1818181818182 -479.80934042575996 L 525.3246753246754 -472.6664832829028 L 518.1818181818182 -465.5236261400456 Z"/>
    </clipPath>
    <clipPath id="clip25">
      <path d="M 294 -294 L 294 -526 L 786 -526 L 786 -294 Z"/>
    </clipPath>
    <clipPath id="clip26">
      <path d="M 280 -280 L 280 -540 L 800 -540 L 800 -280 Z"/>
    </clipPath>
    <clipPath id="clip27">
      <path d="M 321.8181818181818 -295.2079781940034 L 315.5681818181818 -305.2079781940034 L 328.0681818181818 -305.2079781940034 Z"/>
    </clipPath>
    <clipPath id="clip28">
      <path d="M 343.6363636363636 -295.3457170721949 L 337.3863636363636 -305.3457170721949 L 349.8863636363636 -305.3457170721949 Z"/>
    </clipPath>
    <clipPath id="clip29">
      <path d="M 365.45454545454544 -295.5782990322339 L 359.20454545454544 -305.5782990322339 L 371.70454545454544 -305.5782990322339 Z"/>
    </clipPath>
    <clipPath id="clip30">
      <path d="M 387.27272727272725 -295.6368951461652 L 381.02272727272725 -305.6368951461652 L 393.52272727272725 -305.6368951461652 Z"/>
    </clipPath>
    <clipPath id="clip31">
      <path d="M 409.0909090909091 -295.76336992672987 L 402.8409090909091 -305.76336992672987 L 415.3409090909091 -305.76336992672987 Z"/>
    </clipPath>
    <clipPath id="clip32">
      <path d="M 430.9090909090909 -295.9598589612143 L 424.6590909090909 -305.9598589612143 L 437.1590909090909 -305.9598589612143 Z"/>
    </clipPath>
    <clipPath id="clip33">
      <path d="M 452.72727272727275 -296.315516767111 L 446.47727272727275 -306.315516767111 L 458.97727272727275 -306.315516767111 Z"/>
    </clipPath>
    <clipPath id="clip34">
      <path d="M 474.5454545454545 -296.45873615244193 L 468.2954545454545 -306.45873615244193 L 480.7954545454545 -306.45873615244193 Z"/>
    </clipPath>
    <clipPath id="clip35">
      <path d="M 496.3636363636364 -296.48188751906775 L 490.1136363636364 -306.48188751906775 L 502.6136363636364 -306.48188751906775 Z"/>
    </clipPath>
    <clipPath id="clip36">
      <path d="M 518.1818181818182 -296.6671234589512 L 511.9318181818182 -306.6671234589512 L 524.4318181818182 -306.6671234589512 Z"/>
    </clipPath>
    <clipPath id="clip37">
      <path d="M 294 -294 L 294 -526 L 786 -526 L 786 -294 Z"/>
    </clipPath>
    <clipPath id="clip38">
      <path d="M 280 -280 L 280 -540 L 800 -540 L 800 -280 Z"/>
    </clipPath>
    <clipPath id="clip39">
      <path d="M 314.67532467532465 -300.08423016329493 L 321.8181818181818 -307.22708730615204 L 328.961038961039 -300.08423016329493 L 321.8181818181818 -292.94137302043777 Z"/>
    </clipPath>
    <clipPath id="clip40">
      <path d="M 336.4935064935065 -300.0888249268549 L 343.6363636363636 -307.231682069712 L 350.7792207792208 -300.0888249268549 L 343.6363636363636 -292.94596778399773 Z"/>
    </clipPath>
    <clipPath id="clip41">
      <path d="M 358.31168831168833 -300.09821951036537 L 365.45454545454544 -307.2410766532225 L 372.5974025974026 -300.09821951036537 L 365.45454545454544 -292.9553623675082 Z"/>
    </clipPath>
    <clipPath id="clip42">
      <path d="M 380.12987012987014 -300.08918002450673 L 387.27272727272725 -307.2320371673639 L 394.4155844155844 -300.08918002450673 L 387.27272727272725 -292.9463228816496 Z"/>
    </clipPath>
    <clipPath id="clip43">
      <path d="M 401.94805194805195 -300.1196469028983 L 409.0909090909091 -307.26250404575546 L 416.23376623376623 -300.1196469028983 L 409.0909090909091 -292.97678976004113 Z"/>
    </clipPath>
    <clipPath id="clip44">
      <path d="M 423.76623376623377 -300.09892670484385 L 430.9090909090909 -307.24178384770096 L 438.05194805194805 -300.09892670484385 L 430.9090909090909 -292.9560695619867 Z"/>
    </clipPath>
    <clipPath id="clip45">
      <path d="M 445.5844155844156 -300.11830803470957 L 452.72727272727275 -307.2611651775667 L 459.87012987012986 -300.11830803470957 L 452.72727272727275 -292.9754508918524 Z"/>
    </clipPath>
    <clipPath id="clip46">
      <path d="M 467.4025974025974 -300.08669734176897 L 474.5454545454545 -307.22955448462614 L 481.68831168831167 -300.08669734176897 L 474.5454545454545 -292.94384019891186 Z"/>
    </clipPath>
    <clipPath id="clip47">
      <path d="M 489.22077922077926 -300.10155592788016 L 496.3636363636364 -307.2444130707373 L 503.5064935064935 -300.10155592788016 L 496.3636363636364 -292.95869878502305 Z"/>
    </clipPath>
    <clipPath id="clip48">
      <path d="M 511.038961038961 -300.12103328415316 L 518.1818181818182 -307.26389042701027 L 525.3246753246754 -300.12103328415316 L 518.1818181818182 -292.978176141296 Z"/>
    </clipPath>
    <clipPath id="clip49">
      <path d="M 294 -294 L 294 -526 L 786 -526 L 786 -294 Z"/>
    </clipPath>
    <clipPath id="clip50">
      <path d="M 280 -280 L 280 -540 L 800 -540 L 800 -280 Z"/>
    </clipPath>
    <clipPath id="clip51">
      <path d="M 294 -294 L 294 -526 L 786 -526 L 786 -294 Z"/>
    </clipPath>
    <clipPath id="clip52">
      <path d="M 280 -280 L 280 -540 L 800 -540 L 800 -280 Z"/>
    </clipPath>
    <clipPath id="clip53">
      <path d="M 315.5681818181818 -295.04626822376156 L 328.0681818181818 -295.04626822376156 L 321.8181818181818 -305.04626822376156 Z"/>
    </clipPath>
    <clipPath id="clip54">
      <path d="M 337.3863636363636 -295.04270184300685 L 349.8863636363636 -295.04270184300685 L 343.6363636363636 -305.04270184300685 Z"/>
    </clipPath>
    <clipPath id="clip55">
      <path d="M 359.20454545454544 -295.04346135187177 L 371.70454545454544 -295.04346135187177 L 365.45454545454544 -305.04346135187177 Z"/>
    </clipPath>
    <clipPath id="clip56">
      <path d="M 381.02272727272725 -295.04446227712623 L 393.52272727272725 -295.04446227712623 L 387.27272727272725 -305.04446227712623 Z"/>
    </clipPath>
    <clipPath id="clip57">
      <path d="M 402.8409090909091 -295.0436216959664 L 415.3409090909091 -295.0436216959664 L 409.0909090909091 -305.0436216959664 Z"/>
    </clipPath>
    <clipPath id="clip58">
      <path d="M 424.6590909090909 -295.0465098902198 L 437.1590909090909 -295.0465098902198 L 430.9090909090909 -305.0465098902198 Z"/>
    </clipPath>
    <clipPath id="clip59">
      <path d="M 446.47727272727275 -295.0449975243192 L 458.97727272727275 -295.0449975243192 L 452.72727272727275 -305.0449975243192 Z"/>
    </clipPath>
    <clipPath id="clip60">
      <path d="M 468.2954545454545 -295.04351771737225 L 480.7954545454545 -295.04351771737225 L 474.5454545454545 -305.04351771737225 Z"/>
    </clipPath>
    <clipPath id="clip61">
      <path d="M 490.1136363636364 -295.04399979994497 L 502.6136363636364 -295.04399979994497 L 496.3636363636364 -305.04399979994497 Z"/>
    </clipPath>
    <clipPath id="clip62">
      <path d="M 511.9318181818182 -295.04344869839207 L 524.4318181818182 -295.04344869839207 L 518.1818181818182 -305.04344869839207 Z"/>
    </clipPath>
    <clipPath id="clip63">
      <path d="M 294 -294 L 294 -526 L 786 -526 L 786 -294 Z"/>
    </clipPath>
    <clipPath id="clip64">
      <path d="M 280 -280 L 280 -540 L 800 -540 L 800 -280 Z"/>
    </clipPath>
    <clipPath id="clip65">
      <path d="M 321.8181818181818 -295.0294106379254 L 315.5681818181818 -305.0294106379254 L 328.0681818181818 -305.0294106379254 Z"/>
    </clipPath>
    <clipPath id="clip66">
      <path d="M 343.6363636363636 -295.0278749656155 L 337.3863636363636 -305.0278749656155 L 349.8863636363636 -305.0278749656155 Z"/>
    </clipPath>
    <clipPath id="clip67">
      <path d="M 365.45454545454544 -295.029226687339 L 359.20454545454544 -305.029226687339 L 371.70454545454544 -305.029226687339 Z"/>
    </clipPath>
    <clipPath id="clip68">
      <path d="M 387.27272727272725 -295.0295659806447 L 381.02272727272725 -305.0295659806447 L 393.52272727272725 -305.0295659806447 Z"/>
    </clipPath>
    <clipPath id="clip69">
      <path d="M 409.0909090909091 -295.0301400885243 L 402.8409090909091 -305.0301400885243 L 415.3409090909091 -305.0301400885243 Z"/>
    </clipPath>
    <clipPath id="clip70">
      <path d="M 430.9090909090909 -295.02974152892045 L 424.6590909090909 -305.02974152892045 L 437.1590909090909 -305.02974152892045 Z"/>
    </clipPath>
    <clipPath id="clip71">
      <path d="M 452.72727272727275 -295.03020005501514 L 446.47727272727275 -305.03020005501514 L 458.97727272727275 -305.03020005501514 Z"/>
    </clipPath>
    <clipPath id="clip72">
      <path d="M 474.5454545454545 -295.02901457900924 L 468.2954545454545 -305.02901457900924 L 480.7954545454545 -305.02901457900924 Z"/>
    </clipPath>
    <clipPath id="clip73">
      <path d="M 496.3636363636364 -295.0321296356498 L 490.1136363636364 -305.0321296356498 L 502.6136363636364 -305.0321296356498 Z"/>
    </clipPath>
    <clipPath id="clip74">
      <path d="M 518.1818181818182 -295.02952271874767 L 511.9318181818182 -305.02952271874767 L 524.4318181818182 -305.02952271874767 Z"/>
    </clipPath>
    <clipPath id="clip75">
      <path d="M 290 6 L 290 -136 L 456.72 -136 L 456.72 6 Z"/>
    </clipPath>
    <clipPath id="clip76">
      <path d="M 308.0 -120.33333333333334 L 301.75 -130.33333333333334 L 314.25 -130.33333333333334 Z"/>
    </clipPath>
    <clipPath id="clip77">
      <path d="M 300.85714285714283 -105.33333333333334 L 308.0 -112.47619047619048 L 315.14285714285717 -105.33333333333334 L 308.0 -98.1904761904762 Z"/>
    </clipPath>
    <clipPath id="clip78">
      <path d="M 308.0 -80.33333333333334 L 301.75 -90.33333333333334 L 314.25 -90.33333333333334 Z"/>
    </clipPath>
    <clipPath id="clip79">
      <path d="M 300.85714285714283 -65.33333333333334 L 308.0 -72.47619047619048 L 315.14285714285717 -65.33333333333334 L 308.0 -58.190476190476204 Z"/>
    </clipPath>
    <clipPath id="clip80">
      <path d="M 301.75 -20.333333333333314 L 314.25 -20.333333333333314 L 308.0 -30.333333333333314 Z"/>
    </clipPath>
    <clipPath id="clip81">
      <path d="M 308.0 -0.3333333333333144 L 301.75 -10.333333333333314 L 314.25 -10.333333333333314 Z"/>
    </clipPath>
  </defs>
  <g style="stroke-linejoin:miter;font-size:8;font-family:Helvetica;fill:none;stroke-linecap:butt;stroke:rgb(0,0,0);font-stretch:normal;stroke-dasharray:none;font-weight:normal;font-style:normal;stroke-width:0.5;">
    <path d="M 300 -300 L 780 -300"/>
    <path d="M 300 -300 L 780 -300"/>
    <path d="M 300.0 -300 L 300.0 -288"/>
    <text style="font-size:12;font-style:italic;stroke:none;fill:rgb(0,0,0);" transform="rotate(90,300,-288)" x="300.0" y="-288.0">
      0
    </text>
    <path d="M 343.6363636363636 -300 L 343.6363636363636 -288"/>
    <text style="font-size:12;font-style:italic;stroke:none;fill:rgb(0,0,0);" transform="rotate(90,343.636,-288)" x="343.6363636363636" y="-288.0">
      200
    </text>
    <path d="M 387.27272727272725 -300 L 387.27272727272725 -288"/>
    <text style="font-size:12;font-style:italic;stroke:none;fill:rgb(0,0,0);" transform="rotate(90,387.273,-288)" x="387.27272727272725" y="-288.0">
      400
    </text>
    <path d="M 430.9090909090909 -300 L 430.9090909090909 -288"/>
    <text style="font-size:12;font-style:italic;stroke:none;fill:rgb(0,0,0);" transform="rotate(90,430.909,-288)" x="430.9090909090909" y="-288.0">
      600
    </text>
    <path d="M 474.5454545454545 -300 L 474.5454545454545 -288"/>
    <text style="font-size:12;font-style:italic;stroke:none;fill:rgb(0,0,0);" transform="rotate(90,474.545,-288)" x="474.5454545454545" y="-288.0">
      800
    </text>
    <path d="M 518.1818181818182 -300 L 518.1818181818182 -288"/>
    <text style="font-size:12;font-style:italic;stroke:none;fill:rgb(0,0,0);" transform="rotate(90,518.182,-288)" x="518.1818181818182" y="-288.0">
      1000
    </text>
    <path d="M 561.8181818181818 -300 L 561.8181818181818 -288"/>
    <text style="font-size:12;font-style:italic;stroke:none;fill:rgb(0,0,0);" transform="rotate(90,561.818,-288)" x="561.8181818181818" y="-288.0">
      1200
    </text>
    <path d="M 605.4545454545455 -300 L 605.4545454545455 -288"/>
    <text style="font-size:12;font-style:italic;stroke:none;fill:rgb(0,0,0);" transform="rotate(90,605.455,-288)" x="605.4545454545455" y="-288.0">
      1400
    </text>
    <path d="M 649.090909090909 -300 L 649.090909090909 -288"/>
    <text style="font-size:12;font-style:italic;stroke:none;fill:rgb(0,0,0);" transform="rotate(90,649.091,-288)" x="649.090909090909" y="-288.0">
      1600
    </text>
    <path d="M 692.7272727272727 -300 L 692.7272727272727 -288"/>
    <text style="font-size:12;font-style:italic;stroke:none;fill:rgb(0,0,0);" transform="rotate(90,692.727,-288)" x="692.7272727272727" y="-288.0">
      1800
    </text>
    <path d="M 736.3636363636364 -300 L 736.3636363636364 -288"/>
    <text style="font-size:12;font-style:italic;stroke:none;fill:rgb(0,0,0);" transform="rotate(90,736.364,-288)" x="736.3636363636364" y="-288.0">
      2000
    </text>
    <path d="M 780.0 -300 L 780.0 -288"/>
    <text style="font-size:12;font-style:italic;stroke:none;fill:rgb(0,0,0);" transform="rotate(90,780,-288)" x="780.0" y="-288.0">
      2200
    </text>
    <text style="font-size:16;stroke:none;fill:rgb(0,0,0);" x="524.44" y="-220.0">
      Size
    </text>
    <path d="M 300 -300 L 300 -520"/>
    <path d="M 300 -300.0 L 288 -300.0"/>
    <text style="font-size:12;font-style:italic;stroke:none;fill:rgb(0,0,0);" x="238.0" y="-294.0">
      0.00e+00
    </text>
    <path d="M 300 -344.0 L 288 -344.0"/>
    <text style="font-size:12;font-style:italic;stroke:none;fill:rgb(0,0,0);" x="238.0" y="-338.0">
      8.80e-05
    </text>
    <path d="M 300 -388.0 L 288 -388.0"/>
    <text style="font-size:12;font-style:italic;stroke:none;fill:rgb(0,0,0);" x="238.0" y="-382.0">
      1.76e-04
    </text>
    <path d="M 300 -432.0 L 288 -432.0"/>
    <text style="font-size:12;font-style:italic;stroke:none;fill:rgb(0,0,0);" x="238.0" y="-426.0">
      2.64e-04
    </text>
    <path d="M 300 -476.0 L 288 -476.0"/>
    <text style="font-size:12;font-style:italic;stroke:none;fill:rgb(0,0,0);" x="238.0" y="-470.0">
      3.52e-04
    </text>
    <path d="M 300 -520.0 L 288 -520.0"/>
    <text style="font-size:12;font-style:italic;stroke:none;fill:rgb(0,0,0);" x="238.0" y="-514.0">
      4.40e-04
    </text>
    <text style="font-size:16;stroke:none;fill:rgb(0,0,0);" transform="rotate(-90,200,-340.648)" x="200.0" y="-340.648">
      Average time (sec.)
    </text>
    <g style="clip-path:url(#clip0);">
      <g style="clip-path:url(#clip1);">
        <path d="M 321.8181818181818 -316.0586161194328 L 343.6363636363636 -335.8848683387932 L 365.45454545454544 -357.1757233239141 L 387.27272727272725 -379.12725999649905 L 409.0909090909091 -401.6339493360674 L 430.9090909090909 -424.9728675385731 L 452.72727272727275 -448.0742204106129 L 474.5454545454545 -471.44414714046366 L 496.3636363636364 -495.79434344444724 L 518.1818181818182 -520.0" style="stroke:rgb(126,126,126);stroke-width:0.4;stroke-dasharray:1.5,1.5;"/>
      </g>
      <g style="clip-path:url(#clip2);">
        <g style="fill:rgb(0,0,0);clip-path:url(#clip3);">
          <path d="M 315.5681818181818 -311.0586161194328 L 315.5681818181818 -321.0586161194328 L 328.0681818181818 -321.0586161194328 L 328.0681818181818 -311.0586161194328 Z" style="stroke:none;"/>
        </g>
        <g>
          <path d="M 321.8181818181818 -311.0586161194328 L 315.5681818181818 -321.0586161194328 L 328.0681818181818 -321.0586161194328 Z"/>
          <g style="fill:rgb(0,0,0);clip-path:url(#clip4);">
            <path d="M 337.3863636363636 -330.8848683387932 L 337.3863636363636 -340.8848683387932 L 349.8863636363636 -340.8848683387932 L 349.8863636363636 -330.8848683387932 Z" style="stroke:none;"/>
          </g>
          <g>
            <path d="M 343.6363636363636 -330.8848683387932 L 337.3863636363636 -340.8848683387932 L 349.8863636363636 -340.8848683387932 Z"/>
            <g style="fill:rgb(0,0,0);clip-path:url(#clip5);">
              <path d="M 359.20454545454544 -352.1757233239141 L 359.20454545454544 -362.1757233239141 L 371.70454545454544 -362.1757233239141 L 371.70454545454544 -352.1757233239141 Z" style="stroke:none;"/>
            </g>
            <g>
              <path d="M 365.45454545454544 -352.1757233239141 L 359.20454545454544 -362.1757233239141 L 371.70454545454544 -362.1757233239141 Z"/>
              <g style="fill:rgb(0,0,0);clip-path:url(#clip6);">
                <path d="M 381.02272727272725 -374.12725999649905 L 381.02272727272725 -384.12725999649905 L 393.52272727272725 -384.12725999649905 L 393.52272727272725 -374.12725999649905 Z" style="stroke:none;"/>
              </g>
              <g>
                <path d="M 387.27272727272725 -374.12725999649905 L 381.02272727272725 -384.12725999649905 L 393.52272727272725 -384.12725999649905 Z"/>
                <g style="fill:rgb(0,0,0);clip-path:url(#clip7);">
                  <path d="M 402.8409090909091 -396.6339493360674 L 402.8409090909091 -406.6339493360674 L 415.3409090909091 -406.6339493360674 L 415.3409090909091 -396.6339493360674 Z" style="stroke:none;"/>
                </g>
                <g>
                  <path d="M 409.0909090909091 -396.6339493360674 L 402.8409090909091 -406.6339493360674 L 415.3409090909091 -406.6339493360674 Z"/>
                  <g style="fill:rgb(0,0,0);clip-path:url(#clip8);">
                    <path d="M 424.6590909090909 -419.9728675385731 L 424.6590909090909 -429.9728675385731 L 437.1590909090909 -429.9728675385731 L 437.1590909090909 -419.9728675385731 Z" style="stroke:none;"/>
                  </g>
                  <g>
                    <path d="M 430.9090909090909 -419.9728675385731 L 424.6590909090909 -429.9728675385731 L 437.1590909090909 -429.9728675385731 Z"/>
                    <g style="fill:rgb(0,0,0);clip-path:url(#clip9);">
                      <path d="M 446.47727272727275 -443.0742204106129 L 446.47727272727275 -453.0742204106129 L 458.97727272727275 -453.0742204106129 L 458.97727272727275 -443.0742204106129 Z" style="stroke:none;"/>
                    </g>
                    <g>
                      <path d="M 452.72727272727275 -443.0742204106129 L 446.47727272727275 -453.0742204106129 L 458.97727272727275 -453.0742204106129 Z"/>
                      <g style="fill:rgb(0,0,0);clip-path:url(#clip10);">
                        <path d="M 468.2954545454545 -466.44414714046366 L 468.2954545454545 -476.44414714046366 L 480.7954545454545 -476.44414714046366 L 480.7954545454545 -466.44414714046366 Z" style="stroke:none;"/>
                      </g>
                      <g>
                        <path d="M 474.5454545454545 -466.44414714046366 L 468.2954545454545 -476.44414714046366 L 480.7954545454545 -476.44414714046366 Z"/>
                        <g style="fill:rgb(0,0,0);clip-path:url(#clip11);">
                          <path d="M 490.1136363636364 -490.79434344444724 L 490.1136363636364 -500.79434344444724 L 502.6136363636364 -500.79434344444724 L 502.6136363636364 -490.79434344444724 Z" style="stroke:none;"/>
                        </g>
                        <g>
                          <path d="M 496.3636363636364 -490.79434344444724 L 490.1136363636364 -500.79434344444724 L 502.6136363636364 -500.79434344444724 Z"/>
                          <g style="fill:rgb(0,0,0);clip-path:url(#clip12);">
                            <path d="M 511.9318181818182 -515.0 L 511.9318181818182 -525.0 L 524.4318181818182 -525.0 L 524.4318181818182 -515.0 Z" style="stroke:none;"/>
                          </g>
                          <g>
                            <path d="M 518.1818181818182 -515.0 L 511.9318181818182 -525.0 L 524.4318181818182 -525.0 Z"/>
                          </g>
                        </g>
                      </g>
                    </g>
                  </g>
                </g>
              </g>
            </g>
          </g>
        </g>
      </g>
      <g style="clip-path:url(#clip13);">
        <path d="M 321.8181818181818 -313.35602290629924 L 343.6363636363636 -328.7058941208832 L 365.45454545454544 -346.0712695991398 L 387.27272727272725 -362.8837930430868 L 409.0909090909091 -379.9734927104954 L 430.9090909090909 -399.69891720223063 L 452.72727272727275 -417.3637750381355 L 474.5454545454545 -435.82185100902745 L 496.3636363636364 -454.25341969041483 L 518.1818181818182 -472.6664832829028" style="stroke:rgb(126,126,126);stroke-width:0.4;stroke-dasharray:5,2,5,2;"/>
      </g>
      <g style="clip-path:url(#clip14);">
        <g style="fill:rgb(0,0,0);clip-path:url(#clip15);">
          <path d="M 314.67532467532465 -306.2131657634421 L 314.67532467532465 -320.49888004915636 L 328.961038961039 -320.49888004915636 L 328.961038961039 -306.2131657634421 Z" style="stroke:none;"/>
        </g>
        <g>
          <path d="M 314.67532467532465 -313.35602290629924 L 321.8181818181818 -320.49888004915636 L 328.961038961039 -313.35602290629924 L 321.8181818181818 -306.2131657634421 Z"/>
          <g style="fill:rgb(0,0,0);clip-path:url(#clip16);">
            <path d="M 336.4935064935065 -321.5630369780261 L 336.4935064935065 -335.8487512637404 L 350.7792207792208 -335.8487512637404 L 350.7792207792208 -321.5630369780261 Z" style="stroke:none;"/>
          </g>
          <g>
            <path d="M 336.4935064935065 -328.7058941208832 L 343.6363636363636 -335.8487512637404 L 350.7792207792208 -328.7058941208832 L 343.6363636363636 -321.5630369780261 Z"/>
            <g style="fill:rgb(0,0,0);clip-path:url(#clip17);">
              <path d="M 358.31168831168833 -338.9284124562826 L 358.31168831168833 -353.2141267419969 L 372.5974025974026 -353.2141267419969 L 372.5974025974026 -338.9284124562826 Z" style="stroke:none;"/>
            </g>
            <g>
              <path d="M 358.31168831168833 -346.0712695991398 L 365.45454545454544 -353.2141267419969 L 372.5974025974026 -346.0712695991398 L 365.45454545454544 -338.9284124562826 Z"/>
              <g style="fill:rgb(0,0,0);clip-path:url(#clip18);">
                <path d="M 380.12987012987014 -355.7409359002297 L 380.12987012987014 -370.026650185944 L 394.4155844155844 -370.026650185944 L 394.4155844155844 -355.7409359002297 Z" style="stroke:none;"/>
              </g>
              <g>
                <path d="M 380.12987012987014 -362.8837930430868 L 387.27272727272725 -370.026650185944 L 394.4155844155844 -362.8837930430868 L 387.27272727272725 -355.7409359002297 Z"/>
                <g style="fill:rgb(0,0,0);clip-path:url(#clip19);">
                  <path d="M 401.94805194805195 -372.83063556763824 L 401.94805194805195 -387.1163498533525 L 416.23376623376623 -387.1163498533525 L 416.23376623376623 -372.83063556763824 Z" style="stroke:none;"/>
                </g>
                <g>
                  <path d="M 401.94805194805195 -379.9734927104954 L 409.0909090909091 -387.1163498533525 L 416.23376623376623 -379.9734927104954 L 409.0909090909091 -372.83063556763824 Z"/>
                  <g style="fill:rgb(0,0,0);clip-path:url(#clip20);">
                    <path d="M 423.76623376623377 -392.55606005937346 L 423.76623376623377 -406.84177434508774 L 438.05194805194805 -406.84177434508774 L 438.05194805194805 -392.55606005937346 Z" style="stroke:none;"/>
                  </g>
                  <g>
                    <path d="M 423.76623376623377 -399.69891720223063 L 430.9090909090909 -406.84177434508774 L 438.05194805194805 -399.69891720223063 L 430.9090909090909 -392.55606005937346 Z"/>
                    <g style="fill:rgb(0,0,0);clip-path:url(#clip21);">
                      <path d="M 445.5844155844156 -410.2209178952784 L 445.5844155844156 -424.5066321809926 L 459.87012987012986 -424.5066321809926 L 459.87012987012986 -410.2209178952784 Z" style="stroke:none;"/>
                    </g>
                    <g>
                      <path d="M 445.5844155844156 -417.3637750381355 L 452.72727272727275 -424.5066321809926 L 459.87012987012986 -417.3637750381355 L 452.72727272727275 -410.2209178952784 Z"/>
                      <g style="fill:rgb(0,0,0);clip-path:url(#clip22);">
                        <path d="M 467.4025974025974 -428.67899386617034 L 467.4025974025974 -442.96470815188457 L 481.68831168831167 -442.96470815188457 L 481.68831168831167 -428.67899386617034 Z" style="stroke:none;"/>
                      </g>
                      <g>
                        <path d="M 467.4025974025974 -435.82185100902745 L 474.5454545454545 -442.96470815188457 L 481.68831168831167 -435.82185100902745 L 474.5454545454545 -428.67899386617034 Z"/>
                        <g style="fill:rgb(0,0,0);clip-path:url(#clip23);">
                          <path d="M 489.22077922077926 -447.1105625475577 L 489.22077922077926 -461.396276833272 L 503.5064935064935 -461.396276833272 L 503.5064935064935 -447.1105625475577 Z" style="stroke:none;"/>
                        </g>
                        <g>
                          <path d="M 489.22077922077926 -454.25341969041483 L 496.3636363636364 -461.396276833272 L 503.5064935064935 -454.25341969041483 L 496.3636363636364 -447.1105625475577 Z"/>
                          <g style="fill:rgb(0,0,0);clip-path:url(#clip24);">
                            <path d="M 511.038961038961 -465.5236261400456 L 511.038961038961 -479.80934042575996 L 525.3246753246754 -479.80934042575996 L 525.3246753246754 -465.5236261400456 Z" style="stroke:none;"/>
                          </g>
                          <g>
                            <path d="M 511.038961038961 -472.6664832829028 L 518.1818181818182 -479.80934042575996 L 525.3246753246754 -472.6664832829028 L 518.1818181818182 -465.5236261400456 Z"/>
                          </g>
                        </g>
                      </g>
                    </g>
                  </g>
                </g>
              </g>
            </g>
          </g>
        </g>
      </g>
      <g style="clip-path:url(#clip25);">
        <path d="M 321.8181818181818 -300.2079781940034 L 343.6363636363636 -300.3457170721949 L 365.45454545454544 -300.5782990322339 L 387.27272727272725 -300.6368951461652 L 409.0909090909091 -300.76336992672987 L 430.9090909090909 -300.9598589612143 L 452.72727272727275 -301.315516767111 L 474.5454545454545 -301.45873615244193 L 496.3636363636364 -301.48188751906775 L 518.1818181818182 -301.6671234589512" style="stroke:rgb(205,0,0);stroke-width:2;"/>
      </g>
      <g style="clip-path:url(#clip26);">
        <g style="fill:rgb(255,255,255);clip-path:url(#clip27);">
          <path d="M 315.5681818181818 -295.2079781940034 L 315.5681818181818 -305.2079781940034 L 328.0681818181818 -305.2079781940034 L 328.0681818181818 -295.2079781940034 Z" style="stroke:none;"/>
        </g>
        <g>
          <path d="M 321.8181818181818 -295.2079781940034 L 315.5681818181818 -305.2079781940034 L 328.0681818181818 -305.2079781940034 Z"/>
          <g style="fill:rgb(255,255,255);clip-path:url(#clip28);">
            <path d="M 337.3863636363636 -295.3457170721949 L 337.3863636363636 -305.3457170721949 L 349.8863636363636 -305.3457170721949 L 349.8863636363636 -295.3457170721949 Z" style="stroke:none;"/>
          </g>
          <g>
            <path d="M 343.6363636363636 -295.3457170721949 L 337.3863636363636 -305.3457170721949 L 349.8863636363636 -305.3457170721949 Z"/>
            <g style="fill:rgb(255,255,255);clip-path:url(#clip29);">
              <path d="M 359.20454545454544 -295.5782990322339 L 359.20454545454544 -305.5782990322339 L 371.70454545454544 -305.5782990322339 L 371.70454545454544 -295.5782990322339 Z" style="stroke:none;"/>
            </g>
            <g>
              <path d="M 365.45454545454544 -295.5782990322339 L 359.20454545454544 -305.5782990322339 L 371.70454545454544 -305.5782990322339 Z"/>
              <g style="fill:rgb(255,255,255);clip-path:url(#clip30);">
                <path d="M 381.02272727272725 -295.6368951461652 L 381.02272727272725 -305.6368951461652 L 393.52272727272725 -305.6368951461652 L 393.52272727272725 -295.6368951461652 Z" style="stroke:none;"/>
              </g>
              <g>
                <path d="M 387.27272727272725 -295.6368951461652 L 381.02272727272725 -305.6368951461652 L 393.52272727272725 -305.6368951461652 Z"/>
                <g style="fill:rgb(255,255,255);clip-path:url(#clip31);">
                  <path d="M 402.8409090909091 -295.76336992672987 L 402.8409090909091 -305.76336992672987 L 415.3409090909091 -305.76336992672987 L 415.3409090909091 -295.76336992672987 Z" style="stroke:none;"/>
                </g>
                <g>
                  <path d="M 409.0909090909091 -295.76336992672987 L 402.8409090909091 -305.76336992672987 L 415.3409090909091 -305.76336992672987 Z"/>
                  <g style="fill:rgb(255,255,255);clip-path:url(#clip32);">
                    <path d="M 424.6590909090909 -295.9598589612143 L 424.6590909090909 -305.9598589612143 L 437.1590909090909 -305.9598589612143 L 437.1590909090909 -295.9598589612143 Z" style="stroke:none;"/>
                  </g>
                  <g>
                    <path d="M 430.9090909090909 -295.9598589612143 L 424.6590909090909 -305.9598589612143 L 437.1590909090909 -305.9598589612143 Z"/>
                    <g style="fill:rgb(255,255,255);clip-path:url(#clip33);">
                      <path d="M 446.47727272727275 -296.315516767111 L 446.47727272727275 -306.315516767111 L 458.97727272727275 -306.315516767111 L 458.97727272727275 -296.315516767111 Z" style="stroke:none;"/>
                    </g>
                    <g>
                      <path d="M 452.72727272727275 -296.315516767111 L 446.47727272727275 -306.315516767111 L 458.97727272727275 -306.315516767111 Z"/>
                      <g style="fill:rgb(255,255,255);clip-path:url(#clip34);">
                        <path d="M 468.2954545454545 -296.45873615244193 L 468.2954545454545 -306.45873615244193 L 480.7954545454545 -306.45873615244193 L 480.7954545454545 -296.45873615244193 Z" style="stroke:none;"/>
                      </g>
                      <g>
                        <path d="M 474.5454545454545 -296.45873615244193 L 468.2954545454545 -306.45873615244193 L 480.7954545454545 -306.45873615244193 Z"/>
                        <g style="fill:rgb(255,255,255);clip-path:url(#clip35);">
                          <path d="M 490.1136363636364 -296.48188751906775 L 490.1136363636364 -306.48188751906775 L 502.6136363636364 -306.48188751906775 L 502.6136363636364 -296.48188751906775 Z" style="stroke:none;"/>
                        </g>
                        <g>
                          <path d="M 496.3636363636364 -296.48188751906775 L 490.1136363636364 -306.48188751906775 L 502.6136363636364 -306.48188751906775 Z"/>
                          <g style="fill:rgb(255,255,255);clip-path:url(#clip36);">
                            <path d="M 511.9318181818182 -296.6671234589512 L 511.9318181818182 -306.6671234589512 L 524.4318181818182 -306.6671234589512 L 524.4318181818182 -296.6671234589512 Z" style="stroke:none;"/>
                          </g>
                          <g>
                            <path d="M 518.1818181818182 -296.6671234589512 L 511.9318181818182 -306.6671234589512 L 524.4318181818182 -306.6671234589512 Z"/>
                          </g>
                        </g>
                      </g>
                    </g>
                  </g>
                </g>
              </g>
            </g>
          </g>
        </g>
      </g>
      <g style="clip-path:url(#clip37);">
        <path d="M 321.8181818181818 -300.08423016329493 L 343.6363636363636 -300.0888249268549 L 365.45454545454544 -300.09821951036537 L 387.27272727272725 -300.08918002450673 L 409.0909090909091 -300.1196469028983 L 430.9090909090909 -300.09892670484385 L 452.72727272727275 -300.11830803470957 L 474.5454545454545 -300.08669734176897 L 496.3636363636364 -300.10155592788016 L 518.1818181818182 -300.12103328415316" style="stroke:rgb(126,126,126);stroke-width:2;"/>
      </g>
      <g style="clip-path:url(#clip38);">
        <g style="fill:rgb(255,255,255);clip-path:url(#clip39);">
          <path d="M 314.67532467532465 -292.94137302043777 L 314.67532467532465 -307.22708730615204 L 328.961038961039 -307.22708730615204 L 328.961038961039 -292.94137302043777 Z" style="stroke:none;"/>
        </g>
        <g>
          <path d="M 314.67532467532465 -300.08423016329493 L 321.8181818181818 -307.22708730615204 L 328.961038961039 -300.08423016329493 L 321.8181818181818 -292.94137302043777 Z"/>
          <g style="fill:rgb(255,255,255);clip-path:url(#clip40);">
            <path d="M 336.4935064935065 -292.94596778399773 L 336.4935064935065 -307.231682069712 L 350.7792207792208 -307.231682069712 L 350.7792207792208 -292.94596778399773 Z" style="stroke:none;"/>
          </g>
          <g>
            <path d="M 336.4935064935065 -300.0888249268549 L 343.6363636363636 -307.231682069712 L 350.7792207792208 -300.0888249268549 L 343.6363636363636 -292.94596778399773 Z"/>
            <g style="fill:rgb(255,255,255);clip-path:url(#clip41);">
              <path d="M 358.31168831168833 -292.9553623675082 L 358.31168831168833 -307.2410766532225 L 372.5974025974026 -307.2410766532225 L 372.5974025974026 -292.9553623675082 Z" style="stroke:none;"/>
            </g>
            <g>
              <path d="M 358.31168831168833 -300.09821951036537 L 365.45454545454544 -307.2410766532225 L 372.5974025974026 -300.09821951036537 L 365.45454545454544 -292.9553623675082 Z"/>
              <g style="fill:rgb(255,255,255);clip-path:url(#clip42);">
                <path d="M 380.12987012987014 -292.9463228816496 L 380.12987012987014 -307.2320371673639 L 394.4155844155844 -307.2320371673639 L 394.4155844155844 -292.9463228816496 Z" style="stroke:none;"/>
              </g>
              <g>
                <path d="M 380.12987012987014 -300.08918002450673 L 387.27272727272725 -307.2320371673639 L 394.4155844155844 -300.08918002450673 L 387.27272727272725 -292.9463228816496 Z"/>
                <g style="fill:rgb(255,255,255);clip-path:url(#clip43);">
                  <path d="M 401.94805194805195 -292.97678976004113 L 401.94805194805195 -307.26250404575546 L 416.23376623376623 -307.26250404575546 L 416.23376623376623 -292.97678976004113 Z" style="stroke:none;"/>
                </g>
                <g>
                  <path d="M 401.94805194805195 -300.1196469028983 L 409.0909090909091 -307.26250404575546 L 416.23376623376623 -300.1196469028983 L 409.0909090909091 -292.97678976004113 Z"/>
                  <g style="fill:rgb(255,255,255);clip-path:url(#clip44);">
                    <path d="M 423.76623376623377 -292.9560695619867 L 423.76623376623377 -307.24178384770096 L 438.05194805194805 -307.24178384770096 L 438.05194805194805 -292.9560695619867 Z" style="stroke:none;"/>
                  </g>
                  <g>
                    <path d="M 423.76623376623377 -300.09892670484385 L 430.9090909090909 -307.24178384770096 L 438.05194805194805 -300.09892670484385 L 430.9090909090909 -292.9560695619867 Z"/>
                    <g style="fill:rgb(255,255,255);clip-path:url(#clip45);">
                      <path d="M 445.5844155844156 -292.9754508918524 L 445.5844155844156 -307.2611651775667 L 459.87012987012986 -307.2611651775667 L 459.87012987012986 -292.9754508918524 Z" style="stroke:none;"/>
                    </g>
                    <g>
                      <path d="M 445.5844155844156 -300.11830803470957 L 452.72727272727275 -307.2611651775667 L 459.87012987012986 -300.11830803470957 L 452.72727272727275 -292.9754508918524 Z"/>
                      <g style="fill:rgb(255,255,255);clip-path:url(#clip46);">
                        <path d="M 467.4025974025974 -292.94384019891186 L 467.4025974025974 -307.22955448462614 L 481.68831168831167 -307.22955448462614 L 481.68831168831167 -292.94384019891186 Z" style="stroke:none;"/>
                      </g>
                      <g>
                        <path d="M 467.4025974025974 -300.08669734176897 L 474.5454545454545 -307.22955448462614 L 481.68831168831167 -300.08669734176897 L 474.5454545454545 -292.94384019891186 Z"/>
                        <g style="fill:rgb(255,255,255);clip-path:url(#clip47);">
                          <path d="M 489.22077922077926 -292.95869878502305 L 489.22077922077926 -307.2444130707373 L 503.5064935064935 -307.2444130707373 L 503.5064935064935 -292.95869878502305 Z" style="stroke:none;"/>
                        </g>
                        <g>
                          <path d="M 489.22077922077926 -300.10155592788016 L 496.3636363636364 -307.2444130707373 L 503.5064935064935 -300.10155592788016 L 496.3636363636364 -292.95869878502305 Z"/>
                          <g style="fill:rgb(255,255,255);clip-path:url(#clip48);">
                            <path d="M 511.038961038961 -292.978176141296 L 511.038961038961 -307.26389042701027 L 525.3246753246754 -307.26389042701027 L 525.3246753246754 -292.978176141296 Z" style="stroke:none;"/>
                          </g>
                          <g>
                            <path d="M 511.038961038961 -300.12103328415316 L 518.1818181818182 -307.26389042701027 L 525.3246753246754 -300.12103328415316 L 518.1818181818182 -292.978176141296 Z"/>
                          </g>
                        </g>
                      </g>
                    </g>
                  </g>
                </g>
              </g>
            </g>
          </g>
        </g>
      </g>
      <g style="clip-path:url(#clip49);">
        <path d="M 321.8181818181818 -300.0583655505264 L 343.6363636363636 -300.05584835829853 L 365.45454545454544 -300.0547305509015 L 387.27272727272725 -300.05283803045836 L 409.0909090909091 -300.06815024131635 L 430.9090909090909 -300.063946585311 L 452.72727272727275 -300.06464827827654 L 474.5454545454545 -300.0617399784941 L 496.3636363636364 -300.06179499362327 L 518.1818181818182 -300.06126384755805" style="stroke:rgb(137,42,226);stroke-width:2;"/>
      </g>
      <g style="clip-path:url(#clip50);">
        <path d="M 314.67532467532465 -300.0583655505264 L 328.961038961039 -300.0583655505264" style="stroke-width:1;"/>
        <path d="M 321.8181818181818 -292.9155084076693 L 321.8181818181818 -307.20122269338356" style="stroke-width:1;"/>
        <path d="M 336.4935064935065 -300.05584835829853 L 350.7792207792208 -300.05584835829853" style="stroke-width:1;"/>
        <path d="M 343.6363636363636 -292.91299121544137 L 343.6363636363636 -307.1987055011557" style="stroke-width:1;"/>
        <path d="M 358.31168831168833 -300.0547305509015 L 372.5974025974026 -300.0547305509015" style="stroke-width:1;"/>
        <path d="M 365.45454545454544 -292.91187340804436 L 365.45454545454544 -307.19758769375863" style="stroke-width:1;"/>
        <path d="M 380.12987012987014 -300.05283803045836 L 394.4155844155844 -300.05283803045836" style="stroke-width:1;"/>
        <path d="M 387.27272727272725 -292.90998088760125 L 387.27272727272725 -307.1956951733155" style="stroke-width:1;"/>
        <path d="M 401.94805194805195 -300.06815024131635 L 416.23376623376623 -300.06815024131635" style="stroke-width:1;"/>
        <path d="M 409.0909090909091 -292.92529309845924 L 409.0909090909091 -307.2110073841735" style="stroke-width:1;"/>
        <path d="M 423.76623376623377 -300.063946585311 L 438.05194805194805 -300.063946585311" style="stroke-width:1;"/>
        <path d="M 430.9090909090909 -292.9210894424538 L 430.9090909090909 -307.2068037281681" style="stroke-width:1;"/>
        <path d="M 445.5844155844156 -300.06464827827654 L 459.87012987012986 -300.06464827827654" style="stroke-width:1;"/>
        <path d="M 452.72727272727275 -292.92179113541937 L 452.72727272727275 -307.20750542113365" style="stroke-width:1;"/>
        <path d="M 467.4025974025974 -300.0617399784941 L 481.68831168831167 -300.0617399784941" style="stroke-width:1;"/>
        <path d="M 474.5454545454545 -292.91888283563696 L 474.5454545454545 -307.20459712135124" style="stroke-width:1;"/>
        <path d="M 489.22077922077926 -300.06179499362327 L 503.5064935064935 -300.06179499362327" style="stroke-width:1;"/>
        <path d="M 496.3636363636364 -292.9189378507661 L 496.3636363636364 -307.2046521364804" style="stroke-width:1;"/>
        <path d="M 511.038961038961 -300.06126384755805 L 525.3246753246754 -300.06126384755805" style="stroke-width:1;"/>
        <path d="M 518.1818181818182 -292.91840670470094 L 518.1818181818182 -307.2041209904152" style="stroke-width:1;"/>
      </g>
      <g style="clip-path:url(#clip51);">
        <path d="M 321.8181818181818 -300.04626822376156 L 343.6363636363636 -300.04270184300685 L 365.45454545454544 -300.04346135187177 L 387.27272727272725 -300.04446227712623 L 409.0909090909091 -300.0436216959664 L 430.9090909090909 -300.0465098902198 L 452.72727272727275 -300.0449975243192 L 474.5454545454545 -300.04351771737225 L 496.3636363636364 -300.04399979994497 L 518.1818181818182 -300.04344869839207" style="stroke:rgb(147,147,147);stroke-width:2;"/>
      </g>
      <g style="clip-path:url(#clip52);">
        <g style="fill:rgb(255,255,255);clip-path:url(#clip53);">
          <path d="M 315.5681818181818 -295.04626822376156 L 315.5681818181818 -305.04626822376156 L 328.0681818181818 -305.04626822376156 L 328.0681818181818 -295.04626822376156 Z" style="stroke:none;"/>
        </g>
        <g>
          <path d="M 315.5681818181818 -295.04626822376156 L 328.0681818181818 -295.04626822376156 L 321.8181818181818 -305.04626822376156 Z"/>
          <g style="fill:rgb(255,255,255);clip-path:url(#clip54);">
            <path d="M 337.3863636363636 -295.04270184300685 L 337.3863636363636 -305.04270184300685 L 349.8863636363636 -305.04270184300685 L 349.8863636363636 -295.04270184300685 Z" style="stroke:none;"/>
          </g>
          <g>
            <path d="M 337.3863636363636 -295.04270184300685 L 349.8863636363636 -295.04270184300685 L 343.6363636363636 -305.04270184300685 Z"/>
            <g style="fill:rgb(255,255,255);clip-path:url(#clip55);">
              <path d="M 359.20454545454544 -295.04346135187177 L 359.20454545454544 -305.04346135187177 L 371.70454545454544 -305.04346135187177 L 371.70454545454544 -295.04346135187177 Z" style="stroke:none;"/>
            </g>
            <g>
              <path d="M 359.20454545454544 -295.04346135187177 L 371.70454545454544 -295.04346135187177 L 365.45454545454544 -305.04346135187177 Z"/>
              <g style="fill:rgb(255,255,255);clip-path:url(#clip56);">
                <path d="M 381.02272727272725 -295.04446227712623 L 381.02272727272725 -305.04446227712623 L 393.52272727272725 -305.04446227712623 L 393.52272727272725 -295.04446227712623 Z" style="stroke:none;"/>
              </g>
              <g>
                <path d="M 381.02272727272725 -295.04446227712623 L 393.52272727272725 -295.04446227712623 L 387.27272727272725 -305.04446227712623 Z"/>
                <g style="fill:rgb(255,255,255);clip-path:url(#clip57);">
                  <path d="M 402.8409090909091 -295.0436216959664 L 402.8409090909091 -305.0436216959664 L 415.3409090909091 -305.0436216959664 L 415.3409090909091 -295.0436216959664 Z" style="stroke:none;"/>
                </g>
                <g>
                  <path d="M 402.8409090909091 -295.0436216959664 L 415.3409090909091 -295.0436216959664 L 409.0909090909091 -305.0436216959664 Z"/>
                  <g style="fill:rgb(255,255,255);clip-path:url(#clip58);">
                    <path d="M 424.6590909090909 -295.0465098902198 L 424.6590909090909 -305.0465098902198 L 437.1590909090909 -305.0465098902198 L 437.1590909090909 -295.0465098902198 Z" style="stroke:none;"/>
                  </g>
                  <g>
                    <path d="M 424.6590909090909 -295.0465098902198 L 437.1590909090909 -295.0465098902198 L 430.9090909090909 -305.0465098902198 Z"/>
                    <g style="fill:rgb(255,255,255);clip-path:url(#clip59);">
                      <path d="M 446.47727272727275 -295.0449975243192 L 446.47727272727275 -305.0449975243192 L 458.97727272727275 -305.0449975243192 L 458.97727272727275 -295.0449975243192 Z" style="stroke:none;"/>
                    </g>
                    <g>
                      <path d="M 446.47727272727275 -295.0449975243192 L 458.97727272727275 -295.0449975243192 L 452.72727272727275 -305.0449975243192 Z"/>
                      <g style="fill:rgb(255,255,255);clip-path:url(#clip60);">
                        <path d="M 468.2954545454545 -295.04351771737225 L 468.2954545454545 -305.04351771737225 L 480.7954545454545 -305.04351771737225 L 480.7954545454545 -295.04351771737225 Z" style="stroke:none;"/>
                      </g>
                      <g>
                        <path d="M 468.2954545454545 -295.04351771737225 L 480.7954545454545 -295.04351771737225 L 474.5454545454545 -305.04351771737225 Z"/>
                        <g style="fill:rgb(255,255,255);clip-path:url(#clip61);">
                          <path d="M 490.1136363636364 -295.04399979994497 L 490.1136363636364 -305.04399979994497 L 502.6136363636364 -305.04399979994497 L 502.6136363636364 -295.04399979994497 Z" style="stroke:none;"/>
                        </g>
                        <g>
                          <path d="M 490.1136363636364 -295.04399979994497 L 502.6136363636364 -295.04399979994497 L 496.3636363636364 -305.04399979994497 Z"/>
                          <g style="fill:rgb(255,255,255);clip-path:url(#clip62);">
                            <path d="M 511.9318181818182 -295.04344869839207 L 511.9318181818182 -305.04344869839207 L 524.4318181818182 -305.04344869839207 L 524.4318181818182 -295.04344869839207 Z" style="stroke:none;"/>
                          </g>
                          <g>
                            <path d="M 511.9318181818182 -295.04344869839207 L 524.4318181818182 -295.04344869839207 L 518.1818181818182 -305.04344869839207 Z"/>
                          </g>
                        </g>
                      </g>
                    </g>
                  </g>
                </g>
              </g>
            </g>
          </g>
        </g>
      </g>
      <g style="clip-path:url(#clip63);">
        <path d="M 321.8181818181818 -300.0294106379254 L 343.6363636363636 -300.0278749656155 L 365.45454545454544 -300.029226687339 L 387.27272727272725 -300.0295659806447 L 409.0909090909091 -300.0301400885243 L 430.9090909090909 -300.02974152892045 L 452.72727272727275 -300.03020005501514 L 474.5454545454545 -300.02901457900924 L 496.3636363636364 -300.0321296356498 L 518.1818181818182 -300.02952271874767" style="stroke:rgb(126,126,126);stroke-width:0.4;stroke-dasharray:1.5,1.5;"/>
      </g>
      <g style="clip-path:url(#clip64);">
        <g style="fill:rgb(0,0,0);clip-path:url(#clip65);">
          <path d="M 315.5681818181818 -295.0294106379254 L 315.5681818181818 -305.0294106379254 L 328.0681818181818 -305.0294106379254 L 328.0681818181818 -295.0294106379254 Z" style="stroke:none;"/>
        </g>
        <g>
          <path d="M 321.8181818181818 -295.0294106379254 L 315.5681818181818 -305.0294106379254 L 328.0681818181818 -305.0294106379254 Z"/>
          <g style="fill:rgb(0,0,0);clip-path:url(#clip66);">
            <path d="M 337.3863636363636 -295.0278749656155 L 337.3863636363636 -305.0278749656155 L 349.8863636363636 -305.0278749656155 L 349.8863636363636 -295.0278749656155 Z" style="stroke:none;"/>
          </g>
          <g>
            <path d="M 343.6363636363636 -295.0278749656155 L 337.3863636363636 -305.0278749656155 L 349.8863636363636 -305.0278749656155 Z"/>
            <g style="fill:rgb(0,0,0);clip-path:url(#clip67);">
              <path d="M 359.20454545454544 -295.029226687339 L 359.20454545454544 -305.029226687339 L 371.70454545454544 -305.029226687339 L 371.70454545454544 -295.029226687339 Z" style="stroke:none;"/>
            </g>
            <g>
              <path d="M 365.45454545454544 -295.029226687339 L 359.20454545454544 -305.029226687339 L 371.70454545454544 -305.029226687339 Z"/>
              <g style="fill:rgb(0,0,0);clip-path:url(#clip68);">
                <path d="M 381.02272727272725 -295.0295659806447 L 381.02272727272725 -305.0295659806447 L 393.52272727272725 -305.0295659806447 L 393.52272727272725 -295.0295659806447 Z" style="stroke:none;"/>
              </g>
              <g>
                <path d="M 387.27272727272725 -295.0295659806447 L 381.02272727272725 -305.0295659806447 L 393.52272727272725 -305.0295659806447 Z"/>
                <g style="fill:rgb(0,0,0);clip-path:url(#clip69);">
                  <path d="M 402.8409090909091 -295.0301400885243 L 402.8409090909091 -305.0301400885243 L 415.3409090909091 -305.0301400885243 L 415.3409090909091 -295.0301400885243 Z" style="stroke:none;"/>
                </g>
                <g>
                  <path d="M 409.0909090909091 -295.0301400885243 L 402.8409090909091 -305.0301400885243 L 415.3409090909091 -305.0301400885243 Z"/>
                  <g style="fill:rgb(0,0,0);clip-path:url(#clip70);">
                    <path d="M 424.6590909090909 -295.02974152892045 L 424.6590909090909 -305.02974152892045 L 437.1590909090909 -305.02974152892045 L 437.1590909090909 -295.02974152892045 Z" style="stroke:none;"/>
                  </g>
                  <g>
                    <path d="M 430.9090909090909 -295.02974152892045 L 424.6590909090909 -305.02974152892045 L 437.1590909090909 -305.02974152892045 Z"/>
                    <g style="fill:rgb(0,0,0);clip-path:url(#clip71);">
                      <path d="M 446.47727272727275 -295.03020005501514 L 446.47727272727275 -305.03020005501514 L 458.97727272727275 -305.03020005501514 L 458.97727272727275 -295.03020005501514 Z" style="stroke:none;"/>
                    </g>
                    <g>
                      <path d="M 452.72727272727275 -295.03020005501514 L 446.47727272727275 -305.03020005501514 L 458.97727272727275 -305.03020005501514 Z"/>
                      <g style="fill:rgb(0,0,0);clip-path:url(#clip72);">
                        <path d="M 468.2954545454545 -295.02901457900924 L 468.2954545454545 -305.02901457900924 L 480.7954545454545 -305.02901457900924 L 480.7954545454545 -295.02901457900924 Z" style="stroke:none;"/>
                      </g>
                      <g>
                        <path d="M 474.5454545454545 -295.02901457900924 L 468.2954545454545 -305.02901457900924 L 480.7954545454545 -305.02901457900924 Z"/>
                        <g style="fill:rgb(0,0,0);clip-path:url(#clip73);">
                          <path d="M 490.1136363636364 -295.0321296356498 L 490.1136363636364 -305.0321296356498 L 502.6136363636364 -305.0321296356498 L 502.6136363636364 -295.0321296356498 Z" style="stroke:none;"/>
                        </g>
                        <g>
                          <path d="M 496.3636363636364 -295.0321296356498 L 490.1136363636364 -305.0321296356498 L 502.6136363636364 -305.0321296356498 Z"/>
                          <g style="fill:rgb(0,0,0);clip-path:url(#clip74);">
                            <path d="M 511.9318181818182 -295.02952271874767 L 511.9318181818182 -305.02952271874767 L 524.4318181818182 -305.02952271874767 L 524.4318181818182 -295.02952271874767 Z" style="stroke:none;"/>
                          </g>
                          <g>
                            <path d="M 518.1818181818182 -295.02952271874767 L 511.9318181818182 -305.02952271874767 L 524.4318181818182 -305.02952271874767 Z"/>
                          </g>
                        </g>
                      </g>
                    </g>
                  </g>
                </g>
              </g>
            </g>
          </g>
        </g>
      </g>
    </g>
    <g style="fill:rgb(255,255,255);clip-path:url(#clip75);">
      <path d="M 290 6 L 290 -136 L 456.72 -136 L 456.72 6 Z" style="stroke:none;"/>
    </g>
    <path d="M 300 -125.33333333333334 L 316 -125.33333333333334" style="stroke:rgb(126,126,126);stroke-width:0.4;stroke-dasharray:1.5,1.5;"/>
    <g style="fill:rgb(0,0,0);clip-path:url(#clip76);">
      <path d="M 301.75 -120.33333333333334 L 301.75 -130.33333333333334 L 314.25 -130.33333333333334 L 314.25 -120.33333333333334 Z" style="stroke:none;"/>
    </g>
    <g>
      <path d="M 308.0 -120.33333333333334 L 301.75 -130.33333333333334 L 314.25 -130.33333333333334 Z"/>
      <text style="font-size:16;stroke:none;fill:rgb(0,0,0);" x="316.0" y="-120.0">
        n_pq_deque
      </text>
      <path d="M 300 -105.33333333333334 L 316 -105.33333333333334" style="stroke:rgb(126,126,126);stroke-width:0.4;stroke-dasharray:5,2,5,2;"/>
      <g style="fill:rgb(0,0,0);clip-path:url(#clip77);">
        <path d="M 300.85714285714283 -98.1904761904762 L 300.85714285714283 -112.47619047619048 L 315.14285714285717 -112.47619047619048 L 315.14285714285717 -98.1904761904762 Z" style="stroke:none;"/>
      </g>
      <g>
        <path d="M 300.85714285714283 -105.33333333333334 L 308.0 -112.47619047619048 L 315.14285714285717 -105.33333333333334 L 308.0 -98.1904761904762 Z"/>
        <text style="font-size:16;stroke:none;fill:rgb(0,0,0);" x="316.0" y="-100.0">
          n_pq_vector
        </text>
        <path d="M 300 -85.33333333333334 L 316 -85.33333333333334" style="stroke:rgb(205,0,0);stroke-width:2;"/>
        <g style="fill:rgb(255,255,255);clip-path:url(#clip78);">
          <path d="M 301.75 -80.33333333333334 L 301.75 -90.33333333333334 L 314.25 -90.33333333333334 L 314.25 -80.33333333333334 Z" style="stroke:none;"/>
        </g>
        <g>
          <path d="M 308.0 -80.33333333333334 L 301.75 -90.33333333333334 L 314.25 -90.33333333333334 Z"/>
          <text style="font-size:16;stroke:none;fill:rgb(0,0,0);" x="316.0" y="-80.0">
            binary_heap
          </text>
          <path d="M 300 -65.33333333333334 L 316 -65.33333333333334" style="stroke:rgb(126,126,126);stroke-width:2;"/>
          <g style="fill:rgb(255,255,255);clip-path:url(#clip79);">
            <path d="M 300.85714285714283 -58.190476190476204 L 300.85714285714283 -72.47619047619048 L 315.14285714285717 -72.47619047619048 L 315.14285714285717 -58.190476190476204 Z" style="stroke:none;"/>
          </g>
          <g>
            <path d="M 300.85714285714283 -65.33333333333334 L 308.0 -72.47619047619048 L 315.14285714285717 -65.33333333333334 L 308.0 -58.190476190476204 Z"/>
            <text style="font-size:16;stroke:none;fill:rgb(0,0,0);" x="316.0" y="-60.0">
              rc_binomial_heap
            </text>
            <path d="M 300 -45.33333333333334 L 316 -45.33333333333334" style="stroke:rgb(137,42,226);stroke-width:2;"/>
            <path d="M 300.85714285714283 -45.33333333333334 L 315.14285714285717 -45.33333333333334" style="stroke-width:1;"/>
            <path d="M 308.0 -38.190476190476204 L 308.0 -52.47619047619048" style="stroke-width:1;"/>
            <text style="font-size:16;stroke:none;fill:rgb(0,0,0);" x="316.0" y="-40.0">
              pairing_heap
            </text>
            <path d="M 300 -25.333333333333314 L 316 -25.333333333333314" style="stroke:rgb(147,147,147);stroke-width:2;"/>
            <g style="fill:rgb(255,255,255);clip-path:url(#clip80);">
              <path d="M 301.75 -20.333333333333314 L 301.75 -30.333333333333314 L 314.25 -30.333333333333314 L 314.25 -20.333333333333314 Z" style="stroke:none;"/>
            </g>
            <g>
              <path d="M 301.75 -20.333333333333314 L 314.25 -20.333333333333314 L 308.0 -30.333333333333314 Z"/>
              <text style="font-size:16;stroke:none;fill:rgb(0,0,0);" x="316.0" y="-20.0">
                binomial_heap
              </text>
              <path d="M 300 -5.333333333333314 L 316 -5.333333333333314" style="stroke:rgb(126,126,126);stroke-width:0.4;stroke-dasharray:1.5,1.5;"/>
              <g style="fill:rgb(0,0,0);clip-path:url(#clip81);">
                <path d="M 301.75 -0.3333333333333144 L 301.75 -10.333333333333314 L 314.25 -10.333333333333314 L 314.25 -0.3333333333333144 Z" style="stroke:none;"/>
              </g>
              <g>
                <path d="M 308.0 -0.3333333333333144 L 301.75 -10.333333333333314 L 314.25 -10.333333333333314 Z"/>
                <text style="font-size:16;stroke:none;fill:rgb(0,0,0);" x="316.0" y="-0.0">
                  thin_heap
                </text>
              </g>
            </g>
          </g>
        </g>
      </g>
    </g>
  </g>
</svg>
