<?xml version="1.0" encoding="UTF-8" standalone="no"?>
<!DOCTYPE svg PUBLIC "-//W3C//DTD SVG 1.1//EN" "http://www.w3.org/Graphics/SVG/1.1/DTD/svg11.dtd">
<!-- Generated by graphviz version 2.26.3 (20100126.1600)
 -->
<!-- Title: G Pages: 1 -->
<svg width="224pt" height="146pt" viewBox="0.00 0.00 224.00 146.00" xmlns="http://www.w3.org/2000/svg" xmlns:xlink="http://www.w3.org/1999/xlink">
<g id="graph1" class="graph" transform="scale(1) rotate(0) translate(4, 142)">
<title>G</title>
<polygon fill="white" stroke="white" points="-4,5 -4,-142 221,-142 221,5 -4,5"/>
<!-- Node1 -->
<g id="node1" class="node"><title>Node1</title>
<polygon fill="#bfbfbf" stroke="black" points="1,-117 1,-137 215,-137 215,-117 1,-117"/>
<text text-anchor="middle" x="108" y="-124.9" font-family="FreeSans" font-size="9.00">__gnu_pbds::basic_invalidation_guarantee</text>
</g>
<!-- Node2 -->
<g id="node3" class="node"><title>Node2</title>
<a xlink:href="a00351.html" target="_top" xlink:title="__gnu_pbds::point_invalidation_guarantee">
<polygon fill="white" stroke="black" points="1.5,-59 1.5,-79 214.5,-79 214.5,-59 1.5,-59"/>
<text text-anchor="middle" x="108" y="-66.9" font-family="FreeSans" font-size="9.00">__gnu_pbds::point_invalidation_guarantee</text>
</a>
</g>
<!-- Node1&#45;&gt;Node2 -->
<g id="edge2" class="edge"><title>Node1-&gt;Node2</title>
<path fill="none" stroke="midnightblue" d="M108,-106.89C108,-97.6201 108,-87.0083 108,-79.3776"/>
<polygon fill="midnightblue" stroke="midnightblue" points="104.5,-106.897 108,-116.897 111.5,-106.897 104.5,-106.897"/>
</g>
<!-- Node3 -->
<g id="node5" class="node"><title>Node3</title>
<a xlink:href="a00355.html" target="_top" xlink:title="__gnu_pbds::range_invalidation_guarantee">
<polygon fill="white" stroke="black" points="-0.5,-1 -0.5,-21 216.5,-21 216.5,-1 -0.5,-1"/>
<text text-anchor="middle" x="108" y="-8.9" font-family="FreeSans" font-size="9.00">__gnu_pbds::range_invalidation_guarantee</text>
</a>
</g>
<!-- Node2&#45;&gt;Node3 -->
<g id="edge4" class="edge"><title>Node2-&gt;Node3</title>
<path fill="none" stroke="midnightblue" d="M108,-48.8902C108,-39.6201 108,-29.0083 108,-21.3776"/>
<polygon fill="midnightblue" stroke="midnightblue" points="104.5,-48.8971 108,-58.8972 111.5,-48.8972 104.5,-48.8971"/>
</g>
</g>
</svg>