<?xml version="1.0" ?>
<!--Created by PyChart 1.39 Copyright 1999-2006 Yasushi Saito-->
<svg viewBox="178 -526 620 458" xmlns="http://www.w3.org/2000/svg" xmlns:xlink="http://www.w3.org/1999/xlink">
  <defs>
    <clipPath id="clip0">
      <path d="M 294 -294 L 294 -526 L 786 -526 L 786 -294 Z"/>
    </clipPath>
    <clipPath id="clip1">
      <path d="M 294 -294 L 294 -526 L 786 -526 L 786 -294 Z"/>
    </clipPath>
    <clipPath id="clip2">
      <path d="M 280 -280 L 280 -540 L 800 -540 L 800 -280 Z"/>
    </clipPath>
    <clipPath id="clip3">
      <path d="M 294 -294 L 294 -526 L 786 -526 L 786 -294 Z"/>
    </clipPath>
    <clipPath id="clip4">
      <path d="M 280 -280 L 280 -540 L 800 -540 L 800 -280 Z"/>
    </clipPath>
    <clipPath id="clip5">
      <path d="M 365.45454545454544 -296.1115789473684 L 359.20454545454544 -306.1115789473684 L 371.70454545454544 -306.1115789473684 Z"/>
    </clipPath>
    <clipPath id="clip6">
      <path d="M 452.72727272727275 -326.01305263157894 L 446.47727272727275 -336.01305263157894 L 458.97727272727275 -336.01305263157894 Z"/>
    </clipPath>
    <clipPath id="clip7">
      <path d="M 540.0 -365.2517894736842 L 533.75 -375.2517894736842 L 546.25 -375.2517894736842 Z"/>
    </clipPath>
    <clipPath id="clip8">
      <path d="M 627.2727272727273 -387.48336842105266 L 621.0227272727273 -397.48336842105266 L 633.5227272727273 -397.48336842105266 Z"/>
    </clipPath>
    <clipPath id="clip9">
      <path d="M 714.5454545454545 -446.73052631578946 L 708.2954545454545 -456.73052631578946 L 720.7954545454545 -456.73052631578946 Z"/>
    </clipPath>
    <clipPath id="clip10">
      <path d="M 294 -294 L 294 -526 L 786 -526 L 786 -294 Z"/>
    </clipPath>
    <clipPath id="clip11">
      <path d="M 280 -280 L 280 -540 L 800 -540 L 800 -280 Z"/>
    </clipPath>
    <clipPath id="clip12">
      <path d="M 290 -74 L 290 -200 L 687.072 -200 L 687.072 -74 Z"/>
    </clipPath>
    <clipPath id="clip13">
      <path d="M 308.0 -132.33333333333334 L 301.75 -142.33333333333334 L 314.25 -142.33333333333334 Z"/>
    </clipPath>
  </defs>
  <g style="stroke-linejoin:miter;font-size:8;font-family:Helvetica;fill:none;stroke-linecap:butt;stroke:rgb(0,0,0);font-stretch:normal;stroke-dasharray:none;font-weight:normal;font-style:normal;stroke-width:0.5;">
    <path d="M 300 -300 L 780 -300"/>
    <path d="M 300 -300 L 780 -300"/>
    <path d="M 300.0 -300 L 300.0 -288"/>
    <text style="font-size:12;font-style:italic;stroke:none;fill:rgb(0,0,0);" transform="rotate(90,300,-288)" x="300.0" y="-288.0">
      0
    </text>
    <path d="M 343.6363636363636 -300 L 343.6363636363636 -288"/>
    <text style="font-size:12;font-style:italic;stroke:none;fill:rgb(0,0,0);" transform="rotate(90,343.636,-288)" x="343.6363636363636" y="-288.0">
      200
    </text>
    <path d="M 387.27272727272725 -300 L 387.27272727272725 -288"/>
    <text style="font-size:12;font-style:italic;stroke:none;fill:rgb(0,0,0);" transform="rotate(90,387.273,-288)" x="387.27272727272725" y="-288.0">
      400
    </text>
    <path d="M 430.9090909090909 -300 L 430.9090909090909 -288"/>
    <text style="font-size:12;font-style:italic;stroke:none;fill:rgb(0,0,0);" transform="rotate(90,430.909,-288)" x="430.9090909090909" y="-288.0">
      600
    </text>
    <path d="M 474.5454545454545 -300 L 474.5454545454545 -288"/>
    <text style="font-size:12;font-style:italic;stroke:none;fill:rgb(0,0,0);" transform="rotate(90,474.545,-288)" x="474.5454545454545" y="-288.0">
      800
    </text>
    <path d="M 518.1818181818182 -300 L 518.1818181818182 -288"/>
    <text style="font-size:12;font-style:italic;stroke:none;fill:rgb(0,0,0);" transform="rotate(90,518.182,-288)" x="518.1818181818182" y="-288.0">
      1000
    </text>
    <path d="M 561.8181818181818 -300 L 561.8181818181818 -288"/>
    <text style="font-size:12;font-style:italic;stroke:none;fill:rgb(0,0,0);" transform="rotate(90,561.818,-288)" x="561.8181818181818" y="-288.0">
      1200
    </text>
    <path d="M 605.4545454545455 -300 L 605.4545454545455 -288"/>
    <text style="font-size:12;font-style:italic;stroke:none;fill:rgb(0,0,0);" transform="rotate(90,605.455,-288)" x="605.4545454545455" y="-288.0">
      1400
    </text>
    <path d="M 649.090909090909 -300 L 649.090909090909 -288"/>
    <text style="font-size:12;font-style:italic;stroke:none;fill:rgb(0,0,0);" transform="rotate(90,649.091,-288)" x="649.090909090909" y="-288.0">
      1600
    </text>
    <path d="M 692.7272727272727 -300 L 692.7272727272727 -288"/>
    <text style="font-size:12;font-style:italic;stroke:none;fill:rgb(0,0,0);" transform="rotate(90,692.727,-288)" x="692.7272727272727" y="-288.0">
      1800
    </text>
    <path d="M 736.3636363636364 -300 L 736.3636363636364 -288"/>
    <text style="font-size:12;font-style:italic;stroke:none;fill:rgb(0,0,0);" transform="rotate(90,736.364,-288)" x="736.3636363636364" y="-288.0">
      2000
    </text>
    <path d="M 780.0 -300 L 780.0 -288"/>
    <text style="font-size:12;font-style:italic;stroke:none;fill:rgb(0,0,0);" transform="rotate(90,780,-288)" x="780.0" y="-288.0">
      2200
    </text>
    <text style="font-size:16;stroke:none;fill:rgb(0,0,0);" x="524.44" y="-220.0">
      Size
    </text>
    <path d="M 300 -323.1578947368421 L 780 -323.1578947368421" style="stroke:rgb(179,179,179);stroke-width:0.4;stroke-dasharray:1,1;"/>
    <path d="M 300 -346.3157894736842 L 780 -346.3157894736842" style="stroke:rgb(179,179,179);stroke-width:0.4;stroke-dasharray:1,1;"/>
    <path d="M 300 -369.4736842105263 L 780 -369.4736842105263" style="stroke:rgb(179,179,179);stroke-width:0.4;stroke-dasharray:1,1;"/>
    <path d="M 300 -392.63157894736844 L 780 -392.63157894736844" style="stroke:rgb(179,179,179);stroke-width:0.4;stroke-dasharray:1,1;"/>
    <path d="M 300 -415.7894736842105 L 780 -415.7894736842105" style="stroke:rgb(179,179,179);stroke-width:0.4;stroke-dasharray:1,1;"/>
    <path d="M 300 -438.9473684210526 L 780 -438.9473684210526" style="stroke:rgb(179,179,179);stroke-width:0.4;stroke-dasharray:1,1;"/>
    <path d="M 300 -462.10526315789474 L 780 -462.10526315789474" style="stroke:rgb(179,179,179);stroke-width:0.4;stroke-dasharray:1,1;"/>
    <path d="M 300 -485.2631578947369 L 780 -485.2631578947369" style="stroke:rgb(179,179,179);stroke-width:0.4;stroke-dasharray:1,1;"/>
    <path d="M 300 -508.42105263157896 L 780 -508.42105263157896" style="stroke:rgb(179,179,179);stroke-width:0.4;stroke-dasharray:1,1;"/>
    <path d="M 300 -300 L 300 -520"/>
    <path d="M 300 -300.0 L 288 -300.0"/>
    <text style="font-size:12;font-style:italic;stroke:none;fill:rgb(0,0,0);" x="238.0" y="-294.0">
      1.00e+04
    </text>
    <path d="M 300 -344.3001263157895 L 288 -344.3001263157895"/>
    <text style="font-size:12;font-style:italic;stroke:none;fill:rgb(0,0,0);" x="238.0" y="-338.3001263157895">
      2.91e+04
    </text>
    <path d="M 300 -388.60025263157894 L 288 -388.60025263157894"/>
    <text style="font-size:12;font-style:italic;stroke:none;fill:rgb(0,0,0);" x="238.0" y="-382.60025263157894">
      4.83e+04
    </text>
    <path d="M 300 -432.9003789473684 L 288 -432.9003789473684"/>
    <text style="font-size:12;font-style:italic;stroke:none;fill:rgb(0,0,0);" x="238.0" y="-426.9003789473684">
      6.74e+04
    </text>
    <path d="M 300 -477.2005052631579 L 288 -477.2005052631579"/>
    <text style="font-size:12;font-style:italic;stroke:none;fill:rgb(0,0,0);" x="238.0" y="-471.2005052631579">
      8.65e+04
    </text>
    <text style="font-size:16;stroke:none;fill:rgb(0,0,0);" transform="rotate(-90,200,-354.44)" x="200.0" y="-354.44">
      Memory (bytes)
    </text>
    <g style="clip-path:url(#clip0);">
      <g style="clip-path:url(#clip1);">
        <path d="M 365.45454545454544 -335.3111578947368 L 452.72727272727275 -364.95326315789475 L 540.0 -409.41642105263156 L 627.2727272727273 -424.2374736842105 L 714.5454545454545 -498.3427368421053" style="stroke:rgb(0,0,128);stroke-width:2;"/>
      </g>
      <g style="clip-path:url(#clip2);">
        <path d="M 360.45454545454544 -330.3111578947368 L 370.45454545454544 -340.3111578947368" style="stroke-width:0.7;"/>
        <path d="M 370.45454545454544 -330.3111578947368 L 360.45454545454544 -340.3111578947368" style="stroke-width:0.7;"/>
        <path d="M 447.72727272727275 -359.95326315789475 L 457.72727272727275 -369.95326315789475" style="stroke-width:0.7;"/>
        <path d="M 457.72727272727275 -359.95326315789475 L 447.72727272727275 -369.95326315789475" style="stroke-width:0.7;"/>
        <path d="M 535.0 -404.41642105263156 L 545.0 -414.41642105263156" style="stroke-width:0.7;"/>
        <path d="M 545.0 -404.41642105263156 L 535.0 -414.41642105263156" style="stroke-width:0.7;"/>
        <path d="M 622.2727272727273 -419.2374736842105 L 632.2727272727273 -429.2374736842105" style="stroke-width:0.7;"/>
        <path d="M 632.2727272727273 -419.2374736842105 L 622.2727272727273 -429.2374736842105" style="stroke-width:0.7;"/>
        <path d="M 709.5454545454545 -493.3427368421053 L 719.5454545454545 -503.3427368421053" style="stroke-width:0.7;"/>
        <path d="M 719.5454545454545 -493.3427368421053 L 709.5454545454545 -503.3427368421053" style="stroke-width:0.7;"/>
      </g>
      <g style="clip-path:url(#clip3);">
        <path d="M 365.45454545454544 -301.1115789473684 L 452.72727272727275 -331.01305263157894 L 540.0 -370.2517894736842 L 627.2727272727273 -392.48336842105266 L 714.5454545454545 -451.73052631578946" style="stroke:rgb(126,126,126);stroke-width:0.4;stroke-dasharray:1.5,1.5;"/>
      </g>
      <g style="clip-path:url(#clip4);">
        <g style="fill:rgb(0,0,0);clip-path:url(#clip5);">
          <path d="M 359.20454545454544 -296.1115789473684 L 359.20454545454544 -306.1115789473684 L 371.70454545454544 -306.1115789473684 L 371.70454545454544 -296.1115789473684 Z" style="stroke:none;"/>
        </g>
        <g>
          <path d="M 365.45454545454544 -296.1115789473684 L 359.20454545454544 -306.1115789473684 L 371.70454545454544 -306.1115789473684 Z"/>
          <g style="fill:rgb(0,0,0);clip-path:url(#clip6);">
            <path d="M 446.47727272727275 -326.01305263157894 L 446.47727272727275 -336.01305263157894 L 458.97727272727275 -336.01305263157894 L 458.97727272727275 -326.01305263157894 Z" style="stroke:none;"/>
          </g>
          <g>
            <path d="M 452.72727272727275 -326.01305263157894 L 446.47727272727275 -336.01305263157894 L 458.97727272727275 -336.01305263157894 Z"/>
            <g style="fill:rgb(0,0,0);clip-path:url(#clip7);">
              <path d="M 533.75 -365.2517894736842 L 533.75 -375.2517894736842 L 546.25 -375.2517894736842 L 546.25 -365.2517894736842 Z" style="stroke:none;"/>
            </g>
            <g>
              <path d="M 540.0 -365.2517894736842 L 533.75 -375.2517894736842 L 546.25 -375.2517894736842 Z"/>
              <g style="fill:rgb(0,0,0);clip-path:url(#clip8);">
                <path d="M 621.0227272727273 -387.48336842105266 L 621.0227272727273 -397.48336842105266 L 633.5227272727273 -397.48336842105266 L 633.5227272727273 -387.48336842105266 Z" style="stroke:none;"/>
              </g>
              <g>
                <path d="M 627.2727272727273 -387.48336842105266 L 621.0227272727273 -397.48336842105266 L 633.5227272727273 -397.48336842105266 Z"/>
                <g style="fill:rgb(0,0,0);clip-path:url(#clip9);">
                  <path d="M 708.2954545454545 -446.73052631578946 L 708.2954545454545 -456.73052631578946 L 720.7954545454545 -456.73052631578946 L 720.7954545454545 -446.73052631578946 Z" style="stroke:none;"/>
                </g>
                <g>
                  <path d="M 714.5454545454545 -446.73052631578946 L 708.2954545454545 -456.73052631578946 L 720.7954545454545 -456.73052631578946 Z"/>
                </g>
              </g>
            </g>
          </g>
        </g>
      </g>
      <g style="clip-path:url(#clip10);">
        <path d="M 365.45454545454544 -301.9637894736842 L 452.72727272727275 -316.7848421052632 L 540.0 -331.6058947368421 L 627.2727272727273 -346.42694736842105 L 714.5454545454545 -361.248" style="stroke:rgb(0,0,128);stroke-width:2;"/>
      </g>
      <g style="clip-path:url(#clip11);">
        <path d="M 360.45454545454544 -296.9637894736842 L 370.45454545454544 -306.9637894736842" style="stroke-width:0.7;"/>
        <path d="M 370.45454545454544 -296.9637894736842 L 360.45454545454544 -306.9637894736842" style="stroke-width:0.7;"/>
        <path d="M 447.72727272727275 -311.7848421052632 L 457.72727272727275 -321.7848421052632" style="stroke-width:0.7;"/>
        <path d="M 457.72727272727275 -311.7848421052632 L 447.72727272727275 -321.7848421052632" style="stroke-width:0.7;"/>
        <path d="M 535.0 -326.6058947368421 L 545.0 -336.6058947368421" style="stroke-width:0.7;"/>
        <path d="M 545.0 -326.6058947368421 L 535.0 -336.6058947368421" style="stroke-width:0.7;"/>
        <path d="M 622.2727272727273 -341.42694736842105 L 632.2727272727273 -351.42694736842105" style="stroke-width:0.7;"/>
        <path d="M 632.2727272727273 -341.42694736842105 L 622.2727272727273 -351.42694736842105" style="stroke-width:0.7;"/>
        <path d="M 709.5454545454545 -356.248 L 719.5454545454545 -366.248" style="stroke-width:0.7;"/>
        <path d="M 719.5454545454545 -356.248 L 709.5454545454545 -366.248" style="stroke-width:0.7;"/>
      </g>
    </g>
    <g style="fill:rgb(255,255,255);clip-path:url(#clip12);">
      <path d="M 290 -74 L 290 -200 L 687.072 -200 L 687.072 -74 Z" style="stroke:none;"/>
    </g>
    <path d="M 300 -189.33333333333331 L 316 -189.33333333333331" style="stroke:rgb(0,0,128);stroke-width:2;"/>
    <path d="M 303.0 -184.33333333333331 L 313.0 -194.33333333333331" style="stroke-width:0.7;"/>
    <path d="M 313.0 -184.33333333333331 L 303.0 -194.33333333333331" style="stroke-width:0.7;"/>
    <text style="font-size:16;stroke:none;fill:rgb(0,0,0);" x="316.0" y="-184.0">
      cc_hash_mask_exp_nea_lc_1div8_1div2_nsth_
    </text>
    <text style="font-size:16;stroke:none;fill:rgb(0,0,0);" x="316.0" y="-168.0">
      mmap_
    </text>
    <text style="font-size:16;stroke:none;fill:rgb(0,0,0);" x="316.0" y="-152.0">
      cc_hash_mask_exp_nea_lc_1div8_1div2_nsth_set
    </text>
    <path d="M 300 -137.33333333333334 L 316 -137.33333333333334" style="stroke:rgb(126,126,126);stroke-width:0.4;stroke-dasharray:1.5,1.5;"/>
    <g style="fill:rgb(0,0,0);clip-path:url(#clip13);">
      <path d="M 301.75 -132.33333333333334 L 301.75 -142.33333333333334 L 314.25 -142.33333333333334 L 314.25 -132.33333333333334 Z" style="stroke:none;"/>
    </g>
    <g>
      <path d="M 308.0 -132.33333333333334 L 301.75 -142.33333333333334 L 314.25 -142.33333333333334 Z"/>
      <text style="font-size:16;stroke:none;fill:rgb(0,0,0);" x="316.0" y="-132.0">
        n_hash_mmap
      </text>
      <path d="M 300 -117.33333333333334 L 316 -117.33333333333334" style="stroke:rgb(0,0,128);stroke-width:2;"/>
      <path d="M 303.0 -112.33333333333334 L 313.0 -122.33333333333334" style="stroke-width:0.7;"/>
      <path d="M 313.0 -112.33333333333334 L 303.0 -122.33333333333334" style="stroke-width:0.7;"/>
      <text style="font-size:16;stroke:none;fill:rgb(0,0,0);" x="316.0" y="-112.0">
        cc_hash_mask_exp_nea_lc_1div8_1div2_nsth_
      </text>
      <text style="font-size:16;stroke:none;fill:rgb(0,0,0);" x="316.0" y="-96.0">
        mmap_
      </text>
      <text style="font-size:16;stroke:none;fill:rgb(0,0,0);" x="316.0" y="-80.0">
        lu_mtf_set
      </text>
    </g>
  </g>
</svg>
