<?xml version="1.0" ?>
<!--Created by PyChart 1.39 Copyright 1999-2006 Yasushi Saito-->
<svg viewBox="178 -544 620 496" xmlns="http://www.w3.org/2000/svg" xmlns:xlink="http://www.w3.org/1999/xlink">
  <defs>
    <clipPath id="clip0">
      <path d="M 294 -294 L 294 -526 L 786 -526 L 786 -294 Z"/>
    </clipPath>
    <clipPath id="clip1">
      <path d="M 294 -294 L 294 -526 L 786 -526 L 786 -294 Z"/>
    </clipPath>
    <clipPath id="clip2">
      <path d="M 280 -280 L 280 -540 L 800 -540 L 800 -280 Z"/>
    </clipPath>
    <clipPath id="clip3">
      <path d="M 294 -294 L 294 -526 L 786 -526 L 786 -294 Z"/>
    </clipPath>
    <clipPath id="clip4">
      <path d="M 280 -280 L 280 -540 L 800 -540 L 800 -280 Z"/>
    </clipPath>
    <clipPath id="clip5">
      <path d="M 343.6363636363636 -457.25444226151495 L 337.3863636363636 -467.25444226151495 L 349.8863636363636 -467.25444226151495 Z"/>
    </clipPath>
    <clipPath id="clip6">
      <path d="M 387.27272727272725 -471.6905915738922 L 381.02272727272725 -481.6905915738922 L 393.52272727272725 -481.6905915738922 Z"/>
    </clipPath>
    <clipPath id="clip7">
      <path d="M 430.9090909090909 -478.1479589609256 L 424.6590909090909 -488.1479589609256 L 437.1590909090909 -488.1479589609256 Z"/>
    </clipPath>
    <clipPath id="clip8">
      <path d="M 474.5454545454545 -485.3160881903515 L 468.2954545454545 -495.3160881903515 L 480.7954545454545 -495.3160881903515 Z"/>
    </clipPath>
    <clipPath id="clip9">
      <path d="M 518.1818181818182 -488.81130757476535 L 511.9318181818182 -498.81130757476535 L 524.4318181818182 -498.81130757476535 Z"/>
    </clipPath>
    <clipPath id="clip10">
      <path d="M 561.8181818181818 -494.11704867932764 L 555.5681818181818 -504.11704867932764 L 568.0681818181818 -504.11704867932764 Z"/>
    </clipPath>
    <clipPath id="clip11">
      <path d="M 605.4545454545455 -496.24549225060025 L 599.2045454545455 -506.24549225060025 L 611.7045454545455 -506.24549225060025 Z"/>
    </clipPath>
    <clipPath id="clip12">
      <path d="M 649.090909090909 -495.10154987993883 L 642.840909090909 -505.10154987993883 L 655.340909090909 -505.10154987993883 Z"/>
    </clipPath>
    <clipPath id="clip13">
      <path d="M 692.7272727272727 -508.47251691770356 L 686.4772727272727 -518.4725169177036 L 698.9772727272727 -518.4725169177036 Z"/>
    </clipPath>
    <clipPath id="clip14">
      <path d="M 736.3636363636364 -509.5425016371971 L 730.1136363636364 -519.5425016371971 L 742.6136363636364 -519.5425016371971 Z"/>
    </clipPath>
    <clipPath id="clip15">
      <path d="M 294 -294 L 294 -526 L 786 -526 L 786 -294 Z"/>
    </clipPath>
    <clipPath id="clip16">
      <path d="M 280 -280 L 280 -540 L 800 -540 L 800 -280 Z"/>
    </clipPath>
    <clipPath id="clip17">
      <path d="M 343.6363636363636 -458.6317834533944 L 337.3863636363636 -468.6317834533944 L 349.8863636363636 -468.6317834533944 Z"/>
    </clipPath>
    <clipPath id="clip18">
      <path d="M 387.27272727272725 -472.8114822091246 L 381.02272727272725 -482.8114822091246 L 393.52272727272725 -482.8114822091246 Z"/>
    </clipPath>
    <clipPath id="clip19">
      <path d="M 430.9090909090909 -480.7537655533726 L 424.6590909090909 -490.7537655533726 L 437.1590909090909 -490.7537655533726 Z"/>
    </clipPath>
    <clipPath id="clip20">
      <path d="M 474.5454545454545 -485.5734992359746 L 468.2954545454545 -495.5734992359746 L 480.7954545454545 -495.5734992359746 Z"/>
    </clipPath>
    <clipPath id="clip21">
      <path d="M 518.1818181818182 -295.0 L 511.9318181818182 -305.0 L 524.4318181818182 -305.0 Z"/>
    </clipPath>
    <clipPath id="clip22">
      <path d="M 561.8181818181818 -503.84776249727133 L 555.5681818181818 -513.8477624972713 L 568.0681818181818 -513.8477624972713 Z"/>
    </clipPath>
    <clipPath id="clip23">
      <path d="M 605.4545454545455 -498.3662519100633 L 599.2045454545455 -508.3662519100633 L 611.7045454545455 -508.3662519100633 Z"/>
    </clipPath>
    <clipPath id="clip24">
      <path d="M 649.090909090909 -502.22837808338795 L 642.840909090909 -512.228378083388 L 655.340909090909 -512.228378083388 Z"/>
    </clipPath>
    <clipPath id="clip25">
      <path d="M 692.7272727272727 -505.8071600087317 L 686.4772727272727 -515.8071600087317 L 698.9772727272727 -515.8071600087317 Z"/>
    </clipPath>
    <clipPath id="clip26">
      <path d="M 736.3636363636364 -513.6908535254311 L 730.1136363636364 -523.6908535254311 L 742.6136363636364 -523.6908535254311 Z"/>
    </clipPath>
    <clipPath id="clip27">
      <path d="M 294 -294 L 294 -526 L 786 -526 L 786 -294 Z"/>
    </clipPath>
    <clipPath id="clip28">
      <path d="M 280 -280 L 280 -540 L 800 -540 L 800 -280 Z"/>
    </clipPath>
    <clipPath id="clip29">
      <path d="M 337.3863636363636 -341.5207072691552 L 349.8863636363636 -341.5207072691552 L 343.6363636363636 -351.5207072691552 Z"/>
    </clipPath>
    <clipPath id="clip30">
      <path d="M 381.02272727272725 -342.44777122898927 L 393.52272727272725 -342.44777122898927 L 387.27272727272725 -352.44777122898927 Z"/>
    </clipPath>
    <clipPath id="clip31">
      <path d="M 424.6590909090909 -342.3242523466492 L 437.1590909090909 -342.3242523466492 L 430.9090909090909 -352.3242523466492 Z"/>
    </clipPath>
    <clipPath id="clip32">
      <path d="M 468.2954545454545 -345.4922331368697 L 480.7954545454545 -345.4922331368697 L 474.5454545454545 -355.4922331368697 Z"/>
    </clipPath>
    <clipPath id="clip33">
      <path d="M 511.9318181818182 -346.01502728661865 L 524.4318181818182 -346.01502728661865 L 518.1818181818182 -356.01502728661865 Z"/>
    </clipPath>
    <clipPath id="clip34">
      <path d="M 555.5681818181818 -345.949617987339 L 568.0681818181818 -345.949617987339 L 561.8181818181818 -355.949617987339 Z"/>
    </clipPath>
    <clipPath id="clip35">
      <path d="M 599.2045454545455 -346.4659768609474 L 611.7045454545455 -346.4659768609474 L 605.4545454545455 -356.4659768609474 Z"/>
    </clipPath>
    <clipPath id="clip36">
      <path d="M 642.840909090909 -347.9708709888671 L 655.340909090909 -347.9708709888671 L 649.090909090909 -357.9708709888671 Z"/>
    </clipPath>
    <clipPath id="clip37">
      <path d="M 686.4772727272727 -364.6439030779306 L 698.9772727272727 -364.6439030779306 L 692.7272727272727 -374.6439030779306 Z"/>
    </clipPath>
    <clipPath id="clip38">
      <path d="M 730.1136363636364 -352.654695481336 L 742.6136363636364 -352.654695481336 L 736.3636363636364 -362.654695481336 Z"/>
    </clipPath>
    <clipPath id="clip39">
      <path d="M 290 -54 L 290 -136 L 444.272 -136 L 444.272 -54 Z"/>
    </clipPath>
    <clipPath id="clip40">
      <path d="M 308.0 -100.33333333333334 L 301.75 -110.33333333333334 L 314.25 -110.33333333333334 Z"/>
    </clipPath>
    <clipPath id="clip41">
      <path d="M 308.0 -80.33333333333334 L 301.75 -90.33333333333334 L 314.25 -90.33333333333334 Z"/>
    </clipPath>
    <clipPath id="clip42">
      <path d="M 301.75 -60.33333333333334 L 314.25 -60.33333333333334 L 308.0 -70.33333333333334 Z"/>
    </clipPath>
  </defs>
  <g style="stroke-linejoin:miter;font-size:8;font-family:Helvetica;fill:none;stroke-linecap:butt;stroke:rgb(0,0,0);font-stretch:normal;stroke-dasharray:none;font-weight:normal;font-style:normal;stroke-width:0.5;">
    <path d="M 300 -300 L 780 -300"/>
    <path d="M 300 -300 L 780 -300"/>
    <path d="M 300.0 -300 L 300.0 -288"/>
    <text style="font-size:12;font-style:italic;stroke:none;fill:rgb(0,0,0);" transform="rotate(90,300,-288)" x="300.0" y="-288.0">
      0
    </text>
    <path d="M 343.6363636363636 -300 L 343.6363636363636 -288"/>
    <text style="font-size:12;font-style:italic;stroke:none;fill:rgb(0,0,0);" transform="rotate(90,343.636,-288)" x="343.6363636363636" y="-288.0">
      200
    </text>
    <path d="M 387.27272727272725 -300 L 387.27272727272725 -288"/>
    <text style="font-size:12;font-style:italic;stroke:none;fill:rgb(0,0,0);" transform="rotate(90,387.273,-288)" x="387.27272727272725" y="-288.0">
      400
    </text>
    <path d="M 430.9090909090909 -300 L 430.9090909090909 -288"/>
    <text style="font-size:12;font-style:italic;stroke:none;fill:rgb(0,0,0);" transform="rotate(90,430.909,-288)" x="430.9090909090909" y="-288.0">
      600
    </text>
    <path d="M 474.5454545454545 -300 L 474.5454545454545 -288"/>
    <text style="font-size:12;font-style:italic;stroke:none;fill:rgb(0,0,0);" transform="rotate(90,474.545,-288)" x="474.5454545454545" y="-288.0">
      800
    </text>
    <path d="M 518.1818181818182 -300 L 518.1818181818182 -288"/>
    <text style="font-size:12;font-style:italic;stroke:none;fill:rgb(0,0,0);" transform="rotate(90,518.182,-288)" x="518.1818181818182" y="-288.0">
      1000
    </text>
    <path d="M 561.8181818181818 -300 L 561.8181818181818 -288"/>
    <text style="font-size:12;font-style:italic;stroke:none;fill:rgb(0,0,0);" transform="rotate(90,561.818,-288)" x="561.8181818181818" y="-288.0">
      1200
    </text>
    <path d="M 605.4545454545455 -300 L 605.4545454545455 -288"/>
    <text style="font-size:12;font-style:italic;stroke:none;fill:rgb(0,0,0);" transform="rotate(90,605.455,-288)" x="605.4545454545455" y="-288.0">
      1400
    </text>
    <path d="M 649.090909090909 -300 L 649.090909090909 -288"/>
    <text style="font-size:12;font-style:italic;stroke:none;fill:rgb(0,0,0);" transform="rotate(90,649.091,-288)" x="649.090909090909" y="-288.0">
      1600
    </text>
    <path d="M 692.7272727272727 -300 L 692.7272727272727 -288"/>
    <text style="font-size:12;font-style:italic;stroke:none;fill:rgb(0,0,0);" transform="rotate(90,692.727,-288)" x="692.7272727272727" y="-288.0">
      1800
    </text>
    <path d="M 736.3636363636364 -300 L 736.3636363636364 -288"/>
    <text style="font-size:12;font-style:italic;stroke:none;fill:rgb(0,0,0);" transform="rotate(90,736.364,-288)" x="736.3636363636364" y="-288.0">
      2000
    </text>
    <path d="M 780.0 -300 L 780.0 -288"/>
    <text style="font-size:12;font-style:italic;stroke:none;fill:rgb(0,0,0);" transform="rotate(90,780,-288)" x="780.0" y="-288.0">
      2200
    </text>
    <text style="font-size:16;stroke:none;fill:rgb(0,0,0);" x="524.44" y="-220.0">
      Size
    </text>
    <path d="M 300 -300 L 300 -520"/>
    <path d="M 300 -300.0 L 288 -300.0"/>
    <text style="font-size:12;font-style:italic;stroke:none;fill:rgb(0,0,0);" x="238.0" y="-294.0">
      0.00e+00
    </text>
    <path d="M 300 -344.0 L 288 -344.0"/>
    <text style="font-size:12;font-style:italic;stroke:none;fill:rgb(0,0,0);" x="238.0" y="-338.0">
      4.58e-08
    </text>
    <path d="M 300 -388.0 L 288 -388.0"/>
    <text style="font-size:12;font-style:italic;stroke:none;fill:rgb(0,0,0);" x="238.0" y="-382.0">
      9.16e-08
    </text>
    <path d="M 300 -432.0 L 288 -432.0"/>
    <text style="font-size:12;font-style:italic;stroke:none;fill:rgb(0,0,0);" x="238.0" y="-426.0">
      1.37e-07
    </text>
    <path d="M 300 -476.0 L 288 -476.0"/>
    <text style="font-size:12;font-style:italic;stroke:none;fill:rgb(0,0,0);" x="238.0" y="-470.0">
      1.83e-07
    </text>
    <path d="M 300 -520.0 L 288 -520.0"/>
    <text style="font-size:12;font-style:italic;stroke:none;fill:rgb(0,0,0);" x="238.0" y="-514.0">
      2.29e-07
    </text>
    <text style="font-size:16;stroke:none;fill:rgb(0,0,0);" transform="rotate(-90,200,-340.648)" x="200.0" y="-340.648">
      Average time (sec.)
    </text>
    <g style="clip-path:url(#clip0);">
      <g style="clip-path:url(#clip1);">
        <path d="M 343.6363636363636 -465.1580004365859 L 387.27272727272725 -478.9583060467147 L 430.9090909090909 -489.1817507094521 L 474.5454545454545 -495.6640908098668 L 518.1818181818182 -501.2483737175289 L 561.8181818181818 -506.5569962890198 L 605.4545454545455 -514.3311940624318 L 649.090909090909 -515.5855926653569 L 692.7272727272727 -518.9146474568871 L 736.3636363636364 -520.0" style="stroke:rgb(255,68,0);stroke-width:2;"/>
      </g>
      <g style="clip-path:url(#clip2);">
        <path d="M 338.6363636363636 -460.1580004365859 L 348.6363636363636 -470.1580004365859" style="stroke-width:1;"/>
        <path d="M 348.6363636363636 -460.1580004365859 L 338.6363636363636 -470.1580004365859" style="stroke-width:1;"/>
        <path d="M 343.6363636363636 -458.08800043658596 L 343.6363636363636 -472.22800043658594" style="stroke-width:1;"/>
        <path d="M 336.56636363636363 -465.1580004365859 L 350.7063636363636 -465.1580004365859" style="stroke-width:1;"/>
        <path d="M 382.27272727272725 -473.9583060467147 L 392.27272727272725 -483.9583060467147" style="stroke-width:1;"/>
        <path d="M 392.27272727272725 -473.9583060467147 L 382.27272727272725 -483.9583060467147" style="stroke-width:1;"/>
        <path d="M 387.27272727272725 -471.88830604671466 L 387.27272727272725 -486.02830604671465" style="stroke-width:1;"/>
        <path d="M 380.20272727272726 -478.9583060467147 L 394.34272727272725 -478.9583060467147" style="stroke-width:1;"/>
        <path d="M 425.9090909090909 -484.1817507094521 L 435.9090909090909 -494.1817507094521" style="stroke-width:1;"/>
        <path d="M 435.9090909090909 -484.1817507094521 L 425.9090909090909 -494.1817507094521" style="stroke-width:1;"/>
        <path d="M 430.9090909090909 -482.11175070945205 L 430.9090909090909 -496.25175070945204" style="stroke-width:1;"/>
        <path d="M 423.83909090909094 -489.1817507094521 L 437.9790909090909 -489.1817507094521" style="stroke-width:1;"/>
        <path d="M 469.5454545454545 -490.6640908098668 L 479.5454545454545 -500.6640908098668" style="stroke-width:1;"/>
        <path d="M 479.5454545454545 -490.6640908098668 L 469.5454545454545 -500.6640908098668" style="stroke-width:1;"/>
        <path d="M 474.5454545454545 -488.5940908098668 L 474.5454545454545 -502.7340908098668" style="stroke-width:1;"/>
        <path d="M 467.47545454545457 -495.6640908098668 L 481.61545454545455 -495.6640908098668" style="stroke-width:1;"/>
        <path d="M 513.1818181818182 -496.2483737175289 L 523.1818181818182 -506.2483737175289" style="stroke-width:1;"/>
        <path d="M 523.1818181818182 -496.2483737175289 L 513.1818181818182 -506.2483737175289" style="stroke-width:1;"/>
        <path d="M 518.1818181818182 -494.17837371752887 L 518.1818181818182 -508.31837371752886" style="stroke-width:1;"/>
        <path d="M 511.1118181818182 -501.2483737175289 L 525.2518181818182 -501.2483737175289" style="stroke-width:1;"/>
        <path d="M 556.8181818181818 -501.5569962890198 L 566.8181818181818 -511.5569962890198" style="stroke-width:1;"/>
        <path d="M 566.8181818181818 -501.5569962890198 L 556.8181818181818 -511.5569962890198" style="stroke-width:1;"/>
        <path d="M 561.8181818181818 -499.4869962890199 L 561.8181818181818 -513.6269962890199" style="stroke-width:1;"/>
        <path d="M 554.7481818181818 -506.5569962890198 L 568.8881818181818 -506.5569962890198" style="stroke-width:1;"/>
        <path d="M 600.4545454545455 -509.3311940624318 L 610.4545454545455 -519.3311940624318" style="stroke-width:1;"/>
        <path d="M 610.4545454545455 -509.3311940624318 L 600.4545454545455 -519.3311940624318" style="stroke-width:1;"/>
        <path d="M 605.4545454545455 -507.2611940624318 L 605.4545454545455 -521.4011940624318" style="stroke-width:1;"/>
        <path d="M 598.3845454545454 -514.3311940624318 L 612.5245454545454 -514.3311940624318" style="stroke-width:1;"/>
        <path d="M 644.090909090909 -510.5855926653569 L 654.090909090909 -520.5855926653569" style="stroke-width:1;"/>
        <path d="M 654.090909090909 -510.5855926653569 L 644.090909090909 -520.5855926653569" style="stroke-width:1;"/>
        <path d="M 649.090909090909 -508.51559266535696 L 649.090909090909 -522.655592665357" style="stroke-width:1;"/>
        <path d="M 642.0209090909091 -515.5855926653569 L 656.1609090909091 -515.5855926653569" style="stroke-width:1;"/>
        <path d="M 687.7272727272727 -513.9146474568871 L 697.7272727272727 -523.9146474568871" style="stroke-width:1;"/>
        <path d="M 697.7272727272727 -513.9146474568871 L 687.7272727272727 -523.9146474568871" style="stroke-width:1;"/>
        <path d="M 692.7272727272727 -511.8446474568871 L 692.7272727272727 -525.9846474568872" style="stroke-width:1;"/>
        <path d="M 685.6572727272728 -518.9146474568871 L 699.7972727272727 -518.9146474568871" style="stroke-width:1;"/>
        <path d="M 731.3636363636364 -515.0 L 741.3636363636364 -525.0" style="stroke-width:1;"/>
        <path d="M 741.3636363636364 -515.0 L 731.3636363636364 -525.0" style="stroke-width:1;"/>
        <path d="M 736.3636363636364 -512.9300000000001 L 736.3636363636364 -527.0699999999999" style="stroke-width:1;"/>
        <path d="M 729.2936363636363 -520.0 L 743.4336363636364 -520.0" style="stroke-width:1;"/>
      </g>
      <g style="clip-path:url(#clip3);">
        <path d="M 343.6363636363636 -462.25444226151495 L 387.27272727272725 -476.6905915738922 L 430.9090909090909 -483.1479589609256 L 474.5454545454545 -490.3160881903515 L 518.1818181818182 -493.81130757476535 L 561.8181818181818 -499.11704867932764 L 605.4545454545455 -501.24549225060025 L 649.090909090909 -500.10154987993883 L 692.7272727272727 -513.4725169177036 L 736.3636363636364 -514.5425016371971" style="stroke:rgb(126,126,126);stroke-width:0.4;stroke-dasharray:1.5,1.5;"/>
      </g>
      <g style="clip-path:url(#clip4);">
        <g style="fill:rgb(0,0,0);clip-path:url(#clip5);">
          <path d="M 337.3863636363636 -457.25444226151495 L 337.3863636363636 -467.25444226151495 L 349.8863636363636 -467.25444226151495 L 349.8863636363636 -457.25444226151495 Z" style="stroke:none;"/>
        </g>
        <g>
          <path d="M 343.6363636363636 -457.25444226151495 L 337.3863636363636 -467.25444226151495 L 349.8863636363636 -467.25444226151495 Z"/>
          <g style="fill:rgb(0,0,0);clip-path:url(#clip6);">
            <path d="M 381.02272727272725 -471.6905915738922 L 381.02272727272725 -481.6905915738922 L 393.52272727272725 -481.6905915738922 L 393.52272727272725 -471.6905915738922 Z" style="stroke:none;"/>
          </g>
          <g>
            <path d="M 387.27272727272725 -471.6905915738922 L 381.02272727272725 -481.6905915738922 L 393.52272727272725 -481.6905915738922 Z"/>
            <g style="fill:rgb(0,0,0);clip-path:url(#clip7);">
              <path d="M 424.6590909090909 -478.1479589609256 L 424.6590909090909 -488.1479589609256 L 437.1590909090909 -488.1479589609256 L 437.1590909090909 -478.1479589609256 Z" style="stroke:none;"/>
            </g>
            <g>
              <path d="M 430.9090909090909 -478.1479589609256 L 424.6590909090909 -488.1479589609256 L 437.1590909090909 -488.1479589609256 Z"/>
              <g style="fill:rgb(0,0,0);clip-path:url(#clip8);">
                <path d="M 468.2954545454545 -485.3160881903515 L 468.2954545454545 -495.3160881903515 L 480.7954545454545 -495.3160881903515 L 480.7954545454545 -485.3160881903515 Z" style="stroke:none;"/>
              </g>
              <g>
                <path d="M 474.5454545454545 -485.3160881903515 L 468.2954545454545 -495.3160881903515 L 480.7954545454545 -495.3160881903515 Z"/>
                <g style="fill:rgb(0,0,0);clip-path:url(#clip9);">
                  <path d="M 511.9318181818182 -488.81130757476535 L 511.9318181818182 -498.81130757476535 L 524.4318181818182 -498.81130757476535 L 524.4318181818182 -488.81130757476535 Z" style="stroke:none;"/>
                </g>
                <g>
                  <path d="M 518.1818181818182 -488.81130757476535 L 511.9318181818182 -498.81130757476535 L 524.4318181818182 -498.81130757476535 Z"/>
                  <g style="fill:rgb(0,0,0);clip-path:url(#clip10);">
                    <path d="M 555.5681818181818 -494.11704867932764 L 555.5681818181818 -504.11704867932764 L 568.0681818181818 -504.11704867932764 L 568.0681818181818 -494.11704867932764 Z" style="stroke:none;"/>
                  </g>
                  <g>
                    <path d="M 561.8181818181818 -494.11704867932764 L 555.5681818181818 -504.11704867932764 L 568.0681818181818 -504.11704867932764 Z"/>
                    <g style="fill:rgb(0,0,0);clip-path:url(#clip11);">
                      <path d="M 599.2045454545455 -496.24549225060025 L 599.2045454545455 -506.24549225060025 L 611.7045454545455 -506.24549225060025 L 611.7045454545455 -496.24549225060025 Z" style="stroke:none;"/>
                    </g>
                    <g>
                      <path d="M 605.4545454545455 -496.24549225060025 L 599.2045454545455 -506.24549225060025 L 611.7045454545455 -506.24549225060025 Z"/>
                      <g style="fill:rgb(0,0,0);clip-path:url(#clip12);">
                        <path d="M 642.840909090909 -495.10154987993883 L 642.840909090909 -505.10154987993883 L 655.340909090909 -505.10154987993883 L 655.340909090909 -495.10154987993883 Z" style="stroke:none;"/>
                      </g>
                      <g>
                        <path d="M 649.090909090909 -495.10154987993883 L 642.840909090909 -505.10154987993883 L 655.340909090909 -505.10154987993883 Z"/>
                        <g style="fill:rgb(0,0,0);clip-path:url(#clip13);">
                          <path d="M 686.4772727272727 -508.47251691770356 L 686.4772727272727 -518.4725169177036 L 698.9772727272727 -518.4725169177036 L 698.9772727272727 -508.47251691770356 Z" style="stroke:none;"/>
                        </g>
                        <g>
                          <path d="M 692.7272727272727 -508.47251691770356 L 686.4772727272727 -518.4725169177036 L 698.9772727272727 -518.4725169177036 Z"/>
                          <g style="fill:rgb(0,0,0);clip-path:url(#clip14);">
                            <path d="M 730.1136363636364 -509.5425016371971 L 730.1136363636364 -519.5425016371971 L 742.6136363636364 -519.5425016371971 L 742.6136363636364 -509.5425016371971 Z" style="stroke:none;"/>
                          </g>
                          <g>
                            <path d="M 736.3636363636364 -509.5425016371971 L 730.1136363636364 -519.5425016371971 L 742.6136363636364 -519.5425016371971 Z"/>
                          </g>
                        </g>
                      </g>
                    </g>
                  </g>
                </g>
              </g>
            </g>
          </g>
        </g>
      </g>
      <g style="clip-path:url(#clip15);">
        <path d="M 343.6363636363636 -463.6317834533944 L 387.27272727272725 -477.8114822091246 L 430.9090909090909 -485.7537655533726 L 474.5454545454545 -490.5734992359746 L 518.1818181818182 -300.0 L 561.8181818181818 -508.84776249727133 L 605.4545454545455 -503.3662519100633 L 649.090909090909 -507.22837808338795 L 692.7272727272727 -510.8071600087317 L 736.3636363636364 -518.6908535254311" style="stroke:rgb(205,0,0);stroke-width:2;"/>
      </g>
      <g style="clip-path:url(#clip16);">
        <g style="fill:rgb(255,255,255);clip-path:url(#clip17);">
          <path d="M 337.3863636363636 -458.6317834533944 L 337.3863636363636 -468.6317834533944 L 349.8863636363636 -468.6317834533944 L 349.8863636363636 -458.6317834533944 Z" style="stroke:none;"/>
        </g>
        <g>
          <path d="M 343.6363636363636 -458.6317834533944 L 337.3863636363636 -468.6317834533944 L 349.8863636363636 -468.6317834533944 Z"/>
          <g style="fill:rgb(255,255,255);clip-path:url(#clip18);">
            <path d="M 381.02272727272725 -472.8114822091246 L 381.02272727272725 -482.8114822091246 L 393.52272727272725 -482.8114822091246 L 393.52272727272725 -472.8114822091246 Z" style="stroke:none;"/>
          </g>
          <g>
            <path d="M 387.27272727272725 -472.8114822091246 L 381.02272727272725 -482.8114822091246 L 393.52272727272725 -482.8114822091246 Z"/>
            <g style="fill:rgb(255,255,255);clip-path:url(#clip19);">
              <path d="M 424.6590909090909 -480.7537655533726 L 424.6590909090909 -490.7537655533726 L 437.1590909090909 -490.7537655533726 L 437.1590909090909 -480.7537655533726 Z" style="stroke:none;"/>
            </g>
            <g>
              <path d="M 430.9090909090909 -480.7537655533726 L 424.6590909090909 -490.7537655533726 L 437.1590909090909 -490.7537655533726 Z"/>
              <g style="fill:rgb(255,255,255);clip-path:url(#clip20);">
                <path d="M 468.2954545454545 -485.5734992359746 L 468.2954545454545 -495.5734992359746 L 480.7954545454545 -495.5734992359746 L 480.7954545454545 -485.5734992359746 Z" style="stroke:none;"/>
              </g>
              <g>
                <path d="M 474.5454545454545 -485.5734992359746 L 468.2954545454545 -495.5734992359746 L 480.7954545454545 -495.5734992359746 Z"/>
                <g style="fill:rgb(255,255,255);clip-path:url(#clip21);">
                  <path d="M 511.9318181818182 -295.0 L 511.9318181818182 -305.0 L 524.4318181818182 -305.0 L 524.4318181818182 -295.0 Z" style="stroke:none;"/>
                </g>
                <g>
                  <path d="M 518.1818181818182 -295.0 L 511.9318181818182 -305.0 L 524.4318181818182 -305.0 Z"/>
                  <g style="fill:rgb(255,255,255);clip-path:url(#clip22);">
                    <path d="M 555.5681818181818 -503.84776249727133 L 555.5681818181818 -513.8477624972713 L 568.0681818181818 -513.8477624972713 L 568.0681818181818 -503.84776249727133 Z" style="stroke:none;"/>
                  </g>
                  <g>
                    <path d="M 561.8181818181818 -503.84776249727133 L 555.5681818181818 -513.8477624972713 L 568.0681818181818 -513.8477624972713 Z"/>
                    <g style="fill:rgb(255,255,255);clip-path:url(#clip23);">
                      <path d="M 599.2045454545455 -498.3662519100633 L 599.2045454545455 -508.3662519100633 L 611.7045454545455 -508.3662519100633 L 611.7045454545455 -498.3662519100633 Z" style="stroke:none;"/>
                    </g>
                    <g>
                      <path d="M 605.4545454545455 -498.3662519100633 L 599.2045454545455 -508.3662519100633 L 611.7045454545455 -508.3662519100633 Z"/>
                      <g style="fill:rgb(255,255,255);clip-path:url(#clip24);">
                        <path d="M 642.840909090909 -502.22837808338795 L 642.840909090909 -512.228378083388 L 655.340909090909 -512.228378083388 L 655.340909090909 -502.22837808338795 Z" style="stroke:none;"/>
                      </g>
                      <g>
                        <path d="M 649.090909090909 -502.22837808338795 L 642.840909090909 -512.228378083388 L 655.340909090909 -512.228378083388 Z"/>
                        <g style="fill:rgb(255,255,255);clip-path:url(#clip25);">
                          <path d="M 686.4772727272727 -505.8071600087317 L 686.4772727272727 -515.8071600087317 L 698.9772727272727 -515.8071600087317 L 698.9772727272727 -505.8071600087317 Z" style="stroke:none;"/>
                        </g>
                        <g>
                          <path d="M 692.7272727272727 -505.8071600087317 L 686.4772727272727 -515.8071600087317 L 698.9772727272727 -515.8071600087317 Z"/>
                          <g style="fill:rgb(255,255,255);clip-path:url(#clip26);">
                            <path d="M 730.1136363636364 -513.6908535254311 L 730.1136363636364 -523.6908535254311 L 742.6136363636364 -523.6908535254311 L 742.6136363636364 -513.6908535254311 Z" style="stroke:none;"/>
                          </g>
                          <g>
                            <path d="M 736.3636363636364 -513.6908535254311 L 730.1136363636364 -523.6908535254311 L 742.6136363636364 -523.6908535254311 Z"/>
                          </g>
                        </g>
                      </g>
                    </g>
                  </g>
                </g>
              </g>
            </g>
          </g>
        </g>
      </g>
      <g style="clip-path:url(#clip27);">
        <path d="M 343.6363636363636 -346.5207072691552 L 387.27272727272725 -347.44777122898927 L 430.9090909090909 -347.3242523466492 L 474.5454545454545 -350.4922331368697 L 518.1818181818182 -351.01502728661865 L 561.8181818181818 -350.949617987339 L 605.4545454545455 -351.4659768609474 L 649.090909090909 -352.9708709888671 L 692.7272727272727 -369.6439030779306 L 736.3636363636364 -357.654695481336" style="stroke:rgb(147,147,147);stroke-width:2;"/>
      </g>
      <g style="clip-path:url(#clip28);">
        <g style="fill:rgb(255,255,255);clip-path:url(#clip29);">
          <path d="M 337.3863636363636 -341.5207072691552 L 337.3863636363636 -351.5207072691552 L 349.8863636363636 -351.5207072691552 L 349.8863636363636 -341.5207072691552 Z" style="stroke:none;"/>
        </g>
        <g>
          <path d="M 337.3863636363636 -341.5207072691552 L 349.8863636363636 -341.5207072691552 L 343.6363636363636 -351.5207072691552 Z"/>
          <g style="fill:rgb(255,255,255);clip-path:url(#clip30);">
            <path d="M 381.02272727272725 -342.44777122898927 L 381.02272727272725 -352.44777122898927 L 393.52272727272725 -352.44777122898927 L 393.52272727272725 -342.44777122898927 Z" style="stroke:none;"/>
          </g>
          <g>
            <path d="M 381.02272727272725 -342.44777122898927 L 393.52272727272725 -342.44777122898927 L 387.27272727272725 -352.44777122898927 Z"/>
            <g style="fill:rgb(255,255,255);clip-path:url(#clip31);">
              <path d="M 424.6590909090909 -342.3242523466492 L 424.6590909090909 -352.3242523466492 L 437.1590909090909 -352.3242523466492 L 437.1590909090909 -342.3242523466492 Z" style="stroke:none;"/>
            </g>
            <g>
              <path d="M 424.6590909090909 -342.3242523466492 L 437.1590909090909 -342.3242523466492 L 430.9090909090909 -352.3242523466492 Z"/>
              <g style="fill:rgb(255,255,255);clip-path:url(#clip32);">
                <path d="M 468.2954545454545 -345.4922331368697 L 468.2954545454545 -355.4922331368697 L 480.7954545454545 -355.4922331368697 L 480.7954545454545 -345.4922331368697 Z" style="stroke:none;"/>
              </g>
              <g>
                <path d="M 468.2954545454545 -345.4922331368697 L 480.7954545454545 -345.4922331368697 L 474.5454545454545 -355.4922331368697 Z"/>
                <g style="fill:rgb(255,255,255);clip-path:url(#clip33);">
                  <path d="M 511.9318181818182 -346.01502728661865 L 511.9318181818182 -356.01502728661865 L 524.4318181818182 -356.01502728661865 L 524.4318181818182 -346.01502728661865 Z" style="stroke:none;"/>
                </g>
                <g>
                  <path d="M 511.9318181818182 -346.01502728661865 L 524.4318181818182 -346.01502728661865 L 518.1818181818182 -356.01502728661865 Z"/>
                  <g style="fill:rgb(255,255,255);clip-path:url(#clip34);">
                    <path d="M 555.5681818181818 -345.949617987339 L 555.5681818181818 -355.949617987339 L 568.0681818181818 -355.949617987339 L 568.0681818181818 -345.949617987339 Z" style="stroke:none;"/>
                  </g>
                  <g>
                    <path d="M 555.5681818181818 -345.949617987339 L 568.0681818181818 -345.949617987339 L 561.8181818181818 -355.949617987339 Z"/>
                    <g style="fill:rgb(255,255,255);clip-path:url(#clip35);">
                      <path d="M 599.2045454545455 -346.4659768609474 L 599.2045454545455 -356.4659768609474 L 611.7045454545455 -356.4659768609474 L 611.7045454545455 -346.4659768609474 Z" style="stroke:none;"/>
                    </g>
                    <g>
                      <path d="M 599.2045454545455 -346.4659768609474 L 611.7045454545455 -346.4659768609474 L 605.4545454545455 -356.4659768609474 Z"/>
                      <g style="fill:rgb(255,255,255);clip-path:url(#clip36);">
                        <path d="M 642.840909090909 -347.9708709888671 L 642.840909090909 -357.9708709888671 L 655.340909090909 -357.9708709888671 L 655.340909090909 -347.9708709888671 Z" style="stroke:none;"/>
                      </g>
                      <g>
                        <path d="M 642.840909090909 -347.9708709888671 L 655.340909090909 -347.9708709888671 L 649.090909090909 -357.9708709888671 Z"/>
                        <g style="fill:rgb(255,255,255);clip-path:url(#clip37);">
                          <path d="M 686.4772727272727 -364.6439030779306 L 686.4772727272727 -374.6439030779306 L 698.9772727272727 -374.6439030779306 L 698.9772727272727 -364.6439030779306 Z" style="stroke:none;"/>
                        </g>
                        <g>
                          <path d="M 686.4772727272727 -364.6439030779306 L 698.9772727272727 -364.6439030779306 L 692.7272727272727 -374.6439030779306 Z"/>
                          <g style="fill:rgb(255,255,255);clip-path:url(#clip38);">
                            <path d="M 730.1136363636364 -352.654695481336 L 730.1136363636364 -362.654695481336 L 742.6136363636364 -362.654695481336 L 742.6136363636364 -352.654695481336 Z" style="stroke:none;"/>
                          </g>
                          <g>
                            <path d="M 730.1136363636364 -352.654695481336 L 742.6136363636364 -352.654695481336 L 736.3636363636364 -362.654695481336 Z"/>
                          </g>
                        </g>
                      </g>
                    </g>
                  </g>
                </g>
              </g>
            </g>
          </g>
        </g>
      </g>
    </g>
    <g style="fill:rgb(255,255,255);clip-path:url(#clip39);">
      <path d="M 290 -54 L 290 -136 L 444.272 -136 L 444.272 -54 Z" style="stroke:none;"/>
    </g>
    <path d="M 300 -125.33333333333334 L 316 -125.33333333333334" style="stroke:rgb(255,68,0);stroke-width:2;"/>
    <path d="M 303.0 -120.33333333333334 L 313.0 -130.33333333333334" style="stroke-width:1;"/>
    <path d="M 313.0 -120.33333333333334 L 303.0 -130.33333333333334" style="stroke-width:1;"/>
    <path d="M 308.0 -118.26333333333335 L 308.0 -132.40333333333334" style="stroke-width:1;"/>
    <path d="M 300.93 -125.33333333333334 L 315.07 -125.33333333333334" style="stroke-width:1;"/>
    <text style="font-size:16;stroke:none;fill:rgb(0,0,0);" x="316.0" y="-120.0">
      ov_tree_map
    </text>
    <path d="M 300 -105.33333333333334 L 316 -105.33333333333334" style="stroke:rgb(126,126,126);stroke-width:0.4;stroke-dasharray:1.5,1.5;"/>
    <g style="fill:rgb(0,0,0);clip-path:url(#clip40);">
      <path d="M 301.75 -100.33333333333334 L 301.75 -110.33333333333334 L 314.25 -110.33333333333334 L 314.25 -100.33333333333334 Z" style="stroke:none;"/>
    </g>
    <g>
      <path d="M 308.0 -100.33333333333334 L 301.75 -110.33333333333334 L 314.25 -110.33333333333334 Z"/>
      <text style="font-size:16;stroke:none;fill:rgb(0,0,0);" x="316.0" y="-100.0">
        n_map
      </text>
      <path d="M 300 -85.33333333333334 L 316 -85.33333333333334" style="stroke:rgb(205,0,0);stroke-width:2;"/>
      <g style="fill:rgb(255,255,255);clip-path:url(#clip41);">
        <path d="M 301.75 -80.33333333333334 L 301.75 -90.33333333333334 L 314.25 -90.33333333333334 L 314.25 -80.33333333333334 Z" style="stroke:none;"/>
      </g>
      <g>
        <path d="M 308.0 -80.33333333333334 L 301.75 -90.33333333333334 L 314.25 -90.33333333333334 Z"/>
        <text style="font-size:16;stroke:none;fill:rgb(0,0,0);" x="316.0" y="-80.0">
          rb_tree_map
        </text>
        <path d="M 300 -65.33333333333334 L 316 -65.33333333333334" style="stroke:rgb(147,147,147);stroke-width:2;"/>
        <g style="fill:rgb(255,255,255);clip-path:url(#clip42);">
          <path d="M 301.75 -60.33333333333334 L 301.75 -70.33333333333334 L 314.25 -70.33333333333334 L 314.25 -60.33333333333334 Z" style="stroke:none;"/>
        </g>
        <g>
          <path d="M 301.75 -60.33333333333334 L 314.25 -60.33333333333334 L 308.0 -70.33333333333334 Z"/>
          <text style="font-size:16;stroke:none;fill:rgb(0,0,0);" x="316.0" y="-60.0">
            splay_tree_map
          </text>
        </g>
      </g>
    </g>
  </g>
</svg>
