<?xml version="1.0" ?>
<!--Created by PyChart 1.39 Copyright 1999-2006 Yasushi Saito-->
<svg viewBox="178 -544 620 476" xmlns="http://www.w3.org/2000/svg" xmlns:xlink="http://www.w3.org/1999/xlink">
  <defs>
    <clipPath id="clip0">
      <path d="M 294 -294 L 294 -526 L 786 -526 L 786 -294 Z"/>
    </clipPath>
    <clipPath id="clip1">
      <path d="M 294 -294 L 294 -526 L 786 -526 L 786 -294 Z"/>
    </clipPath>
    <clipPath id="clip2">
      <path d="M 280 -280 L 280 -540 L 800 -540 L 800 -280 Z"/>
    </clipPath>
    <clipPath id="clip3">
      <path d="M 337.3863636363636 -456.2759118293427 L 349.8863636363636 -456.2759118293427 L 343.6363636363636 -466.2759118293427 Z"/>
    </clipPath>
    <clipPath id="clip4">
      <path d="M 381.02272727272725 -476.2113787873962 L 393.52272727272725 -476.2113787873962 L 387.27272727272725 -486.2113787873962 Z"/>
    </clipPath>
    <clipPath id="clip5">
      <path d="M 424.6590909090909 -484.0500608825396 L 437.1590909090909 -484.0500608825396 L 430.9090909090909 -494.0500608825396 Z"/>
    </clipPath>
    <clipPath id="clip6">
      <path d="M 468.2954545454545 -497.8495478522061 L 480.7954545454545 -497.8495478522061 L 474.5454545454545 -507.8495478522061 Z"/>
    </clipPath>
    <clipPath id="clip7">
      <path d="M 511.9318181818182 -494.7573028422468 L 524.4318181818182 -494.7573028422468 L 518.1818181818182 -504.7573028422468 Z"/>
    </clipPath>
    <clipPath id="clip8">
      <path d="M 555.5681818181818 -500.76338374619945 L 568.0681818181818 -500.76338374619945 L 561.8181818181818 -510.76338374619945 Z"/>
    </clipPath>
    <clipPath id="clip9">
      <path d="M 599.2045454545455 -501.67213833688993 L 611.7045454545455 -501.67213833688993 L 605.4545454545455 -511.67213833688993 Z"/>
    </clipPath>
    <clipPath id="clip10">
      <path d="M 642.840909090909 -504.6113072473497 L 655.340909090909 -504.6113072473497 L 649.090909090909 -514.6113072473497 Z"/>
    </clipPath>
    <clipPath id="clip11">
      <path d="M 686.4772727272727 -508.88881402772915 L 698.9772727272727 -508.88881402772915 L 692.7272727272727 -518.8888140277292 Z"/>
    </clipPath>
    <clipPath id="clip12">
      <path d="M 730.1136363636364 -515.0 L 742.6136363636364 -515.0 L 736.3636363636364 -525.0 Z"/>
    </clipPath>
    <clipPath id="clip13">
      <path d="M 294 -294 L 294 -526 L 786 -526 L 786 -294 Z"/>
    </clipPath>
    <clipPath id="clip14">
      <path d="M 280 -280 L 280 -540 L 800 -540 L 800 -280 Z"/>
    </clipPath>
    <clipPath id="clip15">
      <path d="M 343.6363636363636 -435.0759500493675 L 337.3863636363636 -445.0759500493675 L 349.8863636363636 -445.0759500493675 Z"/>
    </clipPath>
    <clipPath id="clip16">
      <path d="M 387.27272727272725 -441.97407653314974 L 381.02272727272725 -451.97407653314974 L 393.52272727272725 -451.97407653314974 Z"/>
    </clipPath>
    <clipPath id="clip17">
      <path d="M 430.9090909090909 -446.33243336608166 L 424.6590909090909 -456.33243336608166 L 437.1590909090909 -456.33243336608166 Z"/>
    </clipPath>
    <clipPath id="clip18">
      <path d="M 474.5454545454545 -449.28399928459953 L 468.2954545454545 -459.28399928459953 L 480.7954545454545 -459.28399928459953 Z"/>
    </clipPath>
    <clipPath id="clip19">
      <path d="M 518.1818181818182 -452.6969495030172 L 511.9318181818182 -462.6969495030172 L 524.4318181818182 -462.6969495030172 Z"/>
    </clipPath>
    <clipPath id="clip20">
      <path d="M 561.8181818181818 -452.33528026793215 L 555.5681818181818 -462.33528026793215 L 568.0681818181818 -462.33528026793215 Z"/>
    </clipPath>
    <clipPath id="clip21">
      <path d="M 605.4545454545455 -453.19067382393797 L 599.2045454545455 -463.19067382393797 L 611.7045454545455 -463.19067382393797 Z"/>
    </clipPath>
    <clipPath id="clip22">
      <path d="M 649.090909090909 -454.40288561187566 L 642.840909090909 -464.40288561187566 L 655.340909090909 -464.40288561187566 Z"/>
    </clipPath>
    <clipPath id="clip23">
      <path d="M 692.7272727272727 -457.3361255184816 L 686.4772727272727 -467.3361255184816 L 698.9772727272727 -467.3361255184816 Z"/>
    </clipPath>
    <clipPath id="clip24">
      <path d="M 736.3636363636364 -462.6889379978097 L 730.1136363636364 -472.6889379978097 L 742.6136363636364 -472.6889379978097 Z"/>
    </clipPath>
    <clipPath id="clip25">
      <path d="M 294 -294 L 294 -526 L 786 -526 L 786 -294 Z"/>
    </clipPath>
    <clipPath id="clip26">
      <path d="M 280 -280 L 280 -540 L 800 -540 L 800 -280 Z"/>
    </clipPath>
    <clipPath id="clip27">
      <path d="M 343.6363636363636 -418.16804805923124 L 337.3863636363636 -428.16804805923124 L 349.8863636363636 -428.16804805923124 Z"/>
    </clipPath>
    <clipPath id="clip28">
      <path d="M 387.27272727272725 -425.19337862569614 L 381.02272727272725 -435.19337862569614 L 393.52272727272725 -435.19337862569614 Z"/>
    </clipPath>
    <clipPath id="clip29">
      <path d="M 430.9090909090909 -427.74015528110095 L 424.6590909090909 -437.74015528110095 L 437.1590909090909 -437.74015528110095 Z"/>
    </clipPath>
    <clipPath id="clip30">
      <path d="M 474.5454545454545 -432.0182010618307 L 468.2954545454545 -442.0182010618307 L 480.7954545454545 -442.0182010618307 Z"/>
    </clipPath>
    <clipPath id="clip31">
      <path d="M 518.1818181818182 -435.5766813748429 L 511.9318181818182 -445.5766813748429 L 524.4318181818182 -445.5766813748429 Z"/>
    </clipPath>
    <clipPath id="clip32">
      <path d="M 561.8181818181818 -439.89245718009715 L 555.5681818181818 -449.89245718009715 L 568.0681818181818 -449.89245718009715 Z"/>
    </clipPath>
    <clipPath id="clip33">
      <path d="M 605.4545454545455 -437.68363374436194 L 599.2045454545455 -447.68363374436194 L 611.7045454545455 -447.68363374436194 Z"/>
    </clipPath>
    <clipPath id="clip34">
      <path d="M 649.090909090909 -439.59492898670385 L 642.840909090909 -449.59492898670385 L 655.340909090909 -449.59492898670385 Z"/>
    </clipPath>
    <clipPath id="clip35">
      <path d="M 692.7272727272727 -440.9365008587256 L 686.4772727272727 -450.9365008587256 L 698.9772727272727 -450.9365008587256 Z"/>
    </clipPath>
    <clipPath id="clip36">
      <path d="M 736.3636363636364 -443.992093844861 L 730.1136363636364 -453.992093844861 L 742.6136363636364 -453.992093844861 Z"/>
    </clipPath>
    <clipPath id="clip37">
      <path d="M 290 -74 L 290 -136 L 444.272 -136 L 444.272 -74 Z"/>
    </clipPath>
    <clipPath id="clip38">
      <path d="M 301.75 -120.33333333333334 L 314.25 -120.33333333333334 L 308.0 -130.33333333333334 Z"/>
    </clipPath>
    <clipPath id="clip39">
      <path d="M 308.0 -100.33333333333334 L 301.75 -110.33333333333334 L 314.25 -110.33333333333334 Z"/>
    </clipPath>
    <clipPath id="clip40">
      <path d="M 308.0 -80.33333333333334 L 301.75 -90.33333333333334 L 314.25 -90.33333333333334 Z"/>
    </clipPath>
  </defs>
  <g style="stroke-linejoin:miter;font-size:8;font-family:Helvetica;fill:none;stroke-linecap:butt;stroke:rgb(0,0,0);font-stretch:normal;stroke-dasharray:none;font-weight:normal;font-style:normal;stroke-width:0.5;">
    <path d="M 300 -300 L 780 -300"/>
    <path d="M 300 -300 L 780 -300"/>
    <path d="M 300.0 -300 L 300.0 -288"/>
    <text style="font-size:12;font-style:italic;stroke:none;fill:rgb(0,0,0);" transform="rotate(90,300,-288)" x="300.0" y="-288.0">
      0
    </text>
    <path d="M 343.6363636363636 -300 L 343.6363636363636 -288"/>
    <text style="font-size:12;font-style:italic;stroke:none;fill:rgb(0,0,0);" transform="rotate(90,343.636,-288)" x="343.6363636363636" y="-288.0">
      200
    </text>
    <path d="M 387.27272727272725 -300 L 387.27272727272725 -288"/>
    <text style="font-size:12;font-style:italic;stroke:none;fill:rgb(0,0,0);" transform="rotate(90,387.273,-288)" x="387.27272727272725" y="-288.0">
      400
    </text>
    <path d="M 430.9090909090909 -300 L 430.9090909090909 -288"/>
    <text style="font-size:12;font-style:italic;stroke:none;fill:rgb(0,0,0);" transform="rotate(90,430.909,-288)" x="430.9090909090909" y="-288.0">
      600
    </text>
    <path d="M 474.5454545454545 -300 L 474.5454545454545 -288"/>
    <text style="font-size:12;font-style:italic;stroke:none;fill:rgb(0,0,0);" transform="rotate(90,474.545,-288)" x="474.5454545454545" y="-288.0">
      800
    </text>
    <path d="M 518.1818181818182 -300 L 518.1818181818182 -288"/>
    <text style="font-size:12;font-style:italic;stroke:none;fill:rgb(0,0,0);" transform="rotate(90,518.182,-288)" x="518.1818181818182" y="-288.0">
      1000
    </text>
    <path d="M 561.8181818181818 -300 L 561.8181818181818 -288"/>
    <text style="font-size:12;font-style:italic;stroke:none;fill:rgb(0,0,0);" transform="rotate(90,561.818,-288)" x="561.8181818181818" y="-288.0">
      1200
    </text>
    <path d="M 605.4545454545455 -300 L 605.4545454545455 -288"/>
    <text style="font-size:12;font-style:italic;stroke:none;fill:rgb(0,0,0);" transform="rotate(90,605.455,-288)" x="605.4545454545455" y="-288.0">
      1400
    </text>
    <path d="M 649.090909090909 -300 L 649.090909090909 -288"/>
    <text style="font-size:12;font-style:italic;stroke:none;fill:rgb(0,0,0);" transform="rotate(90,649.091,-288)" x="649.090909090909" y="-288.0">
      1600
    </text>
    <path d="M 692.7272727272727 -300 L 692.7272727272727 -288"/>
    <text style="font-size:12;font-style:italic;stroke:none;fill:rgb(0,0,0);" transform="rotate(90,692.727,-288)" x="692.7272727272727" y="-288.0">
      1800
    </text>
    <path d="M 736.3636363636364 -300 L 736.3636363636364 -288"/>
    <text style="font-size:12;font-style:italic;stroke:none;fill:rgb(0,0,0);" transform="rotate(90,736.364,-288)" x="736.3636363636364" y="-288.0">
      2000
    </text>
    <path d="M 780.0 -300 L 780.0 -288"/>
    <text style="font-size:12;font-style:italic;stroke:none;fill:rgb(0,0,0);" transform="rotate(90,780,-288)" x="780.0" y="-288.0">
      2200
    </text>
    <text style="font-size:16;stroke:none;fill:rgb(0,0,0);" x="524.44" y="-220.0">
      Size
    </text>
    <path d="M 300 -300 L 300 -520"/>
    <path d="M 300 -300.0 L 288 -300.0"/>
    <text style="font-size:12;font-style:italic;stroke:none;fill:rgb(0,0,0);" x="238.0" y="-294.0">
      0.00e+00
    </text>
    <path d="M 300 -344.0 L 288 -344.0"/>
    <text style="font-size:12;font-style:italic;stroke:none;fill:rgb(0,0,0);" x="238.0" y="-338.0">
      8.16e-08
    </text>
    <path d="M 300 -388.0 L 288 -388.0"/>
    <text style="font-size:12;font-style:italic;stroke:none;fill:rgb(0,0,0);" x="238.0" y="-382.0">
      1.63e-07
    </text>
    <path d="M 300 -432.0 L 288 -432.0"/>
    <text style="font-size:12;font-style:italic;stroke:none;fill:rgb(0,0,0);" x="238.0" y="-426.0">
      2.45e-07
    </text>
    <path d="M 300 -476.0 L 288 -476.0"/>
    <text style="font-size:12;font-style:italic;stroke:none;fill:rgb(0,0,0);" x="238.0" y="-470.0">
      3.27e-07
    </text>
    <path d="M 300 -520.0 L 288 -520.0"/>
    <text style="font-size:12;font-style:italic;stroke:none;fill:rgb(0,0,0);" x="238.0" y="-514.0">
      4.08e-07
    </text>
    <text style="font-size:16;stroke:none;fill:rgb(0,0,0);" transform="rotate(-90,200,-340.648)" x="200.0" y="-340.648">
      Average time (sec.)
    </text>
    <g style="clip-path:url(#clip0);">
      <g style="clip-path:url(#clip1);">
        <path d="M 343.6363636363636 -461.2759118293427 L 387.27272727272725 -481.2113787873962 L 430.9090909090909 -489.0500608825396 L 474.5454545454545 -502.8495478522061 L 518.1818181818182 -499.7573028422468 L 561.8181818181818 -505.76338374619945 L 605.4545454545455 -506.67213833688993 L 649.090909090909 -509.6113072473497 L 692.7272727272727 -513.8888140277292 L 736.3636363636364 -520.0" style="stroke:rgb(147,147,147);stroke-width:2;"/>
      </g>
      <g style="clip-path:url(#clip2);">
        <g style="fill:rgb(255,255,255);clip-path:url(#clip3);">
          <path d="M 337.3863636363636 -456.2759118293427 L 337.3863636363636 -466.2759118293427 L 349.8863636363636 -466.2759118293427 L 349.8863636363636 -456.2759118293427 Z" style="stroke:none;"/>
        </g>
        <g>
          <path d="M 337.3863636363636 -456.2759118293427 L 349.8863636363636 -456.2759118293427 L 343.6363636363636 -466.2759118293427 Z"/>
          <g style="fill:rgb(255,255,255);clip-path:url(#clip4);">
            <path d="M 381.02272727272725 -476.2113787873962 L 381.02272727272725 -486.2113787873962 L 393.52272727272725 -486.2113787873962 L 393.52272727272725 -476.2113787873962 Z" style="stroke:none;"/>
          </g>
          <g>
            <path d="M 381.02272727272725 -476.2113787873962 L 393.52272727272725 -476.2113787873962 L 387.27272727272725 -486.2113787873962 Z"/>
            <g style="fill:rgb(255,255,255);clip-path:url(#clip5);">
              <path d="M 424.6590909090909 -484.0500608825396 L 424.6590909090909 -494.0500608825396 L 437.1590909090909 -494.0500608825396 L 437.1590909090909 -484.0500608825396 Z" style="stroke:none;"/>
            </g>
            <g>
              <path d="M 424.6590909090909 -484.0500608825396 L 437.1590909090909 -484.0500608825396 L 430.9090909090909 -494.0500608825396 Z"/>
              <g style="fill:rgb(255,255,255);clip-path:url(#clip6);">
                <path d="M 468.2954545454545 -497.8495478522061 L 468.2954545454545 -507.8495478522061 L 480.7954545454545 -507.8495478522061 L 480.7954545454545 -497.8495478522061 Z" style="stroke:none;"/>
              </g>
              <g>
                <path d="M 468.2954545454545 -497.8495478522061 L 480.7954545454545 -497.8495478522061 L 474.5454545454545 -507.8495478522061 Z"/>
                <g style="fill:rgb(255,255,255);clip-path:url(#clip7);">
                  <path d="M 511.9318181818182 -494.7573028422468 L 511.9318181818182 -504.7573028422468 L 524.4318181818182 -504.7573028422468 L 524.4318181818182 -494.7573028422468 Z" style="stroke:none;"/>
                </g>
                <g>
                  <path d="M 511.9318181818182 -494.7573028422468 L 524.4318181818182 -494.7573028422468 L 518.1818181818182 -504.7573028422468 Z"/>
                  <g style="fill:rgb(255,255,255);clip-path:url(#clip8);">
                    <path d="M 555.5681818181818 -500.76338374619945 L 555.5681818181818 -510.76338374619945 L 568.0681818181818 -510.76338374619945 L 568.0681818181818 -500.76338374619945 Z" style="stroke:none;"/>
                  </g>
                  <g>
                    <path d="M 555.5681818181818 -500.76338374619945 L 568.0681818181818 -500.76338374619945 L 561.8181818181818 -510.76338374619945 Z"/>
                    <g style="fill:rgb(255,255,255);clip-path:url(#clip9);">
                      <path d="M 599.2045454545455 -501.67213833688993 L 599.2045454545455 -511.67213833688993 L 611.7045454545455 -511.67213833688993 L 611.7045454545455 -501.67213833688993 Z" style="stroke:none;"/>
                    </g>
                    <g>
                      <path d="M 599.2045454545455 -501.67213833688993 L 611.7045454545455 -501.67213833688993 L 605.4545454545455 -511.67213833688993 Z"/>
                      <g style="fill:rgb(255,255,255);clip-path:url(#clip10);">
                        <path d="M 642.840909090909 -504.6113072473497 L 642.840909090909 -514.6113072473497 L 655.340909090909 -514.6113072473497 L 655.340909090909 -504.6113072473497 Z" style="stroke:none;"/>
                      </g>
                      <g>
                        <path d="M 642.840909090909 -504.6113072473497 L 655.340909090909 -504.6113072473497 L 649.090909090909 -514.6113072473497 Z"/>
                        <g style="fill:rgb(255,255,255);clip-path:url(#clip11);">
                          <path d="M 686.4772727272727 -508.88881402772915 L 686.4772727272727 -518.8888140277292 L 698.9772727272727 -518.8888140277292 L 698.9772727272727 -508.88881402772915 Z" style="stroke:none;"/>
                        </g>
                        <g>
                          <path d="M 686.4772727272727 -508.88881402772915 L 698.9772727272727 -508.88881402772915 L 692.7272727272727 -518.8888140277292 Z"/>
                          <g style="fill:rgb(255,255,255);clip-path:url(#clip12);">
                            <path d="M 730.1136363636364 -515.0 L 730.1136363636364 -525.0 L 742.6136363636364 -525.0 L 742.6136363636364 -515.0 Z" style="stroke:none;"/>
                          </g>
                          <g>
                            <path d="M 730.1136363636364 -515.0 L 742.6136363636364 -515.0 L 736.3636363636364 -525.0 Z"/>
                          </g>
                        </g>
                      </g>
                    </g>
                  </g>
                </g>
              </g>
            </g>
          </g>
        </g>
      </g>
      <g style="clip-path:url(#clip13);">
        <path d="M 343.6363636363636 -440.0759500493675 L 387.27272727272725 -446.97407653314974 L 430.9090909090909 -451.33243336608166 L 474.5454545454545 -454.28399928459953 L 518.1818181818182 -457.6969495030172 L 561.8181818181818 -457.33528026793215 L 605.4545454545455 -458.19067382393797 L 649.090909090909 -459.40288561187566 L 692.7272727272727 -462.3361255184816 L 736.3636363636364 -467.6889379978097" style="stroke:rgb(126,126,126);stroke-width:0.4;stroke-dasharray:1.5,1.5;"/>
      </g>
      <g style="clip-path:url(#clip14);">
        <g style="fill:rgb(0,0,0);clip-path:url(#clip15);">
          <path d="M 337.3863636363636 -435.0759500493675 L 337.3863636363636 -445.0759500493675 L 349.8863636363636 -445.0759500493675 L 349.8863636363636 -435.0759500493675 Z" style="stroke:none;"/>
        </g>
        <g>
          <path d="M 343.6363636363636 -435.0759500493675 L 337.3863636363636 -445.0759500493675 L 349.8863636363636 -445.0759500493675 Z"/>
          <g style="fill:rgb(0,0,0);clip-path:url(#clip16);">
            <path d="M 381.02272727272725 -441.97407653314974 L 381.02272727272725 -451.97407653314974 L 393.52272727272725 -451.97407653314974 L 393.52272727272725 -441.97407653314974 Z" style="stroke:none;"/>
          </g>
          <g>
            <path d="M 387.27272727272725 -441.97407653314974 L 381.02272727272725 -451.97407653314974 L 393.52272727272725 -451.97407653314974 Z"/>
            <g style="fill:rgb(0,0,0);clip-path:url(#clip17);">
              <path d="M 424.6590909090909 -446.33243336608166 L 424.6590909090909 -456.33243336608166 L 437.1590909090909 -456.33243336608166 L 437.1590909090909 -446.33243336608166 Z" style="stroke:none;"/>
            </g>
            <g>
              <path d="M 430.9090909090909 -446.33243336608166 L 424.6590909090909 -456.33243336608166 L 437.1590909090909 -456.33243336608166 Z"/>
              <g style="fill:rgb(0,0,0);clip-path:url(#clip18);">
                <path d="M 468.2954545454545 -449.28399928459953 L 468.2954545454545 -459.28399928459953 L 480.7954545454545 -459.28399928459953 L 480.7954545454545 -449.28399928459953 Z" style="stroke:none;"/>
              </g>
              <g>
                <path d="M 474.5454545454545 -449.28399928459953 L 468.2954545454545 -459.28399928459953 L 480.7954545454545 -459.28399928459953 Z"/>
                <g style="fill:rgb(0,0,0);clip-path:url(#clip19);">
                  <path d="M 511.9318181818182 -452.6969495030172 L 511.9318181818182 -462.6969495030172 L 524.4318181818182 -462.6969495030172 L 524.4318181818182 -452.6969495030172 Z" style="stroke:none;"/>
                </g>
                <g>
                  <path d="M 518.1818181818182 -452.6969495030172 L 511.9318181818182 -462.6969495030172 L 524.4318181818182 -462.6969495030172 Z"/>
                  <g style="fill:rgb(0,0,0);clip-path:url(#clip20);">
                    <path d="M 555.5681818181818 -452.33528026793215 L 555.5681818181818 -462.33528026793215 L 568.0681818181818 -462.33528026793215 L 568.0681818181818 -452.33528026793215 Z" style="stroke:none;"/>
                  </g>
                  <g>
                    <path d="M 561.8181818181818 -452.33528026793215 L 555.5681818181818 -462.33528026793215 L 568.0681818181818 -462.33528026793215 Z"/>
                    <g style="fill:rgb(0,0,0);clip-path:url(#clip21);">
                      <path d="M 599.2045454545455 -453.19067382393797 L 599.2045454545455 -463.19067382393797 L 611.7045454545455 -463.19067382393797 L 611.7045454545455 -453.19067382393797 Z" style="stroke:none;"/>
                    </g>
                    <g>
                      <path d="M 605.4545454545455 -453.19067382393797 L 599.2045454545455 -463.19067382393797 L 611.7045454545455 -463.19067382393797 Z"/>
                      <g style="fill:rgb(0,0,0);clip-path:url(#clip22);">
                        <path d="M 642.840909090909 -454.40288561187566 L 642.840909090909 -464.40288561187566 L 655.340909090909 -464.40288561187566 L 655.340909090909 -454.40288561187566 Z" style="stroke:none;"/>
                      </g>
                      <g>
                        <path d="M 649.090909090909 -454.40288561187566 L 642.840909090909 -464.40288561187566 L 655.340909090909 -464.40288561187566 Z"/>
                        <g style="fill:rgb(0,0,0);clip-path:url(#clip23);">
                          <path d="M 686.4772727272727 -457.3361255184816 L 686.4772727272727 -467.3361255184816 L 698.9772727272727 -467.3361255184816 L 698.9772727272727 -457.3361255184816 Z" style="stroke:none;"/>
                        </g>
                        <g>
                          <path d="M 692.7272727272727 -457.3361255184816 L 686.4772727272727 -467.3361255184816 L 698.9772727272727 -467.3361255184816 Z"/>
                          <g style="fill:rgb(0,0,0);clip-path:url(#clip24);">
                            <path d="M 730.1136363636364 -462.6889379978097 L 730.1136363636364 -472.6889379978097 L 742.6136363636364 -472.6889379978097 L 742.6136363636364 -462.6889379978097 Z" style="stroke:none;"/>
                          </g>
                          <g>
                            <path d="M 736.3636363636364 -462.6889379978097 L 730.1136363636364 -472.6889379978097 L 742.6136363636364 -472.6889379978097 Z"/>
                          </g>
                        </g>
                      </g>
                    </g>
                  </g>
                </g>
              </g>
            </g>
          </g>
        </g>
      </g>
      <g style="clip-path:url(#clip25);">
        <path d="M 343.6363636363636 -423.16804805923124 L 387.27272727272725 -430.19337862569614 L 430.9090909090909 -432.74015528110095 L 474.5454545454545 -437.0182010618307 L 518.1818181818182 -440.5766813748429 L 561.8181818181818 -444.89245718009715 L 605.4545454545455 -442.68363374436194 L 649.090909090909 -444.59492898670385 L 692.7272727272727 -445.9365008587256 L 736.3636363636364 -448.992093844861" style="stroke:rgb(205,0,0);stroke-width:2;"/>
      </g>
      <g style="clip-path:url(#clip26);">
        <g style="fill:rgb(255,255,255);clip-path:url(#clip27);">
          <path d="M 337.3863636363636 -418.16804805923124 L 337.3863636363636 -428.16804805923124 L 349.8863636363636 -428.16804805923124 L 349.8863636363636 -418.16804805923124 Z" style="stroke:none;"/>
        </g>
        <g>
          <path d="M 343.6363636363636 -418.16804805923124 L 337.3863636363636 -428.16804805923124 L 349.8863636363636 -428.16804805923124 Z"/>
          <g style="fill:rgb(255,255,255);clip-path:url(#clip28);">
            <path d="M 381.02272727272725 -425.19337862569614 L 381.02272727272725 -435.19337862569614 L 393.52272727272725 -435.19337862569614 L 393.52272727272725 -425.19337862569614 Z" style="stroke:none;"/>
          </g>
          <g>
            <path d="M 387.27272727272725 -425.19337862569614 L 381.02272727272725 -435.19337862569614 L 393.52272727272725 -435.19337862569614 Z"/>
            <g style="fill:rgb(255,255,255);clip-path:url(#clip29);">
              <path d="M 424.6590909090909 -427.74015528110095 L 424.6590909090909 -437.74015528110095 L 437.1590909090909 -437.74015528110095 L 437.1590909090909 -427.74015528110095 Z" style="stroke:none;"/>
            </g>
            <g>
              <path d="M 430.9090909090909 -427.74015528110095 L 424.6590909090909 -437.74015528110095 L 437.1590909090909 -437.74015528110095 Z"/>
              <g style="fill:rgb(255,255,255);clip-path:url(#clip30);">
                <path d="M 468.2954545454545 -432.0182010618307 L 468.2954545454545 -442.0182010618307 L 480.7954545454545 -442.0182010618307 L 480.7954545454545 -432.0182010618307 Z" style="stroke:none;"/>
              </g>
              <g>
                <path d="M 474.5454545454545 -432.0182010618307 L 468.2954545454545 -442.0182010618307 L 480.7954545454545 -442.0182010618307 Z"/>
                <g style="fill:rgb(255,255,255);clip-path:url(#clip31);">
                  <path d="M 511.9318181818182 -435.5766813748429 L 511.9318181818182 -445.5766813748429 L 524.4318181818182 -445.5766813748429 L 524.4318181818182 -435.5766813748429 Z" style="stroke:none;"/>
                </g>
                <g>
                  <path d="M 518.1818181818182 -435.5766813748429 L 511.9318181818182 -445.5766813748429 L 524.4318181818182 -445.5766813748429 Z"/>
                  <g style="fill:rgb(255,255,255);clip-path:url(#clip32);">
                    <path d="M 555.5681818181818 -439.89245718009715 L 555.5681818181818 -449.89245718009715 L 568.0681818181818 -449.89245718009715 L 568.0681818181818 -439.89245718009715 Z" style="stroke:none;"/>
                  </g>
                  <g>
                    <path d="M 561.8181818181818 -439.89245718009715 L 555.5681818181818 -449.89245718009715 L 568.0681818181818 -449.89245718009715 Z"/>
                    <g style="fill:rgb(255,255,255);clip-path:url(#clip33);">
                      <path d="M 599.2045454545455 -437.68363374436194 L 599.2045454545455 -447.68363374436194 L 611.7045454545455 -447.68363374436194 L 611.7045454545455 -437.68363374436194 Z" style="stroke:none;"/>
                    </g>
                    <g>
                      <path d="M 605.4545454545455 -437.68363374436194 L 599.2045454545455 -447.68363374436194 L 611.7045454545455 -447.68363374436194 Z"/>
                      <g style="fill:rgb(255,255,255);clip-path:url(#clip34);">
                        <path d="M 642.840909090909 -439.59492898670385 L 642.840909090909 -449.59492898670385 L 655.340909090909 -449.59492898670385 L 655.340909090909 -439.59492898670385 Z" style="stroke:none;"/>
                      </g>
                      <g>
                        <path d="M 649.090909090909 -439.59492898670385 L 642.840909090909 -449.59492898670385 L 655.340909090909 -449.59492898670385 Z"/>
                        <g style="fill:rgb(255,255,255);clip-path:url(#clip35);">
                          <path d="M 686.4772727272727 -440.9365008587256 L 686.4772727272727 -450.9365008587256 L 698.9772727272727 -450.9365008587256 L 698.9772727272727 -440.9365008587256 Z" style="stroke:none;"/>
                        </g>
                        <g>
                          <path d="M 692.7272727272727 -440.9365008587256 L 686.4772727272727 -450.9365008587256 L 698.9772727272727 -450.9365008587256 Z"/>
                          <g style="fill:rgb(255,255,255);clip-path:url(#clip36);">
                            <path d="M 730.1136363636364 -443.992093844861 L 730.1136363636364 -453.992093844861 L 742.6136363636364 -453.992093844861 L 742.6136363636364 -443.992093844861 Z" style="stroke:none;"/>
                          </g>
                          <g>
                            <path d="M 736.3636363636364 -443.992093844861 L 730.1136363636364 -453.992093844861 L 742.6136363636364 -453.992093844861 Z"/>
                          </g>
                        </g>
                      </g>
                    </g>
                  </g>
                </g>
              </g>
            </g>
          </g>
        </g>
      </g>
    </g>
    <g style="fill:rgb(255,255,255);clip-path:url(#clip37);">
      <path d="M 290 -74 L 290 -136 L 444.272 -136 L 444.272 -74 Z" style="stroke:none;"/>
    </g>
    <path d="M 300 -125.33333333333334 L 316 -125.33333333333334" style="stroke:rgb(147,147,147);stroke-width:2;"/>
    <g style="fill:rgb(255,255,255);clip-path:url(#clip38);">
      <path d="M 301.75 -120.33333333333334 L 301.75 -130.33333333333334 L 314.25 -130.33333333333334 L 314.25 -120.33333333333334 Z" style="stroke:none;"/>
    </g>
    <g>
      <path d="M 301.75 -120.33333333333334 L 314.25 -120.33333333333334 L 308.0 -130.33333333333334 Z"/>
      <text style="font-size:16;stroke:none;fill:rgb(0,0,0);" x="316.0" y="-120.0">
        splay_tree_map
      </text>
      <path d="M 300 -105.33333333333334 L 316 -105.33333333333334" style="stroke:rgb(126,126,126);stroke-width:0.4;stroke-dasharray:1.5,1.5;"/>
      <g style="fill:rgb(0,0,0);clip-path:url(#clip39);">
        <path d="M 301.75 -100.33333333333334 L 301.75 -110.33333333333334 L 314.25 -110.33333333333334 L 314.25 -100.33333333333334 Z" style="stroke:none;"/>
      </g>
      <g>
        <path d="M 308.0 -100.33333333333334 L 301.75 -110.33333333333334 L 314.25 -110.33333333333334 Z"/>
        <text style="font-size:16;stroke:none;fill:rgb(0,0,0);" x="316.0" y="-100.0">
          n_map
        </text>
        <path d="M 300 -85.33333333333334 L 316 -85.33333333333334" style="stroke:rgb(205,0,0);stroke-width:2;"/>
        <g style="fill:rgb(255,255,255);clip-path:url(#clip40);">
          <path d="M 301.75 -80.33333333333334 L 301.75 -90.33333333333334 L 314.25 -90.33333333333334 L 314.25 -80.33333333333334 Z" style="stroke:none;"/>
        </g>
        <g>
          <path d="M 308.0 -80.33333333333334 L 301.75 -90.33333333333334 L 314.25 -90.33333333333334 Z"/>
          <text style="font-size:16;stroke:none;fill:rgb(0,0,0);" x="316.0" y="-80.0">
            rb_tree_map
          </text>
        </g>
      </g>
    </g>
  </g>
</svg>
