<?xml version="1.0" ?>
<!--Created by PyChart 1.39 Copyright 1999-2006 Yasushi Saito-->
<svg viewBox="178 -526 620 458" xmlns="http://www.w3.org/2000/svg" xmlns:xlink="http://www.w3.org/1999/xlink">
  <defs>
    <clipPath id="clip0">
      <path d="M 294 -294 L 294 -526 L 786 -526 L 786 -294 Z"/>
    </clipPath>
    <clipPath id="clip1">
      <path d="M 294 -294 L 294 -526 L 786 -526 L 786 -294 Z"/>
    </clipPath>
    <clipPath id="clip2">
      <path d="M 280 -280 L 280 -540 L 800 -540 L 800 -280 Z"/>
    </clipPath>
    <clipPath id="clip3">
      <path d="M 294 -294 L 294 -526 L 786 -526 L 786 -294 Z"/>
    </clipPath>
    <clipPath id="clip4">
      <path d="M 280 -280 L 280 -540 L 800 -540 L 800 -280 Z"/>
    </clipPath>
    <clipPath id="clip5">
      <path d="M 365.45454545454544 -305.1894736842105 L 359.20454545454544 -315.1894736842105 L 371.70454545454544 -315.1894736842105 Z"/>
    </clipPath>
    <clipPath id="clip6">
      <path d="M 452.72727272727275 -349.65263157894736 L 446.47727272727275 -359.65263157894736 L 458.97727272727275 -359.65263157894736 Z"/>
    </clipPath>
    <clipPath id="clip7">
      <path d="M 540.0 -394.11578947368423 L 533.75 -404.11578947368423 L 546.25 -404.11578947368423 Z"/>
    </clipPath>
    <clipPath id="clip8">
      <path d="M 627.2727272727273 -438.57894736842104 L 621.0227272727273 -448.57894736842104 L 633.5227272727273 -448.57894736842104 Z"/>
    </clipPath>
    <clipPath id="clip9">
      <path d="M 714.5454545454545 -483.0421052631579 L 708.2954545454545 -493.0421052631579 L 720.7954545454545 -493.0421052631579 Z"/>
    </clipPath>
    <clipPath id="clip10">
      <path d="M 294 -294 L 294 -526 L 786 -526 L 786 -294 Z"/>
    </clipPath>
    <clipPath id="clip11">
      <path d="M 280 -280 L 280 -540 L 800 -540 L 800 -280 Z"/>
    </clipPath>
    <clipPath id="clip12">
      <path d="M 358.31168831168833 -302.92715789473687 L 365.45454545454544 -310.070015037594 L 372.5974025974026 -302.92715789473687 L 365.45454545454544 -295.7843007518797 Z"/>
    </clipPath>
    <clipPath id="clip13">
      <path d="M 445.5844155844156 -317.7482105263158 L 452.72727272727275 -324.8910676691729 L 459.87012987012986 -317.7482105263158 L 452.72727272727275 -310.60535338345863 Z"/>
    </clipPath>
    <clipPath id="clip14">
      <path d="M 532.8571428571429 -332.56926315789474 L 540.0 -339.7121203007519 L 547.1428571428571 -332.56926315789474 L 540.0 -325.42640601503757 Z"/>
    </clipPath>
    <clipPath id="clip15">
      <path d="M 620.1298701298701 -347.3903157894737 L 627.2727272727273 -354.53317293233084 L 634.4155844155844 -347.3903157894737 L 627.2727272727273 -340.24745864661656 Z"/>
    </clipPath>
    <clipPath id="clip16">
      <path d="M 707.4025974025974 -362.2113684210526 L 714.5454545454545 -369.3542255639098 L 721.6883116883117 -362.2113684210526 L 714.5454545454545 -355.0685112781955 Z"/>
    </clipPath>
    <clipPath id="clip17">
      <path d="M 290 -74 L 290 -200 L 687.072 -200 L 687.072 -74 Z"/>
    </clipPath>
    <clipPath id="clip18">
      <path d="M 308.0 -132.33333333333334 L 301.75 -142.33333333333334 L 314.25 -142.33333333333334 Z"/>
    </clipPath>
    <clipPath id="clip19">
      <path d="M 300.85714285714283 -117.33333333333334 L 308.0 -124.47619047619048 L 315.14285714285717 -117.33333333333334 L 308.0 -110.1904761904762 Z"/>
    </clipPath>
  </defs>
  <g style="stroke-linejoin:miter;font-size:8;font-family:Helvetica;fill:none;stroke-linecap:butt;stroke:rgb(0,0,0);font-stretch:normal;stroke-dasharray:none;font-weight:normal;font-style:normal;stroke-width:0.5;">
    <path d="M 300 -300 L 780 -300"/>
    <path d="M 300 -300 L 780 -300"/>
    <path d="M 300.0 -300 L 300.0 -288"/>
    <text style="font-size:12;font-style:italic;stroke:none;fill:rgb(0,0,0);" transform="rotate(90,300,-288)" x="300.0" y="-288.0">
      0
    </text>
    <path d="M 343.6363636363636 -300 L 343.6363636363636 -288"/>
    <text style="font-size:12;font-style:italic;stroke:none;fill:rgb(0,0,0);" transform="rotate(90,343.636,-288)" x="343.6363636363636" y="-288.0">
      200
    </text>
    <path d="M 387.27272727272725 -300 L 387.27272727272725 -288"/>
    <text style="font-size:12;font-style:italic;stroke:none;fill:rgb(0,0,0);" transform="rotate(90,387.273,-288)" x="387.27272727272725" y="-288.0">
      400
    </text>
    <path d="M 430.9090909090909 -300 L 430.9090909090909 -288"/>
    <text style="font-size:12;font-style:italic;stroke:none;fill:rgb(0,0,0);" transform="rotate(90,430.909,-288)" x="430.9090909090909" y="-288.0">
      600
    </text>
    <path d="M 474.5454545454545 -300 L 474.5454545454545 -288"/>
    <text style="font-size:12;font-style:italic;stroke:none;fill:rgb(0,0,0);" transform="rotate(90,474.545,-288)" x="474.5454545454545" y="-288.0">
      800
    </text>
    <path d="M 518.1818181818182 -300 L 518.1818181818182 -288"/>
    <text style="font-size:12;font-style:italic;stroke:none;fill:rgb(0,0,0);" transform="rotate(90,518.182,-288)" x="518.1818181818182" y="-288.0">
      1000
    </text>
    <path d="M 561.8181818181818 -300 L 561.8181818181818 -288"/>
    <text style="font-size:12;font-style:italic;stroke:none;fill:rgb(0,0,0);" transform="rotate(90,561.818,-288)" x="561.8181818181818" y="-288.0">
      1200
    </text>
    <path d="M 605.4545454545455 -300 L 605.4545454545455 -288"/>
    <text style="font-size:12;font-style:italic;stroke:none;fill:rgb(0,0,0);" transform="rotate(90,605.455,-288)" x="605.4545454545455" y="-288.0">
      1400
    </text>
    <path d="M 649.090909090909 -300 L 649.090909090909 -288"/>
    <text style="font-size:12;font-style:italic;stroke:none;fill:rgb(0,0,0);" transform="rotate(90,649.091,-288)" x="649.090909090909" y="-288.0">
      1600
    </text>
    <path d="M 692.7272727272727 -300 L 692.7272727272727 -288"/>
    <text style="font-size:12;font-style:italic;stroke:none;fill:rgb(0,0,0);" transform="rotate(90,692.727,-288)" x="692.7272727272727" y="-288.0">
      1800
    </text>
    <path d="M 736.3636363636364 -300 L 736.3636363636364 -288"/>
    <text style="font-size:12;font-style:italic;stroke:none;fill:rgb(0,0,0);" transform="rotate(90,736.364,-288)" x="736.3636363636364" y="-288.0">
      2000
    </text>
    <path d="M 780.0 -300 L 780.0 -288"/>
    <text style="font-size:12;font-style:italic;stroke:none;fill:rgb(0,0,0);" transform="rotate(90,780,-288)" x="780.0" y="-288.0">
      2200
    </text>
    <text style="font-size:16;stroke:none;fill:rgb(0,0,0);" x="524.44" y="-220.0">
      Size
    </text>
    <path d="M 300 -323.1578947368421 L 780 -323.1578947368421" style="stroke:rgb(179,179,179);stroke-width:0.4;stroke-dasharray:1,1;"/>
    <path d="M 300 -346.3157894736842 L 780 -346.3157894736842" style="stroke:rgb(179,179,179);stroke-width:0.4;stroke-dasharray:1,1;"/>
    <path d="M 300 -369.4736842105263 L 780 -369.4736842105263" style="stroke:rgb(179,179,179);stroke-width:0.4;stroke-dasharray:1,1;"/>
    <path d="M 300 -392.63157894736844 L 780 -392.63157894736844" style="stroke:rgb(179,179,179);stroke-width:0.4;stroke-dasharray:1,1;"/>
    <path d="M 300 -415.7894736842105 L 780 -415.7894736842105" style="stroke:rgb(179,179,179);stroke-width:0.4;stroke-dasharray:1,1;"/>
    <path d="M 300 -438.9473684210526 L 780 -438.9473684210526" style="stroke:rgb(179,179,179);stroke-width:0.4;stroke-dasharray:1,1;"/>
    <path d="M 300 -462.10526315789474 L 780 -462.10526315789474" style="stroke:rgb(179,179,179);stroke-width:0.4;stroke-dasharray:1,1;"/>
    <path d="M 300 -485.2631578947369 L 780 -485.2631578947369" style="stroke:rgb(179,179,179);stroke-width:0.4;stroke-dasharray:1,1;"/>
    <path d="M 300 -508.42105263157896 L 780 -508.42105263157896" style="stroke:rgb(179,179,179);stroke-width:0.4;stroke-dasharray:1,1;"/>
    <path d="M 300 -300 L 300 -520"/>
    <path d="M 300 -300.0 L 288 -300.0"/>
    <text style="font-size:12;font-style:italic;stroke:none;fill:rgb(0,0,0);" x="238.0" y="-294.0">
      1.00e+04
    </text>
    <path d="M 300 -344.52985263157893 L 288 -344.52985263157893"/>
    <text style="font-size:12;font-style:italic;stroke:none;fill:rgb(0,0,0);" x="238.0" y="-338.52985263157893">
      2.92e+04
    </text>
    <path d="M 300 -389.05970526315787 L 288 -389.05970526315787"/>
    <text style="font-size:12;font-style:italic;stroke:none;fill:rgb(0,0,0);" x="238.0" y="-383.05970526315787">
      4.85e+04
    </text>
    <path d="M 300 -433.5895578947368 L 288 -433.5895578947368"/>
    <text style="font-size:12;font-style:italic;stroke:none;fill:rgb(0,0,0);" x="238.0" y="-427.5895578947368">
      6.77e+04
    </text>
    <path d="M 300 -478.1194105263158 L 288 -478.1194105263158"/>
    <text style="font-size:12;font-style:italic;stroke:none;fill:rgb(0,0,0);" x="238.0" y="-472.1194105263158">
      8.69e+04
    </text>
    <text style="font-size:16;stroke:none;fill:rgb(0,0,0);" transform="rotate(-90,200,-354.44)" x="200.0" y="-354.44">
      Memory (bytes)
    </text>
    <g style="clip-path:url(#clip0);">
      <g style="clip-path:url(#clip1);">
        <path d="M 365.45454545454544 -336.4597894736842 L 452.72727272727275 -366.1018947368421 L 540.0 -410.56505263157896 L 627.2727272727273 -425.3861052631579 L 714.5454545454545 -499.49136842105264" style="stroke:rgb(0,0,128);stroke-width:2;"/>
      </g>
      <g style="clip-path:url(#clip2);">
        <path d="M 360.45454545454544 -331.4597894736842 L 370.45454545454544 -341.4597894736842" style="stroke-width:0.7;"/>
        <path d="M 370.45454545454544 -331.4597894736842 L 360.45454545454544 -341.4597894736842" style="stroke-width:0.7;"/>
        <path d="M 447.72727272727275 -361.1018947368421 L 457.72727272727275 -371.1018947368421" style="stroke-width:0.7;"/>
        <path d="M 457.72727272727275 -361.1018947368421 L 447.72727272727275 -371.1018947368421" style="stroke-width:0.7;"/>
        <path d="M 535.0 -405.56505263157896 L 545.0 -415.56505263157896" style="stroke-width:0.7;"/>
        <path d="M 545.0 -405.56505263157896 L 535.0 -415.56505263157896" style="stroke-width:0.7;"/>
        <path d="M 622.2727272727273 -420.3861052631579 L 632.2727272727273 -430.3861052631579" style="stroke-width:0.7;"/>
        <path d="M 632.2727272727273 -420.3861052631579 L 622.2727272727273 -430.3861052631579" style="stroke-width:0.7;"/>
        <path d="M 709.5454545454545 -494.49136842105264 L 719.5454545454545 -504.49136842105264" style="stroke-width:0.7;"/>
        <path d="M 719.5454545454545 -494.49136842105264 L 709.5454545454545 -504.49136842105264" style="stroke-width:0.7;"/>
      </g>
      <g style="clip-path:url(#clip3);">
        <path d="M 365.45454545454544 -310.1894736842105 L 452.72727272727275 -354.65263157894736 L 540.0 -399.11578947368423 L 627.2727272727273 -443.57894736842104 L 714.5454545454545 -488.0421052631579" style="stroke:rgb(126,126,126);stroke-width:0.4;stroke-dasharray:1.5,1.5;"/>
      </g>
      <g style="clip-path:url(#clip4);">
        <g style="fill:rgb(0,0,0);clip-path:url(#clip5);">
          <path d="M 359.20454545454544 -305.1894736842105 L 359.20454545454544 -315.1894736842105 L 371.70454545454544 -315.1894736842105 L 371.70454545454544 -305.1894736842105 Z" style="stroke:none;"/>
        </g>
        <g>
          <path d="M 365.45454545454544 -305.1894736842105 L 359.20454545454544 -315.1894736842105 L 371.70454545454544 -315.1894736842105 Z"/>
          <g style="fill:rgb(0,0,0);clip-path:url(#clip6);">
            <path d="M 446.47727272727275 -349.65263157894736 L 446.47727272727275 -359.65263157894736 L 458.97727272727275 -359.65263157894736 L 458.97727272727275 -349.65263157894736 Z" style="stroke:none;"/>
          </g>
          <g>
            <path d="M 452.72727272727275 -349.65263157894736 L 446.47727272727275 -359.65263157894736 L 458.97727272727275 -359.65263157894736 Z"/>
            <g style="fill:rgb(0,0,0);clip-path:url(#clip7);">
              <path d="M 533.75 -394.11578947368423 L 533.75 -404.11578947368423 L 546.25 -404.11578947368423 L 546.25 -394.11578947368423 Z" style="stroke:none;"/>
            </g>
            <g>
              <path d="M 540.0 -394.11578947368423 L 533.75 -404.11578947368423 L 546.25 -404.11578947368423 Z"/>
              <g style="fill:rgb(0,0,0);clip-path:url(#clip8);">
                <path d="M 621.0227272727273 -438.57894736842104 L 621.0227272727273 -448.57894736842104 L 633.5227272727273 -448.57894736842104 L 633.5227272727273 -438.57894736842104 Z" style="stroke:none;"/>
              </g>
              <g>
                <path d="M 627.2727272727273 -438.57894736842104 L 621.0227272727273 -448.57894736842104 L 633.5227272727273 -448.57894736842104 Z"/>
                <g style="fill:rgb(0,0,0);clip-path:url(#clip9);">
                  <path d="M 708.2954545454545 -483.0421052631579 L 708.2954545454545 -493.0421052631579 L 720.7954545454545 -493.0421052631579 L 720.7954545454545 -483.0421052631579 Z" style="stroke:none;"/>
                </g>
                <g>
                  <path d="M 714.5454545454545 -483.0421052631579 L 708.2954545454545 -493.0421052631579 L 720.7954545454545 -493.0421052631579 Z"/>
                </g>
              </g>
            </g>
          </g>
        </g>
      </g>
      <g style="clip-path:url(#clip10);">
        <path d="M 365.45454545454544 -302.92715789473687 L 452.72727272727275 -317.7482105263158 L 540.0 -332.56926315789474 L 627.2727272727273 -347.3903157894737 L 714.5454545454545 -362.2113684210526" style="stroke:rgb(126,126,126);stroke-width:2;"/>
      </g>
      <g style="clip-path:url(#clip11);">
        <g style="fill:rgb(255,255,255);clip-path:url(#clip12);">
          <path d="M 358.31168831168833 -295.7843007518797 L 358.31168831168833 -310.070015037594 L 372.5974025974026 -310.070015037594 L 372.5974025974026 -295.7843007518797 Z" style="stroke:none;"/>
        </g>
        <g>
          <path d="M 358.31168831168833 -302.92715789473687 L 365.45454545454544 -310.070015037594 L 372.5974025974026 -302.92715789473687 L 365.45454545454544 -295.7843007518797 Z"/>
          <g style="fill:rgb(255,255,255);clip-path:url(#clip13);">
            <path d="M 445.5844155844156 -310.60535338345863 L 445.5844155844156 -324.8910676691729 L 459.87012987012986 -324.8910676691729 L 459.87012987012986 -310.60535338345863 Z" style="stroke:none;"/>
          </g>
          <g>
            <path d="M 445.5844155844156 -317.7482105263158 L 452.72727272727275 -324.8910676691729 L 459.87012987012986 -317.7482105263158 L 452.72727272727275 -310.60535338345863 Z"/>
            <g style="fill:rgb(255,255,255);clip-path:url(#clip14);">
              <path d="M 532.8571428571429 -325.42640601503757 L 532.8571428571429 -339.7121203007519 L 547.1428571428571 -339.7121203007519 L 547.1428571428571 -325.42640601503757 Z" style="stroke:none;"/>
            </g>
            <g>
              <path d="M 532.8571428571429 -332.56926315789474 L 540.0 -339.7121203007519 L 547.1428571428571 -332.56926315789474 L 540.0 -325.42640601503757 Z"/>
              <g style="fill:rgb(255,255,255);clip-path:url(#clip15);">
                <path d="M 620.1298701298701 -340.24745864661656 L 620.1298701298701 -354.53317293233084 L 634.4155844155844 -354.53317293233084 L 634.4155844155844 -340.24745864661656 Z" style="stroke:none;"/>
              </g>
              <g>
                <path d="M 620.1298701298701 -347.3903157894737 L 627.2727272727273 -354.53317293233084 L 634.4155844155844 -347.3903157894737 L 627.2727272727273 -340.24745864661656 Z"/>
                <g style="fill:rgb(255,255,255);clip-path:url(#clip16);">
                  <path d="M 707.4025974025974 -355.0685112781955 L 707.4025974025974 -369.3542255639098 L 721.6883116883117 -369.3542255639098 L 721.6883116883117 -355.0685112781955 Z" style="stroke:none;"/>
                </g>
                <g>
                  <path d="M 707.4025974025974 -362.2113684210526 L 714.5454545454545 -369.3542255639098 L 721.6883116883117 -362.2113684210526 L 714.5454545454545 -355.0685112781955 Z"/>
                </g>
              </g>
            </g>
          </g>
        </g>
      </g>
    </g>
    <g style="fill:rgb(255,255,255);clip-path:url(#clip17);">
      <path d="M 290 -74 L 290 -200 L 687.072 -200 L 687.072 -74 Z" style="stroke:none;"/>
    </g>
    <path d="M 300 -189.33333333333331 L 316 -189.33333333333331" style="stroke:rgb(0,0,128);stroke-width:2;"/>
    <path d="M 303.0 -184.33333333333331 L 313.0 -194.33333333333331" style="stroke-width:0.7;"/>
    <path d="M 313.0 -184.33333333333331 L 303.0 -194.33333333333331" style="stroke-width:0.7;"/>
    <text style="font-size:16;stroke:none;fill:rgb(0,0,0);" x="316.0" y="-184.0">
      rb_tree_
    </text>
    <text style="font-size:16;stroke:none;fill:rgb(0,0,0);" x="316.0" y="-168.0">
      mmap_
    </text>
    <text style="font-size:16;stroke:none;fill:rgb(0,0,0);" x="316.0" y="-152.0">
      cc_hash_mask_exp_nea_lc_1div8_1div2_nsth_set
    </text>
    <path d="M 300 -137.33333333333334 L 316 -137.33333333333334" style="stroke:rgb(126,126,126);stroke-width:0.4;stroke-dasharray:1.5,1.5;"/>
    <g style="fill:rgb(0,0,0);clip-path:url(#clip18);">
      <path d="M 301.75 -132.33333333333334 L 301.75 -142.33333333333334 L 314.25 -142.33333333333334 L 314.25 -132.33333333333334 Z" style="stroke:none;"/>
    </g>
    <g>
      <path d="M 308.0 -132.33333333333334 L 301.75 -142.33333333333334 L 314.25 -142.33333333333334 Z"/>
      <text style="font-size:16;stroke:none;fill:rgb(0,0,0);" x="316.0" y="-132.0">
        n_mmap
      </text>
      <path d="M 300 -117.33333333333334 L 316 -117.33333333333334" style="stroke:rgb(126,126,126);stroke-width:2;"/>
      <g style="fill:rgb(255,255,255);clip-path:url(#clip19);">
        <path d="M 300.85714285714283 -110.1904761904762 L 300.85714285714283 -124.47619047619048 L 315.14285714285717 -124.47619047619048 L 315.14285714285717 -110.1904761904762 Z" style="stroke:none;"/>
      </g>
      <g>
        <path d="M 300.85714285714283 -117.33333333333334 L 308.0 -124.47619047619048 L 315.14285714285717 -117.33333333333334 L 308.0 -110.1904761904762 Z"/>
        <text style="font-size:16;stroke:none;fill:rgb(0,0,0);" x="316.0" y="-112.0">
          rb_tree_
        </text>
        <text style="font-size:16;stroke:none;fill:rgb(0,0,0);" x="316.0" y="-96.0">
          mmap_
        </text>
        <text style="font-size:16;stroke:none;fill:rgb(0,0,0);" x="316.0" y="-80.0">
          lu_mtf_set
        </text>
      </g>
    </g>
  </g>
</svg>
