<?xml version="1.0" ?>
<!--Created by PyChart 1.39 Copyright 1999-2006 Yasushi Saito-->
<svg viewBox="178 -544 620 556" xmlns="http://www.w3.org/2000/svg" xmlns:xlink="http://www.w3.org/1999/xlink">
  <defs>
    <clipPath id="clip0">
      <path d="M 294 -294 L 294 -526 L 786 -526 L 786 -294 Z"/>
    </clipPath>
    <clipPath id="clip1">
      <path d="M 294 -294 L 294 -526 L 786 -526 L 786 -294 Z"/>
    </clipPath>
    <clipPath id="clip2">
      <path d="M 280 -280 L 280 -540 L 800 -540 L 800 -280 Z"/>
    </clipPath>
    <clipPath id="clip3">
      <path d="M 343.6363636363636 -317.96178260869567 L 337.3863636363636 -327.96178260869567 L 349.8863636363636 -327.96178260869567 Z"/>
    </clipPath>
    <clipPath id="clip4">
      <path d="M 387.27272727272725 -340.7823188405797 L 381.02272727272725 -350.7823188405797 L 393.52272727272725 -350.7823188405797 Z"/>
    </clipPath>
    <clipPath id="clip5">
      <path d="M 430.9090909090909 -362.15515942028986 L 424.6590909090909 -372.15515942028986 L 437.1590909090909 -372.15515942028986 Z"/>
    </clipPath>
    <clipPath id="clip6">
      <path d="M 474.5454545454545 -381.66884057971015 L 468.2954545454545 -391.66884057971015 L 480.7954545454545 -391.66884057971015 Z"/>
    </clipPath>
    <clipPath id="clip7">
      <path d="M 518.1818181818182 -401.2800869565217 L 511.9318181818182 -411.2800869565217 L 524.4318181818182 -411.2800869565217 Z"/>
    </clipPath>
    <clipPath id="clip8">
      <path d="M 561.8181818181818 -424.9412463768116 L 555.5681818181818 -434.9412463768116 L 568.0681818181818 -434.9412463768116 Z"/>
    </clipPath>
    <clipPath id="clip9">
      <path d="M 605.4545454545455 -446.8286956521739 L 599.2045454545455 -456.8286956521739 L 611.7045454545455 -456.8286956521739 Z"/>
    </clipPath>
    <clipPath id="clip10">
      <path d="M 649.090909090909 -466.6835362318841 L 642.840909090909 -476.6835362318841 L 655.340909090909 -476.6835362318841 Z"/>
    </clipPath>
    <clipPath id="clip11">
      <path d="M 692.7272727272727 -483.94269565217394 L 686.4772727272727 -493.94269565217394 L 698.9772727272727 -493.94269565217394 Z"/>
    </clipPath>
    <clipPath id="clip12">
      <path d="M 736.3636363636364 -515.0 L 730.1136363636364 -525.0 L 742.6136363636364 -525.0 Z"/>
    </clipPath>
    <clipPath id="clip13">
      <path d="M 294 -294 L 294 -526 L 786 -526 L 786 -294 Z"/>
    </clipPath>
    <clipPath id="clip14">
      <path d="M 280 -280 L 280 -540 L 800 -540 L 800 -280 Z"/>
    </clipPath>
    <clipPath id="clip15">
      <path d="M 336.4935064935065 -302.12481739130436 L 343.6363636363636 -309.2676745341615 L 350.7792207792208 -302.12481739130436 L 343.6363636363636 -294.9819602484472 Z"/>
    </clipPath>
    <clipPath id="clip16">
      <path d="M 380.12987012987014 -302.12292985507247 L 387.27272727272725 -309.2657869979296 L 394.4155844155844 -302.12292985507247 L 387.27272727272725 -294.9800727122153 Z"/>
    </clipPath>
    <clipPath id="clip17">
      <path d="M 423.76623376623377 -302.1251649275362 L 430.9090909090909 -309.2680220703934 L 438.05194805194805 -302.1251649275362 L 430.9090909090909 -294.9823077846791 Z"/>
    </clipPath>
    <clipPath id="clip18">
      <path d="M 467.4025974025974 -302.13736376811596 L 474.5454545454545 -309.28022091097307 L 481.68831168831167 -302.13736376811596 L 474.5454545454545 -294.9945066252588 Z"/>
    </clipPath>
    <clipPath id="clip19">
      <path d="M 511.038961038961 -302.1172449275362 L 518.1818181818182 -309.2601020703934 L 525.3246753246754 -302.1172449275362 L 518.1818181818182 -294.9743877846791 Z"/>
    </clipPath>
    <clipPath id="clip20">
      <path d="M 554.6753246753246 -302.1307 L 561.8181818181818 -309.27355714285716 L 568.961038961039 -302.1307 L 561.8181818181818 -294.9878428571429 Z"/>
    </clipPath>
    <clipPath id="clip21">
      <path d="M 598.3116883116883 -302.12183304347826 L 605.4545454545455 -309.26469018633543 L 612.5974025974026 -302.12183304347826 L 605.4545454545455 -294.9789759006211 Z"/>
    </clipPath>
    <clipPath id="clip22">
      <path d="M 641.9480519480519 -302.1363339130435 L 649.090909090909 -309.27919105590064 L 656.2337662337662 -302.1363339130435 L 649.090909090909 -294.99347677018636 Z"/>
    </clipPath>
    <clipPath id="clip23">
      <path d="M 685.5844155844156 -302.1368504347826 L 692.7272727272727 -309.2797075776397 L 699.8701298701299 -302.1368504347826 L 692.7272727272727 -294.99399329192545 Z"/>
    </clipPath>
    <clipPath id="clip24">
      <path d="M 729.2207792207791 -302.1373 L 736.3636363636364 -309.28015714285715 L 743.5064935064936 -302.1373 L 736.3636363636364 -294.9944428571429 Z"/>
    </clipPath>
    <clipPath id="clip25">
      <path d="M 294 -294 L 294 -526 L 786 -526 L 786 -294 Z"/>
    </clipPath>
    <clipPath id="clip26">
      <path d="M 280 -280 L 280 -540 L 800 -540 L 800 -280 Z"/>
    </clipPath>
    <clipPath id="clip27">
      <path d="M 337.3863636363636 -296.69144289855075 L 349.8863636363636 -296.69144289855075 L 343.6363636363636 -306.69144289855075 Z"/>
    </clipPath>
    <clipPath id="clip28">
      <path d="M 381.02272727272725 -296.6947588405797 L 393.52272727272725 -296.6947588405797 L 387.27272727272725 -306.6947588405797 Z"/>
    </clipPath>
    <clipPath id="clip29">
      <path d="M 424.6590909090909 -296.7050286956522 L 437.1590909090909 -296.7050286956522 L 430.9090909090909 -306.7050286956522 Z"/>
    </clipPath>
    <clipPath id="clip30">
      <path d="M 468.2954545454545 -296.71349391304346 L 480.7954545454545 -296.71349391304346 L 474.5454545454545 -306.71349391304346 Z"/>
    </clipPath>
    <clipPath id="clip31">
      <path d="M 511.9318181818182 -296.7348211594203 L 524.4318181818182 -296.7348211594203 L 518.1818181818182 -306.7348211594203 Z"/>
    </clipPath>
    <clipPath id="clip32">
      <path d="M 555.5681818181818 -296.734935942029 L 568.0681818181818 -296.734935942029 L 561.8181818181818 -306.734935942029 Z"/>
    </clipPath>
    <clipPath id="clip33">
      <path d="M 599.2045454545455 -296.7234162318841 L 611.7045454545455 -296.7234162318841 L 605.4545454545455 -306.7234162318841 Z"/>
    </clipPath>
    <clipPath id="clip34">
      <path d="M 642.840909090909 -296.73872376811596 L 655.340909090909 -296.73872376811596 L 649.090909090909 -306.73872376811596 Z"/>
    </clipPath>
    <clipPath id="clip35">
      <path d="M 686.4772727272727 -296.7232663768116 L 698.9772727272727 -296.7232663768116 L 692.7272727272727 -306.7232663768116 Z"/>
    </clipPath>
    <clipPath id="clip36">
      <path d="M 730.1136363636364 -296.7713379710145 L 742.6136363636364 -296.7713379710145 L 736.3636363636364 -306.7713379710145 Z"/>
    </clipPath>
    <clipPath id="clip37">
      <path d="M 294 -294 L 294 -526 L 786 -526 L 786 -294 Z"/>
    </clipPath>
    <clipPath id="clip38">
      <path d="M 280 -280 L 280 -540 L 800 -540 L 800 -280 Z"/>
    </clipPath>
    <clipPath id="clip39">
      <path d="M 343.6363636363636 -296.2135263768116 L 337.3863636363636 -306.2135263768116 L 349.8863636363636 -306.2135263768116 Z"/>
    </clipPath>
    <clipPath id="clip40">
      <path d="M 387.27272727272725 -296.18551304347824 L 381.02272727272725 -306.18551304347824 L 393.52272727272725 -306.18551304347824 Z"/>
    </clipPath>
    <clipPath id="clip41">
      <path d="M 430.9090909090909 -296.17607536231884 L 424.6590909090909 -306.17607536231884 L 437.1590909090909 -306.17607536231884 Z"/>
    </clipPath>
    <clipPath id="clip42">
      <path d="M 474.5454545454545 -296.1834915942029 L 468.2954545454545 -306.1834915942029 L 480.7954545454545 -306.1834915942029 Z"/>
    </clipPath>
    <clipPath id="clip43">
      <path d="M 518.1818181818182 -296.17121942028984 L 511.9318181818182 -306.17121942028984 L 524.4318181818182 -306.17121942028984 Z"/>
    </clipPath>
    <clipPath id="clip44">
      <path d="M 561.8181818181818 -296.19550231884057 L 555.5681818181818 -306.19550231884057 L 568.0681818181818 -306.19550231884057 Z"/>
    </clipPath>
    <clipPath id="clip45">
      <path d="M 605.4545454545455 -296.1725107246377 L 599.2045454545455 -306.1725107246377 L 611.7045454545455 -306.1725107246377 Z"/>
    </clipPath>
    <clipPath id="clip46">
      <path d="M 649.090909090909 -296.17134376811595 L 642.840909090909 -306.17134376811595 L 655.340909090909 -306.17134376811595 Z"/>
    </clipPath>
    <clipPath id="clip47">
      <path d="M 692.7272727272727 -296.18166463768114 L 686.4772727272727 -306.18166463768114 L 698.9772727272727 -306.18166463768114 Z"/>
    </clipPath>
    <clipPath id="clip48">
      <path d="M 736.3636363636364 -296.1715924637681 L 730.1136363636364 -306.1715924637681 L 742.6136363636364 -306.1715924637681 Z"/>
    </clipPath>
    <clipPath id="clip49">
      <path d="M 294 -294 L 294 -526 L 786 -526 L 786 -294 Z"/>
    </clipPath>
    <clipPath id="clip50">
      <path d="M 280 -280 L 280 -540 L 800 -540 L 800 -280 Z"/>
    </clipPath>
    <clipPath id="clip51">
      <path d="M 294 -294 L 294 -526 L 786 -526 L 786 -294 Z"/>
    </clipPath>
    <clipPath id="clip52">
      <path d="M 280 -280 L 280 -540 L 800 -540 L 800 -280 Z"/>
    </clipPath>
    <clipPath id="clip53">
      <path d="M 343.6363636363636 -295.81628289855075 L 337.3863636363636 -305.81628289855075 L 349.8863636363636 -305.81628289855075 Z"/>
    </clipPath>
    <clipPath id="clip54">
      <path d="M 387.27272727272725 -295.89136347826087 L 381.02272727272725 -305.89136347826087 L 393.52272727272725 -305.89136347826087 Z"/>
    </clipPath>
    <clipPath id="clip55">
      <path d="M 430.9090909090909 -295.94318782608696 L 424.6590909090909 -305.94318782608696 L 437.1590909090909 -305.94318782608696 Z"/>
    </clipPath>
    <clipPath id="clip56">
      <path d="M 474.5454545454545 -295.94503710144926 L 468.2954545454545 -305.94503710144926 L 480.7954545454545 -305.94503710144926 Z"/>
    </clipPath>
    <clipPath id="clip57">
      <path d="M 518.1818181818182 -295.95860695652175 L 511.9318181818182 -305.95860695652175 L 524.4318181818182 -305.95860695652175 Z"/>
    </clipPath>
    <clipPath id="clip58">
      <path d="M 561.8181818181818 -295.9781997101449 L 555.5681818181818 -305.9781997101449 L 568.0681818181818 -305.9781997101449 Z"/>
    </clipPath>
    <clipPath id="clip59">
      <path d="M 605.4545454545455 -295.9791402898551 L 599.2045454545455 -305.9791402898551 L 611.7045454545455 -305.9791402898551 Z"/>
    </clipPath>
    <clipPath id="clip60">
      <path d="M 649.090909090909 -295.9892124637681 L 642.840909090909 -305.9892124637681 L 655.340909090909 -305.9892124637681 Z"/>
    </clipPath>
    <clipPath id="clip61">
      <path d="M 692.7272727272727 -295.9891391304348 L 686.4772727272727 -305.9891391304348 L 698.9772727272727 -305.9891391304348 Z"/>
    </clipPath>
    <clipPath id="clip62">
      <path d="M 736.3636363636364 -296.0042234782609 L 730.1136363636364 -306.0042234782609 L 742.6136363636364 -306.0042234782609 Z"/>
    </clipPath>
    <clipPath id="clip63">
      <path d="M 294 -294 L 294 -526 L 786 -526 L 786 -294 Z"/>
    </clipPath>
    <clipPath id="clip64">
      <path d="M 280 -280 L 280 -540 L 800 -540 L 800 -280 Z"/>
    </clipPath>
    <clipPath id="clip65">
      <path d="M 336.4935064935065 -300.63330985507247 L 343.6363636363636 -307.77616699792964 L 350.7792207792208 -300.63330985507247 L 343.6363636363636 -293.4904527122153 Z"/>
    </clipPath>
    <clipPath id="clip66">
      <path d="M 380.12987012987014 -300.6028542028985 L 387.27272727272725 -307.7457113457557 L 394.4155844155844 -300.6028542028985 L 387.27272727272725 -293.4599970600414 Z"/>
    </clipPath>
    <clipPath id="clip67">
      <path d="M 423.76623376623377 -300.5912611594203 L 430.9090909090909 -307.7341183022774 L 438.05194805194805 -300.5912611594203 L 430.9090909090909 -293.44840401656313 Z"/>
    </clipPath>
    <clipPath id="clip68">
      <path d="M 467.4025974025974 -300.5779431884058 L 474.5454545454545 -307.7208003312629 L 481.68831168831167 -300.5779431884058 L 474.5454545454545 -293.43508604554864 Z"/>
    </clipPath>
    <clipPath id="clip69">
      <path d="M 511.038961038961 -300.5727428985507 L 518.1818181818182 -307.71560004140787 L 525.3246753246754 -300.5727428985507 L 518.1818181818182 -293.4298857556936 Z"/>
    </clipPath>
    <clipPath id="clip70">
      <path d="M 554.6753246753246 -300.57923768115944 L 561.8181818181818 -307.72209482401655 L 568.961038961039 -300.57923768115944 L 561.8181818181818 -293.4363805383023 Z"/>
    </clipPath>
    <clipPath id="clip71">
      <path d="M 598.3116883116883 -300.57126985507244 L 605.4545454545455 -307.7141269979296 L 612.5974025974026 -300.57126985507244 L 605.4545454545455 -293.42841271221533 Z"/>
    </clipPath>
    <clipPath id="clip72">
      <path d="M 641.9480519480519 -300.57128260869564 L 649.090909090909 -307.7141397515528 L 656.2337662337662 -300.57128260869564 L 649.090909090909 -293.42842546583853 Z"/>
    </clipPath>
    <clipPath id="clip73">
      <path d="M 685.5844155844156 -300.56368144927535 L 692.7272727272727 -307.7065385921325 L 699.8701298701299 -300.56368144927535 L 692.7272727272727 -293.42082430641824 Z"/>
    </clipPath>
    <clipPath id="clip74">
      <path d="M 729.2207792207791 -300.5616408695652 L 736.3636363636364 -307.70449801242233 L 743.5064935064936 -300.5616408695652 L 736.3636363636364 -293.41878372670806 Z"/>
    </clipPath>
    <clipPath id="clip75">
      <path d="M 290 6 L 290 -136 L 456.72 -136 L 456.72 6 Z"/>
    </clipPath>
    <clipPath id="clip76">
      <path d="M 308.0 -120.33333333333334 L 301.75 -130.33333333333334 L 314.25 -130.33333333333334 Z"/>
    </clipPath>
    <clipPath id="clip77">
      <path d="M 300.85714285714283 -105.33333333333334 L 308.0 -112.47619047619048 L 315.14285714285717 -105.33333333333334 L 308.0 -98.1904761904762 Z"/>
    </clipPath>
    <clipPath id="clip78">
      <path d="M 301.75 -80.33333333333334 L 314.25 -80.33333333333334 L 308.0 -90.33333333333334 Z"/>
    </clipPath>
    <clipPath id="clip79">
      <path d="M 308.0 -60.33333333333334 L 301.75 -70.33333333333334 L 314.25 -70.33333333333334 Z"/>
    </clipPath>
    <clipPath id="clip80">
      <path d="M 308.0 -20.333333333333314 L 301.75 -30.333333333333314 L 314.25 -30.333333333333314 Z"/>
    </clipPath>
    <clipPath id="clip81">
      <path d="M 300.85714285714283 -5.333333333333314 L 308.0 -12.476190476190482 L 315.14285714285717 -5.333333333333314 L 308.0 1.8095238095238528 Z"/>
    </clipPath>
  </defs>
  <g style="stroke-linejoin:miter;font-size:8;font-family:Helvetica;fill:none;stroke-linecap:butt;stroke:rgb(0,0,0);font-stretch:normal;stroke-dasharray:none;font-weight:normal;font-style:normal;stroke-width:0.5;">
    <path d="M 300 -300 L 780 -300"/>
    <path d="M 300 -300 L 780 -300"/>
    <path d="M 300.0 -300 L 300.0 -288"/>
    <text style="font-size:12;font-style:italic;stroke:none;fill:rgb(0,0,0);" transform="rotate(90,300,-288)" x="300.0" y="-288.0">
      0
    </text>
    <path d="M 343.6363636363636 -300 L 343.6363636363636 -288"/>
    <text style="font-size:12;font-style:italic;stroke:none;fill:rgb(0,0,0);" transform="rotate(90,343.636,-288)" x="343.6363636363636" y="-288.0">
      200
    </text>
    <path d="M 387.27272727272725 -300 L 387.27272727272725 -288"/>
    <text style="font-size:12;font-style:italic;stroke:none;fill:rgb(0,0,0);" transform="rotate(90,387.273,-288)" x="387.27272727272725" y="-288.0">
      400
    </text>
    <path d="M 430.9090909090909 -300 L 430.9090909090909 -288"/>
    <text style="font-size:12;font-style:italic;stroke:none;fill:rgb(0,0,0);" transform="rotate(90,430.909,-288)" x="430.9090909090909" y="-288.0">
      600
    </text>
    <path d="M 474.5454545454545 -300 L 474.5454545454545 -288"/>
    <text style="font-size:12;font-style:italic;stroke:none;fill:rgb(0,0,0);" transform="rotate(90,474.545,-288)" x="474.5454545454545" y="-288.0">
      800
    </text>
    <path d="M 518.1818181818182 -300 L 518.1818181818182 -288"/>
    <text style="font-size:12;font-style:italic;stroke:none;fill:rgb(0,0,0);" transform="rotate(90,518.182,-288)" x="518.1818181818182" y="-288.0">
      1000
    </text>
    <path d="M 561.8181818181818 -300 L 561.8181818181818 -288"/>
    <text style="font-size:12;font-style:italic;stroke:none;fill:rgb(0,0,0);" transform="rotate(90,561.818,-288)" x="561.8181818181818" y="-288.0">
      1200
    </text>
    <path d="M 605.4545454545455 -300 L 605.4545454545455 -288"/>
    <text style="font-size:12;font-style:italic;stroke:none;fill:rgb(0,0,0);" transform="rotate(90,605.455,-288)" x="605.4545454545455" y="-288.0">
      1400
    </text>
    <path d="M 649.090909090909 -300 L 649.090909090909 -288"/>
    <text style="font-size:12;font-style:italic;stroke:none;fill:rgb(0,0,0);" transform="rotate(90,649.091,-288)" x="649.090909090909" y="-288.0">
      1600
    </text>
    <path d="M 692.7272727272727 -300 L 692.7272727272727 -288"/>
    <text style="font-size:12;font-style:italic;stroke:none;fill:rgb(0,0,0);" transform="rotate(90,692.727,-288)" x="692.7272727272727" y="-288.0">
      1800
    </text>
    <path d="M 736.3636363636364 -300 L 736.3636363636364 -288"/>
    <text style="font-size:12;font-style:italic;stroke:none;fill:rgb(0,0,0);" transform="rotate(90,736.364,-288)" x="736.3636363636364" y="-288.0">
      2000
    </text>
    <path d="M 780.0 -300 L 780.0 -288"/>
    <text style="font-size:12;font-style:italic;stroke:none;fill:rgb(0,0,0);" transform="rotate(90,780,-288)" x="780.0" y="-288.0">
      2200
    </text>
    <text style="font-size:16;stroke:none;fill:rgb(0,0,0);" x="524.44" y="-220.0">
      Size
    </text>
    <path d="M 300 -300 L 300 -520"/>
    <path d="M 300 -300.0 L 288 -300.0"/>
    <text style="font-size:12;font-style:italic;stroke:none;fill:rgb(0,0,0);" x="238.0" y="-294.0">
      0.00e+00
    </text>
    <path d="M 300 -344.0 L 288 -344.0"/>
    <text style="font-size:12;font-style:italic;stroke:none;fill:rgb(0,0,0);" x="238.0" y="-338.0">
      1.38e-06
    </text>
    <path d="M 300 -388.0 L 288 -388.0"/>
    <text style="font-size:12;font-style:italic;stroke:none;fill:rgb(0,0,0);" x="238.0" y="-382.0">
      2.76e-06
    </text>
    <path d="M 300 -432.0 L 288 -432.0"/>
    <text style="font-size:12;font-style:italic;stroke:none;fill:rgb(0,0,0);" x="238.0" y="-426.0">
      4.14e-06
    </text>
    <path d="M 300 -476.0 L 288 -476.0"/>
    <text style="font-size:12;font-style:italic;stroke:none;fill:rgb(0,0,0);" x="238.0" y="-470.0">
      5.52e-06
    </text>
    <path d="M 300 -520.0 L 288 -520.0"/>
    <text style="font-size:12;font-style:italic;stroke:none;fill:rgb(0,0,0);" x="238.0" y="-514.0">
      6.90e-06
    </text>
    <text style="font-size:16;stroke:none;fill:rgb(0,0,0);" transform="rotate(-90,200,-340.648)" x="200.0" y="-340.648">
      Average time (sec.)
    </text>
    <g style="clip-path:url(#clip0);">
      <g style="clip-path:url(#clip1);">
        <path d="M 343.6363636363636 -322.96178260869567 L 387.27272727272725 -345.7823188405797 L 430.9090909090909 -367.15515942028986 L 474.5454545454545 -386.66884057971015 L 518.1818181818182 -406.2800869565217 L 561.8181818181818 -429.9412463768116 L 605.4545454545455 -451.8286956521739 L 649.090909090909 -471.6835362318841 L 692.7272727272727 -488.94269565217394 L 736.3636363636364 -520.0" style="stroke:rgb(205,0,0);stroke-width:2;"/>
      </g>
      <g style="clip-path:url(#clip2);">
        <g style="fill:rgb(255,255,255);clip-path:url(#clip3);">
          <path d="M 337.3863636363636 -317.96178260869567 L 337.3863636363636 -327.96178260869567 L 349.8863636363636 -327.96178260869567 L 349.8863636363636 -317.96178260869567 Z" style="stroke:none;"/>
        </g>
        <g>
          <path d="M 343.6363636363636 -317.96178260869567 L 337.3863636363636 -327.96178260869567 L 349.8863636363636 -327.96178260869567 Z"/>
          <g style="fill:rgb(255,255,255);clip-path:url(#clip4);">
            <path d="M 381.02272727272725 -340.7823188405797 L 381.02272727272725 -350.7823188405797 L 393.52272727272725 -350.7823188405797 L 393.52272727272725 -340.7823188405797 Z" style="stroke:none;"/>
          </g>
          <g>
            <path d="M 387.27272727272725 -340.7823188405797 L 381.02272727272725 -350.7823188405797 L 393.52272727272725 -350.7823188405797 Z"/>
            <g style="fill:rgb(255,255,255);clip-path:url(#clip5);">
              <path d="M 424.6590909090909 -362.15515942028986 L 424.6590909090909 -372.15515942028986 L 437.1590909090909 -372.15515942028986 L 437.1590909090909 -362.15515942028986 Z" style="stroke:none;"/>
            </g>
            <g>
              <path d="M 430.9090909090909 -362.15515942028986 L 424.6590909090909 -372.15515942028986 L 437.1590909090909 -372.15515942028986 Z"/>
              <g style="fill:rgb(255,255,255);clip-path:url(#clip6);">
                <path d="M 468.2954545454545 -381.66884057971015 L 468.2954545454545 -391.66884057971015 L 480.7954545454545 -391.66884057971015 L 480.7954545454545 -381.66884057971015 Z" style="stroke:none;"/>
              </g>
              <g>
                <path d="M 474.5454545454545 -381.66884057971015 L 468.2954545454545 -391.66884057971015 L 480.7954545454545 -391.66884057971015 Z"/>
                <g style="fill:rgb(255,255,255);clip-path:url(#clip7);">
                  <path d="M 511.9318181818182 -401.2800869565217 L 511.9318181818182 -411.2800869565217 L 524.4318181818182 -411.2800869565217 L 524.4318181818182 -401.2800869565217 Z" style="stroke:none;"/>
                </g>
                <g>
                  <path d="M 518.1818181818182 -401.2800869565217 L 511.9318181818182 -411.2800869565217 L 524.4318181818182 -411.2800869565217 Z"/>
                  <g style="fill:rgb(255,255,255);clip-path:url(#clip8);">
                    <path d="M 555.5681818181818 -424.9412463768116 L 555.5681818181818 -434.9412463768116 L 568.0681818181818 -434.9412463768116 L 568.0681818181818 -424.9412463768116 Z" style="stroke:none;"/>
                  </g>
                  <g>
                    <path d="M 561.8181818181818 -424.9412463768116 L 555.5681818181818 -434.9412463768116 L 568.0681818181818 -434.9412463768116 Z"/>
                    <g style="fill:rgb(255,255,255);clip-path:url(#clip9);">
                      <path d="M 599.2045454545455 -446.8286956521739 L 599.2045454545455 -456.8286956521739 L 611.7045454545455 -456.8286956521739 L 611.7045454545455 -446.8286956521739 Z" style="stroke:none;"/>
                    </g>
                    <g>
                      <path d="M 605.4545454545455 -446.8286956521739 L 599.2045454545455 -456.8286956521739 L 611.7045454545455 -456.8286956521739 Z"/>
                      <g style="fill:rgb(255,255,255);clip-path:url(#clip10);">
                        <path d="M 642.840909090909 -466.6835362318841 L 642.840909090909 -476.6835362318841 L 655.340909090909 -476.6835362318841 L 655.340909090909 -466.6835362318841 Z" style="stroke:none;"/>
                      </g>
                      <g>
                        <path d="M 649.090909090909 -466.6835362318841 L 642.840909090909 -476.6835362318841 L 655.340909090909 -476.6835362318841 Z"/>
                        <g style="fill:rgb(255,255,255);clip-path:url(#clip11);">
                          <path d="M 686.4772727272727 -483.94269565217394 L 686.4772727272727 -493.94269565217394 L 698.9772727272727 -493.94269565217394 L 698.9772727272727 -483.94269565217394 Z" style="stroke:none;"/>
                        </g>
                        <g>
                          <path d="M 692.7272727272727 -483.94269565217394 L 686.4772727272727 -493.94269565217394 L 698.9772727272727 -493.94269565217394 Z"/>
                          <g style="fill:rgb(255,255,255);clip-path:url(#clip12);">
                            <path d="M 730.1136363636364 -515.0 L 730.1136363636364 -525.0 L 742.6136363636364 -525.0 L 742.6136363636364 -515.0 Z" style="stroke:none;"/>
                          </g>
                          <g>
                            <path d="M 736.3636363636364 -515.0 L 730.1136363636364 -525.0 L 742.6136363636364 -525.0 Z"/>
                          </g>
                        </g>
                      </g>
                    </g>
                  </g>
                </g>
              </g>
            </g>
          </g>
        </g>
      </g>
      <g style="clip-path:url(#clip13);">
        <path d="M 343.6363636363636 -302.12481739130436 L 387.27272727272725 -302.12292985507247 L 430.9090909090909 -302.1251649275362 L 474.5454545454545 -302.13736376811596 L 518.1818181818182 -302.1172449275362 L 561.8181818181818 -302.1307 L 605.4545454545455 -302.12183304347826 L 649.090909090909 -302.1363339130435 L 692.7272727272727 -302.1368504347826 L 736.3636363636364 -302.1373" style="stroke:rgb(126,126,126);stroke-width:2;"/>
      </g>
      <g style="clip-path:url(#clip14);">
        <g style="fill:rgb(255,255,255);clip-path:url(#clip15);">
          <path d="M 336.4935064935065 -294.9819602484472 L 336.4935064935065 -309.2676745341615 L 350.7792207792208 -309.2676745341615 L 350.7792207792208 -294.9819602484472 Z" style="stroke:none;"/>
        </g>
        <g>
          <path d="M 336.4935064935065 -302.12481739130436 L 343.6363636363636 -309.2676745341615 L 350.7792207792208 -302.12481739130436 L 343.6363636363636 -294.9819602484472 Z"/>
          <g style="fill:rgb(255,255,255);clip-path:url(#clip16);">
            <path d="M 380.12987012987014 -294.9800727122153 L 380.12987012987014 -309.2657869979296 L 394.4155844155844 -309.2657869979296 L 394.4155844155844 -294.9800727122153 Z" style="stroke:none;"/>
          </g>
          <g>
            <path d="M 380.12987012987014 -302.12292985507247 L 387.27272727272725 -309.2657869979296 L 394.4155844155844 -302.12292985507247 L 387.27272727272725 -294.9800727122153 Z"/>
            <g style="fill:rgb(255,255,255);clip-path:url(#clip17);">
              <path d="M 423.76623376623377 -294.9823077846791 L 423.76623376623377 -309.2680220703934 L 438.05194805194805 -309.2680220703934 L 438.05194805194805 -294.9823077846791 Z" style="stroke:none;"/>
            </g>
            <g>
              <path d="M 423.76623376623377 -302.1251649275362 L 430.9090909090909 -309.2680220703934 L 438.05194805194805 -302.1251649275362 L 430.9090909090909 -294.9823077846791 Z"/>
              <g style="fill:rgb(255,255,255);clip-path:url(#clip18);">
                <path d="M 467.4025974025974 -294.9945066252588 L 467.4025974025974 -309.28022091097307 L 481.68831168831167 -309.28022091097307 L 481.68831168831167 -294.9945066252588 Z" style="stroke:none;"/>
              </g>
              <g>
                <path d="M 467.4025974025974 -302.13736376811596 L 474.5454545454545 -309.28022091097307 L 481.68831168831167 -302.13736376811596 L 474.5454545454545 -294.9945066252588 Z"/>
                <g style="fill:rgb(255,255,255);clip-path:url(#clip19);">
                  <path d="M 511.038961038961 -294.9743877846791 L 511.038961038961 -309.2601020703934 L 525.3246753246754 -309.2601020703934 L 525.3246753246754 -294.9743877846791 Z" style="stroke:none;"/>
                </g>
                <g>
                  <path d="M 511.038961038961 -302.1172449275362 L 518.1818181818182 -309.2601020703934 L 525.3246753246754 -302.1172449275362 L 518.1818181818182 -294.9743877846791 Z"/>
                  <g style="fill:rgb(255,255,255);clip-path:url(#clip20);">
                    <path d="M 554.6753246753246 -294.9878428571429 L 554.6753246753246 -309.27355714285716 L 568.961038961039 -309.27355714285716 L 568.961038961039 -294.9878428571429 Z" style="stroke:none;"/>
                  </g>
                  <g>
                    <path d="M 554.6753246753246 -302.1307 L 561.8181818181818 -309.27355714285716 L 568.961038961039 -302.1307 L 561.8181818181818 -294.9878428571429 Z"/>
                    <g style="fill:rgb(255,255,255);clip-path:url(#clip21);">
                      <path d="M 598.3116883116883 -294.9789759006211 L 598.3116883116883 -309.26469018633543 L 612.5974025974026 -309.26469018633543 L 612.5974025974026 -294.9789759006211 Z" style="stroke:none;"/>
                    </g>
                    <g>
                      <path d="M 598.3116883116883 -302.12183304347826 L 605.4545454545455 -309.26469018633543 L 612.5974025974026 -302.12183304347826 L 605.4545454545455 -294.9789759006211 Z"/>
                      <g style="fill:rgb(255,255,255);clip-path:url(#clip22);">
                        <path d="M 641.9480519480519 -294.99347677018636 L 641.9480519480519 -309.27919105590064 L 656.2337662337662 -309.27919105590064 L 656.2337662337662 -294.99347677018636 Z" style="stroke:none;"/>
                      </g>
                      <g>
                        <path d="M 641.9480519480519 -302.1363339130435 L 649.090909090909 -309.27919105590064 L 656.2337662337662 -302.1363339130435 L 649.090909090909 -294.99347677018636 Z"/>
                        <g style="fill:rgb(255,255,255);clip-path:url(#clip23);">
                          <path d="M 685.5844155844156 -294.99399329192545 L 685.5844155844156 -309.2797075776397 L 699.8701298701299 -309.2797075776397 L 699.8701298701299 -294.99399329192545 Z" style="stroke:none;"/>
                        </g>
                        <g>
                          <path d="M 685.5844155844156 -302.1368504347826 L 692.7272727272727 -309.2797075776397 L 699.8701298701299 -302.1368504347826 L 692.7272727272727 -294.99399329192545 Z"/>
                          <g style="fill:rgb(255,255,255);clip-path:url(#clip24);">
                            <path d="M 729.2207792207791 -294.9944428571429 L 729.2207792207791 -309.28015714285715 L 743.5064935064936 -309.28015714285715 L 743.5064935064936 -294.9944428571429 Z" style="stroke:none;"/>
                          </g>
                          <g>
                            <path d="M 729.2207792207791 -302.1373 L 736.3636363636364 -309.28015714285715 L 743.5064935064936 -302.1373 L 736.3636363636364 -294.9944428571429 Z"/>
                          </g>
                        </g>
                      </g>
                    </g>
                  </g>
                </g>
              </g>
            </g>
          </g>
        </g>
      </g>
      <g style="clip-path:url(#clip25);">
        <path d="M 343.6363636363636 -301.69144289855075 L 387.27272727272725 -301.6947588405797 L 430.9090909090909 -301.7050286956522 L 474.5454545454545 -301.71349391304346 L 518.1818181818182 -301.7348211594203 L 561.8181818181818 -301.734935942029 L 605.4545454545455 -301.7234162318841 L 649.090909090909 -301.73872376811596 L 692.7272727272727 -301.7232663768116 L 736.3636363636364 -301.7713379710145" style="stroke:rgb(147,147,147);stroke-width:2;"/>
      </g>
      <g style="clip-path:url(#clip26);">
        <g style="fill:rgb(255,255,255);clip-path:url(#clip27);">
          <path d="M 337.3863636363636 -296.69144289855075 L 337.3863636363636 -306.69144289855075 L 349.8863636363636 -306.69144289855075 L 349.8863636363636 -296.69144289855075 Z" style="stroke:none;"/>
        </g>
        <g>
          <path d="M 337.3863636363636 -296.69144289855075 L 349.8863636363636 -296.69144289855075 L 343.6363636363636 -306.69144289855075 Z"/>
          <g style="fill:rgb(255,255,255);clip-path:url(#clip28);">
            <path d="M 381.02272727272725 -296.6947588405797 L 381.02272727272725 -306.6947588405797 L 393.52272727272725 -306.6947588405797 L 393.52272727272725 -296.6947588405797 Z" style="stroke:none;"/>
          </g>
          <g>
            <path d="M 381.02272727272725 -296.6947588405797 L 393.52272727272725 -296.6947588405797 L 387.27272727272725 -306.6947588405797 Z"/>
            <g style="fill:rgb(255,255,255);clip-path:url(#clip29);">
              <path d="M 424.6590909090909 -296.7050286956522 L 424.6590909090909 -306.7050286956522 L 437.1590909090909 -306.7050286956522 L 437.1590909090909 -296.7050286956522 Z" style="stroke:none;"/>
            </g>
            <g>
              <path d="M 424.6590909090909 -296.7050286956522 L 437.1590909090909 -296.7050286956522 L 430.9090909090909 -306.7050286956522 Z"/>
              <g style="fill:rgb(255,255,255);clip-path:url(#clip30);">
                <path d="M 468.2954545454545 -296.71349391304346 L 468.2954545454545 -306.71349391304346 L 480.7954545454545 -306.71349391304346 L 480.7954545454545 -296.71349391304346 Z" style="stroke:none;"/>
              </g>
              <g>
                <path d="M 468.2954545454545 -296.71349391304346 L 480.7954545454545 -296.71349391304346 L 474.5454545454545 -306.71349391304346 Z"/>
                <g style="fill:rgb(255,255,255);clip-path:url(#clip31);">
                  <path d="M 511.9318181818182 -296.7348211594203 L 511.9318181818182 -306.7348211594203 L 524.4318181818182 -306.7348211594203 L 524.4318181818182 -296.7348211594203 Z" style="stroke:none;"/>
                </g>
                <g>
                  <path d="M 511.9318181818182 -296.7348211594203 L 524.4318181818182 -296.7348211594203 L 518.1818181818182 -306.7348211594203 Z"/>
                  <g style="fill:rgb(255,255,255);clip-path:url(#clip32);">
                    <path d="M 555.5681818181818 -296.734935942029 L 555.5681818181818 -306.734935942029 L 568.0681818181818 -306.734935942029 L 568.0681818181818 -296.734935942029 Z" style="stroke:none;"/>
                  </g>
                  <g>
                    <path d="M 555.5681818181818 -296.734935942029 L 568.0681818181818 -296.734935942029 L 561.8181818181818 -306.734935942029 Z"/>
                    <g style="fill:rgb(255,255,255);clip-path:url(#clip33);">
                      <path d="M 599.2045454545455 -296.7234162318841 L 599.2045454545455 -306.7234162318841 L 611.7045454545455 -306.7234162318841 L 611.7045454545455 -296.7234162318841 Z" style="stroke:none;"/>
                    </g>
                    <g>
                      <path d="M 599.2045454545455 -296.7234162318841 L 611.7045454545455 -296.7234162318841 L 605.4545454545455 -306.7234162318841 Z"/>
                      <g style="fill:rgb(255,255,255);clip-path:url(#clip34);">
                        <path d="M 642.840909090909 -296.73872376811596 L 642.840909090909 -306.73872376811596 L 655.340909090909 -306.73872376811596 L 655.340909090909 -296.73872376811596 Z" style="stroke:none;"/>
                      </g>
                      <g>
                        <path d="M 642.840909090909 -296.73872376811596 L 655.340909090909 -296.73872376811596 L 649.090909090909 -306.73872376811596 Z"/>
                        <g style="fill:rgb(255,255,255);clip-path:url(#clip35);">
                          <path d="M 686.4772727272727 -296.7232663768116 L 686.4772727272727 -306.7232663768116 L 698.9772727272727 -306.7232663768116 L 698.9772727272727 -296.7232663768116 Z" style="stroke:none;"/>
                        </g>
                        <g>
                          <path d="M 686.4772727272727 -296.7232663768116 L 698.9772727272727 -296.7232663768116 L 692.7272727272727 -306.7232663768116 Z"/>
                          <g style="fill:rgb(255,255,255);clip-path:url(#clip36);">
                            <path d="M 730.1136363636364 -296.7713379710145 L 730.1136363636364 -306.7713379710145 L 742.6136363636364 -306.7713379710145 L 742.6136363636364 -296.7713379710145 Z" style="stroke:none;"/>
                          </g>
                          <g>
                            <path d="M 730.1136363636364 -296.7713379710145 L 742.6136363636364 -296.7713379710145 L 736.3636363636364 -306.7713379710145 Z"/>
                          </g>
                        </g>
                      </g>
                    </g>
                  </g>
                </g>
              </g>
            </g>
          </g>
        </g>
      </g>
      <g style="clip-path:url(#clip37);">
        <path d="M 343.6363636363636 -301.2135263768116 L 387.27272727272725 -301.18551304347824 L 430.9090909090909 -301.17607536231884 L 474.5454545454545 -301.1834915942029 L 518.1818181818182 -301.17121942028984 L 561.8181818181818 -301.19550231884057 L 605.4545454545455 -301.1725107246377 L 649.090909090909 -301.17134376811595 L 692.7272727272727 -301.18166463768114 L 736.3636363636364 -301.1715924637681" style="stroke:rgb(126,126,126);stroke-width:0.4;stroke-dasharray:1.5,1.5;"/>
      </g>
      <g style="clip-path:url(#clip38);">
        <g style="fill:rgb(0,0,0);clip-path:url(#clip39);">
          <path d="M 337.3863636363636 -296.2135263768116 L 337.3863636363636 -306.2135263768116 L 349.8863636363636 -306.2135263768116 L 349.8863636363636 -296.2135263768116 Z" style="stroke:none;"/>
        </g>
        <g>
          <path d="M 343.6363636363636 -296.2135263768116 L 337.3863636363636 -306.2135263768116 L 349.8863636363636 -306.2135263768116 Z"/>
          <g style="fill:rgb(0,0,0);clip-path:url(#clip40);">
            <path d="M 381.02272727272725 -296.18551304347824 L 381.02272727272725 -306.18551304347824 L 393.52272727272725 -306.18551304347824 L 393.52272727272725 -296.18551304347824 Z" style="stroke:none;"/>
          </g>
          <g>
            <path d="M 387.27272727272725 -296.18551304347824 L 381.02272727272725 -306.18551304347824 L 393.52272727272725 -306.18551304347824 Z"/>
            <g style="fill:rgb(0,0,0);clip-path:url(#clip41);">
              <path d="M 424.6590909090909 -296.17607536231884 L 424.6590909090909 -306.17607536231884 L 437.1590909090909 -306.17607536231884 L 437.1590909090909 -296.17607536231884 Z" style="stroke:none;"/>
            </g>
            <g>
              <path d="M 430.9090909090909 -296.17607536231884 L 424.6590909090909 -306.17607536231884 L 437.1590909090909 -306.17607536231884 Z"/>
              <g style="fill:rgb(0,0,0);clip-path:url(#clip42);">
                <path d="M 468.2954545454545 -296.1834915942029 L 468.2954545454545 -306.1834915942029 L 480.7954545454545 -306.1834915942029 L 480.7954545454545 -296.1834915942029 Z" style="stroke:none;"/>
              </g>
              <g>
                <path d="M 474.5454545454545 -296.1834915942029 L 468.2954545454545 -306.1834915942029 L 480.7954545454545 -306.1834915942029 Z"/>
                <g style="fill:rgb(0,0,0);clip-path:url(#clip43);">
                  <path d="M 511.9318181818182 -296.17121942028984 L 511.9318181818182 -306.17121942028984 L 524.4318181818182 -306.17121942028984 L 524.4318181818182 -296.17121942028984 Z" style="stroke:none;"/>
                </g>
                <g>
                  <path d="M 518.1818181818182 -296.17121942028984 L 511.9318181818182 -306.17121942028984 L 524.4318181818182 -306.17121942028984 Z"/>
                  <g style="fill:rgb(0,0,0);clip-path:url(#clip44);">
                    <path d="M 555.5681818181818 -296.19550231884057 L 555.5681818181818 -306.19550231884057 L 568.0681818181818 -306.19550231884057 L 568.0681818181818 -296.19550231884057 Z" style="stroke:none;"/>
                  </g>
                  <g>
                    <path d="M 561.8181818181818 -296.19550231884057 L 555.5681818181818 -306.19550231884057 L 568.0681818181818 -306.19550231884057 Z"/>
                    <g style="fill:rgb(0,0,0);clip-path:url(#clip45);">
                      <path d="M 599.2045454545455 -296.1725107246377 L 599.2045454545455 -306.1725107246377 L 611.7045454545455 -306.1725107246377 L 611.7045454545455 -296.1725107246377 Z" style="stroke:none;"/>
                    </g>
                    <g>
                      <path d="M 605.4545454545455 -296.1725107246377 L 599.2045454545455 -306.1725107246377 L 611.7045454545455 -306.1725107246377 Z"/>
                      <g style="fill:rgb(0,0,0);clip-path:url(#clip46);">
                        <path d="M 642.840909090909 -296.17134376811595 L 642.840909090909 -306.17134376811595 L 655.340909090909 -306.17134376811595 L 655.340909090909 -296.17134376811595 Z" style="stroke:none;"/>
                      </g>
                      <g>
                        <path d="M 649.090909090909 -296.17134376811595 L 642.840909090909 -306.17134376811595 L 655.340909090909 -306.17134376811595 Z"/>
                        <g style="fill:rgb(0,0,0);clip-path:url(#clip47);">
                          <path d="M 686.4772727272727 -296.18166463768114 L 686.4772727272727 -306.18166463768114 L 698.9772727272727 -306.18166463768114 L 698.9772727272727 -296.18166463768114 Z" style="stroke:none;"/>
                        </g>
                        <g>
                          <path d="M 692.7272727272727 -296.18166463768114 L 686.4772727272727 -306.18166463768114 L 698.9772727272727 -306.18166463768114 Z"/>
                          <g style="fill:rgb(0,0,0);clip-path:url(#clip48);">
                            <path d="M 730.1136363636364 -296.1715924637681 L 730.1136363636364 -306.1715924637681 L 742.6136363636364 -306.1715924637681 L 742.6136363636364 -296.1715924637681 Z" style="stroke:none;"/>
                          </g>
                          <g>
                            <path d="M 736.3636363636364 -296.1715924637681 L 730.1136363636364 -306.1715924637681 L 742.6136363636364 -306.1715924637681 Z"/>
                          </g>
                        </g>
                      </g>
                    </g>
                  </g>
                </g>
              </g>
            </g>
          </g>
        </g>
      </g>
      <g style="clip-path:url(#clip49);">
        <path d="M 343.6363636363636 -301.18088985507245 L 387.27272727272725 -301.1558863768116 L 430.9090909090909 -301.1584753623188 L 474.5454545454545 -301.1528095652174 L 518.1818181818182 -301.1669979710145 L 561.8181818181818 -301.1458428985507 L 605.4545454545455 -301.14631478260867 L 649.090909090909 -301.147064057971 L 692.7272727272727 -301.14330492753624 L 736.3636363636364 -301.1715924637681" style="stroke:rgb(137,42,226);stroke-width:2;"/>
      </g>
      <g style="clip-path:url(#clip50);">
        <path d="M 336.4935064935065 -301.18088985507245 L 350.7792207792208 -301.18088985507245" style="stroke-width:1;"/>
        <path d="M 343.6363636363636 -294.03803271221534 L 343.6363636363636 -308.3237469979296" style="stroke-width:1;"/>
        <path d="M 380.12987012987014 -301.1558863768116 L 394.4155844155844 -301.1558863768116" style="stroke-width:1;"/>
        <path d="M 387.27272727272725 -294.01302923395446 L 387.27272727272725 -308.29874351966873" style="stroke-width:1;"/>
        <path d="M 423.76623376623377 -301.1584753623188 L 438.05194805194805 -301.1584753623188" style="stroke-width:1;"/>
        <path d="M 430.9090909090909 -294.0156182194617 L 430.9090909090909 -308.301332505176" style="stroke-width:1;"/>
        <path d="M 467.4025974025974 -301.1528095652174 L 481.68831168831167 -301.1528095652174" style="stroke-width:1;"/>
        <path d="M 474.5454545454545 -294.00995242236024 L 474.5454545454545 -308.2956667080745" style="stroke-width:1;"/>
        <path d="M 511.038961038961 -301.1669979710145 L 525.3246753246754 -301.1669979710145" style="stroke-width:1;"/>
        <path d="M 518.1818181818182 -294.02414082815733 L 518.1818181818182 -308.30985511387166" style="stroke-width:1;"/>
        <path d="M 554.6753246753246 -301.1458428985507 L 568.961038961039 -301.1458428985507" style="stroke-width:1;"/>
        <path d="M 561.8181818181818 -294.0029857556936 L 561.8181818181818 -308.2887000414079" style="stroke-width:1;"/>
        <path d="M 598.3116883116883 -301.14631478260867 L 612.5974025974026 -301.14631478260867" style="stroke-width:1;"/>
        <path d="M 605.4545454545455 -294.00345763975156 L 605.4545454545455 -308.28917192546584" style="stroke-width:1;"/>
        <path d="M 641.9480519480519 -301.147064057971 L 656.2337662337662 -301.147064057971" style="stroke-width:1;"/>
        <path d="M 649.090909090909 -294.00420691511385 L 649.090909090909 -308.28992120082813" style="stroke-width:1;"/>
        <path d="M 685.5844155844156 -301.14330492753624 L 699.8701298701299 -301.14330492753624" style="stroke-width:1;"/>
        <path d="M 692.7272727272727 -294.00044778467907 L 692.7272727272727 -308.2861620703934" style="stroke-width:1;"/>
        <path d="M 729.2207792207791 -301.1715924637681 L 743.5064935064936 -301.1715924637681" style="stroke-width:1;"/>
        <path d="M 736.3636363636364 -294.028735320911 L 736.3636363636364 -308.31444960662526" style="stroke-width:1;"/>
      </g>
      <g style="clip-path:url(#clip51);">
        <path d="M 343.6363636363636 -300.81628289855075 L 387.27272727272725 -300.89136347826087 L 430.9090909090909 -300.94318782608696 L 474.5454545454545 -300.94503710144926 L 518.1818181818182 -300.95860695652175 L 561.8181818181818 -300.9781997101449 L 605.4545454545455 -300.9791402898551 L 649.090909090909 -300.9892124637681 L 692.7272727272727 -300.9891391304348 L 736.3636363636364 -301.0042234782609" style="stroke:rgb(126,126,126);stroke-width:0.4;stroke-dasharray:1.5,1.5;"/>
      </g>
      <g style="clip-path:url(#clip52);">
        <g style="fill:rgb(0,0,0);clip-path:url(#clip53);">
          <path d="M 337.3863636363636 -295.81628289855075 L 337.3863636363636 -305.81628289855075 L 349.8863636363636 -305.81628289855075 L 349.8863636363636 -295.81628289855075 Z" style="stroke:none;"/>
        </g>
        <g>
          <path d="M 343.6363636363636 -295.81628289855075 L 337.3863636363636 -305.81628289855075 L 349.8863636363636 -305.81628289855075 Z"/>
          <g style="fill:rgb(0,0,0);clip-path:url(#clip54);">
            <path d="M 381.02272727272725 -295.89136347826087 L 381.02272727272725 -305.89136347826087 L 393.52272727272725 -305.89136347826087 L 393.52272727272725 -295.89136347826087 Z" style="stroke:none;"/>
          </g>
          <g>
            <path d="M 387.27272727272725 -295.89136347826087 L 381.02272727272725 -305.89136347826087 L 393.52272727272725 -305.89136347826087 Z"/>
            <g style="fill:rgb(0,0,0);clip-path:url(#clip55);">
              <path d="M 424.6590909090909 -295.94318782608696 L 424.6590909090909 -305.94318782608696 L 437.1590909090909 -305.94318782608696 L 437.1590909090909 -295.94318782608696 Z" style="stroke:none;"/>
            </g>
            <g>
              <path d="M 430.9090909090909 -295.94318782608696 L 424.6590909090909 -305.94318782608696 L 437.1590909090909 -305.94318782608696 Z"/>
              <g style="fill:rgb(0,0,0);clip-path:url(#clip56);">
                <path d="M 468.2954545454545 -295.94503710144926 L 468.2954545454545 -305.94503710144926 L 480.7954545454545 -305.94503710144926 L 480.7954545454545 -295.94503710144926 Z" style="stroke:none;"/>
              </g>
              <g>
                <path d="M 474.5454545454545 -295.94503710144926 L 468.2954545454545 -305.94503710144926 L 480.7954545454545 -305.94503710144926 Z"/>
                <g style="fill:rgb(0,0,0);clip-path:url(#clip57);">
                  <path d="M 511.9318181818182 -295.95860695652175 L 511.9318181818182 -305.95860695652175 L 524.4318181818182 -305.95860695652175 L 524.4318181818182 -295.95860695652175 Z" style="stroke:none;"/>
                </g>
                <g>
                  <path d="M 518.1818181818182 -295.95860695652175 L 511.9318181818182 -305.95860695652175 L 524.4318181818182 -305.95860695652175 Z"/>
                  <g style="fill:rgb(0,0,0);clip-path:url(#clip58);">
                    <path d="M 555.5681818181818 -295.9781997101449 L 555.5681818181818 -305.9781997101449 L 568.0681818181818 -305.9781997101449 L 568.0681818181818 -295.9781997101449 Z" style="stroke:none;"/>
                  </g>
                  <g>
                    <path d="M 561.8181818181818 -295.9781997101449 L 555.5681818181818 -305.9781997101449 L 568.0681818181818 -305.9781997101449 Z"/>
                    <g style="fill:rgb(0,0,0);clip-path:url(#clip59);">
                      <path d="M 599.2045454545455 -295.9791402898551 L 599.2045454545455 -305.9791402898551 L 611.7045454545455 -305.9791402898551 L 611.7045454545455 -295.9791402898551 Z" style="stroke:none;"/>
                    </g>
                    <g>
                      <path d="M 605.4545454545455 -295.9791402898551 L 599.2045454545455 -305.9791402898551 L 611.7045454545455 -305.9791402898551 Z"/>
                      <g style="fill:rgb(0,0,0);clip-path:url(#clip60);">
                        <path d="M 642.840909090909 -295.9892124637681 L 642.840909090909 -305.9892124637681 L 655.340909090909 -305.9892124637681 L 655.340909090909 -295.9892124637681 Z" style="stroke:none;"/>
                      </g>
                      <g>
                        <path d="M 649.090909090909 -295.9892124637681 L 642.840909090909 -305.9892124637681 L 655.340909090909 -305.9892124637681 Z"/>
                        <g style="fill:rgb(0,0,0);clip-path:url(#clip61);">
                          <path d="M 686.4772727272727 -295.9891391304348 L 686.4772727272727 -305.9891391304348 L 698.9772727272727 -305.9891391304348 L 698.9772727272727 -295.9891391304348 Z" style="stroke:none;"/>
                        </g>
                        <g>
                          <path d="M 692.7272727272727 -295.9891391304348 L 686.4772727272727 -305.9891391304348 L 698.9772727272727 -305.9891391304348 Z"/>
                          <g style="fill:rgb(0,0,0);clip-path:url(#clip62);">
                            <path d="M 730.1136363636364 -296.0042234782609 L 730.1136363636364 -306.0042234782609 L 742.6136363636364 -306.0042234782609 L 742.6136363636364 -296.0042234782609 Z" style="stroke:none;"/>
                          </g>
                          <g>
                            <path d="M 736.3636363636364 -296.0042234782609 L 730.1136363636364 -306.0042234782609 L 742.6136363636364 -306.0042234782609 Z"/>
                          </g>
                        </g>
                      </g>
                    </g>
                  </g>
                </g>
              </g>
            </g>
          </g>
        </g>
      </g>
      <g style="clip-path:url(#clip63);">
        <path d="M 343.6363636363636 -300.63330985507247 L 387.27272727272725 -300.6028542028985 L 430.9090909090909 -300.5912611594203 L 474.5454545454545 -300.5779431884058 L 518.1818181818182 -300.5727428985507 L 561.8181818181818 -300.57923768115944 L 605.4545454545455 -300.57126985507244 L 649.090909090909 -300.57128260869564 L 692.7272727272727 -300.56368144927535 L 736.3636363636364 -300.5616408695652" style="stroke:rgb(126,126,126);stroke-width:0.4;stroke-dasharray:5,2,5,2;"/>
      </g>
      <g style="clip-path:url(#clip64);">
        <g style="fill:rgb(0,0,0);clip-path:url(#clip65);">
          <path d="M 336.4935064935065 -293.4904527122153 L 336.4935064935065 -307.77616699792964 L 350.7792207792208 -307.77616699792964 L 350.7792207792208 -293.4904527122153 Z" style="stroke:none;"/>
        </g>
        <g>
          <path d="M 336.4935064935065 -300.63330985507247 L 343.6363636363636 -307.77616699792964 L 350.7792207792208 -300.63330985507247 L 343.6363636363636 -293.4904527122153 Z"/>
          <g style="fill:rgb(0,0,0);clip-path:url(#clip66);">
            <path d="M 380.12987012987014 -293.4599970600414 L 380.12987012987014 -307.7457113457557 L 394.4155844155844 -307.7457113457557 L 394.4155844155844 -293.4599970600414 Z" style="stroke:none;"/>
          </g>
          <g>
            <path d="M 380.12987012987014 -300.6028542028985 L 387.27272727272725 -307.7457113457557 L 394.4155844155844 -300.6028542028985 L 387.27272727272725 -293.4599970600414 Z"/>
            <g style="fill:rgb(0,0,0);clip-path:url(#clip67);">
              <path d="M 423.76623376623377 -293.44840401656313 L 423.76623376623377 -307.7341183022774 L 438.05194805194805 -307.7341183022774 L 438.05194805194805 -293.44840401656313 Z" style="stroke:none;"/>
            </g>
            <g>
              <path d="M 423.76623376623377 -300.5912611594203 L 430.9090909090909 -307.7341183022774 L 438.05194805194805 -300.5912611594203 L 430.9090909090909 -293.44840401656313 Z"/>
              <g style="fill:rgb(0,0,0);clip-path:url(#clip68);">
                <path d="M 467.4025974025974 -293.43508604554864 L 467.4025974025974 -307.7208003312629 L 481.68831168831167 -307.7208003312629 L 481.68831168831167 -293.43508604554864 Z" style="stroke:none;"/>
              </g>
              <g>
                <path d="M 467.4025974025974 -300.5779431884058 L 474.5454545454545 -307.7208003312629 L 481.68831168831167 -300.5779431884058 L 474.5454545454545 -293.43508604554864 Z"/>
                <g style="fill:rgb(0,0,0);clip-path:url(#clip69);">
                  <path d="M 511.038961038961 -293.4298857556936 L 511.038961038961 -307.71560004140787 L 525.3246753246754 -307.71560004140787 L 525.3246753246754 -293.4298857556936 Z" style="stroke:none;"/>
                </g>
                <g>
                  <path d="M 511.038961038961 -300.5727428985507 L 518.1818181818182 -307.71560004140787 L 525.3246753246754 -300.5727428985507 L 518.1818181818182 -293.4298857556936 Z"/>
                  <g style="fill:rgb(0,0,0);clip-path:url(#clip70);">
                    <path d="M 554.6753246753246 -293.4363805383023 L 554.6753246753246 -307.72209482401655 L 568.961038961039 -307.72209482401655 L 568.961038961039 -293.4363805383023 Z" style="stroke:none;"/>
                  </g>
                  <g>
                    <path d="M 554.6753246753246 -300.57923768115944 L 561.8181818181818 -307.72209482401655 L 568.961038961039 -300.57923768115944 L 561.8181818181818 -293.4363805383023 Z"/>
                    <g style="fill:rgb(0,0,0);clip-path:url(#clip71);">
                      <path d="M 598.3116883116883 -293.42841271221533 L 598.3116883116883 -307.7141269979296 L 612.5974025974026 -307.7141269979296 L 612.5974025974026 -293.42841271221533 Z" style="stroke:none;"/>
                    </g>
                    <g>
                      <path d="M 598.3116883116883 -300.57126985507244 L 605.4545454545455 -307.7141269979296 L 612.5974025974026 -300.57126985507244 L 605.4545454545455 -293.42841271221533 Z"/>
                      <g style="fill:rgb(0,0,0);clip-path:url(#clip72);">
                        <path d="M 641.9480519480519 -293.42842546583853 L 641.9480519480519 -307.7141397515528 L 656.2337662337662 -307.7141397515528 L 656.2337662337662 -293.42842546583853 Z" style="stroke:none;"/>
                      </g>
                      <g>
                        <path d="M 641.9480519480519 -300.57128260869564 L 649.090909090909 -307.7141397515528 L 656.2337662337662 -300.57128260869564 L 649.090909090909 -293.42842546583853 Z"/>
                        <g style="fill:rgb(0,0,0);clip-path:url(#clip73);">
                          <path d="M 685.5844155844156 -293.42082430641824 L 685.5844155844156 -307.7065385921325 L 699.8701298701299 -307.7065385921325 L 699.8701298701299 -293.42082430641824 Z" style="stroke:none;"/>
                        </g>
                        <g>
                          <path d="M 685.5844155844156 -300.56368144927535 L 692.7272727272727 -307.7065385921325 L 699.8701298701299 -300.56368144927535 L 692.7272727272727 -293.42082430641824 Z"/>
                          <g style="fill:rgb(0,0,0);clip-path:url(#clip74);">
                            <path d="M 729.2207792207791 -293.41878372670806 L 729.2207792207791 -307.70449801242233 L 743.5064935064936 -307.70449801242233 L 743.5064935064936 -293.41878372670806 Z" style="stroke:none;"/>
                          </g>
                          <g>
                            <path d="M 729.2207792207791 -300.5616408695652 L 736.3636363636364 -307.70449801242233 L 743.5064935064936 -300.5616408695652 L 736.3636363636364 -293.41878372670806 Z"/>
                          </g>
                        </g>
                      </g>
                    </g>
                  </g>
                </g>
              </g>
            </g>
          </g>
        </g>
      </g>
    </g>
    <g style="fill:rgb(255,255,255);clip-path:url(#clip75);">
      <path d="M 290 6 L 290 -136 L 456.72 -136 L 456.72 6 Z" style="stroke:none;"/>
    </g>
    <path d="M 300 -125.33333333333334 L 316 -125.33333333333334" style="stroke:rgb(205,0,0);stroke-width:2;"/>
    <g style="fill:rgb(255,255,255);clip-path:url(#clip76);">
      <path d="M 301.75 -120.33333333333334 L 301.75 -130.33333333333334 L 314.25 -130.33333333333334 L 314.25 -120.33333333333334 Z" style="stroke:none;"/>
    </g>
    <g>
      <path d="M 308.0 -120.33333333333334 L 301.75 -130.33333333333334 L 314.25 -130.33333333333334 Z"/>
      <text style="font-size:16;stroke:none;fill:rgb(0,0,0);" x="316.0" y="-120.0">
        binary_heap
      </text>
      <path d="M 300 -105.33333333333334 L 316 -105.33333333333334" style="stroke:rgb(126,126,126);stroke-width:2;"/>
      <g style="fill:rgb(255,255,255);clip-path:url(#clip77);">
        <path d="M 300.85714285714283 -98.1904761904762 L 300.85714285714283 -112.47619047619048 L 315.14285714285717 -112.47619047619048 L 315.14285714285717 -98.1904761904762 Z" style="stroke:none;"/>
      </g>
      <g>
        <path d="M 300.85714285714283 -105.33333333333334 L 308.0 -112.47619047619048 L 315.14285714285717 -105.33333333333334 L 308.0 -98.1904761904762 Z"/>
        <text style="font-size:16;stroke:none;fill:rgb(0,0,0);" x="316.0" y="-100.0">
          rc_binomial_heap
        </text>
        <path d="M 300 -85.33333333333334 L 316 -85.33333333333334" style="stroke:rgb(147,147,147);stroke-width:2;"/>
        <g style="fill:rgb(255,255,255);clip-path:url(#clip78);">
          <path d="M 301.75 -80.33333333333334 L 301.75 -90.33333333333334 L 314.25 -90.33333333333334 L 314.25 -80.33333333333334 Z" style="stroke:none;"/>
        </g>
        <g>
          <path d="M 301.75 -80.33333333333334 L 314.25 -80.33333333333334 L 308.0 -90.33333333333334 Z"/>
          <text style="font-size:16;stroke:none;fill:rgb(0,0,0);" x="316.0" y="-80.0">
            binomial_heap
          </text>
          <path d="M 300 -65.33333333333334 L 316 -65.33333333333334" style="stroke:rgb(126,126,126);stroke-width:0.4;stroke-dasharray:1.5,1.5;"/>
          <g style="fill:rgb(0,0,0);clip-path:url(#clip79);">
            <path d="M 301.75 -60.33333333333334 L 301.75 -70.33333333333334 L 314.25 -70.33333333333334 L 314.25 -60.33333333333334 Z" style="stroke:none;"/>
          </g>
          <g>
            <path d="M 308.0 -60.33333333333334 L 301.75 -70.33333333333334 L 314.25 -70.33333333333334 Z"/>
            <text style="font-size:16;stroke:none;fill:rgb(0,0,0);" x="316.0" y="-60.0">
              thin_heap
            </text>
            <path d="M 300 -45.33333333333334 L 316 -45.33333333333334" style="stroke:rgb(137,42,226);stroke-width:2;"/>
            <path d="M 300.85714285714283 -45.33333333333334 L 315.14285714285717 -45.33333333333334" style="stroke-width:1;"/>
            <path d="M 308.0 -38.190476190476204 L 308.0 -52.47619047619048" style="stroke-width:1;"/>
            <text style="font-size:16;stroke:none;fill:rgb(0,0,0);" x="316.0" y="-40.0">
              pairing_heap
            </text>
            <path d="M 300 -25.333333333333314 L 316 -25.333333333333314" style="stroke:rgb(126,126,126);stroke-width:0.4;stroke-dasharray:1.5,1.5;"/>
            <g style="fill:rgb(0,0,0);clip-path:url(#clip80);">
              <path d="M 301.75 -20.333333333333314 L 301.75 -30.333333333333314 L 314.25 -30.333333333333314 L 314.25 -20.333333333333314 Z" style="stroke:none;"/>
            </g>
            <g>
              <path d="M 308.0 -20.333333333333314 L 301.75 -30.333333333333314 L 314.25 -30.333333333333314 Z"/>
              <text style="font-size:16;stroke:none;fill:rgb(0,0,0);" x="316.0" y="-20.0">
                n_pq_deque
              </text>
              <path d="M 300 -5.333333333333314 L 316 -5.333333333333314" style="stroke:rgb(126,126,126);stroke-width:0.4;stroke-dasharray:5,2,5,2;"/>
              <g style="fill:rgb(0,0,0);clip-path:url(#clip81);">
                <path d="M 300.85714285714283 1.8095238095238528 L 300.85714285714283 -12.476190476190482 L 315.14285714285717 -12.476190476190482 L 315.14285714285717 1.8095238095238528 Z" style="stroke:none;"/>
              </g>
              <g>
                <path d="M 300.85714285714283 -5.333333333333314 L 308.0 -12.476190476190482 L 315.14285714285717 -5.333333333333314 L 308.0 1.8095238095238528 Z"/>
                <text style="font-size:16;stroke:none;fill:rgb(0,0,0);" x="316.0" y="-0.0">
                  n_pq_vector
                </text>
              </g>
            </g>
          </g>
        </g>
      </g>
    </g>
  </g>
</svg>
