<?xml version="1.0" ?>
<!--Created by PyChart 1.39 Copyright 1999-2006 Yasushi Saito-->
<svg viewBox="178 -544 620 476" xmlns="http://www.w3.org/2000/svg" xmlns:xlink="http://www.w3.org/1999/xlink">
  <defs>
    <clipPath id="clip0">
      <path d="M 294 -294 L 294 -526 L 786 -526 L 786 -294 Z"/>
    </clipPath>
    <clipPath id="clip1">
      <path d="M 294 -294 L 294 -526 L 786 -526 L 786 -294 Z"/>
    </clipPath>
    <clipPath id="clip2">
      <path d="M 280 -280 L 280 -540 L 800 -540 L 800 -280 Z"/>
    </clipPath>
    <clipPath id="clip3">
      <path d="M 294 -294 L 294 -526 L 786 -526 L 786 -294 Z"/>
    </clipPath>
    <clipPath id="clip4">
      <path d="M 280 -280 L 280 -540 L 800 -540 L 800 -280 Z"/>
    </clipPath>
    <clipPath id="clip5">
      <path d="M 387.27272727272725 -355.0698557327259 L 381.02272727272725 -365.0698557327259 L 393.52272727272725 -365.0698557327259 Z"/>
    </clipPath>
    <clipPath id="clip6">
      <path d="M 474.5454545454545 -366.05195791300577 L 468.2954545454545 -376.05195791300577 L 480.7954545454545 -376.05195791300577 Z"/>
    </clipPath>
    <clipPath id="clip7">
      <path d="M 561.8181818181818 -375.14500488122354 L 555.5681818181818 -385.14500488122354 L 568.0681818181818 -385.14500488122354 Z"/>
    </clipPath>
    <clipPath id="clip8">
      <path d="M 649.090909090909 -374.34509165853126 L 642.840909090909 -384.34509165853126 L 655.340909090909 -384.34509165853126 Z"/>
    </clipPath>
    <clipPath id="clip9">
      <path d="M 736.3636363636364 -383.60804859529236 L 730.1136363636364 -393.60804859529236 L 742.6136363636364 -393.60804859529236 Z"/>
    </clipPath>
    <clipPath id="clip10">
      <path d="M 294 -294 L 294 -526 L 786 -526 L 786 -294 Z"/>
    </clipPath>
    <clipPath id="clip11">
      <path d="M 280 -280 L 280 -540 L 800 -540 L 800 -280 Z"/>
    </clipPath>
    <clipPath id="clip12">
      <path d="M 290 -74 L 290 -200 L 687.072 -200 L 687.072 -74 Z"/>
    </clipPath>
    <clipPath id="clip13">
      <path d="M 308.0 -132.33333333333334 L 301.75 -142.33333333333334 L 314.25 -142.33333333333334 Z"/>
    </clipPath>
  </defs>
  <g style="stroke-linejoin:miter;font-size:8;font-family:Helvetica;fill:none;stroke-linecap:butt;stroke:rgb(0,0,0);font-stretch:normal;stroke-dasharray:none;font-weight:normal;font-style:normal;stroke-width:0.5;">
    <path d="M 300 -300 L 780 -300"/>
    <path d="M 300 -300 L 780 -300"/>
    <path d="M 300.0 -300 L 300.0 -288"/>
    <text style="font-size:12;font-style:italic;stroke:none;fill:rgb(0,0,0);" transform="rotate(90,300,-288)" x="300.0" y="-288.0">
      0
    </text>
    <path d="M 343.6363636363636 -300 L 343.6363636363636 -288"/>
    <text style="font-size:12;font-style:italic;stroke:none;fill:rgb(0,0,0);" transform="rotate(90,343.636,-288)" x="343.6363636363636" y="-288.0">
      200
    </text>
    <path d="M 387.27272727272725 -300 L 387.27272727272725 -288"/>
    <text style="font-size:12;font-style:italic;stroke:none;fill:rgb(0,0,0);" transform="rotate(90,387.273,-288)" x="387.27272727272725" y="-288.0">
      400
    </text>
    <path d="M 430.9090909090909 -300 L 430.9090909090909 -288"/>
    <text style="font-size:12;font-style:italic;stroke:none;fill:rgb(0,0,0);" transform="rotate(90,430.909,-288)" x="430.9090909090909" y="-288.0">
      600
    </text>
    <path d="M 474.5454545454545 -300 L 474.5454545454545 -288"/>
    <text style="font-size:12;font-style:italic;stroke:none;fill:rgb(0,0,0);" transform="rotate(90,474.545,-288)" x="474.5454545454545" y="-288.0">
      800
    </text>
    <path d="M 518.1818181818182 -300 L 518.1818181818182 -288"/>
    <text style="font-size:12;font-style:italic;stroke:none;fill:rgb(0,0,0);" transform="rotate(90,518.182,-288)" x="518.1818181818182" y="-288.0">
      1000
    </text>
    <path d="M 561.8181818181818 -300 L 561.8181818181818 -288"/>
    <text style="font-size:12;font-style:italic;stroke:none;fill:rgb(0,0,0);" transform="rotate(90,561.818,-288)" x="561.8181818181818" y="-288.0">
      1200
    </text>
    <path d="M 605.4545454545455 -300 L 605.4545454545455 -288"/>
    <text style="font-size:12;font-style:italic;stroke:none;fill:rgb(0,0,0);" transform="rotate(90,605.455,-288)" x="605.4545454545455" y="-288.0">
      1400
    </text>
    <path d="M 649.090909090909 -300 L 649.090909090909 -288"/>
    <text style="font-size:12;font-style:italic;stroke:none;fill:rgb(0,0,0);" transform="rotate(90,649.091,-288)" x="649.090909090909" y="-288.0">
      1600
    </text>
    <path d="M 692.7272727272727 -300 L 692.7272727272727 -288"/>
    <text style="font-size:12;font-style:italic;stroke:none;fill:rgb(0,0,0);" transform="rotate(90,692.727,-288)" x="692.7272727272727" y="-288.0">
      1800
    </text>
    <path d="M 736.3636363636364 -300 L 736.3636363636364 -288"/>
    <text style="font-size:12;font-style:italic;stroke:none;fill:rgb(0,0,0);" transform="rotate(90,736.364,-288)" x="736.3636363636364" y="-288.0">
      2000
    </text>
    <path d="M 780.0 -300 L 780.0 -288"/>
    <text style="font-size:12;font-style:italic;stroke:none;fill:rgb(0,0,0);" transform="rotate(90,780,-288)" x="780.0" y="-288.0">
      2200
    </text>
    <text style="font-size:16;stroke:none;fill:rgb(0,0,0);" x="524.44" y="-220.0">
      Size
    </text>
    <path d="M 300 -300 L 300 -520"/>
    <path d="M 300 -300.0 L 288 -300.0"/>
    <text style="font-size:12;font-style:italic;stroke:none;fill:rgb(0,0,0);" x="238.0" y="-294.0">
      0.00e+00
    </text>
    <path d="M 300 -344.0 L 288 -344.0"/>
    <text style="font-size:12;font-style:italic;stroke:none;fill:rgb(0,0,0);" x="238.0" y="-338.0">
      1.38e-07
    </text>
    <path d="M 300 -388.0 L 288 -388.0"/>
    <text style="font-size:12;font-style:italic;stroke:none;fill:rgb(0,0,0);" x="238.0" y="-382.0">
      2.77e-07
    </text>
    <path d="M 300 -432.0 L 288 -432.0"/>
    <text style="font-size:12;font-style:italic;stroke:none;fill:rgb(0,0,0);" x="238.0" y="-426.0">
      4.15e-07
    </text>
    <path d="M 300 -476.0 L 288 -476.0"/>
    <text style="font-size:12;font-style:italic;stroke:none;fill:rgb(0,0,0);" x="238.0" y="-470.0">
      5.53e-07
    </text>
    <path d="M 300 -520.0 L 288 -520.0"/>
    <text style="font-size:12;font-style:italic;stroke:none;fill:rgb(0,0,0);" x="238.0" y="-514.0">
      6.91e-07
    </text>
    <text style="font-size:16;stroke:none;fill:rgb(0,0,0);" transform="rotate(-90,200,-340.648)" x="200.0" y="-340.648">
      Average time (sec.)
    </text>
    <g style="clip-path:url(#clip0);">
      <g style="clip-path:url(#clip1);">
        <path d="M 387.27272727272725 -520.0 L 474.5454545454545 -431.5990888382688 L 561.8181818181818 -402.33957406804785 L 649.090909090909 -412.0298513938605 L 736.3636363636364 -398.9903749502838" style="stroke:rgb(0,0,128);stroke-width:2;"/>
      </g>
      <g style="clip-path:url(#clip2);">
        <path d="M 382.27272727272725 -515.0 L 392.27272727272725 -525.0" style="stroke-width:0.7;"/>
        <path d="M 392.27272727272725 -515.0 L 382.27272727272725 -525.0" style="stroke-width:0.7;"/>
        <path d="M 469.5454545454545 -426.5990888382688 L 479.5454545454545 -436.5990888382688" style="stroke-width:0.7;"/>
        <path d="M 479.5454545454545 -426.5990888382688 L 469.5454545454545 -436.5990888382688" style="stroke-width:0.7;"/>
        <path d="M 556.8181818181818 -397.33957406804785 L 566.8181818181818 -407.33957406804785" style="stroke-width:0.7;"/>
        <path d="M 566.8181818181818 -397.33957406804785 L 556.8181818181818 -407.33957406804785" style="stroke-width:0.7;"/>
        <path d="M 644.090909090909 -407.0298513938605 L 654.090909090909 -417.0298513938605" style="stroke-width:0.7;"/>
        <path d="M 654.090909090909 -407.0298513938605 L 644.090909090909 -417.0298513938605" style="stroke-width:0.7;"/>
        <path d="M 731.3636363636364 -393.9903749502838 L 741.3636363636364 -403.9903749502838" style="stroke-width:0.7;"/>
        <path d="M 741.3636363636364 -393.9903749502838 L 731.3636363636364 -403.9903749502838" style="stroke-width:0.7;"/>
      </g>
      <g style="clip-path:url(#clip3);">
        <path d="M 387.27272727272725 -360.0698557327259 L 474.5454545454545 -371.05195791300577 L 561.8181818181818 -380.14500488122354 L 649.090909090909 -379.34509165853126 L 736.3636363636364 -388.60804859529236" style="stroke:rgb(126,126,126);stroke-width:0.4;stroke-dasharray:1.5,1.5;"/>
      </g>
      <g style="clip-path:url(#clip4);">
        <g style="fill:rgb(0,0,0);clip-path:url(#clip5);">
          <path d="M 381.02272727272725 -355.0698557327259 L 381.02272727272725 -365.0698557327259 L 393.52272727272725 -365.0698557327259 L 393.52272727272725 -355.0698557327259 Z" style="stroke:none;"/>
        </g>
        <g>
          <path d="M 387.27272727272725 -355.0698557327259 L 381.02272727272725 -365.0698557327259 L 393.52272727272725 -365.0698557327259 Z"/>
          <g style="fill:rgb(0,0,0);clip-path:url(#clip6);">
            <path d="M 468.2954545454545 -366.05195791300577 L 468.2954545454545 -376.05195791300577 L 480.7954545454545 -376.05195791300577 L 480.7954545454545 -366.05195791300577 Z" style="stroke:none;"/>
          </g>
          <g>
            <path d="M 474.5454545454545 -366.05195791300577 L 468.2954545454545 -376.05195791300577 L 480.7954545454545 -376.05195791300577 Z"/>
            <g style="fill:rgb(0,0,0);clip-path:url(#clip7);">
              <path d="M 555.5681818181818 -375.14500488122354 L 555.5681818181818 -385.14500488122354 L 568.0681818181818 -385.14500488122354 L 568.0681818181818 -375.14500488122354 Z" style="stroke:none;"/>
            </g>
            <g>
              <path d="M 561.8181818181818 -375.14500488122354 L 555.5681818181818 -385.14500488122354 L 568.0681818181818 -385.14500488122354 Z"/>
              <g style="fill:rgb(0,0,0);clip-path:url(#clip8);">
                <path d="M 642.840909090909 -374.34509165853126 L 642.840909090909 -384.34509165853126 L 655.340909090909 -384.34509165853126 L 655.340909090909 -374.34509165853126 Z" style="stroke:none;"/>
              </g>
              <g>
                <path d="M 649.090909090909 -374.34509165853126 L 642.840909090909 -384.34509165853126 L 655.340909090909 -384.34509165853126 Z"/>
                <g style="fill:rgb(0,0,0);clip-path:url(#clip9);">
                  <path d="M 730.1136363636364 -383.60804859529236 L 730.1136363636364 -393.60804859529236 L 742.6136363636364 -393.60804859529236 L 742.6136363636364 -383.60804859529236 Z" style="stroke:none;"/>
                </g>
                <g>
                  <path d="M 736.3636363636364 -383.60804859529236 L 730.1136363636364 -393.60804859529236 L 742.6136363636364 -393.60804859529236 Z"/>
                </g>
              </g>
            </g>
          </g>
        </g>
      </g>
      <g style="clip-path:url(#clip10);">
        <path d="M 387.27272727272725 -370.4159091730846 L 474.5454545454545 -350.6061250316376 L 561.8181818181818 -344.411411215967 L 649.090909090909 -340.2992081570669 L 736.3636363636364 -338.76683660556097" style="stroke:rgb(0,0,128);stroke-width:2;"/>
      </g>
      <g style="clip-path:url(#clip11);">
        <path d="M 382.27272727272725 -365.4159091730846 L 392.27272727272725 -375.4159091730846" style="stroke-width:0.7;"/>
        <path d="M 392.27272727272725 -365.4159091730846 L 382.27272727272725 -375.4159091730846" style="stroke-width:0.7;"/>
        <path d="M 469.5454545454545 -345.6061250316376 L 479.5454545454545 -355.6061250316376" style="stroke-width:0.7;"/>
        <path d="M 479.5454545454545 -345.6061250316376 L 469.5454545454545 -355.6061250316376" style="stroke-width:0.7;"/>
        <path d="M 556.8181818181818 -339.411411215967 L 566.8181818181818 -349.411411215967" style="stroke-width:0.7;"/>
        <path d="M 566.8181818181818 -339.411411215967 L 556.8181818181818 -349.411411215967" style="stroke-width:0.7;"/>
        <path d="M 644.090909090909 -335.2992081570669 L 654.090909090909 -345.2992081570669" style="stroke-width:0.7;"/>
        <path d="M 654.090909090909 -335.2992081570669 L 644.090909090909 -345.2992081570669" style="stroke-width:0.7;"/>
        <path d="M 731.3636363636364 -333.76683660556097 L 741.3636363636364 -343.76683660556097" style="stroke-width:0.7;"/>
        <path d="M 741.3636363636364 -333.76683660556097 L 731.3636363636364 -343.76683660556097" style="stroke-width:0.7;"/>
      </g>
    </g>
    <g style="fill:rgb(255,255,255);clip-path:url(#clip12);">
      <path d="M 290 -74 L 290 -200 L 687.072 -200 L 687.072 -74 Z" style="stroke:none;"/>
    </g>
    <path d="M 300 -189.33333333333331 L 316 -189.33333333333331" style="stroke:rgb(0,0,128);stroke-width:2;"/>
    <path d="M 303.0 -184.33333333333331 L 313.0 -194.33333333333331" style="stroke-width:0.7;"/>
    <path d="M 313.0 -184.33333333333331 L 303.0 -194.33333333333331" style="stroke-width:0.7;"/>
    <text style="font-size:16;stroke:none;fill:rgb(0,0,0);" x="316.0" y="-184.0">
      cc_hash_mask_exp_nea_lc_1div8_1div2_nsth_
    </text>
    <text style="font-size:16;stroke:none;fill:rgb(0,0,0);" x="316.0" y="-168.0">
      mmap_
    </text>
    <text style="font-size:16;stroke:none;fill:rgb(0,0,0);" x="316.0" y="-152.0">
      cc_hash_mask_exp_nea_lc_1div8_1div2_nsth_set
    </text>
    <path d="M 300 -137.33333333333334 L 316 -137.33333333333334" style="stroke:rgb(126,126,126);stroke-width:0.4;stroke-dasharray:1.5,1.5;"/>
    <g style="fill:rgb(0,0,0);clip-path:url(#clip13);">
      <path d="M 301.75 -132.33333333333334 L 301.75 -142.33333333333334 L 314.25 -142.33333333333334 L 314.25 -132.33333333333334 Z" style="stroke:none;"/>
    </g>
    <g>
      <path d="M 308.0 -132.33333333333334 L 301.75 -142.33333333333334 L 314.25 -142.33333333333334 Z"/>
      <text style="font-size:16;stroke:none;fill:rgb(0,0,0);" x="316.0" y="-132.0">
        n_hash_mmap
      </text>
      <path d="M 300 -117.33333333333334 L 316 -117.33333333333334" style="stroke:rgb(0,0,128);stroke-width:2;"/>
      <path d="M 303.0 -112.33333333333334 L 313.0 -122.33333333333334" style="stroke-width:0.7;"/>
      <path d="M 313.0 -112.33333333333334 L 303.0 -122.33333333333334" style="stroke-width:0.7;"/>
      <text style="font-size:16;stroke:none;fill:rgb(0,0,0);" x="316.0" y="-112.0">
        cc_hash_mask_exp_nea_lc_1div8_1div2_nsth_
      </text>
      <text style="font-size:16;stroke:none;fill:rgb(0,0,0);" x="316.0" y="-96.0">
        mmap_
      </text>
      <text style="font-size:16;stroke:none;fill:rgb(0,0,0);" x="316.0" y="-80.0">
        lu_mtf_set
      </text>
    </g>
  </g>
</svg>
