<?xml version="1.0" ?>
<!--Created by PyChart 1.39 Copyright 1999-2006 Yasushi Saito-->
<svg viewBox="178 -544 620 476" xmlns="http://www.w3.org/2000/svg" xmlns:xlink="http://www.w3.org/1999/xlink">
  <defs>
    <clipPath id="clip0">
      <path d="M 294 -294 L 294 -526 L 786 -526 L 786 -294 Z"/>
    </clipPath>
    <clipPath id="clip1">
      <path d="M 294 -294 L 294 -526 L 786 -526 L 786 -294 Z"/>
    </clipPath>
    <clipPath id="clip2">
      <path d="M 280 -280 L 280 -540 L 800 -540 L 800 -280 Z"/>
    </clipPath>
    <clipPath id="clip3">
      <path d="M 337.3863636363636 -510.0304052177379 L 349.8863636363636 -510.0304052177379 L 343.6363636363636 -520.0304052177379 Z"/>
    </clipPath>
    <clipPath id="clip4">
      <path d="M 381.02272727272725 -515.0 L 393.52272727272725 -515.0 L 387.27272727272725 -525.0 Z"/>
    </clipPath>
    <clipPath id="clip5">
      <path d="M 424.6590909090909 -488.12479373139496 L 437.1590909090909 -488.12479373139496 L 430.9090909090909 -498.12479373139496 Z"/>
    </clipPath>
    <clipPath id="clip6">
      <path d="M 468.2954545454545 -512.1877542617952 L 480.7954545454545 -512.1877542617952 L 474.5454545454545 -522.1877542617952 Z"/>
    </clipPath>
    <clipPath id="clip7">
      <path d="M 511.9318181818182 -478.91454516343003 L 524.4318181818182 -478.91454516343003 L 518.1818181818182 -488.91454516343003 Z"/>
    </clipPath>
    <clipPath id="clip8">
      <path d="M 555.5681818181818 -485.63676139501297 L 568.0681818181818 -485.63676139501297 L 561.8181818181818 -495.63676139501297 Z"/>
    </clipPath>
    <clipPath id="clip9">
      <path d="M 599.2045454545455 -495.1374361588456 L 611.7045454545455 -495.1374361588456 L 605.4545454545455 -505.1374361588456 Z"/>
    </clipPath>
    <clipPath id="clip10">
      <path d="M 642.840909090909 -506.73076106171555 L 655.340909090909 -506.73076106171555 L 649.090909090909 -516.7307610617156 Z"/>
    </clipPath>
    <clipPath id="clip11">
      <path d="M 686.4772727272727 -471.9982322167871 L 698.9772727272727 -471.9982322167871 L 692.7272727272727 -481.9982322167871 Z"/>
    </clipPath>
    <clipPath id="clip12">
      <path d="M 730.1136363636364 -476.39128786764826 L 742.6136363636364 -476.39128786764826 L 736.3636363636364 -486.39128786764826 Z"/>
    </clipPath>
    <clipPath id="clip13">
      <path d="M 294 -294 L 294 -526 L 786 -526 L 786 -294 Z"/>
    </clipPath>
    <clipPath id="clip14">
      <path d="M 280 -280 L 280 -540 L 800 -540 L 800 -280 Z"/>
    </clipPath>
    <clipPath id="clip15">
      <path d="M 343.6363636363636 -423.3640653132178 L 337.3863636363636 -433.3640653132178 L 349.8863636363636 -433.3640653132178 Z"/>
    </clipPath>
    <clipPath id="clip16">
      <path d="M 387.27272727272725 -426.75860119660297 L 381.02272727272725 -436.75860119660297 L 393.52272727272725 -436.75860119660297 Z"/>
    </clipPath>
    <clipPath id="clip17">
      <path d="M 430.9090909090909 -422.01185819829885 L 424.6590909090909 -432.01185819829885 L 437.1590909090909 -432.01185819829885 Z"/>
    </clipPath>
    <clipPath id="clip18">
      <path d="M 474.5454545454545 -423.55241101449843 L 468.2954545454545 -433.55241101449843 L 480.7954545454545 -433.55241101449843 Z"/>
    </clipPath>
    <clipPath id="clip19">
      <path d="M 518.1818181818182 -423.36047092960564 L 511.9318181818182 -433.36047092960564 L 524.4318181818182 -433.36047092960564 Z"/>
    </clipPath>
    <clipPath id="clip20">
      <path d="M 561.8181818181818 -423.6674312900896 L 555.5681818181818 -433.6674312900896 L 568.0681818181818 -433.6674312900896 Z"/>
    </clipPath>
    <clipPath id="clip21">
      <path d="M 605.4545454545455 -424.42081409521194 L 599.2045454545455 -434.42081409521194 L 611.7045454545455 -434.42081409521194 Z"/>
    </clipPath>
    <clipPath id="clip22">
      <path d="M 649.090909090909 -426.1820620652021 L 642.840909090909 -436.1820620652021 L 655.340909090909 -436.1820620652021 Z"/>
    </clipPath>
    <clipPath id="clip23">
      <path d="M 692.7272727272727 -427.6902654288916 L 686.4772727272727 -437.6902654288916 L 698.9772727272727 -437.6902654288916 Z"/>
    </clipPath>
    <clipPath id="clip24">
      <path d="M 736.3636363636364 -431.25733172566356 L 730.1136363636364 -441.25733172566356 L 742.6136363636364 -441.25733172566356 Z"/>
    </clipPath>
    <clipPath id="clip25">
      <path d="M 294 -294 L 294 -526 L 786 -526 L 786 -294 Z"/>
    </clipPath>
    <clipPath id="clip26">
      <path d="M 280 -280 L 280 -540 L 800 -540 L 800 -280 Z"/>
    </clipPath>
    <clipPath id="clip27">
      <path d="M 290 -74 L 290 -136 L 763.568 -136 L 763.568 -74 Z"/>
    </clipPath>
    <clipPath id="clip28">
      <path d="M 301.75 -120.33333333333334 L 314.25 -120.33333333333334 L 308.0 -130.33333333333334 Z"/>
    </clipPath>
    <clipPath id="clip29">
      <path d="M 308.0 -100.33333333333334 L 301.75 -110.33333333333334 L 314.25 -110.33333333333334 Z"/>
    </clipPath>
  </defs>
  <g style="stroke-linejoin:miter;font-size:8;font-family:Helvetica;fill:none;stroke-linecap:butt;stroke:rgb(0,0,0);font-stretch:normal;stroke-dasharray:none;font-weight:normal;font-style:normal;stroke-width:0.5;">
    <path d="M 300 -300 L 780 -300"/>
    <path d="M 300 -300 L 780 -300"/>
    <path d="M 300.0 -300 L 300.0 -288"/>
    <text style="font-size:12;font-style:italic;stroke:none;fill:rgb(0,0,0);" transform="rotate(90,300,-288)" x="300.0" y="-288.0">
      0
    </text>
    <path d="M 343.6363636363636 -300 L 343.6363636363636 -288"/>
    <text style="font-size:12;font-style:italic;stroke:none;fill:rgb(0,0,0);" transform="rotate(90,343.636,-288)" x="343.6363636363636" y="-288.0">
      200
    </text>
    <path d="M 387.27272727272725 -300 L 387.27272727272725 -288"/>
    <text style="font-size:12;font-style:italic;stroke:none;fill:rgb(0,0,0);" transform="rotate(90,387.273,-288)" x="387.27272727272725" y="-288.0">
      400
    </text>
    <path d="M 430.9090909090909 -300 L 430.9090909090909 -288"/>
    <text style="font-size:12;font-style:italic;stroke:none;fill:rgb(0,0,0);" transform="rotate(90,430.909,-288)" x="430.9090909090909" y="-288.0">
      600
    </text>
    <path d="M 474.5454545454545 -300 L 474.5454545454545 -288"/>
    <text style="font-size:12;font-style:italic;stroke:none;fill:rgb(0,0,0);" transform="rotate(90,474.545,-288)" x="474.5454545454545" y="-288.0">
      800
    </text>
    <path d="M 518.1818181818182 -300 L 518.1818181818182 -288"/>
    <text style="font-size:12;font-style:italic;stroke:none;fill:rgb(0,0,0);" transform="rotate(90,518.182,-288)" x="518.1818181818182" y="-288.0">
      1000
    </text>
    <path d="M 561.8181818181818 -300 L 561.8181818181818 -288"/>
    <text style="font-size:12;font-style:italic;stroke:none;fill:rgb(0,0,0);" transform="rotate(90,561.818,-288)" x="561.8181818181818" y="-288.0">
      1200
    </text>
    <path d="M 605.4545454545455 -300 L 605.4545454545455 -288"/>
    <text style="font-size:12;font-style:italic;stroke:none;fill:rgb(0,0,0);" transform="rotate(90,605.455,-288)" x="605.4545454545455" y="-288.0">
      1400
    </text>
    <path d="M 649.090909090909 -300 L 649.090909090909 -288"/>
    <text style="font-size:12;font-style:italic;stroke:none;fill:rgb(0,0,0);" transform="rotate(90,649.091,-288)" x="649.090909090909" y="-288.0">
      1600
    </text>
    <path d="M 692.7272727272727 -300 L 692.7272727272727 -288"/>
    <text style="font-size:12;font-style:italic;stroke:none;fill:rgb(0,0,0);" transform="rotate(90,692.727,-288)" x="692.7272727272727" y="-288.0">
      1800
    </text>
    <path d="M 736.3636363636364 -300 L 736.3636363636364 -288"/>
    <text style="font-size:12;font-style:italic;stroke:none;fill:rgb(0,0,0);" transform="rotate(90,736.364,-288)" x="736.3636363636364" y="-288.0">
      2000
    </text>
    <path d="M 780.0 -300 L 780.0 -288"/>
    <text style="font-size:12;font-style:italic;stroke:none;fill:rgb(0,0,0);" transform="rotate(90,780,-288)" x="780.0" y="-288.0">
      2200
    </text>
    <text style="font-size:16;stroke:none;fill:rgb(0,0,0);" x="524.44" y="-220.0">
      Size
    </text>
    <path d="M 300 -300 L 300 -520"/>
    <path d="M 300 -300.0 L 288 -300.0"/>
    <text style="font-size:12;font-style:italic;stroke:none;fill:rgb(0,0,0);" x="238.0" y="-294.0">
      0.00e+00
    </text>
    <path d="M 300 -344.0 L 288 -344.0"/>
    <text style="font-size:12;font-style:italic;stroke:none;fill:rgb(0,0,0);" x="238.0" y="-338.0">
      6.12e-09
    </text>
    <path d="M 300 -388.0 L 288 -388.0"/>
    <text style="font-size:12;font-style:italic;stroke:none;fill:rgb(0,0,0);" x="238.0" y="-382.0">
      1.22e-08
    </text>
    <path d="M 300 -432.0 L 288 -432.0"/>
    <text style="font-size:12;font-style:italic;stroke:none;fill:rgb(0,0,0);" x="238.0" y="-426.0">
      1.84e-08
    </text>
    <path d="M 300 -476.0 L 288 -476.0"/>
    <text style="font-size:12;font-style:italic;stroke:none;fill:rgb(0,0,0);" x="238.0" y="-470.0">
      2.45e-08
    </text>
    <path d="M 300 -520.0 L 288 -520.0"/>
    <text style="font-size:12;font-style:italic;stroke:none;fill:rgb(0,0,0);" x="238.0" y="-514.0">
      3.06e-08
    </text>
    <text style="font-size:16;stroke:none;fill:rgb(0,0,0);" transform="rotate(-90,200,-340.648)" x="200.0" y="-340.648">
      Average time (sec.)
    </text>
    <g style="clip-path:url(#clip0);">
      <g style="clip-path:url(#clip1);">
        <path d="M 343.6363636363636 -515.0304052177379 L 387.27272727272725 -520.0 L 430.9090909090909 -493.12479373139496 L 474.5454545454545 -517.1877542617952 L 518.1818181818182 -483.91454516343003 L 561.8181818181818 -490.63676139501297 L 605.4545454545455 -500.1374361588456 L 649.090909090909 -511.73076106171555 L 692.7272727272727 -476.9982322167871 L 736.3636363636364 -481.39128786764826" style="stroke:rgb(0,138,0);stroke-width:2;"/>
      </g>
      <g style="clip-path:url(#clip2);">
        <g style="fill:rgb(255,255,255);clip-path:url(#clip3);">
          <path d="M 337.3863636363636 -510.0304052177379 L 337.3863636363636 -520.0304052177379 L 349.8863636363636 -520.0304052177379 L 349.8863636363636 -510.0304052177379 Z" style="stroke:none;"/>
        </g>
        <g>
          <path d="M 337.3863636363636 -510.0304052177379 L 349.8863636363636 -510.0304052177379 L 343.6363636363636 -520.0304052177379 Z"/>
          <g style="fill:rgb(255,255,255);clip-path:url(#clip4);">
            <path d="M 381.02272727272725 -515.0 L 381.02272727272725 -525.0 L 393.52272727272725 -525.0 L 393.52272727272725 -515.0 Z" style="stroke:none;"/>
          </g>
          <g>
            <path d="M 381.02272727272725 -515.0 L 393.52272727272725 -515.0 L 387.27272727272725 -525.0 Z"/>
            <g style="fill:rgb(255,255,255);clip-path:url(#clip5);">
              <path d="M 424.6590909090909 -488.12479373139496 L 424.6590909090909 -498.12479373139496 L 437.1590909090909 -498.12479373139496 L 437.1590909090909 -488.12479373139496 Z" style="stroke:none;"/>
            </g>
            <g>
              <path d="M 424.6590909090909 -488.12479373139496 L 437.1590909090909 -488.12479373139496 L 430.9090909090909 -498.12479373139496 Z"/>
              <g style="fill:rgb(255,255,255);clip-path:url(#clip6);">
                <path d="M 468.2954545454545 -512.1877542617952 L 468.2954545454545 -522.1877542617952 L 480.7954545454545 -522.1877542617952 L 480.7954545454545 -512.1877542617952 Z" style="stroke:none;"/>
              </g>
              <g>
                <path d="M 468.2954545454545 -512.1877542617952 L 480.7954545454545 -512.1877542617952 L 474.5454545454545 -522.1877542617952 Z"/>
                <g style="fill:rgb(255,255,255);clip-path:url(#clip7);">
                  <path d="M 511.9318181818182 -478.91454516343003 L 511.9318181818182 -488.91454516343003 L 524.4318181818182 -488.91454516343003 L 524.4318181818182 -478.91454516343003 Z" style="stroke:none;"/>
                </g>
                <g>
                  <path d="M 511.9318181818182 -478.91454516343003 L 524.4318181818182 -478.91454516343003 L 518.1818181818182 -488.91454516343003 Z"/>
                  <g style="fill:rgb(255,255,255);clip-path:url(#clip8);">
                    <path d="M 555.5681818181818 -485.63676139501297 L 555.5681818181818 -495.63676139501297 L 568.0681818181818 -495.63676139501297 L 568.0681818181818 -485.63676139501297 Z" style="stroke:none;"/>
                  </g>
                  <g>
                    <path d="M 555.5681818181818 -485.63676139501297 L 568.0681818181818 -485.63676139501297 L 561.8181818181818 -495.63676139501297 Z"/>
                    <g style="fill:rgb(255,255,255);clip-path:url(#clip9);">
                      <path d="M 599.2045454545455 -495.1374361588456 L 599.2045454545455 -505.1374361588456 L 611.7045454545455 -505.1374361588456 L 611.7045454545455 -495.1374361588456 Z" style="stroke:none;"/>
                    </g>
                    <g>
                      <path d="M 599.2045454545455 -495.1374361588456 L 611.7045454545455 -495.1374361588456 L 605.4545454545455 -505.1374361588456 Z"/>
                      <g style="fill:rgb(255,255,255);clip-path:url(#clip10);">
                        <path d="M 642.840909090909 -506.73076106171555 L 642.840909090909 -516.7307610617156 L 655.340909090909 -516.7307610617156 L 655.340909090909 -506.73076106171555 Z" style="stroke:none;"/>
                      </g>
                      <g>
                        <path d="M 642.840909090909 -506.73076106171555 L 655.340909090909 -506.73076106171555 L 649.090909090909 -516.7307610617156 Z"/>
                        <g style="fill:rgb(255,255,255);clip-path:url(#clip11);">
                          <path d="M 686.4772727272727 -471.9982322167871 L 686.4772727272727 -481.9982322167871 L 698.9772727272727 -481.9982322167871 L 698.9772727272727 -471.9982322167871 Z" style="stroke:none;"/>
                        </g>
                        <g>
                          <path d="M 686.4772727272727 -471.9982322167871 L 698.9772727272727 -471.9982322167871 L 692.7272727272727 -481.9982322167871 Z"/>
                          <g style="fill:rgb(255,255,255);clip-path:url(#clip12);">
                            <path d="M 730.1136363636364 -476.39128786764826 L 730.1136363636364 -486.39128786764826 L 742.6136363636364 -486.39128786764826 L 742.6136363636364 -476.39128786764826 Z" style="stroke:none;"/>
                          </g>
                          <g>
                            <path d="M 730.1136363636364 -476.39128786764826 L 742.6136363636364 -476.39128786764826 L 736.3636363636364 -486.39128786764826 Z"/>
                          </g>
                        </g>
                      </g>
                    </g>
                  </g>
                </g>
              </g>
            </g>
          </g>
        </g>
      </g>
      <g style="clip-path:url(#clip13);">
        <path d="M 343.6363636363636 -428.3640653132178 L 387.27272727272725 -431.75860119660297 L 430.9090909090909 -427.01185819829885 L 474.5454545454545 -428.55241101449843 L 518.1818181818182 -428.36047092960564 L 561.8181818181818 -428.6674312900896 L 605.4545454545455 -429.42081409521194 L 649.090909090909 -431.1820620652021 L 692.7272727272727 -432.6902654288916 L 736.3636363636364 -436.25733172566356" style="stroke:rgb(126,126,126);stroke-width:0.4;stroke-dasharray:1.5,1.5;"/>
      </g>
      <g style="clip-path:url(#clip14);">
        <g style="fill:rgb(0,0,0);clip-path:url(#clip15);">
          <path d="M 337.3863636363636 -423.3640653132178 L 337.3863636363636 -433.3640653132178 L 349.8863636363636 -433.3640653132178 L 349.8863636363636 -423.3640653132178 Z" style="stroke:none;"/>
        </g>
        <g>
          <path d="M 343.6363636363636 -423.3640653132178 L 337.3863636363636 -433.3640653132178 L 349.8863636363636 -433.3640653132178 Z"/>
          <g style="fill:rgb(0,0,0);clip-path:url(#clip16);">
            <path d="M 381.02272727272725 -426.75860119660297 L 381.02272727272725 -436.75860119660297 L 393.52272727272725 -436.75860119660297 L 393.52272727272725 -426.75860119660297 Z" style="stroke:none;"/>
          </g>
          <g>
            <path d="M 387.27272727272725 -426.75860119660297 L 381.02272727272725 -436.75860119660297 L 393.52272727272725 -436.75860119660297 Z"/>
            <g style="fill:rgb(0,0,0);clip-path:url(#clip17);">
              <path d="M 424.6590909090909 -422.01185819829885 L 424.6590909090909 -432.01185819829885 L 437.1590909090909 -432.01185819829885 L 437.1590909090909 -422.01185819829885 Z" style="stroke:none;"/>
            </g>
            <g>
              <path d="M 430.9090909090909 -422.01185819829885 L 424.6590909090909 -432.01185819829885 L 437.1590909090909 -432.01185819829885 Z"/>
              <g style="fill:rgb(0,0,0);clip-path:url(#clip18);">
                <path d="M 468.2954545454545 -423.55241101449843 L 468.2954545454545 -433.55241101449843 L 480.7954545454545 -433.55241101449843 L 480.7954545454545 -423.55241101449843 Z" style="stroke:none;"/>
              </g>
              <g>
                <path d="M 474.5454545454545 -423.55241101449843 L 468.2954545454545 -433.55241101449843 L 480.7954545454545 -433.55241101449843 Z"/>
                <g style="fill:rgb(0,0,0);clip-path:url(#clip19);">
                  <path d="M 511.9318181818182 -423.36047092960564 L 511.9318181818182 -433.36047092960564 L 524.4318181818182 -433.36047092960564 L 524.4318181818182 -423.36047092960564 Z" style="stroke:none;"/>
                </g>
                <g>
                  <path d="M 518.1818181818182 -423.36047092960564 L 511.9318181818182 -433.36047092960564 L 524.4318181818182 -433.36047092960564 Z"/>
                  <g style="fill:rgb(0,0,0);clip-path:url(#clip20);">
                    <path d="M 555.5681818181818 -423.6674312900896 L 555.5681818181818 -433.6674312900896 L 568.0681818181818 -433.6674312900896 L 568.0681818181818 -423.6674312900896 Z" style="stroke:none;"/>
                  </g>
                  <g>
                    <path d="M 561.8181818181818 -423.6674312900896 L 555.5681818181818 -433.6674312900896 L 568.0681818181818 -433.6674312900896 Z"/>
                    <g style="fill:rgb(0,0,0);clip-path:url(#clip21);">
                      <path d="M 599.2045454545455 -424.42081409521194 L 599.2045454545455 -434.42081409521194 L 611.7045454545455 -434.42081409521194 L 611.7045454545455 -424.42081409521194 Z" style="stroke:none;"/>
                    </g>
                    <g>
                      <path d="M 605.4545454545455 -424.42081409521194 L 599.2045454545455 -434.42081409521194 L 611.7045454545455 -434.42081409521194 Z"/>
                      <g style="fill:rgb(0,0,0);clip-path:url(#clip22);">
                        <path d="M 642.840909090909 -426.1820620652021 L 642.840909090909 -436.1820620652021 L 655.340909090909 -436.1820620652021 L 655.340909090909 -426.1820620652021 Z" style="stroke:none;"/>
                      </g>
                      <g>
                        <path d="M 649.090909090909 -426.1820620652021 L 642.840909090909 -436.1820620652021 L 655.340909090909 -436.1820620652021 Z"/>
                        <g style="fill:rgb(0,0,0);clip-path:url(#clip23);">
                          <path d="M 686.4772727272727 -427.6902654288916 L 686.4772727272727 -437.6902654288916 L 698.9772727272727 -437.6902654288916 L 698.9772727272727 -427.6902654288916 Z" style="stroke:none;"/>
                        </g>
                        <g>
                          <path d="M 692.7272727272727 -427.6902654288916 L 686.4772727272727 -437.6902654288916 L 698.9772727272727 -437.6902654288916 Z"/>
                          <g style="fill:rgb(0,0,0);clip-path:url(#clip24);">
                            <path d="M 730.1136363636364 -431.25733172566356 L 730.1136363636364 -441.25733172566356 L 742.6136363636364 -441.25733172566356 L 742.6136363636364 -431.25733172566356 Z" style="stroke:none;"/>
                          </g>
                          <g>
                            <path d="M 736.3636363636364 -431.25733172566356 L 730.1136363636364 -441.25733172566356 L 742.6136363636364 -441.25733172566356 Z"/>
                          </g>
                        </g>
                      </g>
                    </g>
                  </g>
                </g>
              </g>
            </g>
          </g>
        </g>
      </g>
      <g style="clip-path:url(#clip25);">
        <path d="M 343.6363636363636 -357.9400979632915 L 387.27272727272725 -354.82642721536564 L 430.9090909090909 -350.42661412331347 L 474.5454545454545 -361.0836739828711 L 518.1818181818182 -371.639372224564 L 561.8181818181818 -354.0294085931909 L 605.4545454545455 -358.4386389703071 L 649.090909090909 -365.1532351086321 L 692.7272727272727 -369.53716102511817 L 736.3636363636364 -375.89972323246184" style="stroke:rgb(0,0,128);stroke-width:2;"/>
      </g>
      <g style="clip-path:url(#clip26);">
        <path d="M 338.6363636363636 -352.9400979632915 L 348.6363636363636 -362.9400979632915" style="stroke-width:0.7;"/>
        <path d="M 348.6363636363636 -352.9400979632915 L 338.6363636363636 -362.9400979632915" style="stroke-width:0.7;"/>
        <path d="M 382.27272727272725 -349.82642721536564 L 392.27272727272725 -359.82642721536564" style="stroke-width:0.7;"/>
        <path d="M 392.27272727272725 -349.82642721536564 L 382.27272727272725 -359.82642721536564" style="stroke-width:0.7;"/>
        <path d="M 425.9090909090909 -345.42661412331347 L 435.9090909090909 -355.42661412331347" style="stroke-width:0.7;"/>
        <path d="M 435.9090909090909 -345.42661412331347 L 425.9090909090909 -355.42661412331347" style="stroke-width:0.7;"/>
        <path d="M 469.5454545454545 -356.0836739828711 L 479.5454545454545 -366.0836739828711" style="stroke-width:0.7;"/>
        <path d="M 479.5454545454545 -356.0836739828711 L 469.5454545454545 -366.0836739828711" style="stroke-width:0.7;"/>
        <path d="M 513.1818181818182 -366.639372224564 L 523.1818181818182 -376.639372224564" style="stroke-width:0.7;"/>
        <path d="M 523.1818181818182 -366.639372224564 L 513.1818181818182 -376.639372224564" style="stroke-width:0.7;"/>
        <path d="M 556.8181818181818 -349.0294085931909 L 566.8181818181818 -359.0294085931909" style="stroke-width:0.7;"/>
        <path d="M 566.8181818181818 -349.0294085931909 L 556.8181818181818 -359.0294085931909" style="stroke-width:0.7;"/>
        <path d="M 600.4545454545455 -353.4386389703071 L 610.4545454545455 -363.4386389703071" style="stroke-width:0.7;"/>
        <path d="M 610.4545454545455 -353.4386389703071 L 600.4545454545455 -363.4386389703071" style="stroke-width:0.7;"/>
        <path d="M 644.090909090909 -360.1532351086321 L 654.090909090909 -370.1532351086321" style="stroke-width:0.7;"/>
        <path d="M 654.090909090909 -360.1532351086321 L 644.090909090909 -370.1532351086321" style="stroke-width:0.7;"/>
        <path d="M 687.7272727272727 -364.53716102511817 L 697.7272727272727 -374.53716102511817" style="stroke-width:0.7;"/>
        <path d="M 697.7272727272727 -364.53716102511817 L 687.7272727272727 -374.53716102511817" style="stroke-width:0.7;"/>
        <path d="M 731.3636363636364 -370.89972323246184 L 741.3636363636364 -380.89972323246184" style="stroke-width:0.7;"/>
        <path d="M 741.3636363636364 -370.89972323246184 L 731.3636363636364 -380.89972323246184" style="stroke-width:0.7;"/>
      </g>
    </g>
    <g style="fill:rgb(255,255,255);clip-path:url(#clip27);">
      <path d="M 290 -74 L 290 -136 L 763.568 -136 L 763.568 -74 Z" style="stroke:none;"/>
    </g>
    <path d="M 300 -125.33333333333334 L 316 -125.33333333333334" style="stroke:rgb(0,138,0);stroke-width:2;"/>
    <g style="fill:rgb(255,255,255);clip-path:url(#clip28);">
      <path d="M 301.75 -120.33333333333334 L 301.75 -130.33333333333334 L 314.25 -130.33333333333334 L 314.25 -120.33333333333334 Z" style="stroke:none;"/>
    </g>
    <g>
      <path d="M 301.75 -120.33333333333334 L 314.25 -120.33333333333334 L 308.0 -130.33333333333334 Z"/>
      <text style="font-size:16;stroke:none;fill:rgb(0,0,0);" x="316.0" y="-120.0">
        gp_hash_mod_quadp_prime_nea_lc_1div8_1div2_nsth_map
      </text>
      <path d="M 300 -105.33333333333334 L 316 -105.33333333333334" style="stroke:rgb(126,126,126);stroke-width:0.4;stroke-dasharray:1.5,1.5;"/>
      <g style="fill:rgb(0,0,0);clip-path:url(#clip29);">
        <path d="M 301.75 -100.33333333333334 L 301.75 -110.33333333333334 L 314.25 -110.33333333333334 L 314.25 -100.33333333333334 Z" style="stroke:none;"/>
      </g>
      <g>
        <path d="M 308.0 -100.33333333333334 L 301.75 -110.33333333333334 L 314.25 -110.33333333333334 Z"/>
        <text style="font-size:16;stroke:none;fill:rgb(0,0,0);" x="316.0" y="-100.0">
          n_hash_map_ncah
        </text>
        <path d="M 300 -85.33333333333334 L 316 -85.33333333333334" style="stroke:rgb(0,0,128);stroke-width:2;"/>
        <path d="M 303.0 -80.33333333333334 L 313.0 -90.33333333333334" style="stroke-width:0.7;"/>
        <path d="M 313.0 -80.33333333333334 L 303.0 -90.33333333333334" style="stroke-width:0.7;"/>
        <text style="font-size:16;stroke:none;fill:rgb(0,0,0);" x="316.0" y="-80.0">
          gp_hash_mask_linp_exp_nea_lc_1div8_1div2_nsth_map
        </text>
      </g>
    </g>
  </g>
</svg>
