<?xml version="1.0" ?>
<!--Created by PyChart 1.39 Copyright 1999-2006 Yasushi Saito-->
<svg viewBox="178 -544 620 556" xmlns="http://www.w3.org/2000/svg" xmlns:xlink="http://www.w3.org/1999/xlink">
  <defs>
    <clipPath id="clip0">
      <path d="M 294 -294 L 294 -526 L 786 -526 L 786 -294 Z"/>
    </clipPath>
    <clipPath id="clip1">
      <path d="M 294 -294 L 294 -526 L 786 -526 L 786 -294 Z"/>
    </clipPath>
    <clipPath id="clip2">
      <path d="M 280 -280 L 280 -540 L 800 -540 L 800 -280 Z"/>
    </clipPath>
    <clipPath id="clip3">
      <path d="M 343.6363636363636 -318.429676730695 L 337.3863636363636 -328.429676730695 L 349.8863636363636 -328.429676730695 Z"/>
    </clipPath>
    <clipPath id="clip4">
      <path d="M 387.27272727272725 -337.3795027645908 L 381.02272727272725 -347.3795027645908 L 393.52272727272725 -347.3795027645908 Z"/>
    </clipPath>
    <clipPath id="clip5">
      <path d="M 430.9090909090909 -359.4003311050035 L 424.6590909090909 -369.4003311050035 L 437.1590909090909 -369.4003311050035 Z"/>
    </clipPath>
    <clipPath id="clip6">
      <path d="M 474.5454545454545 -379.1360250062465 L 468.2954545454545 -389.1360250062465 L 480.7954545454545 -389.1360250062465 Z"/>
    </clipPath>
    <clipPath id="clip7">
      <path d="M 518.1818181818182 -398.45627391290304 L 511.9318181818182 -408.45627391290304 L 524.4318181818182 -408.45627391290304 Z"/>
    </clipPath>
    <clipPath id="clip8">
      <path d="M 561.8181818181818 -420.6846377816645 L 555.5681818181818 -430.6846377816645 L 568.0681818181818 -430.6846377816645 Z"/>
    </clipPath>
    <clipPath id="clip9">
      <path d="M 605.4545454545455 -445.4655016801709 L 599.2045454545455 -455.4655016801709 L 611.7045454545455 -455.4655016801709 Z"/>
    </clipPath>
    <clipPath id="clip10">
      <path d="M 649.090909090909 -466.3880744408354 L 642.840909090909 -476.3880744408354 L 655.340909090909 -476.3880744408354 Z"/>
    </clipPath>
    <clipPath id="clip11">
      <path d="M 692.7272727272727 -487.5088342826257 L 686.4772727272727 -497.5088342826257 L 698.9772727272727 -497.5088342826257 Z"/>
    </clipPath>
    <clipPath id="clip12">
      <path d="M 736.3636363636364 -515.0 L 730.1136363636364 -525.0 L 742.6136363636364 -525.0 Z"/>
    </clipPath>
    <clipPath id="clip13">
      <path d="M 294 -294 L 294 -526 L 786 -526 L 786 -294 Z"/>
    </clipPath>
    <clipPath id="clip14">
      <path d="M 280 -280 L 280 -540 L 800 -540 L 800 -280 Z"/>
    </clipPath>
    <clipPath id="clip15">
      <path d="M 336.4935064935065 -301.3565083039707 L 343.6363636363636 -308.4993654468279 L 350.7792207792208 -301.3565083039707 L 343.6363636363636 -294.21365116111355 Z"/>
    </clipPath>
    <clipPath id="clip16">
      <path d="M 380.12987012987014 -301.4838790276935 L 387.27272727272725 -308.62673617055066 L 394.4155844155844 -301.4838790276935 L 387.27272727272725 -294.3410218848364 Z"/>
    </clipPath>
    <clipPath id="clip17">
      <path d="M 423.76623376623377 -301.6225688513138 L 430.9090909090909 -308.7654259941709 L 438.05194805194805 -301.6225688513138 L 430.9090909090909 -294.47971170845665 Z"/>
    </clipPath>
    <clipPath id="clip18">
      <path d="M 467.4025974025974 -301.6537328349761 L 474.5454545454545 -308.79658997783326 L 481.68831168831167 -301.6537328349761 L 474.5454545454545 -294.510875692119 Z"/>
    </clipPath>
    <clipPath id="clip19">
      <path d="M 511.038961038961 -301.77161675445706 L 518.1818181818182 -308.9144738973142 L 525.3246753246754 -301.77161675445706 L 518.1818181818182 -294.62875961159995 Z"/>
    </clipPath>
    <clipPath id="clip20">
      <path d="M 554.6753246753246 -301.8049832322851 L 561.8181818181818 -308.9478403751423 L 568.961038961039 -301.8049832322851 L 561.8181818181818 -294.662126089428 Z"/>
    </clipPath>
    <clipPath id="clip21">
      <path d="M 598.3116883116883 -301.8358518050152 L 605.4545454545455 -308.97870894787235 L 612.5974025974026 -301.8358518050152 L 605.4545454545455 -294.69299466215807 Z"/>
    </clipPath>
    <clipPath id="clip22">
      <path d="M 641.9480519480519 -301.8753246885692 L 649.090909090909 -309.0181818314264 L 656.2337662337662 -301.8753246885692 L 649.090909090909 -294.7324675457121 Z"/>
    </clipPath>
    <clipPath id="clip23">
      <path d="M 685.5844155844156 -301.9107515641652 L 692.7272727272727 -309.05360870702236 L 699.8701298701299 -301.9107515641652 L 692.7272727272727 -294.76789442130803 Z"/>
    </clipPath>
    <clipPath id="clip24">
      <path d="M 729.2207792207791 -301.9612144822745 L 736.3636363636364 -309.1040716251316 L 743.5064935064936 -301.9612144822745 L 736.3636363636364 -294.81835733941733 Z"/>
    </clipPath>
    <clipPath id="clip25">
      <path d="M 294 -294 L 294 -526 L 786 -526 L 786 -294 Z"/>
    </clipPath>
    <clipPath id="clip26">
      <path d="M 280 -280 L 280 -540 L 800 -540 L 800 -280 Z"/>
    </clipPath>
    <clipPath id="clip27">
      <path d="M 343.6363636363636 -296.2791218578594 L 337.3863636363636 -306.2791218578594 L 349.8863636363636 -306.2791218578594 Z"/>
    </clipPath>
    <clipPath id="clip28">
      <path d="M 387.27272727272725 -296.4747960763717 L 381.02272727272725 -306.4747960763717 L 393.52272727272725 -306.4747960763717 Z"/>
    </clipPath>
    <clipPath id="clip29">
      <path d="M 430.9090909090909 -296.6057453856914 L 424.6590909090909 -306.6057453856914 L 437.1590909090909 -306.6057453856914 Z"/>
    </clipPath>
    <clipPath id="clip30">
      <path d="M 474.5454545454545 -296.6537328349761 L 468.2954545454545 -306.6537328349761 L 480.7954545454545 -306.6537328349761 Z"/>
    </clipPath>
    <clipPath id="clip31">
      <path d="M 518.1818181818182 -296.73358353177537 L 511.9318181818182 -306.73358353177537 L 524.4318181818182 -306.73358353177537 Z"/>
    </clipPath>
    <clipPath id="clip32">
      <path d="M 561.8181818181818 -296.8049832322851 L 555.5681818181818 -306.8049832322851 L 568.0681818181818 -306.8049832322851 Z"/>
    </clipPath>
    <clipPath id="clip33">
      <path d="M 605.4545454545455 -296.84000999433994 L 599.2045454545455 -306.84000999433994 L 611.7045454545455 -306.84000999433994 Z"/>
    </clipPath>
    <clipPath id="clip34">
      <path d="M 649.090909090909 -296.8692556766321 L 642.840909090909 -306.8692556766321 L 655.340909090909 -306.8692556766321 Z"/>
    </clipPath>
    <clipPath id="clip35">
      <path d="M 692.7272727272727 -296.90206498700564 L 686.4772727272727 -306.90206498700564 L 698.9772727272727 -306.90206498700564 Z"/>
    </clipPath>
    <clipPath id="clip36">
      <path d="M 736.3636363636364 -296.9700880283785 L 730.1136363636364 -306.9700880283785 L 742.6136363636364 -306.9700880283785 Z"/>
    </clipPath>
    <clipPath id="clip37">
      <path d="M 294 -294 L 294 -526 L 786 -526 L 786 -294 Z"/>
    </clipPath>
    <clipPath id="clip38">
      <path d="M 280 -280 L 280 -540 L 800 -540 L 800 -280 Z"/>
    </clipPath>
    <clipPath id="clip39">
      <path d="M 337.3863636363636 -296.2392862545531 L 349.8863636363636 -296.2392862545531 L 343.6363636363636 -306.2392862545531 Z"/>
    </clipPath>
    <clipPath id="clip40">
      <path d="M 381.02272727272725 -296.3783874098512 L 393.52272727272725 -296.3783874098512 L 387.27272727272725 -306.3783874098512 Z"/>
    </clipPath>
    <clipPath id="clip41">
      <path d="M 424.6590909090909 -296.48286191663567 L 437.1590909090909 -296.48286191663567 L 430.9090909090909 -306.48286191663567 Z"/>
    </clipPath>
    <clipPath id="clip42">
      <path d="M 468.2954545454545 -296.5661042300874 L 480.7954545454545 -296.5661042300874 L 474.5454545454545 -306.5661042300874 Z"/>
    </clipPath>
    <clipPath id="clip43">
      <path d="M 511.9318181818182 -296.6263344058552 L 524.4318181818182 -296.6263344058552 L 518.1818181818182 -306.6263344058552 Z"/>
    </clipPath>
    <clipPath id="clip44">
      <path d="M 555.5681818181818 -296.6796280337836 L 568.0681818181818 -296.6796280337836 L 561.8181818181818 -306.6796280337836 Z"/>
    </clipPath>
    <clipPath id="clip45">
      <path d="M 599.2045454545455 -296.7212996721245 L 611.7045454545455 -296.7212996721245 L 605.4545454545455 -306.7212996721245 Z"/>
    </clipPath>
    <clipPath id="clip46">
      <path d="M 642.840909090909 -296.7335723136387 L 655.340909090909 -296.7335723136387 L 649.090909090909 -306.7335723136387 Z"/>
    </clipPath>
    <clipPath id="clip47">
      <path d="M 686.4772727272727 -296.76732020811346 L 698.9772727272727 -296.76732020811346 L 692.7272727272727 -306.76732020811346 Z"/>
    </clipPath>
    <clipPath id="clip48">
      <path d="M 730.1136363636364 -296.80892079825543 L 742.6136363636364 -296.80892079825543 L 736.3636363636364 -306.80892079825543 Z"/>
    </clipPath>
    <clipPath id="clip49">
      <path d="M 294 -294 L 294 -526 L 786 -526 L 786 -294 Z"/>
    </clipPath>
    <clipPath id="clip50">
      <path d="M 280 -280 L 280 -540 L 800 -540 L 800 -280 Z"/>
    </clipPath>
    <clipPath id="clip51">
      <path d="M 343.6363636363636 -296.1712968675903 L 337.3863636363636 -306.1712968675903 L 349.8863636363636 -306.1712968675903 Z"/>
    </clipPath>
    <clipPath id="clip52">
      <path d="M 387.27272727272725 -296.32930806193093 L 381.02272727272725 -306.32930806193093 L 393.52272727272725 -306.32930806193093 Z"/>
    </clipPath>
    <clipPath id="clip53">
      <path d="M 430.9090909090909 -296.40729280866447 L 424.6590909090909 -306.40729280866447 L 437.1590909090909 -306.40729280866447 Z"/>
    </clipPath>
    <clipPath id="clip54">
      <path d="M 474.5454545454545 -296.45755380031375 L 468.2954545454545 -306.45755380031375 L 480.7954545454545 -306.45755380031375 Z"/>
    </clipPath>
    <clipPath id="clip55">
      <path d="M 518.1818181818182 -296.4845483765147 L 511.9318181818182 -306.4845483765147 L 524.4318181818182 -306.4845483765147 Z"/>
    </clipPath>
    <clipPath id="clip56">
      <path d="M 561.8181818181818 -296.54041095773994 L 555.5681818181818 -306.54041095773994 L 568.0681818181818 -306.54041095773994 Z"/>
    </clipPath>
    <clipPath id="clip57">
      <path d="M 605.4545454545455 -296.57519466016697 L 599.2045454545455 -306.57519466016697 L 611.7045454545455 -306.57519466016697 Z"/>
    </clipPath>
    <clipPath id="clip58">
      <path d="M 649.090909090909 -296.621211456777 L 642.840909090909 -306.621211456777 L 655.340909090909 -306.621211456777 Z"/>
    </clipPath>
    <clipPath id="clip59">
      <path d="M 692.7272727272727 -296.65509770827066 L 686.4772727272727 -306.65509770827066 L 698.9772727272727 -306.65509770827066 Z"/>
    </clipPath>
    <clipPath id="clip60">
      <path d="M 736.3636363636364 -296.6679574322705 L 730.1136363636364 -306.6679574322705 L 742.6136363636364 -306.6679574322705 Z"/>
    </clipPath>
    <clipPath id="clip61">
      <path d="M 294 -294 L 294 -526 L 786 -526 L 786 -294 Z"/>
    </clipPath>
    <clipPath id="clip62">
      <path d="M 280 -280 L 280 -540 L 800 -540 L 800 -280 Z"/>
    </clipPath>
    <clipPath id="clip63">
      <path d="M 294 -294 L 294 -526 L 786 -526 L 786 -294 Z"/>
    </clipPath>
    <clipPath id="clip64">
      <path d="M 280 -280 L 280 -540 L 800 -540 L 800 -280 Z"/>
    </clipPath>
    <clipPath id="clip65">
      <path d="M 336.4935064935065 -300.9334088007982 L 343.6363636363636 -308.07626594365536 L 350.7792207792208 -300.9334088007982 L 343.6363636363636 -293.790551657941 Z"/>
    </clipPath>
    <clipPath id="clip66">
      <path d="M 380.12987012987014 -301.01965009611905 L 387.27272727272725 -308.16250723897616 L 394.4155844155844 -301.01965009611905 L 387.27272727272725 -293.8767929532619 Z"/>
    </clipPath>
    <clipPath id="clip67">
      <path d="M 423.76623376623377 -301.06713646863255 L 430.9090909090909 -308.2099936114897 L 438.05194805194805 -301.06713646863255 L 430.9090909090909 -293.92427932577544 Z"/>
    </clipPath>
    <clipPath id="clip68">
      <path d="M 467.4025974025974 -301.10713660461 L 474.5454545454545 -308.2499937474671 L 481.68831168831167 -301.10713660461 L 474.5454545454545 -293.9642794617528 Z"/>
    </clipPath>
    <clipPath id="clip69">
      <path d="M 511.038961038961 -301.1326653442863 L 518.1818181818182 -308.27552248714346 L 525.3246753246754 -301.1326653442863 L 518.1818181818182 -293.9898082014292 Z"/>
    </clipPath>
    <clipPath id="clip70">
      <path d="M 554.6753246753246 -301.1821074119589 L 561.8181818181818 -308.324964554816 L 568.961038961039 -301.1821074119589 L 561.8181818181818 -294.03925026910173 Z"/>
    </clipPath>
    <clipPath id="clip71">
      <path d="M 598.3116883116883 -301.2198975750128 L 605.4545454545455 -308.36275471786996 L 612.5974025974026 -301.2198975750128 L 605.4545454545455 -294.0770404321556 Z"/>
    </clipPath>
    <clipPath id="clip72">
      <path d="M 641.9480519480519 -301.2404080682199 L 649.090909090909 -308.383265211077 L 656.2337662337662 -301.2404080682199 L 649.090909090909 -294.0975509253627 Z"/>
    </clipPath>
    <clipPath id="clip73">
      <path d="M 685.5844155844156 -301.27266021113894 L 692.7272727272727 -308.41551735399605 L 699.8701298701299 -301.27266021113894 L 692.7272727272727 -294.1298030682818 Z"/>
    </clipPath>
    <clipPath id="clip74">
      <path d="M 729.2207792207791 -301.28800662210006 L 736.3636363636364 -308.4308637649572 L 743.5064935064936 -301.28800662210006 L 736.3636363636364 -294.14514947924295 Z"/>
    </clipPath>
    <clipPath id="clip75">
      <path d="M 290 6 L 290 -136 L 456.72 -136 L 456.72 6 Z"/>
    </clipPath>
    <clipPath id="clip76">
      <path d="M 308.0 -120.33333333333334 L 301.75 -130.33333333333334 L 314.25 -130.33333333333334 Z"/>
    </clipPath>
    <clipPath id="clip77">
      <path d="M 300.85714285714283 -105.33333333333334 L 308.0 -112.47619047619048 L 315.14285714285717 -105.33333333333334 L 308.0 -98.1904761904762 Z"/>
    </clipPath>
    <clipPath id="clip78">
      <path d="M 308.0 -80.33333333333334 L 301.75 -90.33333333333334 L 314.25 -90.33333333333334 Z"/>
    </clipPath>
    <clipPath id="clip79">
      <path d="M 301.75 -60.33333333333334 L 314.25 -60.33333333333334 L 308.0 -70.33333333333334 Z"/>
    </clipPath>
    <clipPath id="clip80">
      <path d="M 308.0 -40.33333333333337 L 301.75 -50.33333333333334 L 314.25 -50.33333333333334 Z"/>
    </clipPath>
    <clipPath id="clip81">
      <path d="M 300.85714285714283 -5.333333333333314 L 308.0 -12.476190476190482 L 315.14285714285717 -5.333333333333314 L 308.0 1.8095238095238528 Z"/>
    </clipPath>
  </defs>
  <g style="stroke-linejoin:miter;font-size:8;font-family:Helvetica;fill:none;stroke-linecap:butt;stroke:rgb(0,0,0);font-stretch:normal;stroke-dasharray:none;font-weight:normal;font-style:normal;stroke-width:0.5;">
    <path d="M 300 -300 L 780 -300"/>
    <path d="M 300 -300 L 780 -300"/>
    <path d="M 300.0 -300 L 300.0 -288"/>
    <text style="font-size:12;font-style:italic;stroke:none;fill:rgb(0,0,0);" transform="rotate(90,300,-288)" x="300.0" y="-288.0">
      0
    </text>
    <path d="M 343.6363636363636 -300 L 343.6363636363636 -288"/>
    <text style="font-size:12;font-style:italic;stroke:none;fill:rgb(0,0,0);" transform="rotate(90,343.636,-288)" x="343.6363636363636" y="-288.0">
      200
    </text>
    <path d="M 387.27272727272725 -300 L 387.27272727272725 -288"/>
    <text style="font-size:12;font-style:italic;stroke:none;fill:rgb(0,0,0);" transform="rotate(90,387.273,-288)" x="387.27272727272725" y="-288.0">
      400
    </text>
    <path d="M 430.9090909090909 -300 L 430.9090909090909 -288"/>
    <text style="font-size:12;font-style:italic;stroke:none;fill:rgb(0,0,0);" transform="rotate(90,430.909,-288)" x="430.9090909090909" y="-288.0">
      600
    </text>
    <path d="M 474.5454545454545 -300 L 474.5454545454545 -288"/>
    <text style="font-size:12;font-style:italic;stroke:none;fill:rgb(0,0,0);" transform="rotate(90,474.545,-288)" x="474.5454545454545" y="-288.0">
      800
    </text>
    <path d="M 518.1818181818182 -300 L 518.1818181818182 -288"/>
    <text style="font-size:12;font-style:italic;stroke:none;fill:rgb(0,0,0);" transform="rotate(90,518.182,-288)" x="518.1818181818182" y="-288.0">
      1000
    </text>
    <path d="M 561.8181818181818 -300 L 561.8181818181818 -288"/>
    <text style="font-size:12;font-style:italic;stroke:none;fill:rgb(0,0,0);" transform="rotate(90,561.818,-288)" x="561.8181818181818" y="-288.0">
      1200
    </text>
    <path d="M 605.4545454545455 -300 L 605.4545454545455 -288"/>
    <text style="font-size:12;font-style:italic;stroke:none;fill:rgb(0,0,0);" transform="rotate(90,605.455,-288)" x="605.4545454545455" y="-288.0">
      1400
    </text>
    <path d="M 649.090909090909 -300 L 649.090909090909 -288"/>
    <text style="font-size:12;font-style:italic;stroke:none;fill:rgb(0,0,0);" transform="rotate(90,649.091,-288)" x="649.090909090909" y="-288.0">
      1600
    </text>
    <path d="M 692.7272727272727 -300 L 692.7272727272727 -288"/>
    <text style="font-size:12;font-style:italic;stroke:none;fill:rgb(0,0,0);" transform="rotate(90,692.727,-288)" x="692.7272727272727" y="-288.0">
      1800
    </text>
    <path d="M 736.3636363636364 -300 L 736.3636363636364 -288"/>
    <text style="font-size:12;font-style:italic;stroke:none;fill:rgb(0,0,0);" transform="rotate(90,736.364,-288)" x="736.3636363636364" y="-288.0">
      2000
    </text>
    <path d="M 780.0 -300 L 780.0 -288"/>
    <text style="font-size:12;font-style:italic;stroke:none;fill:rgb(0,0,0);" transform="rotate(90,780,-288)" x="780.0" y="-288.0">
      2200
    </text>
    <text style="font-size:16;stroke:none;fill:rgb(0,0,0);" x="524.44" y="-220.0">
      Size
    </text>
    <path d="M 300 -300 L 300 -520"/>
    <path d="M 300 -300.0 L 288 -300.0"/>
    <text style="font-size:12;font-style:italic;stroke:none;fill:rgb(0,0,0);" x="238.0" y="-294.0">
      0.00e+00
    </text>
    <path d="M 300 -344.0 L 288 -344.0"/>
    <text style="font-size:12;font-style:italic;stroke:none;fill:rgb(0,0,0);" x="238.0" y="-338.0">
      1.18e-05
    </text>
    <path d="M 300 -388.0 L 288 -388.0"/>
    <text style="font-size:12;font-style:italic;stroke:none;fill:rgb(0,0,0);" x="238.0" y="-382.0">
      2.35e-05
    </text>
    <path d="M 300 -432.0 L 288 -432.0"/>
    <text style="font-size:12;font-style:italic;stroke:none;fill:rgb(0,0,0);" x="238.0" y="-426.0">
      3.53e-05
    </text>
    <path d="M 300 -476.0 L 288 -476.0"/>
    <text style="font-size:12;font-style:italic;stroke:none;fill:rgb(0,0,0);" x="238.0" y="-470.0">
      4.71e-05
    </text>
    <path d="M 300 -520.0 L 288 -520.0"/>
    <text style="font-size:12;font-style:italic;stroke:none;fill:rgb(0,0,0);" x="238.0" y="-514.0">
      5.88e-05
    </text>
    <text style="font-size:16;stroke:none;fill:rgb(0,0,0);" transform="rotate(-90,200,-340.648)" x="200.0" y="-340.648">
      Average time (sec.)
    </text>
    <g style="clip-path:url(#clip0);">
      <g style="clip-path:url(#clip1);">
        <path d="M 343.6363636363636 -323.429676730695 L 387.27272727272725 -342.3795027645908 L 430.9090909090909 -364.4003311050035 L 474.5454545454545 -384.1360250062465 L 518.1818181818182 -403.45627391290304 L 561.8181818181818 -425.6846377816645 L 605.4545454545455 -450.4655016801709 L 649.090909090909 -471.3880744408354 L 692.7272727272727 -492.5088342826257 L 736.3636363636364 -520.0" style="stroke:rgb(205,0,0);stroke-width:2;"/>
      </g>
      <g style="clip-path:url(#clip2);">
        <g style="fill:rgb(255,255,255);clip-path:url(#clip3);">
          <path d="M 337.3863636363636 -318.429676730695 L 337.3863636363636 -328.429676730695 L 349.8863636363636 -328.429676730695 L 349.8863636363636 -318.429676730695 Z" style="stroke:none;"/>
        </g>
        <g>
          <path d="M 343.6363636363636 -318.429676730695 L 337.3863636363636 -328.429676730695 L 349.8863636363636 -328.429676730695 Z"/>
          <g style="fill:rgb(255,255,255);clip-path:url(#clip4);">
            <path d="M 381.02272727272725 -337.3795027645908 L 381.02272727272725 -347.3795027645908 L 393.52272727272725 -347.3795027645908 L 393.52272727272725 -337.3795027645908 Z" style="stroke:none;"/>
          </g>
          <g>
            <path d="M 387.27272727272725 -337.3795027645908 L 381.02272727272725 -347.3795027645908 L 393.52272727272725 -347.3795027645908 Z"/>
            <g style="fill:rgb(255,255,255);clip-path:url(#clip5);">
              <path d="M 424.6590909090909 -359.4003311050035 L 424.6590909090909 -369.4003311050035 L 437.1590909090909 -369.4003311050035 L 437.1590909090909 -359.4003311050035 Z" style="stroke:none;"/>
            </g>
            <g>
              <path d="M 430.9090909090909 -359.4003311050035 L 424.6590909090909 -369.4003311050035 L 437.1590909090909 -369.4003311050035 Z"/>
              <g style="fill:rgb(255,255,255);clip-path:url(#clip6);">
                <path d="M 468.2954545454545 -379.1360250062465 L 468.2954545454545 -389.1360250062465 L 480.7954545454545 -389.1360250062465 L 480.7954545454545 -379.1360250062465 Z" style="stroke:none;"/>
              </g>
              <g>
                <path d="M 474.5454545454545 -379.1360250062465 L 468.2954545454545 -389.1360250062465 L 480.7954545454545 -389.1360250062465 Z"/>
                <g style="fill:rgb(255,255,255);clip-path:url(#clip7);">
                  <path d="M 511.9318181818182 -398.45627391290304 L 511.9318181818182 -408.45627391290304 L 524.4318181818182 -408.45627391290304 L 524.4318181818182 -398.45627391290304 Z" style="stroke:none;"/>
                </g>
                <g>
                  <path d="M 518.1818181818182 -398.45627391290304 L 511.9318181818182 -408.45627391290304 L 524.4318181818182 -408.45627391290304 Z"/>
                  <g style="fill:rgb(255,255,255);clip-path:url(#clip8);">
                    <path d="M 555.5681818181818 -420.6846377816645 L 555.5681818181818 -430.6846377816645 L 568.0681818181818 -430.6846377816645 L 568.0681818181818 -420.6846377816645 Z" style="stroke:none;"/>
                  </g>
                  <g>
                    <path d="M 561.8181818181818 -420.6846377816645 L 555.5681818181818 -430.6846377816645 L 568.0681818181818 -430.6846377816645 Z"/>
                    <g style="fill:rgb(255,255,255);clip-path:url(#clip9);">
                      <path d="M 599.2045454545455 -445.4655016801709 L 599.2045454545455 -455.4655016801709 L 611.7045454545455 -455.4655016801709 L 611.7045454545455 -445.4655016801709 Z" style="stroke:none;"/>
                    </g>
                    <g>
                      <path d="M 605.4545454545455 -445.4655016801709 L 599.2045454545455 -455.4655016801709 L 611.7045454545455 -455.4655016801709 Z"/>
                      <g style="fill:rgb(255,255,255);clip-path:url(#clip10);">
                        <path d="M 642.840909090909 -466.3880744408354 L 642.840909090909 -476.3880744408354 L 655.340909090909 -476.3880744408354 L 655.340909090909 -466.3880744408354 Z" style="stroke:none;"/>
                      </g>
                      <g>
                        <path d="M 649.090909090909 -466.3880744408354 L 642.840909090909 -476.3880744408354 L 655.340909090909 -476.3880744408354 Z"/>
                        <g style="fill:rgb(255,255,255);clip-path:url(#clip11);">
                          <path d="M 686.4772727272727 -487.5088342826257 L 686.4772727272727 -497.5088342826257 L 698.9772727272727 -497.5088342826257 L 698.9772727272727 -487.5088342826257 Z" style="stroke:none;"/>
                        </g>
                        <g>
                          <path d="M 692.7272727272727 -487.5088342826257 L 686.4772727272727 -497.5088342826257 L 698.9772727272727 -497.5088342826257 Z"/>
                          <g style="fill:rgb(255,255,255);clip-path:url(#clip12);">
                            <path d="M 730.1136363636364 -515.0 L 730.1136363636364 -525.0 L 742.6136363636364 -525.0 L 742.6136363636364 -515.0 Z" style="stroke:none;"/>
                          </g>
                          <g>
                            <path d="M 736.3636363636364 -515.0 L 730.1136363636364 -525.0 L 742.6136363636364 -525.0 Z"/>
                          </g>
                        </g>
                      </g>
                    </g>
                  </g>
                </g>
              </g>
            </g>
          </g>
        </g>
      </g>
      <g style="clip-path:url(#clip13);">
        <path d="M 343.6363636363636 -301.3565083039707 L 387.27272727272725 -301.4838790276935 L 430.9090909090909 -301.6225688513138 L 474.5454545454545 -301.6537328349761 L 518.1818181818182 -301.77161675445706 L 561.8181818181818 -301.8049832322851 L 605.4545454545455 -301.8358518050152 L 649.090909090909 -301.8753246885692 L 692.7272727272727 -301.9107515641652 L 736.3636363636364 -301.9612144822745" style="stroke:rgb(126,126,126);stroke-width:2;"/>
      </g>
      <g style="clip-path:url(#clip14);">
        <g style="fill:rgb(255,255,255);clip-path:url(#clip15);">
          <path d="M 336.4935064935065 -294.21365116111355 L 336.4935064935065 -308.4993654468279 L 350.7792207792208 -308.4993654468279 L 350.7792207792208 -294.21365116111355 Z" style="stroke:none;"/>
        </g>
        <g>
          <path d="M 336.4935064935065 -301.3565083039707 L 343.6363636363636 -308.4993654468279 L 350.7792207792208 -301.3565083039707 L 343.6363636363636 -294.21365116111355 Z"/>
          <g style="fill:rgb(255,255,255);clip-path:url(#clip16);">
            <path d="M 380.12987012987014 -294.3410218848364 L 380.12987012987014 -308.62673617055066 L 394.4155844155844 -308.62673617055066 L 394.4155844155844 -294.3410218848364 Z" style="stroke:none;"/>
          </g>
          <g>
            <path d="M 380.12987012987014 -301.4838790276935 L 387.27272727272725 -308.62673617055066 L 394.4155844155844 -301.4838790276935 L 387.27272727272725 -294.3410218848364 Z"/>
            <g style="fill:rgb(255,255,255);clip-path:url(#clip17);">
              <path d="M 423.76623376623377 -294.47971170845665 L 423.76623376623377 -308.7654259941709 L 438.05194805194805 -308.7654259941709 L 438.05194805194805 -294.47971170845665 Z" style="stroke:none;"/>
            </g>
            <g>
              <path d="M 423.76623376623377 -301.6225688513138 L 430.9090909090909 -308.7654259941709 L 438.05194805194805 -301.6225688513138 L 430.9090909090909 -294.47971170845665 Z"/>
              <g style="fill:rgb(255,255,255);clip-path:url(#clip18);">
                <path d="M 467.4025974025974 -294.510875692119 L 467.4025974025974 -308.79658997783326 L 481.68831168831167 -308.79658997783326 L 481.68831168831167 -294.510875692119 Z" style="stroke:none;"/>
              </g>
              <g>
                <path d="M 467.4025974025974 -301.6537328349761 L 474.5454545454545 -308.79658997783326 L 481.68831168831167 -301.6537328349761 L 474.5454545454545 -294.510875692119 Z"/>
                <g style="fill:rgb(255,255,255);clip-path:url(#clip19);">
                  <path d="M 511.038961038961 -294.62875961159995 L 511.038961038961 -308.9144738973142 L 525.3246753246754 -308.9144738973142 L 525.3246753246754 -294.62875961159995 Z" style="stroke:none;"/>
                </g>
                <g>
                  <path d="M 511.038961038961 -301.77161675445706 L 518.1818181818182 -308.9144738973142 L 525.3246753246754 -301.77161675445706 L 518.1818181818182 -294.62875961159995 Z"/>
                  <g style="fill:rgb(255,255,255);clip-path:url(#clip20);">
                    <path d="M 554.6753246753246 -294.662126089428 L 554.6753246753246 -308.9478403751423 L 568.961038961039 -308.9478403751423 L 568.961038961039 -294.662126089428 Z" style="stroke:none;"/>
                  </g>
                  <g>
                    <path d="M 554.6753246753246 -301.8049832322851 L 561.8181818181818 -308.9478403751423 L 568.961038961039 -301.8049832322851 L 561.8181818181818 -294.662126089428 Z"/>
                    <g style="fill:rgb(255,255,255);clip-path:url(#clip21);">
                      <path d="M 598.3116883116883 -294.69299466215807 L 598.3116883116883 -308.97870894787235 L 612.5974025974026 -308.97870894787235 L 612.5974025974026 -294.69299466215807 Z" style="stroke:none;"/>
                    </g>
                    <g>
                      <path d="M 598.3116883116883 -301.8358518050152 L 605.4545454545455 -308.97870894787235 L 612.5974025974026 -301.8358518050152 L 605.4545454545455 -294.69299466215807 Z"/>
                      <g style="fill:rgb(255,255,255);clip-path:url(#clip22);">
                        <path d="M 641.9480519480519 -294.7324675457121 L 641.9480519480519 -309.0181818314264 L 656.2337662337662 -309.0181818314264 L 656.2337662337662 -294.7324675457121 Z" style="stroke:none;"/>
                      </g>
                      <g>
                        <path d="M 641.9480519480519 -301.8753246885692 L 649.090909090909 -309.0181818314264 L 656.2337662337662 -301.8753246885692 L 649.090909090909 -294.7324675457121 Z"/>
                        <g style="fill:rgb(255,255,255);clip-path:url(#clip23);">
                          <path d="M 685.5844155844156 -294.76789442130803 L 685.5844155844156 -309.05360870702236 L 699.8701298701299 -309.05360870702236 L 699.8701298701299 -294.76789442130803 Z" style="stroke:none;"/>
                        </g>
                        <g>
                          <path d="M 685.5844155844156 -301.9107515641652 L 692.7272727272727 -309.05360870702236 L 699.8701298701299 -301.9107515641652 L 692.7272727272727 -294.76789442130803 Z"/>
                          <g style="fill:rgb(255,255,255);clip-path:url(#clip24);">
                            <path d="M 729.2207792207791 -294.81835733941733 L 729.2207792207791 -309.1040716251316 L 743.5064935064936 -309.1040716251316 L 743.5064935064936 -294.81835733941733 Z" style="stroke:none;"/>
                          </g>
                          <g>
                            <path d="M 729.2207792207791 -301.9612144822745 L 736.3636363636364 -309.1040716251316 L 743.5064935064936 -301.9612144822745 L 736.3636363636364 -294.81835733941733 Z"/>
                          </g>
                        </g>
                      </g>
                    </g>
                  </g>
                </g>
              </g>
            </g>
          </g>
        </g>
      </g>
      <g style="clip-path:url(#clip25);">
        <path d="M 343.6363636363636 -301.2791218578594 L 387.27272727272725 -301.4747960763717 L 430.9090909090909 -301.6057453856914 L 474.5454545454545 -301.6537328349761 L 518.1818181818182 -301.73358353177537 L 561.8181818181818 -301.8049832322851 L 605.4545454545455 -301.84000999433994 L 649.090909090909 -301.8692556766321 L 692.7272727272727 -301.90206498700564 L 736.3636363636364 -301.9700880283785" style="stroke:rgb(126,126,126);stroke-width:0.4;stroke-dasharray:1.5,1.5;"/>
      </g>
      <g style="clip-path:url(#clip26);">
        <g style="fill:rgb(0,0,0);clip-path:url(#clip27);">
          <path d="M 337.3863636363636 -296.2791218578594 L 337.3863636363636 -306.2791218578594 L 349.8863636363636 -306.2791218578594 L 349.8863636363636 -296.2791218578594 Z" style="stroke:none;"/>
        </g>
        <g>
          <path d="M 343.6363636363636 -296.2791218578594 L 337.3863636363636 -306.2791218578594 L 349.8863636363636 -306.2791218578594 Z"/>
          <g style="fill:rgb(0,0,0);clip-path:url(#clip28);">
            <path d="M 381.02272727272725 -296.4747960763717 L 381.02272727272725 -306.4747960763717 L 393.52272727272725 -306.4747960763717 L 393.52272727272725 -296.4747960763717 Z" style="stroke:none;"/>
          </g>
          <g>
            <path d="M 387.27272727272725 -296.4747960763717 L 381.02272727272725 -306.4747960763717 L 393.52272727272725 -306.4747960763717 Z"/>
            <g style="fill:rgb(0,0,0);clip-path:url(#clip29);">
              <path d="M 424.6590909090909 -296.6057453856914 L 424.6590909090909 -306.6057453856914 L 437.1590909090909 -306.6057453856914 L 437.1590909090909 -296.6057453856914 Z" style="stroke:none;"/>
            </g>
            <g>
              <path d="M 430.9090909090909 -296.6057453856914 L 424.6590909090909 -306.6057453856914 L 437.1590909090909 -306.6057453856914 Z"/>
              <g style="fill:rgb(0,0,0);clip-path:url(#clip30);">
                <path d="M 468.2954545454545 -296.6537328349761 L 468.2954545454545 -306.6537328349761 L 480.7954545454545 -306.6537328349761 L 480.7954545454545 -296.6537328349761 Z" style="stroke:none;"/>
              </g>
              <g>
                <path d="M 474.5454545454545 -296.6537328349761 L 468.2954545454545 -306.6537328349761 L 480.7954545454545 -306.6537328349761 Z"/>
                <g style="fill:rgb(0,0,0);clip-path:url(#clip31);">
                  <path d="M 511.9318181818182 -296.73358353177537 L 511.9318181818182 -306.73358353177537 L 524.4318181818182 -306.73358353177537 L 524.4318181818182 -296.73358353177537 Z" style="stroke:none;"/>
                </g>
                <g>
                  <path d="M 518.1818181818182 -296.73358353177537 L 511.9318181818182 -306.73358353177537 L 524.4318181818182 -306.73358353177537 Z"/>
                  <g style="fill:rgb(0,0,0);clip-path:url(#clip32);">
                    <path d="M 555.5681818181818 -296.8049832322851 L 555.5681818181818 -306.8049832322851 L 568.0681818181818 -306.8049832322851 L 568.0681818181818 -296.8049832322851 Z" style="stroke:none;"/>
                  </g>
                  <g>
                    <path d="M 561.8181818181818 -296.8049832322851 L 555.5681818181818 -306.8049832322851 L 568.0681818181818 -306.8049832322851 Z"/>
                    <g style="fill:rgb(0,0,0);clip-path:url(#clip33);">
                      <path d="M 599.2045454545455 -296.84000999433994 L 599.2045454545455 -306.84000999433994 L 611.7045454545455 -306.84000999433994 L 611.7045454545455 -296.84000999433994 Z" style="stroke:none;"/>
                    </g>
                    <g>
                      <path d="M 605.4545454545455 -296.84000999433994 L 599.2045454545455 -306.84000999433994 L 611.7045454545455 -306.84000999433994 Z"/>
                      <g style="fill:rgb(0,0,0);clip-path:url(#clip34);">
                        <path d="M 642.840909090909 -296.8692556766321 L 642.840909090909 -306.8692556766321 L 655.340909090909 -306.8692556766321 L 655.340909090909 -296.8692556766321 Z" style="stroke:none;"/>
                      </g>
                      <g>
                        <path d="M 649.090909090909 -296.8692556766321 L 642.840909090909 -306.8692556766321 L 655.340909090909 -306.8692556766321 Z"/>
                        <g style="fill:rgb(0,0,0);clip-path:url(#clip35);">
                          <path d="M 686.4772727272727 -296.90206498700564 L 686.4772727272727 -306.90206498700564 L 698.9772727272727 -306.90206498700564 L 698.9772727272727 -296.90206498700564 Z" style="stroke:none;"/>
                        </g>
                        <g>
                          <path d="M 692.7272727272727 -296.90206498700564 L 686.4772727272727 -306.90206498700564 L 698.9772727272727 -306.90206498700564 Z"/>
                          <g style="fill:rgb(0,0,0);clip-path:url(#clip36);">
                            <path d="M 730.1136363636364 -296.9700880283785 L 730.1136363636364 -306.9700880283785 L 742.6136363636364 -306.9700880283785 L 742.6136363636364 -296.9700880283785 Z" style="stroke:none;"/>
                          </g>
                          <g>
                            <path d="M 736.3636363636364 -296.9700880283785 L 730.1136363636364 -306.9700880283785 L 742.6136363636364 -306.9700880283785 Z"/>
                          </g>
                        </g>
                      </g>
                    </g>
                  </g>
                </g>
              </g>
            </g>
          </g>
        </g>
      </g>
      <g style="clip-path:url(#clip37);">
        <path d="M 343.6363636363636 -301.2392862545531 L 387.27272727272725 -301.3783874098512 L 430.9090909090909 -301.48286191663567 L 474.5454545454545 -301.5661042300874 L 518.1818181818182 -301.6263344058552 L 561.8181818181818 -301.6796280337836 L 605.4545454545455 -301.7212996721245 L 649.090909090909 -301.7335723136387 L 692.7272727272727 -301.76732020811346 L 736.3636363636364 -301.80892079825543" style="stroke:rgb(147,147,147);stroke-width:2;"/>
      </g>
      <g style="clip-path:url(#clip38);">
        <g style="fill:rgb(255,255,255);clip-path:url(#clip39);">
          <path d="M 337.3863636363636 -296.2392862545531 L 337.3863636363636 -306.2392862545531 L 349.8863636363636 -306.2392862545531 L 349.8863636363636 -296.2392862545531 Z" style="stroke:none;"/>
        </g>
        <g>
          <path d="M 337.3863636363636 -296.2392862545531 L 349.8863636363636 -296.2392862545531 L 343.6363636363636 -306.2392862545531 Z"/>
          <g style="fill:rgb(255,255,255);clip-path:url(#clip40);">
            <path d="M 381.02272727272725 -296.3783874098512 L 381.02272727272725 -306.3783874098512 L 393.52272727272725 -306.3783874098512 L 393.52272727272725 -296.3783874098512 Z" style="stroke:none;"/>
          </g>
          <g>
            <path d="M 381.02272727272725 -296.3783874098512 L 393.52272727272725 -296.3783874098512 L 387.27272727272725 -306.3783874098512 Z"/>
            <g style="fill:rgb(255,255,255);clip-path:url(#clip41);">
              <path d="M 424.6590909090909 -296.48286191663567 L 424.6590909090909 -306.48286191663567 L 437.1590909090909 -306.48286191663567 L 437.1590909090909 -296.48286191663567 Z" style="stroke:none;"/>
            </g>
            <g>
              <path d="M 424.6590909090909 -296.48286191663567 L 437.1590909090909 -296.48286191663567 L 430.9090909090909 -306.48286191663567 Z"/>
              <g style="fill:rgb(255,255,255);clip-path:url(#clip42);">
                <path d="M 468.2954545454545 -296.5661042300874 L 468.2954545454545 -306.5661042300874 L 480.7954545454545 -306.5661042300874 L 480.7954545454545 -296.5661042300874 Z" style="stroke:none;"/>
              </g>
              <g>
                <path d="M 468.2954545454545 -296.5661042300874 L 480.7954545454545 -296.5661042300874 L 474.5454545454545 -306.5661042300874 Z"/>
                <g style="fill:rgb(255,255,255);clip-path:url(#clip43);">
                  <path d="M 511.9318181818182 -296.6263344058552 L 511.9318181818182 -306.6263344058552 L 524.4318181818182 -306.6263344058552 L 524.4318181818182 -296.6263344058552 Z" style="stroke:none;"/>
                </g>
                <g>
                  <path d="M 511.9318181818182 -296.6263344058552 L 524.4318181818182 -296.6263344058552 L 518.1818181818182 -306.6263344058552 Z"/>
                  <g style="fill:rgb(255,255,255);clip-path:url(#clip44);">
                    <path d="M 555.5681818181818 -296.6796280337836 L 555.5681818181818 -306.6796280337836 L 568.0681818181818 -306.6796280337836 L 568.0681818181818 -296.6796280337836 Z" style="stroke:none;"/>
                  </g>
                  <g>
                    <path d="M 555.5681818181818 -296.6796280337836 L 568.0681818181818 -296.6796280337836 L 561.8181818181818 -306.6796280337836 Z"/>
                    <g style="fill:rgb(255,255,255);clip-path:url(#clip45);">
                      <path d="M 599.2045454545455 -296.7212996721245 L 599.2045454545455 -306.7212996721245 L 611.7045454545455 -306.7212996721245 L 611.7045454545455 -296.7212996721245 Z" style="stroke:none;"/>
                    </g>
                    <g>
                      <path d="M 599.2045454545455 -296.7212996721245 L 611.7045454545455 -296.7212996721245 L 605.4545454545455 -306.7212996721245 Z"/>
                      <g style="fill:rgb(255,255,255);clip-path:url(#clip46);">
                        <path d="M 642.840909090909 -296.7335723136387 L 642.840909090909 -306.7335723136387 L 655.340909090909 -306.7335723136387 L 655.340909090909 -296.7335723136387 Z" style="stroke:none;"/>
                      </g>
                      <g>
                        <path d="M 642.840909090909 -296.7335723136387 L 655.340909090909 -296.7335723136387 L 649.090909090909 -306.7335723136387 Z"/>
                        <g style="fill:rgb(255,255,255);clip-path:url(#clip47);">
                          <path d="M 686.4772727272727 -296.76732020811346 L 686.4772727272727 -306.76732020811346 L 698.9772727272727 -306.76732020811346 L 698.9772727272727 -296.76732020811346 Z" style="stroke:none;"/>
                        </g>
                        <g>
                          <path d="M 686.4772727272727 -296.76732020811346 L 698.9772727272727 -296.76732020811346 L 692.7272727272727 -306.76732020811346 Z"/>
                          <g style="fill:rgb(255,255,255);clip-path:url(#clip48);">
                            <path d="M 730.1136363636364 -296.80892079825543 L 730.1136363636364 -306.80892079825543 L 742.6136363636364 -306.80892079825543 L 742.6136363636364 -296.80892079825543 Z" style="stroke:none;"/>
                          </g>
                          <g>
                            <path d="M 730.1136363636364 -296.80892079825543 L 742.6136363636364 -296.80892079825543 L 736.3636363636364 -306.80892079825543 Z"/>
                          </g>
                        </g>
                      </g>
                    </g>
                  </g>
                </g>
              </g>
            </g>
          </g>
        </g>
      </g>
      <g style="clip-path:url(#clip49);">
        <path d="M 343.6363636363636 -301.1712968675903 L 387.27272727272725 -301.32930806193093 L 430.9090909090909 -301.40729280866447 L 474.5454545454545 -301.45755380031375 L 518.1818181818182 -301.4845483765147 L 561.8181818181818 -301.54041095773994 L 605.4545454545455 -301.57519466016697 L 649.090909090909 -301.621211456777 L 692.7272727272727 -301.65509770827066 L 736.3636363636364 -301.6679574322705" style="stroke:rgb(126,126,126);stroke-width:0.4;stroke-dasharray:1.5,1.5;"/>
      </g>
      <g style="clip-path:url(#clip50);">
        <g style="fill:rgb(0,0,0);clip-path:url(#clip51);">
          <path d="M 337.3863636363636 -296.1712968675903 L 337.3863636363636 -306.1712968675903 L 349.8863636363636 -306.1712968675903 L 349.8863636363636 -296.1712968675903 Z" style="stroke:none;"/>
        </g>
        <g>
          <path d="M 343.6363636363636 -296.1712968675903 L 337.3863636363636 -306.1712968675903 L 349.8863636363636 -306.1712968675903 Z"/>
          <g style="fill:rgb(0,0,0);clip-path:url(#clip52);">
            <path d="M 381.02272727272725 -296.32930806193093 L 381.02272727272725 -306.32930806193093 L 393.52272727272725 -306.32930806193093 L 393.52272727272725 -296.32930806193093 Z" style="stroke:none;"/>
          </g>
          <g>
            <path d="M 387.27272727272725 -296.32930806193093 L 381.02272727272725 -306.32930806193093 L 393.52272727272725 -306.32930806193093 Z"/>
            <g style="fill:rgb(0,0,0);clip-path:url(#clip53);">
              <path d="M 424.6590909090909 -296.40729280866447 L 424.6590909090909 -306.40729280866447 L 437.1590909090909 -306.40729280866447 L 437.1590909090909 -296.40729280866447 Z" style="stroke:none;"/>
            </g>
            <g>
              <path d="M 430.9090909090909 -296.40729280866447 L 424.6590909090909 -306.40729280866447 L 437.1590909090909 -306.40729280866447 Z"/>
              <g style="fill:rgb(0,0,0);clip-path:url(#clip54);">
                <path d="M 468.2954545454545 -296.45755380031375 L 468.2954545454545 -306.45755380031375 L 480.7954545454545 -306.45755380031375 L 480.7954545454545 -296.45755380031375 Z" style="stroke:none;"/>
              </g>
              <g>
                <path d="M 474.5454545454545 -296.45755380031375 L 468.2954545454545 -306.45755380031375 L 480.7954545454545 -306.45755380031375 Z"/>
                <g style="fill:rgb(0,0,0);clip-path:url(#clip55);">
                  <path d="M 511.9318181818182 -296.4845483765147 L 511.9318181818182 -306.4845483765147 L 524.4318181818182 -306.4845483765147 L 524.4318181818182 -296.4845483765147 Z" style="stroke:none;"/>
                </g>
                <g>
                  <path d="M 518.1818181818182 -296.4845483765147 L 511.9318181818182 -306.4845483765147 L 524.4318181818182 -306.4845483765147 Z"/>
                  <g style="fill:rgb(0,0,0);clip-path:url(#clip56);">
                    <path d="M 555.5681818181818 -296.54041095773994 L 555.5681818181818 -306.54041095773994 L 568.0681818181818 -306.54041095773994 L 568.0681818181818 -296.54041095773994 Z" style="stroke:none;"/>
                  </g>
                  <g>
                    <path d="M 561.8181818181818 -296.54041095773994 L 555.5681818181818 -306.54041095773994 L 568.0681818181818 -306.54041095773994 Z"/>
                    <g style="fill:rgb(0,0,0);clip-path:url(#clip57);">
                      <path d="M 599.2045454545455 -296.57519466016697 L 599.2045454545455 -306.57519466016697 L 611.7045454545455 -306.57519466016697 L 611.7045454545455 -296.57519466016697 Z" style="stroke:none;"/>
                    </g>
                    <g>
                      <path d="M 605.4545454545455 -296.57519466016697 L 599.2045454545455 -306.57519466016697 L 611.7045454545455 -306.57519466016697 Z"/>
                      <g style="fill:rgb(0,0,0);clip-path:url(#clip58);">
                        <path d="M 642.840909090909 -296.621211456777 L 642.840909090909 -306.621211456777 L 655.340909090909 -306.621211456777 L 655.340909090909 -296.621211456777 Z" style="stroke:none;"/>
                      </g>
                      <g>
                        <path d="M 649.090909090909 -296.621211456777 L 642.840909090909 -306.621211456777 L 655.340909090909 -306.621211456777 Z"/>
                        <g style="fill:rgb(0,0,0);clip-path:url(#clip59);">
                          <path d="M 686.4772727272727 -296.65509770827066 L 686.4772727272727 -306.65509770827066 L 698.9772727272727 -306.65509770827066 L 698.9772727272727 -296.65509770827066 Z" style="stroke:none;"/>
                        </g>
                        <g>
                          <path d="M 692.7272727272727 -296.65509770827066 L 686.4772727272727 -306.65509770827066 L 698.9772727272727 -306.65509770827066 Z"/>
                          <g style="fill:rgb(0,0,0);clip-path:url(#clip60);">
                            <path d="M 730.1136363636364 -296.6679574322705 L 730.1136363636364 -306.6679574322705 L 742.6136363636364 -306.6679574322705 L 742.6136363636364 -296.6679574322705 Z" style="stroke:none;"/>
                          </g>
                          <g>
                            <path d="M 736.3636363636364 -296.6679574322705 L 730.1136363636364 -306.6679574322705 L 742.6136363636364 -306.6679574322705 Z"/>
                          </g>
                        </g>
                      </g>
                    </g>
                  </g>
                </g>
              </g>
            </g>
          </g>
        </g>
      </g>
      <g style="clip-path:url(#clip61);">
        <path d="M 343.6363636363636 -300.94785402144703 L 387.27272727272725 -301.1340227388231 L 430.9090909090909 -301.22201780284297 L 474.5454545454545 -301.31006895754615 L 518.1818181818182 -301.3515835419737 L 561.8181818181818 -301.39081336589993 L 605.4545454545455 -301.4318680067241 L 649.090909090909 -301.4542033168291 L 692.7272727272727 -301.50028742225913 L 736.3636363636364 -301.5174287350871" style="stroke:rgb(137,42,226);stroke-width:2;"/>
      </g>
      <g style="clip-path:url(#clip62);">
        <path d="M 336.4935064935065 -300.94785402144703 L 350.7792207792208 -300.94785402144703" style="stroke-width:1;"/>
        <path d="M 343.6363636363636 -293.8049968785899 L 343.6363636363636 -308.0907111643042" style="stroke-width:1;"/>
        <path d="M 380.12987012987014 -301.1340227388231 L 394.4155844155844 -301.1340227388231" style="stroke-width:1;"/>
        <path d="M 387.27272727272725 -293.9911655959659 L 387.27272727272725 -308.2768798816802" style="stroke-width:1;"/>
        <path d="M 423.76623376623377 -301.22201780284297 L 438.05194805194805 -301.22201780284297" style="stroke-width:1;"/>
        <path d="M 430.9090909090909 -294.0791606599858 L 430.9090909090909 -308.3648749457001" style="stroke-width:1;"/>
        <path d="M 467.4025974025974 -301.31006895754615 L 481.68831168831167 -301.31006895754615" style="stroke-width:1;"/>
        <path d="M 474.5454545454545 -294.167211814689 L 474.5454545454545 -308.4529261004033" style="stroke-width:1;"/>
        <path d="M 511.038961038961 -301.3515835419737 L 525.3246753246754 -301.3515835419737" style="stroke-width:1;"/>
        <path d="M 518.1818181818182 -294.20872639911653 L 518.1818181818182 -308.4944406848308" style="stroke-width:1;"/>
        <path d="M 554.6753246753246 -301.39081336589993 L 568.961038961039 -301.39081336589993" style="stroke-width:1;"/>
        <path d="M 561.8181818181818 -294.24795622304276 L 561.8181818181818 -308.53367050875704" style="stroke-width:1;"/>
        <path d="M 598.3116883116883 -301.4318680067241 L 612.5974025974026 -301.4318680067241" style="stroke-width:1;"/>
        <path d="M 605.4545454545455 -294.28901086386696 L 605.4545454545455 -308.57472514958124" style="stroke-width:1;"/>
        <path d="M 641.9480519480519 -301.4542033168291 L 656.2337662337662 -301.4542033168291" style="stroke-width:1;"/>
        <path d="M 649.090909090909 -294.3113461739719 L 649.090909090909 -308.5970604596862" style="stroke-width:1;"/>
        <path d="M 685.5844155844156 -301.50028742225913 L 699.8701298701299 -301.50028742225913" style="stroke-width:1;"/>
        <path d="M 692.7272727272727 -294.357430279402 L 692.7272727272727 -308.6431445651163" style="stroke-width:1;"/>
        <path d="M 729.2207792207791 -301.5174287350871 L 743.5064935064936 -301.5174287350871" style="stroke-width:1;"/>
        <path d="M 736.3636363636364 -294.37457159223 L 736.3636363636364 -308.66028587794426" style="stroke-width:1;"/>
      </g>
      <g style="clip-path:url(#clip63);">
        <path d="M 343.6363636363636 -300.9334088007982 L 387.27272727272725 -301.01965009611905 L 430.9090909090909 -301.06713646863255 L 474.5454545454545 -301.10713660461 L 518.1818181818182 -301.1326653442863 L 561.8181818181818 -301.1821074119589 L 605.4545454545455 -301.2198975750128 L 649.090909090909 -301.2404080682199 L 692.7272727272727 -301.27266021113894 L 736.3636363636364 -301.28800662210006" style="stroke:rgb(126,126,126);stroke-width:0.4;stroke-dasharray:5,2,5,2;"/>
      </g>
      <g style="clip-path:url(#clip64);">
        <g style="fill:rgb(0,0,0);clip-path:url(#clip65);">
          <path d="M 336.4935064935065 -293.790551657941 L 336.4935064935065 -308.07626594365536 L 350.7792207792208 -308.07626594365536 L 350.7792207792208 -293.790551657941 Z" style="stroke:none;"/>
        </g>
        <g>
          <path d="M 336.4935064935065 -300.9334088007982 L 343.6363636363636 -308.07626594365536 L 350.7792207792208 -300.9334088007982 L 343.6363636363636 -293.790551657941 Z"/>
          <g style="fill:rgb(0,0,0);clip-path:url(#clip66);">
            <path d="M 380.12987012987014 -293.8767929532619 L 380.12987012987014 -308.16250723897616 L 394.4155844155844 -308.16250723897616 L 394.4155844155844 -293.8767929532619 Z" style="stroke:none;"/>
          </g>
          <g>
            <path d="M 380.12987012987014 -301.01965009611905 L 387.27272727272725 -308.16250723897616 L 394.4155844155844 -301.01965009611905 L 387.27272727272725 -293.8767929532619 Z"/>
            <g style="fill:rgb(0,0,0);clip-path:url(#clip67);">
              <path d="M 423.76623376623377 -293.92427932577544 L 423.76623376623377 -308.2099936114897 L 438.05194805194805 -308.2099936114897 L 438.05194805194805 -293.92427932577544 Z" style="stroke:none;"/>
            </g>
            <g>
              <path d="M 423.76623376623377 -301.06713646863255 L 430.9090909090909 -308.2099936114897 L 438.05194805194805 -301.06713646863255 L 430.9090909090909 -293.92427932577544 Z"/>
              <g style="fill:rgb(0,0,0);clip-path:url(#clip68);">
                <path d="M 467.4025974025974 -293.9642794617528 L 467.4025974025974 -308.2499937474671 L 481.68831168831167 -308.2499937474671 L 481.68831168831167 -293.9642794617528 Z" style="stroke:none;"/>
              </g>
              <g>
                <path d="M 467.4025974025974 -301.10713660461 L 474.5454545454545 -308.2499937474671 L 481.68831168831167 -301.10713660461 L 474.5454545454545 -293.9642794617528 Z"/>
                <g style="fill:rgb(0,0,0);clip-path:url(#clip69);">
                  <path d="M 511.038961038961 -293.9898082014292 L 511.038961038961 -308.27552248714346 L 525.3246753246754 -308.27552248714346 L 525.3246753246754 -293.9898082014292 Z" style="stroke:none;"/>
                </g>
                <g>
                  <path d="M 511.038961038961 -301.1326653442863 L 518.1818181818182 -308.27552248714346 L 525.3246753246754 -301.1326653442863 L 518.1818181818182 -293.9898082014292 Z"/>
                  <g style="fill:rgb(0,0,0);clip-path:url(#clip70);">
                    <path d="M 554.6753246753246 -294.03925026910173 L 554.6753246753246 -308.324964554816 L 568.961038961039 -308.324964554816 L 568.961038961039 -294.03925026910173 Z" style="stroke:none;"/>
                  </g>
                  <g>
                    <path d="M 554.6753246753246 -301.1821074119589 L 561.8181818181818 -308.324964554816 L 568.961038961039 -301.1821074119589 L 561.8181818181818 -294.03925026910173 Z"/>
                    <g style="fill:rgb(0,0,0);clip-path:url(#clip71);">
                      <path d="M 598.3116883116883 -294.0770404321556 L 598.3116883116883 -308.36275471786996 L 612.5974025974026 -308.36275471786996 L 612.5974025974026 -294.0770404321556 Z" style="stroke:none;"/>
                    </g>
                    <g>
                      <path d="M 598.3116883116883 -301.2198975750128 L 605.4545454545455 -308.36275471786996 L 612.5974025974026 -301.2198975750128 L 605.4545454545455 -294.0770404321556 Z"/>
                      <g style="fill:rgb(0,0,0);clip-path:url(#clip72);">
                        <path d="M 641.9480519480519 -294.0975509253627 L 641.9480519480519 -308.383265211077 L 656.2337662337662 -308.383265211077 L 656.2337662337662 -294.0975509253627 Z" style="stroke:none;"/>
                      </g>
                      <g>
                        <path d="M 641.9480519480519 -301.2404080682199 L 649.090909090909 -308.383265211077 L 656.2337662337662 -301.2404080682199 L 649.090909090909 -294.0975509253627 Z"/>
                        <g style="fill:rgb(0,0,0);clip-path:url(#clip73);">
                          <path d="M 685.5844155844156 -294.1298030682818 L 685.5844155844156 -308.41551735399605 L 699.8701298701299 -308.41551735399605 L 699.8701298701299 -294.1298030682818 Z" style="stroke:none;"/>
                        </g>
                        <g>
                          <path d="M 685.5844155844156 -301.27266021113894 L 692.7272727272727 -308.41551735399605 L 699.8701298701299 -301.27266021113894 L 692.7272727272727 -294.1298030682818 Z"/>
                          <g style="fill:rgb(0,0,0);clip-path:url(#clip74);">
                            <path d="M 729.2207792207791 -294.14514947924295 L 729.2207792207791 -308.4308637649572 L 743.5064935064936 -308.4308637649572 L 743.5064935064936 -294.14514947924295 Z" style="stroke:none;"/>
                          </g>
                          <g>
                            <path d="M 729.2207792207791 -301.28800662210006 L 736.3636363636364 -308.4308637649572 L 743.5064935064936 -301.28800662210006 L 736.3636363636364 -294.14514947924295 Z"/>
                          </g>
                        </g>
                      </g>
                    </g>
                  </g>
                </g>
              </g>
            </g>
          </g>
        </g>
      </g>
    </g>
    <g style="fill:rgb(255,255,255);clip-path:url(#clip75);">
      <path d="M 290 6 L 290 -136 L 456.72 -136 L 456.72 6 Z" style="stroke:none;"/>
    </g>
    <path d="M 300 -125.33333333333334 L 316 -125.33333333333334" style="stroke:rgb(205,0,0);stroke-width:2;"/>
    <g style="fill:rgb(255,255,255);clip-path:url(#clip76);">
      <path d="M 301.75 -120.33333333333334 L 301.75 -130.33333333333334 L 314.25 -130.33333333333334 L 314.25 -120.33333333333334 Z" style="stroke:none;"/>
    </g>
    <g>
      <path d="M 308.0 -120.33333333333334 L 301.75 -130.33333333333334 L 314.25 -130.33333333333334 Z"/>
      <text style="font-size:16;stroke:none;fill:rgb(0,0,0);" x="316.0" y="-120.0">
        binary_heap
      </text>
      <path d="M 300 -105.33333333333334 L 316 -105.33333333333334" style="stroke:rgb(126,126,126);stroke-width:2;"/>
      <g style="fill:rgb(255,255,255);clip-path:url(#clip77);">
        <path d="M 300.85714285714283 -98.1904761904762 L 300.85714285714283 -112.47619047619048 L 315.14285714285717 -112.47619047619048 L 315.14285714285717 -98.1904761904762 Z" style="stroke:none;"/>
      </g>
      <g>
        <path d="M 300.85714285714283 -105.33333333333334 L 308.0 -112.47619047619048 L 315.14285714285717 -105.33333333333334 L 308.0 -98.1904761904762 Z"/>
        <text style="font-size:16;stroke:none;fill:rgb(0,0,0);" x="316.0" y="-100.0">
          rc_binomial_heap
        </text>
        <path d="M 300 -85.33333333333334 L 316 -85.33333333333334" style="stroke:rgb(126,126,126);stroke-width:0.4;stroke-dasharray:1.5,1.5;"/>
        <g style="fill:rgb(0,0,0);clip-path:url(#clip78);">
          <path d="M 301.75 -80.33333333333334 L 301.75 -90.33333333333334 L 314.25 -90.33333333333334 L 314.25 -80.33333333333334 Z" style="stroke:none;"/>
        </g>
        <g>
          <path d="M 308.0 -80.33333333333334 L 301.75 -90.33333333333334 L 314.25 -90.33333333333334 Z"/>
          <text style="font-size:16;stroke:none;fill:rgb(0,0,0);" x="316.0" y="-80.0">
            thin_heap
          </text>
          <path d="M 300 -65.33333333333334 L 316 -65.33333333333334" style="stroke:rgb(147,147,147);stroke-width:2;"/>
          <g style="fill:rgb(255,255,255);clip-path:url(#clip79);">
            <path d="M 301.75 -60.33333333333334 L 301.75 -70.33333333333334 L 314.25 -70.33333333333334 L 314.25 -60.33333333333334 Z" style="stroke:none;"/>
          </g>
          <g>
            <path d="M 301.75 -60.33333333333334 L 314.25 -60.33333333333334 L 308.0 -70.33333333333334 Z"/>
            <text style="font-size:16;stroke:none;fill:rgb(0,0,0);" x="316.0" y="-60.0">
              binomial_heap
            </text>
            <path d="M 300 -45.33333333333334 L 316 -45.33333333333334" style="stroke:rgb(126,126,126);stroke-width:0.4;stroke-dasharray:1.5,1.5;"/>
            <g style="fill:rgb(0,0,0);clip-path:url(#clip80);">
              <path d="M 301.75 -40.33333333333337 L 301.75 -50.33333333333334 L 314.25 -50.33333333333334 L 314.25 -40.33333333333337 Z" style="stroke:none;"/>
            </g>
            <g>
              <path d="M 308.0 -40.33333333333337 L 301.75 -50.33333333333334 L 314.25 -50.33333333333334 Z"/>
              <text style="font-size:16;stroke:none;fill:rgb(0,0,0);" x="316.0" y="-40.0">
                n_pq_deque
              </text>
              <path d="M 300 -25.333333333333314 L 316 -25.333333333333314" style="stroke:rgb(137,42,226);stroke-width:2;"/>
              <path d="M 300.85714285714283 -25.333333333333314 L 315.14285714285717 -25.333333333333314" style="stroke-width:1;"/>
              <path d="M 308.0 -18.190476190476147 L 308.0 -32.47619047619048" style="stroke-width:1;"/>
              <text style="font-size:16;stroke:none;fill:rgb(0,0,0);" x="316.0" y="-20.0">
                pairing_heap
              </text>
              <path d="M 300 -5.333333333333314 L 316 -5.333333333333314" style="stroke:rgb(126,126,126);stroke-width:0.4;stroke-dasharray:5,2,5,2;"/>
              <g style="fill:rgb(0,0,0);clip-path:url(#clip81);">
                <path d="M 300.85714285714283 1.8095238095238528 L 300.85714285714283 -12.476190476190482 L 315.14285714285717 -12.476190476190482 L 315.14285714285717 1.8095238095238528 Z" style="stroke:none;"/>
              </g>
              <g>
                <path d="M 300.85714285714283 -5.333333333333314 L 308.0 -12.476190476190482 L 315.14285714285717 -5.333333333333314 L 308.0 1.8095238095238528 Z"/>
                <text style="font-size:16;stroke:none;fill:rgb(0,0,0);" x="316.0" y="-0.0">
                  n_pq_vector
                </text>
              </g>
            </g>
          </g>
        </g>
      </g>
    </g>
  </g>
</svg>
