<?xml version="1.0" ?>
<!--Created by PyChart 1.39 Copyright 1999-2006 Yasushi Saito-->
<svg viewBox="178 -544 620 516" xmlns="http://www.w3.org/2000/svg" xmlns:xlink="http://www.w3.org/1999/xlink">
  <defs>
    <clipPath id="clip0">
      <path d="M 294 -294 L 294 -526 L 786 -526 L 786 -294 Z"/>
    </clipPath>
    <clipPath id="clip1">
      <path d="M 294 -294 L 294 -526 L 786 -526 L 786 -294 Z"/>
    </clipPath>
    <clipPath id="clip2">
      <path d="M 280 -280 L 280 -540 L 800 -540 L 800 -280 Z"/>
    </clipPath>
    <clipPath id="clip3">
      <path d="M 337.3863636363636 -478.1851422619615 L 349.8863636363636 -478.1851422619615 L 343.6363636363636 -488.1851422619615 Z"/>
    </clipPath>
    <clipPath id="clip4">
      <path d="M 381.02272727272725 -475.7549162711889 L 393.52272727272725 -475.7549162711889 L 387.27272727272725 -485.7549162711889 Z"/>
    </clipPath>
    <clipPath id="clip5">
      <path d="M 424.6590909090909 -486.70707018843564 L 437.1590909090909 -486.70707018843564 L 430.9090909090909 -496.70707018843564 Z"/>
    </clipPath>
    <clipPath id="clip6">
      <path d="M 468.2954545454545 -472.87608282660835 L 480.7954545454545 -472.87608282660835 L 474.5454545454545 -482.87608282660835 Z"/>
    </clipPath>
    <clipPath id="clip7">
      <path d="M 511.9318181818182 -505.0370416553585 L 524.4318181818182 -505.0370416553585 L 518.1818181818182 -515.0370416553585 Z"/>
    </clipPath>
    <clipPath id="clip8">
      <path d="M 555.5681818181818 -494.2220518876574 L 568.0681818181818 -494.2220518876574 L 561.8181818181818 -504.2220518876574 Z"/>
    </clipPath>
    <clipPath id="clip9">
      <path d="M 599.2045454545455 -479.9715035978083 L 611.7045454545455 -479.9715035978083 L 605.4545454545455 -489.9715035978083 Z"/>
    </clipPath>
    <clipPath id="clip10">
      <path d="M 642.840909090909 -474.49946087887747 L 655.340909090909 -474.49946087887747 L 649.090909090909 -484.49946087887747 Z"/>
    </clipPath>
    <clipPath id="clip11">
      <path d="M 686.4772727272727 -514.786992144235 L 698.9772727272727 -514.786992144235 L 692.7272727272727 -524.786992144235 Z"/>
    </clipPath>
    <clipPath id="clip12">
      <path d="M 730.1136363636364 -515.0 L 742.6136363636364 -515.0 L 736.3636363636364 -525.0 Z"/>
    </clipPath>
    <clipPath id="clip13">
      <path d="M 294 -294 L 294 -526 L 786 -526 L 786 -294 Z"/>
    </clipPath>
    <clipPath id="clip14">
      <path d="M 280 -280 L 280 -540 L 800 -540 L 800 -280 Z"/>
    </clipPath>
    <clipPath id="clip15">
      <path d="M 343.6363636363636 -507.58829483690664 L 337.3863636363636 -517.5882948369067 L 349.8863636363636 -517.5882948369067 Z"/>
    </clipPath>
    <clipPath id="clip16">
      <path d="M 387.27272727272725 -470.258668114103 L 381.02272727272725 -480.258668114103 L 393.52272727272725 -480.258668114103 Z"/>
    </clipPath>
    <clipPath id="clip17">
      <path d="M 430.9090909090909 -487.07176545663924 L 424.6590909090909 -497.07176545663924 L 437.1590909090909 -497.07176545663924 Z"/>
    </clipPath>
    <clipPath id="clip18">
      <path d="M 474.5454545454545 -471.649673960083 L 468.2954545454545 -481.649673960083 L 480.7954545454545 -481.649673960083 Z"/>
    </clipPath>
    <clipPath id="clip19">
      <path d="M 518.1818181818182 -492.53412600030805 L 511.9318181818182 -502.53412600030805 L 524.4318181818182 -502.53412600030805 Z"/>
    </clipPath>
    <clipPath id="clip20">
      <path d="M 561.8181818181818 -483.8233956562241 L 555.5681818181818 -493.8233956562241 L 568.0681818181818 -493.8233956562241 Z"/>
    </clipPath>
    <clipPath id="clip21">
      <path d="M 605.4545454545455 -476.39716723023776 L 599.2045454545455 -486.39716723023776 L 611.7045454545455 -486.39716723023776 Z"/>
    </clipPath>
    <clipPath id="clip22">
      <path d="M 649.090909090909 -470.86057667622663 L 642.840909090909 -480.86057667622663 L 655.340909090909 -480.86057667622663 Z"/>
    </clipPath>
    <clipPath id="clip23">
      <path d="M 692.7272727272727 -503.4443238247526 L 686.4772727272727 -513.4443238247526 L 698.9772727272727 -513.4443238247526 Z"/>
    </clipPath>
    <clipPath id="clip24">
      <path d="M 736.3636363636364 -496.9362883527832 L 730.1136363636364 -506.9362883527832 L 742.6136363636364 -506.9362883527832 Z"/>
    </clipPath>
    <clipPath id="clip25">
      <path d="M 294 -294 L 294 -526 L 786 -526 L 786 -294 Z"/>
    </clipPath>
    <clipPath id="clip26">
      <path d="M 280 -280 L 280 -540 L 800 -540 L 800 -280 Z"/>
    </clipPath>
    <clipPath id="clip27">
      <path d="M 343.6363636363636 -501.4207491949858 L 337.3863636363636 -511.4207491949858 L 349.8863636363636 -511.4207491949858 Z"/>
    </clipPath>
    <clipPath id="clip28">
      <path d="M 387.27272727272725 -461.90456455883754 L 381.02272727272725 -471.90456455883754 L 393.52272727272725 -471.90456455883754 Z"/>
    </clipPath>
    <clipPath id="clip29">
      <path d="M 430.9090909090909 -475.3369690390441 L 424.6590909090909 -485.3369690390441 L 437.1590909090909 -485.3369690390441 Z"/>
    </clipPath>
    <clipPath id="clip30">
      <path d="M 474.5454545454545 -460.3086193364776 L 468.2954545454545 -470.3086193364776 L 480.7954545454545 -470.3086193364776 Z"/>
    </clipPath>
    <clipPath id="clip31">
      <path d="M 518.1818181818182 -483.0762544651698 L 511.9318181818182 -493.0762544651698 L 524.4318181818182 -493.0762544651698 Z"/>
    </clipPath>
    <clipPath id="clip32">
      <path d="M 561.8181818181818 -473.3004848422612 L 555.5681818181818 -483.3004848422612 L 568.0681818181818 -483.3004848422612 Z"/>
    </clipPath>
    <clipPath id="clip33">
      <path d="M 605.4545454545455 -465.98882882354235 L 599.2045454545455 -475.98882882354235 L 611.7045454545455 -475.98882882354235 Z"/>
    </clipPath>
    <clipPath id="clip34">
      <path d="M 649.090909090909 -462.0433424042601 L 642.840909090909 -472.0433424042601 L 655.340909090909 -472.0433424042601 Z"/>
    </clipPath>
    <clipPath id="clip35">
      <path d="M 692.7272727272727 -493.1215112995386 L 686.4772727272727 -503.1215112995386 L 698.9772727272727 -503.1215112995386 Z"/>
    </clipPath>
    <clipPath id="clip36">
      <path d="M 736.3636363636364 -486.9749437040188 L 730.1136363636364 -496.9749437040188 L 742.6136363636364 -496.9749437040188 Z"/>
    </clipPath>
    <clipPath id="clip37">
      <path d="M 294 -294 L 294 -526 L 786 -526 L 786 -294 Z"/>
    </clipPath>
    <clipPath id="clip38">
      <path d="M 280 -280 L 280 -540 L 800 -540 L 800 -280 Z"/>
    </clipPath>
    <clipPath id="clip39">
      <path d="M 294 -294 L 294 -526 L 786 -526 L 786 -294 Z"/>
    </clipPath>
    <clipPath id="clip40">
      <path d="M 280 -280 L 280 -540 L 800 -540 L 800 -280 Z"/>
    </clipPath>
    <clipPath id="clip41">
      <path d="M 336.4935064935065 -457.8959459558581 L 343.6363636363636 -465.0388030987152 L 350.7792207792208 -457.8959459558581 L 343.6363636363636 -450.75308881300094 Z"/>
    </clipPath>
    <clipPath id="clip42">
      <path d="M 380.12987012987014 -450.4056538035545 L 387.27272727272725 -457.5485109464117 L 394.4155844155844 -450.4056538035545 L 387.27272727272725 -443.2627966606974 Z"/>
    </clipPath>
    <clipPath id="clip43">
      <path d="M 423.76623376623377 -460.48286181628805 L 430.9090909090909 -467.62571895914516 L 438.05194805194805 -460.48286181628805 L 430.9090909090909 -453.34000467343094 Z"/>
    </clipPath>
    <clipPath id="clip44">
      <path d="M 467.4025974025974 -448.2397511974357 L 474.5454545454545 -455.3826083402928 L 481.68831168831167 -448.2397511974357 L 474.5454545454545 -441.09689405457857 Z"/>
    </clipPath>
    <clipPath id="clip45">
      <path d="M 511.038961038961 -441.7717353832161 L 518.1818181818182 -448.9145925260732 L 525.3246753246754 -441.7717353832161 L 518.1818181818182 -434.628878240359 Z"/>
    </clipPath>
    <clipPath id="clip46">
      <path d="M 554.6753246753246 -462.2232328196401 L 561.8181818181818 -469.36608996249726 L 568.961038961039 -462.2232328196401 L 561.8181818181818 -455.080375676783 Z"/>
    </clipPath>
    <clipPath id="clip47">
      <path d="M 598.3116883116883 -454.531067313123 L 605.4545454545455 -461.6739244559801 L 612.5974025974026 -454.531067313123 L 605.4545454545455 -447.3882101702659 Z"/>
    </clipPath>
    <clipPath id="clip48">
      <path d="M 641.9480519480519 -450.5420111051616 L 649.090909090909 -457.68486824801874 L 656.2337662337662 -450.5420111051616 L 649.090909090909 -443.39915396230447 Z"/>
    </clipPath>
    <clipPath id="clip49">
      <path d="M 685.5844155844156 -448.90685307299043 L 692.7272727272727 -456.04971021584754 L 699.8701298701299 -448.90685307299043 L 692.7272727272727 -441.76399593013326 Z"/>
    </clipPath>
    <clipPath id="clip50">
      <path d="M 729.2207792207791 -445.7194809767261 L 736.3636363636364 -452.8623381195832 L 743.5064935064936 -445.7194809767261 L 736.3636363636364 -438.57662383386895 Z"/>
    </clipPath>
    <clipPath id="clip51">
      <path d="M 290 -34 L 290 -136 L 708.4 -136 L 708.4 -34 Z"/>
    </clipPath>
    <clipPath id="clip52">
      <path d="M 301.75 -120.33333333333334 L 314.25 -120.33333333333334 L 308.0 -130.33333333333334 Z"/>
    </clipPath>
    <clipPath id="clip53">
      <path d="M 308.0 -100.33333333333334 L 301.75 -110.33333333333334 L 314.25 -110.33333333333334 Z"/>
    </clipPath>
    <clipPath id="clip54">
      <path d="M 308.0 -80.33333333333334 L 301.75 -90.33333333333334 L 314.25 -90.33333333333334 Z"/>
    </clipPath>
    <clipPath id="clip55">
      <path d="M 300.85714285714283 -45.33333333333334 L 308.0 -52.47619047619048 L 315.14285714285717 -45.33333333333334 L 308.0 -38.190476190476204 Z"/>
    </clipPath>
  </defs>
  <g style="stroke-linejoin:miter;font-size:8;font-family:Helvetica;fill:none;stroke-linecap:butt;stroke:rgb(0,0,0);font-stretch:normal;stroke-dasharray:none;font-weight:normal;font-style:normal;stroke-width:0.5;">
    <path d="M 300 -300 L 780 -300"/>
    <path d="M 300 -300 L 780 -300"/>
    <path d="M 300.0 -300 L 300.0 -288"/>
    <text style="font-size:12;font-style:italic;stroke:none;fill:rgb(0,0,0);" transform="rotate(90,300,-288)" x="300.0" y="-288.0">
      0
    </text>
    <path d="M 343.6363636363636 -300 L 343.6363636363636 -288"/>
    <text style="font-size:12;font-style:italic;stroke:none;fill:rgb(0,0,0);" transform="rotate(90,343.636,-288)" x="343.6363636363636" y="-288.0">
      200
    </text>
    <path d="M 387.27272727272725 -300 L 387.27272727272725 -288"/>
    <text style="font-size:12;font-style:italic;stroke:none;fill:rgb(0,0,0);" transform="rotate(90,387.273,-288)" x="387.27272727272725" y="-288.0">
      400
    </text>
    <path d="M 430.9090909090909 -300 L 430.9090909090909 -288"/>
    <text style="font-size:12;font-style:italic;stroke:none;fill:rgb(0,0,0);" transform="rotate(90,430.909,-288)" x="430.9090909090909" y="-288.0">
      600
    </text>
    <path d="M 474.5454545454545 -300 L 474.5454545454545 -288"/>
    <text style="font-size:12;font-style:italic;stroke:none;fill:rgb(0,0,0);" transform="rotate(90,474.545,-288)" x="474.5454545454545" y="-288.0">
      800
    </text>
    <path d="M 518.1818181818182 -300 L 518.1818181818182 -288"/>
    <text style="font-size:12;font-style:italic;stroke:none;fill:rgb(0,0,0);" transform="rotate(90,518.182,-288)" x="518.1818181818182" y="-288.0">
      1000
    </text>
    <path d="M 561.8181818181818 -300 L 561.8181818181818 -288"/>
    <text style="font-size:12;font-style:italic;stroke:none;fill:rgb(0,0,0);" transform="rotate(90,561.818,-288)" x="561.8181818181818" y="-288.0">
      1200
    </text>
    <path d="M 605.4545454545455 -300 L 605.4545454545455 -288"/>
    <text style="font-size:12;font-style:italic;stroke:none;fill:rgb(0,0,0);" transform="rotate(90,605.455,-288)" x="605.4545454545455" y="-288.0">
      1400
    </text>
    <path d="M 649.090909090909 -300 L 649.090909090909 -288"/>
    <text style="font-size:12;font-style:italic;stroke:none;fill:rgb(0,0,0);" transform="rotate(90,649.091,-288)" x="649.090909090909" y="-288.0">
      1600
    </text>
    <path d="M 692.7272727272727 -300 L 692.7272727272727 -288"/>
    <text style="font-size:12;font-style:italic;stroke:none;fill:rgb(0,0,0);" transform="rotate(90,692.727,-288)" x="692.7272727272727" y="-288.0">
      1800
    </text>
    <path d="M 736.3636363636364 -300 L 736.3636363636364 -288"/>
    <text style="font-size:12;font-style:italic;stroke:none;fill:rgb(0,0,0);" transform="rotate(90,736.364,-288)" x="736.3636363636364" y="-288.0">
      2000
    </text>
    <path d="M 780.0 -300 L 780.0 -288"/>
    <text style="font-size:12;font-style:italic;stroke:none;fill:rgb(0,0,0);" transform="rotate(90,780,-288)" x="780.0" y="-288.0">
      2200
    </text>
    <text style="font-size:16;stroke:none;fill:rgb(0,0,0);" x="524.44" y="-220.0">
      Size
    </text>
    <path d="M 300 -461.3695877007034 L 780 -461.3695877007034" style="stroke:rgb(179,179,179);stroke-width:0.4;stroke-dasharray:1,1;"/>
    <path d="M 300 -300 L 300 -520"/>
    <path d="M 300 -300.0 L 288 -300.0"/>
    <text style="font-size:12;font-style:italic;stroke:none;fill:rgb(0,0,0);" x="238.0" y="-294.0">
      0.00e+00
    </text>
    <path d="M 300 -344.0 L 288 -344.0"/>
    <text style="font-size:12;font-style:italic;stroke:none;fill:rgb(0,0,0);" x="238.0" y="-338.0">
      2.73e-08
    </text>
    <path d="M 300 -388.0 L 288 -388.0"/>
    <text style="font-size:12;font-style:italic;stroke:none;fill:rgb(0,0,0);" x="238.0" y="-382.0">
      5.45e-08
    </text>
    <path d="M 300 -432.0 L 288 -432.0"/>
    <text style="font-size:12;font-style:italic;stroke:none;fill:rgb(0,0,0);" x="238.0" y="-426.0">
      8.18e-08
    </text>
    <path d="M 300 -476.0 L 288 -476.0"/>
    <text style="font-size:12;font-style:italic;stroke:none;fill:rgb(0,0,0);" x="238.0" y="-470.0">
      1.09e-07
    </text>
    <path d="M 300 -520.0 L 288 -520.0"/>
    <text style="font-size:12;font-style:italic;stroke:none;fill:rgb(0,0,0);" x="238.0" y="-514.0">
      1.36e-07
    </text>
    <text style="font-size:16;stroke:none;fill:rgb(0,0,0);" transform="rotate(-90,200,-340.648)" x="200.0" y="-340.648">
      Average time (sec.)
    </text>
    <g style="clip-path:url(#clip0);">
      <g style="clip-path:url(#clip1);">
        <path d="M 343.6363636363636 -483.1851422619615 L 387.27272727272725 -480.7549162711889 L 430.9090909090909 -491.70707018843564 L 474.5454545454545 -477.87608282660835 L 518.1818181818182 -510.0370416553585 L 561.8181818181818 -499.2220518876574 L 605.4545454545455 -484.9715035978083 L 649.090909090909 -479.49946087887747 L 692.7272727272727 -519.786992144235 L 736.3636363636364 -520.0" style="stroke:rgb(0,138,0);stroke-width:2;"/>
      </g>
      <g style="clip-path:url(#clip2);">
        <g style="fill:rgb(255,255,255);clip-path:url(#clip3);">
          <path d="M 337.3863636363636 -478.1851422619615 L 337.3863636363636 -488.1851422619615 L 349.8863636363636 -488.1851422619615 L 349.8863636363636 -478.1851422619615 Z" style="stroke:none;"/>
        </g>
        <g>
          <path d="M 337.3863636363636 -478.1851422619615 L 349.8863636363636 -478.1851422619615 L 343.6363636363636 -488.1851422619615 Z"/>
          <g style="fill:rgb(255,255,255);clip-path:url(#clip4);">
            <path d="M 381.02272727272725 -475.7549162711889 L 381.02272727272725 -485.7549162711889 L 393.52272727272725 -485.7549162711889 L 393.52272727272725 -475.7549162711889 Z" style="stroke:none;"/>
          </g>
          <g>
            <path d="M 381.02272727272725 -475.7549162711889 L 393.52272727272725 -475.7549162711889 L 387.27272727272725 -485.7549162711889 Z"/>
            <g style="fill:rgb(255,255,255);clip-path:url(#clip5);">
              <path d="M 424.6590909090909 -486.70707018843564 L 424.6590909090909 -496.70707018843564 L 437.1590909090909 -496.70707018843564 L 437.1590909090909 -486.70707018843564 Z" style="stroke:none;"/>
            </g>
            <g>
              <path d="M 424.6590909090909 -486.70707018843564 L 437.1590909090909 -486.70707018843564 L 430.9090909090909 -496.70707018843564 Z"/>
              <g style="fill:rgb(255,255,255);clip-path:url(#clip6);">
                <path d="M 468.2954545454545 -472.87608282660835 L 468.2954545454545 -482.87608282660835 L 480.7954545454545 -482.87608282660835 L 480.7954545454545 -472.87608282660835 Z" style="stroke:none;"/>
              </g>
              <g>
                <path d="M 468.2954545454545 -472.87608282660835 L 480.7954545454545 -472.87608282660835 L 474.5454545454545 -482.87608282660835 Z"/>
                <g style="fill:rgb(255,255,255);clip-path:url(#clip7);">
                  <path d="M 511.9318181818182 -505.0370416553585 L 511.9318181818182 -515.0370416553585 L 524.4318181818182 -515.0370416553585 L 524.4318181818182 -505.0370416553585 Z" style="stroke:none;"/>
                </g>
                <g>
                  <path d="M 511.9318181818182 -505.0370416553585 L 524.4318181818182 -505.0370416553585 L 518.1818181818182 -515.0370416553585 Z"/>
                  <g style="fill:rgb(255,255,255);clip-path:url(#clip8);">
                    <path d="M 555.5681818181818 -494.2220518876574 L 555.5681818181818 -504.2220518876574 L 568.0681818181818 -504.2220518876574 L 568.0681818181818 -494.2220518876574 Z" style="stroke:none;"/>
                  </g>
                  <g>
                    <path d="M 555.5681818181818 -494.2220518876574 L 568.0681818181818 -494.2220518876574 L 561.8181818181818 -504.2220518876574 Z"/>
                    <g style="fill:rgb(255,255,255);clip-path:url(#clip9);">
                      <path d="M 599.2045454545455 -479.9715035978083 L 599.2045454545455 -489.9715035978083 L 611.7045454545455 -489.9715035978083 L 611.7045454545455 -479.9715035978083 Z" style="stroke:none;"/>
                    </g>
                    <g>
                      <path d="M 599.2045454545455 -479.9715035978083 L 611.7045454545455 -479.9715035978083 L 605.4545454545455 -489.9715035978083 Z"/>
                      <g style="fill:rgb(255,255,255);clip-path:url(#clip10);">
                        <path d="M 642.840909090909 -474.49946087887747 L 642.840909090909 -484.49946087887747 L 655.340909090909 -484.49946087887747 L 655.340909090909 -474.49946087887747 Z" style="stroke:none;"/>
                      </g>
                      <g>
                        <path d="M 642.840909090909 -474.49946087887747 L 655.340909090909 -474.49946087887747 L 649.090909090909 -484.49946087887747 Z"/>
                        <g style="fill:rgb(255,255,255);clip-path:url(#clip11);">
                          <path d="M 686.4772727272727 -514.786992144235 L 686.4772727272727 -524.786992144235 L 698.9772727272727 -524.786992144235 L 698.9772727272727 -514.786992144235 Z" style="stroke:none;"/>
                        </g>
                        <g>
                          <path d="M 686.4772727272727 -514.786992144235 L 698.9772727272727 -514.786992144235 L 692.7272727272727 -524.786992144235 Z"/>
                          <g style="fill:rgb(255,255,255);clip-path:url(#clip12);">
                            <path d="M 730.1136363636364 -515.0 L 730.1136363636364 -525.0 L 742.6136363636364 -525.0 L 742.6136363636364 -515.0 Z" style="stroke:none;"/>
                          </g>
                          <g>
                            <path d="M 730.1136363636364 -515.0 L 742.6136363636364 -515.0 L 736.3636363636364 -525.0 Z"/>
                          </g>
                        </g>
                      </g>
                    </g>
                  </g>
                </g>
              </g>
            </g>
          </g>
        </g>
      </g>
      <g style="clip-path:url(#clip13);">
        <path d="M 343.6363636363636 -512.5882948369067 L 387.27272727272725 -475.258668114103 L 430.9090909090909 -492.07176545663924 L 474.5454545454545 -476.649673960083 L 518.1818181818182 -497.53412600030805 L 561.8181818181818 -488.8233956562241 L 605.4545454545455 -481.39716723023776 L 649.090909090909 -475.86057667622663 L 692.7272727272727 -508.4443238247526 L 736.3636363636364 -501.9362883527832" style="stroke:rgb(126,126,126);stroke-width:0.4;stroke-dasharray:1.5,1.5;"/>
      </g>
      <g style="clip-path:url(#clip14);">
        <g style="fill:rgb(0,0,0);clip-path:url(#clip15);">
          <path d="M 337.3863636363636 -507.58829483690664 L 337.3863636363636 -517.5882948369067 L 349.8863636363636 -517.5882948369067 L 349.8863636363636 -507.58829483690664 Z" style="stroke:none;"/>
        </g>
        <g>
          <path d="M 343.6363636363636 -507.58829483690664 L 337.3863636363636 -517.5882948369067 L 349.8863636363636 -517.5882948369067 Z"/>
          <g style="fill:rgb(0,0,0);clip-path:url(#clip16);">
            <path d="M 381.02272727272725 -470.258668114103 L 381.02272727272725 -480.258668114103 L 393.52272727272725 -480.258668114103 L 393.52272727272725 -470.258668114103 Z" style="stroke:none;"/>
          </g>
          <g>
            <path d="M 387.27272727272725 -470.258668114103 L 381.02272727272725 -480.258668114103 L 393.52272727272725 -480.258668114103 Z"/>
            <g style="fill:rgb(0,0,0);clip-path:url(#clip17);">
              <path d="M 424.6590909090909 -487.07176545663924 L 424.6590909090909 -497.07176545663924 L 437.1590909090909 -497.07176545663924 L 437.1590909090909 -487.07176545663924 Z" style="stroke:none;"/>
            </g>
            <g>
              <path d="M 430.9090909090909 -487.07176545663924 L 424.6590909090909 -497.07176545663924 L 437.1590909090909 -497.07176545663924 Z"/>
              <g style="fill:rgb(0,0,0);clip-path:url(#clip18);">
                <path d="M 468.2954545454545 -471.649673960083 L 468.2954545454545 -481.649673960083 L 480.7954545454545 -481.649673960083 L 480.7954545454545 -471.649673960083 Z" style="stroke:none;"/>
              </g>
              <g>
                <path d="M 474.5454545454545 -471.649673960083 L 468.2954545454545 -481.649673960083 L 480.7954545454545 -481.649673960083 Z"/>
                <g style="fill:rgb(0,0,0);clip-path:url(#clip19);">
                  <path d="M 511.9318181818182 -492.53412600030805 L 511.9318181818182 -502.53412600030805 L 524.4318181818182 -502.53412600030805 L 524.4318181818182 -492.53412600030805 Z" style="stroke:none;"/>
                </g>
                <g>
                  <path d="M 518.1818181818182 -492.53412600030805 L 511.9318181818182 -502.53412600030805 L 524.4318181818182 -502.53412600030805 Z"/>
                  <g style="fill:rgb(0,0,0);clip-path:url(#clip20);">
                    <path d="M 555.5681818181818 -483.8233956562241 L 555.5681818181818 -493.8233956562241 L 568.0681818181818 -493.8233956562241 L 568.0681818181818 -483.8233956562241 Z" style="stroke:none;"/>
                  </g>
                  <g>
                    <path d="M 561.8181818181818 -483.8233956562241 L 555.5681818181818 -493.8233956562241 L 568.0681818181818 -493.8233956562241 Z"/>
                    <g style="fill:rgb(0,0,0);clip-path:url(#clip21);">
                      <path d="M 599.2045454545455 -476.39716723023776 L 599.2045454545455 -486.39716723023776 L 611.7045454545455 -486.39716723023776 L 611.7045454545455 -476.39716723023776 Z" style="stroke:none;"/>
                    </g>
                    <g>
                      <path d="M 605.4545454545455 -476.39716723023776 L 599.2045454545455 -486.39716723023776 L 611.7045454545455 -486.39716723023776 Z"/>
                      <g style="fill:rgb(0,0,0);clip-path:url(#clip22);">
                        <path d="M 642.840909090909 -470.86057667622663 L 642.840909090909 -480.86057667622663 L 655.340909090909 -480.86057667622663 L 655.340909090909 -470.86057667622663 Z" style="stroke:none;"/>
                      </g>
                      <g>
                        <path d="M 649.090909090909 -470.86057667622663 L 642.840909090909 -480.86057667622663 L 655.340909090909 -480.86057667622663 Z"/>
                        <g style="fill:rgb(0,0,0);clip-path:url(#clip23);">
                          <path d="M 686.4772727272727 -503.4443238247526 L 686.4772727272727 -513.4443238247526 L 698.9772727272727 -513.4443238247526 L 698.9772727272727 -503.4443238247526 Z" style="stroke:none;"/>
                        </g>
                        <g>
                          <path d="M 692.7272727272727 -503.4443238247526 L 686.4772727272727 -513.4443238247526 L 698.9772727272727 -513.4443238247526 Z"/>
                          <g style="fill:rgb(0,0,0);clip-path:url(#clip24);">
                            <path d="M 730.1136363636364 -496.9362883527832 L 730.1136363636364 -506.9362883527832 L 742.6136363636364 -506.9362883527832 L 742.6136363636364 -496.9362883527832 Z" style="stroke:none;"/>
                          </g>
                          <g>
                            <path d="M 736.3636363636364 -496.9362883527832 L 730.1136363636364 -506.9362883527832 L 742.6136363636364 -506.9362883527832 Z"/>
                          </g>
                        </g>
                      </g>
                    </g>
                  </g>
                </g>
              </g>
            </g>
          </g>
        </g>
      </g>
      <g style="clip-path:url(#clip25);">
        <path d="M 343.6363636363636 -506.4207491949858 L 387.27272727272725 -466.90456455883754 L 430.9090909090909 -480.3369690390441 L 474.5454545454545 -465.3086193364776 L 518.1818181818182 -488.0762544651698 L 561.8181818181818 -478.3004848422612 L 605.4545454545455 -470.98882882354235 L 649.090909090909 -467.0433424042601 L 692.7272727272727 -498.1215112995386 L 736.3636363636364 -491.9749437040188" style="stroke:rgb(0,138,0);stroke-width:2;"/>
      </g>
      <g style="clip-path:url(#clip26);">
        <g style="fill:rgb(255,255,255);clip-path:url(#clip27);">
          <path d="M 337.3863636363636 -501.4207491949858 L 337.3863636363636 -511.4207491949858 L 349.8863636363636 -511.4207491949858 L 349.8863636363636 -501.4207491949858 Z" style="stroke:none;"/>
        </g>
        <g>
          <path d="M 343.6363636363636 -501.4207491949858 L 337.3863636363636 -511.4207491949858 L 349.8863636363636 -511.4207491949858 Z"/>
          <g style="fill:rgb(255,255,255);clip-path:url(#clip28);">
            <path d="M 381.02272727272725 -461.90456455883754 L 381.02272727272725 -471.90456455883754 L 393.52272727272725 -471.90456455883754 L 393.52272727272725 -461.90456455883754 Z" style="stroke:none;"/>
          </g>
          <g>
            <path d="M 387.27272727272725 -461.90456455883754 L 381.02272727272725 -471.90456455883754 L 393.52272727272725 -471.90456455883754 Z"/>
            <g style="fill:rgb(255,255,255);clip-path:url(#clip29);">
              <path d="M 424.6590909090909 -475.3369690390441 L 424.6590909090909 -485.3369690390441 L 437.1590909090909 -485.3369690390441 L 437.1590909090909 -475.3369690390441 Z" style="stroke:none;"/>
            </g>
            <g>
              <path d="M 430.9090909090909 -475.3369690390441 L 424.6590909090909 -485.3369690390441 L 437.1590909090909 -485.3369690390441 Z"/>
              <g style="fill:rgb(255,255,255);clip-path:url(#clip30);">
                <path d="M 468.2954545454545 -460.3086193364776 L 468.2954545454545 -470.3086193364776 L 480.7954545454545 -470.3086193364776 L 480.7954545454545 -460.3086193364776 Z" style="stroke:none;"/>
              </g>
              <g>
                <path d="M 474.5454545454545 -460.3086193364776 L 468.2954545454545 -470.3086193364776 L 480.7954545454545 -470.3086193364776 Z"/>
                <g style="fill:rgb(255,255,255);clip-path:url(#clip31);">
                  <path d="M 511.9318181818182 -483.0762544651698 L 511.9318181818182 -493.0762544651698 L 524.4318181818182 -493.0762544651698 L 524.4318181818182 -483.0762544651698 Z" style="stroke:none;"/>
                </g>
                <g>
                  <path d="M 518.1818181818182 -483.0762544651698 L 511.9318181818182 -493.0762544651698 L 524.4318181818182 -493.0762544651698 Z"/>
                  <g style="fill:rgb(255,255,255);clip-path:url(#clip32);">
                    <path d="M 555.5681818181818 -473.3004848422612 L 555.5681818181818 -483.3004848422612 L 568.0681818181818 -483.3004848422612 L 568.0681818181818 -473.3004848422612 Z" style="stroke:none;"/>
                  </g>
                  <g>
                    <path d="M 561.8181818181818 -473.3004848422612 L 555.5681818181818 -483.3004848422612 L 568.0681818181818 -483.3004848422612 Z"/>
                    <g style="fill:rgb(255,255,255);clip-path:url(#clip33);">
                      <path d="M 599.2045454545455 -465.98882882354235 L 599.2045454545455 -475.98882882354235 L 611.7045454545455 -475.98882882354235 L 611.7045454545455 -465.98882882354235 Z" style="stroke:none;"/>
                    </g>
                    <g>
                      <path d="M 605.4545454545455 -465.98882882354235 L 599.2045454545455 -475.98882882354235 L 611.7045454545455 -475.98882882354235 Z"/>
                      <g style="fill:rgb(255,255,255);clip-path:url(#clip34);">
                        <path d="M 642.840909090909 -462.0433424042601 L 642.840909090909 -472.0433424042601 L 655.340909090909 -472.0433424042601 L 655.340909090909 -462.0433424042601 Z" style="stroke:none;"/>
                      </g>
                      <g>
                        <path d="M 649.090909090909 -462.0433424042601 L 642.840909090909 -472.0433424042601 L 655.340909090909 -472.0433424042601 Z"/>
                        <g style="fill:rgb(255,255,255);clip-path:url(#clip35);">
                          <path d="M 686.4772727272727 -493.1215112995386 L 686.4772727272727 -503.1215112995386 L 698.9772727272727 -503.1215112995386 L 698.9772727272727 -493.1215112995386 Z" style="stroke:none;"/>
                        </g>
                        <g>
                          <path d="M 692.7272727272727 -493.1215112995386 L 686.4772727272727 -503.1215112995386 L 698.9772727272727 -503.1215112995386 Z"/>
                          <g style="fill:rgb(255,255,255);clip-path:url(#clip36);">
                            <path d="M 730.1136363636364 -486.9749437040188 L 730.1136363636364 -496.9749437040188 L 742.6136363636364 -496.9749437040188 L 742.6136363636364 -486.9749437040188 Z" style="stroke:none;"/>
                          </g>
                          <g>
                            <path d="M 736.3636363636364 -486.9749437040188 L 730.1136363636364 -496.9749437040188 L 742.6136363636364 -496.9749437040188 Z"/>
                          </g>
                        </g>
                      </g>
                    </g>
                  </g>
                </g>
              </g>
            </g>
          </g>
        </g>
      </g>
      <g style="clip-path:url(#clip37);">
        <path d="M 343.6363636363636 -471.5487812928638 L 387.27272727272725 -466.39140926994935 L 430.9090909090909 -482.4492969420463 L 474.5454545454545 -463.4948251707217 L 518.1818181818182 -455.0861786948134 L 561.8181818181818 -479.44459521905924 L 605.4545454545455 -472.74775732948 L 649.090909090909 -467.0433424042601 L 692.7272727272727 -464.4243139958777 L 736.3636363636364 -465.41835065611406" style="stroke:rgb(0,0,128);stroke-width:2;"/>
      </g>
      <g style="clip-path:url(#clip38);">
        <path d="M 338.6363636363636 -466.5487812928638 L 348.6363636363636 -476.5487812928638" style="stroke-width:0.7;"/>
        <path d="M 348.6363636363636 -466.5487812928638 L 338.6363636363636 -476.5487812928638" style="stroke-width:0.7;"/>
        <path d="M 382.27272727272725 -461.39140926994935 L 392.27272727272725 -471.39140926994935" style="stroke-width:0.7;"/>
        <path d="M 392.27272727272725 -461.39140926994935 L 382.27272727272725 -471.39140926994935" style="stroke-width:0.7;"/>
        <path d="M 425.9090909090909 -477.4492969420463 L 435.9090909090909 -487.4492969420463" style="stroke-width:0.7;"/>
        <path d="M 435.9090909090909 -477.4492969420463 L 425.9090909090909 -487.4492969420463" style="stroke-width:0.7;"/>
        <path d="M 469.5454545454545 -458.4948251707217 L 479.5454545454545 -468.4948251707217" style="stroke-width:0.7;"/>
        <path d="M 479.5454545454545 -458.4948251707217 L 469.5454545454545 -468.4948251707217" style="stroke-width:0.7;"/>
        <path d="M 513.1818181818182 -450.0861786948134 L 523.1818181818182 -460.0861786948134" style="stroke-width:0.7;"/>
        <path d="M 523.1818181818182 -450.0861786948134 L 513.1818181818182 -460.0861786948134" style="stroke-width:0.7;"/>
        <path d="M 556.8181818181818 -474.44459521905924 L 566.8181818181818 -484.44459521905924" style="stroke-width:0.7;"/>
        <path d="M 566.8181818181818 -474.44459521905924 L 556.8181818181818 -484.44459521905924" style="stroke-width:0.7;"/>
        <path d="M 600.4545454545455 -467.74775732948 L 610.4545454545455 -477.74775732948" style="stroke-width:0.7;"/>
        <path d="M 610.4545454545455 -467.74775732948 L 600.4545454545455 -477.74775732948" style="stroke-width:0.7;"/>
        <path d="M 644.090909090909 -462.0433424042601 L 654.090909090909 -472.0433424042601" style="stroke-width:0.7;"/>
        <path d="M 654.090909090909 -462.0433424042601 L 644.090909090909 -472.0433424042601" style="stroke-width:0.7;"/>
        <path d="M 687.7272727272727 -459.4243139958777 L 697.7272727272727 -469.4243139958777" style="stroke-width:0.7;"/>
        <path d="M 697.7272727272727 -459.4243139958777 L 687.7272727272727 -469.4243139958777" style="stroke-width:0.7;"/>
        <path d="M 731.3636363636364 -460.41835065611406 L 741.3636363636364 -470.41835065611406" style="stroke-width:0.7;"/>
        <path d="M 741.3636363636364 -460.41835065611406 L 731.3636363636364 -470.41835065611406" style="stroke-width:0.7;"/>
      </g>
      <g style="clip-path:url(#clip39);">
        <path d="M 343.6363636363636 -457.8959459558581 L 387.27272727272725 -450.4056538035545 L 430.9090909090909 -460.48286181628805 L 474.5454545454545 -448.2397511974357 L 518.1818181818182 -441.7717353832161 L 561.8181818181818 -462.2232328196401 L 605.4545454545455 -454.531067313123 L 649.090909090909 -450.5420111051616 L 692.7272727272727 -448.90685307299043 L 736.3636363636364 -445.7194809767261" style="stroke:rgb(0,0,128);stroke-width:2;"/>
      </g>
      <g style="clip-path:url(#clip40);">
        <g style="fill:rgb(255,255,255);clip-path:url(#clip41);">
          <path d="M 336.4935064935065 -450.75308881300094 L 336.4935064935065 -465.0388030987152 L 350.7792207792208 -465.0388030987152 L 350.7792207792208 -450.75308881300094 Z" style="stroke:none;"/>
        </g>
        <g>
          <path d="M 336.4935064935065 -457.8959459558581 L 343.6363636363636 -465.0388030987152 L 350.7792207792208 -457.8959459558581 L 343.6363636363636 -450.75308881300094 Z"/>
          <g style="fill:rgb(255,255,255);clip-path:url(#clip42);">
            <path d="M 380.12987012987014 -443.2627966606974 L 380.12987012987014 -457.5485109464117 L 394.4155844155844 -457.5485109464117 L 394.4155844155844 -443.2627966606974 Z" style="stroke:none;"/>
          </g>
          <g>
            <path d="M 380.12987012987014 -450.4056538035545 L 387.27272727272725 -457.5485109464117 L 394.4155844155844 -450.4056538035545 L 387.27272727272725 -443.2627966606974 Z"/>
            <g style="fill:rgb(255,255,255);clip-path:url(#clip43);">
              <path d="M 423.76623376623377 -453.34000467343094 L 423.76623376623377 -467.62571895914516 L 438.05194805194805 -467.62571895914516 L 438.05194805194805 -453.34000467343094 Z" style="stroke:none;"/>
            </g>
            <g>
              <path d="M 423.76623376623377 -460.48286181628805 L 430.9090909090909 -467.62571895914516 L 438.05194805194805 -460.48286181628805 L 430.9090909090909 -453.34000467343094 Z"/>
              <g style="fill:rgb(255,255,255);clip-path:url(#clip44);">
                <path d="M 467.4025974025974 -441.09689405457857 L 467.4025974025974 -455.3826083402928 L 481.68831168831167 -455.3826083402928 L 481.68831168831167 -441.09689405457857 Z" style="stroke:none;"/>
              </g>
              <g>
                <path d="M 467.4025974025974 -448.2397511974357 L 474.5454545454545 -455.3826083402928 L 481.68831168831167 -448.2397511974357 L 474.5454545454545 -441.09689405457857 Z"/>
                <g style="fill:rgb(255,255,255);clip-path:url(#clip45);">
                  <path d="M 511.038961038961 -434.628878240359 L 511.038961038961 -448.9145925260732 L 525.3246753246754 -448.9145925260732 L 525.3246753246754 -434.628878240359 Z" style="stroke:none;"/>
                </g>
                <g>
                  <path d="M 511.038961038961 -441.7717353832161 L 518.1818181818182 -448.9145925260732 L 525.3246753246754 -441.7717353832161 L 518.1818181818182 -434.628878240359 Z"/>
                  <g style="fill:rgb(255,255,255);clip-path:url(#clip46);">
                    <path d="M 554.6753246753246 -455.080375676783 L 554.6753246753246 -469.36608996249726 L 568.961038961039 -469.36608996249726 L 568.961038961039 -455.080375676783 Z" style="stroke:none;"/>
                  </g>
                  <g>
                    <path d="M 554.6753246753246 -462.2232328196401 L 561.8181818181818 -469.36608996249726 L 568.961038961039 -462.2232328196401 L 561.8181818181818 -455.080375676783 Z"/>
                    <g style="fill:rgb(255,255,255);clip-path:url(#clip47);">
                      <path d="M 598.3116883116883 -447.3882101702659 L 598.3116883116883 -461.6739244559801 L 612.5974025974026 -461.6739244559801 L 612.5974025974026 -447.3882101702659 Z" style="stroke:none;"/>
                    </g>
                    <g>
                      <path d="M 598.3116883116883 -454.531067313123 L 605.4545454545455 -461.6739244559801 L 612.5974025974026 -454.531067313123 L 605.4545454545455 -447.3882101702659 Z"/>
                      <g style="fill:rgb(255,255,255);clip-path:url(#clip48);">
                        <path d="M 641.9480519480519 -443.39915396230447 L 641.9480519480519 -457.68486824801874 L 656.2337662337662 -457.68486824801874 L 656.2337662337662 -443.39915396230447 Z" style="stroke:none;"/>
                      </g>
                      <g>
                        <path d="M 641.9480519480519 -450.5420111051616 L 649.090909090909 -457.68486824801874 L 656.2337662337662 -450.5420111051616 L 649.090909090909 -443.39915396230447 Z"/>
                        <g style="fill:rgb(255,255,255);clip-path:url(#clip49);">
                          <path d="M 685.5844155844156 -441.76399593013326 L 685.5844155844156 -456.04971021584754 L 699.8701298701299 -456.04971021584754 L 699.8701298701299 -441.76399593013326 Z" style="stroke:none;"/>
                        </g>
                        <g>
                          <path d="M 685.5844155844156 -448.90685307299043 L 692.7272727272727 -456.04971021584754 L 699.8701298701299 -448.90685307299043 L 692.7272727272727 -441.76399593013326 Z"/>
                          <g style="fill:rgb(255,255,255);clip-path:url(#clip50);">
                            <path d="M 729.2207792207791 -438.57662383386895 L 729.2207792207791 -452.8623381195832 L 743.5064935064936 -452.8623381195832 L 743.5064935064936 -438.57662383386895 Z" style="stroke:none;"/>
                          </g>
                          <g>
                            <path d="M 729.2207792207791 -445.7194809767261 L 736.3636363636364 -452.8623381195832 L 743.5064935064936 -445.7194809767261 L 736.3636363636364 -438.57662383386895 Z"/>
                          </g>
                        </g>
                      </g>
                    </g>
                  </g>
                </g>
              </g>
            </g>
          </g>
        </g>
      </g>
    </g>
    <g style="fill:rgb(255,255,255);clip-path:url(#clip51);">
      <path d="M 290 -34 L 290 -136 L 708.4 -136 L 708.4 -34 Z" style="stroke:none;"/>
    </g>
    <path d="M 300 -125.33333333333334 L 316 -125.33333333333334" style="stroke:rgb(0,138,0);stroke-width:2;"/>
    <g style="fill:rgb(255,255,255);clip-path:url(#clip52);">
      <path d="M 301.75 -120.33333333333334 L 301.75 -130.33333333333334 L 314.25 -130.33333333333334 L 314.25 -120.33333333333334 Z" style="stroke:none;"/>
    </g>
    <g>
      <path d="M 301.75 -120.33333333333334 L 314.25 -120.33333333333334 L 308.0 -130.33333333333334 Z"/>
      <text style="font-size:16;stroke:none;fill:rgb(0,0,0);" x="316.0" y="-120.0">
        cc_hash_mod_prime_nea_lc_1div8_1div2_nsth_map
      </text>
      <path d="M 300 -105.33333333333334 L 316 -105.33333333333334" style="stroke:rgb(126,126,126);stroke-width:0.4;stroke-dasharray:1.5,1.5;"/>
      <g style="fill:rgb(0,0,0);clip-path:url(#clip53);">
        <path d="M 301.75 -100.33333333333334 L 301.75 -110.33333333333334 L 314.25 -110.33333333333334 L 314.25 -100.33333333333334 Z" style="stroke:none;"/>
      </g>
      <g>
        <path d="M 308.0 -100.33333333333334 L 301.75 -110.33333333333334 L 314.25 -110.33333333333334 Z"/>
        <text style="font-size:16;stroke:none;fill:rgb(0,0,0);" x="316.0" y="-100.0">
          n_hash_map_ncah
        </text>
        <path d="M 300 -85.33333333333334 L 316 -85.33333333333334" style="stroke:rgb(0,138,0);stroke-width:2;"/>
        <g style="fill:rgb(255,255,255);clip-path:url(#clip54);">
          <path d="M 301.75 -80.33333333333334 L 301.75 -90.33333333333334 L 314.25 -90.33333333333334 L 314.25 -80.33333333333334 Z" style="stroke:none;"/>
        </g>
        <g>
          <path d="M 308.0 -80.33333333333334 L 301.75 -90.33333333333334 L 314.25 -90.33333333333334 Z"/>
          <text style="font-size:16;stroke:none;fill:rgb(0,0,0);" x="316.0" y="-80.0">
            cc_hash_mod_prime_nea_lc_1div8_1div1_nsth_map
          </text>
          <path d="M 300 -65.33333333333334 L 316 -65.33333333333334" style="stroke:rgb(0,0,128);stroke-width:2;"/>
          <path d="M 303.0 -60.33333333333334 L 313.0 -70.33333333333334" style="stroke-width:0.7;"/>
          <path d="M 313.0 -60.33333333333334 L 303.0 -70.33333333333334" style="stroke-width:0.7;"/>
          <text style="font-size:16;stroke:none;fill:rgb(0,0,0);" x="316.0" y="-60.0">
            cc_hash_mask_exp_nea_lc_1div8_1div2_nsth_map
          </text>
          <path d="M 300 -45.33333333333334 L 316 -45.33333333333334" style="stroke:rgb(0,0,128);stroke-width:2;"/>
          <g style="fill:rgb(255,255,255);clip-path:url(#clip55);">
            <path d="M 300.85714285714283 -38.190476190476204 L 300.85714285714283 -52.47619047619048 L 315.14285714285717 -52.47619047619048 L 315.14285714285717 -38.190476190476204 Z" style="stroke:none;"/>
          </g>
          <g>
            <path d="M 300.85714285714283 -45.33333333333334 L 308.0 -52.47619047619048 L 315.14285714285717 -45.33333333333334 L 308.0 -38.190476190476204 Z"/>
            <text style="font-size:16;stroke:none;fill:rgb(0,0,0);" x="316.0" y="-40.0">
              cc_hash_mask_exp_nea_lc_1div8_1div1_nsth_map
            </text>
          </g>
        </g>
      </g>
    </g>
  </g>
</svg>
