<?xml version="1.0" ?>
<!--Created by PyChart 1.39 Copyright 1999-2006 Yasushi Saito-->
<svg viewBox="178 -544 620 496" xmlns="http://www.w3.org/2000/svg" xmlns:xlink="http://www.w3.org/1999/xlink">
  <defs>
    <clipPath id="clip0">
      <path d="M 294 -294 L 294 -526 L 786 -526 L 786 -294 Z"/>
    </clipPath>
    <clipPath id="clip1">
      <path d="M 294 -294 L 294 -526 L 786 -526 L 786 -294 Z"/>
    </clipPath>
    <clipPath id="clip2">
      <path d="M 280 -280 L 280 -540 L 800 -540 L 800 -280 Z"/>
    </clipPath>
    <clipPath id="clip3">
      <path d="M 337.3863636363636 -452.03574684817806 L 349.8863636363636 -452.03574684817806 L 343.6363636363636 -462.03574684817806 Z"/>
    </clipPath>
    <clipPath id="clip4">
      <path d="M 381.02272727272725 -449.9524318546232 L 393.52272727272725 -449.9524318546232 L 387.27272727272725 -459.9524318546232 Z"/>
    </clipPath>
    <clipPath id="clip5">
      <path d="M 424.6590909090909 -459.34118275851233 L 437.1590909090909 -459.34118275851233 L 430.9090909090909 -469.34118275851233 Z"/>
    </clipPath>
    <clipPath id="clip6">
      <path d="M 468.2954545454545 -447.48454742666706 L 480.7954545454545 -447.48454742666706 L 474.5454545454545 -457.48454742666706 Z"/>
    </clipPath>
    <clipPath id="clip7">
      <path d="M 511.9318181818182 -475.0545791806835 L 524.4318181818182 -475.0545791806835 L 518.1818181818182 -485.0545791806835 Z"/>
    </clipPath>
    <clipPath id="clip8">
      <path d="M 555.5681818181818 -465.7834124563775 L 568.0681818181818 -465.7834124563775 L 561.8181818181818 -475.7834124563775 Z"/>
    </clipPath>
    <clipPath id="clip9">
      <path d="M 599.2045454545455 -453.56710786933695 L 611.7045454545455 -453.56710786933695 L 605.4545454545455 -463.56710786933695 Z"/>
    </clipPath>
    <clipPath id="clip10">
      <path d="M 642.840909090909 -448.87619077561544 L 655.340909090909 -448.87619077561544 L 649.090909090909 -458.87619077561544 Z"/>
    </clipPath>
    <clipPath id="clip11">
      <path d="M 686.4772727272727 -483.41273933410884 L 698.9772727272727 -483.41273933410884 L 692.7272727272727 -493.41273933410884 Z"/>
    </clipPath>
    <clipPath id="clip12">
      <path d="M 730.1136363636364 -483.59534064828495 L 742.6136363636364 -483.59534064828495 L 736.3636363636364 -493.59534064828495 Z"/>
    </clipPath>
    <clipPath id="clip13">
      <path d="M 294 -294 L 294 -526 L 786 -526 L 786 -294 Z"/>
    </clipPath>
    <clipPath id="clip14">
      <path d="M 280 -280 L 280 -540 L 800 -540 L 800 -280 Z"/>
    </clipPath>
    <clipPath id="clip15">
      <path d="M 337.3863636363636 -407.2468261703399 L 349.8863636363636 -407.2468261703399 L 343.6363636363636 -417.2468261703399 Z"/>
    </clipPath>
    <clipPath id="clip16">
      <path d="M 381.02272727272725 -412.45746533781875 L 393.52272727272725 -412.45746533781875 L 387.27272727272725 -422.45746533781875 Z"/>
    </clipPath>
    <clipPath id="clip17">
      <path d="M 424.6590909090909 -435.8506303643852 L 437.1590909090909 -435.8506303643852 L 430.9090909090909 -445.8506303643852 Z"/>
    </clipPath>
    <clipPath id="clip18">
      <path d="M 468.2954545454545 -417.1124155060207 L 480.7954545454545 -417.1124155060207 L 474.5454545454545 -427.1124155060207 Z"/>
    </clipPath>
    <clipPath id="clip19">
      <path d="M 511.9318181818182 -482.1815638067093 L 524.4318181818182 -482.1815638067093 L 518.1818181818182 -492.1815638067093 Z"/>
    </clipPath>
    <clipPath id="clip20">
      <path d="M 555.5681818181818 -462.07051906812967 L 568.0681818181818 -462.07051906812967 L 561.8181818181818 -472.07051906812967 Z"/>
    </clipPath>
    <clipPath id="clip21">
      <path d="M 599.2045454545455 -447.84006665199485 L 611.7045454545455 -447.84006665199485 L 605.4545454545455 -457.84006665199485 Z"/>
    </clipPath>
    <clipPath id="clip22">
      <path d="M 642.840909090909 -437.40274153488224 L 655.340909090909 -437.40274153488224 L 649.090909090909 -447.40274153488224 Z"/>
    </clipPath>
    <clipPath id="clip23">
      <path d="M 686.4772727272727 -515.0 L 698.9772727272727 -515.0 L 692.7272727272727 -525.0 Z"/>
    </clipPath>
    <clipPath id="clip24">
      <path d="M 730.1136363636364 -498.1162951551545 L 742.6136363636364 -498.1162951551545 L 736.3636363636364 -508.1162951551545 Z"/>
    </clipPath>
    <clipPath id="clip25">
      <path d="M 294 -294 L 294 -526 L 786 -526 L 786 -294 Z"/>
    </clipPath>
    <clipPath id="clip26">
      <path d="M 280 -280 L 280 -540 L 800 -540 L 800 -280 Z"/>
    </clipPath>
    <clipPath id="clip27">
      <path d="M 294 -294 L 294 -526 L 786 -526 L 786 -294 Z"/>
    </clipPath>
    <clipPath id="clip28">
      <path d="M 280 -280 L 280 -540 L 800 -540 L 800 -280 Z"/>
    </clipPath>
    <clipPath id="clip29">
      <path d="M 290 -54 L 290 -136 L 763.568 -136 L 763.568 -54 Z"/>
    </clipPath>
    <clipPath id="clip30">
      <path d="M 301.75 -120.33333333333334 L 314.25 -120.33333333333334 L 308.0 -130.33333333333334 Z"/>
    </clipPath>
    <clipPath id="clip31">
      <path d="M 301.75 -100.33333333333334 L 314.25 -100.33333333333334 L 308.0 -110.33333333333334 Z"/>
    </clipPath>
  </defs>
  <g style="stroke-linejoin:miter;font-size:8;font-family:Helvetica;fill:none;stroke-linecap:butt;stroke:rgb(0,0,0);font-stretch:normal;stroke-dasharray:none;font-weight:normal;font-style:normal;stroke-width:0.5;">
    <path d="M 300 -300 L 780 -300"/>
    <path d="M 300 -300 L 780 -300"/>
    <path d="M 300.0 -300 L 300.0 -288"/>
    <text style="font-size:12;font-style:italic;stroke:none;fill:rgb(0,0,0);" transform="rotate(90,300,-288)" x="300.0" y="-288.0">
      0
    </text>
    <path d="M 343.6363636363636 -300 L 343.6363636363636 -288"/>
    <text style="font-size:12;font-style:italic;stroke:none;fill:rgb(0,0,0);" transform="rotate(90,343.636,-288)" x="343.6363636363636" y="-288.0">
      200
    </text>
    <path d="M 387.27272727272725 -300 L 387.27272727272725 -288"/>
    <text style="font-size:12;font-style:italic;stroke:none;fill:rgb(0,0,0);" transform="rotate(90,387.273,-288)" x="387.27272727272725" y="-288.0">
      400
    </text>
    <path d="M 430.9090909090909 -300 L 430.9090909090909 -288"/>
    <text style="font-size:12;font-style:italic;stroke:none;fill:rgb(0,0,0);" transform="rotate(90,430.909,-288)" x="430.9090909090909" y="-288.0">
      600
    </text>
    <path d="M 474.5454545454545 -300 L 474.5454545454545 -288"/>
    <text style="font-size:12;font-style:italic;stroke:none;fill:rgb(0,0,0);" transform="rotate(90,474.545,-288)" x="474.5454545454545" y="-288.0">
      800
    </text>
    <path d="M 518.1818181818182 -300 L 518.1818181818182 -288"/>
    <text style="font-size:12;font-style:italic;stroke:none;fill:rgb(0,0,0);" transform="rotate(90,518.182,-288)" x="518.1818181818182" y="-288.0">
      1000
    </text>
    <path d="M 561.8181818181818 -300 L 561.8181818181818 -288"/>
    <text style="font-size:12;font-style:italic;stroke:none;fill:rgb(0,0,0);" transform="rotate(90,561.818,-288)" x="561.8181818181818" y="-288.0">
      1200
    </text>
    <path d="M 605.4545454545455 -300 L 605.4545454545455 -288"/>
    <text style="font-size:12;font-style:italic;stroke:none;fill:rgb(0,0,0);" transform="rotate(90,605.455,-288)" x="605.4545454545455" y="-288.0">
      1400
    </text>
    <path d="M 649.090909090909 -300 L 649.090909090909 -288"/>
    <text style="font-size:12;font-style:italic;stroke:none;fill:rgb(0,0,0);" transform="rotate(90,649.091,-288)" x="649.090909090909" y="-288.0">
      1600
    </text>
    <path d="M 692.7272727272727 -300 L 692.7272727272727 -288"/>
    <text style="font-size:12;font-style:italic;stroke:none;fill:rgb(0,0,0);" transform="rotate(90,692.727,-288)" x="692.7272727272727" y="-288.0">
      1800
    </text>
    <path d="M 736.3636363636364 -300 L 736.3636363636364 -288"/>
    <text style="font-size:12;font-style:italic;stroke:none;fill:rgb(0,0,0);" transform="rotate(90,736.364,-288)" x="736.3636363636364" y="-288.0">
      2000
    </text>
    <path d="M 780.0 -300 L 780.0 -288"/>
    <text style="font-size:12;font-style:italic;stroke:none;fill:rgb(0,0,0);" transform="rotate(90,780,-288)" x="780.0" y="-288.0">
      2200
    </text>
    <text style="font-size:16;stroke:none;fill:rgb(0,0,0);" x="524.44" y="-220.0">
      Size
    </text>
    <path d="M 300 -300 L 300 -520"/>
    <path d="M 300 -300.0 L 288 -300.0"/>
    <text style="font-size:12;font-style:italic;stroke:none;fill:rgb(0,0,0);" x="238.0" y="-294.0">
      0.00e+00
    </text>
    <path d="M 300 -344.0 L 288 -344.0"/>
    <text style="font-size:12;font-style:italic;stroke:none;fill:rgb(0,0,0);" x="238.0" y="-338.0">
      3.18e-08
    </text>
    <path d="M 300 -388.0 L 288 -388.0"/>
    <text style="font-size:12;font-style:italic;stroke:none;fill:rgb(0,0,0);" x="238.0" y="-382.0">
      6.36e-08
    </text>
    <path d="M 300 -432.0 L 288 -432.0"/>
    <text style="font-size:12;font-style:italic;stroke:none;fill:rgb(0,0,0);" x="238.0" y="-426.0">
      9.54e-08
    </text>
    <path d="M 300 -476.0 L 288 -476.0"/>
    <text style="font-size:12;font-style:italic;stroke:none;fill:rgb(0,0,0);" x="238.0" y="-470.0">
      1.27e-07
    </text>
    <path d="M 300 -520.0 L 288 -520.0"/>
    <text style="font-size:12;font-style:italic;stroke:none;fill:rgb(0,0,0);" x="238.0" y="-514.0">
      1.59e-07
    </text>
    <text style="font-size:16;stroke:none;fill:rgb(0,0,0);" transform="rotate(-90,200,-340.648)" x="200.0" y="-340.648">
      Average time (sec.)
    </text>
    <g style="clip-path:url(#clip0);">
      <g style="clip-path:url(#clip1);">
        <path d="M 343.6363636363636 -457.03574684817806 L 387.27272727272725 -454.9524318546232 L 430.9090909090909 -464.34118275851233 L 474.5454545454545 -452.48454742666706 L 518.1818181818182 -480.0545791806835 L 561.8181818181818 -470.7834124563775 L 605.4545454545455 -458.56710786933695 L 649.090909090909 -453.87619077561544 L 692.7272727272727 -488.41273933410884 L 736.3636363636364 -488.59534064828495" style="stroke:rgb(0,138,0);stroke-width:2;"/>
      </g>
      <g style="clip-path:url(#clip2);">
        <g style="fill:rgb(255,255,255);clip-path:url(#clip3);">
          <path d="M 337.3863636363636 -452.03574684817806 L 337.3863636363636 -462.03574684817806 L 349.8863636363636 -462.03574684817806 L 349.8863636363636 -452.03574684817806 Z" style="stroke:none;"/>
        </g>
        <g>
          <path d="M 337.3863636363636 -452.03574684817806 L 349.8863636363636 -452.03574684817806 L 343.6363636363636 -462.03574684817806 Z"/>
          <g style="fill:rgb(255,255,255);clip-path:url(#clip4);">
            <path d="M 381.02272727272725 -449.9524318546232 L 381.02272727272725 -459.9524318546232 L 393.52272727272725 -459.9524318546232 L 393.52272727272725 -449.9524318546232 Z" style="stroke:none;"/>
          </g>
          <g>
            <path d="M 381.02272727272725 -449.9524318546232 L 393.52272727272725 -449.9524318546232 L 387.27272727272725 -459.9524318546232 Z"/>
            <g style="fill:rgb(255,255,255);clip-path:url(#clip5);">
              <path d="M 424.6590909090909 -459.34118275851233 L 424.6590909090909 -469.34118275851233 L 437.1590909090909 -469.34118275851233 L 437.1590909090909 -459.34118275851233 Z" style="stroke:none;"/>
            </g>
            <g>
              <path d="M 424.6590909090909 -459.34118275851233 L 437.1590909090909 -459.34118275851233 L 430.9090909090909 -469.34118275851233 Z"/>
              <g style="fill:rgb(255,255,255);clip-path:url(#clip6);">
                <path d="M 468.2954545454545 -447.48454742666706 L 468.2954545454545 -457.48454742666706 L 480.7954545454545 -457.48454742666706 L 480.7954545454545 -447.48454742666706 Z" style="stroke:none;"/>
              </g>
              <g>
                <path d="M 468.2954545454545 -447.48454742666706 L 480.7954545454545 -447.48454742666706 L 474.5454545454545 -457.48454742666706 Z"/>
                <g style="fill:rgb(255,255,255);clip-path:url(#clip7);">
                  <path d="M 511.9318181818182 -475.0545791806835 L 511.9318181818182 -485.0545791806835 L 524.4318181818182 -485.0545791806835 L 524.4318181818182 -475.0545791806835 Z" style="stroke:none;"/>
                </g>
                <g>
                  <path d="M 511.9318181818182 -475.0545791806835 L 524.4318181818182 -475.0545791806835 L 518.1818181818182 -485.0545791806835 Z"/>
                  <g style="fill:rgb(255,255,255);clip-path:url(#clip8);">
                    <path d="M 555.5681818181818 -465.7834124563775 L 555.5681818181818 -475.7834124563775 L 568.0681818181818 -475.7834124563775 L 568.0681818181818 -465.7834124563775 Z" style="stroke:none;"/>
                  </g>
                  <g>
                    <path d="M 555.5681818181818 -465.7834124563775 L 568.0681818181818 -465.7834124563775 L 561.8181818181818 -475.7834124563775 Z"/>
                    <g style="fill:rgb(255,255,255);clip-path:url(#clip9);">
                      <path d="M 599.2045454545455 -453.56710786933695 L 599.2045454545455 -463.56710786933695 L 611.7045454545455 -463.56710786933695 L 611.7045454545455 -453.56710786933695 Z" style="stroke:none;"/>
                    </g>
                    <g>
                      <path d="M 599.2045454545455 -453.56710786933695 L 611.7045454545455 -453.56710786933695 L 605.4545454545455 -463.56710786933695 Z"/>
                      <g style="fill:rgb(255,255,255);clip-path:url(#clip10);">
                        <path d="M 642.840909090909 -448.87619077561544 L 642.840909090909 -458.87619077561544 L 655.340909090909 -458.87619077561544 L 655.340909090909 -448.87619077561544 Z" style="stroke:none;"/>
                      </g>
                      <g>
                        <path d="M 642.840909090909 -448.87619077561544 L 655.340909090909 -448.87619077561544 L 649.090909090909 -458.87619077561544 Z"/>
                        <g style="fill:rgb(255,255,255);clip-path:url(#clip11);">
                          <path d="M 686.4772727272727 -483.41273933410884 L 686.4772727272727 -493.41273933410884 L 698.9772727272727 -493.41273933410884 L 698.9772727272727 -483.41273933410884 Z" style="stroke:none;"/>
                        </g>
                        <g>
                          <path d="M 686.4772727272727 -483.41273933410884 L 698.9772727272727 -483.41273933410884 L 692.7272727272727 -493.41273933410884 Z"/>
                          <g style="fill:rgb(255,255,255);clip-path:url(#clip12);">
                            <path d="M 730.1136363636364 -483.59534064828495 L 730.1136363636364 -493.59534064828495 L 742.6136363636364 -493.59534064828495 L 742.6136363636364 -483.59534064828495 Z" style="stroke:none;"/>
                          </g>
                          <g>
                            <path d="M 730.1136363636364 -483.59534064828495 L 742.6136363636364 -483.59534064828495 L 736.3636363636364 -493.59534064828495 Z"/>
                          </g>
                        </g>
                      </g>
                    </g>
                  </g>
                </g>
              </g>
            </g>
          </g>
        </g>
      </g>
      <g style="clip-path:url(#clip13);">
        <path d="M 343.6363636363636 -412.2468261703399 L 387.27272727272725 -417.45746533781875 L 430.9090909090909 -440.8506303643852 L 474.5454545454545 -422.1124155060207 L 518.1818181818182 -487.1815638067093 L 561.8181818181818 -467.07051906812967 L 605.4545454545455 -452.84006665199485 L 649.090909090909 -442.40274153488224 L 692.7272727272727 -520.0 L 736.3636363636364 -503.1162951551545" style="stroke:rgb(0,138,0);stroke-width:2;"/>
      </g>
      <g style="clip-path:url(#clip14);">
        <g style="fill:rgb(255,255,255);clip-path:url(#clip15);">
          <path d="M 337.3863636363636 -407.2468261703399 L 337.3863636363636 -417.2468261703399 L 349.8863636363636 -417.2468261703399 L 349.8863636363636 -407.2468261703399 Z" style="stroke:none;"/>
        </g>
        <g>
          <path d="M 337.3863636363636 -407.2468261703399 L 349.8863636363636 -407.2468261703399 L 343.6363636363636 -417.2468261703399 Z"/>
          <g style="fill:rgb(255,255,255);clip-path:url(#clip16);">
            <path d="M 381.02272727272725 -412.45746533781875 L 381.02272727272725 -422.45746533781875 L 393.52272727272725 -422.45746533781875 L 393.52272727272725 -412.45746533781875 Z" style="stroke:none;"/>
          </g>
          <g>
            <path d="M 381.02272727272725 -412.45746533781875 L 393.52272727272725 -412.45746533781875 L 387.27272727272725 -422.45746533781875 Z"/>
            <g style="fill:rgb(255,255,255);clip-path:url(#clip17);">
              <path d="M 424.6590909090909 -435.8506303643852 L 424.6590909090909 -445.8506303643852 L 437.1590909090909 -445.8506303643852 L 437.1590909090909 -435.8506303643852 Z" style="stroke:none;"/>
            </g>
            <g>
              <path d="M 424.6590909090909 -435.8506303643852 L 437.1590909090909 -435.8506303643852 L 430.9090909090909 -445.8506303643852 Z"/>
              <g style="fill:rgb(255,255,255);clip-path:url(#clip18);">
                <path d="M 468.2954545454545 -417.1124155060207 L 468.2954545454545 -427.1124155060207 L 480.7954545454545 -427.1124155060207 L 480.7954545454545 -417.1124155060207 Z" style="stroke:none;"/>
              </g>
              <g>
                <path d="M 468.2954545454545 -417.1124155060207 L 480.7954545454545 -417.1124155060207 L 474.5454545454545 -427.1124155060207 Z"/>
                <g style="fill:rgb(255,255,255);clip-path:url(#clip19);">
                  <path d="M 511.9318181818182 -482.1815638067093 L 511.9318181818182 -492.1815638067093 L 524.4318181818182 -492.1815638067093 L 524.4318181818182 -482.1815638067093 Z" style="stroke:none;"/>
                </g>
                <g>
                  <path d="M 511.9318181818182 -482.1815638067093 L 524.4318181818182 -482.1815638067093 L 518.1818181818182 -492.1815638067093 Z"/>
                  <g style="fill:rgb(255,255,255);clip-path:url(#clip20);">
                    <path d="M 555.5681818181818 -462.07051906812967 L 555.5681818181818 -472.07051906812967 L 568.0681818181818 -472.07051906812967 L 568.0681818181818 -462.07051906812967 Z" style="stroke:none;"/>
                  </g>
                  <g>
                    <path d="M 555.5681818181818 -462.07051906812967 L 568.0681818181818 -462.07051906812967 L 561.8181818181818 -472.07051906812967 Z"/>
                    <g style="fill:rgb(255,255,255);clip-path:url(#clip21);">
                      <path d="M 599.2045454545455 -447.84006665199485 L 599.2045454545455 -457.84006665199485 L 611.7045454545455 -457.84006665199485 L 611.7045454545455 -447.84006665199485 Z" style="stroke:none;"/>
                    </g>
                    <g>
                      <path d="M 599.2045454545455 -447.84006665199485 L 611.7045454545455 -447.84006665199485 L 605.4545454545455 -457.84006665199485 Z"/>
                      <g style="fill:rgb(255,255,255);clip-path:url(#clip22);">
                        <path d="M 642.840909090909 -437.40274153488224 L 642.840909090909 -447.40274153488224 L 655.340909090909 -447.40274153488224 L 655.340909090909 -437.40274153488224 Z" style="stroke:none;"/>
                      </g>
                      <g>
                        <path d="M 642.840909090909 -437.40274153488224 L 655.340909090909 -437.40274153488224 L 649.090909090909 -447.40274153488224 Z"/>
                        <g style="fill:rgb(255,255,255);clip-path:url(#clip23);">
                          <path d="M 686.4772727272727 -515.0 L 686.4772727272727 -525.0 L 698.9772727272727 -525.0 L 698.9772727272727 -515.0 Z" style="stroke:none;"/>
                        </g>
                        <g>
                          <path d="M 686.4772727272727 -515.0 L 698.9772727272727 -515.0 L 692.7272727272727 -525.0 Z"/>
                          <g style="fill:rgb(255,255,255);clip-path:url(#clip24);">
                            <path d="M 730.1136363636364 -498.1162951551545 L 730.1136363636364 -508.1162951551545 L 742.6136363636364 -508.1162951551545 L 742.6136363636364 -498.1162951551545 Z" style="stroke:none;"/>
                          </g>
                          <g>
                            <path d="M 730.1136363636364 -498.1162951551545 L 742.6136363636364 -498.1162951551545 L 736.3636363636364 -508.1162951551545 Z"/>
                          </g>
                        </g>
                      </g>
                    </g>
                  </g>
                </g>
              </g>
            </g>
          </g>
        </g>
      </g>
      <g style="clip-path:url(#clip25);">
        <path d="M 343.6363636363636 -447.0604583896627 L 387.27272727272725 -442.6392932373377 L 430.9090909090909 -456.4049423082969 L 474.5454545454545 -440.1561920332002 L 518.1818181818182 -432.9478668217688 L 561.8181818181818 -453.8291571037822 L 605.4545454545455 -448.088282453548 L 649.090909090909 -443.19816392617975 L 692.7272727272727 -440.952997767787 L 736.3636363636364 -441.8051372339422" style="stroke:rgb(0,0,128);stroke-width:2;"/>
      </g>
      <g style="clip-path:url(#clip26);">
        <path d="M 338.6363636363636 -442.0604583896627 L 348.6363636363636 -452.0604583896627" style="stroke-width:0.7;"/>
        <path d="M 348.6363636363636 -442.0604583896627 L 338.6363636363636 -452.0604583896627" style="stroke-width:0.7;"/>
        <path d="M 382.27272727272725 -437.6392932373377 L 392.27272727272725 -447.6392932373377" style="stroke-width:0.7;"/>
        <path d="M 392.27272727272725 -437.6392932373377 L 382.27272727272725 -447.6392932373377" style="stroke-width:0.7;"/>
        <path d="M 425.9090909090909 -451.4049423082969 L 435.9090909090909 -461.4049423082969" style="stroke-width:0.7;"/>
        <path d="M 435.9090909090909 -451.4049423082969 L 425.9090909090909 -461.4049423082969" style="stroke-width:0.7;"/>
        <path d="M 469.5454545454545 -435.1561920332002 L 479.5454545454545 -445.1561920332002" style="stroke-width:0.7;"/>
        <path d="M 479.5454545454545 -435.1561920332002 L 469.5454545454545 -445.1561920332002" style="stroke-width:0.7;"/>
        <path d="M 513.1818181818182 -427.9478668217688 L 523.1818181818182 -437.9478668217688" style="stroke-width:0.7;"/>
        <path d="M 523.1818181818182 -427.9478668217688 L 513.1818181818182 -437.9478668217688" style="stroke-width:0.7;"/>
        <path d="M 556.8181818181818 -448.8291571037822 L 566.8181818181818 -458.8291571037822" style="stroke-width:0.7;"/>
        <path d="M 566.8181818181818 -448.8291571037822 L 556.8181818181818 -458.8291571037822" style="stroke-width:0.7;"/>
        <path d="M 600.4545454545455 -443.088282453548 L 610.4545454545455 -453.088282453548" style="stroke-width:0.7;"/>
        <path d="M 610.4545454545455 -443.088282453548 L 600.4545454545455 -453.088282453548" style="stroke-width:0.7;"/>
        <path d="M 644.090909090909 -438.19816392617975 L 654.090909090909 -448.19816392617975" style="stroke-width:0.7;"/>
        <path d="M 654.090909090909 -438.19816392617975 L 644.090909090909 -448.19816392617975" style="stroke-width:0.7;"/>
        <path d="M 687.7272727272727 -435.952997767787 L 697.7272727272727 -445.952997767787" style="stroke-width:0.7;"/>
        <path d="M 697.7272727272727 -435.952997767787 L 687.7272727272727 -445.952997767787" style="stroke-width:0.7;"/>
        <path d="M 731.3636363636364 -436.8051372339422 L 741.3636363636364 -446.8051372339422" style="stroke-width:0.7;"/>
        <path d="M 741.3636363636364 -436.8051372339422 L 731.3636363636364 -446.8051372339422" style="stroke-width:0.7;"/>
      </g>
      <g style="clip-path:url(#clip27);">
        <path d="M 343.6363636363636 -300.0 L 387.27272727272725 -369.8324142484359 L 430.9090909090909 -386.9352406702927 L 474.5454545454545 -371.3197849529978 L 518.1818181818182 -362.24270129216836 L 561.8181818181818 -423.17233313421576 L 605.4545454545455 -409.7272047033672 L 649.090909090909 -399.2404942308297 L 692.7272727272727 -389.52347596441035 L 736.3636363636364 -383.3339830854843" style="stroke:rgb(0,0,128);stroke-width:2;"/>
      </g>
      <g style="clip-path:url(#clip28);">
        <path d="M 338.6363636363636 -295.0 L 348.6363636363636 -305.0" style="stroke-width:0.7;"/>
        <path d="M 348.6363636363636 -295.0 L 338.6363636363636 -305.0" style="stroke-width:0.7;"/>
        <path d="M 382.27272727272725 -364.8324142484359 L 392.27272727272725 -374.8324142484359" style="stroke-width:0.7;"/>
        <path d="M 392.27272727272725 -364.8324142484359 L 382.27272727272725 -374.8324142484359" style="stroke-width:0.7;"/>
        <path d="M 425.9090909090909 -381.9352406702927 L 435.9090909090909 -391.9352406702927" style="stroke-width:0.7;"/>
        <path d="M 435.9090909090909 -381.9352406702927 L 425.9090909090909 -391.9352406702927" style="stroke-width:0.7;"/>
        <path d="M 469.5454545454545 -366.3197849529978 L 479.5454545454545 -376.3197849529978" style="stroke-width:0.7;"/>
        <path d="M 479.5454545454545 -366.3197849529978 L 469.5454545454545 -376.3197849529978" style="stroke-width:0.7;"/>
        <path d="M 513.1818181818182 -357.24270129216836 L 523.1818181818182 -367.24270129216836" style="stroke-width:0.7;"/>
        <path d="M 523.1818181818182 -357.24270129216836 L 513.1818181818182 -367.24270129216836" style="stroke-width:0.7;"/>
        <path d="M 556.8181818181818 -418.17233313421576 L 566.8181818181818 -428.17233313421576" style="stroke-width:0.7;"/>
        <path d="M 566.8181818181818 -418.17233313421576 L 556.8181818181818 -428.17233313421576" style="stroke-width:0.7;"/>
        <path d="M 600.4545454545455 -404.7272047033672 L 610.4545454545455 -414.7272047033672" style="stroke-width:0.7;"/>
        <path d="M 610.4545454545455 -404.7272047033672 L 600.4545454545455 -414.7272047033672" style="stroke-width:0.7;"/>
        <path d="M 644.090909090909 -394.2404942308297 L 654.090909090909 -404.2404942308297" style="stroke-width:0.7;"/>
        <path d="M 654.090909090909 -394.2404942308297 L 644.090909090909 -404.2404942308297" style="stroke-width:0.7;"/>
        <path d="M 687.7272727272727 -384.52347596441035 L 697.7272727272727 -394.52347596441035" style="stroke-width:0.7;"/>
        <path d="M 697.7272727272727 -384.52347596441035 L 687.7272727272727 -394.52347596441035" style="stroke-width:0.7;"/>
        <path d="M 731.3636363636364 -378.3339830854843 L 741.3636363636364 -388.3339830854843" style="stroke-width:0.7;"/>
        <path d="M 741.3636363636364 -378.3339830854843 L 731.3636363636364 -388.3339830854843" style="stroke-width:0.7;"/>
      </g>
    </g>
    <g style="fill:rgb(255,255,255);clip-path:url(#clip29);">
      <path d="M 290 -54 L 290 -136 L 763.568 -136 L 763.568 -54 Z" style="stroke:none;"/>
    </g>
    <path d="M 300 -125.33333333333334 L 316 -125.33333333333334" style="stroke:rgb(0,138,0);stroke-width:2;"/>
    <g style="fill:rgb(255,255,255);clip-path:url(#clip30);">
      <path d="M 301.75 -120.33333333333334 L 301.75 -130.33333333333334 L 314.25 -130.33333333333334 L 314.25 -120.33333333333334 Z" style="stroke:none;"/>
    </g>
    <g>
      <path d="M 301.75 -120.33333333333334 L 314.25 -120.33333333333334 L 308.0 -130.33333333333334 Z"/>
      <text style="font-size:16;stroke:none;fill:rgb(0,0,0);" x="316.0" y="-120.0">
        cc_hash_mod_prime_nea_lc_1div8_1div2_nsth_map
      </text>
      <path d="M 300 -105.33333333333334 L 316 -105.33333333333334" style="stroke:rgb(0,138,0);stroke-width:2;"/>
      <g style="fill:rgb(255,255,255);clip-path:url(#clip31);">
        <path d="M 301.75 -100.33333333333334 L 301.75 -110.33333333333334 L 314.25 -110.33333333333334 L 314.25 -100.33333333333334 Z" style="stroke:none;"/>
      </g>
      <g>
        <path d="M 301.75 -100.33333333333334 L 314.25 -100.33333333333334 L 308.0 -110.33333333333334 Z"/>
        <text style="font-size:16;stroke:none;fill:rgb(0,0,0);" x="316.0" y="-100.0">
          gp_hash_mod_quadp_prime_nea_lc_1div8_1div2_nsth_map
        </text>
        <path d="M 300 -85.33333333333334 L 316 -85.33333333333334" style="stroke:rgb(0,0,128);stroke-width:2;"/>
        <path d="M 303.0 -80.33333333333334 L 313.0 -90.33333333333334" style="stroke-width:0.7;"/>
        <path d="M 313.0 -80.33333333333334 L 303.0 -90.33333333333334" style="stroke-width:0.7;"/>
        <text style="font-size:16;stroke:none;fill:rgb(0,0,0);" x="316.0" y="-80.0">
          cc_hash_mask_exp_nea_lc_1div8_1div2_nsth_map
        </text>
        <path d="M 300 -65.33333333333334 L 316 -65.33333333333334" style="stroke:rgb(0,0,128);stroke-width:2;"/>
        <path d="M 303.0 -60.33333333333334 L 313.0 -70.33333333333334" style="stroke-width:0.7;"/>
        <path d="M 313.0 -60.33333333333334 L 303.0 -70.33333333333334" style="stroke-width:0.7;"/>
        <text style="font-size:16;stroke:none;fill:rgb(0,0,0);" x="316.0" y="-60.0">
          gp_hash_mask_linp_exp_nea_lc_1div8_1div2_nsth_map
        </text>
      </g>
    </g>
  </g>
</svg>
