<?xml version="1.0" ?>
<!--Created by PyChart 1.39 Copyright 1999-2006 Yasushi Saito-->
<svg viewBox="178 -544 620 556" xmlns="http://www.w3.org/2000/svg" xmlns:xlink="http://www.w3.org/1999/xlink">
  <defs>
    <clipPath id="clip0">
      <path d="M 294 -294 L 294 -526 L 786 -526 L 786 -294 Z"/>
    </clipPath>
    <clipPath id="clip1">
      <path d="M 294 -294 L 294 -526 L 786 -526 L 786 -294 Z"/>
    </clipPath>
    <clipPath id="clip2">
      <path d="M 280 -280 L 280 -540 L 800 -540 L 800 -280 Z"/>
    </clipPath>
    <clipPath id="clip3">
      <path d="M 343.6363636363636 -320.1915104477612 L 337.3863636363636 -330.1915104477612 L 349.8863636363636 -330.1915104477612 Z"/>
    </clipPath>
    <clipPath id="clip4">
      <path d="M 387.27272727272725 -344.63561194029853 L 381.02272727272725 -354.63561194029853 L 393.52272727272725 -354.63561194029853 Z"/>
    </clipPath>
    <clipPath id="clip5">
      <path d="M 430.9090909090909 -362.9274626865672 L 424.6590909090909 -372.9274626865672 L 437.1590909090909 -372.9274626865672 Z"/>
    </clipPath>
    <clipPath id="clip6">
      <path d="M 474.5454545454545 -388.45337313432833 L 468.2954545454545 -398.45337313432833 L 480.7954545454545 -398.45337313432833 Z"/>
    </clipPath>
    <clipPath id="clip7">
      <path d="M 518.1818181818182 -411.7497313432836 L 511.9318181818182 -421.7497313432836 L 524.4318181818182 -421.7497313432836 Z"/>
    </clipPath>
    <clipPath id="clip8">
      <path d="M 561.8181818181818 -433.88895522388054 L 555.5681818181818 -443.88895522388054 L 568.0681818181818 -443.88895522388054 Z"/>
    </clipPath>
    <clipPath id="clip9">
      <path d="M 605.4545454545455 -453.96707462686567 L 599.2045454545455 -463.96707462686567 L 611.7045454545455 -463.96707462686567 Z"/>
    </clipPath>
    <clipPath id="clip10">
      <path d="M 649.090909090909 -476.544328358209 L 642.840909090909 -486.544328358209 L 655.340909090909 -486.544328358209 Z"/>
    </clipPath>
    <clipPath id="clip11">
      <path d="M 692.7272727272727 -495.07489552238803 L 686.4772727272727 -505.07489552238803 L 698.9772727272727 -505.07489552238803 Z"/>
    </clipPath>
    <clipPath id="clip12">
      <path d="M 736.3636363636364 -515.0 L 730.1136363636364 -525.0 L 742.6136363636364 -525.0 Z"/>
    </clipPath>
    <clipPath id="clip13">
      <path d="M 294 -294 L 294 -526 L 786 -526 L 786 -294 Z"/>
    </clipPath>
    <clipPath id="clip14">
      <path d="M 280 -280 L 280 -540 L 800 -540 L 800 -280 Z"/>
    </clipPath>
    <clipPath id="clip15">
      <path d="M 343.6363636363636 -301.5658179104478 L 337.3863636363636 -311.5658179104478 L 349.8863636363636 -311.5658179104478 Z"/>
    </clipPath>
    <clipPath id="clip16">
      <path d="M 387.27272727272725 -302.18900895522387 L 381.02272727272725 -312.18900895522387 L 393.52272727272725 -312.18900895522387 Z"/>
    </clipPath>
    <clipPath id="clip17">
      <path d="M 430.9090909090909 -302.5086328358209 L 424.6590909090909 -312.5086328358209 L 437.1590909090909 -312.5086328358209 Z"/>
    </clipPath>
    <clipPath id="clip18">
      <path d="M 474.5454545454545 -302.77145074626867 L 468.2954545454545 -312.77145074626867 L 480.7954545454545 -312.77145074626867 Z"/>
    </clipPath>
    <clipPath id="clip19">
      <path d="M 518.1818181818182 -303.1685671641791 L 511.9318181818182 -313.1685671641791 L 524.4318181818182 -313.1685671641791 Z"/>
    </clipPath>
    <clipPath id="clip20">
      <path d="M 561.8181818181818 -303.28835223880594 L 555.5681818181818 -313.28835223880594 L 568.0681818181818 -313.28835223880594 Z"/>
    </clipPath>
    <clipPath id="clip21">
      <path d="M 605.4545454545455 -303.60222985074626 L 599.2045454545455 -313.60222985074626 L 611.7045454545455 -313.60222985074626 Z"/>
    </clipPath>
    <clipPath id="clip22">
      <path d="M 649.090909090909 -303.69541791044776 L 642.840909090909 -313.69541791044776 L 655.340909090909 -313.69541791044776 Z"/>
    </clipPath>
    <clipPath id="clip23">
      <path d="M 692.7272727272727 -303.9053373134328 L 686.4772727272727 -313.9053373134328 L 698.9772727272727 -313.9053373134328 Z"/>
    </clipPath>
    <clipPath id="clip24">
      <path d="M 736.3636363636364 -304.0137611940298 L 730.1136363636364 -314.0137611940298 L 742.6136363636364 -314.0137611940298 Z"/>
    </clipPath>
    <clipPath id="clip25">
      <path d="M 294 -294 L 294 -526 L 786 -526 L 786 -294 Z"/>
    </clipPath>
    <clipPath id="clip26">
      <path d="M 280 -280 L 280 -540 L 800 -540 L 800 -280 Z"/>
    </clipPath>
    <clipPath id="clip27">
      <path d="M 336.4935064935065 -306.1631194029851 L 343.6363636363636 -313.3059765458422 L 350.7792207792208 -306.1631194029851 L 343.6363636363636 -299.02026226012794 Z"/>
    </clipPath>
    <clipPath id="clip28">
      <path d="M 380.12987012987014 -306.8463014925373 L 387.27272727272725 -313.98915863539446 L 394.4155844155844 -306.8463014925373 L 387.27272727272725 -299.7034443496802 Z"/>
    </clipPath>
    <clipPath id="clip29">
      <path d="M 423.76623376623377 -307.3151313432836 L 430.9090909090909 -314.4579884861407 L 438.05194805194805 -307.3151313432836 L 430.9090909090909 -300.17227420042644 Z"/>
    </clipPath>
    <clipPath id="clip30">
      <path d="M 467.4025974025974 -307.5658656716418 L 474.5454545454545 -314.7087228144989 L 481.68831168831167 -307.5658656716418 L 474.5454545454545 -300.42300852878464 Z"/>
    </clipPath>
    <clipPath id="clip31">
      <path d="M 511.038961038961 -307.92564776119406 L 518.1818181818182 -315.06850490405117 L 525.3246753246754 -307.92564776119406 L 518.1818181818182 -300.7827906183369 Z"/>
    </clipPath>
    <clipPath id="clip32">
      <path d="M 554.6753246753246 -308.11113731343283 L 561.8181818181818 -315.25399445629 L 568.961038961039 -308.11113731343283 L 561.8181818181818 -300.96828017057567 Z"/>
    </clipPath>
    <clipPath id="clip33">
      <path d="M 598.3116883116883 -308.09649253731345 L 605.4545454545455 -315.23934968017056 L 612.5974025974026 -308.09649253731345 L 605.4545454545455 -300.9536353944563 Z"/>
    </clipPath>
    <clipPath id="clip34">
      <path d="M 641.9480519480519 -308.36098507462685 L 649.090909090909 -315.503842217484 L 656.2337662337662 -308.36098507462685 L 649.090909090909 -301.21812793176974 Z"/>
    </clipPath>
    <clipPath id="clip35">
      <path d="M 685.5844155844156 -308.4847104477612 L 692.7272727272727 -315.62756759061836 L 699.8701298701299 -308.4847104477612 L 692.7272727272727 -301.3418533049041 Z"/>
    </clipPath>
    <clipPath id="clip36">
      <path d="M 729.2207792207791 -308.651976119403 L 736.3636363636364 -315.7948332622601 L 743.5064935064936 -308.651976119403 L 736.3636363636364 -301.50911897654584 Z"/>
    </clipPath>
    <clipPath id="clip37">
      <path d="M 294 -294 L 294 -526 L 786 -526 L 786 -294 Z"/>
    </clipPath>
    <clipPath id="clip38">
      <path d="M 280 -280 L 280 -540 L 800 -540 L 800 -280 Z"/>
    </clipPath>
    <clipPath id="clip39">
      <path d="M 337.3863636363636 -300.5469223880597 L 349.8863636363636 -300.5469223880597 L 343.6363636363636 -310.5469223880597 Z"/>
    </clipPath>
    <clipPath id="clip40">
      <path d="M 381.02272727272725 -301.1179701492537 L 393.52272727272725 -301.1179701492537 L 387.27272727272725 -311.1179701492537 Z"/>
    </clipPath>
    <clipPath id="clip41">
      <path d="M 424.6590909090909 -301.54844776119404 L 437.1590909090909 -301.54844776119404 L 430.9090909090909 -311.54844776119404 Z"/>
    </clipPath>
    <clipPath id="clip42">
      <path d="M 468.2954545454545 -301.5150537313433 L 480.7954545454545 -301.5150537313433 L 474.5454545454545 -311.5150537313433 Z"/>
    </clipPath>
    <clipPath id="clip43">
      <path d="M 511.9318181818182 -301.89890447761195 L 524.4318181818182 -301.89890447761195 L 518.1818181818182 -311.89890447761195 Z"/>
    </clipPath>
    <clipPath id="clip44">
      <path d="M 555.5681818181818 -302.0614746268657 L 568.0681818181818 -302.0614746268657 L 561.8181818181818 -312.0614746268657 Z"/>
    </clipPath>
    <clipPath id="clip45">
      <path d="M 599.2045454545455 -302.1750208955224 L 611.7045454545455 -302.1750208955224 L 605.4545454545455 -312.1750208955224 Z"/>
    </clipPath>
    <clipPath id="clip46">
      <path d="M 642.840909090909 -302.32084477611943 L 655.340909090909 -302.32084477611943 L 649.090909090909 -312.32084477611943 Z"/>
    </clipPath>
    <clipPath id="clip47">
      <path d="M 686.4772727272727 -302.40260597014924 L 698.9772727272727 -302.40260597014924 L 692.7272727272727 -312.40260597014924 Z"/>
    </clipPath>
    <clipPath id="clip48">
      <path d="M 730.1136363636364 -302.5870776119403 L 742.6136363636364 -302.5870776119403 L 736.3636363636364 -312.5870776119403 Z"/>
    </clipPath>
    <clipPath id="clip49">
      <path d="M 294 -294 L 294 -526 L 786 -526 L 786 -294 Z"/>
    </clipPath>
    <clipPath id="clip50">
      <path d="M 280 -280 L 280 -540 L 800 -540 L 800 -280 Z"/>
    </clipPath>
    <clipPath id="clip51">
      <path d="M 294 -294 L 294 -526 L 786 -526 L 786 -294 Z"/>
    </clipPath>
    <clipPath id="clip52">
      <path d="M 280 -280 L 280 -540 L 800 -540 L 800 -280 Z"/>
    </clipPath>
    <clipPath id="clip53">
      <path d="M 343.6363636363636 -298.2357928358209 L 337.3863636363636 -308.2357928358209 L 349.8863636363636 -308.2357928358209 Z"/>
    </clipPath>
    <clipPath id="clip54">
      <path d="M 387.27272727272725 -298.6628029850746 L 381.02272727272725 -308.6628029850746 L 393.52272727272725 -308.6628029850746 Z"/>
    </clipPath>
    <clipPath id="clip55">
      <path d="M 430.9090909090909 -299.02189552238804 L 424.6590909090909 -309.02189552238804 L 437.1590909090909 -309.02189552238804 Z"/>
    </clipPath>
    <clipPath id="clip56">
      <path d="M 474.5454545454545 -299.2205194029851 L 468.2954545454545 -309.2205194029851 L 480.7954545454545 -309.2205194029851 Z"/>
    </clipPath>
    <clipPath id="clip57">
      <path d="M 518.1818181818182 -299.41576119402987 L 511.9318181818182 -309.41576119402987 L 524.4318181818182 -309.41576119402987 Z"/>
    </clipPath>
    <clipPath id="clip58">
      <path d="M 561.8181818181818 -299.51932537313434 L 555.5681818181818 -309.51932537313434 L 568.0681818181818 -309.51932537313434 Z"/>
    </clipPath>
    <clipPath id="clip59">
      <path d="M 605.4545454545455 -299.6235791044776 L 599.2045454545455 -309.6235791044776 L 611.7045454545455 -309.6235791044776 Z"/>
    </clipPath>
    <clipPath id="clip60">
      <path d="M 649.090909090909 -299.75291940298507 L 642.840909090909 -309.75291940298507 L 655.340909090909 -309.75291940298507 Z"/>
    </clipPath>
    <clipPath id="clip61">
      <path d="M 692.7272727272727 -299.8146507462687 L 686.4772727272727 -309.8146507462687 L 698.9772727272727 -309.8146507462687 Z"/>
    </clipPath>
    <clipPath id="clip62">
      <path d="M 736.3636363636364 -299.8596029850746 L 730.1136363636364 -309.8596029850746 L 742.6136363636364 -309.8596029850746 Z"/>
    </clipPath>
    <clipPath id="clip63">
      <path d="M 294 -294 L 294 -526 L 786 -526 L 786 -294 Z"/>
    </clipPath>
    <clipPath id="clip64">
      <path d="M 280 -280 L 280 -540 L 800 -540 L 800 -280 Z"/>
    </clipPath>
    <clipPath id="clip65">
      <path d="M 336.4935064935065 -302.0788095522388 L 343.6363636363636 -309.22166669509596 L 350.7792207792208 -302.0788095522388 L 343.6363636363636 -294.9359524093817 Z"/>
    </clipPath>
    <clipPath id="clip66">
      <path d="M 380.12987012987014 -302.2534402985075 L 387.27272727272725 -309.3962974413646 L 394.4155844155844 -302.2534402985075 L 387.27272727272725 -295.1105831556503 Z"/>
    </clipPath>
    <clipPath id="clip67">
      <path d="M 423.76623376623377 -302.34449731343284 L 430.9090909090909 -309.48735445628995 L 438.05194805194805 -302.34449731343284 L 430.9090909090909 -295.2016401705757 Z"/>
    </clipPath>
    <clipPath id="clip68">
      <path d="M 467.4025974025974 -302.4607919402985 L 474.5454545454545 -309.60364908315563 L 481.68831168831167 -302.4607919402985 L 474.5454545454545 -295.31793479744135 Z"/>
    </clipPath>
    <clipPath id="clip69">
      <path d="M 511.038961038961 -302.4959032835821 L 518.1818181818182 -309.63876042643926 L 525.3246753246754 -302.4959032835821 L 518.1818181818182 -295.3530461407249 Z"/>
    </clipPath>
    <clipPath id="clip70">
      <path d="M 554.6753246753246 -302.54936656716416 L 561.8181818181818 -309.6922237100213 L 568.961038961039 -302.54936656716416 L 561.8181818181818 -295.40650942430705 Z"/>
    </clipPath>
    <clipPath id="clip71">
      <path d="M 598.3116883116883 -302.6060182089552 L 605.4545454545455 -309.7488753518124 L 612.5974025974026 -302.6060182089552 L 605.4545454545455 -295.4631610660981 Z"/>
    </clipPath>
    <clipPath id="clip72">
      <path d="M 641.9480519480519 -302.64897402985076 L 649.090909090909 -309.7918311727079 L 656.2337662337662 -302.64897402985076 L 649.090909090909 -295.5061168869936 Z"/>
    </clipPath>
    <clipPath id="clip73">
      <path d="M 685.5844155844156 -302.66701402985075 L 692.7272727272727 -309.8098711727079 L 699.8701298701299 -302.66701402985075 L 692.7272727272727 -295.5241568869936 Z"/>
    </clipPath>
    <clipPath id="clip74">
      <path d="M 729.2207792207791 -302.66857701492535 L 736.3636363636364 -309.8114341577825 L 743.5064935064936 -302.66857701492535 L 736.3636363636364 -295.52571987206824 Z"/>
    </clipPath>
    <clipPath id="clip75">
      <path d="M 290 6 L 290 -136 L 456.72 -136 L 456.72 6 Z"/>
    </clipPath>
    <clipPath id="clip76">
      <path d="M 308.0 -120.33333333333334 L 301.75 -130.33333333333334 L 314.25 -130.33333333333334 Z"/>
    </clipPath>
    <clipPath id="clip77">
      <path d="M 308.0 -100.33333333333334 L 301.75 -110.33333333333334 L 314.25 -110.33333333333334 Z"/>
    </clipPath>
    <clipPath id="clip78">
      <path d="M 300.85714285714283 -85.33333333333334 L 308.0 -92.47619047619048 L 315.14285714285717 -85.33333333333334 L 308.0 -78.1904761904762 Z"/>
    </clipPath>
    <clipPath id="clip79">
      <path d="M 301.75 -60.33333333333334 L 314.25 -60.33333333333334 L 308.0 -70.33333333333334 Z"/>
    </clipPath>
    <clipPath id="clip80">
      <path d="M 308.0 -20.333333333333314 L 301.75 -30.333333333333314 L 314.25 -30.333333333333314 Z"/>
    </clipPath>
    <clipPath id="clip81">
      <path d="M 300.85714285714283 -5.333333333333314 L 308.0 -12.476190476190482 L 315.14285714285717 -5.333333333333314 L 308.0 1.8095238095238528 Z"/>
    </clipPath>
  </defs>
  <g style="stroke-linejoin:miter;font-size:8;font-family:Helvetica;fill:none;stroke-linecap:butt;stroke:rgb(0,0,0);font-stretch:normal;stroke-dasharray:none;font-weight:normal;font-style:normal;stroke-width:0.5;">
    <path d="M 300 -300 L 780 -300"/>
    <path d="M 300 -300 L 780 -300"/>
    <path d="M 300.0 -300 L 300.0 -288"/>
    <text style="font-size:12;font-style:italic;stroke:none;fill:rgb(0,0,0);" transform="rotate(90,300,-288)" x="300.0" y="-288.0">
      0
    </text>
    <path d="M 343.6363636363636 -300 L 343.6363636363636 -288"/>
    <text style="font-size:12;font-style:italic;stroke:none;fill:rgb(0,0,0);" transform="rotate(90,343.636,-288)" x="343.6363636363636" y="-288.0">
      200
    </text>
    <path d="M 387.27272727272725 -300 L 387.27272727272725 -288"/>
    <text style="font-size:12;font-style:italic;stroke:none;fill:rgb(0,0,0);" transform="rotate(90,387.273,-288)" x="387.27272727272725" y="-288.0">
      400
    </text>
    <path d="M 430.9090909090909 -300 L 430.9090909090909 -288"/>
    <text style="font-size:12;font-style:italic;stroke:none;fill:rgb(0,0,0);" transform="rotate(90,430.909,-288)" x="430.9090909090909" y="-288.0">
      600
    </text>
    <path d="M 474.5454545454545 -300 L 474.5454545454545 -288"/>
    <text style="font-size:12;font-style:italic;stroke:none;fill:rgb(0,0,0);" transform="rotate(90,474.545,-288)" x="474.5454545454545" y="-288.0">
      800
    </text>
    <path d="M 518.1818181818182 -300 L 518.1818181818182 -288"/>
    <text style="font-size:12;font-style:italic;stroke:none;fill:rgb(0,0,0);" transform="rotate(90,518.182,-288)" x="518.1818181818182" y="-288.0">
      1000
    </text>
    <path d="M 561.8181818181818 -300 L 561.8181818181818 -288"/>
    <text style="font-size:12;font-style:italic;stroke:none;fill:rgb(0,0,0);" transform="rotate(90,561.818,-288)" x="561.8181818181818" y="-288.0">
      1200
    </text>
    <path d="M 605.4545454545455 -300 L 605.4545454545455 -288"/>
    <text style="font-size:12;font-style:italic;stroke:none;fill:rgb(0,0,0);" transform="rotate(90,605.455,-288)" x="605.4545454545455" y="-288.0">
      1400
    </text>
    <path d="M 649.090909090909 -300 L 649.090909090909 -288"/>
    <text style="font-size:12;font-style:italic;stroke:none;fill:rgb(0,0,0);" transform="rotate(90,649.091,-288)" x="649.090909090909" y="-288.0">
      1600
    </text>
    <path d="M 692.7272727272727 -300 L 692.7272727272727 -288"/>
    <text style="font-size:12;font-style:italic;stroke:none;fill:rgb(0,0,0);" transform="rotate(90,692.727,-288)" x="692.7272727272727" y="-288.0">
      1800
    </text>
    <path d="M 736.3636363636364 -300 L 736.3636363636364 -288"/>
    <text style="font-size:12;font-style:italic;stroke:none;fill:rgb(0,0,0);" transform="rotate(90,736.364,-288)" x="736.3636363636364" y="-288.0">
      2000
    </text>
    <path d="M 780.0 -300 L 780.0 -288"/>
    <text style="font-size:12;font-style:italic;stroke:none;fill:rgb(0,0,0);" transform="rotate(90,780,-288)" x="780.0" y="-288.0">
      2200
    </text>
    <text style="font-size:16;stroke:none;fill:rgb(0,0,0);" x="524.44" y="-220.0">
      Size
    </text>
    <path d="M 300 -300 L 300 -520"/>
    <path d="M 300 -300.0 L 288 -300.0"/>
    <text style="font-size:12;font-style:italic;stroke:none;fill:rgb(0,0,0);" x="238.0" y="-294.0">
      0.00e+00
    </text>
    <path d="M 300 -344.0 L 288 -344.0"/>
    <text style="font-size:12;font-style:italic;stroke:none;fill:rgb(0,0,0);" x="238.0" y="-338.0">
      1.34e-06
    </text>
    <path d="M 300 -388.0 L 288 -388.0"/>
    <text style="font-size:12;font-style:italic;stroke:none;fill:rgb(0,0,0);" x="238.0" y="-382.0">
      2.68e-06
    </text>
    <path d="M 300 -432.0 L 288 -432.0"/>
    <text style="font-size:12;font-style:italic;stroke:none;fill:rgb(0,0,0);" x="238.0" y="-426.0">
      4.02e-06
    </text>
    <path d="M 300 -476.0 L 288 -476.0"/>
    <text style="font-size:12;font-style:italic;stroke:none;fill:rgb(0,0,0);" x="238.0" y="-470.0">
      5.36e-06
    </text>
    <path d="M 300 -520.0 L 288 -520.0"/>
    <text style="font-size:12;font-style:italic;stroke:none;fill:rgb(0,0,0);" x="238.0" y="-514.0">
      6.70e-06
    </text>
    <text style="font-size:16;stroke:none;fill:rgb(0,0,0);" transform="rotate(-90,200,-340.648)" x="200.0" y="-340.648">
      Average time (sec.)
    </text>
    <g style="clip-path:url(#clip0);">
      <g style="clip-path:url(#clip1);">
        <path d="M 343.6363636363636 -325.1915104477612 L 387.27272727272725 -349.63561194029853 L 430.9090909090909 -367.9274626865672 L 474.5454545454545 -393.45337313432833 L 518.1818181818182 -416.7497313432836 L 561.8181818181818 -438.88895522388054 L 605.4545454545455 -458.96707462686567 L 649.090909090909 -481.544328358209 L 692.7272727272727 -500.07489552238803 L 736.3636363636364 -520.0" style="stroke:rgb(205,0,0);stroke-width:2;"/>
      </g>
      <g style="clip-path:url(#clip2);">
        <g style="fill:rgb(255,255,255);clip-path:url(#clip3);">
          <path d="M 337.3863636363636 -320.1915104477612 L 337.3863636363636 -330.1915104477612 L 349.8863636363636 -330.1915104477612 L 349.8863636363636 -320.1915104477612 Z" style="stroke:none;"/>
        </g>
        <g>
          <path d="M 343.6363636363636 -320.1915104477612 L 337.3863636363636 -330.1915104477612 L 349.8863636363636 -330.1915104477612 Z"/>
          <g style="fill:rgb(255,255,255);clip-path:url(#clip4);">
            <path d="M 381.02272727272725 -344.63561194029853 L 381.02272727272725 -354.63561194029853 L 393.52272727272725 -354.63561194029853 L 393.52272727272725 -344.63561194029853 Z" style="stroke:none;"/>
          </g>
          <g>
            <path d="M 387.27272727272725 -344.63561194029853 L 381.02272727272725 -354.63561194029853 L 393.52272727272725 -354.63561194029853 Z"/>
            <g style="fill:rgb(255,255,255);clip-path:url(#clip5);">
              <path d="M 424.6590909090909 -362.9274626865672 L 424.6590909090909 -372.9274626865672 L 437.1590909090909 -372.9274626865672 L 437.1590909090909 -362.9274626865672 Z" style="stroke:none;"/>
            </g>
            <g>
              <path d="M 430.9090909090909 -362.9274626865672 L 424.6590909090909 -372.9274626865672 L 437.1590909090909 -372.9274626865672 Z"/>
              <g style="fill:rgb(255,255,255);clip-path:url(#clip6);">
                <path d="M 468.2954545454545 -388.45337313432833 L 468.2954545454545 -398.45337313432833 L 480.7954545454545 -398.45337313432833 L 480.7954545454545 -388.45337313432833 Z" style="stroke:none;"/>
              </g>
              <g>
                <path d="M 474.5454545454545 -388.45337313432833 L 468.2954545454545 -398.45337313432833 L 480.7954545454545 -398.45337313432833 Z"/>
                <g style="fill:rgb(255,255,255);clip-path:url(#clip7);">
                  <path d="M 511.9318181818182 -411.7497313432836 L 511.9318181818182 -421.7497313432836 L 524.4318181818182 -421.7497313432836 L 524.4318181818182 -411.7497313432836 Z" style="stroke:none;"/>
                </g>
                <g>
                  <path d="M 518.1818181818182 -411.7497313432836 L 511.9318181818182 -421.7497313432836 L 524.4318181818182 -421.7497313432836 Z"/>
                  <g style="fill:rgb(255,255,255);clip-path:url(#clip8);">
                    <path d="M 555.5681818181818 -433.88895522388054 L 555.5681818181818 -443.88895522388054 L 568.0681818181818 -443.88895522388054 L 568.0681818181818 -433.88895522388054 Z" style="stroke:none;"/>
                  </g>
                  <g>
                    <path d="M 561.8181818181818 -433.88895522388054 L 555.5681818181818 -443.88895522388054 L 568.0681818181818 -443.88895522388054 Z"/>
                    <g style="fill:rgb(255,255,255);clip-path:url(#clip9);">
                      <path d="M 599.2045454545455 -453.96707462686567 L 599.2045454545455 -463.96707462686567 L 611.7045454545455 -463.96707462686567 L 611.7045454545455 -453.96707462686567 Z" style="stroke:none;"/>
                    </g>
                    <g>
                      <path d="M 605.4545454545455 -453.96707462686567 L 599.2045454545455 -463.96707462686567 L 611.7045454545455 -463.96707462686567 Z"/>
                      <g style="fill:rgb(255,255,255);clip-path:url(#clip10);">
                        <path d="M 642.840909090909 -476.544328358209 L 642.840909090909 -486.544328358209 L 655.340909090909 -486.544328358209 L 655.340909090909 -476.544328358209 Z" style="stroke:none;"/>
                      </g>
                      <g>
                        <path d="M 649.090909090909 -476.544328358209 L 642.840909090909 -486.544328358209 L 655.340909090909 -486.544328358209 Z"/>
                        <g style="fill:rgb(255,255,255);clip-path:url(#clip11);">
                          <path d="M 686.4772727272727 -495.07489552238803 L 686.4772727272727 -505.07489552238803 L 698.9772727272727 -505.07489552238803 L 698.9772727272727 -495.07489552238803 Z" style="stroke:none;"/>
                        </g>
                        <g>
                          <path d="M 692.7272727272727 -495.07489552238803 L 686.4772727272727 -505.07489552238803 L 698.9772727272727 -505.07489552238803 Z"/>
                          <g style="fill:rgb(255,255,255);clip-path:url(#clip12);">
                            <path d="M 730.1136363636364 -515.0 L 730.1136363636364 -525.0 L 742.6136363636364 -525.0 L 742.6136363636364 -515.0 Z" style="stroke:none;"/>
                          </g>
                          <g>
                            <path d="M 736.3636363636364 -515.0 L 730.1136363636364 -525.0 L 742.6136363636364 -525.0 Z"/>
                          </g>
                        </g>
                      </g>
                    </g>
                  </g>
                </g>
              </g>
            </g>
          </g>
        </g>
      </g>
      <g style="clip-path:url(#clip13);">
        <path d="M 343.6363636363636 -306.5658179104478 L 387.27272727272725 -307.18900895522387 L 430.9090909090909 -307.5086328358209 L 474.5454545454545 -307.77145074626867 L 518.1818181818182 -308.1685671641791 L 561.8181818181818 -308.28835223880594 L 605.4545454545455 -308.60222985074626 L 649.090909090909 -308.69541791044776 L 692.7272727272727 -308.9053373134328 L 736.3636363636364 -309.0137611940298" style="stroke:rgb(126,126,126);stroke-width:0.4;stroke-dasharray:1.5,1.5;"/>
      </g>
      <g style="clip-path:url(#clip14);">
        <g style="fill:rgb(0,0,0);clip-path:url(#clip15);">
          <path d="M 337.3863636363636 -301.5658179104478 L 337.3863636363636 -311.5658179104478 L 349.8863636363636 -311.5658179104478 L 349.8863636363636 -301.5658179104478 Z" style="stroke:none;"/>
        </g>
        <g>
          <path d="M 343.6363636363636 -301.5658179104478 L 337.3863636363636 -311.5658179104478 L 349.8863636363636 -311.5658179104478 Z"/>
          <g style="fill:rgb(0,0,0);clip-path:url(#clip16);">
            <path d="M 381.02272727272725 -302.18900895522387 L 381.02272727272725 -312.18900895522387 L 393.52272727272725 -312.18900895522387 L 393.52272727272725 -302.18900895522387 Z" style="stroke:none;"/>
          </g>
          <g>
            <path d="M 387.27272727272725 -302.18900895522387 L 381.02272727272725 -312.18900895522387 L 393.52272727272725 -312.18900895522387 Z"/>
            <g style="fill:rgb(0,0,0);clip-path:url(#clip17);">
              <path d="M 424.6590909090909 -302.5086328358209 L 424.6590909090909 -312.5086328358209 L 437.1590909090909 -312.5086328358209 L 437.1590909090909 -302.5086328358209 Z" style="stroke:none;"/>
            </g>
            <g>
              <path d="M 430.9090909090909 -302.5086328358209 L 424.6590909090909 -312.5086328358209 L 437.1590909090909 -312.5086328358209 Z"/>
              <g style="fill:rgb(0,0,0);clip-path:url(#clip18);">
                <path d="M 468.2954545454545 -302.77145074626867 L 468.2954545454545 -312.77145074626867 L 480.7954545454545 -312.77145074626867 L 480.7954545454545 -302.77145074626867 Z" style="stroke:none;"/>
              </g>
              <g>
                <path d="M 474.5454545454545 -302.77145074626867 L 468.2954545454545 -312.77145074626867 L 480.7954545454545 -312.77145074626867 Z"/>
                <g style="fill:rgb(0,0,0);clip-path:url(#clip19);">
                  <path d="M 511.9318181818182 -303.1685671641791 L 511.9318181818182 -313.1685671641791 L 524.4318181818182 -313.1685671641791 L 524.4318181818182 -303.1685671641791 Z" style="stroke:none;"/>
                </g>
                <g>
                  <path d="M 518.1818181818182 -303.1685671641791 L 511.9318181818182 -313.1685671641791 L 524.4318181818182 -313.1685671641791 Z"/>
                  <g style="fill:rgb(0,0,0);clip-path:url(#clip20);">
                    <path d="M 555.5681818181818 -303.28835223880594 L 555.5681818181818 -313.28835223880594 L 568.0681818181818 -313.28835223880594 L 568.0681818181818 -303.28835223880594 Z" style="stroke:none;"/>
                  </g>
                  <g>
                    <path d="M 561.8181818181818 -303.28835223880594 L 555.5681818181818 -313.28835223880594 L 568.0681818181818 -313.28835223880594 Z"/>
                    <g style="fill:rgb(0,0,0);clip-path:url(#clip21);">
                      <path d="M 599.2045454545455 -303.60222985074626 L 599.2045454545455 -313.60222985074626 L 611.7045454545455 -313.60222985074626 L 611.7045454545455 -303.60222985074626 Z" style="stroke:none;"/>
                    </g>
                    <g>
                      <path d="M 605.4545454545455 -303.60222985074626 L 599.2045454545455 -313.60222985074626 L 611.7045454545455 -313.60222985074626 Z"/>
                      <g style="fill:rgb(0,0,0);clip-path:url(#clip22);">
                        <path d="M 642.840909090909 -303.69541791044776 L 642.840909090909 -313.69541791044776 L 655.340909090909 -313.69541791044776 L 655.340909090909 -303.69541791044776 Z" style="stroke:none;"/>
                      </g>
                      <g>
                        <path d="M 649.090909090909 -303.69541791044776 L 642.840909090909 -313.69541791044776 L 655.340909090909 -313.69541791044776 Z"/>
                        <g style="fill:rgb(0,0,0);clip-path:url(#clip23);">
                          <path d="M 686.4772727272727 -303.9053373134328 L 686.4772727272727 -313.9053373134328 L 698.9772727272727 -313.9053373134328 L 698.9772727272727 -303.9053373134328 Z" style="stroke:none;"/>
                        </g>
                        <g>
                          <path d="M 692.7272727272727 -303.9053373134328 L 686.4772727272727 -313.9053373134328 L 698.9772727272727 -313.9053373134328 Z"/>
                          <g style="fill:rgb(0,0,0);clip-path:url(#clip24);">
                            <path d="M 730.1136363636364 -304.0137611940298 L 730.1136363636364 -314.0137611940298 L 742.6136363636364 -314.0137611940298 L 742.6136363636364 -304.0137611940298 Z" style="stroke:none;"/>
                          </g>
                          <g>
                            <path d="M 736.3636363636364 -304.0137611940298 L 730.1136363636364 -314.0137611940298 L 742.6136363636364 -314.0137611940298 Z"/>
                          </g>
                        </g>
                      </g>
                    </g>
                  </g>
                </g>
              </g>
            </g>
          </g>
        </g>
      </g>
      <g style="clip-path:url(#clip25);">
        <path d="M 343.6363636363636 -306.1631194029851 L 387.27272727272725 -306.8463014925373 L 430.9090909090909 -307.3151313432836 L 474.5454545454545 -307.5658656716418 L 518.1818181818182 -307.92564776119406 L 561.8181818181818 -308.11113731343283 L 605.4545454545455 -308.09649253731345 L 649.090909090909 -308.36098507462685 L 692.7272727272727 -308.4847104477612 L 736.3636363636364 -308.651976119403" style="stroke:rgb(126,126,126);stroke-width:2;"/>
      </g>
      <g style="clip-path:url(#clip26);">
        <g style="fill:rgb(255,255,255);clip-path:url(#clip27);">
          <path d="M 336.4935064935065 -299.02026226012794 L 336.4935064935065 -313.3059765458422 L 350.7792207792208 -313.3059765458422 L 350.7792207792208 -299.02026226012794 Z" style="stroke:none;"/>
        </g>
        <g>
          <path d="M 336.4935064935065 -306.1631194029851 L 343.6363636363636 -313.3059765458422 L 350.7792207792208 -306.1631194029851 L 343.6363636363636 -299.02026226012794 Z"/>
          <g style="fill:rgb(255,255,255);clip-path:url(#clip28);">
            <path d="M 380.12987012987014 -299.7034443496802 L 380.12987012987014 -313.98915863539446 L 394.4155844155844 -313.98915863539446 L 394.4155844155844 -299.7034443496802 Z" style="stroke:none;"/>
          </g>
          <g>
            <path d="M 380.12987012987014 -306.8463014925373 L 387.27272727272725 -313.98915863539446 L 394.4155844155844 -306.8463014925373 L 387.27272727272725 -299.7034443496802 Z"/>
            <g style="fill:rgb(255,255,255);clip-path:url(#clip29);">
              <path d="M 423.76623376623377 -300.17227420042644 L 423.76623376623377 -314.4579884861407 L 438.05194805194805 -314.4579884861407 L 438.05194805194805 -300.17227420042644 Z" style="stroke:none;"/>
            </g>
            <g>
              <path d="M 423.76623376623377 -307.3151313432836 L 430.9090909090909 -314.4579884861407 L 438.05194805194805 -307.3151313432836 L 430.9090909090909 -300.17227420042644 Z"/>
              <g style="fill:rgb(255,255,255);clip-path:url(#clip30);">
                <path d="M 467.4025974025974 -300.42300852878464 L 467.4025974025974 -314.7087228144989 L 481.68831168831167 -314.7087228144989 L 481.68831168831167 -300.42300852878464 Z" style="stroke:none;"/>
              </g>
              <g>
                <path d="M 467.4025974025974 -307.5658656716418 L 474.5454545454545 -314.7087228144989 L 481.68831168831167 -307.5658656716418 L 474.5454545454545 -300.42300852878464 Z"/>
                <g style="fill:rgb(255,255,255);clip-path:url(#clip31);">
                  <path d="M 511.038961038961 -300.7827906183369 L 511.038961038961 -315.06850490405117 L 525.3246753246754 -315.06850490405117 L 525.3246753246754 -300.7827906183369 Z" style="stroke:none;"/>
                </g>
                <g>
                  <path d="M 511.038961038961 -307.92564776119406 L 518.1818181818182 -315.06850490405117 L 525.3246753246754 -307.92564776119406 L 518.1818181818182 -300.7827906183369 Z"/>
                  <g style="fill:rgb(255,255,255);clip-path:url(#clip32);">
                    <path d="M 554.6753246753246 -300.96828017057567 L 554.6753246753246 -315.25399445629 L 568.961038961039 -315.25399445629 L 568.961038961039 -300.96828017057567 Z" style="stroke:none;"/>
                  </g>
                  <g>
                    <path d="M 554.6753246753246 -308.11113731343283 L 561.8181818181818 -315.25399445629 L 568.961038961039 -308.11113731343283 L 561.8181818181818 -300.96828017057567 Z"/>
                    <g style="fill:rgb(255,255,255);clip-path:url(#clip33);">
                      <path d="M 598.3116883116883 -300.9536353944563 L 598.3116883116883 -315.23934968017056 L 612.5974025974026 -315.23934968017056 L 612.5974025974026 -300.9536353944563 Z" style="stroke:none;"/>
                    </g>
                    <g>
                      <path d="M 598.3116883116883 -308.09649253731345 L 605.4545454545455 -315.23934968017056 L 612.5974025974026 -308.09649253731345 L 605.4545454545455 -300.9536353944563 Z"/>
                      <g style="fill:rgb(255,255,255);clip-path:url(#clip34);">
                        <path d="M 641.9480519480519 -301.21812793176974 L 641.9480519480519 -315.503842217484 L 656.2337662337662 -315.503842217484 L 656.2337662337662 -301.21812793176974 Z" style="stroke:none;"/>
                      </g>
                      <g>
                        <path d="M 641.9480519480519 -308.36098507462685 L 649.090909090909 -315.503842217484 L 656.2337662337662 -308.36098507462685 L 649.090909090909 -301.21812793176974 Z"/>
                        <g style="fill:rgb(255,255,255);clip-path:url(#clip35);">
                          <path d="M 685.5844155844156 -301.3418533049041 L 685.5844155844156 -315.62756759061836 L 699.8701298701299 -315.62756759061836 L 699.8701298701299 -301.3418533049041 Z" style="stroke:none;"/>
                        </g>
                        <g>
                          <path d="M 685.5844155844156 -308.4847104477612 L 692.7272727272727 -315.62756759061836 L 699.8701298701299 -308.4847104477612 L 692.7272727272727 -301.3418533049041 Z"/>
                          <g style="fill:rgb(255,255,255);clip-path:url(#clip36);">
                            <path d="M 729.2207792207791 -301.50911897654584 L 729.2207792207791 -315.7948332622601 L 743.5064935064936 -315.7948332622601 L 743.5064935064936 -301.50911897654584 Z" style="stroke:none;"/>
                          </g>
                          <g>
                            <path d="M 729.2207792207791 -308.651976119403 L 736.3636363636364 -315.7948332622601 L 743.5064935064936 -308.651976119403 L 736.3636363636364 -301.50911897654584 Z"/>
                          </g>
                        </g>
                      </g>
                    </g>
                  </g>
                </g>
              </g>
            </g>
          </g>
        </g>
      </g>
      <g style="clip-path:url(#clip37);">
        <path d="M 343.6363636363636 -305.5469223880597 L 387.27272727272725 -306.1179701492537 L 430.9090909090909 -306.54844776119404 L 474.5454545454545 -306.5150537313433 L 518.1818181818182 -306.89890447761195 L 561.8181818181818 -307.0614746268657 L 605.4545454545455 -307.1750208955224 L 649.090909090909 -307.32084477611943 L 692.7272727272727 -307.40260597014924 L 736.3636363636364 -307.5870776119403" style="stroke:rgb(147,147,147);stroke-width:2;"/>
      </g>
      <g style="clip-path:url(#clip38);">
        <g style="fill:rgb(255,255,255);clip-path:url(#clip39);">
          <path d="M 337.3863636363636 -300.5469223880597 L 337.3863636363636 -310.5469223880597 L 349.8863636363636 -310.5469223880597 L 349.8863636363636 -300.5469223880597 Z" style="stroke:none;"/>
        </g>
        <g>
          <path d="M 337.3863636363636 -300.5469223880597 L 349.8863636363636 -300.5469223880597 L 343.6363636363636 -310.5469223880597 Z"/>
          <g style="fill:rgb(255,255,255);clip-path:url(#clip40);">
            <path d="M 381.02272727272725 -301.1179701492537 L 381.02272727272725 -311.1179701492537 L 393.52272727272725 -311.1179701492537 L 393.52272727272725 -301.1179701492537 Z" style="stroke:none;"/>
          </g>
          <g>
            <path d="M 381.02272727272725 -301.1179701492537 L 393.52272727272725 -301.1179701492537 L 387.27272727272725 -311.1179701492537 Z"/>
            <g style="fill:rgb(255,255,255);clip-path:url(#clip41);">
              <path d="M 424.6590909090909 -301.54844776119404 L 424.6590909090909 -311.54844776119404 L 437.1590909090909 -311.54844776119404 L 437.1590909090909 -301.54844776119404 Z" style="stroke:none;"/>
            </g>
            <g>
              <path d="M 424.6590909090909 -301.54844776119404 L 437.1590909090909 -301.54844776119404 L 430.9090909090909 -311.54844776119404 Z"/>
              <g style="fill:rgb(255,255,255);clip-path:url(#clip42);">
                <path d="M 468.2954545454545 -301.5150537313433 L 468.2954545454545 -311.5150537313433 L 480.7954545454545 -311.5150537313433 L 480.7954545454545 -301.5150537313433 Z" style="stroke:none;"/>
              </g>
              <g>
                <path d="M 468.2954545454545 -301.5150537313433 L 480.7954545454545 -301.5150537313433 L 474.5454545454545 -311.5150537313433 Z"/>
                <g style="fill:rgb(255,255,255);clip-path:url(#clip43);">
                  <path d="M 511.9318181818182 -301.89890447761195 L 511.9318181818182 -311.89890447761195 L 524.4318181818182 -311.89890447761195 L 524.4318181818182 -301.89890447761195 Z" style="stroke:none;"/>
                </g>
                <g>
                  <path d="M 511.9318181818182 -301.89890447761195 L 524.4318181818182 -301.89890447761195 L 518.1818181818182 -311.89890447761195 Z"/>
                  <g style="fill:rgb(255,255,255);clip-path:url(#clip44);">
                    <path d="M 555.5681818181818 -302.0614746268657 L 555.5681818181818 -312.0614746268657 L 568.0681818181818 -312.0614746268657 L 568.0681818181818 -302.0614746268657 Z" style="stroke:none;"/>
                  </g>
                  <g>
                    <path d="M 555.5681818181818 -302.0614746268657 L 568.0681818181818 -302.0614746268657 L 561.8181818181818 -312.0614746268657 Z"/>
                    <g style="fill:rgb(255,255,255);clip-path:url(#clip45);">
                      <path d="M 599.2045454545455 -302.1750208955224 L 599.2045454545455 -312.1750208955224 L 611.7045454545455 -312.1750208955224 L 611.7045454545455 -302.1750208955224 Z" style="stroke:none;"/>
                    </g>
                    <g>
                      <path d="M 599.2045454545455 -302.1750208955224 L 611.7045454545455 -302.1750208955224 L 605.4545454545455 -312.1750208955224 Z"/>
                      <g style="fill:rgb(255,255,255);clip-path:url(#clip46);">
                        <path d="M 642.840909090909 -302.32084477611943 L 642.840909090909 -312.32084477611943 L 655.340909090909 -312.32084477611943 L 655.340909090909 -302.32084477611943 Z" style="stroke:none;"/>
                      </g>
                      <g>
                        <path d="M 642.840909090909 -302.32084477611943 L 655.340909090909 -302.32084477611943 L 649.090909090909 -312.32084477611943 Z"/>
                        <g style="fill:rgb(255,255,255);clip-path:url(#clip47);">
                          <path d="M 686.4772727272727 -302.40260597014924 L 686.4772727272727 -312.40260597014924 L 698.9772727272727 -312.40260597014924 L 698.9772727272727 -302.40260597014924 Z" style="stroke:none;"/>
                        </g>
                        <g>
                          <path d="M 686.4772727272727 -302.40260597014924 L 698.9772727272727 -302.40260597014924 L 692.7272727272727 -312.40260597014924 Z"/>
                          <g style="fill:rgb(255,255,255);clip-path:url(#clip48);">
                            <path d="M 730.1136363636364 -302.5870776119403 L 730.1136363636364 -312.5870776119403 L 742.6136363636364 -312.5870776119403 L 742.6136363636364 -302.5870776119403 Z" style="stroke:none;"/>
                          </g>
                          <g>
                            <path d="M 730.1136363636364 -302.5870776119403 L 742.6136363636364 -302.5870776119403 L 736.3636363636364 -312.5870776119403 Z"/>
                          </g>
                        </g>
                      </g>
                    </g>
                  </g>
                </g>
              </g>
            </g>
          </g>
        </g>
      </g>
      <g style="clip-path:url(#clip49);">
        <path d="M 343.6363636363636 -303.6021880597015 L 387.27272727272725 -304.10805671641793 L 430.9090909090909 -304.38860597014923 L 474.5454545454545 -304.5305880597015 L 518.1818181818182 -304.7197223880597 L 561.8181818181818 -304.8343850746269 L 605.4545454545455 -304.9249462686567 L 649.090909090909 -305.0168208955224 L 692.7272727272727 -305.1618895522388 L 736.3636363636364 -305.2960895522388" style="stroke:rgb(137,42,226);stroke-width:2;"/>
      </g>
      <g style="clip-path:url(#clip50);">
        <path d="M 336.4935064935065 -303.6021880597015 L 350.7792207792208 -303.6021880597015" style="stroke-width:1;"/>
        <path d="M 343.6363636363636 -296.45933091684435 L 343.6363636363636 -310.74504520255863" style="stroke-width:1;"/>
        <path d="M 380.12987012987014 -304.10805671641793 L 394.4155844155844 -304.10805671641793" style="stroke-width:1;"/>
        <path d="M 387.27272727272725 -296.96519957356077 L 387.27272727272725 -311.25091385927504" style="stroke-width:1;"/>
        <path d="M 423.76623376623377 -304.38860597014923 L 438.05194805194805 -304.38860597014923" style="stroke-width:1;"/>
        <path d="M 430.9090909090909 -297.2457488272921 L 430.9090909090909 -311.5314631130064" style="stroke-width:1;"/>
        <path d="M 467.4025974025974 -304.5305880597015 L 481.68831168831167 -304.5305880597015" style="stroke-width:1;"/>
        <path d="M 474.5454545454545 -297.38773091684436 L 474.5454545454545 -311.67344520255864" style="stroke-width:1;"/>
        <path d="M 511.038961038961 -304.7197223880597 L 525.3246753246754 -304.7197223880597" style="stroke-width:1;"/>
        <path d="M 518.1818181818182 -297.57686524520255 L 518.1818181818182 -311.86257953091683" style="stroke-width:1;"/>
        <path d="M 554.6753246753246 -304.8343850746269 L 568.961038961039 -304.8343850746269" style="stroke-width:1;"/>
        <path d="M 561.8181818181818 -297.6915279317697 L 561.8181818181818 -311.977242217484" style="stroke-width:1;"/>
        <path d="M 598.3116883116883 -304.9249462686567 L 612.5974025974026 -304.9249462686567" style="stroke-width:1;"/>
        <path d="M 605.4545454545455 -297.7820891257996 L 605.4545454545455 -312.06780341151386" style="stroke-width:1;"/>
        <path d="M 641.9480519480519 -305.0168208955224 L 656.2337662337662 -305.0168208955224" style="stroke-width:1;"/>
        <path d="M 649.090909090909 -297.87396375266525 L 649.090909090909 -312.1596780383795" style="stroke-width:1;"/>
        <path d="M 685.5844155844156 -305.1618895522388 L 699.8701298701299 -305.1618895522388" style="stroke-width:1;"/>
        <path d="M 692.7272727272727 -298.0190324093817 L 692.7272727272727 -312.30474669509596" style="stroke-width:1;"/>
        <path d="M 729.2207792207791 -305.2960895522388 L 743.5064935064936 -305.2960895522388" style="stroke-width:1;"/>
        <path d="M 736.3636363636364 -298.15323240938164 L 736.3636363636364 -312.438946695096" style="stroke-width:1;"/>
      </g>
      <g style="clip-path:url(#clip51);">
        <path d="M 343.6363636363636 -303.2357928358209 L 387.27272727272725 -303.6628029850746 L 430.9090909090909 -304.02189552238804 L 474.5454545454545 -304.2205194029851 L 518.1818181818182 -304.41576119402987 L 561.8181818181818 -304.51932537313434 L 605.4545454545455 -304.6235791044776 L 649.090909090909 -304.75291940298507 L 692.7272727272727 -304.8146507462687 L 736.3636363636364 -304.8596029850746" style="stroke:rgb(126,126,126);stroke-width:0.4;stroke-dasharray:1.5,1.5;"/>
      </g>
      <g style="clip-path:url(#clip52);">
        <g style="fill:rgb(0,0,0);clip-path:url(#clip53);">
          <path d="M 337.3863636363636 -298.2357928358209 L 337.3863636363636 -308.2357928358209 L 349.8863636363636 -308.2357928358209 L 349.8863636363636 -298.2357928358209 Z" style="stroke:none;"/>
        </g>
        <g>
          <path d="M 343.6363636363636 -298.2357928358209 L 337.3863636363636 -308.2357928358209 L 349.8863636363636 -308.2357928358209 Z"/>
          <g style="fill:rgb(0,0,0);clip-path:url(#clip54);">
            <path d="M 381.02272727272725 -298.6628029850746 L 381.02272727272725 -308.6628029850746 L 393.52272727272725 -308.6628029850746 L 393.52272727272725 -298.6628029850746 Z" style="stroke:none;"/>
          </g>
          <g>
            <path d="M 387.27272727272725 -298.6628029850746 L 381.02272727272725 -308.6628029850746 L 393.52272727272725 -308.6628029850746 Z"/>
            <g style="fill:rgb(0,0,0);clip-path:url(#clip55);">
              <path d="M 424.6590909090909 -299.02189552238804 L 424.6590909090909 -309.02189552238804 L 437.1590909090909 -309.02189552238804 L 437.1590909090909 -299.02189552238804 Z" style="stroke:none;"/>
            </g>
            <g>
              <path d="M 430.9090909090909 -299.02189552238804 L 424.6590909090909 -309.02189552238804 L 437.1590909090909 -309.02189552238804 Z"/>
              <g style="fill:rgb(0,0,0);clip-path:url(#clip56);">
                <path d="M 468.2954545454545 -299.2205194029851 L 468.2954545454545 -309.2205194029851 L 480.7954545454545 -309.2205194029851 L 480.7954545454545 -299.2205194029851 Z" style="stroke:none;"/>
              </g>
              <g>
                <path d="M 474.5454545454545 -299.2205194029851 L 468.2954545454545 -309.2205194029851 L 480.7954545454545 -309.2205194029851 Z"/>
                <g style="fill:rgb(0,0,0);clip-path:url(#clip57);">
                  <path d="M 511.9318181818182 -299.41576119402987 L 511.9318181818182 -309.41576119402987 L 524.4318181818182 -309.41576119402987 L 524.4318181818182 -299.41576119402987 Z" style="stroke:none;"/>
                </g>
                <g>
                  <path d="M 518.1818181818182 -299.41576119402987 L 511.9318181818182 -309.41576119402987 L 524.4318181818182 -309.41576119402987 Z"/>
                  <g style="fill:rgb(0,0,0);clip-path:url(#clip58);">
                    <path d="M 555.5681818181818 -299.51932537313434 L 555.5681818181818 -309.51932537313434 L 568.0681818181818 -309.51932537313434 L 568.0681818181818 -299.51932537313434 Z" style="stroke:none;"/>
                  </g>
                  <g>
                    <path d="M 561.8181818181818 -299.51932537313434 L 555.5681818181818 -309.51932537313434 L 568.0681818181818 -309.51932537313434 Z"/>
                    <g style="fill:rgb(0,0,0);clip-path:url(#clip59);">
                      <path d="M 599.2045454545455 -299.6235791044776 L 599.2045454545455 -309.6235791044776 L 611.7045454545455 -309.6235791044776 L 611.7045454545455 -299.6235791044776 Z" style="stroke:none;"/>
                    </g>
                    <g>
                      <path d="M 605.4545454545455 -299.6235791044776 L 599.2045454545455 -309.6235791044776 L 611.7045454545455 -309.6235791044776 Z"/>
                      <g style="fill:rgb(0,0,0);clip-path:url(#clip60);">
                        <path d="M 642.840909090909 -299.75291940298507 L 642.840909090909 -309.75291940298507 L 655.340909090909 -309.75291940298507 L 655.340909090909 -299.75291940298507 Z" style="stroke:none;"/>
                      </g>
                      <g>
                        <path d="M 649.090909090909 -299.75291940298507 L 642.840909090909 -309.75291940298507 L 655.340909090909 -309.75291940298507 Z"/>
                        <g style="fill:rgb(0,0,0);clip-path:url(#clip61);">
                          <path d="M 686.4772727272727 -299.8146507462687 L 686.4772727272727 -309.8146507462687 L 698.9772727272727 -309.8146507462687 L 698.9772727272727 -299.8146507462687 Z" style="stroke:none;"/>
                        </g>
                        <g>
                          <path d="M 692.7272727272727 -299.8146507462687 L 686.4772727272727 -309.8146507462687 L 698.9772727272727 -309.8146507462687 Z"/>
                          <g style="fill:rgb(0,0,0);clip-path:url(#clip62);">
                            <path d="M 730.1136363636364 -299.8596029850746 L 730.1136363636364 -309.8596029850746 L 742.6136363636364 -309.8596029850746 L 742.6136363636364 -299.8596029850746 Z" style="stroke:none;"/>
                          </g>
                          <g>
                            <path d="M 736.3636363636364 -299.8596029850746 L 730.1136363636364 -309.8596029850746 L 742.6136363636364 -309.8596029850746 Z"/>
                          </g>
                        </g>
                      </g>
                    </g>
                  </g>
                </g>
              </g>
            </g>
          </g>
        </g>
      </g>
      <g style="clip-path:url(#clip63);">
        <path d="M 343.6363636363636 -302.0788095522388 L 387.27272727272725 -302.2534402985075 L 430.9090909090909 -302.34449731343284 L 474.5454545454545 -302.4607919402985 L 518.1818181818182 -302.4959032835821 L 561.8181818181818 -302.54936656716416 L 605.4545454545455 -302.6060182089552 L 649.090909090909 -302.64897402985076 L 692.7272727272727 -302.66701402985075 L 736.3636363636364 -302.66857701492535" style="stroke:rgb(126,126,126);stroke-width:0.4;stroke-dasharray:5,2,5,2;"/>
      </g>
      <g style="clip-path:url(#clip64);">
        <g style="fill:rgb(0,0,0);clip-path:url(#clip65);">
          <path d="M 336.4935064935065 -294.9359524093817 L 336.4935064935065 -309.22166669509596 L 350.7792207792208 -309.22166669509596 L 350.7792207792208 -294.9359524093817 Z" style="stroke:none;"/>
        </g>
        <g>
          <path d="M 336.4935064935065 -302.0788095522388 L 343.6363636363636 -309.22166669509596 L 350.7792207792208 -302.0788095522388 L 343.6363636363636 -294.9359524093817 Z"/>
          <g style="fill:rgb(0,0,0);clip-path:url(#clip66);">
            <path d="M 380.12987012987014 -295.1105831556503 L 380.12987012987014 -309.3962974413646 L 394.4155844155844 -309.3962974413646 L 394.4155844155844 -295.1105831556503 Z" style="stroke:none;"/>
          </g>
          <g>
            <path d="M 380.12987012987014 -302.2534402985075 L 387.27272727272725 -309.3962974413646 L 394.4155844155844 -302.2534402985075 L 387.27272727272725 -295.1105831556503 Z"/>
            <g style="fill:rgb(0,0,0);clip-path:url(#clip67);">
              <path d="M 423.76623376623377 -295.2016401705757 L 423.76623376623377 -309.48735445628995 L 438.05194805194805 -309.48735445628995 L 438.05194805194805 -295.2016401705757 Z" style="stroke:none;"/>
            </g>
            <g>
              <path d="M 423.76623376623377 -302.34449731343284 L 430.9090909090909 -309.48735445628995 L 438.05194805194805 -302.34449731343284 L 430.9090909090909 -295.2016401705757 Z"/>
              <g style="fill:rgb(0,0,0);clip-path:url(#clip68);">
                <path d="M 467.4025974025974 -295.31793479744135 L 467.4025974025974 -309.60364908315563 L 481.68831168831167 -309.60364908315563 L 481.68831168831167 -295.31793479744135 Z" style="stroke:none;"/>
              </g>
              <g>
                <path d="M 467.4025974025974 -302.4607919402985 L 474.5454545454545 -309.60364908315563 L 481.68831168831167 -302.4607919402985 L 474.5454545454545 -295.31793479744135 Z"/>
                <g style="fill:rgb(0,0,0);clip-path:url(#clip69);">
                  <path d="M 511.038961038961 -295.3530461407249 L 511.038961038961 -309.63876042643926 L 525.3246753246754 -309.63876042643926 L 525.3246753246754 -295.3530461407249 Z" style="stroke:none;"/>
                </g>
                <g>
                  <path d="M 511.038961038961 -302.4959032835821 L 518.1818181818182 -309.63876042643926 L 525.3246753246754 -302.4959032835821 L 518.1818181818182 -295.3530461407249 Z"/>
                  <g style="fill:rgb(0,0,0);clip-path:url(#clip70);">
                    <path d="M 554.6753246753246 -295.40650942430705 L 554.6753246753246 -309.6922237100213 L 568.961038961039 -309.6922237100213 L 568.961038961039 -295.40650942430705 Z" style="stroke:none;"/>
                  </g>
                  <g>
                    <path d="M 554.6753246753246 -302.54936656716416 L 561.8181818181818 -309.6922237100213 L 568.961038961039 -302.54936656716416 L 561.8181818181818 -295.40650942430705 Z"/>
                    <g style="fill:rgb(0,0,0);clip-path:url(#clip71);">
                      <path d="M 598.3116883116883 -295.4631610660981 L 598.3116883116883 -309.7488753518124 L 612.5974025974026 -309.7488753518124 L 612.5974025974026 -295.4631610660981 Z" style="stroke:none;"/>
                    </g>
                    <g>
                      <path d="M 598.3116883116883 -302.6060182089552 L 605.4545454545455 -309.7488753518124 L 612.5974025974026 -302.6060182089552 L 605.4545454545455 -295.4631610660981 Z"/>
                      <g style="fill:rgb(0,0,0);clip-path:url(#clip72);">
                        <path d="M 641.9480519480519 -295.5061168869936 L 641.9480519480519 -309.7918311727079 L 656.2337662337662 -309.7918311727079 L 656.2337662337662 -295.5061168869936 Z" style="stroke:none;"/>
                      </g>
                      <g>
                        <path d="M 641.9480519480519 -302.64897402985076 L 649.090909090909 -309.7918311727079 L 656.2337662337662 -302.64897402985076 L 649.090909090909 -295.5061168869936 Z"/>
                        <g style="fill:rgb(0,0,0);clip-path:url(#clip73);">
                          <path d="M 685.5844155844156 -295.5241568869936 L 685.5844155844156 -309.8098711727079 L 699.8701298701299 -309.8098711727079 L 699.8701298701299 -295.5241568869936 Z" style="stroke:none;"/>
                        </g>
                        <g>
                          <path d="M 685.5844155844156 -302.66701402985075 L 692.7272727272727 -309.8098711727079 L 699.8701298701299 -302.66701402985075 L 692.7272727272727 -295.5241568869936 Z"/>
                          <g style="fill:rgb(0,0,0);clip-path:url(#clip74);">
                            <path d="M 729.2207792207791 -295.52571987206824 L 729.2207792207791 -309.8114341577825 L 743.5064935064936 -309.8114341577825 L 743.5064935064936 -295.52571987206824 Z" style="stroke:none;"/>
                          </g>
                          <g>
                            <path d="M 729.2207792207791 -302.66857701492535 L 736.3636363636364 -309.8114341577825 L 743.5064935064936 -302.66857701492535 L 736.3636363636364 -295.52571987206824 Z"/>
                          </g>
                        </g>
                      </g>
                    </g>
                  </g>
                </g>
              </g>
            </g>
          </g>
        </g>
      </g>
    </g>
    <g style="fill:rgb(255,255,255);clip-path:url(#clip75);">
      <path d="M 290 6 L 290 -136 L 456.72 -136 L 456.72 6 Z" style="stroke:none;"/>
    </g>
    <path d="M 300 -125.33333333333334 L 316 -125.33333333333334" style="stroke:rgb(205,0,0);stroke-width:2;"/>
    <g style="fill:rgb(255,255,255);clip-path:url(#clip76);">
      <path d="M 301.75 -120.33333333333334 L 301.75 -130.33333333333334 L 314.25 -130.33333333333334 L 314.25 -120.33333333333334 Z" style="stroke:none;"/>
    </g>
    <g>
      <path d="M 308.0 -120.33333333333334 L 301.75 -130.33333333333334 L 314.25 -130.33333333333334 Z"/>
      <text style="font-size:16;stroke:none;fill:rgb(0,0,0);" x="316.0" y="-120.0">
        binary_heap
      </text>
      <path d="M 300 -105.33333333333334 L 316 -105.33333333333334" style="stroke:rgb(126,126,126);stroke-width:0.4;stroke-dasharray:1.5,1.5;"/>
      <g style="fill:rgb(0,0,0);clip-path:url(#clip77);">
        <path d="M 301.75 -100.33333333333334 L 301.75 -110.33333333333334 L 314.25 -110.33333333333334 L 314.25 -100.33333333333334 Z" style="stroke:none;"/>
      </g>
      <g>
        <path d="M 308.0 -100.33333333333334 L 301.75 -110.33333333333334 L 314.25 -110.33333333333334 Z"/>
        <text style="font-size:16;stroke:none;fill:rgb(0,0,0);" x="316.0" y="-100.0">
          thin_heap
        </text>
        <path d="M 300 -85.33333333333334 L 316 -85.33333333333334" style="stroke:rgb(126,126,126);stroke-width:2;"/>
        <g style="fill:rgb(255,255,255);clip-path:url(#clip78);">
          <path d="M 300.85714285714283 -78.1904761904762 L 300.85714285714283 -92.47619047619048 L 315.14285714285717 -92.47619047619048 L 315.14285714285717 -78.1904761904762 Z" style="stroke:none;"/>
        </g>
        <g>
          <path d="M 300.85714285714283 -85.33333333333334 L 308.0 -92.47619047619048 L 315.14285714285717 -85.33333333333334 L 308.0 -78.1904761904762 Z"/>
          <text style="font-size:16;stroke:none;fill:rgb(0,0,0);" x="316.0" y="-80.0">
            rc_binomial_heap
          </text>
          <path d="M 300 -65.33333333333334 L 316 -65.33333333333334" style="stroke:rgb(147,147,147);stroke-width:2;"/>
          <g style="fill:rgb(255,255,255);clip-path:url(#clip79);">
            <path d="M 301.75 -60.33333333333334 L 301.75 -70.33333333333334 L 314.25 -70.33333333333334 L 314.25 -60.33333333333334 Z" style="stroke:none;"/>
          </g>
          <g>
            <path d="M 301.75 -60.33333333333334 L 314.25 -60.33333333333334 L 308.0 -70.33333333333334 Z"/>
            <text style="font-size:16;stroke:none;fill:rgb(0,0,0);" x="316.0" y="-60.0">
              binomial_heap
            </text>
            <path d="M 300 -45.33333333333334 L 316 -45.33333333333334" style="stroke:rgb(137,42,226);stroke-width:2;"/>
            <path d="M 300.85714285714283 -45.33333333333334 L 315.14285714285717 -45.33333333333334" style="stroke-width:1;"/>
            <path d="M 308.0 -38.190476190476204 L 308.0 -52.47619047619048" style="stroke-width:1;"/>
            <text style="font-size:16;stroke:none;fill:rgb(0,0,0);" x="316.0" y="-40.0">
              pairing_heap
            </text>
            <path d="M 300 -25.333333333333314 L 316 -25.333333333333314" style="stroke:rgb(126,126,126);stroke-width:0.4;stroke-dasharray:1.5,1.5;"/>
            <g style="fill:rgb(0,0,0);clip-path:url(#clip80);">
              <path d="M 301.75 -20.333333333333314 L 301.75 -30.333333333333314 L 314.25 -30.333333333333314 L 314.25 -20.333333333333314 Z" style="stroke:none;"/>
            </g>
            <g>
              <path d="M 308.0 -20.333333333333314 L 301.75 -30.333333333333314 L 314.25 -30.333333333333314 Z"/>
              <text style="font-size:16;stroke:none;fill:rgb(0,0,0);" x="316.0" y="-20.0">
                n_pq_deque
              </text>
              <path d="M 300 -5.333333333333314 L 316 -5.333333333333314" style="stroke:rgb(126,126,126);stroke-width:0.4;stroke-dasharray:5,2,5,2;"/>
              <g style="fill:rgb(0,0,0);clip-path:url(#clip81);">
                <path d="M 300.85714285714283 1.8095238095238528 L 300.85714285714283 -12.476190476190482 L 315.14285714285717 -12.476190476190482 L 315.14285714285717 1.8095238095238528 Z" style="stroke:none;"/>
              </g>
              <g>
                <path d="M 300.85714285714283 -5.333333333333314 L 308.0 -12.476190476190482 L 315.14285714285717 -5.333333333333314 L 308.0 1.8095238095238528 Z"/>
                <text style="font-size:16;stroke:none;fill:rgb(0,0,0);" x="316.0" y="-0.0">
                  n_pq_vector
                </text>
              </g>
            </g>
          </g>
        </g>
      </g>
    </g>
  </g>
</svg>
