<?xml version="1.0" ?>
<!--Created by PyChart 1.39 Copyright 1999-2006 Yasushi Saito-->
<svg viewBox="178 -544 620 516" xmlns="http://www.w3.org/2000/svg" xmlns:xlink="http://www.w3.org/1999/xlink">
  <defs>
    <clipPath id="clip0">
      <path d="M 294 -294 L 294 -526 L 786 -526 L 786 -294 Z"/>
    </clipPath>
    <clipPath id="clip1">
      <path d="M 294 -294 L 294 -526 L 786 -526 L 786 -294 Z"/>
    </clipPath>
    <clipPath id="clip2">
      <path d="M 280 -280 L 280 -540 L 800 -540 L 800 -280 Z"/>
    </clipPath>
    <clipPath id="clip3">
      <path d="M 343.6363636363636 -495.5340064050372 L 337.3863636363636 -505.5340064050372 L 349.8863636363636 -505.5340064050372 Z"/>
    </clipPath>
    <clipPath id="clip4">
      <path d="M 387.27272727272725 -503.71280464636595 L 381.02272727272725 -513.712804646366 L 393.52272727272725 -513.712804646366 Z"/>
    </clipPath>
    <clipPath id="clip5">
      <path d="M 430.9090909090909 -494.97752808988764 L 424.6590909090909 -504.97752808988764 L 437.1590909090909 -504.97752808988764 Z"/>
    </clipPath>
    <clipPath id="clip6">
      <path d="M 474.5454545454545 -500.88742332953376 L 468.2954545454545 -510.88742332953376 L 480.7954545454545 -510.88742332953376 Z"/>
    </clipPath>
    <clipPath id="clip7">
      <path d="M 518.1818181818182 -491.63388156109215 L 511.9318181818182 -501.63388156109215 L 524.4318181818182 -501.63388156109215 Z"/>
    </clipPath>
    <clipPath id="clip8">
      <path d="M 561.8181818181818 -501.9323128697823 L 555.5681818181818 -511.9323128697823 L 568.0681818181818 -511.9323128697823 Z"/>
    </clipPath>
    <clipPath id="clip9">
      <path d="M 605.4545454545455 -506.7614937849428 L 599.2045454545455 -516.7614937849428 L 611.7045454545455 -516.7614937849428 Z"/>
    </clipPath>
    <clipPath id="clip10">
      <path d="M 649.090909090909 -514.5151712533246 L 642.840909090909 -524.5151712533246 L 655.340909090909 -524.5151712533246 Z"/>
    </clipPath>
    <clipPath id="clip11">
      <path d="M 692.7272727272727 -515.0 L 686.4772727272727 -525.0 L 698.9772727272727 -525.0 Z"/>
    </clipPath>
    <clipPath id="clip12">
      <path d="M 736.3636363636364 -512.9460457037399 L 730.1136363636364 -522.9460457037399 L 742.6136363636364 -522.9460457037399 Z"/>
    </clipPath>
    <clipPath id="clip13">
      <path d="M 294 -294 L 294 -526 L 786 -526 L 786 -294 Z"/>
    </clipPath>
    <clipPath id="clip14">
      <path d="M 280 -280 L 280 -540 L 800 -540 L 800 -280 Z"/>
    </clipPath>
    <clipPath id="clip15">
      <path d="M 343.6363636363636 -461.4192585355263 L 337.3863636363636 -471.4192585355263 L 349.8863636363636 -471.4192585355263 Z"/>
    </clipPath>
    <clipPath id="clip16">
      <path d="M 387.27272727272725 -507.41947565543074 L 381.02272727272725 -517.4194756554307 L 393.52272727272725 -517.4194756554307 Z"/>
    </clipPath>
    <clipPath id="clip17">
      <path d="M 430.9090909090909 -490.74662107148674 L 424.6590909090909 -500.74662107148674 L 437.1590909090909 -500.74662107148674 Z"/>
    </clipPath>
    <clipPath id="clip18">
      <path d="M 474.5454545454545 -512.854095424198 L 468.2954545454545 -522.854095424198 L 480.7954545454545 -522.854095424198 Z"/>
    </clipPath>
    <clipPath id="clip19">
      <path d="M 518.1818181818182 -483.94110622591324 L 511.9318181818182 -493.94110622591324 L 524.4318181818182 -493.94110622591324 Z"/>
    </clipPath>
    <clipPath id="clip20">
      <path d="M 561.8181818181818 -493.7284372794876 L 555.5681818181818 -503.7284372794876 L 568.0681818181818 -503.7284372794876 Z"/>
    </clipPath>
    <clipPath id="clip21">
      <path d="M 605.4545454545455 -501.83200347391846 L 599.2045454545455 -511.83200347391846 L 611.7045454545455 -511.83200347391846 Z"/>
    </clipPath>
    <clipPath id="clip22">
      <path d="M 649.090909090909 -509.9092981599088 L 642.840909090909 -519.9092981599088 L 655.340909090909 -519.9092981599088 Z"/>
    </clipPath>
    <clipPath id="clip23">
      <path d="M 692.7272727272727 -482.52244477012437 L 686.4772727272727 -492.52244477012437 L 698.9772727272727 -492.52244477012437 Z"/>
    </clipPath>
    <clipPath id="clip24">
      <path d="M 736.3636363636364 -488.78581121424304 L 730.1136363636364 -498.78581121424304 L 742.6136363636364 -498.78581121424304 Z"/>
    </clipPath>
    <clipPath id="clip25">
      <path d="M 294 -294 L 294 -526 L 786 -526 L 786 -294 Z"/>
    </clipPath>
    <clipPath id="clip26">
      <path d="M 280 -280 L 280 -540 L 800 -540 L 800 -280 Z"/>
    </clipPath>
    <clipPath id="clip27">
      <path d="M 337.3863636363636 -473.97942788905175 L 349.8863636363636 -473.97942788905175 L 343.6363636363636 -483.97942788905175 Z"/>
    </clipPath>
    <clipPath id="clip28">
      <path d="M 381.02272727272725 -469.4380394072627 L 393.52272727272725 -469.4380394072627 L 387.27272727272725 -479.4380394072627 Z"/>
    </clipPath>
    <clipPath id="clip29">
      <path d="M 424.6590909090909 -459.3366444118765 L 437.1590909090909 -459.3366444118765 L 430.9090909090909 -469.3366444118765 Z"/>
    </clipPath>
    <clipPath id="clip30">
      <path d="M 468.2954545454545 -472.80795744449875 L 480.7954545454545 -472.80795744449875 L 474.5454545454545 -482.80795744449875 Z"/>
    </clipPath>
    <clipPath id="clip31">
      <path d="M 511.9318181818182 -452.309015904033 L 524.4318181818182 -452.309015904033 L 518.1818181818182 -462.309015904033 Z"/>
    </clipPath>
    <clipPath id="clip32">
      <path d="M 555.5681818181818 -464.2088150681214 L 568.0681818181818 -464.2088150681214 L 561.8181818181818 -474.2088150681214 Z"/>
    </clipPath>
    <clipPath id="clip33">
      <path d="M 599.2045454545455 -468.68213645986 L 611.7045454545455 -468.68213645986 L 605.4545454545455 -478.68213645986 Z"/>
    </clipPath>
    <clipPath id="clip34">
      <path d="M 642.840909090909 -476.13010910275204 L 655.340909090909 -476.13010910275204 L 649.090909090909 -486.13010910275204 Z"/>
    </clipPath>
    <clipPath id="clip35">
      <path d="M 686.4772727272727 -451.7023828909515 L 698.9772727272727 -451.7023828909515 L 692.7272727272727 -461.7023828909515 Z"/>
    </clipPath>
    <clipPath id="clip36">
      <path d="M 730.1136363636364 -455.89507680616623 L 742.6136363636364 -455.89507680616623 L 736.3636363636364 -465.89507680616623 Z"/>
    </clipPath>
    <clipPath id="clip37">
      <path d="M 294 -294 L 294 -526 L 786 -526 L 786 -294 Z"/>
    </clipPath>
    <clipPath id="clip38">
      <path d="M 280 -280 L 280 -540 L 800 -540 L 800 -280 Z"/>
    </clipPath>
    <clipPath id="clip39">
      <path d="M 336.4935064935065 -390.0304293546111 L 343.6363636363636 -397.1732864974682 L 350.7792207792208 -390.0304293546111 L 343.6363636363636 -382.88757221175393 Z"/>
    </clipPath>
    <clipPath id="clip40">
      <path d="M 380.12987012987014 -391.78023123269827 L 387.27272727272725 -398.9230883755554 L 394.4155844155844 -391.78023123269827 L 387.27272727272725 -384.63737408984116 Z"/>
    </clipPath>
    <clipPath id="clip41">
      <path d="M 423.76623376623377 -382.3740758834066 L 430.9090909090909 -389.51693302626376 L 438.05194805194805 -382.3740758834066 L 430.9090909090909 -375.2312187405495 Z"/>
    </clipPath>
    <clipPath id="clip42">
      <path d="M 467.4025974025974 -393.0719535363404 L 474.5454545454545 -400.21481067919757 L 481.68831168831167 -393.0719535363404 L 474.5454545454545 -385.9290963934833 Z"/>
    </clipPath>
    <clipPath id="clip43">
      <path d="M 511.038961038961 -406.8156543451121 L 518.1818181818182 -413.95851148796925 L 525.3246753246754 -406.8156543451121 L 518.1818181818182 -399.67279720225497 Z"/>
    </clipPath>
    <clipPath id="clip44">
      <path d="M 554.6753246753246 -389.3886880529773 L 561.8181818181818 -396.5315451958344 L 568.961038961039 -389.3886880529773 L 561.8181818181818 -382.2458309101201 Z"/>
    </clipPath>
    <clipPath id="clip45">
      <path d="M 598.3116883116883 -394.98248927970474 L 605.4545454545455 -402.12534642256185 L 612.5974025974026 -394.98248927970474 L 605.4545454545455 -387.8396321368476 Z"/>
    </clipPath>
    <clipPath id="clip46">
      <path d="M 641.9480519480519 -400.9267763122184 L 649.090909090909 -408.0696334550756 L 656.2337662337662 -400.9267763122184 L 649.090909090909 -393.7839191693613 Z"/>
    </clipPath>
    <clipPath id="clip47">
      <path d="M 685.5844155844156 -408.4640720838083 L 692.7272727272727 -415.60692922666544 L 699.8701298701299 -408.4640720838083 L 692.7272727272727 -401.32121494095117 Z"/>
    </clipPath>
    <clipPath id="clip48">
      <path d="M 729.2207792207791 -412.65652716712805 L 736.3636363636364 -419.79938430998516 L 743.5064935064936 -412.65652716712805 L 736.3636363636364 -405.51367002427094 Z"/>
    </clipPath>
    <clipPath id="clip49">
      <path d="M 294 -294 L 294 -526 L 786 -526 L 786 -294 Z"/>
    </clipPath>
    <clipPath id="clip50">
      <path d="M 280 -280 L 280 -540 L 800 -540 L 800 -280 Z"/>
    </clipPath>
    <clipPath id="clip51">
      <path d="M 290 -34 L 290 -136 L 708.4 -136 L 708.4 -34 Z"/>
    </clipPath>
    <clipPath id="clip52">
      <path d="M 308.0 -120.33333333333334 L 301.75 -130.33333333333334 L 314.25 -130.33333333333334 Z"/>
    </clipPath>
    <clipPath id="clip53">
      <path d="M 308.0 -100.33333333333334 L 301.75 -110.33333333333334 L 314.25 -110.33333333333334 Z"/>
    </clipPath>
    <clipPath id="clip54">
      <path d="M 301.75 -80.33333333333334 L 314.25 -80.33333333333334 L 308.0 -90.33333333333334 Z"/>
    </clipPath>
    <clipPath id="clip55">
      <path d="M 300.85714285714283 -65.33333333333334 L 308.0 -72.47619047619048 L 315.14285714285717 -65.33333333333334 L 308.0 -58.190476190476204 Z"/>
    </clipPath>
  </defs>
  <g style="stroke-linejoin:miter;font-size:8;font-family:Helvetica;fill:none;stroke-linecap:butt;stroke:rgb(0,0,0);font-stretch:normal;stroke-dasharray:none;font-weight:normal;font-style:normal;stroke-width:0.5;">
    <path d="M 300 -300 L 780 -300"/>
    <path d="M 300 -300 L 780 -300"/>
    <path d="M 300.0 -300 L 300.0 -288"/>
    <text style="font-size:12;font-style:italic;stroke:none;fill:rgb(0,0,0);" transform="rotate(90,300,-288)" x="300.0" y="-288.0">
      0
    </text>
    <path d="M 343.6363636363636 -300 L 343.6363636363636 -288"/>
    <text style="font-size:12;font-style:italic;stroke:none;fill:rgb(0,0,0);" transform="rotate(90,343.636,-288)" x="343.6363636363636" y="-288.0">
      200
    </text>
    <path d="M 387.27272727272725 -300 L 387.27272727272725 -288"/>
    <text style="font-size:12;font-style:italic;stroke:none;fill:rgb(0,0,0);" transform="rotate(90,387.273,-288)" x="387.27272727272725" y="-288.0">
      400
    </text>
    <path d="M 430.9090909090909 -300 L 430.9090909090909 -288"/>
    <text style="font-size:12;font-style:italic;stroke:none;fill:rgb(0,0,0);" transform="rotate(90,430.909,-288)" x="430.9090909090909" y="-288.0">
      600
    </text>
    <path d="M 474.5454545454545 -300 L 474.5454545454545 -288"/>
    <text style="font-size:12;font-style:italic;stroke:none;fill:rgb(0,0,0);" transform="rotate(90,474.545,-288)" x="474.5454545454545" y="-288.0">
      800
    </text>
    <path d="M 518.1818181818182 -300 L 518.1818181818182 -288"/>
    <text style="font-size:12;font-style:italic;stroke:none;fill:rgb(0,0,0);" transform="rotate(90,518.182,-288)" x="518.1818181818182" y="-288.0">
      1000
    </text>
    <path d="M 561.8181818181818 -300 L 561.8181818181818 -288"/>
    <text style="font-size:12;font-style:italic;stroke:none;fill:rgb(0,0,0);" transform="rotate(90,561.818,-288)" x="561.8181818181818" y="-288.0">
      1200
    </text>
    <path d="M 605.4545454545455 -300 L 605.4545454545455 -288"/>
    <text style="font-size:12;font-style:italic;stroke:none;fill:rgb(0,0,0);" transform="rotate(90,605.455,-288)" x="605.4545454545455" y="-288.0">
      1400
    </text>
    <path d="M 649.090909090909 -300 L 649.090909090909 -288"/>
    <text style="font-size:12;font-style:italic;stroke:none;fill:rgb(0,0,0);" transform="rotate(90,649.091,-288)" x="649.090909090909" y="-288.0">
      1600
    </text>
    <path d="M 692.7272727272727 -300 L 692.7272727272727 -288"/>
    <text style="font-size:12;font-style:italic;stroke:none;fill:rgb(0,0,0);" transform="rotate(90,692.727,-288)" x="692.7272727272727" y="-288.0">
      1800
    </text>
    <path d="M 736.3636363636364 -300 L 736.3636363636364 -288"/>
    <text style="font-size:12;font-style:italic;stroke:none;fill:rgb(0,0,0);" transform="rotate(90,736.364,-288)" x="736.3636363636364" y="-288.0">
      2000
    </text>
    <path d="M 780.0 -300 L 780.0 -288"/>
    <text style="font-size:12;font-style:italic;stroke:none;fill:rgb(0,0,0);" transform="rotate(90,780,-288)" x="780.0" y="-288.0">
      2200
    </text>
    <text style="font-size:16;stroke:none;fill:rgb(0,0,0);" x="524.44" y="-220.0">
      Size
    </text>
    <path d="M 300 -300 L 300 -520"/>
    <path d="M 300 -300.0 L 288 -300.0"/>
    <text style="font-size:12;font-style:italic;stroke:none;fill:rgb(0,0,0);" x="238.0" y="-294.0">
      0.00e+00
    </text>
    <path d="M 300 -344.0 L 288 -344.0"/>
    <text style="font-size:12;font-style:italic;stroke:none;fill:rgb(0,0,0);" x="238.0" y="-338.0">
      3.68e-09
    </text>
    <path d="M 300 -388.0 L 288 -388.0"/>
    <text style="font-size:12;font-style:italic;stroke:none;fill:rgb(0,0,0);" x="238.0" y="-382.0">
      7.37e-09
    </text>
    <path d="M 300 -432.0 L 288 -432.0"/>
    <text style="font-size:12;font-style:italic;stroke:none;fill:rgb(0,0,0);" x="238.0" y="-426.0">
      1.11e-08
    </text>
    <path d="M 300 -476.0 L 288 -476.0"/>
    <text style="font-size:12;font-style:italic;stroke:none;fill:rgb(0,0,0);" x="238.0" y="-470.0">
      1.47e-08
    </text>
    <path d="M 300 -520.0 L 288 -520.0"/>
    <text style="font-size:12;font-style:italic;stroke:none;fill:rgb(0,0,0);" x="238.0" y="-514.0">
      1.84e-08
    </text>
    <text style="font-size:16;stroke:none;fill:rgb(0,0,0);" transform="rotate(-90,200,-340.648)" x="200.0" y="-340.648">
      Average time (sec.)
    </text>
    <g style="clip-path:url(#clip0);">
      <g style="clip-path:url(#clip1);">
        <path d="M 343.6363636363636 -500.5340064050372 L 387.27272727272725 -508.71280464636595 L 430.9090909090909 -499.97752808988764 L 474.5454545454545 -505.88742332953376 L 518.1818181818182 -496.63388156109215 L 561.8181818181818 -506.9323128697823 L 605.4545454545455 -511.7614937849428 L 649.090909090909 -519.5151712533246 L 692.7272727272727 -520.0 L 736.3636363636364 -517.9460457037399" style="stroke:rgb(126,126,126);stroke-width:0.4;stroke-dasharray:1.5,1.5;"/>
      </g>
      <g style="clip-path:url(#clip2);">
        <g style="fill:rgb(0,0,0);clip-path:url(#clip3);">
          <path d="M 337.3863636363636 -495.5340064050372 L 337.3863636363636 -505.5340064050372 L 349.8863636363636 -505.5340064050372 L 349.8863636363636 -495.5340064050372 Z" style="stroke:none;"/>
        </g>
        <g>
          <path d="M 343.6363636363636 -495.5340064050372 L 337.3863636363636 -505.5340064050372 L 349.8863636363636 -505.5340064050372 Z"/>
          <g style="fill:rgb(0,0,0);clip-path:url(#clip4);">
            <path d="M 381.02272727272725 -503.71280464636595 L 381.02272727272725 -513.712804646366 L 393.52272727272725 -513.712804646366 L 393.52272727272725 -503.71280464636595 Z" style="stroke:none;"/>
          </g>
          <g>
            <path d="M 387.27272727272725 -503.71280464636595 L 381.02272727272725 -513.712804646366 L 393.52272727272725 -513.712804646366 Z"/>
            <g style="fill:rgb(0,0,0);clip-path:url(#clip5);">
              <path d="M 424.6590909090909 -494.97752808988764 L 424.6590909090909 -504.97752808988764 L 437.1590909090909 -504.97752808988764 L 437.1590909090909 -494.97752808988764 Z" style="stroke:none;"/>
            </g>
            <g>
              <path d="M 430.9090909090909 -494.97752808988764 L 424.6590909090909 -504.97752808988764 L 437.1590909090909 -504.97752808988764 Z"/>
              <g style="fill:rgb(0,0,0);clip-path:url(#clip6);">
                <path d="M 468.2954545454545 -500.88742332953376 L 468.2954545454545 -510.88742332953376 L 480.7954545454545 -510.88742332953376 L 480.7954545454545 -500.88742332953376 Z" style="stroke:none;"/>
              </g>
              <g>
                <path d="M 474.5454545454545 -500.88742332953376 L 468.2954545454545 -510.88742332953376 L 480.7954545454545 -510.88742332953376 Z"/>
                <g style="fill:rgb(0,0,0);clip-path:url(#clip7);">
                  <path d="M 511.9318181818182 -491.63388156109215 L 511.9318181818182 -501.63388156109215 L 524.4318181818182 -501.63388156109215 L 524.4318181818182 -491.63388156109215 Z" style="stroke:none;"/>
                </g>
                <g>
                  <path d="M 518.1818181818182 -491.63388156109215 L 511.9318181818182 -501.63388156109215 L 524.4318181818182 -501.63388156109215 Z"/>
                  <g style="fill:rgb(0,0,0);clip-path:url(#clip8);">
                    <path d="M 555.5681818181818 -501.9323128697823 L 555.5681818181818 -511.9323128697823 L 568.0681818181818 -511.9323128697823 L 568.0681818181818 -501.9323128697823 Z" style="stroke:none;"/>
                  </g>
                  <g>
                    <path d="M 561.8181818181818 -501.9323128697823 L 555.5681818181818 -511.9323128697823 L 568.0681818181818 -511.9323128697823 Z"/>
                    <g style="fill:rgb(0,0,0);clip-path:url(#clip9);">
                      <path d="M 599.2045454545455 -506.7614937849428 L 599.2045454545455 -516.7614937849428 L 611.7045454545455 -516.7614937849428 L 611.7045454545455 -506.7614937849428 Z" style="stroke:none;"/>
                    </g>
                    <g>
                      <path d="M 605.4545454545455 -506.7614937849428 L 599.2045454545455 -516.7614937849428 L 611.7045454545455 -516.7614937849428 Z"/>
                      <g style="fill:rgb(0,0,0);clip-path:url(#clip10);">
                        <path d="M 642.840909090909 -514.5151712533246 L 642.840909090909 -524.5151712533246 L 655.340909090909 -524.5151712533246 L 655.340909090909 -514.5151712533246 Z" style="stroke:none;"/>
                      </g>
                      <g>
                        <path d="M 649.090909090909 -514.5151712533246 L 642.840909090909 -524.5151712533246 L 655.340909090909 -524.5151712533246 Z"/>
                        <g style="fill:rgb(0,0,0);clip-path:url(#clip11);">
                          <path d="M 686.4772727272727 -515.0 L 686.4772727272727 -525.0 L 698.9772727272727 -525.0 L 698.9772727272727 -515.0 Z" style="stroke:none;"/>
                        </g>
                        <g>
                          <path d="M 692.7272727272727 -515.0 L 686.4772727272727 -525.0 L 698.9772727272727 -525.0 Z"/>
                          <g style="fill:rgb(0,0,0);clip-path:url(#clip12);">
                            <path d="M 730.1136363636364 -512.9460457037399 L 730.1136363636364 -522.9460457037399 L 742.6136363636364 -522.9460457037399 L 742.6136363636364 -512.9460457037399 Z" style="stroke:none;"/>
                          </g>
                          <g>
                            <path d="M 736.3636363636364 -512.9460457037399 L 730.1136363636364 -522.9460457037399 L 742.6136363636364 -522.9460457037399 Z"/>
                          </g>
                        </g>
                      </g>
                    </g>
                  </g>
                </g>
              </g>
            </g>
          </g>
        </g>
      </g>
      <g style="clip-path:url(#clip13);">
        <path d="M 343.6363636363636 -466.4192585355263 L 387.27272727272725 -512.4194756554307 L 430.9090909090909 -495.74662107148674 L 474.5454545454545 -517.854095424198 L 518.1818181818182 -488.94110622591324 L 561.8181818181818 -498.7284372794876 L 605.4545454545455 -506.83200347391846 L 649.090909090909 -514.9092981599088 L 692.7272727272727 -487.52244477012437 L 736.3636363636364 -493.78581121424304" style="stroke:rgb(0,138,0);stroke-width:2;"/>
      </g>
      <g style="clip-path:url(#clip14);">
        <g style="fill:rgb(255,255,255);clip-path:url(#clip15);">
          <path d="M 337.3863636363636 -461.4192585355263 L 337.3863636363636 -471.4192585355263 L 349.8863636363636 -471.4192585355263 L 349.8863636363636 -461.4192585355263 Z" style="stroke:none;"/>
        </g>
        <g>
          <path d="M 343.6363636363636 -461.4192585355263 L 337.3863636363636 -471.4192585355263 L 349.8863636363636 -471.4192585355263 Z"/>
          <g style="fill:rgb(255,255,255);clip-path:url(#clip16);">
            <path d="M 381.02272727272725 -507.41947565543074 L 381.02272727272725 -517.4194756554307 L 393.52272727272725 -517.4194756554307 L 393.52272727272725 -507.41947565543074 Z" style="stroke:none;"/>
          </g>
          <g>
            <path d="M 387.27272727272725 -507.41947565543074 L 381.02272727272725 -517.4194756554307 L 393.52272727272725 -517.4194756554307 Z"/>
            <g style="fill:rgb(255,255,255);clip-path:url(#clip17);">
              <path d="M 424.6590909090909 -490.74662107148674 L 424.6590909090909 -500.74662107148674 L 437.1590909090909 -500.74662107148674 L 437.1590909090909 -490.74662107148674 Z" style="stroke:none;"/>
            </g>
            <g>
              <path d="M 430.9090909090909 -490.74662107148674 L 424.6590909090909 -500.74662107148674 L 437.1590909090909 -500.74662107148674 Z"/>
              <g style="fill:rgb(255,255,255);clip-path:url(#clip18);">
                <path d="M 468.2954545454545 -512.854095424198 L 468.2954545454545 -522.854095424198 L 480.7954545454545 -522.854095424198 L 480.7954545454545 -512.854095424198 Z" style="stroke:none;"/>
              </g>
              <g>
                <path d="M 474.5454545454545 -512.854095424198 L 468.2954545454545 -522.854095424198 L 480.7954545454545 -522.854095424198 Z"/>
                <g style="fill:rgb(255,255,255);clip-path:url(#clip19);">
                  <path d="M 511.9318181818182 -483.94110622591324 L 511.9318181818182 -493.94110622591324 L 524.4318181818182 -493.94110622591324 L 524.4318181818182 -483.94110622591324 Z" style="stroke:none;"/>
                </g>
                <g>
                  <path d="M 518.1818181818182 -483.94110622591324 L 511.9318181818182 -493.94110622591324 L 524.4318181818182 -493.94110622591324 Z"/>
                  <g style="fill:rgb(255,255,255);clip-path:url(#clip20);">
                    <path d="M 555.5681818181818 -493.7284372794876 L 555.5681818181818 -503.7284372794876 L 568.0681818181818 -503.7284372794876 L 568.0681818181818 -493.7284372794876 Z" style="stroke:none;"/>
                  </g>
                  <g>
                    <path d="M 561.8181818181818 -493.7284372794876 L 555.5681818181818 -503.7284372794876 L 568.0681818181818 -503.7284372794876 Z"/>
                    <g style="fill:rgb(255,255,255);clip-path:url(#clip21);">
                      <path d="M 599.2045454545455 -501.83200347391846 L 599.2045454545455 -511.83200347391846 L 611.7045454545455 -511.83200347391846 L 611.7045454545455 -501.83200347391846 Z" style="stroke:none;"/>
                    </g>
                    <g>
                      <path d="M 605.4545454545455 -501.83200347391846 L 599.2045454545455 -511.83200347391846 L 611.7045454545455 -511.83200347391846 Z"/>
                      <g style="fill:rgb(255,255,255);clip-path:url(#clip22);">
                        <path d="M 642.840909090909 -509.9092981599088 L 642.840909090909 -519.9092981599088 L 655.340909090909 -519.9092981599088 L 655.340909090909 -509.9092981599088 Z" style="stroke:none;"/>
                      </g>
                      <g>
                        <path d="M 649.090909090909 -509.9092981599088 L 642.840909090909 -519.9092981599088 L 655.340909090909 -519.9092981599088 Z"/>
                        <g style="fill:rgb(255,255,255);clip-path:url(#clip23);">
                          <path d="M 686.4772727272727 -482.52244477012437 L 686.4772727272727 -492.52244477012437 L 698.9772727272727 -492.52244477012437 L 698.9772727272727 -482.52244477012437 Z" style="stroke:none;"/>
                        </g>
                        <g>
                          <path d="M 692.7272727272727 -482.52244477012437 L 686.4772727272727 -492.52244477012437 L 698.9772727272727 -492.52244477012437 Z"/>
                          <g style="fill:rgb(255,255,255);clip-path:url(#clip24);">
                            <path d="M 730.1136363636364 -488.78581121424304 L 730.1136363636364 -498.78581121424304 L 742.6136363636364 -498.78581121424304 L 742.6136363636364 -488.78581121424304 Z" style="stroke:none;"/>
                          </g>
                          <g>
                            <path d="M 736.3636363636364 -488.78581121424304 L 730.1136363636364 -498.78581121424304 L 742.6136363636364 -498.78581121424304 Z"/>
                          </g>
                        </g>
                      </g>
                    </g>
                  </g>
                </g>
              </g>
            </g>
          </g>
        </g>
      </g>
      <g style="clip-path:url(#clip25);">
        <path d="M 343.6363636363636 -478.97942788905175 L 387.27272727272725 -474.4380394072627 L 430.9090909090909 -464.3366444118765 L 474.5454545454545 -477.80795744449875 L 518.1818181818182 -457.309015904033 L 561.8181818181818 -469.2088150681214 L 605.4545454545455 -473.68213645986 L 649.090909090909 -481.13010910275204 L 692.7272727272727 -456.7023828909515 L 736.3636363636364 -460.89507680616623" style="stroke:rgb(0,138,0);stroke-width:2;"/>
      </g>
      <g style="clip-path:url(#clip26);">
        <g style="fill:rgb(255,255,255);clip-path:url(#clip27);">
          <path d="M 337.3863636363636 -473.97942788905175 L 337.3863636363636 -483.97942788905175 L 349.8863636363636 -483.97942788905175 L 349.8863636363636 -473.97942788905175 Z" style="stroke:none;"/>
        </g>
        <g>
          <path d="M 337.3863636363636 -473.97942788905175 L 349.8863636363636 -473.97942788905175 L 343.6363636363636 -483.97942788905175 Z"/>
          <g style="fill:rgb(255,255,255);clip-path:url(#clip28);">
            <path d="M 381.02272727272725 -469.4380394072627 L 381.02272727272725 -479.4380394072627 L 393.52272727272725 -479.4380394072627 L 393.52272727272725 -469.4380394072627 Z" style="stroke:none;"/>
          </g>
          <g>
            <path d="M 381.02272727272725 -469.4380394072627 L 393.52272727272725 -469.4380394072627 L 387.27272727272725 -479.4380394072627 Z"/>
            <g style="fill:rgb(255,255,255);clip-path:url(#clip29);">
              <path d="M 424.6590909090909 -459.3366444118765 L 424.6590909090909 -469.3366444118765 L 437.1590909090909 -469.3366444118765 L 437.1590909090909 -459.3366444118765 Z" style="stroke:none;"/>
            </g>
            <g>
              <path d="M 424.6590909090909 -459.3366444118765 L 437.1590909090909 -459.3366444118765 L 430.9090909090909 -469.3366444118765 Z"/>
              <g style="fill:rgb(255,255,255);clip-path:url(#clip30);">
                <path d="M 468.2954545454545 -472.80795744449875 L 468.2954545454545 -482.80795744449875 L 480.7954545454545 -482.80795744449875 L 480.7954545454545 -472.80795744449875 Z" style="stroke:none;"/>
              </g>
              <g>
                <path d="M 468.2954545454545 -472.80795744449875 L 480.7954545454545 -472.80795744449875 L 474.5454545454545 -482.80795744449875 Z"/>
                <g style="fill:rgb(255,255,255);clip-path:url(#clip31);">
                  <path d="M 511.9318181818182 -452.309015904033 L 511.9318181818182 -462.309015904033 L 524.4318181818182 -462.309015904033 L 524.4318181818182 -452.309015904033 Z" style="stroke:none;"/>
                </g>
                <g>
                  <path d="M 511.9318181818182 -452.309015904033 L 524.4318181818182 -452.309015904033 L 518.1818181818182 -462.309015904033 Z"/>
                  <g style="fill:rgb(255,255,255);clip-path:url(#clip32);">
                    <path d="M 555.5681818181818 -464.2088150681214 L 555.5681818181818 -474.2088150681214 L 568.0681818181818 -474.2088150681214 L 568.0681818181818 -464.2088150681214 Z" style="stroke:none;"/>
                  </g>
                  <g>
                    <path d="M 555.5681818181818 -464.2088150681214 L 568.0681818181818 -464.2088150681214 L 561.8181818181818 -474.2088150681214 Z"/>
                    <g style="fill:rgb(255,255,255);clip-path:url(#clip33);">
                      <path d="M 599.2045454545455 -468.68213645986 L 599.2045454545455 -478.68213645986 L 611.7045454545455 -478.68213645986 L 611.7045454545455 -468.68213645986 Z" style="stroke:none;"/>
                    </g>
                    <g>
                      <path d="M 599.2045454545455 -468.68213645986 L 611.7045454545455 -468.68213645986 L 605.4545454545455 -478.68213645986 Z"/>
                      <g style="fill:rgb(255,255,255);clip-path:url(#clip34);">
                        <path d="M 642.840909090909 -476.13010910275204 L 642.840909090909 -486.13010910275204 L 655.340909090909 -486.13010910275204 L 655.340909090909 -476.13010910275204 Z" style="stroke:none;"/>
                      </g>
                      <g>
                        <path d="M 642.840909090909 -476.13010910275204 L 655.340909090909 -476.13010910275204 L 649.090909090909 -486.13010910275204 Z"/>
                        <g style="fill:rgb(255,255,255);clip-path:url(#clip35);">
                          <path d="M 686.4772727272727 -451.7023828909515 L 686.4772727272727 -461.7023828909515 L 698.9772727272727 -461.7023828909515 L 698.9772727272727 -451.7023828909515 Z" style="stroke:none;"/>
                        </g>
                        <g>
                          <path d="M 686.4772727272727 -451.7023828909515 L 698.9772727272727 -451.7023828909515 L 692.7272727272727 -461.7023828909515 Z"/>
                          <g style="fill:rgb(255,255,255);clip-path:url(#clip36);">
                            <path d="M 730.1136363636364 -455.89507680616623 L 730.1136363636364 -465.89507680616623 L 742.6136363636364 -465.89507680616623 L 742.6136363636364 -455.89507680616623 Z" style="stroke:none;"/>
                          </g>
                          <g>
                            <path d="M 730.1136363636364 -455.89507680616623 L 742.6136363636364 -455.89507680616623 L 736.3636363636364 -465.89507680616623 Z"/>
                          </g>
                        </g>
                      </g>
                    </g>
                  </g>
                </g>
              </g>
            </g>
          </g>
        </g>
      </g>
      <g style="clip-path:url(#clip37);">
        <path d="M 343.6363636363636 -390.0304293546111 L 387.27272727272725 -391.78023123269827 L 430.9090909090909 -382.3740758834066 L 474.5454545454545 -393.0719535363404 L 518.1818181818182 -406.8156543451121 L 561.8181818181818 -389.3886880529773 L 605.4545454545455 -394.98248927970474 L 649.090909090909 -400.9267763122184 L 692.7272727272727 -408.4640720838083 L 736.3636363636364 -412.65652716712805" style="stroke:rgb(0,0,128);stroke-width:2;"/>
      </g>
      <g style="clip-path:url(#clip38);">
        <g style="fill:rgb(255,255,255);clip-path:url(#clip39);">
          <path d="M 336.4935064935065 -382.88757221175393 L 336.4935064935065 -397.1732864974682 L 350.7792207792208 -397.1732864974682 L 350.7792207792208 -382.88757221175393 Z" style="stroke:none;"/>
        </g>
        <g>
          <path d="M 336.4935064935065 -390.0304293546111 L 343.6363636363636 -397.1732864974682 L 350.7792207792208 -390.0304293546111 L 343.6363636363636 -382.88757221175393 Z"/>
          <g style="fill:rgb(255,255,255);clip-path:url(#clip40);">
            <path d="M 380.12987012987014 -384.63737408984116 L 380.12987012987014 -398.9230883755554 L 394.4155844155844 -398.9230883755554 L 394.4155844155844 -384.63737408984116 Z" style="stroke:none;"/>
          </g>
          <g>
            <path d="M 380.12987012987014 -391.78023123269827 L 387.27272727272725 -398.9230883755554 L 394.4155844155844 -391.78023123269827 L 387.27272727272725 -384.63737408984116 Z"/>
            <g style="fill:rgb(255,255,255);clip-path:url(#clip41);">
              <path d="M 423.76623376623377 -375.2312187405495 L 423.76623376623377 -389.51693302626376 L 438.05194805194805 -389.51693302626376 L 438.05194805194805 -375.2312187405495 Z" style="stroke:none;"/>
            </g>
            <g>
              <path d="M 423.76623376623377 -382.3740758834066 L 430.9090909090909 -389.51693302626376 L 438.05194805194805 -382.3740758834066 L 430.9090909090909 -375.2312187405495 Z"/>
              <g style="fill:rgb(255,255,255);clip-path:url(#clip42);">
                <path d="M 467.4025974025974 -385.9290963934833 L 467.4025974025974 -400.21481067919757 L 481.68831168831167 -400.21481067919757 L 481.68831168831167 -385.9290963934833 Z" style="stroke:none;"/>
              </g>
              <g>
                <path d="M 467.4025974025974 -393.0719535363404 L 474.5454545454545 -400.21481067919757 L 481.68831168831167 -393.0719535363404 L 474.5454545454545 -385.9290963934833 Z"/>
                <g style="fill:rgb(255,255,255);clip-path:url(#clip43);">
                  <path d="M 511.038961038961 -399.67279720225497 L 511.038961038961 -413.95851148796925 L 525.3246753246754 -413.95851148796925 L 525.3246753246754 -399.67279720225497 Z" style="stroke:none;"/>
                </g>
                <g>
                  <path d="M 511.038961038961 -406.8156543451121 L 518.1818181818182 -413.95851148796925 L 525.3246753246754 -406.8156543451121 L 518.1818181818182 -399.67279720225497 Z"/>
                  <g style="fill:rgb(255,255,255);clip-path:url(#clip44);">
                    <path d="M 554.6753246753246 -382.2458309101201 L 554.6753246753246 -396.5315451958344 L 568.961038961039 -396.5315451958344 L 568.961038961039 -382.2458309101201 Z" style="stroke:none;"/>
                  </g>
                  <g>
                    <path d="M 554.6753246753246 -389.3886880529773 L 561.8181818181818 -396.5315451958344 L 568.961038961039 -389.3886880529773 L 561.8181818181818 -382.2458309101201 Z"/>
                    <g style="fill:rgb(255,255,255);clip-path:url(#clip45);">
                      <path d="M 598.3116883116883 -387.8396321368476 L 598.3116883116883 -402.12534642256185 L 612.5974025974026 -402.12534642256185 L 612.5974025974026 -387.8396321368476 Z" style="stroke:none;"/>
                    </g>
                    <g>
                      <path d="M 598.3116883116883 -394.98248927970474 L 605.4545454545455 -402.12534642256185 L 612.5974025974026 -394.98248927970474 L 605.4545454545455 -387.8396321368476 Z"/>
                      <g style="fill:rgb(255,255,255);clip-path:url(#clip46);">
                        <path d="M 641.9480519480519 -393.7839191693613 L 641.9480519480519 -408.0696334550756 L 656.2337662337662 -408.0696334550756 L 656.2337662337662 -393.7839191693613 Z" style="stroke:none;"/>
                      </g>
                      <g>
                        <path d="M 641.9480519480519 -400.9267763122184 L 649.090909090909 -408.0696334550756 L 656.2337662337662 -400.9267763122184 L 649.090909090909 -393.7839191693613 Z"/>
                        <g style="fill:rgb(255,255,255);clip-path:url(#clip47);">
                          <path d="M 685.5844155844156 -401.32121494095117 L 685.5844155844156 -415.60692922666544 L 699.8701298701299 -415.60692922666544 L 699.8701298701299 -401.32121494095117 Z" style="stroke:none;"/>
                        </g>
                        <g>
                          <path d="M 685.5844155844156 -408.4640720838083 L 692.7272727272727 -415.60692922666544 L 699.8701298701299 -408.4640720838083 L 692.7272727272727 -401.32121494095117 Z"/>
                          <g style="fill:rgb(255,255,255);clip-path:url(#clip48);">
                            <path d="M 729.2207792207791 -405.51367002427094 L 729.2207792207791 -419.79938430998516 L 743.5064935064936 -419.79938430998516 L 743.5064935064936 -405.51367002427094 Z" style="stroke:none;"/>
                          </g>
                          <g>
                            <path d="M 729.2207792207791 -412.65652716712805 L 736.3636363636364 -419.79938430998516 L 743.5064935064936 -412.65652716712805 L 736.3636363636364 -405.51367002427094 Z"/>
                          </g>
                        </g>
                      </g>
                    </g>
                  </g>
                </g>
              </g>
            </g>
          </g>
        </g>
      </g>
      <g style="clip-path:url(#clip49);">
        <path d="M 343.6363636363636 -362.13366986918527 L 387.27272727272725 -365.8742550073278 L 430.9090909090909 -363.1755740107474 L 474.5454545454545 -369.4186397437985 L 518.1818181818182 -380.2119307387505 L 561.8181818181818 -370.80625305324867 L 605.4545454545455 -374.69407805460565 L 649.090909090909 -376.9590403300223 L 692.7272727272727 -382.2055799815448 L 736.3636363636364 -387.19800249687887" style="stroke:rgb(0,0,128);stroke-width:2;"/>
      </g>
      <g style="clip-path:url(#clip50);">
        <path d="M 338.6363636363636 -357.13366986918527 L 348.6363636363636 -367.13366986918527" style="stroke-width:0.7;"/>
        <path d="M 348.6363636363636 -357.13366986918527 L 338.6363636363636 -367.13366986918527" style="stroke-width:0.7;"/>
        <path d="M 382.27272727272725 -360.8742550073278 L 392.27272727272725 -370.8742550073278" style="stroke-width:0.7;"/>
        <path d="M 392.27272727272725 -360.8742550073278 L 382.27272727272725 -370.8742550073278" style="stroke-width:0.7;"/>
        <path d="M 425.9090909090909 -358.1755740107474 L 435.9090909090909 -368.1755740107474" style="stroke-width:0.7;"/>
        <path d="M 435.9090909090909 -358.1755740107474 L 425.9090909090909 -368.1755740107474" style="stroke-width:0.7;"/>
        <path d="M 469.5454545454545 -364.4186397437985 L 479.5454545454545 -374.4186397437985" style="stroke-width:0.7;"/>
        <path d="M 479.5454545454545 -364.4186397437985 L 469.5454545454545 -374.4186397437985" style="stroke-width:0.7;"/>
        <path d="M 513.1818181818182 -375.2119307387505 L 523.1818181818182 -385.2119307387505" style="stroke-width:0.7;"/>
        <path d="M 523.1818181818182 -375.2119307387505 L 513.1818181818182 -385.2119307387505" style="stroke-width:0.7;"/>
        <path d="M 556.8181818181818 -365.80625305324867 L 566.8181818181818 -375.80625305324867" style="stroke-width:0.7;"/>
        <path d="M 566.8181818181818 -365.80625305324867 L 556.8181818181818 -375.80625305324867" style="stroke-width:0.7;"/>
        <path d="M 600.4545454545455 -369.69407805460565 L 610.4545454545455 -379.69407805460565" style="stroke-width:0.7;"/>
        <path d="M 610.4545454545455 -369.69407805460565 L 600.4545454545455 -379.69407805460565" style="stroke-width:0.7;"/>
        <path d="M 644.090909090909 -371.9590403300223 L 654.090909090909 -381.9590403300223" style="stroke-width:0.7;"/>
        <path d="M 654.090909090909 -371.9590403300223 L 644.090909090909 -381.9590403300223" style="stroke-width:0.7;"/>
        <path d="M 687.7272727272727 -377.2055799815448 L 697.7272727272727 -387.2055799815448" style="stroke-width:0.7;"/>
        <path d="M 697.7272727272727 -377.2055799815448 L 687.7272727272727 -387.2055799815448" style="stroke-width:0.7;"/>
        <path d="M 731.3636363636364 -382.19800249687887 L 741.3636363636364 -392.19800249687887" style="stroke-width:0.7;"/>
        <path d="M 741.3636363636364 -382.19800249687887 L 731.3636363636364 -392.19800249687887" style="stroke-width:0.7;"/>
      </g>
    </g>
    <g style="fill:rgb(255,255,255);clip-path:url(#clip51);">
      <path d="M 290 -34 L 290 -136 L 708.4 -136 L 708.4 -34 Z" style="stroke:none;"/>
    </g>
    <path d="M 300 -125.33333333333334 L 316 -125.33333333333334" style="stroke:rgb(126,126,126);stroke-width:0.4;stroke-dasharray:1.5,1.5;"/>
    <g style="fill:rgb(0,0,0);clip-path:url(#clip52);">
      <path d="M 301.75 -120.33333333333334 L 301.75 -130.33333333333334 L 314.25 -130.33333333333334 L 314.25 -120.33333333333334 Z" style="stroke:none;"/>
    </g>
    <g>
      <path d="M 308.0 -120.33333333333334 L 301.75 -130.33333333333334 L 314.25 -130.33333333333334 Z"/>
      <text style="font-size:16;stroke:none;fill:rgb(0,0,0);" x="316.0" y="-120.0">
        n_hash_map_ncah
      </text>
      <path d="M 300 -105.33333333333334 L 316 -105.33333333333334" style="stroke:rgb(0,138,0);stroke-width:2;"/>
      <g style="fill:rgb(255,255,255);clip-path:url(#clip53);">
        <path d="M 301.75 -100.33333333333334 L 301.75 -110.33333333333334 L 314.25 -110.33333333333334 L 314.25 -100.33333333333334 Z" style="stroke:none;"/>
      </g>
      <g>
        <path d="M 308.0 -100.33333333333334 L 301.75 -110.33333333333334 L 314.25 -110.33333333333334 Z"/>
        <text style="font-size:16;stroke:none;fill:rgb(0,0,0);" x="316.0" y="-100.0">
          cc_hash_mod_prime_nea_lc_1div8_1div1_nsth_map
        </text>
        <path d="M 300 -85.33333333333334 L 316 -85.33333333333334" style="stroke:rgb(0,138,0);stroke-width:2;"/>
        <g style="fill:rgb(255,255,255);clip-path:url(#clip54);">
          <path d="M 301.75 -80.33333333333334 L 301.75 -90.33333333333334 L 314.25 -90.33333333333334 L 314.25 -80.33333333333334 Z" style="stroke:none;"/>
        </g>
        <g>
          <path d="M 301.75 -80.33333333333334 L 314.25 -80.33333333333334 L 308.0 -90.33333333333334 Z"/>
          <text style="font-size:16;stroke:none;fill:rgb(0,0,0);" x="316.0" y="-80.0">
            cc_hash_mod_prime_nea_lc_1div8_1div2_nsth_map
          </text>
          <path d="M 300 -65.33333333333334 L 316 -65.33333333333334" style="stroke:rgb(0,0,128);stroke-width:2;"/>
          <g style="fill:rgb(255,255,255);clip-path:url(#clip55);">
            <path d="M 300.85714285714283 -58.190476190476204 L 300.85714285714283 -72.47619047619048 L 315.14285714285717 -72.47619047619048 L 315.14285714285717 -58.190476190476204 Z" style="stroke:none;"/>
          </g>
          <g>
            <path d="M 300.85714285714283 -65.33333333333334 L 308.0 -72.47619047619048 L 315.14285714285717 -65.33333333333334 L 308.0 -58.190476190476204 Z"/>
            <text style="font-size:16;stroke:none;fill:rgb(0,0,0);" x="316.0" y="-60.0">
              cc_hash_mask_exp_nea_lc_1div8_1div1_nsth_map
            </text>
            <path d="M 300 -45.33333333333334 L 316 -45.33333333333334" style="stroke:rgb(0,0,128);stroke-width:2;"/>
            <path d="M 303.0 -40.33333333333337 L 313.0 -50.33333333333337" style="stroke-width:0.7;"/>
            <path d="M 313.0 -40.33333333333337 L 303.0 -50.33333333333337" style="stroke-width:0.7;"/>
            <text style="font-size:16;stroke:none;fill:rgb(0,0,0);" x="316.0" y="-40.0">
              cc_hash_mask_exp_nea_lc_1div8_1div2_nsth_map
            </text>
          </g>
        </g>
      </g>
    </g>
  </g>
</svg>
