<?xml version="1.0" ?>
<!--Created by PyChart 1.39 Copyright 1999-2006 Yasushi Saito-->
<svg viewBox="178 -532 620 484" xmlns="http://www.w3.org/2000/svg" xmlns:xlink="http://www.w3.org/1999/xlink">
  <defs>
    <clipPath id="clip0">
      <path d="M 294 -294 L 294 -526 L 786 -526 L 786 -294 Z"/>
    </clipPath>
    <clipPath id="clip1">
      <path d="M 294 -294 L 294 -526 L 786 -526 L 786 -294 Z"/>
    </clipPath>
    <clipPath id="clip2">
      <path d="M 280 -280 L 280 -540 L 800 -540 L 800 -280 Z"/>
    </clipPath>
    <clipPath id="clip3">
      <path d="M 336.4935064935065 -420.07896179633497 L 343.6363636363636 -427.2218189391921 L 350.7792207792208 -420.07896179633497 L 343.6363636363636 -412.9361046534778 Z"/>
    </clipPath>
    <clipPath id="clip4">
      <path d="M 380.12987012987014 -423.8026016349809 L 387.27272727272725 -430.945458777838 L 394.4155844155844 -423.8026016349809 L 387.27272727272725 -416.65974449212376 Z"/>
    </clipPath>
    <clipPath id="clip5">
      <path d="M 423.76623376623377 -393.37670412604484 L 430.9090909090909 -400.51956126890195 L 438.05194805194805 -393.37670412604484 L 430.9090909090909 -386.23384698318773 Z"/>
    </clipPath>
    <clipPath id="clip6">
      <path d="M 467.4025974025974 -423.1900810752036 L 474.5454545454545 -430.33293821806075 L 481.68831168831167 -423.1900810752036 L 474.5454545454545 -416.04722393234647 Z"/>
    </clipPath>
    <clipPath id="clip7">
      <path d="M 511.038961038961 -454.30396922388945 L 518.1818181818182 -461.4468263667466 L 525.3246753246754 -454.30396922388945 L 518.1818181818182 -447.16111208103234 Z"/>
    </clipPath>
    <clipPath id="clip8">
      <path d="M 554.6753246753246 -402.22759252282634 L 561.8181818181818 -409.37044966568345 L 568.961038961039 -402.22759252282634 L 561.8181818181818 -395.0847353799692 Z"/>
    </clipPath>
    <clipPath id="clip9">
      <path d="M 598.3116883116883 -427.0329905938062 L 605.4545454545455 -434.17584773666334 L 612.5974025974026 -427.0329905938062 L 605.4545454545455 -419.89013345094907 Z"/>
    </clipPath>
    <clipPath id="clip10">
      <path d="M 641.9480519480519 -454.90570834367065 L 649.090909090909 -462.0485654865278 L 656.2337662337662 -454.90570834367065 L 649.090909090909 -447.76285120081354 Z"/>
    </clipPath>
    <clipPath id="clip11">
      <path d="M 685.5844155844156 -486.24668057227393 L 692.7272727272727 -493.3895377151311 L 699.8701298701299 -486.24668057227393 L 692.7272727272727 -479.1038234294168 Z"/>
    </clipPath>
    <clipPath id="clip12">
      <path d="M 729.2207792207791 -520.0 L 736.3636363636364 -527.1428571428571 L 743.5064935064936 -520.0 L 736.3636363636364 -512.8571428571429 Z"/>
    </clipPath>
    <clipPath id="clip13">
      <path d="M 294 -294 L 294 -526 L 786 -526 L 786 -294 Z"/>
    </clipPath>
    <clipPath id="clip14">
      <path d="M 280 -280 L 280 -540 L 800 -540 L 800 -280 Z"/>
    </clipPath>
    <clipPath id="clip15">
      <path d="M 337.3863636363636 -314.3311219129705 L 349.8863636363636 -314.3311219129705 L 343.6363636363636 -324.3311219129705 Z"/>
    </clipPath>
    <clipPath id="clip16">
      <path d="M 381.02272727272725 -315.4668792325575 L 393.52272727272725 -315.4668792325575 L 387.27272727272725 -325.4668792325575 Z"/>
    </clipPath>
    <clipPath id="clip17">
      <path d="M 424.6590909090909 -313.23734482536827 L 437.1590909090909 -313.23734482536827 L 430.9090909090909 -323.23734482536827 Z"/>
    </clipPath>
    <clipPath id="clip18">
      <path d="M 468.2954545454545 -315.5069727125429 L 480.7954545454545 -315.5069727125429 L 474.5454545454545 -325.5069727125429 Z"/>
    </clipPath>
    <clipPath id="clip19">
      <path d="M 511.9318181818182 -312.27793143371713 L 524.4318181818182 -312.27793143371713 L 518.1818181818182 -322.27793143371713 Z"/>
    </clipPath>
    <clipPath id="clip20">
      <path d="M 555.5681818181818 -313.22494616937274 L 568.0681818181818 -313.22494616937274 L 561.8181818181818 -323.22494616937274 Z"/>
    </clipPath>
    <clipPath id="clip21">
      <path d="M 599.2045454545455 -313.9978406490917 L 611.7045454545455 -313.9978406490917 L 605.4545454545455 -323.9978406490917 Z"/>
    </clipPath>
    <clipPath id="clip22">
      <path d="M 642.840909090909 -315.3247663766092 L 655.340909090909 -315.3247663766092 L 649.090909090909 -325.3247663766092 Z"/>
    </clipPath>
    <clipPath id="clip23">
      <path d="M 686.4772727272727 -311.502745897999 L 698.9772727272727 -311.502745897999 L 692.7272727272727 -321.502745897999 Z"/>
    </clipPath>
    <clipPath id="clip24">
      <path d="M 730.1136363636364 -312.11560337777615 L 742.6136363636364 -312.11560337777615 L 736.3636363636364 -322.11560337777615 Z"/>
    </clipPath>
    <clipPath id="clip25">
      <path d="M 294 -294 L 294 -526 L 786 -526 L 786 -294 Z"/>
    </clipPath>
    <clipPath id="clip26">
      <path d="M 280 -280 L 280 -540 L 800 -540 L 800 -280 Z"/>
    </clipPath>
    <clipPath id="clip27">
      <path d="M 343.6363636363636 -306.4457788518379 L 337.3863636363636 -316.4457788518379 L 349.8863636363636 -316.4457788518379 Z"/>
    </clipPath>
    <clipPath id="clip28">
      <path d="M 387.27272727272725 -306.45137172383585 L 381.02272727272725 -316.45137172383585 L 393.52272727272725 -316.45137172383585 Z"/>
    </clipPath>
    <clipPath id="clip29">
      <path d="M 430.9090909090909 -307.12568341159067 L 424.6590909090909 -317.12568341159067 L 437.1590909090909 -317.12568341159067 Z"/>
    </clipPath>
    <clipPath id="clip30">
      <path d="M 474.5454545454545 -306.4736084438278 L 468.2954545454545 -316.4736084438278 L 480.7954545454545 -316.4736084438278 Z"/>
    </clipPath>
    <clipPath id="clip31">
      <path d="M 518.1818181818182 -306.7746127717183 L 511.9318181818182 -316.77461277171835 L 524.4318181818182 -316.77461277171835 Z"/>
    </clipPath>
    <clipPath id="clip32">
      <path d="M 561.8181818181818 -307.73685629136844 L 555.5681818181818 -317.73685629136844 L 568.0681818181818 -317.73685629136844 Z"/>
    </clipPath>
    <clipPath id="clip33">
      <path d="M 605.4545454545455 -307.2029728595626 L 599.2045454545455 -317.2029728595626 L 611.7045454545455 -317.2029728595626 Z"/>
    </clipPath>
    <clipPath id="clip34">
      <path d="M 649.090909090909 -307.52533791544533 L 642.840909090909 -317.52533791544533 L 655.340909090909 -317.52533791544533 Z"/>
    </clipPath>
    <clipPath id="clip35">
      <path d="M 692.7272727272727 -307.43773871547717 L 686.4772727272727 -317.43773871547717 L 698.9772727272727 -317.43773871547717 Z"/>
    </clipPath>
    <clipPath id="clip36">
      <path d="M 736.3636363636364 -307.3762845074995 L 730.1136363636364 -317.3762845074995 L 742.6136363636364 -317.3762845074995 Z"/>
    </clipPath>
    <clipPath id="clip37">
      <path d="M 294 -294 L 294 -526 L 786 -526 L 786 -294 Z"/>
    </clipPath>
    <clipPath id="clip38">
      <path d="M 280 -280 L 280 -540 L 800 -540 L 800 -280 Z"/>
    </clipPath>
    <clipPath id="clip39">
      <path d="M 343.6363636363636 -304.14987120467276 L 337.3863636363636 -314.14987120467276 L 349.8863636363636 -314.14987120467276 Z"/>
    </clipPath>
    <clipPath id="clip40">
      <path d="M 387.27272727272725 -306.8547997316892 L 381.02272727272725 -316.8547997316892 L 393.52272727272725 -316.8547997316892 Z"/>
    </clipPath>
    <clipPath id="clip41">
      <path d="M 430.9090909090909 -305.2336080762787 L 424.6590909090909 -315.2336080762787 L 437.1590909090909 -315.2336080762787 Z"/>
    </clipPath>
    <clipPath id="clip42">
      <path d="M 474.5454545454545 -306.3901870518581 L 468.2954545454545 -316.3901870518581 L 480.7954545454545 -316.3901870518581 Z"/>
    </clipPath>
    <clipPath id="clip43">
      <path d="M 518.1818181818182 -305.22909334828034 L 511.9318181818182 -315.22909334828034 L 524.4318181818182 -315.22909334828034 Z"/>
    </clipPath>
    <clipPath id="clip44">
      <path d="M 561.8181818181818 -305.95481902801646 L 555.5681818181818 -315.95481902801646 L 568.0681818181818 -315.95481902801646 Z"/>
    </clipPath>
    <clipPath id="clip45">
      <path d="M 605.4545454545455 -306.18520492393264 L 599.2045454545455 -316.18520492393264 L 611.7045454545455 -316.18520492393264 Z"/>
    </clipPath>
    <clipPath id="clip46">
      <path d="M 649.090909090909 -306.7504892997271 L 642.840909090909 -316.7504892997271 L 655.340909090909 -316.7504892997271 Z"/>
    </clipPath>
    <clipPath id="clip47">
      <path d="M 692.7272727272727 -305.5815116681522 L 686.4772727272727 -315.5815116681522 L 698.9772727272727 -315.5815116681522 Z"/>
    </clipPath>
    <clipPath id="clip48">
      <path d="M 736.3636363636364 -305.810280348069 L 730.1136363636364 -315.810280348069 L 742.6136363636364 -315.810280348069 Z"/>
    </clipPath>
    <clipPath id="clip49">
      <path d="M 290 -54 L 290 -136 L 763.568 -136 L 763.568 -54 Z"/>
    </clipPath>
    <clipPath id="clip50">
      <path d="M 300.85714285714283 -125.33333333333334 L 308.0 -132.47619047619048 L 315.14285714285717 -125.33333333333334 L 308.0 -118.1904761904762 Z"/>
    </clipPath>
    <clipPath id="clip51">
      <path d="M 301.75 -100.33333333333334 L 314.25 -100.33333333333334 L 308.0 -110.33333333333334 Z"/>
    </clipPath>
    <clipPath id="clip52">
      <path d="M 308.0 -80.33333333333334 L 301.75 -90.33333333333334 L 314.25 -90.33333333333334 Z"/>
    </clipPath>
    <clipPath id="clip53">
      <path d="M 308.0 -60.33333333333334 L 301.75 -70.33333333333334 L 314.25 -70.33333333333334 Z"/>
    </clipPath>
  </defs>
  <g style="stroke-linejoin:miter;font-size:8;font-family:Helvetica;fill:none;stroke-linecap:butt;stroke:rgb(0,0,0);font-stretch:normal;stroke-dasharray:none;font-weight:normal;font-style:normal;stroke-width:0.5;">
    <path d="M 300 -300 L 780 -300"/>
    <path d="M 300 -300 L 780 -300"/>
    <path d="M 300.0 -300 L 300.0 -288"/>
    <text style="font-size:12;font-style:italic;stroke:none;fill:rgb(0,0,0);" transform="rotate(90,300,-288)" x="300.0" y="-288.0">
      0
    </text>
    <path d="M 343.6363636363636 -300 L 343.6363636363636 -288"/>
    <text style="font-size:12;font-style:italic;stroke:none;fill:rgb(0,0,0);" transform="rotate(90,343.636,-288)" x="343.6363636363636" y="-288.0">
      200
    </text>
    <path d="M 387.27272727272725 -300 L 387.27272727272725 -288"/>
    <text style="font-size:12;font-style:italic;stroke:none;fill:rgb(0,0,0);" transform="rotate(90,387.273,-288)" x="387.27272727272725" y="-288.0">
      400
    </text>
    <path d="M 430.9090909090909 -300 L 430.9090909090909 -288"/>
    <text style="font-size:12;font-style:italic;stroke:none;fill:rgb(0,0,0);" transform="rotate(90,430.909,-288)" x="430.9090909090909" y="-288.0">
      600
    </text>
    <path d="M 474.5454545454545 -300 L 474.5454545454545 -288"/>
    <text style="font-size:12;font-style:italic;stroke:none;fill:rgb(0,0,0);" transform="rotate(90,474.545,-288)" x="474.5454545454545" y="-288.0">
      800
    </text>
    <path d="M 518.1818181818182 -300 L 518.1818181818182 -288"/>
    <text style="font-size:12;font-style:italic;stroke:none;fill:rgb(0,0,0);" transform="rotate(90,518.182,-288)" x="518.1818181818182" y="-288.0">
      1000
    </text>
    <path d="M 561.8181818181818 -300 L 561.8181818181818 -288"/>
    <text style="font-size:12;font-style:italic;stroke:none;fill:rgb(0,0,0);" transform="rotate(90,561.818,-288)" x="561.8181818181818" y="-288.0">
      1200
    </text>
    <path d="M 605.4545454545455 -300 L 605.4545454545455 -288"/>
    <text style="font-size:12;font-style:italic;stroke:none;fill:rgb(0,0,0);" transform="rotate(90,605.455,-288)" x="605.4545454545455" y="-288.0">
      1400
    </text>
    <path d="M 649.090909090909 -300 L 649.090909090909 -288"/>
    <text style="font-size:12;font-style:italic;stroke:none;fill:rgb(0,0,0);" transform="rotate(90,649.091,-288)" x="649.090909090909" y="-288.0">
      1600
    </text>
    <path d="M 692.7272727272727 -300 L 692.7272727272727 -288"/>
    <text style="font-size:12;font-style:italic;stroke:none;fill:rgb(0,0,0);" transform="rotate(90,692.727,-288)" x="692.7272727272727" y="-288.0">
      1800
    </text>
    <path d="M 736.3636363636364 -300 L 736.3636363636364 -288"/>
    <text style="font-size:12;font-style:italic;stroke:none;fill:rgb(0,0,0);" transform="rotate(90,736.364,-288)" x="736.3636363636364" y="-288.0">
      2000
    </text>
    <path d="M 780.0 -300 L 780.0 -288"/>
    <text style="font-size:12;font-style:italic;stroke:none;fill:rgb(0,0,0);" transform="rotate(90,780,-288)" x="780.0" y="-288.0">
      2200
    </text>
    <text style="font-size:16;stroke:none;fill:rgb(0,0,0);" x="524.44" y="-220.0">
      Size
    </text>
    <path d="M 300 -300 L 300 -520"/>
    <path d="M 300 -300.0 L 288 -300.0"/>
    <text style="font-size:12;font-style:italic;stroke:none;fill:rgb(0,0,0);" x="238.0" y="-294.0">
      0.00e+00
    </text>
    <path d="M 300 -344.0 L 288 -344.0"/>
    <text style="font-size:12;font-style:italic;stroke:none;fill:rgb(0,0,0);" x="238.0" y="-338.0">
      6.53e-08
    </text>
    <path d="M 300 -388.0 L 288 -388.0"/>
    <text style="font-size:12;font-style:italic;stroke:none;fill:rgb(0,0,0);" x="238.0" y="-382.0">
      1.31e-07
    </text>
    <path d="M 300 -432.0 L 288 -432.0"/>
    <text style="font-size:12;font-style:italic;stroke:none;fill:rgb(0,0,0);" x="238.0" y="-426.0">
      1.96e-07
    </text>
    <path d="M 300 -476.0 L 288 -476.0"/>
    <text style="font-size:12;font-style:italic;stroke:none;fill:rgb(0,0,0);" x="238.0" y="-470.0">
      2.61e-07
    </text>
    <text style="font-size:16;stroke:none;fill:rgb(0,0,0);" transform="rotate(-90,200,-340.648)" x="200.0" y="-340.648">
      Average time (sec.)
    </text>
    <g style="clip-path:url(#clip0);">
      <g style="clip-path:url(#clip1);">
        <path d="M 343.6363636363636 -420.07896179633497 L 387.27272727272725 -423.8026016349809 L 430.9090909090909 -393.37670412604484 L 474.5454545454545 -423.1900810752036 L 518.1818181818182 -454.30396922388945 L 561.8181818181818 -402.22759252282634 L 605.4545454545455 -427.0329905938062 L 649.090909090909 -454.90570834367065 L 692.7272727272727 -486.24668057227393 L 736.3636363636364 -520.0" style="stroke:rgb(0,0,128);stroke-width:2;"/>
      </g>
      <g style="clip-path:url(#clip2);">
        <g style="fill:rgb(255,255,255);clip-path:url(#clip3);">
          <path d="M 336.4935064935065 -412.9361046534778 L 336.4935064935065 -427.2218189391921 L 350.7792207792208 -427.2218189391921 L 350.7792207792208 -412.9361046534778 Z" style="stroke:none;"/>
        </g>
        <g>
          <path d="M 336.4935064935065 -420.07896179633497 L 343.6363636363636 -427.2218189391921 L 350.7792207792208 -420.07896179633497 L 343.6363636363636 -412.9361046534778 Z"/>
          <g style="fill:rgb(255,255,255);clip-path:url(#clip4);">
            <path d="M 380.12987012987014 -416.65974449212376 L 380.12987012987014 -430.945458777838 L 394.4155844155844 -430.945458777838 L 394.4155844155844 -416.65974449212376 Z" style="stroke:none;"/>
          </g>
          <g>
            <path d="M 380.12987012987014 -423.8026016349809 L 387.27272727272725 -430.945458777838 L 394.4155844155844 -423.8026016349809 L 387.27272727272725 -416.65974449212376 Z"/>
            <g style="fill:rgb(255,255,255);clip-path:url(#clip5);">
              <path d="M 423.76623376623377 -386.23384698318773 L 423.76623376623377 -400.51956126890195 L 438.05194805194805 -400.51956126890195 L 438.05194805194805 -386.23384698318773 Z" style="stroke:none;"/>
            </g>
            <g>
              <path d="M 423.76623376623377 -393.37670412604484 L 430.9090909090909 -400.51956126890195 L 438.05194805194805 -393.37670412604484 L 430.9090909090909 -386.23384698318773 Z"/>
              <g style="fill:rgb(255,255,255);clip-path:url(#clip6);">
                <path d="M 467.4025974025974 -416.04722393234647 L 467.4025974025974 -430.33293821806075 L 481.68831168831167 -430.33293821806075 L 481.68831168831167 -416.04722393234647 Z" style="stroke:none;"/>
              </g>
              <g>
                <path d="M 467.4025974025974 -423.1900810752036 L 474.5454545454545 -430.33293821806075 L 481.68831168831167 -423.1900810752036 L 474.5454545454545 -416.04722393234647 Z"/>
                <g style="fill:rgb(255,255,255);clip-path:url(#clip7);">
                  <path d="M 511.038961038961 -447.16111208103234 L 511.038961038961 -461.4468263667466 L 525.3246753246754 -461.4468263667466 L 525.3246753246754 -447.16111208103234 Z" style="stroke:none;"/>
                </g>
                <g>
                  <path d="M 511.038961038961 -454.30396922388945 L 518.1818181818182 -461.4468263667466 L 525.3246753246754 -454.30396922388945 L 518.1818181818182 -447.16111208103234 Z"/>
                  <g style="fill:rgb(255,255,255);clip-path:url(#clip8);">
                    <path d="M 554.6753246753246 -395.0847353799692 L 554.6753246753246 -409.37044966568345 L 568.961038961039 -409.37044966568345 L 568.961038961039 -395.0847353799692 Z" style="stroke:none;"/>
                  </g>
                  <g>
                    <path d="M 554.6753246753246 -402.22759252282634 L 561.8181818181818 -409.37044966568345 L 568.961038961039 -402.22759252282634 L 561.8181818181818 -395.0847353799692 Z"/>
                    <g style="fill:rgb(255,255,255);clip-path:url(#clip9);">
                      <path d="M 598.3116883116883 -419.89013345094907 L 598.3116883116883 -434.17584773666334 L 612.5974025974026 -434.17584773666334 L 612.5974025974026 -419.89013345094907 Z" style="stroke:none;"/>
                    </g>
                    <g>
                      <path d="M 598.3116883116883 -427.0329905938062 L 605.4545454545455 -434.17584773666334 L 612.5974025974026 -427.0329905938062 L 605.4545454545455 -419.89013345094907 Z"/>
                      <g style="fill:rgb(255,255,255);clip-path:url(#clip10);">
                        <path d="M 641.9480519480519 -447.76285120081354 L 641.9480519480519 -462.0485654865278 L 656.2337662337662 -462.0485654865278 L 656.2337662337662 -447.76285120081354 Z" style="stroke:none;"/>
                      </g>
                      <g>
                        <path d="M 641.9480519480519 -454.90570834367065 L 649.090909090909 -462.0485654865278 L 656.2337662337662 -454.90570834367065 L 649.090909090909 -447.76285120081354 Z"/>
                        <g style="fill:rgb(255,255,255);clip-path:url(#clip11);">
                          <path d="M 685.5844155844156 -479.1038234294168 L 685.5844155844156 -493.3895377151311 L 699.8701298701299 -493.3895377151311 L 699.8701298701299 -479.1038234294168 Z" style="stroke:none;"/>
                        </g>
                        <g>
                          <path d="M 685.5844155844156 -486.24668057227393 L 692.7272727272727 -493.3895377151311 L 699.8701298701299 -486.24668057227393 L 692.7272727272727 -479.1038234294168 Z"/>
                          <g style="fill:rgb(255,255,255);clip-path:url(#clip12);">
                            <path d="M 729.2207792207791 -512.8571428571429 L 729.2207792207791 -527.1428571428571 L 743.5064935064936 -527.1428571428571 L 743.5064935064936 -512.8571428571429 Z" style="stroke:none;"/>
                          </g>
                          <g>
                            <path d="M 729.2207792207791 -520.0 L 736.3636363636364 -527.1428571428571 L 743.5064935064936 -520.0 L 736.3636363636364 -512.8571428571429 Z"/>
                          </g>
                        </g>
                      </g>
                    </g>
                  </g>
                </g>
              </g>
            </g>
          </g>
        </g>
      </g>
      <g style="clip-path:url(#clip13);">
        <path d="M 343.6363636363636 -319.3311219129705 L 387.27272727272725 -320.4668792325575 L 430.9090909090909 -318.23734482536827 L 474.5454545454545 -320.5069727125429 L 518.1818181818182 -317.27793143371713 L 561.8181818181818 -318.22494616937274 L 605.4545454545455 -318.9978406490917 L 649.090909090909 -320.3247663766092 L 692.7272727272727 -316.502745897999 L 736.3636363636364 -317.11560337777615" style="stroke:rgb(0,138,0);stroke-width:2;"/>
      </g>
      <g style="clip-path:url(#clip14);">
        <g style="fill:rgb(255,255,255);clip-path:url(#clip15);">
          <path d="M 337.3863636363636 -314.3311219129705 L 337.3863636363636 -324.3311219129705 L 349.8863636363636 -324.3311219129705 L 349.8863636363636 -314.3311219129705 Z" style="stroke:none;"/>
        </g>
        <g>
          <path d="M 337.3863636363636 -314.3311219129705 L 349.8863636363636 -314.3311219129705 L 343.6363636363636 -324.3311219129705 Z"/>
          <g style="fill:rgb(255,255,255);clip-path:url(#clip16);">
            <path d="M 381.02272727272725 -315.4668792325575 L 381.02272727272725 -325.4668792325575 L 393.52272727272725 -325.4668792325575 L 393.52272727272725 -315.4668792325575 Z" style="stroke:none;"/>
          </g>
          <g>
            <path d="M 381.02272727272725 -315.4668792325575 L 393.52272727272725 -315.4668792325575 L 387.27272727272725 -325.4668792325575 Z"/>
            <g style="fill:rgb(255,255,255);clip-path:url(#clip17);">
              <path d="M 424.6590909090909 -313.23734482536827 L 424.6590909090909 -323.23734482536827 L 437.1590909090909 -323.23734482536827 L 437.1590909090909 -313.23734482536827 Z" style="stroke:none;"/>
            </g>
            <g>
              <path d="M 424.6590909090909 -313.23734482536827 L 437.1590909090909 -313.23734482536827 L 430.9090909090909 -323.23734482536827 Z"/>
              <g style="fill:rgb(255,255,255);clip-path:url(#clip18);">
                <path d="M 468.2954545454545 -315.5069727125429 L 468.2954545454545 -325.5069727125429 L 480.7954545454545 -325.5069727125429 L 480.7954545454545 -315.5069727125429 Z" style="stroke:none;"/>
              </g>
              <g>
                <path d="M 468.2954545454545 -315.5069727125429 L 480.7954545454545 -315.5069727125429 L 474.5454545454545 -325.5069727125429 Z"/>
                <g style="fill:rgb(255,255,255);clip-path:url(#clip19);">
                  <path d="M 511.9318181818182 -312.27793143371713 L 511.9318181818182 -322.27793143371713 L 524.4318181818182 -322.27793143371713 L 524.4318181818182 -312.27793143371713 Z" style="stroke:none;"/>
                </g>
                <g>
                  <path d="M 511.9318181818182 -312.27793143371713 L 524.4318181818182 -312.27793143371713 L 518.1818181818182 -322.27793143371713 Z"/>
                  <g style="fill:rgb(255,255,255);clip-path:url(#clip20);">
                    <path d="M 555.5681818181818 -313.22494616937274 L 555.5681818181818 -323.22494616937274 L 568.0681818181818 -323.22494616937274 L 568.0681818181818 -313.22494616937274 Z" style="stroke:none;"/>
                  </g>
                  <g>
                    <path d="M 555.5681818181818 -313.22494616937274 L 568.0681818181818 -313.22494616937274 L 561.8181818181818 -323.22494616937274 Z"/>
                    <g style="fill:rgb(255,255,255);clip-path:url(#clip21);">
                      <path d="M 599.2045454545455 -313.9978406490917 L 599.2045454545455 -323.9978406490917 L 611.7045454545455 -323.9978406490917 L 611.7045454545455 -313.9978406490917 Z" style="stroke:none;"/>
                    </g>
                    <g>
                      <path d="M 599.2045454545455 -313.9978406490917 L 611.7045454545455 -313.9978406490917 L 605.4545454545455 -323.9978406490917 Z"/>
                      <g style="fill:rgb(255,255,255);clip-path:url(#clip22);">
                        <path d="M 642.840909090909 -315.3247663766092 L 642.840909090909 -325.3247663766092 L 655.340909090909 -325.3247663766092 L 655.340909090909 -315.3247663766092 Z" style="stroke:none;"/>
                      </g>
                      <g>
                        <path d="M 642.840909090909 -315.3247663766092 L 655.340909090909 -315.3247663766092 L 649.090909090909 -325.3247663766092 Z"/>
                        <g style="fill:rgb(255,255,255);clip-path:url(#clip23);">
                          <path d="M 686.4772727272727 -311.502745897999 L 686.4772727272727 -321.502745897999 L 698.9772727272727 -321.502745897999 L 698.9772727272727 -311.502745897999 Z" style="stroke:none;"/>
                        </g>
                        <g>
                          <path d="M 686.4772727272727 -311.502745897999 L 698.9772727272727 -311.502745897999 L 692.7272727272727 -321.502745897999 Z"/>
                          <g style="fill:rgb(255,255,255);clip-path:url(#clip24);">
                            <path d="M 730.1136363636364 -312.11560337777615 L 730.1136363636364 -322.11560337777615 L 742.6136363636364 -322.11560337777615 L 742.6136363636364 -312.11560337777615 Z" style="stroke:none;"/>
                          </g>
                          <g>
                            <path d="M 730.1136363636364 -312.11560337777615 L 742.6136363636364 -312.11560337777615 L 736.3636363636364 -322.11560337777615 Z"/>
                          </g>
                        </g>
                      </g>
                    </g>
                  </g>
                </g>
              </g>
            </g>
          </g>
        </g>
      </g>
      <g style="clip-path:url(#clip25);">
        <path d="M 343.6363636363636 -311.4457788518379 L 387.27272727272725 -311.45137172383585 L 430.9090909090909 -312.12568341159067 L 474.5454545454545 -311.4736084438278 L 518.1818181818182 -311.7746127717183 L 561.8181818181818 -312.73685629136844 L 605.4545454545455 -312.2029728595626 L 649.090909090909 -312.52533791544533 L 692.7272727272727 -312.43773871547717 L 736.3636363636364 -312.3762845074995" style="stroke:rgb(126,126,126);stroke-width:0.4;stroke-dasharray:1.5,1.5;"/>
      </g>
      <g style="clip-path:url(#clip26);">
        <g style="fill:rgb(0,0,0);clip-path:url(#clip27);">
          <path d="M 337.3863636363636 -306.4457788518379 L 337.3863636363636 -316.4457788518379 L 349.8863636363636 -316.4457788518379 L 349.8863636363636 -306.4457788518379 Z" style="stroke:none;"/>
        </g>
        <g>
          <path d="M 343.6363636363636 -306.4457788518379 L 337.3863636363636 -316.4457788518379 L 349.8863636363636 -316.4457788518379 Z"/>
          <g style="fill:rgb(0,0,0);clip-path:url(#clip28);">
            <path d="M 381.02272727272725 -306.45137172383585 L 381.02272727272725 -316.45137172383585 L 393.52272727272725 -316.45137172383585 L 393.52272727272725 -306.45137172383585 Z" style="stroke:none;"/>
          </g>
          <g>
            <path d="M 387.27272727272725 -306.45137172383585 L 381.02272727272725 -316.45137172383585 L 393.52272727272725 -316.45137172383585 Z"/>
            <g style="fill:rgb(0,0,0);clip-path:url(#clip29);">
              <path d="M 424.6590909090909 -307.12568341159067 L 424.6590909090909 -317.12568341159067 L 437.1590909090909 -317.12568341159067 L 437.1590909090909 -307.12568341159067 Z" style="stroke:none;"/>
            </g>
            <g>
              <path d="M 430.9090909090909 -307.12568341159067 L 424.6590909090909 -317.12568341159067 L 437.1590909090909 -317.12568341159067 Z"/>
              <g style="fill:rgb(0,0,0);clip-path:url(#clip30);">
                <path d="M 468.2954545454545 -306.4736084438278 L 468.2954545454545 -316.4736084438278 L 480.7954545454545 -316.4736084438278 L 480.7954545454545 -306.4736084438278 Z" style="stroke:none;"/>
              </g>
              <g>
                <path d="M 474.5454545454545 -306.4736084438278 L 468.2954545454545 -316.4736084438278 L 480.7954545454545 -316.4736084438278 Z"/>
                <g style="fill:rgb(0,0,0);clip-path:url(#clip31);">
                  <path d="M 511.9318181818182 -306.7746127717183 L 511.9318181818182 -316.77461277171835 L 524.4318181818182 -316.77461277171835 L 524.4318181818182 -306.7746127717183 Z" style="stroke:none;"/>
                </g>
                <g>
                  <path d="M 518.1818181818182 -306.7746127717183 L 511.9318181818182 -316.77461277171835 L 524.4318181818182 -316.77461277171835 Z"/>
                  <g style="fill:rgb(0,0,0);clip-path:url(#clip32);">
                    <path d="M 555.5681818181818 -307.73685629136844 L 555.5681818181818 -317.73685629136844 L 568.0681818181818 -317.73685629136844 L 568.0681818181818 -307.73685629136844 Z" style="stroke:none;"/>
                  </g>
                  <g>
                    <path d="M 561.8181818181818 -307.73685629136844 L 555.5681818181818 -317.73685629136844 L 568.0681818181818 -317.73685629136844 Z"/>
                    <g style="fill:rgb(0,0,0);clip-path:url(#clip33);">
                      <path d="M 599.2045454545455 -307.2029728595626 L 599.2045454545455 -317.2029728595626 L 611.7045454545455 -317.2029728595626 L 611.7045454545455 -307.2029728595626 Z" style="stroke:none;"/>
                    </g>
                    <g>
                      <path d="M 605.4545454545455 -307.2029728595626 L 599.2045454545455 -317.2029728595626 L 611.7045454545455 -317.2029728595626 Z"/>
                      <g style="fill:rgb(0,0,0);clip-path:url(#clip34);">
                        <path d="M 642.840909090909 -307.52533791544533 L 642.840909090909 -317.52533791544533 L 655.340909090909 -317.52533791544533 L 655.340909090909 -307.52533791544533 Z" style="stroke:none;"/>
                      </g>
                      <g>
                        <path d="M 649.090909090909 -307.52533791544533 L 642.840909090909 -317.52533791544533 L 655.340909090909 -317.52533791544533 Z"/>
                        <g style="fill:rgb(0,0,0);clip-path:url(#clip35);">
                          <path d="M 686.4772727272727 -307.43773871547717 L 686.4772727272727 -317.43773871547717 L 698.9772727272727 -317.43773871547717 L 698.9772727272727 -307.43773871547717 Z" style="stroke:none;"/>
                        </g>
                        <g>
                          <path d="M 692.7272727272727 -307.43773871547717 L 686.4772727272727 -317.43773871547717 L 698.9772727272727 -317.43773871547717 Z"/>
                          <g style="fill:rgb(0,0,0);clip-path:url(#clip36);">
                            <path d="M 730.1136363636364 -307.3762845074995 L 730.1136363636364 -317.3762845074995 L 742.6136363636364 -317.3762845074995 L 742.6136363636364 -307.3762845074995 Z" style="stroke:none;"/>
                          </g>
                          <g>
                            <path d="M 736.3636363636364 -307.3762845074995 L 730.1136363636364 -317.3762845074995 L 742.6136363636364 -317.3762845074995 Z"/>
                          </g>
                        </g>
                      </g>
                    </g>
                  </g>
                </g>
              </g>
            </g>
          </g>
        </g>
      </g>
      <g style="clip-path:url(#clip37);">
        <path d="M 343.6363636363636 -309.14987120467276 L 387.27272727272725 -311.8547997316892 L 430.9090909090909 -310.2336080762787 L 474.5454545454545 -311.3901870518581 L 518.1818181818182 -310.22909334828034 L 561.8181818181818 -310.95481902801646 L 605.4545454545455 -311.18520492393264 L 649.090909090909 -311.7504892997271 L 692.7272727272727 -310.5815116681522 L 736.3636363636364 -310.810280348069" style="stroke:rgb(0,138,0);stroke-width:2;"/>
      </g>
      <g style="clip-path:url(#clip38);">
        <g style="fill:rgb(255,255,255);clip-path:url(#clip39);">
          <path d="M 337.3863636363636 -304.14987120467276 L 337.3863636363636 -314.14987120467276 L 349.8863636363636 -314.14987120467276 L 349.8863636363636 -304.14987120467276 Z" style="stroke:none;"/>
        </g>
        <g>
          <path d="M 343.6363636363636 -304.14987120467276 L 337.3863636363636 -314.14987120467276 L 349.8863636363636 -314.14987120467276 Z"/>
          <g style="fill:rgb(255,255,255);clip-path:url(#clip40);">
            <path d="M 381.02272727272725 -306.8547997316892 L 381.02272727272725 -316.8547997316892 L 393.52272727272725 -316.8547997316892 L 393.52272727272725 -306.8547997316892 Z" style="stroke:none;"/>
          </g>
          <g>
            <path d="M 387.27272727272725 -306.8547997316892 L 381.02272727272725 -316.8547997316892 L 393.52272727272725 -316.8547997316892 Z"/>
            <g style="fill:rgb(255,255,255);clip-path:url(#clip41);">
              <path d="M 424.6590909090909 -305.2336080762787 L 424.6590909090909 -315.2336080762787 L 437.1590909090909 -315.2336080762787 L 437.1590909090909 -305.2336080762787 Z" style="stroke:none;"/>
            </g>
            <g>
              <path d="M 430.9090909090909 -305.2336080762787 L 424.6590909090909 -315.2336080762787 L 437.1590909090909 -315.2336080762787 Z"/>
              <g style="fill:rgb(255,255,255);clip-path:url(#clip42);">
                <path d="M 468.2954545454545 -306.3901870518581 L 468.2954545454545 -316.3901870518581 L 480.7954545454545 -316.3901870518581 L 480.7954545454545 -306.3901870518581 Z" style="stroke:none;"/>
              </g>
              <g>
                <path d="M 474.5454545454545 -306.3901870518581 L 468.2954545454545 -316.3901870518581 L 480.7954545454545 -316.3901870518581 Z"/>
                <g style="fill:rgb(255,255,255);clip-path:url(#clip43);">
                  <path d="M 511.9318181818182 -305.22909334828034 L 511.9318181818182 -315.22909334828034 L 524.4318181818182 -315.22909334828034 L 524.4318181818182 -305.22909334828034 Z" style="stroke:none;"/>
                </g>
                <g>
                  <path d="M 518.1818181818182 -305.22909334828034 L 511.9318181818182 -315.22909334828034 L 524.4318181818182 -315.22909334828034 Z"/>
                  <g style="fill:rgb(255,255,255);clip-path:url(#clip44);">
                    <path d="M 555.5681818181818 -305.95481902801646 L 555.5681818181818 -315.95481902801646 L 568.0681818181818 -315.95481902801646 L 568.0681818181818 -305.95481902801646 Z" style="stroke:none;"/>
                  </g>
                  <g>
                    <path d="M 561.8181818181818 -305.95481902801646 L 555.5681818181818 -315.95481902801646 L 568.0681818181818 -315.95481902801646 Z"/>
                    <g style="fill:rgb(255,255,255);clip-path:url(#clip45);">
                      <path d="M 599.2045454545455 -306.18520492393264 L 599.2045454545455 -316.18520492393264 L 611.7045454545455 -316.18520492393264 L 611.7045454545455 -306.18520492393264 Z" style="stroke:none;"/>
                    </g>
                    <g>
                      <path d="M 605.4545454545455 -306.18520492393264 L 599.2045454545455 -316.18520492393264 L 611.7045454545455 -316.18520492393264 Z"/>
                      <g style="fill:rgb(255,255,255);clip-path:url(#clip46);">
                        <path d="M 642.840909090909 -306.7504892997271 L 642.840909090909 -316.7504892997271 L 655.340909090909 -316.7504892997271 L 655.340909090909 -306.7504892997271 Z" style="stroke:none;"/>
                      </g>
                      <g>
                        <path d="M 649.090909090909 -306.7504892997271 L 642.840909090909 -316.7504892997271 L 655.340909090909 -316.7504892997271 Z"/>
                        <g style="fill:rgb(255,255,255);clip-path:url(#clip47);">
                          <path d="M 686.4772727272727 -305.5815116681522 L 686.4772727272727 -315.5815116681522 L 698.9772727272727 -315.5815116681522 L 698.9772727272727 -305.5815116681522 Z" style="stroke:none;"/>
                        </g>
                        <g>
                          <path d="M 692.7272727272727 -305.5815116681522 L 686.4772727272727 -315.5815116681522 L 698.9772727272727 -315.5815116681522 Z"/>
                          <g style="fill:rgb(255,255,255);clip-path:url(#clip48);">
                            <path d="M 730.1136363636364 -305.810280348069 L 730.1136363636364 -315.810280348069 L 742.6136363636364 -315.810280348069 L 742.6136363636364 -305.810280348069 Z" style="stroke:none;"/>
                          </g>
                          <g>
                            <path d="M 736.3636363636364 -305.810280348069 L 730.1136363636364 -315.810280348069 L 742.6136363636364 -315.810280348069 Z"/>
                          </g>
                        </g>
                      </g>
                    </g>
                  </g>
                </g>
              </g>
            </g>
          </g>
        </g>
      </g>
    </g>
    <g style="fill:rgb(255,255,255);clip-path:url(#clip49);">
      <path d="M 290 -54 L 290 -136 L 763.568 -136 L 763.568 -54 Z" style="stroke:none;"/>
    </g>
    <path d="M 300 -125.33333333333334 L 316 -125.33333333333334" style="stroke:rgb(0,0,128);stroke-width:2;"/>
    <g style="fill:rgb(255,255,255);clip-path:url(#clip50);">
      <path d="M 300.85714285714283 -118.1904761904762 L 300.85714285714283 -132.47619047619048 L 315.14285714285717 -132.47619047619048 L 315.14285714285717 -118.1904761904762 Z" style="stroke:none;"/>
    </g>
    <g>
      <path d="M 300.85714285714283 -125.33333333333334 L 308.0 -132.47619047619048 L 315.14285714285717 -125.33333333333334 L 308.0 -118.1904761904762 Z"/>
      <text style="font-size:16;stroke:none;fill:rgb(0,0,0);" x="316.0" y="-120.0">
        cc_hash_mask_exp_nea_lc_1div8_1div1_nsth_map
      </text>
      <path d="M 300 -105.33333333333334 L 316 -105.33333333333334" style="stroke:rgb(0,138,0);stroke-width:2;"/>
      <g style="fill:rgb(255,255,255);clip-path:url(#clip51);">
        <path d="M 301.75 -100.33333333333334 L 301.75 -110.33333333333334 L 314.25 -110.33333333333334 L 314.25 -100.33333333333334 Z" style="stroke:none;"/>
      </g>
      <g>
        <path d="M 301.75 -100.33333333333334 L 314.25 -100.33333333333334 L 308.0 -110.33333333333334 Z"/>
        <text style="font-size:16;stroke:none;fill:rgb(0,0,0);" x="316.0" y="-100.0">
          gp_hash_mod_quadp_prime_nea_lc_1div8_1div2_nsth_map
        </text>
        <path d="M 300 -85.33333333333334 L 316 -85.33333333333334" style="stroke:rgb(126,126,126);stroke-width:0.4;stroke-dasharray:1.5,1.5;"/>
        <g style="fill:rgb(0,0,0);clip-path:url(#clip52);">
          <path d="M 301.75 -80.33333333333334 L 301.75 -90.33333333333334 L 314.25 -90.33333333333334 L 314.25 -80.33333333333334 Z" style="stroke:none;"/>
        </g>
        <g>
          <path d="M 308.0 -80.33333333333334 L 301.75 -90.33333333333334 L 314.25 -90.33333333333334 Z"/>
          <text style="font-size:16;stroke:none;fill:rgb(0,0,0);" x="316.0" y="-80.0">
            n_hash_map_ncah
          </text>
          <path d="M 300 -65.33333333333334 L 316 -65.33333333333334" style="stroke:rgb(0,138,0);stroke-width:2;"/>
          <g style="fill:rgb(255,255,255);clip-path:url(#clip53);">
            <path d="M 301.75 -60.33333333333334 L 301.75 -70.33333333333334 L 314.25 -70.33333333333334 L 314.25 -60.33333333333334 Z" style="stroke:none;"/>
          </g>
          <g>
            <path d="M 308.0 -60.33333333333334 L 301.75 -70.33333333333334 L 314.25 -70.33333333333334 Z"/>
            <text style="font-size:16;stroke:none;fill:rgb(0,0,0);" x="316.0" y="-60.0">
              cc_hash_mod_prime_nea_lc_1div8_1div1_nsth_map
            </text>
          </g>
        </g>
      </g>
    </g>
  </g>
</svg>
