<?xml version="1.0" ?>
<!--Created by PyChart 1.39 Copyright 1999-2006 Yasushi Saito-->
<svg viewBox="178 -531 620 543" xmlns="http://www.w3.org/2000/svg" xmlns:xlink="http://www.w3.org/1999/xlink">
  <defs>
    <clipPath id="clip0">
      <path d="M 294 -294 L 294 -526 L 786 -526 L 786 -294 Z"/>
    </clipPath>
    <clipPath id="clip1">
      <path d="M 294 -294 L 294 -526 L 786 -526 L 786 -294 Z"/>
    </clipPath>
    <clipPath id="clip2">
      <path d="M 280 -280 L 280 -540 L 800 -540 L 800 -280 Z"/>
    </clipPath>
    <clipPath id="clip3">
      <path d="M 343.6363636363636 -336.4978054978055 L 337.3863636363636 -346.4978054978055 L 349.8863636363636 -346.4978054978055 Z"/>
    </clipPath>
    <clipPath id="clip4">
      <path d="M 387.27272727272725 -343.63201663201664 L 381.02272727272725 -353.63201663201664 L 393.52272727272725 -353.63201663201664 Z"/>
    </clipPath>
    <clipPath id="clip5">
      <path d="M 430.9090909090909 -346.95261195261196 L 424.6590909090909 -356.95261195261196 L 437.1590909090909 -356.95261195261196 Z"/>
    </clipPath>
    <clipPath id="clip6">
      <path d="M 474.5454545454545 -348.83044583044585 L 468.2954545454545 -358.83044583044585 L 480.7954545454545 -358.83044583044585 Z"/>
    </clipPath>
    <clipPath id="clip7">
      <path d="M 518.1818181818182 -350.2831072831073 L 511.9318181818182 -360.2831072831073 L 524.4318181818182 -360.2831072831073 Z"/>
    </clipPath>
    <clipPath id="clip8">
      <path d="M 561.8181818181818 -353.8943668943669 L 555.5681818181818 -363.8943668943669 L 568.0681818181818 -363.8943668943669 Z"/>
    </clipPath>
    <clipPath id="clip9">
      <path d="M 605.4545454545455 -353.21351021351023 L 599.2045454545455 -363.21351021351023 L 611.7045454545455 -363.21351021351023 Z"/>
    </clipPath>
    <clipPath id="clip10">
      <path d="M 649.090909090909 -354.3366333366333 L 642.840909090909 -364.3366333366333 L 655.340909090909 -364.3366333366333 Z"/>
    </clipPath>
    <clipPath id="clip11">
      <path d="M 692.7272727272727 -355.6548526548527 L 686.4772727272727 -365.6548526548527 L 698.9772727272727 -365.6548526548527 Z"/>
    </clipPath>
    <clipPath id="clip12">
      <path d="M 736.3636363636364 -356.6922416922417 L 730.1136363636364 -366.6922416922417 L 742.6136363636364 -366.6922416922417 Z"/>
    </clipPath>
    <clipPath id="clip13">
      <path d="M 294 -294 L 294 -526 L 786 -526 L 786 -294 Z"/>
    </clipPath>
    <clipPath id="clip14">
      <path d="M 280 -280 L 280 -540 L 800 -540 L 800 -280 Z"/>
    </clipPath>
    <clipPath id="clip15">
      <path d="M 336.4935064935065 -334.05933405933405 L 343.6363636363636 -341.2021912021912 L 350.7792207792208 -334.05933405933405 L 343.6363636363636 -326.91647691647694 Z"/>
    </clipPath>
    <clipPath id="clip16">
      <path d="M 380.12987012987014 -336.6986766986767 L 387.27272727272725 -343.8415338415339 L 394.4155844155844 -336.6986766986767 L 387.27272727272725 -329.55581955581954 Z"/>
    </clipPath>
    <clipPath id="clip17">
      <path d="M 423.76623376623377 -338.2148302148302 L 430.9090909090909 -345.3576873576874 L 438.05194805194805 -338.2148302148302 L 430.9090909090909 -331.0719730719731 Z"/>
    </clipPath>
    <clipPath id="clip18">
      <path d="M 467.4025974025974 -340.34419034419034 L 474.5454545454545 -347.4870474870475 L 481.68831168831167 -340.34419034419034 L 474.5454545454545 -333.2013332013332 Z"/>
    </clipPath>
    <clipPath id="clip19">
      <path d="M 511.038961038961 -340.6259446259446 L 518.1818181818182 -347.7688017688018 L 525.3246753246754 -340.6259446259446 L 518.1818181818182 -333.4830874830875 Z"/>
    </clipPath>
    <clipPath id="clip20">
      <path d="M 554.6753246753246 -341.92106392106393 L 561.8181818181818 -349.06392106392104 L 568.961038961039 -341.92106392106393 L 561.8181818181818 -334.77820677820677 Z"/>
    </clipPath>
    <clipPath id="clip21">
      <path d="M 598.3116883116883 -343.27914727914725 L 605.4545454545455 -350.4220044220044 L 612.5974025974026 -343.27914727914725 L 605.4545454545455 -336.13629013629014 Z"/>
    </clipPath>
    <clipPath id="clip22">
      <path d="M 641.9480519480519 -345.3048873048873 L 649.090909090909 -352.44774444774447 L 656.2337662337662 -345.3048873048873 L 649.090909090909 -338.1620301620302 Z"/>
    </clipPath>
    <clipPath id="clip23">
      <path d="M 685.5844155844156 -345.14536514536513 L 692.7272727272727 -352.2882222882223 L 699.8701298701299 -345.14536514536513 L 692.7272727272727 -338.002508002508 Z"/>
    </clipPath>
    <clipPath id="clip24">
      <path d="M 729.2207792207791 -344.4872124872125 L 736.3636363636364 -351.6300696300696 L 743.5064935064936 -344.4872124872125 L 736.3636363636364 -337.34435534435534 Z"/>
    </clipPath>
    <clipPath id="clip25">
      <path d="M 294 -294 L 294 -526 L 786 -526 L 786 -294 Z"/>
    </clipPath>
    <clipPath id="clip26">
      <path d="M 280 -280 L 280 -540 L 800 -540 L 800 -280 Z"/>
    </clipPath>
    <clipPath id="clip27">
      <path d="M 343.6363636363636 -303.35897435897436 L 337.3863636363636 -313.35897435897436 L 349.8863636363636 -313.35897435897436 Z"/>
    </clipPath>
    <clipPath id="clip28">
      <path d="M 387.27272727272725 -313.3333663333663 L 381.02272727272725 -323.3333663333663 L 393.52272727272725 -323.3333663333663 Z"/>
    </clipPath>
    <clipPath id="clip29">
      <path d="M 430.9090909090909 -295.011000033 L 424.6590909090909 -305.011000033 L 437.1590909090909 -305.011000033 Z"/>
    </clipPath>
    <clipPath id="clip30">
      <path d="M 474.5454545454545 -295.00825000825 L 468.2954545454545 -305.00825000825 L 480.7954545454545 -305.00825000825 Z"/>
    </clipPath>
    <clipPath id="clip31">
      <path d="M 518.1818181818182 -317.0 L 511.9318181818182 -327.0 L 524.4318181818182 -327.0 Z"/>
    </clipPath>
    <clipPath id="clip32">
      <path d="M 561.8181818181818 -295.0055000033 L 555.5681818181818 -305.0055000033 L 568.0681818181818 -305.0055000033 Z"/>
    </clipPath>
    <clipPath id="clip33">
      <path d="M 605.4545454545455 -295.0047142923143 L 599.2045454545455 -305.0047142923143 L 611.7045454545455 -305.0047142923143 Z"/>
    </clipPath>
    <clipPath id="clip34">
      <path d="M 649.090909090909 -377.5000825000825 L 642.840909090909 -387.5000825000825 L 655.340909090909 -387.5000825000825 Z"/>
    </clipPath>
    <clipPath id="clip35">
      <path d="M 692.7272727272727 -295.00366667326665 L 686.4772727272727 -305.00366667326665 L 698.9772727272727 -305.00366667326665 Z"/>
    </clipPath>
    <clipPath id="clip36">
      <path d="M 736.3636363636364 -515.0 L 730.1136363636364 -525.0 L 742.6136363636364 -525.0 Z"/>
    </clipPath>
    <clipPath id="clip37">
      <path d="M 294 -294 L 294 -526 L 786 -526 L 786 -294 Z"/>
    </clipPath>
    <clipPath id="clip38">
      <path d="M 280 -280 L 280 -540 L 800 -540 L 800 -280 Z"/>
    </clipPath>
    <clipPath id="clip39">
      <path d="M 343.6363636363636 -296.22343002343 L 337.3863636363636 -306.22343002343 L 349.8863636363636 -306.22343002343 Z"/>
    </clipPath>
    <clipPath id="clip40">
      <path d="M 387.27272727272725 -296.4635646635647 L 381.02272727272725 -306.4635646635647 L 393.52272727272725 -306.4635646635647 Z"/>
    </clipPath>
    <clipPath id="clip41">
      <path d="M 430.9090909090909 -296.5249447249447 L 424.6590909090909 -306.5249447249447 L 437.1590909090909 -306.5249447249447 Z"/>
    </clipPath>
    <clipPath id="clip42">
      <path d="M 474.5454545454545 -296.5366003366003 L 468.2954545454545 -306.5366003366003 L 480.7954545454545 -306.5366003366003 Z"/>
    </clipPath>
    <clipPath id="clip43">
      <path d="M 518.1818181818182 -296.6149754149754 L 511.9318181818182 -306.6149754149754 L 524.4318181818182 -306.6149754149754 Z"/>
    </clipPath>
    <clipPath id="clip44">
      <path d="M 561.8181818181818 -296.81050721050724 L 555.5681818181818 -306.81050721050724 L 568.0681818181818 -306.81050721050724 Z"/>
    </clipPath>
    <clipPath id="clip45">
      <path d="M 605.4545454545455 -296.6140448140448 L 599.2045454545455 -306.6140448140448 L 611.7045454545455 -306.6140448140448 Z"/>
    </clipPath>
    <clipPath id="clip46">
      <path d="M 649.090909090909 -296.55030855030856 L 642.840909090909 -306.55030855030856 L 655.340909090909 -306.55030855030856 Z"/>
    </clipPath>
    <clipPath id="clip47">
      <path d="M 692.7272727272727 -296.6069234069234 L 686.4772727272727 -306.6069234069234 L 698.9772727272727 -306.6069234069234 Z"/>
    </clipPath>
    <clipPath id="clip48">
      <path d="M 736.3636363636364 -296.66431706431706 L 730.1136363636364 -306.66431706431706 L 742.6136363636364 -306.66431706431706 Z"/>
    </clipPath>
    <clipPath id="clip49">
      <path d="M 294 -294 L 294 -526 L 786 -526 L 786 -294 Z"/>
    </clipPath>
    <clipPath id="clip50">
      <path d="M 280 -280 L 280 -540 L 800 -540 L 800 -280 Z"/>
    </clipPath>
    <clipPath id="clip51">
      <path d="M 337.3863636363636 -295.2722047322047 L 349.8863636363636 -295.2722047322047 L 343.6363636363636 -305.2722047322047 Z"/>
    </clipPath>
    <clipPath id="clip52">
      <path d="M 381.02272727272725 -295.1457453057453 L 393.52272727272725 -295.1457453057453 L 387.27272727272725 -305.1457453057453 Z"/>
    </clipPath>
    <clipPath id="clip53">
      <path d="M 424.6590909090909 -295.011000033 L 437.1590909090909 -295.011000033 L 430.9090909090909 -305.011000033 Z"/>
    </clipPath>
    <clipPath id="clip54">
      <path d="M 468.2954545454545 -295.21793815793814 L 480.7954545454545 -295.21793815793814 L 474.5454545454545 -305.21793815793814 Z"/>
    </clipPath>
    <clipPath id="clip55">
      <path d="M 511.9318181818182 -295.0066000066 L 524.4318181818182 -295.0066000066 L 518.1818181818182 -305.0066000066 Z"/>
    </clipPath>
    <clipPath id="clip56">
      <path d="M 555.5681818181818 -295.0055000033 L 568.0681818181818 -295.0055000033 L 561.8181818181818 -305.0055000033 Z"/>
    </clipPath>
    <clipPath id="clip57">
      <path d="M 599.2045454545455 -295.0047142923143 L 611.7045454545455 -295.0047142923143 L 605.4545454545455 -305.0047142923143 Z"/>
    </clipPath>
    <clipPath id="clip58">
      <path d="M 642.840909090909 -295.004125004125 L 655.340909090909 -295.004125004125 L 649.090909090909 -305.004125004125 Z"/>
    </clipPath>
    <clipPath id="clip59">
      <path d="M 686.4772727272727 -295.00366667326665 L 698.9772727272727 -295.00366667326665 L 692.7272727272727 -305.00366667326665 Z"/>
    </clipPath>
    <clipPath id="clip60">
      <path d="M 730.1136363636364 -295.0033000033 L 742.6136363636364 -295.0033000033 L 736.3636363636364 -305.0033000033 Z"/>
    </clipPath>
    <clipPath id="clip61">
      <path d="M 294 -294 L 294 -526 L 786 -526 L 786 -294 Z"/>
    </clipPath>
    <clipPath id="clip62">
      <path d="M 280 -280 L 280 -540 L 800 -540 L 800 -280 Z"/>
    </clipPath>
    <clipPath id="clip63">
      <path d="M 294 -294 L 294 -526 L 786 -526 L 786 -294 Z"/>
    </clipPath>
    <clipPath id="clip64">
      <path d="M 280 -280 L 280 -540 L 800 -540 L 800 -280 Z"/>
    </clipPath>
    <clipPath id="clip65">
      <path d="M 336.4935064935065 -300.033000033 L 343.6363636363636 -307.1758571758572 L 350.7792207792208 -300.033000033 L 343.6363636363636 -292.8901428901429 Z"/>
    </clipPath>
    <clipPath id="clip66">
      <path d="M 380.12987012987014 -300.0165000165 L 387.27272727272725 -307.15935715935717 L 394.4155844155844 -300.0165000165 L 387.27272727272725 -292.8736428736429 Z"/>
    </clipPath>
    <clipPath id="clip67">
      <path d="M 423.76623376623377 -300.011000033 L 430.9090909090909 -307.1538571758572 L 438.05194805194805 -300.011000033 L 430.9090909090909 -292.8681428901429 Z"/>
    </clipPath>
    <clipPath id="clip68">
      <path d="M 467.4025974025974 -300.00825000825 L 474.5454545454545 -307.15110715110717 L 481.68831168831167 -300.00825000825 L 474.5454545454545 -292.8653928653929 Z"/>
    </clipPath>
    <clipPath id="clip69">
      <path d="M 511.038961038961 -300.0066000066 L 518.1818181818182 -307.14945714945713 L 525.3246753246754 -300.0066000066 L 518.1818181818182 -292.86374286374286 Z"/>
    </clipPath>
    <clipPath id="clip70">
      <path d="M 554.6753246753246 -300.0055000033 L 561.8181818181818 -307.14835714615714 L 568.961038961039 -300.0055000033 L 561.8181818181818 -292.86264286044286 Z"/>
    </clipPath>
    <clipPath id="clip71">
      <path d="M 598.3116883116883 -300.0047142923143 L 605.4545454545455 -307.1475714351714 L 612.5974025974026 -300.0047142923143 L 605.4545454545455 -292.86185714945714 Z"/>
    </clipPath>
    <clipPath id="clip72">
      <path d="M 641.9480519480519 -300.004125004125 L 649.090909090909 -307.14698214698217 L 656.2337662337662 -300.004125004125 L 649.090909090909 -292.86126786126783 Z"/>
    </clipPath>
    <clipPath id="clip73">
      <path d="M 685.5844155844156 -300.00366667326665 L 692.7272727272727 -307.1465238161238 L 699.8701298701299 -300.00366667326665 L 692.7272727272727 -292.86080953040954 Z"/>
    </clipPath>
    <clipPath id="clip74">
      <path d="M 729.2207792207791 -300.0033000033 L 736.3636363636364 -307.1461571461571 L 743.5064935064936 -300.0033000033 L 736.3636363636364 -292.86044286044284 Z"/>
    </clipPath>
    <clipPath id="clip75">
      <path d="M 290 6 L 290 -136 L 456.72 -136 L 456.72 6 Z"/>
    </clipPath>
    <clipPath id="clip76">
      <path d="M 308.0 -120.33333333333334 L 301.75 -130.33333333333334 L 314.25 -130.33333333333334 Z"/>
    </clipPath>
    <clipPath id="clip77">
      <path d="M 300.85714285714283 -105.33333333333334 L 308.0 -112.47619047619048 L 315.14285714285717 -105.33333333333334 L 308.0 -98.1904761904762 Z"/>
    </clipPath>
    <clipPath id="clip78">
      <path d="M 308.0 -80.33333333333334 L 301.75 -90.33333333333334 L 314.25 -90.33333333333334 Z"/>
    </clipPath>
    <clipPath id="clip79">
      <path d="M 308.0 -60.33333333333334 L 301.75 -70.33333333333334 L 314.25 -70.33333333333334 Z"/>
    </clipPath>
    <clipPath id="clip80">
      <path d="M 301.75 -40.33333333333337 L 314.25 -40.33333333333337 L 308.0 -50.33333333333334 Z"/>
    </clipPath>
    <clipPath id="clip81">
      <path d="M 300.85714285714283 -5.333333333333314 L 308.0 -12.476190476190482 L 315.14285714285717 -5.333333333333314 L 308.0 1.8095238095238528 Z"/>
    </clipPath>
  </defs>
  <g style="stroke-linejoin:miter;font-size:8;font-family:Helvetica;fill:none;stroke-linecap:butt;stroke:rgb(0,0,0);font-stretch:normal;stroke-dasharray:none;font-weight:normal;font-style:normal;stroke-width:0.5;">
    <path d="M 300 -300 L 780 -300"/>
    <path d="M 300 -300 L 780 -300"/>
    <path d="M 300.0 -300 L 300.0 -288"/>
    <text style="font-size:12;font-style:italic;stroke:none;fill:rgb(0,0,0);" transform="rotate(90,300,-288)" x="300.0" y="-288.0">
      0
    </text>
    <path d="M 343.6363636363636 -300 L 343.6363636363636 -288"/>
    <text style="font-size:12;font-style:italic;stroke:none;fill:rgb(0,0,0);" transform="rotate(90,343.636,-288)" x="343.6363636363636" y="-288.0">
      200
    </text>
    <path d="M 387.27272727272725 -300 L 387.27272727272725 -288"/>
    <text style="font-size:12;font-style:italic;stroke:none;fill:rgb(0,0,0);" transform="rotate(90,387.273,-288)" x="387.27272727272725" y="-288.0">
      400
    </text>
    <path d="M 430.9090909090909 -300 L 430.9090909090909 -288"/>
    <text style="font-size:12;font-style:italic;stroke:none;fill:rgb(0,0,0);" transform="rotate(90,430.909,-288)" x="430.9090909090909" y="-288.0">
      600
    </text>
    <path d="M 474.5454545454545 -300 L 474.5454545454545 -288"/>
    <text style="font-size:12;font-style:italic;stroke:none;fill:rgb(0,0,0);" transform="rotate(90,474.545,-288)" x="474.5454545454545" y="-288.0">
      800
    </text>
    <path d="M 518.1818181818182 -300 L 518.1818181818182 -288"/>
    <text style="font-size:12;font-style:italic;stroke:none;fill:rgb(0,0,0);" transform="rotate(90,518.182,-288)" x="518.1818181818182" y="-288.0">
      1000
    </text>
    <path d="M 561.8181818181818 -300 L 561.8181818181818 -288"/>
    <text style="font-size:12;font-style:italic;stroke:none;fill:rgb(0,0,0);" transform="rotate(90,561.818,-288)" x="561.8181818181818" y="-288.0">
      1200
    </text>
    <path d="M 605.4545454545455 -300 L 605.4545454545455 -288"/>
    <text style="font-size:12;font-style:italic;stroke:none;fill:rgb(0,0,0);" transform="rotate(90,605.455,-288)" x="605.4545454545455" y="-288.0">
      1400
    </text>
    <path d="M 649.090909090909 -300 L 649.090909090909 -288"/>
    <text style="font-size:12;font-style:italic;stroke:none;fill:rgb(0,0,0);" transform="rotate(90,649.091,-288)" x="649.090909090909" y="-288.0">
      1600
    </text>
    <path d="M 692.7272727272727 -300 L 692.7272727272727 -288"/>
    <text style="font-size:12;font-style:italic;stroke:none;fill:rgb(0,0,0);" transform="rotate(90,692.727,-288)" x="692.7272727272727" y="-288.0">
      1800
    </text>
    <path d="M 736.3636363636364 -300 L 736.3636363636364 -288"/>
    <text style="font-size:12;font-style:italic;stroke:none;fill:rgb(0,0,0);" transform="rotate(90,736.364,-288)" x="736.3636363636364" y="-288.0">
      2000
    </text>
    <path d="M 780.0 -300 L 780.0 -288"/>
    <text style="font-size:12;font-style:italic;stroke:none;fill:rgb(0,0,0);" transform="rotate(90,780,-288)" x="780.0" y="-288.0">
      2200
    </text>
    <text style="font-size:16;stroke:none;fill:rgb(0,0,0);" x="524.44" y="-220.0">
      Size
    </text>
    <path d="M 300 -300 L 300 -520"/>
    <path d="M 300 -300.0 L 288 -300.0"/>
    <text style="font-size:12;font-style:italic;stroke:none;fill:rgb(0,0,0);" x="238.0" y="-294.0">
      0.00e+00
    </text>
    <path d="M 300 -344.0 L 288 -344.0"/>
    <text style="font-size:12;font-style:italic;stroke:none;fill:rgb(0,0,0);" x="238.0" y="-338.0">
      6.67e-07
    </text>
    <path d="M 300 -388.0 L 288 -388.0"/>
    <text style="font-size:12;font-style:italic;stroke:none;fill:rgb(0,0,0);" x="238.0" y="-382.0">
      1.33e-06
    </text>
    <path d="M 300 -432.0 L 288 -432.0"/>
    <text style="font-size:12;font-style:italic;stroke:none;fill:rgb(0,0,0);" x="238.0" y="-426.0">
      2.00e-06
    </text>
    <path d="M 300 -476.0 L 288 -476.0"/>
    <text style="font-size:12;font-style:italic;stroke:none;fill:rgb(0,0,0);" x="238.0" y="-470.0">
      2.67e-06
    </text>
    <text style="font-size:16;stroke:none;fill:rgb(0,0,0);" transform="rotate(-90,200,-340.648)" x="200.0" y="-340.648">
      Average time (sec.)
    </text>
    <g style="clip-path:url(#clip0);">
      <g style="clip-path:url(#clip1);">
        <path d="M 343.6363636363636 -341.4978054978055 L 387.27272727272725 -348.63201663201664 L 430.9090909090909 -351.95261195261196 L 474.5454545454545 -353.83044583044585 L 518.1818181818182 -355.2831072831073 L 561.8181818181818 -358.8943668943669 L 605.4545454545455 -358.21351021351023 L 649.090909090909 -359.3366333366333 L 692.7272727272727 -360.6548526548527 L 736.3636363636364 -361.6922416922417" style="stroke:rgb(126,126,126);stroke-width:0.4;stroke-dasharray:1.5,1.5;"/>
      </g>
      <g style="clip-path:url(#clip2);">
        <g style="fill:rgb(0,0,0);clip-path:url(#clip3);">
          <path d="M 337.3863636363636 -336.4978054978055 L 337.3863636363636 -346.4978054978055 L 349.8863636363636 -346.4978054978055 L 349.8863636363636 -336.4978054978055 Z" style="stroke:none;"/>
        </g>
        <g>
          <path d="M 343.6363636363636 -336.4978054978055 L 337.3863636363636 -346.4978054978055 L 349.8863636363636 -346.4978054978055 Z"/>
          <g style="fill:rgb(0,0,0);clip-path:url(#clip4);">
            <path d="M 381.02272727272725 -343.63201663201664 L 381.02272727272725 -353.63201663201664 L 393.52272727272725 -353.63201663201664 L 393.52272727272725 -343.63201663201664 Z" style="stroke:none;"/>
          </g>
          <g>
            <path d="M 387.27272727272725 -343.63201663201664 L 381.02272727272725 -353.63201663201664 L 393.52272727272725 -353.63201663201664 Z"/>
            <g style="fill:rgb(0,0,0);clip-path:url(#clip5);">
              <path d="M 424.6590909090909 -346.95261195261196 L 424.6590909090909 -356.95261195261196 L 437.1590909090909 -356.95261195261196 L 437.1590909090909 -346.95261195261196 Z" style="stroke:none;"/>
            </g>
            <g>
              <path d="M 430.9090909090909 -346.95261195261196 L 424.6590909090909 -356.95261195261196 L 437.1590909090909 -356.95261195261196 Z"/>
              <g style="fill:rgb(0,0,0);clip-path:url(#clip6);">
                <path d="M 468.2954545454545 -348.83044583044585 L 468.2954545454545 -358.83044583044585 L 480.7954545454545 -358.83044583044585 L 480.7954545454545 -348.83044583044585 Z" style="stroke:none;"/>
              </g>
              <g>
                <path d="M 474.5454545454545 -348.83044583044585 L 468.2954545454545 -358.83044583044585 L 480.7954545454545 -358.83044583044585 Z"/>
                <g style="fill:rgb(0,0,0);clip-path:url(#clip7);">
                  <path d="M 511.9318181818182 -350.2831072831073 L 511.9318181818182 -360.2831072831073 L 524.4318181818182 -360.2831072831073 L 524.4318181818182 -350.2831072831073 Z" style="stroke:none;"/>
                </g>
                <g>
                  <path d="M 518.1818181818182 -350.2831072831073 L 511.9318181818182 -360.2831072831073 L 524.4318181818182 -360.2831072831073 Z"/>
                  <g style="fill:rgb(0,0,0);clip-path:url(#clip8);">
                    <path d="M 555.5681818181818 -353.8943668943669 L 555.5681818181818 -363.8943668943669 L 568.0681818181818 -363.8943668943669 L 568.0681818181818 -353.8943668943669 Z" style="stroke:none;"/>
                  </g>
                  <g>
                    <path d="M 561.8181818181818 -353.8943668943669 L 555.5681818181818 -363.8943668943669 L 568.0681818181818 -363.8943668943669 Z"/>
                    <g style="fill:rgb(0,0,0);clip-path:url(#clip9);">
                      <path d="M 599.2045454545455 -353.21351021351023 L 599.2045454545455 -363.21351021351023 L 611.7045454545455 -363.21351021351023 L 611.7045454545455 -353.21351021351023 Z" style="stroke:none;"/>
                    </g>
                    <g>
                      <path d="M 605.4545454545455 -353.21351021351023 L 599.2045454545455 -363.21351021351023 L 611.7045454545455 -363.21351021351023 Z"/>
                      <g style="fill:rgb(0,0,0);clip-path:url(#clip10);">
                        <path d="M 642.840909090909 -354.3366333366333 L 642.840909090909 -364.3366333366333 L 655.340909090909 -364.3366333366333 L 655.340909090909 -354.3366333366333 Z" style="stroke:none;"/>
                      </g>
                      <g>
                        <path d="M 649.090909090909 -354.3366333366333 L 642.840909090909 -364.3366333366333 L 655.340909090909 -364.3366333366333 Z"/>
                        <g style="fill:rgb(0,0,0);clip-path:url(#clip11);">
                          <path d="M 686.4772727272727 -355.6548526548527 L 686.4772727272727 -365.6548526548527 L 698.9772727272727 -365.6548526548527 L 698.9772727272727 -355.6548526548527 Z" style="stroke:none;"/>
                        </g>
                        <g>
                          <path d="M 692.7272727272727 -355.6548526548527 L 686.4772727272727 -365.6548526548527 L 698.9772727272727 -365.6548526548527 Z"/>
                          <g style="fill:rgb(0,0,0);clip-path:url(#clip12);">
                            <path d="M 730.1136363636364 -356.6922416922417 L 730.1136363636364 -366.6922416922417 L 742.6136363636364 -366.6922416922417 L 742.6136363636364 -356.6922416922417 Z" style="stroke:none;"/>
                          </g>
                          <g>
                            <path d="M 736.3636363636364 -356.6922416922417 L 730.1136363636364 -366.6922416922417 L 742.6136363636364 -366.6922416922417 Z"/>
                          </g>
                        </g>
                      </g>
                    </g>
                  </g>
                </g>
              </g>
            </g>
          </g>
        </g>
      </g>
      <g style="clip-path:url(#clip13);">
        <path d="M 343.6363636363636 -334.05933405933405 L 387.27272727272725 -336.6986766986767 L 430.9090909090909 -338.2148302148302 L 474.5454545454545 -340.34419034419034 L 518.1818181818182 -340.6259446259446 L 561.8181818181818 -341.92106392106393 L 605.4545454545455 -343.27914727914725 L 649.090909090909 -345.3048873048873 L 692.7272727272727 -345.14536514536513 L 736.3636363636364 -344.4872124872125" style="stroke:rgb(126,126,126);stroke-width:0.4;stroke-dasharray:5,2,5,2;"/>
      </g>
      <g style="clip-path:url(#clip14);">
        <g style="fill:rgb(0,0,0);clip-path:url(#clip15);">
          <path d="M 336.4935064935065 -326.91647691647694 L 336.4935064935065 -341.2021912021912 L 350.7792207792208 -341.2021912021912 L 350.7792207792208 -326.91647691647694 Z" style="stroke:none;"/>
        </g>
        <g>
          <path d="M 336.4935064935065 -334.05933405933405 L 343.6363636363636 -341.2021912021912 L 350.7792207792208 -334.05933405933405 L 343.6363636363636 -326.91647691647694 Z"/>
          <g style="fill:rgb(0,0,0);clip-path:url(#clip16);">
            <path d="M 380.12987012987014 -329.55581955581954 L 380.12987012987014 -343.8415338415339 L 394.4155844155844 -343.8415338415339 L 394.4155844155844 -329.55581955581954 Z" style="stroke:none;"/>
          </g>
          <g>
            <path d="M 380.12987012987014 -336.6986766986767 L 387.27272727272725 -343.8415338415339 L 394.4155844155844 -336.6986766986767 L 387.27272727272725 -329.55581955581954 Z"/>
            <g style="fill:rgb(0,0,0);clip-path:url(#clip17);">
              <path d="M 423.76623376623377 -331.0719730719731 L 423.76623376623377 -345.3576873576874 L 438.05194805194805 -345.3576873576874 L 438.05194805194805 -331.0719730719731 Z" style="stroke:none;"/>
            </g>
            <g>
              <path d="M 423.76623376623377 -338.2148302148302 L 430.9090909090909 -345.3576873576874 L 438.05194805194805 -338.2148302148302 L 430.9090909090909 -331.0719730719731 Z"/>
              <g style="fill:rgb(0,0,0);clip-path:url(#clip18);">
                <path d="M 467.4025974025974 -333.2013332013332 L 467.4025974025974 -347.4870474870475 L 481.68831168831167 -347.4870474870475 L 481.68831168831167 -333.2013332013332 Z" style="stroke:none;"/>
              </g>
              <g>
                <path d="M 467.4025974025974 -340.34419034419034 L 474.5454545454545 -347.4870474870475 L 481.68831168831167 -340.34419034419034 L 474.5454545454545 -333.2013332013332 Z"/>
                <g style="fill:rgb(0,0,0);clip-path:url(#clip19);">
                  <path d="M 511.038961038961 -333.4830874830875 L 511.038961038961 -347.7688017688018 L 525.3246753246754 -347.7688017688018 L 525.3246753246754 -333.4830874830875 Z" style="stroke:none;"/>
                </g>
                <g>
                  <path d="M 511.038961038961 -340.6259446259446 L 518.1818181818182 -347.7688017688018 L 525.3246753246754 -340.6259446259446 L 518.1818181818182 -333.4830874830875 Z"/>
                  <g style="fill:rgb(0,0,0);clip-path:url(#clip20);">
                    <path d="M 554.6753246753246 -334.77820677820677 L 554.6753246753246 -349.06392106392104 L 568.961038961039 -349.06392106392104 L 568.961038961039 -334.77820677820677 Z" style="stroke:none;"/>
                  </g>
                  <g>
                    <path d="M 554.6753246753246 -341.92106392106393 L 561.8181818181818 -349.06392106392104 L 568.961038961039 -341.92106392106393 L 561.8181818181818 -334.77820677820677 Z"/>
                    <g style="fill:rgb(0,0,0);clip-path:url(#clip21);">
                      <path d="M 598.3116883116883 -336.13629013629014 L 598.3116883116883 -350.4220044220044 L 612.5974025974026 -350.4220044220044 L 612.5974025974026 -336.13629013629014 Z" style="stroke:none;"/>
                    </g>
                    <g>
                      <path d="M 598.3116883116883 -343.27914727914725 L 605.4545454545455 -350.4220044220044 L 612.5974025974026 -343.27914727914725 L 605.4545454545455 -336.13629013629014 Z"/>
                      <g style="fill:rgb(0,0,0);clip-path:url(#clip22);">
                        <path d="M 641.9480519480519 -338.1620301620302 L 641.9480519480519 -352.44774444774447 L 656.2337662337662 -352.44774444774447 L 656.2337662337662 -338.1620301620302 Z" style="stroke:none;"/>
                      </g>
                      <g>
                        <path d="M 641.9480519480519 -345.3048873048873 L 649.090909090909 -352.44774444774447 L 656.2337662337662 -345.3048873048873 L 649.090909090909 -338.1620301620302 Z"/>
                        <g style="fill:rgb(0,0,0);clip-path:url(#clip23);">
                          <path d="M 685.5844155844156 -338.002508002508 L 685.5844155844156 -352.2882222882223 L 699.8701298701299 -352.2882222882223 L 699.8701298701299 -338.002508002508 Z" style="stroke:none;"/>
                        </g>
                        <g>
                          <path d="M 685.5844155844156 -345.14536514536513 L 692.7272727272727 -352.2882222882223 L 699.8701298701299 -345.14536514536513 L 692.7272727272727 -338.002508002508 Z"/>
                          <g style="fill:rgb(0,0,0);clip-path:url(#clip24);">
                            <path d="M 729.2207792207791 -337.34435534435534 L 729.2207792207791 -351.6300696300696 L 743.5064935064936 -351.6300696300696 L 743.5064935064936 -337.34435534435534 Z" style="stroke:none;"/>
                          </g>
                          <g>
                            <path d="M 729.2207792207791 -344.4872124872125 L 736.3636363636364 -351.6300696300696 L 743.5064935064936 -344.4872124872125 L 736.3636363636364 -337.34435534435534 Z"/>
                          </g>
                        </g>
                      </g>
                    </g>
                  </g>
                </g>
              </g>
            </g>
          </g>
        </g>
      </g>
      <g style="clip-path:url(#clip25);">
        <path d="M 343.6363636363636 -308.35897435897436 L 387.27272727272725 -318.3333663333663 L 430.9090909090909 -300.011000033 L 474.5454545454545 -300.00825000825 L 518.1818181818182 -322.0 L 561.8181818181818 -300.0055000033 L 605.4545454545455 -300.0047142923143 L 649.090909090909 -382.5000825000825 L 692.7272727272727 -300.00366667326665 L 736.3636363636364 -520.0" style="stroke:rgb(205,0,0);stroke-width:2;"/>
      </g>
      <g style="clip-path:url(#clip26);">
        <g style="fill:rgb(255,255,255);clip-path:url(#clip27);">
          <path d="M 337.3863636363636 -303.35897435897436 L 337.3863636363636 -313.35897435897436 L 349.8863636363636 -313.35897435897436 L 349.8863636363636 -303.35897435897436 Z" style="stroke:none;"/>
        </g>
        <g>
          <path d="M 343.6363636363636 -303.35897435897436 L 337.3863636363636 -313.35897435897436 L 349.8863636363636 -313.35897435897436 Z"/>
          <g style="fill:rgb(255,255,255);clip-path:url(#clip28);">
            <path d="M 381.02272727272725 -313.3333663333663 L 381.02272727272725 -323.3333663333663 L 393.52272727272725 -323.3333663333663 L 393.52272727272725 -313.3333663333663 Z" style="stroke:none;"/>
          </g>
          <g>
            <path d="M 387.27272727272725 -313.3333663333663 L 381.02272727272725 -323.3333663333663 L 393.52272727272725 -323.3333663333663 Z"/>
            <g style="fill:rgb(255,255,255);clip-path:url(#clip29);">
              <path d="M 424.6590909090909 -295.011000033 L 424.6590909090909 -305.011000033 L 437.1590909090909 -305.011000033 L 437.1590909090909 -295.011000033 Z" style="stroke:none;"/>
            </g>
            <g>
              <path d="M 430.9090909090909 -295.011000033 L 424.6590909090909 -305.011000033 L 437.1590909090909 -305.011000033 Z"/>
              <g style="fill:rgb(255,255,255);clip-path:url(#clip30);">
                <path d="M 468.2954545454545 -295.00825000825 L 468.2954545454545 -305.00825000825 L 480.7954545454545 -305.00825000825 L 480.7954545454545 -295.00825000825 Z" style="stroke:none;"/>
              </g>
              <g>
                <path d="M 474.5454545454545 -295.00825000825 L 468.2954545454545 -305.00825000825 L 480.7954545454545 -305.00825000825 Z"/>
                <g style="fill:rgb(255,255,255);clip-path:url(#clip31);">
                  <path d="M 511.9318181818182 -317.0 L 511.9318181818182 -327.0 L 524.4318181818182 -327.0 L 524.4318181818182 -317.0 Z" style="stroke:none;"/>
                </g>
                <g>
                  <path d="M 518.1818181818182 -317.0 L 511.9318181818182 -327.0 L 524.4318181818182 -327.0 Z"/>
                  <g style="fill:rgb(255,255,255);clip-path:url(#clip32);">
                    <path d="M 555.5681818181818 -295.0055000033 L 555.5681818181818 -305.0055000033 L 568.0681818181818 -305.0055000033 L 568.0681818181818 -295.0055000033 Z" style="stroke:none;"/>
                  </g>
                  <g>
                    <path d="M 561.8181818181818 -295.0055000033 L 555.5681818181818 -305.0055000033 L 568.0681818181818 -305.0055000033 Z"/>
                    <g style="fill:rgb(255,255,255);clip-path:url(#clip33);">
                      <path d="M 599.2045454545455 -295.0047142923143 L 599.2045454545455 -305.0047142923143 L 611.7045454545455 -305.0047142923143 L 611.7045454545455 -295.0047142923143 Z" style="stroke:none;"/>
                    </g>
                    <g>
                      <path d="M 605.4545454545455 -295.0047142923143 L 599.2045454545455 -305.0047142923143 L 611.7045454545455 -305.0047142923143 Z"/>
                      <g style="fill:rgb(255,255,255);clip-path:url(#clip34);">
                        <path d="M 642.840909090909 -377.5000825000825 L 642.840909090909 -387.5000825000825 L 655.340909090909 -387.5000825000825 L 655.340909090909 -377.5000825000825 Z" style="stroke:none;"/>
                      </g>
                      <g>
                        <path d="M 649.090909090909 -377.5000825000825 L 642.840909090909 -387.5000825000825 L 655.340909090909 -387.5000825000825 Z"/>
                        <g style="fill:rgb(255,255,255);clip-path:url(#clip35);">
                          <path d="M 686.4772727272727 -295.00366667326665 L 686.4772727272727 -305.00366667326665 L 698.9772727272727 -305.00366667326665 L 698.9772727272727 -295.00366667326665 Z" style="stroke:none;"/>
                        </g>
                        <g>
                          <path d="M 692.7272727272727 -295.00366667326665 L 686.4772727272727 -305.00366667326665 L 698.9772727272727 -305.00366667326665 Z"/>
                          <g style="fill:rgb(255,255,255);clip-path:url(#clip36);">
                            <path d="M 730.1136363636364 -515.0 L 730.1136363636364 -525.0 L 742.6136363636364 -525.0 L 742.6136363636364 -515.0 Z" style="stroke:none;"/>
                          </g>
                          <g>
                            <path d="M 736.3636363636364 -515.0 L 730.1136363636364 -525.0 L 742.6136363636364 -525.0 Z"/>
                          </g>
                        </g>
                      </g>
                    </g>
                  </g>
                </g>
              </g>
            </g>
          </g>
        </g>
      </g>
      <g style="clip-path:url(#clip37);">
        <path d="M 343.6363636363636 -301.22343002343 L 387.27272727272725 -301.4635646635647 L 430.9090909090909 -301.5249447249447 L 474.5454545454545 -301.5366003366003 L 518.1818181818182 -301.6149754149754 L 561.8181818181818 -301.8105072105072 L 605.4545454545455 -301.6140448140448 L 649.090909090909 -301.55030855030856 L 692.7272727272727 -301.6069234069234 L 736.3636363636364 -301.66431706431706" style="stroke:rgb(126,126,126);stroke-width:0.4;stroke-dasharray:1.5,1.5;"/>
      </g>
      <g style="clip-path:url(#clip38);">
        <g style="fill:rgb(0,0,0);clip-path:url(#clip39);">
          <path d="M 337.3863636363636 -296.22343002343 L 337.3863636363636 -306.22343002343 L 349.8863636363636 -306.22343002343 L 349.8863636363636 -296.22343002343 Z" style="stroke:none;"/>
        </g>
        <g>
          <path d="M 343.6363636363636 -296.22343002343 L 337.3863636363636 -306.22343002343 L 349.8863636363636 -306.22343002343 Z"/>
          <g style="fill:rgb(0,0,0);clip-path:url(#clip40);">
            <path d="M 381.02272727272725 -296.4635646635647 L 381.02272727272725 -306.4635646635647 L 393.52272727272725 -306.4635646635647 L 393.52272727272725 -296.4635646635647 Z" style="stroke:none;"/>
          </g>
          <g>
            <path d="M 387.27272727272725 -296.4635646635647 L 381.02272727272725 -306.4635646635647 L 393.52272727272725 -306.4635646635647 Z"/>
            <g style="fill:rgb(0,0,0);clip-path:url(#clip41);">
              <path d="M 424.6590909090909 -296.5249447249447 L 424.6590909090909 -306.5249447249447 L 437.1590909090909 -306.5249447249447 L 437.1590909090909 -296.5249447249447 Z" style="stroke:none;"/>
            </g>
            <g>
              <path d="M 430.9090909090909 -296.5249447249447 L 424.6590909090909 -306.5249447249447 L 437.1590909090909 -306.5249447249447 Z"/>
              <g style="fill:rgb(0,0,0);clip-path:url(#clip42);">
                <path d="M 468.2954545454545 -296.5366003366003 L 468.2954545454545 -306.5366003366003 L 480.7954545454545 -306.5366003366003 L 480.7954545454545 -296.5366003366003 Z" style="stroke:none;"/>
              </g>
              <g>
                <path d="M 474.5454545454545 -296.5366003366003 L 468.2954545454545 -306.5366003366003 L 480.7954545454545 -306.5366003366003 Z"/>
                <g style="fill:rgb(0,0,0);clip-path:url(#clip43);">
                  <path d="M 511.9318181818182 -296.6149754149754 L 511.9318181818182 -306.6149754149754 L 524.4318181818182 -306.6149754149754 L 524.4318181818182 -296.6149754149754 Z" style="stroke:none;"/>
                </g>
                <g>
                  <path d="M 518.1818181818182 -296.6149754149754 L 511.9318181818182 -306.6149754149754 L 524.4318181818182 -306.6149754149754 Z"/>
                  <g style="fill:rgb(0,0,0);clip-path:url(#clip44);">
                    <path d="M 555.5681818181818 -296.81050721050724 L 555.5681818181818 -306.81050721050724 L 568.0681818181818 -306.81050721050724 L 568.0681818181818 -296.81050721050724 Z" style="stroke:none;"/>
                  </g>
                  <g>
                    <path d="M 561.8181818181818 -296.81050721050724 L 555.5681818181818 -306.81050721050724 L 568.0681818181818 -306.81050721050724 Z"/>
                    <g style="fill:rgb(0,0,0);clip-path:url(#clip45);">
                      <path d="M 599.2045454545455 -296.6140448140448 L 599.2045454545455 -306.6140448140448 L 611.7045454545455 -306.6140448140448 L 611.7045454545455 -296.6140448140448 Z" style="stroke:none;"/>
                    </g>
                    <g>
                      <path d="M 605.4545454545455 -296.6140448140448 L 599.2045454545455 -306.6140448140448 L 611.7045454545455 -306.6140448140448 Z"/>
                      <g style="fill:rgb(0,0,0);clip-path:url(#clip46);">
                        <path d="M 642.840909090909 -296.55030855030856 L 642.840909090909 -306.55030855030856 L 655.340909090909 -306.55030855030856 L 655.340909090909 -296.55030855030856 Z" style="stroke:none;"/>
                      </g>
                      <g>
                        <path d="M 649.090909090909 -296.55030855030856 L 642.840909090909 -306.55030855030856 L 655.340909090909 -306.55030855030856 Z"/>
                        <g style="fill:rgb(0,0,0);clip-path:url(#clip47);">
                          <path d="M 686.4772727272727 -296.6069234069234 L 686.4772727272727 -306.6069234069234 L 698.9772727272727 -306.6069234069234 L 698.9772727272727 -296.6069234069234 Z" style="stroke:none;"/>
                        </g>
                        <g>
                          <path d="M 692.7272727272727 -296.6069234069234 L 686.4772727272727 -306.6069234069234 L 698.9772727272727 -306.6069234069234 Z"/>
                          <g style="fill:rgb(0,0,0);clip-path:url(#clip48);">
                            <path d="M 730.1136363636364 -296.66431706431706 L 730.1136363636364 -306.66431706431706 L 742.6136363636364 -306.66431706431706 L 742.6136363636364 -296.66431706431706 Z" style="stroke:none;"/>
                          </g>
                          <g>
                            <path d="M 736.3636363636364 -296.66431706431706 L 730.1136363636364 -306.66431706431706 L 742.6136363636364 -306.66431706431706 Z"/>
                          </g>
                        </g>
                      </g>
                    </g>
                  </g>
                </g>
              </g>
            </g>
          </g>
        </g>
      </g>
      <g style="clip-path:url(#clip49);">
        <path d="M 343.6363636363636 -300.2722047322047 L 387.27272727272725 -300.1457453057453 L 430.9090909090909 -300.011000033 L 474.5454545454545 -300.21793815793814 L 518.1818181818182 -300.0066000066 L 561.8181818181818 -300.0055000033 L 605.4545454545455 -300.0047142923143 L 649.090909090909 -300.004125004125 L 692.7272727272727 -300.00366667326665 L 736.3636363636364 -300.0033000033" style="stroke:rgb(147,147,147);stroke-width:2;"/>
      </g>
      <g style="clip-path:url(#clip50);">
        <g style="fill:rgb(255,255,255);clip-path:url(#clip51);">
          <path d="M 337.3863636363636 -295.2722047322047 L 337.3863636363636 -305.2722047322047 L 349.8863636363636 -305.2722047322047 L 349.8863636363636 -295.2722047322047 Z" style="stroke:none;"/>
        </g>
        <g>
          <path d="M 337.3863636363636 -295.2722047322047 L 349.8863636363636 -295.2722047322047 L 343.6363636363636 -305.2722047322047 Z"/>
          <g style="fill:rgb(255,255,255);clip-path:url(#clip52);">
            <path d="M 381.02272727272725 -295.1457453057453 L 381.02272727272725 -305.1457453057453 L 393.52272727272725 -305.1457453057453 L 393.52272727272725 -295.1457453057453 Z" style="stroke:none;"/>
          </g>
          <g>
            <path d="M 381.02272727272725 -295.1457453057453 L 393.52272727272725 -295.1457453057453 L 387.27272727272725 -305.1457453057453 Z"/>
            <g style="fill:rgb(255,255,255);clip-path:url(#clip53);">
              <path d="M 424.6590909090909 -295.011000033 L 424.6590909090909 -305.011000033 L 437.1590909090909 -305.011000033 L 437.1590909090909 -295.011000033 Z" style="stroke:none;"/>
            </g>
            <g>
              <path d="M 424.6590909090909 -295.011000033 L 437.1590909090909 -295.011000033 L 430.9090909090909 -305.011000033 Z"/>
              <g style="fill:rgb(255,255,255);clip-path:url(#clip54);">
                <path d="M 468.2954545454545 -295.21793815793814 L 468.2954545454545 -305.21793815793814 L 480.7954545454545 -305.21793815793814 L 480.7954545454545 -295.21793815793814 Z" style="stroke:none;"/>
              </g>
              <g>
                <path d="M 468.2954545454545 -295.21793815793814 L 480.7954545454545 -295.21793815793814 L 474.5454545454545 -305.21793815793814 Z"/>
                <g style="fill:rgb(255,255,255);clip-path:url(#clip55);">
                  <path d="M 511.9318181818182 -295.0066000066 L 511.9318181818182 -305.0066000066 L 524.4318181818182 -305.0066000066 L 524.4318181818182 -295.0066000066 Z" style="stroke:none;"/>
                </g>
                <g>
                  <path d="M 511.9318181818182 -295.0066000066 L 524.4318181818182 -295.0066000066 L 518.1818181818182 -305.0066000066 Z"/>
                  <g style="fill:rgb(255,255,255);clip-path:url(#clip56);">
                    <path d="M 555.5681818181818 -295.0055000033 L 555.5681818181818 -305.0055000033 L 568.0681818181818 -305.0055000033 L 568.0681818181818 -295.0055000033 Z" style="stroke:none;"/>
                  </g>
                  <g>
                    <path d="M 555.5681818181818 -295.0055000033 L 568.0681818181818 -295.0055000033 L 561.8181818181818 -305.0055000033 Z"/>
                    <g style="fill:rgb(255,255,255);clip-path:url(#clip57);">
                      <path d="M 599.2045454545455 -295.0047142923143 L 599.2045454545455 -305.0047142923143 L 611.7045454545455 -305.0047142923143 L 611.7045454545455 -295.0047142923143 Z" style="stroke:none;"/>
                    </g>
                    <g>
                      <path d="M 599.2045454545455 -295.0047142923143 L 611.7045454545455 -295.0047142923143 L 605.4545454545455 -305.0047142923143 Z"/>
                      <g style="fill:rgb(255,255,255);clip-path:url(#clip58);">
                        <path d="M 642.840909090909 -295.004125004125 L 642.840909090909 -305.004125004125 L 655.340909090909 -305.004125004125 L 655.340909090909 -295.004125004125 Z" style="stroke:none;"/>
                      </g>
                      <g>
                        <path d="M 642.840909090909 -295.004125004125 L 655.340909090909 -295.004125004125 L 649.090909090909 -305.004125004125 Z"/>
                        <g style="fill:rgb(255,255,255);clip-path:url(#clip59);">
                          <path d="M 686.4772727272727 -295.00366667326665 L 686.4772727272727 -305.00366667326665 L 698.9772727272727 -305.00366667326665 L 698.9772727272727 -295.00366667326665 Z" style="stroke:none;"/>
                        </g>
                        <g>
                          <path d="M 686.4772727272727 -295.00366667326665 L 698.9772727272727 -295.00366667326665 L 692.7272727272727 -305.00366667326665 Z"/>
                          <g style="fill:rgb(255,255,255);clip-path:url(#clip60);">
                            <path d="M 730.1136363636364 -295.0033000033 L 730.1136363636364 -305.0033000033 L 742.6136363636364 -305.0033000033 L 742.6136363636364 -295.0033000033 Z" style="stroke:none;"/>
                          </g>
                          <g>
                            <path d="M 730.1136363636364 -295.0033000033 L 742.6136363636364 -295.0033000033 L 736.3636363636364 -305.0033000033 Z"/>
                          </g>
                        </g>
                      </g>
                    </g>
                  </g>
                </g>
              </g>
            </g>
          </g>
        </g>
      </g>
      <g style="clip-path:url(#clip61);">
        <path d="M 343.6363636363636 -300.033000033 L 387.27272727272725 -300.1019285219285 L 430.9090909090909 -300.011000033 L 474.5454545454545 -300.0852503052503 L 518.1818181818182 -300.0066000066 L 561.8181818181818 -300.0055000033 L 605.4545454545455 -300.0047142923143 L 649.090909090909 -300.02217747417745 L 692.7272727272727 -300.00366667326665 L 736.3636363636364 -300.0033000033" style="stroke:rgb(137,42,226);stroke-width:2;"/>
      </g>
      <g style="clip-path:url(#clip62);">
        <path d="M 336.4935064935065 -300.033000033 L 350.7792207792208 -300.033000033" style="stroke-width:1;"/>
        <path d="M 343.6363636363636 -292.8901428901429 L 343.6363636363636 -307.1758571758572" style="stroke-width:1;"/>
        <path d="M 380.12987012987014 -300.1019285219285 L 394.4155844155844 -300.1019285219285" style="stroke-width:1;"/>
        <path d="M 387.27272727272725 -292.95907137907136 L 387.27272727272725 -307.24478566478564" style="stroke-width:1;"/>
        <path d="M 423.76623376623377 -300.011000033 L 438.05194805194805 -300.011000033" style="stroke-width:1;"/>
        <path d="M 430.9090909090909 -292.8681428901429 L 430.9090909090909 -307.1538571758572" style="stroke-width:1;"/>
        <path d="M 467.4025974025974 -300.0852503052503 L 481.68831168831167 -300.0852503052503" style="stroke-width:1;"/>
        <path d="M 474.5454545454545 -292.94239316239316 L 474.5454545454545 -307.22810744810744" style="stroke-width:1;"/>
        <path d="M 511.038961038961 -300.0066000066 L 525.3246753246754 -300.0066000066" style="stroke-width:1;"/>
        <path d="M 518.1818181818182 -292.86374286374286 L 518.1818181818182 -307.14945714945713" style="stroke-width:1;"/>
        <path d="M 554.6753246753246 -300.0055000033 L 568.961038961039 -300.0055000033" style="stroke-width:1;"/>
        <path d="M 561.8181818181818 -292.86264286044286 L 561.8181818181818 -307.14835714615714" style="stroke-width:1;"/>
        <path d="M 598.3116883116883 -300.0047142923143 L 612.5974025974026 -300.0047142923143" style="stroke-width:1;"/>
        <path d="M 605.4545454545455 -292.86185714945714 L 605.4545454545455 -307.1475714351714" style="stroke-width:1;"/>
        <path d="M 641.9480519480519 -300.02217747417745 L 656.2337662337662 -300.02217747417745" style="stroke-width:1;"/>
        <path d="M 649.090909090909 -292.87932033132034 L 649.090909090909 -307.1650346170346" style="stroke-width:1;"/>
        <path d="M 685.5844155844156 -300.00366667326665 L 699.8701298701299 -300.00366667326665" style="stroke-width:1;"/>
        <path d="M 692.7272727272727 -292.86080953040954 L 692.7272727272727 -307.1465238161238" style="stroke-width:1;"/>
        <path d="M 729.2207792207791 -300.0033000033 L 743.5064935064936 -300.0033000033" style="stroke-width:1;"/>
        <path d="M 736.3636363636364 -292.86044286044284 L 736.3636363636364 -307.1461571461571" style="stroke-width:1;"/>
      </g>
      <g style="clip-path:url(#clip63);">
        <path d="M 343.6363636363636 -300.033000033 L 387.27272727272725 -300.0165000165 L 430.9090909090909 -300.011000033 L 474.5454545454545 -300.00825000825 L 518.1818181818182 -300.0066000066 L 561.8181818181818 -300.0055000033 L 605.4545454545455 -300.0047142923143 L 649.090909090909 -300.004125004125 L 692.7272727272727 -300.00366667326665 L 736.3636363636364 -300.0033000033" style="stroke:rgb(126,126,126);stroke-width:2;"/>
      </g>
      <g style="clip-path:url(#clip64);">
        <g style="fill:rgb(255,255,255);clip-path:url(#clip65);">
          <path d="M 336.4935064935065 -292.8901428901429 L 336.4935064935065 -307.1758571758572 L 350.7792207792208 -307.1758571758572 L 350.7792207792208 -292.8901428901429 Z" style="stroke:none;"/>
        </g>
        <g>
          <path d="M 336.4935064935065 -300.033000033 L 343.6363636363636 -307.1758571758572 L 350.7792207792208 -300.033000033 L 343.6363636363636 -292.8901428901429 Z"/>
          <g style="fill:rgb(255,255,255);clip-path:url(#clip66);">
            <path d="M 380.12987012987014 -292.8736428736429 L 380.12987012987014 -307.15935715935717 L 394.4155844155844 -307.15935715935717 L 394.4155844155844 -292.8736428736429 Z" style="stroke:none;"/>
          </g>
          <g>
            <path d="M 380.12987012987014 -300.0165000165 L 387.27272727272725 -307.15935715935717 L 394.4155844155844 -300.0165000165 L 387.27272727272725 -292.8736428736429 Z"/>
            <g style="fill:rgb(255,255,255);clip-path:url(#clip67);">
              <path d="M 423.76623376623377 -292.8681428901429 L 423.76623376623377 -307.1538571758572 L 438.05194805194805 -307.1538571758572 L 438.05194805194805 -292.8681428901429 Z" style="stroke:none;"/>
            </g>
            <g>
              <path d="M 423.76623376623377 -300.011000033 L 430.9090909090909 -307.1538571758572 L 438.05194805194805 -300.011000033 L 430.9090909090909 -292.8681428901429 Z"/>
              <g style="fill:rgb(255,255,255);clip-path:url(#clip68);">
                <path d="M 467.4025974025974 -292.8653928653929 L 467.4025974025974 -307.15110715110717 L 481.68831168831167 -307.15110715110717 L 481.68831168831167 -292.8653928653929 Z" style="stroke:none;"/>
              </g>
              <g>
                <path d="M 467.4025974025974 -300.00825000825 L 474.5454545454545 -307.15110715110717 L 481.68831168831167 -300.00825000825 L 474.5454545454545 -292.8653928653929 Z"/>
                <g style="fill:rgb(255,255,255);clip-path:url(#clip69);">
                  <path d="M 511.038961038961 -292.86374286374286 L 511.038961038961 -307.14945714945713 L 525.3246753246754 -307.14945714945713 L 525.3246753246754 -292.86374286374286 Z" style="stroke:none;"/>
                </g>
                <g>
                  <path d="M 511.038961038961 -300.0066000066 L 518.1818181818182 -307.14945714945713 L 525.3246753246754 -300.0066000066 L 518.1818181818182 -292.86374286374286 Z"/>
                  <g style="fill:rgb(255,255,255);clip-path:url(#clip70);">
                    <path d="M 554.6753246753246 -292.86264286044286 L 554.6753246753246 -307.14835714615714 L 568.961038961039 -307.14835714615714 L 568.961038961039 -292.86264286044286 Z" style="stroke:none;"/>
                  </g>
                  <g>
                    <path d="M 554.6753246753246 -300.0055000033 L 561.8181818181818 -307.14835714615714 L 568.961038961039 -300.0055000033 L 561.8181818181818 -292.86264286044286 Z"/>
                    <g style="fill:rgb(255,255,255);clip-path:url(#clip71);">
                      <path d="M 598.3116883116883 -292.86185714945714 L 598.3116883116883 -307.1475714351714 L 612.5974025974026 -307.1475714351714 L 612.5974025974026 -292.86185714945714 Z" style="stroke:none;"/>
                    </g>
                    <g>
                      <path d="M 598.3116883116883 -300.0047142923143 L 605.4545454545455 -307.1475714351714 L 612.5974025974026 -300.0047142923143 L 605.4545454545455 -292.86185714945714 Z"/>
                      <g style="fill:rgb(255,255,255);clip-path:url(#clip72);">
                        <path d="M 641.9480519480519 -292.86126786126783 L 641.9480519480519 -307.14698214698217 L 656.2337662337662 -307.14698214698217 L 656.2337662337662 -292.86126786126783 Z" style="stroke:none;"/>
                      </g>
                      <g>
                        <path d="M 641.9480519480519 -300.004125004125 L 649.090909090909 -307.14698214698217 L 656.2337662337662 -300.004125004125 L 649.090909090909 -292.86126786126783 Z"/>
                        <g style="fill:rgb(255,255,255);clip-path:url(#clip73);">
                          <path d="M 685.5844155844156 -292.86080953040954 L 685.5844155844156 -307.1465238161238 L 699.8701298701299 -307.1465238161238 L 699.8701298701299 -292.86080953040954 Z" style="stroke:none;"/>
                        </g>
                        <g>
                          <path d="M 685.5844155844156 -300.00366667326665 L 692.7272727272727 -307.1465238161238 L 699.8701298701299 -300.00366667326665 L 692.7272727272727 -292.86080953040954 Z"/>
                          <g style="fill:rgb(255,255,255);clip-path:url(#clip74);">
                            <path d="M 729.2207792207791 -292.86044286044284 L 729.2207792207791 -307.1461571461571 L 743.5064935064936 -307.1461571461571 L 743.5064935064936 -292.86044286044284 Z" style="stroke:none;"/>
                          </g>
                          <g>
                            <path d="M 729.2207792207791 -300.0033000033 L 736.3636363636364 -307.1461571461571 L 743.5064935064936 -300.0033000033 L 736.3636363636364 -292.86044286044284 Z"/>
                          </g>
                        </g>
                      </g>
                    </g>
                  </g>
                </g>
              </g>
            </g>
          </g>
        </g>
      </g>
    </g>
    <g style="fill:rgb(255,255,255);clip-path:url(#clip75);">
      <path d="M 290 6 L 290 -136 L 456.72 -136 L 456.72 6 Z" style="stroke:none;"/>
    </g>
    <path d="M 300 -125.33333333333334 L 316 -125.33333333333334" style="stroke:rgb(126,126,126);stroke-width:0.4;stroke-dasharray:1.5,1.5;"/>
    <g style="fill:rgb(0,0,0);clip-path:url(#clip76);">
      <path d="M 301.75 -120.33333333333334 L 301.75 -130.33333333333334 L 314.25 -130.33333333333334 L 314.25 -120.33333333333334 Z" style="stroke:none;"/>
    </g>
    <g>
      <path d="M 308.0 -120.33333333333334 L 301.75 -130.33333333333334 L 314.25 -130.33333333333334 Z"/>
      <text style="font-size:16;stroke:none;fill:rgb(0,0,0);" x="316.0" y="-120.0">
        n_pq_deque
      </text>
      <path d="M 300 -105.33333333333334 L 316 -105.33333333333334" style="stroke:rgb(126,126,126);stroke-width:0.4;stroke-dasharray:5,2,5,2;"/>
      <g style="fill:rgb(0,0,0);clip-path:url(#clip77);">
        <path d="M 300.85714285714283 -98.1904761904762 L 300.85714285714283 -112.47619047619048 L 315.14285714285717 -112.47619047619048 L 315.14285714285717 -98.1904761904762 Z" style="stroke:none;"/>
      </g>
      <g>
        <path d="M 300.85714285714283 -105.33333333333334 L 308.0 -112.47619047619048 L 315.14285714285717 -105.33333333333334 L 308.0 -98.1904761904762 Z"/>
        <text style="font-size:16;stroke:none;fill:rgb(0,0,0);" x="316.0" y="-100.0">
          n_pq_vector
        </text>
        <path d="M 300 -85.33333333333334 L 316 -85.33333333333334" style="stroke:rgb(205,0,0);stroke-width:2;"/>
        <g style="fill:rgb(255,255,255);clip-path:url(#clip78);">
          <path d="M 301.75 -80.33333333333334 L 301.75 -90.33333333333334 L 314.25 -90.33333333333334 L 314.25 -80.33333333333334 Z" style="stroke:none;"/>
        </g>
        <g>
          <path d="M 308.0 -80.33333333333334 L 301.75 -90.33333333333334 L 314.25 -90.33333333333334 Z"/>
          <text style="font-size:16;stroke:none;fill:rgb(0,0,0);" x="316.0" y="-80.0">
            binary_heap
          </text>
          <path d="M 300 -65.33333333333334 L 316 -65.33333333333334" style="stroke:rgb(126,126,126);stroke-width:0.4;stroke-dasharray:1.5,1.5;"/>
          <g style="fill:rgb(0,0,0);clip-path:url(#clip79);">
            <path d="M 301.75 -60.33333333333334 L 301.75 -70.33333333333334 L 314.25 -70.33333333333334 L 314.25 -60.33333333333334 Z" style="stroke:none;"/>
          </g>
          <g>
            <path d="M 308.0 -60.33333333333334 L 301.75 -70.33333333333334 L 314.25 -70.33333333333334 Z"/>
            <text style="font-size:16;stroke:none;fill:rgb(0,0,0);" x="316.0" y="-60.0">
              thin_heap
            </text>
            <path d="M 300 -45.33333333333334 L 316 -45.33333333333334" style="stroke:rgb(147,147,147);stroke-width:2;"/>
            <g style="fill:rgb(255,255,255);clip-path:url(#clip80);">
              <path d="M 301.75 -40.33333333333337 L 301.75 -50.33333333333334 L 314.25 -50.33333333333334 L 314.25 -40.33333333333337 Z" style="stroke:none;"/>
            </g>
            <g>
              <path d="M 301.75 -40.33333333333337 L 314.25 -40.33333333333337 L 308.0 -50.33333333333334 Z"/>
              <text style="font-size:16;stroke:none;fill:rgb(0,0,0);" x="316.0" y="-40.0">
                binomial_heap
              </text>
              <path d="M 300 -25.333333333333314 L 316 -25.333333333333314" style="stroke:rgb(137,42,226);stroke-width:2;"/>
              <path d="M 300.85714285714283 -25.333333333333314 L 315.14285714285717 -25.333333333333314" style="stroke-width:1;"/>
              <path d="M 308.0 -18.190476190476147 L 308.0 -32.47619047619048" style="stroke-width:1;"/>
              <text style="font-size:16;stroke:none;fill:rgb(0,0,0);" x="316.0" y="-20.0">
                pairing_heap
              </text>
              <path d="M 300 -5.333333333333314 L 316 -5.333333333333314" style="stroke:rgb(126,126,126);stroke-width:2;"/>
              <g style="fill:rgb(255,255,255);clip-path:url(#clip81);">
                <path d="M 300.85714285714283 1.8095238095238528 L 300.85714285714283 -12.476190476190482 L 315.14285714285717 -12.476190476190482 L 315.14285714285717 1.8095238095238528 Z" style="stroke:none;"/>
              </g>
              <g>
                <path d="M 300.85714285714283 -5.333333333333314 L 308.0 -12.476190476190482 L 315.14285714285717 -5.333333333333314 L 308.0 1.8095238095238528 Z"/>
                <text style="font-size:16;stroke:none;fill:rgb(0,0,0);" x="316.0" y="-0.0">
                  rc_binomial_heap
                </text>
              </g>
            </g>
          </g>
        </g>
      </g>
    </g>
  </g>
</svg>
