<?xml version="1.0" ?>
<!--Created by PyChart 1.39 Copyright 1999-2006 Yasushi Saito-->
<svg viewBox="178 -544 620 516" xmlns="http://www.w3.org/2000/svg" xmlns:xlink="http://www.w3.org/1999/xlink">
  <defs>
    <clipPath id="clip0">
      <path d="M 294 -294 L 294 -526 L 786 -526 L 786 -294 Z"/>
    </clipPath>
    <clipPath id="clip1">
      <path d="M 294 -294 L 294 -526 L 786 -526 L 786 -294 Z"/>
    </clipPath>
    <clipPath id="clip2">
      <path d="M 280 -280 L 280 -540 L 800 -540 L 800 -280 Z"/>
    </clipPath>
    <clipPath id="clip3">
      <path d="M 337.3863636363636 -466.12785862785864 L 349.8863636363636 -466.12785862785864 L 343.6363636363636 -476.12785862785864 Z"/>
    </clipPath>
    <clipPath id="clip4">
      <path d="M 381.02272727272725 -480.0696465696466 L 393.52272727272725 -480.0696465696466 L 387.27272727272725 -490.0696465696466 Z"/>
    </clipPath>
    <clipPath id="clip5">
      <path d="M 424.6590909090909 -488.6995841995842 L 437.1590909090909 -488.6995841995842 L 430.9090909090909 -498.6995841995842 Z"/>
    </clipPath>
    <clipPath id="clip6">
      <path d="M 468.2954545454545 -496.2307692307692 L 480.7954545454545 -496.2307692307692 L 474.5454545454545 -506.2307692307692 Z"/>
    </clipPath>
    <clipPath id="clip7">
      <path d="M 511.9318181818182 -499.34615384615387 L 524.4318181818182 -499.34615384615387 L 518.1818181818182 -509.34615384615387 Z"/>
    </clipPath>
    <clipPath id="clip8">
      <path d="M 555.5681818181818 -503.12525987525987 L 568.0681818181818 -503.12525987525987 L 561.8181818181818 -513.1252598752599 Z"/>
    </clipPath>
    <clipPath id="clip9">
      <path d="M 599.2045454545455 -506.6304573804574 L 611.7045454545455 -506.6304573804574 L 605.4545454545455 -516.6304573804574 Z"/>
    </clipPath>
    <clipPath id="clip10">
      <path d="M 642.840909090909 -511.5628898128898 L 655.340909090909 -511.5628898128898 L 649.090909090909 -521.5628898128898 Z"/>
    </clipPath>
    <clipPath id="clip11">
      <path d="M 686.4772727272727 -509.18295218295214 L 698.9772727272727 -509.18295218295214 L 692.7272727272727 -519.1829521829521 Z"/>
    </clipPath>
    <clipPath id="clip12">
      <path d="M 730.1136363636364 -515.0 L 742.6136363636364 -515.0 L 736.3636363636364 -525.0 Z"/>
    </clipPath>
    <clipPath id="clip13">
      <path d="M 294 -294 L 294 -526 L 786 -526 L 786 -294 Z"/>
    </clipPath>
    <clipPath id="clip14">
      <path d="M 280 -280 L 280 -540 L 800 -540 L 800 -280 Z"/>
    </clipPath>
    <clipPath id="clip15">
      <path d="M 343.6363636363636 -397.05405405405406 L 337.3863636363636 -407.05405405405406 L 349.8863636363636 -407.05405405405406 Z"/>
    </clipPath>
    <clipPath id="clip16">
      <path d="M 387.27272727272725 -406.1049896049896 L 381.02272727272725 -416.1049896049896 L 393.52272727272725 -416.1049896049896 Z"/>
    </clipPath>
    <clipPath id="clip17">
      <path d="M 430.9090909090909 -410.38617463617464 L 424.6590909090909 -420.38617463617464 L 437.1590909090909 -420.38617463617464 Z"/>
    </clipPath>
    <clipPath id="clip18">
      <path d="M 474.5454545454545 -415.27286902286903 L 468.2954545454545 -425.27286902286903 L 480.7954545454545 -425.27286902286903 Z"/>
    </clipPath>
    <clipPath id="clip19">
      <path d="M 518.1818181818182 -418.66528066528065 L 511.9318181818182 -428.66528066528065 L 524.4318181818182 -428.66528066528065 Z"/>
    </clipPath>
    <clipPath id="clip20">
      <path d="M 561.8181818181818 -421.54417879417883 L 555.5681818181818 -431.54417879417883 L 568.0681818181818 -431.54417879417883 Z"/>
    </clipPath>
    <clipPath id="clip21">
      <path d="M 605.4545454545455 -422.0769230769231 L 599.2045454545455 -432.0769230769231 L 611.7045454545455 -432.0769230769231 Z"/>
    </clipPath>
    <clipPath id="clip22">
      <path d="M 649.090909090909 -425.10239085239084 L 642.840909090909 -435.10239085239084 L 655.340909090909 -435.10239085239084 Z"/>
    </clipPath>
    <clipPath id="clip23">
      <path d="M 692.7272727272727 -426.4890852390853 L 686.4772727272727 -436.4890852390853 L 698.9772727272727 -436.4890852390853 Z"/>
    </clipPath>
    <clipPath id="clip24">
      <path d="M 736.3636363636364 -431.35446985446987 L 730.1136363636364 -441.35446985446987 L 742.6136363636364 -441.35446985446987 Z"/>
    </clipPath>
    <clipPath id="clip25">
      <path d="M 294 -294 L 294 -526 L 786 -526 L 786 -294 Z"/>
    </clipPath>
    <clipPath id="clip26">
      <path d="M 280 -280 L 280 -540 L 800 -540 L 800 -280 Z"/>
    </clipPath>
    <clipPath id="clip27">
      <path d="M 294 -294 L 294 -526 L 786 -526 L 786 -294 Z"/>
    </clipPath>
    <clipPath id="clip28">
      <path d="M 280 -280 L 280 -540 L 800 -540 L 800 -280 Z"/>
    </clipPath>
    <clipPath id="clip29">
      <path d="M 343.6363636363636 -392.99012474012477 L 337.3863636363636 -402.99012474012477 L 349.8863636363636 -402.99012474012477 Z"/>
    </clipPath>
    <clipPath id="clip30">
      <path d="M 387.27272727272725 -402.70841995842 L 381.02272727272725 -412.70841995842 L 393.52272727272725 -412.70841995842 Z"/>
    </clipPath>
    <clipPath id="clip31">
      <path d="M 430.9090909090909 -407.35031185031187 L 424.6590909090909 -417.35031185031187 L 437.1590909090909 -417.35031185031187 Z"/>
    </clipPath>
    <clipPath id="clip32">
      <path d="M 474.5454545454545 -413.27598752598755 L 468.2954545454545 -423.27598752598755 L 480.7954545454545 -423.27598752598755 Z"/>
    </clipPath>
    <clipPath id="clip33">
      <path d="M 518.1818181818182 -414.70841995841994 L 511.9318181818182 -424.70841995841994 L 524.4318181818182 -424.70841995841994 Z"/>
    </clipPath>
    <clipPath id="clip34">
      <path d="M 561.8181818181818 -420.1637214137214 L 555.5681818181818 -430.1637214137214 L 568.0681818181818 -430.1637214137214 Z"/>
    </clipPath>
    <clipPath id="clip35">
      <path d="M 605.4545454545455 -418.75 L 599.2045454545455 -428.75 L 611.7045454545455 -428.75 Z"/>
    </clipPath>
    <clipPath id="clip36">
      <path d="M 649.090909090909 -421.5223492723493 L 642.840909090909 -431.5223492723493 L 655.340909090909 -431.5223492723493 Z"/>
    </clipPath>
    <clipPath id="clip37">
      <path d="M 692.7272727272727 -423.99480249480246 L 686.4772727272727 -433.99480249480246 L 698.9772727272727 -433.99480249480246 Z"/>
    </clipPath>
    <clipPath id="clip38">
      <path d="M 736.3636363636364 -428.6081081081081 L 730.1136363636364 -438.6081081081081 L 742.6136363636364 -438.6081081081081 Z"/>
    </clipPath>
    <clipPath id="clip39">
      <path d="M 294 -294 L 294 -526 L 786 -526 L 786 -294 Z"/>
    </clipPath>
    <clipPath id="clip40">
      <path d="M 280 -280 L 280 -540 L 800 -540 L 800 -280 Z"/>
    </clipPath>
    <clipPath id="clip41">
      <path d="M 290 -34 L 290 -136 L 444.272 -136 L 444.272 -34 Z"/>
    </clipPath>
    <clipPath id="clip42">
      <path d="M 301.75 -120.33333333333334 L 314.25 -120.33333333333334 L 308.0 -130.33333333333334 Z"/>
    </clipPath>
    <clipPath id="clip43">
      <path d="M 308.0 -100.33333333333334 L 301.75 -110.33333333333334 L 314.25 -110.33333333333334 Z"/>
    </clipPath>
    <clipPath id="clip44">
      <path d="M 308.0 -60.33333333333334 L 301.75 -70.33333333333334 L 314.25 -70.33333333333334 Z"/>
    </clipPath>
  </defs>
  <g style="stroke-linejoin:miter;font-size:8;font-family:Helvetica;fill:none;stroke-linecap:butt;stroke:rgb(0,0,0);font-stretch:normal;stroke-dasharray:none;font-weight:normal;font-style:normal;stroke-width:0.5;">
    <path d="M 300 -300 L 780 -300"/>
    <path d="M 300 -300 L 780 -300"/>
    <path d="M 300.0 -300 L 300.0 -288"/>
    <text style="font-size:12;font-style:italic;stroke:none;fill:rgb(0,0,0);" transform="rotate(90,300,-288)" x="300.0" y="-288.0">
      0
    </text>
    <path d="M 343.6363636363636 -300 L 343.6363636363636 -288"/>
    <text style="font-size:12;font-style:italic;stroke:none;fill:rgb(0,0,0);" transform="rotate(90,343.636,-288)" x="343.6363636363636" y="-288.0">
      200
    </text>
    <path d="M 387.27272727272725 -300 L 387.27272727272725 -288"/>
    <text style="font-size:12;font-style:italic;stroke:none;fill:rgb(0,0,0);" transform="rotate(90,387.273,-288)" x="387.27272727272725" y="-288.0">
      400
    </text>
    <path d="M 430.9090909090909 -300 L 430.9090909090909 -288"/>
    <text style="font-size:12;font-style:italic;stroke:none;fill:rgb(0,0,0);" transform="rotate(90,430.909,-288)" x="430.9090909090909" y="-288.0">
      600
    </text>
    <path d="M 474.5454545454545 -300 L 474.5454545454545 -288"/>
    <text style="font-size:12;font-style:italic;stroke:none;fill:rgb(0,0,0);" transform="rotate(90,474.545,-288)" x="474.5454545454545" y="-288.0">
      800
    </text>
    <path d="M 518.1818181818182 -300 L 518.1818181818182 -288"/>
    <text style="font-size:12;font-style:italic;stroke:none;fill:rgb(0,0,0);" transform="rotate(90,518.182,-288)" x="518.1818181818182" y="-288.0">
      1000
    </text>
    <path d="M 561.8181818181818 -300 L 561.8181818181818 -288"/>
    <text style="font-size:12;font-style:italic;stroke:none;fill:rgb(0,0,0);" transform="rotate(90,561.818,-288)" x="561.8181818181818" y="-288.0">
      1200
    </text>
    <path d="M 605.4545454545455 -300 L 605.4545454545455 -288"/>
    <text style="font-size:12;font-style:italic;stroke:none;fill:rgb(0,0,0);" transform="rotate(90,605.455,-288)" x="605.4545454545455" y="-288.0">
      1400
    </text>
    <path d="M 649.090909090909 -300 L 649.090909090909 -288"/>
    <text style="font-size:12;font-style:italic;stroke:none;fill:rgb(0,0,0);" transform="rotate(90,649.091,-288)" x="649.090909090909" y="-288.0">
      1600
    </text>
    <path d="M 692.7272727272727 -300 L 692.7272727272727 -288"/>
    <text style="font-size:12;font-style:italic;stroke:none;fill:rgb(0,0,0);" transform="rotate(90,692.727,-288)" x="692.7272727272727" y="-288.0">
      1800
    </text>
    <path d="M 736.3636363636364 -300 L 736.3636363636364 -288"/>
    <text style="font-size:12;font-style:italic;stroke:none;fill:rgb(0,0,0);" transform="rotate(90,736.364,-288)" x="736.3636363636364" y="-288.0">
      2000
    </text>
    <path d="M 780.0 -300 L 780.0 -288"/>
    <text style="font-size:12;font-style:italic;stroke:none;fill:rgb(0,0,0);" transform="rotate(90,780,-288)" x="780.0" y="-288.0">
      2200
    </text>
    <text style="font-size:16;stroke:none;fill:rgb(0,0,0);" x="524.44" y="-220.0">
      Size
    </text>
    <path d="M 300 -300 L 300 -520"/>
    <path d="M 300 -300.0 L 288 -300.0"/>
    <text style="font-size:12;font-style:italic;stroke:none;fill:rgb(0,0,0);" x="238.0" y="-294.0">
      0.00e+00
    </text>
    <path d="M 300 -344.0 L 288 -344.0"/>
    <text style="font-size:12;font-style:italic;stroke:none;fill:rgb(0,0,0);" x="238.0" y="-338.0">
      8.47e-08
    </text>
    <path d="M 300 -388.0 L 288 -388.0"/>
    <text style="font-size:12;font-style:italic;stroke:none;fill:rgb(0,0,0);" x="238.0" y="-382.0">
      1.69e-07
    </text>
    <path d="M 300 -432.0 L 288 -432.0"/>
    <text style="font-size:12;font-style:italic;stroke:none;fill:rgb(0,0,0);" x="238.0" y="-426.0">
      2.54e-07
    </text>
    <path d="M 300 -476.0 L 288 -476.0"/>
    <text style="font-size:12;font-style:italic;stroke:none;fill:rgb(0,0,0);" x="238.0" y="-470.0">
      3.39e-07
    </text>
    <path d="M 300 -520.0 L 288 -520.0"/>
    <text style="font-size:12;font-style:italic;stroke:none;fill:rgb(0,0,0);" x="238.0" y="-514.0">
      4.23e-07
    </text>
    <text style="font-size:16;stroke:none;fill:rgb(0,0,0);" transform="rotate(-90,200,-340.648)" x="200.0" y="-340.648">
      Average time (sec.)
    </text>
    <g style="clip-path:url(#clip0);">
      <g style="clip-path:url(#clip1);">
        <path d="M 343.6363636363636 -471.12785862785864 L 387.27272727272725 -485.0696465696466 L 430.9090909090909 -493.6995841995842 L 474.5454545454545 -501.2307692307692 L 518.1818181818182 -504.34615384615387 L 561.8181818181818 -508.12525987525987 L 605.4545454545455 -511.6304573804574 L 649.090909090909 -516.5628898128898 L 692.7272727272727 -514.1829521829521 L 736.3636363636364 -520.0" style="stroke:rgb(147,147,147);stroke-width:2;"/>
      </g>
      <g style="clip-path:url(#clip2);">
        <g style="fill:rgb(255,255,255);clip-path:url(#clip3);">
          <path d="M 337.3863636363636 -466.12785862785864 L 337.3863636363636 -476.12785862785864 L 349.8863636363636 -476.12785862785864 L 349.8863636363636 -466.12785862785864 Z" style="stroke:none;"/>
        </g>
        <g>
          <path d="M 337.3863636363636 -466.12785862785864 L 349.8863636363636 -466.12785862785864 L 343.6363636363636 -476.12785862785864 Z"/>
          <g style="fill:rgb(255,255,255);clip-path:url(#clip4);">
            <path d="M 381.02272727272725 -480.0696465696466 L 381.02272727272725 -490.0696465696466 L 393.52272727272725 -490.0696465696466 L 393.52272727272725 -480.0696465696466 Z" style="stroke:none;"/>
          </g>
          <g>
            <path d="M 381.02272727272725 -480.0696465696466 L 393.52272727272725 -480.0696465696466 L 387.27272727272725 -490.0696465696466 Z"/>
            <g style="fill:rgb(255,255,255);clip-path:url(#clip5);">
              <path d="M 424.6590909090909 -488.6995841995842 L 424.6590909090909 -498.6995841995842 L 437.1590909090909 -498.6995841995842 L 437.1590909090909 -488.6995841995842 Z" style="stroke:none;"/>
            </g>
            <g>
              <path d="M 424.6590909090909 -488.6995841995842 L 437.1590909090909 -488.6995841995842 L 430.9090909090909 -498.6995841995842 Z"/>
              <g style="fill:rgb(255,255,255);clip-path:url(#clip6);">
                <path d="M 468.2954545454545 -496.2307692307692 L 468.2954545454545 -506.2307692307692 L 480.7954545454545 -506.2307692307692 L 480.7954545454545 -496.2307692307692 Z" style="stroke:none;"/>
              </g>
              <g>
                <path d="M 468.2954545454545 -496.2307692307692 L 480.7954545454545 -496.2307692307692 L 474.5454545454545 -506.2307692307692 Z"/>
                <g style="fill:rgb(255,255,255);clip-path:url(#clip7);">
                  <path d="M 511.9318181818182 -499.34615384615387 L 511.9318181818182 -509.34615384615387 L 524.4318181818182 -509.34615384615387 L 524.4318181818182 -499.34615384615387 Z" style="stroke:none;"/>
                </g>
                <g>
                  <path d="M 511.9318181818182 -499.34615384615387 L 524.4318181818182 -499.34615384615387 L 518.1818181818182 -509.34615384615387 Z"/>
                  <g style="fill:rgb(255,255,255);clip-path:url(#clip8);">
                    <path d="M 555.5681818181818 -503.12525987525987 L 555.5681818181818 -513.1252598752599 L 568.0681818181818 -513.1252598752599 L 568.0681818181818 -503.12525987525987 Z" style="stroke:none;"/>
                  </g>
                  <g>
                    <path d="M 555.5681818181818 -503.12525987525987 L 568.0681818181818 -503.12525987525987 L 561.8181818181818 -513.1252598752599 Z"/>
                    <g style="fill:rgb(255,255,255);clip-path:url(#clip9);">
                      <path d="M 599.2045454545455 -506.6304573804574 L 599.2045454545455 -516.6304573804574 L 611.7045454545455 -516.6304573804574 L 611.7045454545455 -506.6304573804574 Z" style="stroke:none;"/>
                    </g>
                    <g>
                      <path d="M 599.2045454545455 -506.6304573804574 L 611.7045454545455 -506.6304573804574 L 605.4545454545455 -516.6304573804574 Z"/>
                      <g style="fill:rgb(255,255,255);clip-path:url(#clip10);">
                        <path d="M 642.840909090909 -511.5628898128898 L 642.840909090909 -521.5628898128898 L 655.340909090909 -521.5628898128898 L 655.340909090909 -511.5628898128898 Z" style="stroke:none;"/>
                      </g>
                      <g>
                        <path d="M 642.840909090909 -511.5628898128898 L 655.340909090909 -511.5628898128898 L 649.090909090909 -521.5628898128898 Z"/>
                        <g style="fill:rgb(255,255,255);clip-path:url(#clip11);">
                          <path d="M 686.4772727272727 -509.18295218295214 L 686.4772727272727 -519.1829521829521 L 698.9772727272727 -519.1829521829521 L 698.9772727272727 -509.18295218295214 Z" style="stroke:none;"/>
                        </g>
                        <g>
                          <path d="M 686.4772727272727 -509.18295218295214 L 698.9772727272727 -509.18295218295214 L 692.7272727272727 -519.1829521829521 Z"/>
                          <g style="fill:rgb(255,255,255);clip-path:url(#clip12);">
                            <path d="M 730.1136363636364 -515.0 L 730.1136363636364 -525.0 L 742.6136363636364 -525.0 L 742.6136363636364 -515.0 Z" style="stroke:none;"/>
                          </g>
                          <g>
                            <path d="M 730.1136363636364 -515.0 L 742.6136363636364 -515.0 L 736.3636363636364 -525.0 Z"/>
                          </g>
                        </g>
                      </g>
                    </g>
                  </g>
                </g>
              </g>
            </g>
          </g>
        </g>
      </g>
      <g style="clip-path:url(#clip13);">
        <path d="M 343.6363636363636 -402.05405405405406 L 387.27272727272725 -411.1049896049896 L 430.9090909090909 -415.38617463617464 L 474.5454545454545 -420.27286902286903 L 518.1818181818182 -423.66528066528065 L 561.8181818181818 -426.54417879417883 L 605.4545454545455 -427.0769230769231 L 649.090909090909 -430.10239085239084 L 692.7272727272727 -431.4890852390853 L 736.3636363636364 -436.35446985446987" style="stroke:rgb(126,126,126);stroke-width:0.4;stroke-dasharray:1.5,1.5;"/>
      </g>
      <g style="clip-path:url(#clip14);">
        <g style="fill:rgb(0,0,0);clip-path:url(#clip15);">
          <path d="M 337.3863636363636 -397.05405405405406 L 337.3863636363636 -407.05405405405406 L 349.8863636363636 -407.05405405405406 L 349.8863636363636 -397.05405405405406 Z" style="stroke:none;"/>
        </g>
        <g>
          <path d="M 343.6363636363636 -397.05405405405406 L 337.3863636363636 -407.05405405405406 L 349.8863636363636 -407.05405405405406 Z"/>
          <g style="fill:rgb(0,0,0);clip-path:url(#clip16);">
            <path d="M 381.02272727272725 -406.1049896049896 L 381.02272727272725 -416.1049896049896 L 393.52272727272725 -416.1049896049896 L 393.52272727272725 -406.1049896049896 Z" style="stroke:none;"/>
          </g>
          <g>
            <path d="M 387.27272727272725 -406.1049896049896 L 381.02272727272725 -416.1049896049896 L 393.52272727272725 -416.1049896049896 Z"/>
            <g style="fill:rgb(0,0,0);clip-path:url(#clip17);">
              <path d="M 424.6590909090909 -410.38617463617464 L 424.6590909090909 -420.38617463617464 L 437.1590909090909 -420.38617463617464 L 437.1590909090909 -410.38617463617464 Z" style="stroke:none;"/>
            </g>
            <g>
              <path d="M 430.9090909090909 -410.38617463617464 L 424.6590909090909 -420.38617463617464 L 437.1590909090909 -420.38617463617464 Z"/>
              <g style="fill:rgb(0,0,0);clip-path:url(#clip18);">
                <path d="M 468.2954545454545 -415.27286902286903 L 468.2954545454545 -425.27286902286903 L 480.7954545454545 -425.27286902286903 L 480.7954545454545 -415.27286902286903 Z" style="stroke:none;"/>
              </g>
              <g>
                <path d="M 474.5454545454545 -415.27286902286903 L 468.2954545454545 -425.27286902286903 L 480.7954545454545 -425.27286902286903 Z"/>
                <g style="fill:rgb(0,0,0);clip-path:url(#clip19);">
                  <path d="M 511.9318181818182 -418.66528066528065 L 511.9318181818182 -428.66528066528065 L 524.4318181818182 -428.66528066528065 L 524.4318181818182 -418.66528066528065 Z" style="stroke:none;"/>
                </g>
                <g>
                  <path d="M 518.1818181818182 -418.66528066528065 L 511.9318181818182 -428.66528066528065 L 524.4318181818182 -428.66528066528065 Z"/>
                  <g style="fill:rgb(0,0,0);clip-path:url(#clip20);">
                    <path d="M 555.5681818181818 -421.54417879417883 L 555.5681818181818 -431.54417879417883 L 568.0681818181818 -431.54417879417883 L 568.0681818181818 -421.54417879417883 Z" style="stroke:none;"/>
                  </g>
                  <g>
                    <path d="M 561.8181818181818 -421.54417879417883 L 555.5681818181818 -431.54417879417883 L 568.0681818181818 -431.54417879417883 Z"/>
                    <g style="fill:rgb(0,0,0);clip-path:url(#clip21);">
                      <path d="M 599.2045454545455 -422.0769230769231 L 599.2045454545455 -432.0769230769231 L 611.7045454545455 -432.0769230769231 L 611.7045454545455 -422.0769230769231 Z" style="stroke:none;"/>
                    </g>
                    <g>
                      <path d="M 605.4545454545455 -422.0769230769231 L 599.2045454545455 -432.0769230769231 L 611.7045454545455 -432.0769230769231 Z"/>
                      <g style="fill:rgb(0,0,0);clip-path:url(#clip22);">
                        <path d="M 642.840909090909 -425.10239085239084 L 642.840909090909 -435.10239085239084 L 655.340909090909 -435.10239085239084 L 655.340909090909 -425.10239085239084 Z" style="stroke:none;"/>
                      </g>
                      <g>
                        <path d="M 649.090909090909 -425.10239085239084 L 642.840909090909 -435.10239085239084 L 655.340909090909 -435.10239085239084 Z"/>
                        <g style="fill:rgb(0,0,0);clip-path:url(#clip23);">
                          <path d="M 686.4772727272727 -426.4890852390853 L 686.4772727272727 -436.4890852390853 L 698.9772727272727 -436.4890852390853 L 698.9772727272727 -426.4890852390853 Z" style="stroke:none;"/>
                        </g>
                        <g>
                          <path d="M 692.7272727272727 -426.4890852390853 L 686.4772727272727 -436.4890852390853 L 698.9772727272727 -436.4890852390853 Z"/>
                          <g style="fill:rgb(0,0,0);clip-path:url(#clip24);">
                            <path d="M 730.1136363636364 -431.35446985446987 L 730.1136363636364 -441.35446985446987 L 742.6136363636364 -441.35446985446987 L 742.6136363636364 -431.35446985446987 Z" style="stroke:none;"/>
                          </g>
                          <g>
                            <path d="M 736.3636363636364 -431.35446985446987 L 730.1136363636364 -441.35446985446987 L 742.6136363636364 -441.35446985446987 Z"/>
                          </g>
                        </g>
                      </g>
                    </g>
                  </g>
                </g>
              </g>
            </g>
          </g>
        </g>
      </g>
      <g style="clip-path:url(#clip25);">
        <path d="M 343.6363636363636 -399.8295218295218 L 387.27272727272725 -407.70841995842 L 430.9090909090909 -414.02442827442826 L 474.5454545454545 -418.27598752598755 L 518.1818181818182 -422.03950103950103 L 561.8181818181818 -425.86538461538464 L 605.4545454545455 -428.8918918918919 L 649.090909090909 -430.94490644490645 L 692.7272727272727 -433.43762993762994 L 736.3636363636364 -434.41839916839916" style="stroke:rgb(255,68,0);stroke-width:2;"/>
      </g>
      <g style="clip-path:url(#clip26);">
        <path d="M 338.6363636363636 -394.8295218295218 L 348.6363636363636 -404.8295218295218" style="stroke-width:1;"/>
        <path d="M 348.6363636363636 -394.8295218295218 L 338.6363636363636 -404.8295218295218" style="stroke-width:1;"/>
        <path d="M 343.6363636363636 -392.7595218295218 L 343.6363636363636 -406.8995218295218" style="stroke-width:1;"/>
        <path d="M 336.56636363636363 -399.8295218295218 L 350.7063636363636 -399.8295218295218" style="stroke-width:1;"/>
        <path d="M 382.27272727272725 -402.70841995842 L 392.27272727272725 -412.70841995842" style="stroke-width:1;"/>
        <path d="M 392.27272727272725 -402.70841995842 L 382.27272727272725 -412.70841995842" style="stroke-width:1;"/>
        <path d="M 387.27272727272725 -400.63841995841995 L 387.27272727272725 -414.77841995841993" style="stroke-width:1;"/>
        <path d="M 380.20272727272726 -407.70841995842 L 394.34272727272725 -407.70841995842" style="stroke-width:1;"/>
        <path d="M 425.9090909090909 -409.02442827442826 L 435.9090909090909 -419.02442827442826" style="stroke-width:1;"/>
        <path d="M 435.9090909090909 -409.02442827442826 L 425.9090909090909 -419.02442827442826" style="stroke-width:1;"/>
        <path d="M 430.9090909090909 -406.95442827442827 L 430.9090909090909 -421.09442827442825" style="stroke-width:1;"/>
        <path d="M 423.83909090909094 -414.02442827442826 L 437.9790909090909 -414.02442827442826" style="stroke-width:1;"/>
        <path d="M 469.5454545454545 -413.27598752598755 L 479.5454545454545 -423.27598752598755" style="stroke-width:1;"/>
        <path d="M 479.5454545454545 -413.27598752598755 L 469.5454545454545 -423.27598752598755" style="stroke-width:1;"/>
        <path d="M 474.5454545454545 -411.20598752598755 L 474.5454545454545 -425.34598752598754" style="stroke-width:1;"/>
        <path d="M 467.47545454545457 -418.27598752598755 L 481.61545454545455 -418.27598752598755" style="stroke-width:1;"/>
        <path d="M 513.1818181818182 -417.03950103950103 L 523.1818181818182 -427.03950103950103" style="stroke-width:1;"/>
        <path d="M 523.1818181818182 -417.03950103950103 L 513.1818181818182 -427.03950103950103" style="stroke-width:1;"/>
        <path d="M 518.1818181818182 -414.96950103950104 L 518.1818181818182 -429.109501039501" style="stroke-width:1;"/>
        <path d="M 511.1118181818182 -422.03950103950103 L 525.2518181818182 -422.03950103950103" style="stroke-width:1;"/>
        <path d="M 556.8181818181818 -420.86538461538464 L 566.8181818181818 -430.86538461538464" style="stroke-width:1;"/>
        <path d="M 566.8181818181818 -420.86538461538464 L 556.8181818181818 -430.86538461538464" style="stroke-width:1;"/>
        <path d="M 561.8181818181818 -418.7953846153846 L 561.8181818181818 -432.9353846153846" style="stroke-width:1;"/>
        <path d="M 554.7481818181818 -425.86538461538464 L 568.8881818181818 -425.86538461538464" style="stroke-width:1;"/>
        <path d="M 600.4545454545455 -423.8918918918919 L 610.4545454545455 -433.8918918918919" style="stroke-width:1;"/>
        <path d="M 610.4545454545455 -423.8918918918919 L 600.4545454545455 -433.8918918918919" style="stroke-width:1;"/>
        <path d="M 605.4545454545455 -421.8218918918919 L 605.4545454545455 -435.96189189189187" style="stroke-width:1;"/>
        <path d="M 598.3845454545454 -428.8918918918919 L 612.5245454545454 -428.8918918918919" style="stroke-width:1;"/>
        <path d="M 644.090909090909 -425.94490644490645 L 654.090909090909 -435.94490644490645" style="stroke-width:1;"/>
        <path d="M 654.090909090909 -425.94490644490645 L 644.090909090909 -435.94490644490645" style="stroke-width:1;"/>
        <path d="M 649.090909090909 -423.87490644490646 L 649.090909090909 -438.01490644490644" style="stroke-width:1;"/>
        <path d="M 642.0209090909091 -430.94490644490645 L 656.1609090909091 -430.94490644490645" style="stroke-width:1;"/>
        <path d="M 687.7272727272727 -428.43762993762994 L 697.7272727272727 -438.43762993762994" style="stroke-width:1;"/>
        <path d="M 697.7272727272727 -428.43762993762994 L 687.7272727272727 -438.43762993762994" style="stroke-width:1;"/>
        <path d="M 692.7272727272727 -426.36762993762994 L 692.7272727272727 -440.50762993762993" style="stroke-width:1;"/>
        <path d="M 685.6572727272728 -433.43762993762994 L 699.7972727272727 -433.43762993762994" style="stroke-width:1;"/>
        <path d="M 731.3636363636364 -429.41839916839916 L 741.3636363636364 -439.41839916839916" style="stroke-width:1;"/>
        <path d="M 741.3636363636364 -429.41839916839916 L 731.3636363636364 -439.41839916839916" style="stroke-width:1;"/>
        <path d="M 736.3636363636364 -427.34839916839917 L 736.3636363636364 -441.48839916839916" style="stroke-width:1;"/>
        <path d="M 729.2936363636363 -434.41839916839916 L 743.4336363636364 -434.41839916839916" style="stroke-width:1;"/>
      </g>
      <g style="clip-path:url(#clip27);">
        <path d="M 343.6363636363636 -397.99012474012477 L 387.27272727272725 -407.70841995842 L 430.9090909090909 -412.35031185031187 L 474.5454545454545 -418.27598752598755 L 518.1818181818182 -419.70841995841994 L 561.8181818181818 -425.1637214137214 L 605.4545454545455 -423.75 L 649.090909090909 -426.5223492723493 L 692.7272727272727 -428.99480249480246 L 736.3636363636364 -433.6081081081081" style="stroke:rgb(205,0,0);stroke-width:2;"/>
      </g>
      <g style="clip-path:url(#clip28);">
        <g style="fill:rgb(255,255,255);clip-path:url(#clip29);">
          <path d="M 337.3863636363636 -392.99012474012477 L 337.3863636363636 -402.99012474012477 L 349.8863636363636 -402.99012474012477 L 349.8863636363636 -392.99012474012477 Z" style="stroke:none;"/>
        </g>
        <g>
          <path d="M 343.6363636363636 -392.99012474012477 L 337.3863636363636 -402.99012474012477 L 349.8863636363636 -402.99012474012477 Z"/>
          <g style="fill:rgb(255,255,255);clip-path:url(#clip30);">
            <path d="M 381.02272727272725 -402.70841995842 L 381.02272727272725 -412.70841995842 L 393.52272727272725 -412.70841995842 L 393.52272727272725 -402.70841995842 Z" style="stroke:none;"/>
          </g>
          <g>
            <path d="M 387.27272727272725 -402.70841995842 L 381.02272727272725 -412.70841995842 L 393.52272727272725 -412.70841995842 Z"/>
            <g style="fill:rgb(255,255,255);clip-path:url(#clip31);">
              <path d="M 424.6590909090909 -407.35031185031187 L 424.6590909090909 -417.35031185031187 L 437.1590909090909 -417.35031185031187 L 437.1590909090909 -407.35031185031187 Z" style="stroke:none;"/>
            </g>
            <g>
              <path d="M 430.9090909090909 -407.35031185031187 L 424.6590909090909 -417.35031185031187 L 437.1590909090909 -417.35031185031187 Z"/>
              <g style="fill:rgb(255,255,255);clip-path:url(#clip32);">
                <path d="M 468.2954545454545 -413.27598752598755 L 468.2954545454545 -423.27598752598755 L 480.7954545454545 -423.27598752598755 L 480.7954545454545 -413.27598752598755 Z" style="stroke:none;"/>
              </g>
              <g>
                <path d="M 474.5454545454545 -413.27598752598755 L 468.2954545454545 -423.27598752598755 L 480.7954545454545 -423.27598752598755 Z"/>
                <g style="fill:rgb(255,255,255);clip-path:url(#clip33);">
                  <path d="M 511.9318181818182 -414.70841995841994 L 511.9318181818182 -424.70841995841994 L 524.4318181818182 -424.70841995841994 L 524.4318181818182 -414.70841995841994 Z" style="stroke:none;"/>
                </g>
                <g>
                  <path d="M 518.1818181818182 -414.70841995841994 L 511.9318181818182 -424.70841995841994 L 524.4318181818182 -424.70841995841994 Z"/>
                  <g style="fill:rgb(255,255,255);clip-path:url(#clip34);">
                    <path d="M 555.5681818181818 -420.1637214137214 L 555.5681818181818 -430.1637214137214 L 568.0681818181818 -430.1637214137214 L 568.0681818181818 -420.1637214137214 Z" style="stroke:none;"/>
                  </g>
                  <g>
                    <path d="M 561.8181818181818 -420.1637214137214 L 555.5681818181818 -430.1637214137214 L 568.0681818181818 -430.1637214137214 Z"/>
                    <g style="fill:rgb(255,255,255);clip-path:url(#clip35);">
                      <path d="M 599.2045454545455 -418.75 L 599.2045454545455 -428.75 L 611.7045454545455 -428.75 L 611.7045454545455 -418.75 Z" style="stroke:none;"/>
                    </g>
                    <g>
                      <path d="M 605.4545454545455 -418.75 L 599.2045454545455 -428.75 L 611.7045454545455 -428.75 Z"/>
                      <g style="fill:rgb(255,255,255);clip-path:url(#clip36);">
                        <path d="M 642.840909090909 -421.5223492723493 L 642.840909090909 -431.5223492723493 L 655.340909090909 -431.5223492723493 L 655.340909090909 -421.5223492723493 Z" style="stroke:none;"/>
                      </g>
                      <g>
                        <path d="M 649.090909090909 -421.5223492723493 L 642.840909090909 -431.5223492723493 L 655.340909090909 -431.5223492723493 Z"/>
                        <g style="fill:rgb(255,255,255);clip-path:url(#clip37);">
                          <path d="M 686.4772727272727 -423.99480249480246 L 686.4772727272727 -433.99480249480246 L 698.9772727272727 -433.99480249480246 L 698.9772727272727 -423.99480249480246 Z" style="stroke:none;"/>
                        </g>
                        <g>
                          <path d="M 692.7272727272727 -423.99480249480246 L 686.4772727272727 -433.99480249480246 L 698.9772727272727 -433.99480249480246 Z"/>
                          <g style="fill:rgb(255,255,255);clip-path:url(#clip38);">
                            <path d="M 730.1136363636364 -428.6081081081081 L 730.1136363636364 -438.6081081081081 L 742.6136363636364 -438.6081081081081 L 742.6136363636364 -428.6081081081081 Z" style="stroke:none;"/>
                          </g>
                          <g>
                            <path d="M 736.3636363636364 -428.6081081081081 L 730.1136363636364 -438.6081081081081 L 742.6136363636364 -438.6081081081081 Z"/>
                          </g>
                        </g>
                      </g>
                    </g>
                  </g>
                </g>
              </g>
            </g>
          </g>
        </g>
      </g>
      <g style="clip-path:url(#clip39);">
        <path d="M 343.6363636363636 -321.8858627858628 L 387.27272727272725 -324.2423076923077 L 430.9090909090909 -325.9612785862786 L 474.5454545454545 -326.32723492723494 L 518.1818181818182 -327.6058212058212 L 561.8181818181818 -328.43976091476094 L 605.4545454545455 -329.38970893970895 L 649.090909090909 -330.5555613305613 L 692.7272727272727 -331.4942827442827 L 736.3636363636364 -332.79137214137216" style="stroke:rgb(137,42,226);stroke-width:2;"/>
      </g>
      <g style="clip-path:url(#clip40);">
        <path d="M 336.4935064935065 -321.8858627858628 L 350.7792207792208 -321.8858627858628" style="stroke-width:1;"/>
        <path d="M 343.6363636363636 -314.74300564300563 L 343.6363636363636 -329.0287199287199" style="stroke-width:1;"/>
        <path d="M 380.12987012987014 -324.2423076923077 L 394.4155844155844 -324.2423076923077" style="stroke-width:1;"/>
        <path d="M 387.27272727272725 -317.0994505494505 L 387.27272727272725 -331.38516483516486" style="stroke-width:1;"/>
        <path d="M 423.76623376623377 -325.9612785862786 L 438.05194805194805 -325.9612785862786" style="stroke-width:1;"/>
        <path d="M 430.9090909090909 -318.81842144342147 L 430.9090909090909 -333.10413572913575" style="stroke-width:1;"/>
        <path d="M 467.4025974025974 -326.32723492723494 L 481.68831168831167 -326.32723492723494" style="stroke-width:1;"/>
        <path d="M 474.5454545454545 -319.1843777843778 L 474.5454545454545 -333.47009207009205" style="stroke-width:1;"/>
        <path d="M 511.038961038961 -327.6058212058212 L 525.3246753246754 -327.6058212058212" style="stroke-width:1;"/>
        <path d="M 518.1818181818182 -320.4629640629641 L 518.1818181818182 -334.74867834867837" style="stroke-width:1;"/>
        <path d="M 554.6753246753246 -328.43976091476094 L 568.961038961039 -328.43976091476094" style="stroke-width:1;"/>
        <path d="M 561.8181818181818 -321.29690377190377 L 561.8181818181818 -335.58261805761805" style="stroke-width:1;"/>
        <path d="M 598.3116883116883 -329.38970893970895 L 612.5974025974026 -329.38970893970895" style="stroke-width:1;"/>
        <path d="M 605.4545454545455 -322.2468517968518 L 605.4545454545455 -336.53256608256606" style="stroke-width:1;"/>
        <path d="M 641.9480519480519 -330.5555613305613 L 656.2337662337662 -330.5555613305613" style="stroke-width:1;"/>
        <path d="M 649.090909090909 -323.4127041877042 L 649.090909090909 -337.6984184734185" style="stroke-width:1;"/>
        <path d="M 685.5844155844156 -331.4942827442827 L 699.8701298701299 -331.4942827442827" style="stroke-width:1;"/>
        <path d="M 692.7272727272727 -324.3514256014256 L 692.7272727272727 -338.6371398871399" style="stroke-width:1;"/>
        <path d="M 729.2207792207791 -332.79137214137216 L 743.5064935064936 -332.79137214137216" style="stroke-width:1;"/>
        <path d="M 736.3636363636364 -325.648514998515 L 736.3636363636364 -339.9342292842293" style="stroke-width:1;"/>
      </g>
    </g>
    <g style="fill:rgb(255,255,255);clip-path:url(#clip41);">
      <path d="M 290 -34 L 290 -136 L 444.272 -136 L 444.272 -34 Z" style="stroke:none;"/>
    </g>
    <path d="M 300 -125.33333333333334 L 316 -125.33333333333334" style="stroke:rgb(147,147,147);stroke-width:2;"/>
    <g style="fill:rgb(255,255,255);clip-path:url(#clip42);">
      <path d="M 301.75 -120.33333333333334 L 301.75 -130.33333333333334 L 314.25 -130.33333333333334 L 314.25 -120.33333333333334 Z" style="stroke:none;"/>
    </g>
    <g>
      <path d="M 301.75 -120.33333333333334 L 314.25 -120.33333333333334 L 308.0 -130.33333333333334 Z"/>
      <text style="font-size:16;stroke:none;fill:rgb(0,0,0);" x="316.0" y="-120.0">
        splay_tree_map
      </text>
      <path d="M 300 -105.33333333333334 L 316 -105.33333333333334" style="stroke:rgb(126,126,126);stroke-width:0.4;stroke-dasharray:1.5,1.5;"/>
      <g style="fill:rgb(0,0,0);clip-path:url(#clip43);">
        <path d="M 301.75 -100.33333333333334 L 301.75 -110.33333333333334 L 314.25 -110.33333333333334 L 314.25 -100.33333333333334 Z" style="stroke:none;"/>
      </g>
      <g>
        <path d="M 308.0 -100.33333333333334 L 301.75 -110.33333333333334 L 314.25 -110.33333333333334 Z"/>
        <text style="font-size:16;stroke:none;fill:rgb(0,0,0);" x="316.0" y="-100.0">
          n_map
        </text>
        <path d="M 300 -85.33333333333334 L 316 -85.33333333333334" style="stroke:rgb(255,68,0);stroke-width:2;"/>
        <path d="M 303.0 -80.33333333333334 L 313.0 -90.33333333333334" style="stroke-width:1;"/>
        <path d="M 313.0 -80.33333333333334 L 303.0 -90.33333333333334" style="stroke-width:1;"/>
        <path d="M 308.0 -78.26333333333335 L 308.0 -92.40333333333334" style="stroke-width:1;"/>
        <path d="M 300.93 -85.33333333333334 L 315.07 -85.33333333333334" style="stroke-width:1;"/>
        <text style="font-size:16;stroke:none;fill:rgb(0,0,0);" x="316.0" y="-80.0">
          ov_tree_map
        </text>
        <path d="M 300 -65.33333333333334 L 316 -65.33333333333334" style="stroke:rgb(205,0,0);stroke-width:2;"/>
        <g style="fill:rgb(255,255,255);clip-path:url(#clip44);">
          <path d="M 301.75 -60.33333333333334 L 301.75 -70.33333333333334 L 314.25 -70.33333333333334 L 314.25 -60.33333333333334 Z" style="stroke:none;"/>
        </g>
        <g>
          <path d="M 308.0 -60.33333333333334 L 301.75 -70.33333333333334 L 314.25 -70.33333333333334 Z"/>
          <text style="font-size:16;stroke:none;fill:rgb(0,0,0);" x="316.0" y="-60.0">
            rb_tree_map
          </text>
          <path d="M 300 -45.33333333333334 L 316 -45.33333333333334" style="stroke:rgb(137,42,226);stroke-width:2;"/>
          <path d="M 300.85714285714283 -45.33333333333334 L 315.14285714285717 -45.33333333333334" style="stroke-width:1;"/>
          <path d="M 308.0 -38.190476190476204 L 308.0 -52.47619047619048" style="stroke-width:1;"/>
          <text style="font-size:16;stroke:none;fill:rgb(0,0,0);" x="316.0" y="-40.0">
            pat_trie_map
          </text>
        </g>
      </g>
    </g>
  </g>
</svg>
