<?xml version="1.0" ?>
<!--Created by PyChart 1.39 Copyright 1999-2006 Yasushi Saito-->
<svg viewBox="178 -531 620 483" xmlns="http://www.w3.org/2000/svg" xmlns:xlink="http://www.w3.org/1999/xlink">
  <defs>
    <clipPath id="clip0">
      <path d="M 294 -294 L 294 -526 L 786 -526 L 786 -294 Z"/>
    </clipPath>
    <clipPath id="clip1">
      <path d="M 294 -294 L 294 -526 L 786 -526 L 786 -294 Z"/>
    </clipPath>
    <clipPath id="clip2">
      <path d="M 280 -280 L 280 -540 L 800 -540 L 800 -280 Z"/>
    </clipPath>
    <clipPath id="clip3">
      <path d="M 343.6363636363636 -515.0 L 337.3863636363636 -525.0 L 349.8863636363636 -525.0 Z"/>
    </clipPath>
    <clipPath id="clip4">
      <path d="M 387.27272727272725 -512.6844090441507 L 381.02272727272725 -522.6844090441507 L 393.52272727272725 -522.6844090441507 Z"/>
    </clipPath>
    <clipPath id="clip5">
      <path d="M 430.9090909090909 -512.0484224790029 L 424.6590909090909 -522.0484224790029 L 437.1590909090909 -522.0484224790029 Z"/>
    </clipPath>
    <clipPath id="clip6">
      <path d="M 474.5454545454545 -510.8911950491 L 468.2954545454545 -520.8911950491 L 480.7954545454545 -520.8911950491 Z"/>
    </clipPath>
    <clipPath id="clip7">
      <path d="M 518.1818181818182 -510.8527950028299 L 511.9318181818182 -520.8527950028299 L 524.4318181818182 -520.8527950028299 Z"/>
    </clipPath>
    <clipPath id="clip8">
      <path d="M 561.8181818181818 -507.5874277546198 L 555.5681818181818 -517.5874277546197 L 568.0681818181818 -517.5874277546197 Z"/>
    </clipPath>
    <clipPath id="clip9">
      <path d="M 605.4545454545455 -510.22521554840387 L 599.2045454545455 -520.2252155484039 L 611.7045454545455 -520.2252155484039 Z"/>
    </clipPath>
    <clipPath id="clip10">
      <path d="M 649.090909090909 -509.1913681488245 L 642.840909090909 -519.1913681488245 L 655.340909090909 -519.1913681488245 Z"/>
    </clipPath>
    <clipPath id="clip11">
      <path d="M 692.7272727272727 -508.95415129494296 L 686.4772727272727 -518.9541512949429 L 698.9772727272727 -518.9541512949429 Z"/>
    </clipPath>
    <clipPath id="clip12">
      <path d="M 736.3636363636364 -510.10933375196754 L 730.1136363636364 -520.1093337519676 L 742.6136363636364 -520.1093337519676 Z"/>
    </clipPath>
    <clipPath id="clip13">
      <path d="M 294 -294 L 294 -526 L 786 -526 L 786 -294 Z"/>
    </clipPath>
    <clipPath id="clip14">
      <path d="M 280 -280 L 280 -540 L 800 -540 L 800 -280 Z"/>
    </clipPath>
    <clipPath id="clip15">
      <path d="M 336.4935064935065 -504.08056780014624 L 343.6363636363636 -511.22342494300335 L 350.7792207792208 -504.08056780014624 L 343.6363636363636 -496.93771065728913 Z"/>
    </clipPath>
    <clipPath id="clip16">
      <path d="M 380.12987012987014 -495.7411684024837 L 387.27272727272725 -502.8840255453408 L 394.4155844155844 -495.7411684024837 L 387.27272727272725 -488.5983112596266 Z"/>
    </clipPath>
    <clipPath id="clip17">
      <path d="M 423.76623376623377 -494.9690775313253 L 430.9090909090909 -502.1119346741824 L 438.05194805194805 -494.9690775313253 L 430.9090909090909 -487.82622038846813 Z"/>
    </clipPath>
    <clipPath id="clip18">
      <path d="M 467.4025974025974 -488.2595215176591 L 474.5454545454545 -495.4023786605162 L 481.68831168831167 -488.2595215176591 L 474.5454545454545 -481.1166643748019 Z"/>
    </clipPath>
    <clipPath id="clip19">
      <path d="M 511.038961038961 -483.6633313641002 L 518.1818181818182 -490.80618850695737 L 525.3246753246754 -483.6633313641002 L 518.1818181818182 -476.52047422124303 Z"/>
    </clipPath>
    <clipPath id="clip20">
      <path d="M 554.6753246753246 -485.2397782340523 L 561.8181818181818 -492.38263537690943 L 568.961038961039 -485.2397782340523 L 561.8181818181818 -478.09692109119516 Z"/>
    </clipPath>
    <clipPath id="clip21">
      <path d="M 598.3116883116883 -484.4395121810152 L 605.4545454545455 -491.58236932387234 L 612.5974025974026 -484.4395121810152 L 605.4545454545455 -477.29665503815806 Z"/>
    </clipPath>
    <clipPath id="clip22">
      <path d="M 641.9480519480519 -483.30523389119094 L 649.090909090909 -490.44809103404805 L 656.2337662337662 -483.30523389119094 L 649.090909090909 -476.1623767483338 Z"/>
    </clipPath>
    <clipPath id="clip23">
      <path d="M 685.5844155844156 -480.15643009704326 L 692.7272727272727 -487.2992872399004 L 699.8701298701299 -480.15643009704326 L 692.7272727272727 -473.0135729541861 Z"/>
    </clipPath>
    <clipPath id="clip24">
      <path d="M 729.2207792207791 -480.0896276496858 L 736.3636363636364 -487.23248479254295 L 743.5064935064936 -480.0896276496858 L 736.3636363636364 -472.94677050682867 Z"/>
    </clipPath>
    <clipPath id="clip25">
      <path d="M 294 -294 L 294 -526 L 786 -526 L 786 -294 Z"/>
    </clipPath>
    <clipPath id="clip26">
      <path d="M 280 -280 L 280 -540 L 800 -540 L 800 -280 Z"/>
    </clipPath>
    <clipPath id="clip27">
      <path d="M 343.6363636363636 -435.14267300677113 L 337.3863636363636 -445.14267300677113 L 349.8863636363636 -445.14267300677113 Z"/>
    </clipPath>
    <clipPath id="clip28">
      <path d="M 387.27272727272725 -434.94135678786404 L 381.02272727272725 -444.94135678786404 L 393.52272727272725 -444.94135678786404 Z"/>
    </clipPath>
    <clipPath id="clip29">
      <path d="M 430.9090909090909 -438.5589138095573 L 424.6590909090909 -448.5589138095573 L 437.1590909090909 -448.5589138095573 Z"/>
    </clipPath>
    <clipPath id="clip30">
      <path d="M 474.5454545454545 -435.49236336895854 L 468.2954545454545 -445.49236336895854 L 480.7954545454545 -445.49236336895854 Z"/>
    </clipPath>
    <clipPath id="clip31">
      <path d="M 518.1818181818182 -438.13015116274266 L 511.9318181818182 -448.13015116274266 L 524.4318181818182 -448.13015116274266 Z"/>
    </clipPath>
    <clipPath id="clip32">
      <path d="M 561.8181818181818 -437.98904803414075 L 555.5681818181818 -447.98904803414075 L 568.0681818181818 -447.98904803414075 Z"/>
    </clipPath>
    <clipPath id="clip33">
      <path d="M 605.4545454545455 -437.668214511458 L 599.2045454545455 -447.668214511458 L 611.7045454545455 -447.668214511458 Z"/>
    </clipPath>
    <clipPath id="clip34">
      <path d="M 649.090909090909 -438.1240162441078 L 642.840909090909 -448.1240162441078 L 655.340909090909 -448.1240162441078 Z"/>
    </clipPath>
    <clipPath id="clip35">
      <path d="M 692.7272727272727 -437.76341935990285 L 686.4772727272727 -447.76341935990285 L 698.9772727272727 -447.76341935990285 Z"/>
    </clipPath>
    <clipPath id="clip36">
      <path d="M 736.3636363636364 -438.353962083311 L 730.1136363636364 -448.353962083311 L 742.6136363636364 -448.353962083311 Z"/>
    </clipPath>
    <clipPath id="clip37">
      <path d="M 294 -294 L 294 -526 L 786 -526 L 786 -294 Z"/>
    </clipPath>
    <clipPath id="clip38">
      <path d="M 280 -280 L 280 -540 L 800 -540 L 800 -280 Z"/>
    </clipPath>
    <clipPath id="clip39">
      <path d="M 290 -54 L 290 -136 L 422.944 -136 L 422.944 -54 Z"/>
    </clipPath>
    <clipPath id="clip40">
      <path d="M 308.0 -120.33333333333334 L 301.75 -130.33333333333334 L 314.25 -130.33333333333334 Z"/>
    </clipPath>
    <clipPath id="clip41">
      <path d="M 300.85714285714283 -105.33333333333334 L 308.0 -112.47619047619048 L 315.14285714285717 -105.33333333333334 L 308.0 -98.1904761904762 Z"/>
    </clipPath>
    <clipPath id="clip42">
      <path d="M 308.0 -80.33333333333334 L 301.75 -90.33333333333334 L 314.25 -90.33333333333334 Z"/>
    </clipPath>
  </defs>
  <g style="stroke-linejoin:miter;font-size:8;font-family:Helvetica;fill:none;stroke-linecap:butt;stroke:rgb(0,0,0);font-stretch:normal;stroke-dasharray:none;font-weight:normal;font-style:normal;stroke-width:0.5;">
    <path d="M 300 -300 L 780 -300"/>
    <path d="M 300 -300 L 780 -300"/>
    <path d="M 300.0 -300 L 300.0 -288"/>
    <text style="font-size:12;font-style:italic;stroke:none;fill:rgb(0,0,0);" transform="rotate(90,300,-288)" x="300.0" y="-288.0">
      0
    </text>
    <path d="M 343.6363636363636 -300 L 343.6363636363636 -288"/>
    <text style="font-size:12;font-style:italic;stroke:none;fill:rgb(0,0,0);" transform="rotate(90,343.636,-288)" x="343.6363636363636" y="-288.0">
      200
    </text>
    <path d="M 387.27272727272725 -300 L 387.27272727272725 -288"/>
    <text style="font-size:12;font-style:italic;stroke:none;fill:rgb(0,0,0);" transform="rotate(90,387.273,-288)" x="387.27272727272725" y="-288.0">
      400
    </text>
    <path d="M 430.9090909090909 -300 L 430.9090909090909 -288"/>
    <text style="font-size:12;font-style:italic;stroke:none;fill:rgb(0,0,0);" transform="rotate(90,430.909,-288)" x="430.9090909090909" y="-288.0">
      600
    </text>
    <path d="M 474.5454545454545 -300 L 474.5454545454545 -288"/>
    <text style="font-size:12;font-style:italic;stroke:none;fill:rgb(0,0,0);" transform="rotate(90,474.545,-288)" x="474.5454545454545" y="-288.0">
      800
    </text>
    <path d="M 518.1818181818182 -300 L 518.1818181818182 -288"/>
    <text style="font-size:12;font-style:italic;stroke:none;fill:rgb(0,0,0);" transform="rotate(90,518.182,-288)" x="518.1818181818182" y="-288.0">
      1000
    </text>
    <path d="M 561.8181818181818 -300 L 561.8181818181818 -288"/>
    <text style="font-size:12;font-style:italic;stroke:none;fill:rgb(0,0,0);" transform="rotate(90,561.818,-288)" x="561.8181818181818" y="-288.0">
      1200
    </text>
    <path d="M 605.4545454545455 -300 L 605.4545454545455 -288"/>
    <text style="font-size:12;font-style:italic;stroke:none;fill:rgb(0,0,0);" transform="rotate(90,605.455,-288)" x="605.4545454545455" y="-288.0">
      1400
    </text>
    <path d="M 649.090909090909 -300 L 649.090909090909 -288"/>
    <text style="font-size:12;font-style:italic;stroke:none;fill:rgb(0,0,0);" transform="rotate(90,649.091,-288)" x="649.090909090909" y="-288.0">
      1600
    </text>
    <path d="M 692.7272727272727 -300 L 692.7272727272727 -288"/>
    <text style="font-size:12;font-style:italic;stroke:none;fill:rgb(0,0,0);" transform="rotate(90,692.727,-288)" x="692.7272727272727" y="-288.0">
      1800
    </text>
    <path d="M 736.3636363636364 -300 L 736.3636363636364 -288"/>
    <text style="font-size:12;font-style:italic;stroke:none;fill:rgb(0,0,0);" transform="rotate(90,736.364,-288)" x="736.3636363636364" y="-288.0">
      2000
    </text>
    <path d="M 780.0 -300 L 780.0 -288"/>
    <text style="font-size:12;font-style:italic;stroke:none;fill:rgb(0,0,0);" transform="rotate(90,780,-288)" x="780.0" y="-288.0">
      2200
    </text>
    <text style="font-size:16;stroke:none;fill:rgb(0,0,0);" x="524.44" y="-220.0">
      Size
    </text>
    <path d="M 300 -300 L 300 -520"/>
    <path d="M 300 -300.0 L 288 -300.0"/>
    <text style="font-size:12;font-style:italic;stroke:none;fill:rgb(0,0,0);" x="238.0" y="-294.0">
      0.00e+00
    </text>
    <path d="M 300 -344.0 L 288 -344.0"/>
    <text style="font-size:12;font-style:italic;stroke:none;fill:rgb(0,0,0);" x="238.0" y="-338.0">
      1.94e-08
    </text>
    <path d="M 300 -388.0 L 288 -388.0"/>
    <text style="font-size:12;font-style:italic;stroke:none;fill:rgb(0,0,0);" x="238.0" y="-382.0">
      3.87e-08
    </text>
    <path d="M 300 -432.0 L 288 -432.0"/>
    <text style="font-size:12;font-style:italic;stroke:none;fill:rgb(0,0,0);" x="238.0" y="-426.0">
      5.81e-08
    </text>
    <path d="M 300 -476.0 L 288 -476.0"/>
    <text style="font-size:12;font-style:italic;stroke:none;fill:rgb(0,0,0);" x="238.0" y="-470.0">
      7.75e-08
    </text>
    <text style="font-size:16;stroke:none;fill:rgb(0,0,0);" transform="rotate(-90,200,-340.648)" x="200.0" y="-340.648">
      Average time (sec.)
    </text>
    <g style="clip-path:url(#clip0);">
      <g style="clip-path:url(#clip1);">
        <path d="M 343.6363636363636 -520.0 L 387.27272727272725 -517.6844090441507 L 430.9090909090909 -517.0484224790029 L 474.5454545454545 -515.8911950491 L 518.1818181818182 -515.8527950028299 L 561.8181818181818 -512.5874277546197 L 605.4545454545455 -515.2252155484039 L 649.090909090909 -514.1913681488245 L 692.7272727272727 -513.9541512949429 L 736.3636363636364 -515.1093337519676" style="stroke:rgb(126,126,126);stroke-width:0.4;stroke-dasharray:1.5,1.5;"/>
      </g>
      <g style="clip-path:url(#clip2);">
        <g style="fill:rgb(0,0,0);clip-path:url(#clip3);">
          <path d="M 337.3863636363636 -515.0 L 337.3863636363636 -525.0 L 349.8863636363636 -525.0 L 349.8863636363636 -515.0 Z" style="stroke:none;"/>
        </g>
        <g>
          <path d="M 343.6363636363636 -515.0 L 337.3863636363636 -525.0 L 349.8863636363636 -525.0 Z"/>
          <g style="fill:rgb(0,0,0);clip-path:url(#clip4);">
            <path d="M 381.02272727272725 -512.6844090441507 L 381.02272727272725 -522.6844090441507 L 393.52272727272725 -522.6844090441507 L 393.52272727272725 -512.6844090441507 Z" style="stroke:none;"/>
          </g>
          <g>
            <path d="M 387.27272727272725 -512.6844090441507 L 381.02272727272725 -522.6844090441507 L 393.52272727272725 -522.6844090441507 Z"/>
            <g style="fill:rgb(0,0,0);clip-path:url(#clip5);">
              <path d="M 424.6590909090909 -512.0484224790029 L 424.6590909090909 -522.0484224790029 L 437.1590909090909 -522.0484224790029 L 437.1590909090909 -512.0484224790029 Z" style="stroke:none;"/>
            </g>
            <g>
              <path d="M 430.9090909090909 -512.0484224790029 L 424.6590909090909 -522.0484224790029 L 437.1590909090909 -522.0484224790029 Z"/>
              <g style="fill:rgb(0,0,0);clip-path:url(#clip6);">
                <path d="M 468.2954545454545 -510.8911950491 L 468.2954545454545 -520.8911950491 L 480.7954545454545 -520.8911950491 L 480.7954545454545 -510.8911950491 Z" style="stroke:none;"/>
              </g>
              <g>
                <path d="M 474.5454545454545 -510.8911950491 L 468.2954545454545 -520.8911950491 L 480.7954545454545 -520.8911950491 Z"/>
                <g style="fill:rgb(0,0,0);clip-path:url(#clip7);">
                  <path d="M 511.9318181818182 -510.8527950028299 L 511.9318181818182 -520.8527950028299 L 524.4318181818182 -520.8527950028299 L 524.4318181818182 -510.8527950028299 Z" style="stroke:none;"/>
                </g>
                <g>
                  <path d="M 518.1818181818182 -510.8527950028299 L 511.9318181818182 -520.8527950028299 L 524.4318181818182 -520.8527950028299 Z"/>
                  <g style="fill:rgb(0,0,0);clip-path:url(#clip8);">
                    <path d="M 555.5681818181818 -507.5874277546198 L 555.5681818181818 -517.5874277546197 L 568.0681818181818 -517.5874277546197 L 568.0681818181818 -507.5874277546198 Z" style="stroke:none;"/>
                  </g>
                  <g>
                    <path d="M 561.8181818181818 -507.5874277546198 L 555.5681818181818 -517.5874277546197 L 568.0681818181818 -517.5874277546197 Z"/>
                    <g style="fill:rgb(0,0,0);clip-path:url(#clip9);">
                      <path d="M 599.2045454545455 -510.22521554840387 L 599.2045454545455 -520.2252155484039 L 611.7045454545455 -520.2252155484039 L 611.7045454545455 -510.22521554840387 Z" style="stroke:none;"/>
                    </g>
                    <g>
                      <path d="M 605.4545454545455 -510.22521554840387 L 599.2045454545455 -520.2252155484039 L 611.7045454545455 -520.2252155484039 Z"/>
                      <g style="fill:rgb(0,0,0);clip-path:url(#clip10);">
                        <path d="M 642.840909090909 -509.1913681488245 L 642.840909090909 -519.1913681488245 L 655.340909090909 -519.1913681488245 L 655.340909090909 -509.1913681488245 Z" style="stroke:none;"/>
                      </g>
                      <g>
                        <path d="M 649.090909090909 -509.1913681488245 L 642.840909090909 -519.1913681488245 L 655.340909090909 -519.1913681488245 Z"/>
                        <g style="fill:rgb(0,0,0);clip-path:url(#clip11);">
                          <path d="M 686.4772727272727 -508.95415129494296 L 686.4772727272727 -518.9541512949429 L 698.9772727272727 -518.9541512949429 L 698.9772727272727 -508.95415129494296 Z" style="stroke:none;"/>
                        </g>
                        <g>
                          <path d="M 692.7272727272727 -508.95415129494296 L 686.4772727272727 -518.9541512949429 L 698.9772727272727 -518.9541512949429 Z"/>
                          <g style="fill:rgb(0,0,0);clip-path:url(#clip12);">
                            <path d="M 730.1136363636364 -510.10933375196754 L 730.1136363636364 -520.1093337519676 L 742.6136363636364 -520.1093337519676 L 742.6136363636364 -510.10933375196754 Z" style="stroke:none;"/>
                          </g>
                          <g>
                            <path d="M 736.3636363636364 -510.10933375196754 L 730.1136363636364 -520.1093337519676 L 742.6136363636364 -520.1093337519676 Z"/>
                          </g>
                        </g>
                      </g>
                    </g>
                  </g>
                </g>
              </g>
            </g>
          </g>
        </g>
      </g>
      <g style="clip-path:url(#clip13);">
        <path d="M 343.6363636363636 -504.08056780014624 L 387.27272727272725 -495.7411684024837 L 430.9090909090909 -494.9690775313253 L 474.5454545454545 -488.2595215176591 L 518.1818181818182 -483.6633313641002 L 561.8181818181818 -485.2397782340523 L 605.4545454545455 -484.4395121810152 L 649.090909090909 -483.30523389119094 L 692.7272727272727 -480.15643009704326 L 736.3636363636364 -480.0896276496858" style="stroke:rgb(126,126,126);stroke-width:0.4;stroke-dasharray:5,2,5,2;"/>
      </g>
      <g style="clip-path:url(#clip14);">
        <g style="fill:rgb(0,0,0);clip-path:url(#clip15);">
          <path d="M 336.4935064935065 -496.93771065728913 L 336.4935064935065 -511.22342494300335 L 350.7792207792208 -511.22342494300335 L 350.7792207792208 -496.93771065728913 Z" style="stroke:none;"/>
        </g>
        <g>
          <path d="M 336.4935064935065 -504.08056780014624 L 343.6363636363636 -511.22342494300335 L 350.7792207792208 -504.08056780014624 L 343.6363636363636 -496.93771065728913 Z"/>
          <g style="fill:rgb(0,0,0);clip-path:url(#clip16);">
            <path d="M 380.12987012987014 -488.5983112596266 L 380.12987012987014 -502.8840255453408 L 394.4155844155844 -502.8840255453408 L 394.4155844155844 -488.5983112596266 Z" style="stroke:none;"/>
          </g>
          <g>
            <path d="M 380.12987012987014 -495.7411684024837 L 387.27272727272725 -502.8840255453408 L 394.4155844155844 -495.7411684024837 L 387.27272727272725 -488.5983112596266 Z"/>
            <g style="fill:rgb(0,0,0);clip-path:url(#clip17);">
              <path d="M 423.76623376623377 -487.82622038846813 L 423.76623376623377 -502.1119346741824 L 438.05194805194805 -502.1119346741824 L 438.05194805194805 -487.82622038846813 Z" style="stroke:none;"/>
            </g>
            <g>
              <path d="M 423.76623376623377 -494.9690775313253 L 430.9090909090909 -502.1119346741824 L 438.05194805194805 -494.9690775313253 L 430.9090909090909 -487.82622038846813 Z"/>
              <g style="fill:rgb(0,0,0);clip-path:url(#clip18);">
                <path d="M 467.4025974025974 -481.1166643748019 L 467.4025974025974 -495.4023786605162 L 481.68831168831167 -495.4023786605162 L 481.68831168831167 -481.1166643748019 Z" style="stroke:none;"/>
              </g>
              <g>
                <path d="M 467.4025974025974 -488.2595215176591 L 474.5454545454545 -495.4023786605162 L 481.68831168831167 -488.2595215176591 L 474.5454545454545 -481.1166643748019 Z"/>
                <g style="fill:rgb(0,0,0);clip-path:url(#clip19);">
                  <path d="M 511.038961038961 -476.52047422124303 L 511.038961038961 -490.80618850695737 L 525.3246753246754 -490.80618850695737 L 525.3246753246754 -476.52047422124303 Z" style="stroke:none;"/>
                </g>
                <g>
                  <path d="M 511.038961038961 -483.6633313641002 L 518.1818181818182 -490.80618850695737 L 525.3246753246754 -483.6633313641002 L 518.1818181818182 -476.52047422124303 Z"/>
                  <g style="fill:rgb(0,0,0);clip-path:url(#clip20);">
                    <path d="M 554.6753246753246 -478.09692109119516 L 554.6753246753246 -492.38263537690943 L 568.961038961039 -492.38263537690943 L 568.961038961039 -478.09692109119516 Z" style="stroke:none;"/>
                  </g>
                  <g>
                    <path d="M 554.6753246753246 -485.2397782340523 L 561.8181818181818 -492.38263537690943 L 568.961038961039 -485.2397782340523 L 561.8181818181818 -478.09692109119516 Z"/>
                    <g style="fill:rgb(0,0,0);clip-path:url(#clip21);">
                      <path d="M 598.3116883116883 -477.29665503815806 L 598.3116883116883 -491.58236932387234 L 612.5974025974026 -491.58236932387234 L 612.5974025974026 -477.29665503815806 Z" style="stroke:none;"/>
                    </g>
                    <g>
                      <path d="M 598.3116883116883 -484.4395121810152 L 605.4545454545455 -491.58236932387234 L 612.5974025974026 -484.4395121810152 L 605.4545454545455 -477.29665503815806 Z"/>
                      <g style="fill:rgb(0,0,0);clip-path:url(#clip22);">
                        <path d="M 641.9480519480519 -476.1623767483338 L 641.9480519480519 -490.44809103404805 L 656.2337662337662 -490.44809103404805 L 656.2337662337662 -476.1623767483338 Z" style="stroke:none;"/>
                      </g>
                      <g>
                        <path d="M 641.9480519480519 -483.30523389119094 L 649.090909090909 -490.44809103404805 L 656.2337662337662 -483.30523389119094 L 649.090909090909 -476.1623767483338 Z"/>
                        <g style="fill:rgb(0,0,0);clip-path:url(#clip23);">
                          <path d="M 685.5844155844156 -473.0135729541861 L 685.5844155844156 -487.2992872399004 L 699.8701298701299 -487.2992872399004 L 699.8701298701299 -473.0135729541861 Z" style="stroke:none;"/>
                        </g>
                        <g>
                          <path d="M 685.5844155844156 -480.15643009704326 L 692.7272727272727 -487.2992872399004 L 699.8701298701299 -480.15643009704326 L 692.7272727272727 -473.0135729541861 Z"/>
                          <g style="fill:rgb(0,0,0);clip-path:url(#clip24);">
                            <path d="M 729.2207792207791 -472.94677050682867 L 729.2207792207791 -487.23248479254295 L 743.5064935064936 -487.23248479254295 L 743.5064935064936 -472.94677050682867 Z" style="stroke:none;"/>
                          </g>
                          <g>
                            <path d="M 729.2207792207791 -480.0896276496858 L 736.3636363636364 -487.23248479254295 L 743.5064935064936 -480.0896276496858 L 736.3636363636364 -472.94677050682867 Z"/>
                          </g>
                        </g>
                      </g>
                    </g>
                  </g>
                </g>
              </g>
            </g>
          </g>
        </g>
      </g>
      <g style="clip-path:url(#clip25);">
        <path d="M 343.6363636363636 -440.14267300677113 L 387.27272727272725 -439.94135678786404 L 430.9090909090909 -443.5589138095573 L 474.5454545454545 -440.49236336895854 L 518.1818181818182 -443.13015116274266 L 561.8181818181818 -442.98904803414075 L 605.4545454545455 -442.668214511458 L 649.090909090909 -443.1240162441078 L 692.7272727272727 -442.76341935990285 L 736.3636363636364 -443.353962083311" style="stroke:rgb(126,126,126);stroke-width:0.4;stroke-dasharray:1.5,1.5;"/>
      </g>
      <g style="clip-path:url(#clip26);">
        <g style="fill:rgb(0,0,0);clip-path:url(#clip27);">
          <path d="M 337.3863636363636 -435.14267300677113 L 337.3863636363636 -445.14267300677113 L 349.8863636363636 -445.14267300677113 L 349.8863636363636 -435.14267300677113 Z" style="stroke:none;"/>
        </g>
        <g>
          <path d="M 343.6363636363636 -435.14267300677113 L 337.3863636363636 -445.14267300677113 L 349.8863636363636 -445.14267300677113 Z"/>
          <g style="fill:rgb(0,0,0);clip-path:url(#clip28);">
            <path d="M 381.02272727272725 -434.94135678786404 L 381.02272727272725 -444.94135678786404 L 393.52272727272725 -444.94135678786404 L 393.52272727272725 -434.94135678786404 Z" style="stroke:none;"/>
          </g>
          <g>
            <path d="M 387.27272727272725 -434.94135678786404 L 381.02272727272725 -444.94135678786404 L 393.52272727272725 -444.94135678786404 Z"/>
            <g style="fill:rgb(0,0,0);clip-path:url(#clip29);">
              <path d="M 424.6590909090909 -438.5589138095573 L 424.6590909090909 -448.5589138095573 L 437.1590909090909 -448.5589138095573 L 437.1590909090909 -438.5589138095573 Z" style="stroke:none;"/>
            </g>
            <g>
              <path d="M 430.9090909090909 -438.5589138095573 L 424.6590909090909 -448.5589138095573 L 437.1590909090909 -448.5589138095573 Z"/>
              <g style="fill:rgb(0,0,0);clip-path:url(#clip30);">
                <path d="M 468.2954545454545 -435.49236336895854 L 468.2954545454545 -445.49236336895854 L 480.7954545454545 -445.49236336895854 L 480.7954545454545 -435.49236336895854 Z" style="stroke:none;"/>
              </g>
              <g>
                <path d="M 474.5454545454545 -435.49236336895854 L 468.2954545454545 -445.49236336895854 L 480.7954545454545 -445.49236336895854 Z"/>
                <g style="fill:rgb(0,0,0);clip-path:url(#clip31);">
                  <path d="M 511.9318181818182 -438.13015116274266 L 511.9318181818182 -448.13015116274266 L 524.4318181818182 -448.13015116274266 L 524.4318181818182 -438.13015116274266 Z" style="stroke:none;"/>
                </g>
                <g>
                  <path d="M 518.1818181818182 -438.13015116274266 L 511.9318181818182 -448.13015116274266 L 524.4318181818182 -448.13015116274266 Z"/>
                  <g style="fill:rgb(0,0,0);clip-path:url(#clip32);">
                    <path d="M 555.5681818181818 -437.98904803414075 L 555.5681818181818 -447.98904803414075 L 568.0681818181818 -447.98904803414075 L 568.0681818181818 -437.98904803414075 Z" style="stroke:none;"/>
                  </g>
                  <g>
                    <path d="M 561.8181818181818 -437.98904803414075 L 555.5681818181818 -447.98904803414075 L 568.0681818181818 -447.98904803414075 Z"/>
                    <g style="fill:rgb(0,0,0);clip-path:url(#clip33);">
                      <path d="M 599.2045454545455 -437.668214511458 L 599.2045454545455 -447.668214511458 L 611.7045454545455 -447.668214511458 L 611.7045454545455 -437.668214511458 Z" style="stroke:none;"/>
                    </g>
                    <g>
                      <path d="M 605.4545454545455 -437.668214511458 L 599.2045454545455 -447.668214511458 L 611.7045454545455 -447.668214511458 Z"/>
                      <g style="fill:rgb(0,0,0);clip-path:url(#clip34);">
                        <path d="M 642.840909090909 -438.1240162441078 L 642.840909090909 -448.1240162441078 L 655.340909090909 -448.1240162441078 L 655.340909090909 -438.1240162441078 Z" style="stroke:none;"/>
                      </g>
                      <g>
                        <path d="M 649.090909090909 -438.1240162441078 L 642.840909090909 -448.1240162441078 L 655.340909090909 -448.1240162441078 Z"/>
                        <g style="fill:rgb(0,0,0);clip-path:url(#clip35);">
                          <path d="M 686.4772727272727 -437.76341935990285 L 686.4772727272727 -447.76341935990285 L 698.9772727272727 -447.76341935990285 L 698.9772727272727 -437.76341935990285 Z" style="stroke:none;"/>
                        </g>
                        <g>
                          <path d="M 692.7272727272727 -437.76341935990285 L 686.4772727272727 -447.76341935990285 L 698.9772727272727 -447.76341935990285 Z"/>
                          <g style="fill:rgb(0,0,0);clip-path:url(#clip36);">
                            <path d="M 730.1136363636364 -438.353962083311 L 730.1136363636364 -448.353962083311 L 742.6136363636364 -448.353962083311 L 742.6136363636364 -438.353962083311 Z" style="stroke:none;"/>
                          </g>
                          <g>
                            <path d="M 736.3636363636364 -438.353962083311 L 730.1136363636364 -448.353962083311 L 742.6136363636364 -448.353962083311 Z"/>
                          </g>
                        </g>
                      </g>
                    </g>
                  </g>
                </g>
              </g>
            </g>
          </g>
        </g>
      </g>
      <g style="clip-path:url(#clip37);">
        <path d="M 343.6363636363636 -440.16334995476274 L 387.27272727272725 -438.2135819249185 L 430.9090909090909 -438.8459329827272 L 474.5454545454545 -439.42466030728303 L 518.1818181818182 -439.3876235762651 L 561.8181818181818 -439.1542694489315 L 605.4545454545455 -440.1658493660584 L 649.090909090909 -440.7659352962319 L 692.7272727272727 -440.2587820224162 L 736.3636363636364 -440.98747402471315" style="stroke:rgb(137,42,226);stroke-width:2;"/>
      </g>
      <g style="clip-path:url(#clip38);">
        <path d="M 336.4935064935065 -440.16334995476274 L 350.7792207792208 -440.16334995476274" style="stroke-width:1;"/>
        <path d="M 343.6363636363636 -433.02049281190557 L 343.6363636363636 -447.3062070976199" style="stroke-width:1;"/>
        <path d="M 380.12987012987014 -438.2135819249185 L 394.4155844155844 -438.2135819249185" style="stroke-width:1;"/>
        <path d="M 387.27272727272725 -431.07072478206135 L 387.27272727272725 -445.3564390677757" style="stroke-width:1;"/>
        <path d="M 423.76623376623377 -438.8459329827272 L 438.05194805194805 -438.8459329827272" style="stroke-width:1;"/>
        <path d="M 430.9090909090909 -431.70307583987005 L 430.9090909090909 -445.9887901255844" style="stroke-width:1;"/>
        <path d="M 467.4025974025974 -439.42466030728303 L 481.68831168831167 -439.42466030728303" style="stroke-width:1;"/>
        <path d="M 474.5454545454545 -432.2818031644259 L 474.5454545454545 -446.56751745014014" style="stroke-width:1;"/>
        <path d="M 511.038961038961 -439.3876235762651 L 525.3246753246754 -439.3876235762651" style="stroke-width:1;"/>
        <path d="M 518.1818181818182 -432.24476643340796 L 518.1818181818182 -446.53048071912224" style="stroke-width:1;"/>
        <path d="M 554.6753246753246 -439.1542694489315 L 568.961038961039 -439.1542694489315" style="stroke-width:1;"/>
        <path d="M 561.8181818181818 -432.0114123060743 L 561.8181818181818 -446.2971265917886" style="stroke-width:1;"/>
        <path d="M 598.3116883116883 -440.1658493660584 L 612.5974025974026 -440.1658493660584" style="stroke-width:1;"/>
        <path d="M 605.4545454545455 -433.0229922232013 L 605.4545454545455 -447.3087065089155" style="stroke-width:1;"/>
        <path d="M 641.9480519480519 -440.7659352962319 L 656.2337662337662 -440.7659352962319" style="stroke-width:1;"/>
        <path d="M 649.090909090909 -433.62307815337476 L 649.090909090909 -447.90879243908904" style="stroke-width:1;"/>
        <path d="M 685.5844155844156 -440.2587820224162 L 699.8701298701299 -440.2587820224162" style="stroke-width:1;"/>
        <path d="M 692.7272727272727 -433.1159248795591 L 692.7272727272727 -447.40163916527337" style="stroke-width:1;"/>
        <path d="M 729.2207792207791 -440.98747402471315 L 743.5064935064936 -440.98747402471315" style="stroke-width:1;"/>
        <path d="M 736.3636363636364 -433.84461688185604 L 736.3636363636364 -448.1303311675703" style="stroke-width:1;"/>
      </g>
    </g>
    <g style="fill:rgb(255,255,255);clip-path:url(#clip39);">
      <path d="M 290 -54 L 290 -136 L 422.944 -136 L 422.944 -54 Z" style="stroke:none;"/>
    </g>
    <path d="M 300 -125.33333333333334 L 316 -125.33333333333334" style="stroke:rgb(126,126,126);stroke-width:0.4;stroke-dasharray:1.5,1.5;"/>
    <g style="fill:rgb(0,0,0);clip-path:url(#clip40);">
      <path d="M 301.75 -120.33333333333334 L 301.75 -130.33333333333334 L 314.25 -130.33333333333334 L 314.25 -120.33333333333334 Z" style="stroke:none;"/>
    </g>
    <g>
      <path d="M 308.0 -120.33333333333334 L 301.75 -130.33333333333334 L 314.25 -130.33333333333334 Z"/>
      <text style="font-size:16;stroke:none;fill:rgb(0,0,0);" x="316.0" y="-120.0">
        n_pq_deque
      </text>
      <path d="M 300 -105.33333333333334 L 316 -105.33333333333334" style="stroke:rgb(126,126,126);stroke-width:0.4;stroke-dasharray:5,2,5,2;"/>
      <g style="fill:rgb(0,0,0);clip-path:url(#clip41);">
        <path d="M 300.85714285714283 -98.1904761904762 L 300.85714285714283 -112.47619047619048 L 315.14285714285717 -112.47619047619048 L 315.14285714285717 -98.1904761904762 Z" style="stroke:none;"/>
      </g>
      <g>
        <path d="M 300.85714285714283 -105.33333333333334 L 308.0 -112.47619047619048 L 315.14285714285717 -105.33333333333334 L 308.0 -98.1904761904762 Z"/>
        <text style="font-size:16;stroke:none;fill:rgb(0,0,0);" x="316.0" y="-100.0">
          n_pq_vector
        </text>
        <path d="M 300 -85.33333333333334 L 316 -85.33333333333334" style="stroke:rgb(126,126,126);stroke-width:0.4;stroke-dasharray:1.5,1.5;"/>
        <g style="fill:rgb(0,0,0);clip-path:url(#clip42);">
          <path d="M 301.75 -80.33333333333334 L 301.75 -90.33333333333334 L 314.25 -90.33333333333334 L 314.25 -80.33333333333334 Z" style="stroke:none;"/>
        </g>
        <g>
          <path d="M 308.0 -80.33333333333334 L 301.75 -90.33333333333334 L 314.25 -90.33333333333334 Z"/>
          <text style="font-size:16;stroke:none;fill:rgb(0,0,0);" x="316.0" y="-80.0">
            thin_heap
          </text>
          <path d="M 300 -65.33333333333334 L 316 -65.33333333333334" style="stroke:rgb(137,42,226);stroke-width:2;"/>
          <path d="M 300.85714285714283 -65.33333333333334 L 315.14285714285717 -65.33333333333334" style="stroke-width:1;"/>
          <path d="M 308.0 -58.190476190476204 L 308.0 -72.47619047619048" style="stroke-width:1;"/>
          <text style="font-size:16;stroke:none;fill:rgb(0,0,0);" x="316.0" y="-60.0">
            pairing_heap
          </text>
        </g>
      </g>
    </g>
  </g>
</svg>
