<?xml version="1.0" ?>
<!--Created by PyChart 1.39 Copyright 1999-2006 Yasushi Saito-->
<svg viewBox="178 -544 620 556" xmlns="http://www.w3.org/2000/svg" xmlns:xlink="http://www.w3.org/1999/xlink">
  <defs>
    <clipPath id="clip0">
      <path d="M 294 -294 L 294 -526 L 786 -526 L 786 -294 Z"/>
    </clipPath>
    <clipPath id="clip1">
      <path d="M 294 -294 L 294 -526 L 786 -526 L 786 -294 Z"/>
    </clipPath>
    <clipPath id="clip2">
      <path d="M 280 -280 L 280 -540 L 800 -540 L 800 -280 Z"/>
    </clipPath>
    <clipPath id="clip3">
      <path d="M 343.6363636363636 -317.9384517241379 L 337.3863636363636 -327.9384517241379 L 349.8863636363636 -327.9384517241379 Z"/>
    </clipPath>
    <clipPath id="clip4">
      <path d="M 387.27272727272725 -337.3564482758621 L 381.02272727272725 -347.3564482758621 L 393.52272727272725 -347.3564482758621 Z"/>
    </clipPath>
    <clipPath id="clip5">
      <path d="M 430.9090909090909 -360.32558620689656 L 424.6590909090909 -370.32558620689656 L 437.1590909090909 -370.32558620689656 Z"/>
    </clipPath>
    <clipPath id="clip6">
      <path d="M 474.5454545454545 -380.3448275862069 L 468.2954545454545 -390.3448275862069 L 480.7954545454545 -390.3448275862069 Z"/>
    </clipPath>
    <clipPath id="clip7">
      <path d="M 518.1818181818182 -399.94265517241377 L 511.9318181818182 -409.94265517241377 L 524.4318181818182 -409.94265517241377 Z"/>
    </clipPath>
    <clipPath id="clip8">
      <path d="M 561.8181818181818 -419.3295862068966 L 555.5681818181818 -429.3295862068966 L 568.0681818181818 -429.3295862068966 Z"/>
    </clipPath>
    <clipPath id="clip9">
      <path d="M 605.4545454545455 -445.821 L 599.2045454545455 -455.821 L 611.7045454545455 -455.821 Z"/>
    </clipPath>
    <clipPath id="clip10">
      <path d="M 649.090909090909 -468.06034482758616 L 642.840909090909 -478.06034482758616 L 655.340909090909 -478.06034482758616 Z"/>
    </clipPath>
    <clipPath id="clip11">
      <path d="M 692.7272727272727 -489.57217241379306 L 686.4772727272727 -499.57217241379306 L 698.9772727272727 -499.57217241379306 Z"/>
    </clipPath>
    <clipPath id="clip12">
      <path d="M 736.3636363636364 -515.0 L 730.1136363636364 -525.0 L 742.6136363636364 -525.0 Z"/>
    </clipPath>
    <clipPath id="clip13">
      <path d="M 294 -294 L 294 -526 L 786 -526 L 786 -294 Z"/>
    </clipPath>
    <clipPath id="clip14">
      <path d="M 280 -280 L 280 -540 L 800 -540 L 800 -280 Z"/>
    </clipPath>
    <clipPath id="clip15">
      <path d="M 336.4935064935065 -300.4020234482759 L 343.6363636363636 -307.544880591133 L 350.7792207792208 -300.4020234482759 L 343.6363636363636 -293.2591663054187 Z"/>
    </clipPath>
    <clipPath id="clip16">
      <path d="M 380.12987012987014 -300.40573689655173 L 387.27272727272725 -307.54859403940884 L 394.4155844155844 -300.40573689655173 L 387.27272727272725 -293.26287975369456 Z"/>
    </clipPath>
    <clipPath id="clip17">
      <path d="M 423.76623376623377 -300.4099396551724 L 430.9090909090909 -307.55279679802953 L 438.05194805194805 -300.4099396551724 L 430.9090909090909 -293.26708251231526 Z"/>
    </clipPath>
    <clipPath id="clip18">
      <path d="M 467.4025974025974 -300.4152272413793 L 474.5454545454545 -307.55808438423645 L 481.68831168831167 -300.4152272413793 L 474.5454545454545 -293.2723700985222 Z"/>
    </clipPath>
    <clipPath id="clip19">
      <path d="M 511.038961038961 -300.420055862069 L 518.1818181818182 -307.5629130049261 L 525.3246753246754 -300.420055862069 L 518.1818181818182 -293.2771987192118 Z"/>
    </clipPath>
    <clipPath id="clip20">
      <path d="M 554.6753246753246 -300.42901896551723 L 561.8181818181818 -307.5718761083744 L 568.961038961039 -300.42901896551723 L 561.8181818181818 -293.2861618226601 Z"/>
    </clipPath>
    <clipPath id="clip21">
      <path d="M 598.3116883116883 -300.41951344827584 L 605.4545454545455 -307.562370591133 L 612.5974025974026 -300.41951344827584 L 605.4545454545455 -293.2766563054187 Z"/>
    </clipPath>
    <clipPath id="clip22">
      <path d="M 641.9480519480519 -300.42380344827586 L 649.090909090909 -307.56666059113303 L 656.2337662337662 -300.42380344827586 L 649.090909090909 -293.2809463054187 Z"/>
    </clipPath>
    <clipPath id="clip23">
      <path d="M 685.5844155844156 -300.4244975862069 L 692.7272727272727 -307.56735472906405 L 699.8701298701299 -300.4244975862069 L 692.7272727272727 -293.2816404433498 Z"/>
    </clipPath>
    <clipPath id="clip24">
      <path d="M 729.2207792207791 -300.4203934482759 L 736.3636363636364 -307.563250591133 L 743.5064935064936 -300.4203934482759 L 736.3636363636364 -293.2775363054187 Z"/>
    </clipPath>
    <clipPath id="clip25">
      <path d="M 294 -294 L 294 -526 L 786 -526 L 786 -294 Z"/>
    </clipPath>
    <clipPath id="clip26">
      <path d="M 280 -280 L 280 -540 L 800 -540 L 800 -280 Z"/>
    </clipPath>
    <clipPath id="clip27">
      <path d="M 343.6363636363636 -295.36725889655173 L 337.3863636363636 -305.36725889655173 L 349.8863636363636 -305.36725889655173 Z"/>
    </clipPath>
    <clipPath id="clip28">
      <path d="M 387.27272727272725 -295.3633933448276 L 381.02272727272725 -305.3633933448276 L 393.52272727272725 -305.3633933448276 Z"/>
    </clipPath>
    <clipPath id="clip29">
      <path d="M 430.9090909090909 -295.3623316551724 L 424.6590909090909 -305.3623316551724 L 437.1590909090909 -305.3623316551724 Z"/>
    </clipPath>
    <clipPath id="clip30">
      <path d="M 474.5454545454545 -295.3603998275862 L 468.2954545454545 -305.3603998275862 L 480.7954545454545 -305.3603998275862 Z"/>
    </clipPath>
    <clipPath id="clip31">
      <path d="M 518.1818181818182 -295.36033572413794 L 511.9318181818182 -305.36033572413794 L 524.4318181818182 -305.36033572413794 Z"/>
    </clipPath>
    <clipPath id="clip32">
      <path d="M 561.8181818181818 -295.35488465517244 L 555.5681818181818 -305.35488465517244 L 568.0681818181818 -305.35488465517244 Z"/>
    </clipPath>
    <clipPath id="clip33">
      <path d="M 605.4545454545455 -295.3592880689655 L 599.2045454545455 -305.3592880689655 L 611.7045454545455 -305.3592880689655 Z"/>
    </clipPath>
    <clipPath id="clip34">
      <path d="M 649.090909090909 -295.35756220689655 L 642.840909090909 -305.35756220689655 L 655.340909090909 -305.35756220689655 Z"/>
    </clipPath>
    <clipPath id="clip35">
      <path d="M 692.7272727272727 -295.3571662068966 L 686.4772727272727 -305.3571662068966 L 698.9772727272727 -305.3571662068966 Z"/>
    </clipPath>
    <clipPath id="clip36">
      <path d="M 736.3636363636364 -295.35909462068963 L 730.1136363636364 -305.35909462068963 L 742.6136363636364 -305.35909462068963 Z"/>
    </clipPath>
    <clipPath id="clip37">
      <path d="M 294 -294 L 294 -526 L 786 -526 L 786 -294 Z"/>
    </clipPath>
    <clipPath id="clip38">
      <path d="M 280 -280 L 280 -540 L 800 -540 L 800 -280 Z"/>
    </clipPath>
    <clipPath id="clip39">
      <path d="M 337.3863636363636 -295.3173560689655 L 349.8863636363636 -295.3173560689655 L 343.6363636363636 -305.3173560689655 Z"/>
    </clipPath>
    <clipPath id="clip40">
      <path d="M 381.02272727272725 -295.32901720689654 L 393.52272727272725 -295.32901720689654 L 387.27272727272725 -305.32901720689654 Z"/>
    </clipPath>
    <clipPath id="clip41">
      <path d="M 424.6590909090909 -295.3282714827586 L 437.1590909090909 -295.3282714827586 L 430.9090909090909 -305.3282714827586 Z"/>
    </clipPath>
    <clipPath id="clip42">
      <path d="M 468.2954545454545 -295.32696134482757 L 480.7954545454545 -295.32696134482757 L 474.5454545454545 -305.32696134482757 Z"/>
    </clipPath>
    <clipPath id="clip43">
      <path d="M 511.9318181818182 -295.32857417241377 L 524.4318181818182 -295.32857417241377 L 518.1818181818182 -305.32857417241377 Z"/>
    </clipPath>
    <clipPath id="clip44">
      <path d="M 555.5681818181818 -295.3304096551724 L 568.0681818181818 -295.3304096551724 L 561.8181818181818 -305.3304096551724 Z"/>
    </clipPath>
    <clipPath id="clip45">
      <path d="M 599.2045454545455 -295.3297105862069 L 611.7045454545455 -295.3297105862069 L 605.4545454545455 -305.3297105862069 Z"/>
    </clipPath>
    <clipPath id="clip46">
      <path d="M 642.840909090909 -295.3315858965517 L 655.340909090909 -295.3315858965517 L 649.090909090909 -305.3315858965517 Z"/>
    </clipPath>
    <clipPath id="clip47">
      <path d="M 686.4772727272727 -295.3270580689655 L 698.9772727272727 -295.3270580689655 L 692.7272727272727 -305.3270580689655 Z"/>
    </clipPath>
    <clipPath id="clip48">
      <path d="M 730.1136363636364 -295.3244078275862 L 742.6136363636364 -295.3244078275862 L 736.3636363636364 -305.3244078275862 Z"/>
    </clipPath>
    <clipPath id="clip49">
      <path d="M 294 -294 L 294 -526 L 786 -526 L 786 -294 Z"/>
    </clipPath>
    <clipPath id="clip50">
      <path d="M 280 -280 L 280 -540 L 800 -540 L 800 -280 Z"/>
    </clipPath>
    <clipPath id="clip51">
      <path d="M 336.4935064935065 -300.3406836551724 L 343.6363636363636 -307.48354079802954 L 350.7792207792208 -300.3406836551724 L 343.6363636363636 -293.19782651231526 Z"/>
    </clipPath>
    <clipPath id="clip52">
      <path d="M 380.12987012987014 -300.32676220689655 L 387.27272727272725 -307.4696193497537 L 394.4155844155844 -300.32676220689655 L 387.27272727272725 -293.18390506403944 Z"/>
    </clipPath>
    <clipPath id="clip53">
      <path d="M 423.76623376623377 -300.3254733103448 L 430.9090909090909 -307.468330453202 L 438.05194805194805 -300.3254733103448 L 430.9090909090909 -293.1826161674877 Z"/>
    </clipPath>
    <clipPath id="clip54">
      <path d="M 467.4025974025974 -300.31427265517243 L 474.5454545454545 -307.45712979802954 L 481.68831168831167 -300.31427265517243 L 474.5454545454545 -293.17141551231526 Z"/>
    </clipPath>
    <clipPath id="clip55">
      <path d="M 511.038961038961 -300.30659996551725 L 518.1818181818182 -307.44945710837436 L 525.3246753246754 -300.30659996551725 L 518.1818181818182 -293.1637428226601 Z"/>
    </clipPath>
    <clipPath id="clip56">
      <path d="M 554.6753246753246 -300.3092316206897 L 561.8181818181818 -307.4520887635468 L 568.961038961039 -300.3092316206897 L 561.8181818181818 -293.1663744778325 Z"/>
    </clipPath>
    <clipPath id="clip57">
      <path d="M 598.3116883116883 -300.3078956896552 L 605.4545454545455 -307.4507528325123 L 612.5974025974026 -300.3078956896552 L 605.4545454545455 -293.16503854679803 Z"/>
    </clipPath>
    <clipPath id="clip58">
      <path d="M 641.9480519480519 -300.3060021724138 L 649.090909090909 -307.4488593152709 L 656.2337662337662 -300.3060021724138 L 649.090909090909 -293.16314502955663 Z"/>
    </clipPath>
    <clipPath id="clip59">
      <path d="M 685.5844155844156 -300.3007456896552 L 692.7272727272727 -307.44360283251234 L 699.8701298701299 -300.3007456896552 L 692.7272727272727 -293.157888546798 Z"/>
    </clipPath>
    <clipPath id="clip60">
      <path d="M 729.2207792207791 -300.30063417241377 L 736.3636363636364 -307.44349131527093 L 743.5064935064936 -300.30063417241377 L 736.3636363636364 -293.15777702955666 Z"/>
    </clipPath>
    <clipPath id="clip61">
      <path d="M 294 -294 L 294 -526 L 786 -526 L 786 -294 Z"/>
    </clipPath>
    <clipPath id="clip62">
      <path d="M 280 -280 L 280 -540 L 800 -540 L 800 -280 Z"/>
    </clipPath>
    <clipPath id="clip63">
      <path d="M 343.6363636363636 -295.23394837931033 L 337.3863636363636 -305.23394837931033 L 349.8863636363636 -305.23394837931033 Z"/>
    </clipPath>
    <clipPath id="clip64">
      <path d="M 387.27272727272725 -295.2336123103448 L 381.02272727272725 -305.2336123103448 L 393.52272727272725 -305.2336123103448 Z"/>
    </clipPath>
    <clipPath id="clip65">
      <path d="M 430.9090909090909 -295.2396513103448 L 424.6590909090909 -305.2396513103448 L 437.1590909090909 -305.2396513103448 Z"/>
    </clipPath>
    <clipPath id="clip66">
      <path d="M 474.5454545454545 -295.234532137931 L 468.2954545454545 -305.234532137931 L 480.7954545454545 -305.234532137931 Z"/>
    </clipPath>
    <clipPath id="clip67">
      <path d="M 518.1818181818182 -295.2389355517241 L 511.9318181818182 -305.2389355517241 L 524.4318181818182 -305.2389355517241 Z"/>
    </clipPath>
    <clipPath id="clip68">
      <path d="M 561.8181818181818 -295.2387 L 555.5681818181818 -305.2387 L 568.0681818181818 -305.2387 Z"/>
    </clipPath>
    <clipPath id="clip69">
      <path d="M 605.4545454545455 -295.23816441379313 L 599.2045454545455 -305.23816441379313 L 611.7045454545455 -305.23816441379313 Z"/>
    </clipPath>
    <clipPath id="clip70">
      <path d="M 649.090909090909 -295.2389253103448 L 642.840909090909 -305.2389253103448 L 655.340909090909 -305.2389253103448 Z"/>
    </clipPath>
    <clipPath id="clip71">
      <path d="M 692.7272727272727 -295.23832334482756 L 686.4772727272727 -305.23832334482756 L 698.9772727272727 -305.23832334482756 Z"/>
    </clipPath>
    <clipPath id="clip72">
      <path d="M 736.3636363636364 -295.2393091724138 L 730.1136363636364 -305.2393091724138 L 742.6136363636364 -305.2393091724138 Z"/>
    </clipPath>
    <clipPath id="clip73">
      <path d="M 294 -294 L 294 -526 L 786 -526 L 786 -294 Z"/>
    </clipPath>
    <clipPath id="clip74">
      <path d="M 280 -280 L 280 -540 L 800 -540 L 800 -280 Z"/>
    </clipPath>
    <clipPath id="clip75">
      <path d="M 290 6 L 290 -136 L 456.72 -136 L 456.72 6 Z"/>
    </clipPath>
    <clipPath id="clip76">
      <path d="M 308.0 -120.33333333333334 L 301.75 -130.33333333333334 L 314.25 -130.33333333333334 Z"/>
    </clipPath>
    <clipPath id="clip77">
      <path d="M 300.85714285714283 -105.33333333333334 L 308.0 -112.47619047619048 L 315.14285714285717 -105.33333333333334 L 308.0 -98.1904761904762 Z"/>
    </clipPath>
    <clipPath id="clip78">
      <path d="M 308.0 -80.33333333333334 L 301.75 -90.33333333333334 L 314.25 -90.33333333333334 Z"/>
    </clipPath>
    <clipPath id="clip79">
      <path d="M 301.75 -60.33333333333334 L 314.25 -60.33333333333334 L 308.0 -70.33333333333334 Z"/>
    </clipPath>
    <clipPath id="clip80">
      <path d="M 300.85714285714283 -45.33333333333334 L 308.0 -52.47619047619048 L 315.14285714285717 -45.33333333333334 L 308.0 -38.190476190476204 Z"/>
    </clipPath>
    <clipPath id="clip81">
      <path d="M 308.0 -20.333333333333314 L 301.75 -30.333333333333314 L 314.25 -30.333333333333314 Z"/>
    </clipPath>
  </defs>
  <g style="stroke-linejoin:miter;font-size:8;font-family:Helvetica;fill:none;stroke-linecap:butt;stroke:rgb(0,0,0);font-stretch:normal;stroke-dasharray:none;font-weight:normal;font-style:normal;stroke-width:0.5;">
    <path d="M 300 -300 L 780 -300"/>
    <path d="M 300 -300 L 780 -300"/>
    <path d="M 300.0 -300 L 300.0 -288"/>
    <text style="font-size:12;font-style:italic;stroke:none;fill:rgb(0,0,0);" transform="rotate(90,300,-288)" x="300.0" y="-288.0">
      0
    </text>
    <path d="M 343.6363636363636 -300 L 343.6363636363636 -288"/>
    <text style="font-size:12;font-style:italic;stroke:none;fill:rgb(0,0,0);" transform="rotate(90,343.636,-288)" x="343.6363636363636" y="-288.0">
      200
    </text>
    <path d="M 387.27272727272725 -300 L 387.27272727272725 -288"/>
    <text style="font-size:12;font-style:italic;stroke:none;fill:rgb(0,0,0);" transform="rotate(90,387.273,-288)" x="387.27272727272725" y="-288.0">
      400
    </text>
    <path d="M 430.9090909090909 -300 L 430.9090909090909 -288"/>
    <text style="font-size:12;font-style:italic;stroke:none;fill:rgb(0,0,0);" transform="rotate(90,430.909,-288)" x="430.9090909090909" y="-288.0">
      600
    </text>
    <path d="M 474.5454545454545 -300 L 474.5454545454545 -288"/>
    <text style="font-size:12;font-style:italic;stroke:none;fill:rgb(0,0,0);" transform="rotate(90,474.545,-288)" x="474.5454545454545" y="-288.0">
      800
    </text>
    <path d="M 518.1818181818182 -300 L 518.1818181818182 -288"/>
    <text style="font-size:12;font-style:italic;stroke:none;fill:rgb(0,0,0);" transform="rotate(90,518.182,-288)" x="518.1818181818182" y="-288.0">
      1000
    </text>
    <path d="M 561.8181818181818 -300 L 561.8181818181818 -288"/>
    <text style="font-size:12;font-style:italic;stroke:none;fill:rgb(0,0,0);" transform="rotate(90,561.818,-288)" x="561.8181818181818" y="-288.0">
      1200
    </text>
    <path d="M 605.4545454545455 -300 L 605.4545454545455 -288"/>
    <text style="font-size:12;font-style:italic;stroke:none;fill:rgb(0,0,0);" transform="rotate(90,605.455,-288)" x="605.4545454545455" y="-288.0">
      1400
    </text>
    <path d="M 649.090909090909 -300 L 649.090909090909 -288"/>
    <text style="font-size:12;font-style:italic;stroke:none;fill:rgb(0,0,0);" transform="rotate(90,649.091,-288)" x="649.090909090909" y="-288.0">
      1600
    </text>
    <path d="M 692.7272727272727 -300 L 692.7272727272727 -288"/>
    <text style="font-size:12;font-style:italic;stroke:none;fill:rgb(0,0,0);" transform="rotate(90,692.727,-288)" x="692.7272727272727" y="-288.0">
      1800
    </text>
    <path d="M 736.3636363636364 -300 L 736.3636363636364 -288"/>
    <text style="font-size:12;font-style:italic;stroke:none;fill:rgb(0,0,0);" transform="rotate(90,736.364,-288)" x="736.3636363636364" y="-288.0">
      2000
    </text>
    <path d="M 780.0 -300 L 780.0 -288"/>
    <text style="font-size:12;font-style:italic;stroke:none;fill:rgb(0,0,0);" transform="rotate(90,780,-288)" x="780.0" y="-288.0">
      2200
    </text>
    <text style="font-size:16;stroke:none;fill:rgb(0,0,0);" x="524.44" y="-220.0">
      Size
    </text>
    <path d="M 300 -300 L 300 -520"/>
    <path d="M 300 -300.0 L 288 -300.0"/>
    <text style="font-size:12;font-style:italic;stroke:none;fill:rgb(0,0,0);" x="238.0" y="-294.0">
      0.00e+00
    </text>
    <path d="M 300 -344.0 L 288 -344.0"/>
    <text style="font-size:12;font-style:italic;stroke:none;fill:rgb(0,0,0);" x="238.0" y="-338.0">
      1.16e-05
    </text>
    <path d="M 300 -388.0 L 288 -388.0"/>
    <text style="font-size:12;font-style:italic;stroke:none;fill:rgb(0,0,0);" x="238.0" y="-382.0">
      2.32e-05
    </text>
    <path d="M 300 -432.0 L 288 -432.0"/>
    <text style="font-size:12;font-style:italic;stroke:none;fill:rgb(0,0,0);" x="238.0" y="-426.0">
      3.48e-05
    </text>
    <path d="M 300 -476.0 L 288 -476.0"/>
    <text style="font-size:12;font-style:italic;stroke:none;fill:rgb(0,0,0);" x="238.0" y="-470.0">
      4.64e-05
    </text>
    <path d="M 300 -520.0 L 288 -520.0"/>
    <text style="font-size:12;font-style:italic;stroke:none;fill:rgb(0,0,0);" x="238.0" y="-514.0">
      5.80e-05
    </text>
    <text style="font-size:16;stroke:none;fill:rgb(0,0,0);" transform="rotate(-90,200,-340.648)" x="200.0" y="-340.648">
      Average time (sec.)
    </text>
    <g style="clip-path:url(#clip0);">
      <g style="clip-path:url(#clip1);">
        <path d="M 343.6363636363636 -322.9384517241379 L 387.27272727272725 -342.3564482758621 L 430.9090909090909 -365.32558620689656 L 474.5454545454545 -385.3448275862069 L 518.1818181818182 -404.94265517241377 L 561.8181818181818 -424.3295862068966 L 605.4545454545455 -450.821 L 649.090909090909 -473.06034482758616 L 692.7272727272727 -494.57217241379306 L 736.3636363636364 -520.0" style="stroke:rgb(205,0,0);stroke-width:2;"/>
      </g>
      <g style="clip-path:url(#clip2);">
        <g style="fill:rgb(255,255,255);clip-path:url(#clip3);">
          <path d="M 337.3863636363636 -317.9384517241379 L 337.3863636363636 -327.9384517241379 L 349.8863636363636 -327.9384517241379 L 349.8863636363636 -317.9384517241379 Z" style="stroke:none;"/>
        </g>
        <g>
          <path d="M 343.6363636363636 -317.9384517241379 L 337.3863636363636 -327.9384517241379 L 349.8863636363636 -327.9384517241379 Z"/>
          <g style="fill:rgb(255,255,255);clip-path:url(#clip4);">
            <path d="M 381.02272727272725 -337.3564482758621 L 381.02272727272725 -347.3564482758621 L 393.52272727272725 -347.3564482758621 L 393.52272727272725 -337.3564482758621 Z" style="stroke:none;"/>
          </g>
          <g>
            <path d="M 387.27272727272725 -337.3564482758621 L 381.02272727272725 -347.3564482758621 L 393.52272727272725 -347.3564482758621 Z"/>
            <g style="fill:rgb(255,255,255);clip-path:url(#clip5);">
              <path d="M 424.6590909090909 -360.32558620689656 L 424.6590909090909 -370.32558620689656 L 437.1590909090909 -370.32558620689656 L 437.1590909090909 -360.32558620689656 Z" style="stroke:none;"/>
            </g>
            <g>
              <path d="M 430.9090909090909 -360.32558620689656 L 424.6590909090909 -370.32558620689656 L 437.1590909090909 -370.32558620689656 Z"/>
              <g style="fill:rgb(255,255,255);clip-path:url(#clip6);">
                <path d="M 468.2954545454545 -380.3448275862069 L 468.2954545454545 -390.3448275862069 L 480.7954545454545 -390.3448275862069 L 480.7954545454545 -380.3448275862069 Z" style="stroke:none;"/>
              </g>
              <g>
                <path d="M 474.5454545454545 -380.3448275862069 L 468.2954545454545 -390.3448275862069 L 480.7954545454545 -390.3448275862069 Z"/>
                <g style="fill:rgb(255,255,255);clip-path:url(#clip7);">
                  <path d="M 511.9318181818182 -399.94265517241377 L 511.9318181818182 -409.94265517241377 L 524.4318181818182 -409.94265517241377 L 524.4318181818182 -399.94265517241377 Z" style="stroke:none;"/>
                </g>
                <g>
                  <path d="M 518.1818181818182 -399.94265517241377 L 511.9318181818182 -409.94265517241377 L 524.4318181818182 -409.94265517241377 Z"/>
                  <g style="fill:rgb(255,255,255);clip-path:url(#clip8);">
                    <path d="M 555.5681818181818 -419.3295862068966 L 555.5681818181818 -429.3295862068966 L 568.0681818181818 -429.3295862068966 L 568.0681818181818 -419.3295862068966 Z" style="stroke:none;"/>
                  </g>
                  <g>
                    <path d="M 561.8181818181818 -419.3295862068966 L 555.5681818181818 -429.3295862068966 L 568.0681818181818 -429.3295862068966 Z"/>
                    <g style="fill:rgb(255,255,255);clip-path:url(#clip9);">
                      <path d="M 599.2045454545455 -445.821 L 599.2045454545455 -455.821 L 611.7045454545455 -455.821 L 611.7045454545455 -445.821 Z" style="stroke:none;"/>
                    </g>
                    <g>
                      <path d="M 605.4545454545455 -445.821 L 599.2045454545455 -455.821 L 611.7045454545455 -455.821 Z"/>
                      <g style="fill:rgb(255,255,255);clip-path:url(#clip10);">
                        <path d="M 642.840909090909 -468.06034482758616 L 642.840909090909 -478.06034482758616 L 655.340909090909 -478.06034482758616 L 655.340909090909 -468.06034482758616 Z" style="stroke:none;"/>
                      </g>
                      <g>
                        <path d="M 649.090909090909 -468.06034482758616 L 642.840909090909 -478.06034482758616 L 655.340909090909 -478.06034482758616 Z"/>
                        <g style="fill:rgb(255,255,255);clip-path:url(#clip11);">
                          <path d="M 686.4772727272727 -489.57217241379306 L 686.4772727272727 -499.57217241379306 L 698.9772727272727 -499.57217241379306 L 698.9772727272727 -489.57217241379306 Z" style="stroke:none;"/>
                        </g>
                        <g>
                          <path d="M 692.7272727272727 -489.57217241379306 L 686.4772727272727 -499.57217241379306 L 698.9772727272727 -499.57217241379306 Z"/>
                          <g style="fill:rgb(255,255,255);clip-path:url(#clip12);">
                            <path d="M 730.1136363636364 -515.0 L 730.1136363636364 -525.0 L 742.6136363636364 -525.0 L 742.6136363636364 -515.0 Z" style="stroke:none;"/>
                          </g>
                          <g>
                            <path d="M 736.3636363636364 -515.0 L 730.1136363636364 -525.0 L 742.6136363636364 -525.0 Z"/>
                          </g>
                        </g>
                      </g>
                    </g>
                  </g>
                </g>
              </g>
            </g>
          </g>
        </g>
      </g>
      <g style="clip-path:url(#clip13);">
        <path d="M 343.6363636363636 -300.4020234482759 L 387.27272727272725 -300.40573689655173 L 430.9090909090909 -300.4099396551724 L 474.5454545454545 -300.4152272413793 L 518.1818181818182 -300.420055862069 L 561.8181818181818 -300.42901896551723 L 605.4545454545455 -300.41951344827584 L 649.090909090909 -300.42380344827586 L 692.7272727272727 -300.4244975862069 L 736.3636363636364 -300.4203934482759" style="stroke:rgb(126,126,126);stroke-width:2;"/>
      </g>
      <g style="clip-path:url(#clip14);">
        <g style="fill:rgb(255,255,255);clip-path:url(#clip15);">
          <path d="M 336.4935064935065 -293.2591663054187 L 336.4935064935065 -307.544880591133 L 350.7792207792208 -307.544880591133 L 350.7792207792208 -293.2591663054187 Z" style="stroke:none;"/>
        </g>
        <g>
          <path d="M 336.4935064935065 -300.4020234482759 L 343.6363636363636 -307.544880591133 L 350.7792207792208 -300.4020234482759 L 343.6363636363636 -293.2591663054187 Z"/>
          <g style="fill:rgb(255,255,255);clip-path:url(#clip16);">
            <path d="M 380.12987012987014 -293.26287975369456 L 380.12987012987014 -307.54859403940884 L 394.4155844155844 -307.54859403940884 L 394.4155844155844 -293.26287975369456 Z" style="stroke:none;"/>
          </g>
          <g>
            <path d="M 380.12987012987014 -300.40573689655173 L 387.27272727272725 -307.54859403940884 L 394.4155844155844 -300.40573689655173 L 387.27272727272725 -293.26287975369456 Z"/>
            <g style="fill:rgb(255,255,255);clip-path:url(#clip17);">
              <path d="M 423.76623376623377 -293.26708251231526 L 423.76623376623377 -307.55279679802953 L 438.05194805194805 -307.55279679802953 L 438.05194805194805 -293.26708251231526 Z" style="stroke:none;"/>
            </g>
            <g>
              <path d="M 423.76623376623377 -300.4099396551724 L 430.9090909090909 -307.55279679802953 L 438.05194805194805 -300.4099396551724 L 430.9090909090909 -293.26708251231526 Z"/>
              <g style="fill:rgb(255,255,255);clip-path:url(#clip18);">
                <path d="M 467.4025974025974 -293.2723700985222 L 467.4025974025974 -307.55808438423645 L 481.68831168831167 -307.55808438423645 L 481.68831168831167 -293.2723700985222 Z" style="stroke:none;"/>
              </g>
              <g>
                <path d="M 467.4025974025974 -300.4152272413793 L 474.5454545454545 -307.55808438423645 L 481.68831168831167 -300.4152272413793 L 474.5454545454545 -293.2723700985222 Z"/>
                <g style="fill:rgb(255,255,255);clip-path:url(#clip19);">
                  <path d="M 511.038961038961 -293.2771987192118 L 511.038961038961 -307.5629130049261 L 525.3246753246754 -307.5629130049261 L 525.3246753246754 -293.2771987192118 Z" style="stroke:none;"/>
                </g>
                <g>
                  <path d="M 511.038961038961 -300.420055862069 L 518.1818181818182 -307.5629130049261 L 525.3246753246754 -300.420055862069 L 518.1818181818182 -293.2771987192118 Z"/>
                  <g style="fill:rgb(255,255,255);clip-path:url(#clip20);">
                    <path d="M 554.6753246753246 -293.2861618226601 L 554.6753246753246 -307.5718761083744 L 568.961038961039 -307.5718761083744 L 568.961038961039 -293.2861618226601 Z" style="stroke:none;"/>
                  </g>
                  <g>
                    <path d="M 554.6753246753246 -300.42901896551723 L 561.8181818181818 -307.5718761083744 L 568.961038961039 -300.42901896551723 L 561.8181818181818 -293.2861618226601 Z"/>
                    <g style="fill:rgb(255,255,255);clip-path:url(#clip21);">
                      <path d="M 598.3116883116883 -293.2766563054187 L 598.3116883116883 -307.562370591133 L 612.5974025974026 -307.562370591133 L 612.5974025974026 -293.2766563054187 Z" style="stroke:none;"/>
                    </g>
                    <g>
                      <path d="M 598.3116883116883 -300.41951344827584 L 605.4545454545455 -307.562370591133 L 612.5974025974026 -300.41951344827584 L 605.4545454545455 -293.2766563054187 Z"/>
                      <g style="fill:rgb(255,255,255);clip-path:url(#clip22);">
                        <path d="M 641.9480519480519 -293.2809463054187 L 641.9480519480519 -307.56666059113303 L 656.2337662337662 -307.56666059113303 L 656.2337662337662 -293.2809463054187 Z" style="stroke:none;"/>
                      </g>
                      <g>
                        <path d="M 641.9480519480519 -300.42380344827586 L 649.090909090909 -307.56666059113303 L 656.2337662337662 -300.42380344827586 L 649.090909090909 -293.2809463054187 Z"/>
                        <g style="fill:rgb(255,255,255);clip-path:url(#clip23);">
                          <path d="M 685.5844155844156 -293.2816404433498 L 685.5844155844156 -307.56735472906405 L 699.8701298701299 -307.56735472906405 L 699.8701298701299 -293.2816404433498 Z" style="stroke:none;"/>
                        </g>
                        <g>
                          <path d="M 685.5844155844156 -300.4244975862069 L 692.7272727272727 -307.56735472906405 L 699.8701298701299 -300.4244975862069 L 692.7272727272727 -293.2816404433498 Z"/>
                          <g style="fill:rgb(255,255,255);clip-path:url(#clip24);">
                            <path d="M 729.2207792207791 -293.2775363054187 L 729.2207792207791 -307.563250591133 L 743.5064935064936 -307.563250591133 L 743.5064935064936 -293.2775363054187 Z" style="stroke:none;"/>
                          </g>
                          <g>
                            <path d="M 729.2207792207791 -300.4203934482759 L 736.3636363636364 -307.563250591133 L 743.5064935064936 -300.4203934482759 L 736.3636363636364 -293.2775363054187 Z"/>
                          </g>
                        </g>
                      </g>
                    </g>
                  </g>
                </g>
              </g>
            </g>
          </g>
        </g>
      </g>
      <g style="clip-path:url(#clip25);">
        <path d="M 343.6363636363636 -300.36725889655173 L 387.27272727272725 -300.3633933448276 L 430.9090909090909 -300.3623316551724 L 474.5454545454545 -300.3603998275862 L 518.1818181818182 -300.36033572413794 L 561.8181818181818 -300.35488465517244 L 605.4545454545455 -300.3592880689655 L 649.090909090909 -300.35756220689655 L 692.7272727272727 -300.3571662068966 L 736.3636363636364 -300.35909462068963" style="stroke:rgb(126,126,126);stroke-width:0.4;stroke-dasharray:1.5,1.5;"/>
      </g>
      <g style="clip-path:url(#clip26);">
        <g style="fill:rgb(0,0,0);clip-path:url(#clip27);">
          <path d="M 337.3863636363636 -295.36725889655173 L 337.3863636363636 -305.36725889655173 L 349.8863636363636 -305.36725889655173 L 349.8863636363636 -295.36725889655173 Z" style="stroke:none;"/>
        </g>
        <g>
          <path d="M 343.6363636363636 -295.36725889655173 L 337.3863636363636 -305.36725889655173 L 349.8863636363636 -305.36725889655173 Z"/>
          <g style="fill:rgb(0,0,0);clip-path:url(#clip28);">
            <path d="M 381.02272727272725 -295.3633933448276 L 381.02272727272725 -305.3633933448276 L 393.52272727272725 -305.3633933448276 L 393.52272727272725 -295.3633933448276 Z" style="stroke:none;"/>
          </g>
          <g>
            <path d="M 387.27272727272725 -295.3633933448276 L 381.02272727272725 -305.3633933448276 L 393.52272727272725 -305.3633933448276 Z"/>
            <g style="fill:rgb(0,0,0);clip-path:url(#clip29);">
              <path d="M 424.6590909090909 -295.3623316551724 L 424.6590909090909 -305.3623316551724 L 437.1590909090909 -305.3623316551724 L 437.1590909090909 -295.3623316551724 Z" style="stroke:none;"/>
            </g>
            <g>
              <path d="M 430.9090909090909 -295.3623316551724 L 424.6590909090909 -305.3623316551724 L 437.1590909090909 -305.3623316551724 Z"/>
              <g style="fill:rgb(0,0,0);clip-path:url(#clip30);">
                <path d="M 468.2954545454545 -295.3603998275862 L 468.2954545454545 -305.3603998275862 L 480.7954545454545 -305.3603998275862 L 480.7954545454545 -295.3603998275862 Z" style="stroke:none;"/>
              </g>
              <g>
                <path d="M 474.5454545454545 -295.3603998275862 L 468.2954545454545 -305.3603998275862 L 480.7954545454545 -305.3603998275862 Z"/>
                <g style="fill:rgb(0,0,0);clip-path:url(#clip31);">
                  <path d="M 511.9318181818182 -295.36033572413794 L 511.9318181818182 -305.36033572413794 L 524.4318181818182 -305.36033572413794 L 524.4318181818182 -295.36033572413794 Z" style="stroke:none;"/>
                </g>
                <g>
                  <path d="M 518.1818181818182 -295.36033572413794 L 511.9318181818182 -305.36033572413794 L 524.4318181818182 -305.36033572413794 Z"/>
                  <g style="fill:rgb(0,0,0);clip-path:url(#clip32);">
                    <path d="M 555.5681818181818 -295.35488465517244 L 555.5681818181818 -305.35488465517244 L 568.0681818181818 -305.35488465517244 L 568.0681818181818 -295.35488465517244 Z" style="stroke:none;"/>
                  </g>
                  <g>
                    <path d="M 561.8181818181818 -295.35488465517244 L 555.5681818181818 -305.35488465517244 L 568.0681818181818 -305.35488465517244 Z"/>
                    <g style="fill:rgb(0,0,0);clip-path:url(#clip33);">
                      <path d="M 599.2045454545455 -295.3592880689655 L 599.2045454545455 -305.3592880689655 L 611.7045454545455 -305.3592880689655 L 611.7045454545455 -295.3592880689655 Z" style="stroke:none;"/>
                    </g>
                    <g>
                      <path d="M 605.4545454545455 -295.3592880689655 L 599.2045454545455 -305.3592880689655 L 611.7045454545455 -305.3592880689655 Z"/>
                      <g style="fill:rgb(0,0,0);clip-path:url(#clip34);">
                        <path d="M 642.840909090909 -295.35756220689655 L 642.840909090909 -305.35756220689655 L 655.340909090909 -305.35756220689655 L 655.340909090909 -295.35756220689655 Z" style="stroke:none;"/>
                      </g>
                      <g>
                        <path d="M 649.090909090909 -295.35756220689655 L 642.840909090909 -305.35756220689655 L 655.340909090909 -305.35756220689655 Z"/>
                        <g style="fill:rgb(0,0,0);clip-path:url(#clip35);">
                          <path d="M 686.4772727272727 -295.3571662068966 L 686.4772727272727 -305.3571662068966 L 698.9772727272727 -305.3571662068966 L 698.9772727272727 -295.3571662068966 Z" style="stroke:none;"/>
                        </g>
                        <g>
                          <path d="M 692.7272727272727 -295.3571662068966 L 686.4772727272727 -305.3571662068966 L 698.9772727272727 -305.3571662068966 Z"/>
                          <g style="fill:rgb(0,0,0);clip-path:url(#clip36);">
                            <path d="M 730.1136363636364 -295.35909462068963 L 730.1136363636364 -305.35909462068963 L 742.6136363636364 -305.35909462068963 L 742.6136363636364 -295.35909462068963 Z" style="stroke:none;"/>
                          </g>
                          <g>
                            <path d="M 736.3636363636364 -295.35909462068963 L 730.1136363636364 -305.35909462068963 L 742.6136363636364 -305.35909462068963 Z"/>
                          </g>
                        </g>
                      </g>
                    </g>
                  </g>
                </g>
              </g>
            </g>
          </g>
        </g>
      </g>
      <g style="clip-path:url(#clip37);">
        <path d="M 343.6363636363636 -300.3173560689655 L 387.27272727272725 -300.32901720689654 L 430.9090909090909 -300.3282714827586 L 474.5454545454545 -300.32696134482757 L 518.1818181818182 -300.32857417241377 L 561.8181818181818 -300.3304096551724 L 605.4545454545455 -300.3297105862069 L 649.090909090909 -300.3315858965517 L 692.7272727272727 -300.3270580689655 L 736.3636363636364 -300.3244078275862" style="stroke:rgb(147,147,147);stroke-width:2;"/>
      </g>
      <g style="clip-path:url(#clip38);">
        <g style="fill:rgb(255,255,255);clip-path:url(#clip39);">
          <path d="M 337.3863636363636 -295.3173560689655 L 337.3863636363636 -305.3173560689655 L 349.8863636363636 -305.3173560689655 L 349.8863636363636 -295.3173560689655 Z" style="stroke:none;"/>
        </g>
        <g>
          <path d="M 337.3863636363636 -295.3173560689655 L 349.8863636363636 -295.3173560689655 L 343.6363636363636 -305.3173560689655 Z"/>
          <g style="fill:rgb(255,255,255);clip-path:url(#clip40);">
            <path d="M 381.02272727272725 -295.32901720689654 L 381.02272727272725 -305.32901720689654 L 393.52272727272725 -305.32901720689654 L 393.52272727272725 -295.32901720689654 Z" style="stroke:none;"/>
          </g>
          <g>
            <path d="M 381.02272727272725 -295.32901720689654 L 393.52272727272725 -295.32901720689654 L 387.27272727272725 -305.32901720689654 Z"/>
            <g style="fill:rgb(255,255,255);clip-path:url(#clip41);">
              <path d="M 424.6590909090909 -295.3282714827586 L 424.6590909090909 -305.3282714827586 L 437.1590909090909 -305.3282714827586 L 437.1590909090909 -295.3282714827586 Z" style="stroke:none;"/>
            </g>
            <g>
              <path d="M 424.6590909090909 -295.3282714827586 L 437.1590909090909 -295.3282714827586 L 430.9090909090909 -305.3282714827586 Z"/>
              <g style="fill:rgb(255,255,255);clip-path:url(#clip42);">
                <path d="M 468.2954545454545 -295.32696134482757 L 468.2954545454545 -305.32696134482757 L 480.7954545454545 -305.32696134482757 L 480.7954545454545 -295.32696134482757 Z" style="stroke:none;"/>
              </g>
              <g>
                <path d="M 468.2954545454545 -295.32696134482757 L 480.7954545454545 -295.32696134482757 L 474.5454545454545 -305.32696134482757 Z"/>
                <g style="fill:rgb(255,255,255);clip-path:url(#clip43);">
                  <path d="M 511.9318181818182 -295.32857417241377 L 511.9318181818182 -305.32857417241377 L 524.4318181818182 -305.32857417241377 L 524.4318181818182 -295.32857417241377 Z" style="stroke:none;"/>
                </g>
                <g>
                  <path d="M 511.9318181818182 -295.32857417241377 L 524.4318181818182 -295.32857417241377 L 518.1818181818182 -305.32857417241377 Z"/>
                  <g style="fill:rgb(255,255,255);clip-path:url(#clip44);">
                    <path d="M 555.5681818181818 -295.3304096551724 L 555.5681818181818 -305.3304096551724 L 568.0681818181818 -305.3304096551724 L 568.0681818181818 -295.3304096551724 Z" style="stroke:none;"/>
                  </g>
                  <g>
                    <path d="M 555.5681818181818 -295.3304096551724 L 568.0681818181818 -295.3304096551724 L 561.8181818181818 -305.3304096551724 Z"/>
                    <g style="fill:rgb(255,255,255);clip-path:url(#clip45);">
                      <path d="M 599.2045454545455 -295.3297105862069 L 599.2045454545455 -305.3297105862069 L 611.7045454545455 -305.3297105862069 L 611.7045454545455 -295.3297105862069 Z" style="stroke:none;"/>
                    </g>
                    <g>
                      <path d="M 599.2045454545455 -295.3297105862069 L 611.7045454545455 -295.3297105862069 L 605.4545454545455 -305.3297105862069 Z"/>
                      <g style="fill:rgb(255,255,255);clip-path:url(#clip46);">
                        <path d="M 642.840909090909 -295.3315858965517 L 642.840909090909 -305.3315858965517 L 655.340909090909 -305.3315858965517 L 655.340909090909 -295.3315858965517 Z" style="stroke:none;"/>
                      </g>
                      <g>
                        <path d="M 642.840909090909 -295.3315858965517 L 655.340909090909 -295.3315858965517 L 649.090909090909 -305.3315858965517 Z"/>
                        <g style="fill:rgb(255,255,255);clip-path:url(#clip47);">
                          <path d="M 686.4772727272727 -295.3270580689655 L 686.4772727272727 -305.3270580689655 L 698.9772727272727 -305.3270580689655 L 698.9772727272727 -295.3270580689655 Z" style="stroke:none;"/>
                        </g>
                        <g>
                          <path d="M 686.4772727272727 -295.3270580689655 L 698.9772727272727 -295.3270580689655 L 692.7272727272727 -305.3270580689655 Z"/>
                          <g style="fill:rgb(255,255,255);clip-path:url(#clip48);">
                            <path d="M 730.1136363636364 -295.3244078275862 L 730.1136363636364 -305.3244078275862 L 742.6136363636364 -305.3244078275862 L 742.6136363636364 -295.3244078275862 Z" style="stroke:none;"/>
                          </g>
                          <g>
                            <path d="M 730.1136363636364 -295.3244078275862 L 742.6136363636364 -295.3244078275862 L 736.3636363636364 -305.3244078275862 Z"/>
                          </g>
                        </g>
                      </g>
                    </g>
                  </g>
                </g>
              </g>
            </g>
          </g>
        </g>
      </g>
      <g style="clip-path:url(#clip49);">
        <path d="M 343.6363636363636 -300.3406836551724 L 387.27272727272725 -300.32676220689655 L 430.9090909090909 -300.3254733103448 L 474.5454545454545 -300.31427265517243 L 518.1818181818182 -300.30659996551725 L 561.8181818181818 -300.3092316206897 L 605.4545454545455 -300.3078956896552 L 649.090909090909 -300.3060021724138 L 692.7272727272727 -300.3007456896552 L 736.3636363636364 -300.30063417241377" style="stroke:rgb(126,126,126);stroke-width:0.4;stroke-dasharray:5,2,5,2;"/>
      </g>
      <g style="clip-path:url(#clip50);">
        <g style="fill:rgb(0,0,0);clip-path:url(#clip51);">
          <path d="M 336.4935064935065 -293.19782651231526 L 336.4935064935065 -307.48354079802954 L 350.7792207792208 -307.48354079802954 L 350.7792207792208 -293.19782651231526 Z" style="stroke:none;"/>
        </g>
        <g>
          <path d="M 336.4935064935065 -300.3406836551724 L 343.6363636363636 -307.48354079802954 L 350.7792207792208 -300.3406836551724 L 343.6363636363636 -293.19782651231526 Z"/>
          <g style="fill:rgb(0,0,0);clip-path:url(#clip52);">
            <path d="M 380.12987012987014 -293.18390506403944 L 380.12987012987014 -307.4696193497537 L 394.4155844155844 -307.4696193497537 L 394.4155844155844 -293.18390506403944 Z" style="stroke:none;"/>
          </g>
          <g>
            <path d="M 380.12987012987014 -300.32676220689655 L 387.27272727272725 -307.4696193497537 L 394.4155844155844 -300.32676220689655 L 387.27272727272725 -293.18390506403944 Z"/>
            <g style="fill:rgb(0,0,0);clip-path:url(#clip53);">
              <path d="M 423.76623376623377 -293.1826161674877 L 423.76623376623377 -307.468330453202 L 438.05194805194805 -307.468330453202 L 438.05194805194805 -293.1826161674877 Z" style="stroke:none;"/>
            </g>
            <g>
              <path d="M 423.76623376623377 -300.3254733103448 L 430.9090909090909 -307.468330453202 L 438.05194805194805 -300.3254733103448 L 430.9090909090909 -293.1826161674877 Z"/>
              <g style="fill:rgb(0,0,0);clip-path:url(#clip54);">
                <path d="M 467.4025974025974 -293.17141551231526 L 467.4025974025974 -307.45712979802954 L 481.68831168831167 -307.45712979802954 L 481.68831168831167 -293.17141551231526 Z" style="stroke:none;"/>
              </g>
              <g>
                <path d="M 467.4025974025974 -300.31427265517243 L 474.5454545454545 -307.45712979802954 L 481.68831168831167 -300.31427265517243 L 474.5454545454545 -293.17141551231526 Z"/>
                <g style="fill:rgb(0,0,0);clip-path:url(#clip55);">
                  <path d="M 511.038961038961 -293.1637428226601 L 511.038961038961 -307.44945710837436 L 525.3246753246754 -307.44945710837436 L 525.3246753246754 -293.1637428226601 Z" style="stroke:none;"/>
                </g>
                <g>
                  <path d="M 511.038961038961 -300.30659996551725 L 518.1818181818182 -307.44945710837436 L 525.3246753246754 -300.30659996551725 L 518.1818181818182 -293.1637428226601 Z"/>
                  <g style="fill:rgb(0,0,0);clip-path:url(#clip56);">
                    <path d="M 554.6753246753246 -293.1663744778325 L 554.6753246753246 -307.4520887635468 L 568.961038961039 -307.4520887635468 L 568.961038961039 -293.1663744778325 Z" style="stroke:none;"/>
                  </g>
                  <g>
                    <path d="M 554.6753246753246 -300.3092316206897 L 561.8181818181818 -307.4520887635468 L 568.961038961039 -300.3092316206897 L 561.8181818181818 -293.1663744778325 Z"/>
                    <g style="fill:rgb(0,0,0);clip-path:url(#clip57);">
                      <path d="M 598.3116883116883 -293.16503854679803 L 598.3116883116883 -307.4507528325123 L 612.5974025974026 -307.4507528325123 L 612.5974025974026 -293.16503854679803 Z" style="stroke:none;"/>
                    </g>
                    <g>
                      <path d="M 598.3116883116883 -300.3078956896552 L 605.4545454545455 -307.4507528325123 L 612.5974025974026 -300.3078956896552 L 605.4545454545455 -293.16503854679803 Z"/>
                      <g style="fill:rgb(0,0,0);clip-path:url(#clip58);">
                        <path d="M 641.9480519480519 -293.16314502955663 L 641.9480519480519 -307.4488593152709 L 656.2337662337662 -307.4488593152709 L 656.2337662337662 -293.16314502955663 Z" style="stroke:none;"/>
                      </g>
                      <g>
                        <path d="M 641.9480519480519 -300.3060021724138 L 649.090909090909 -307.4488593152709 L 656.2337662337662 -300.3060021724138 L 649.090909090909 -293.16314502955663 Z"/>
                        <g style="fill:rgb(0,0,0);clip-path:url(#clip59);">
                          <path d="M 685.5844155844156 -293.157888546798 L 685.5844155844156 -307.44360283251234 L 699.8701298701299 -307.44360283251234 L 699.8701298701299 -293.157888546798 Z" style="stroke:none;"/>
                        </g>
                        <g>
                          <path d="M 685.5844155844156 -300.3007456896552 L 692.7272727272727 -307.44360283251234 L 699.8701298701299 -300.3007456896552 L 692.7272727272727 -293.157888546798 Z"/>
                          <g style="fill:rgb(0,0,0);clip-path:url(#clip60);">
                            <path d="M 729.2207792207791 -293.15777702955666 L 729.2207792207791 -307.44349131527093 L 743.5064935064936 -307.44349131527093 L 743.5064935064936 -293.15777702955666 Z" style="stroke:none;"/>
                          </g>
                          <g>
                            <path d="M 729.2207792207791 -300.30063417241377 L 736.3636363636364 -307.44349131527093 L 743.5064935064936 -300.30063417241377 L 736.3636363636364 -293.15777702955666 Z"/>
                          </g>
                        </g>
                      </g>
                    </g>
                  </g>
                </g>
              </g>
            </g>
          </g>
        </g>
      </g>
      <g style="clip-path:url(#clip61);">
        <path d="M 343.6363636363636 -300.23394837931033 L 387.27272727272725 -300.2336123103448 L 430.9090909090909 -300.2396513103448 L 474.5454545454545 -300.234532137931 L 518.1818181818182 -300.2389355517241 L 561.8181818181818 -300.2387 L 605.4545454545455 -300.23816441379313 L 649.090909090909 -300.2389253103448 L 692.7272727272727 -300.23832334482756 L 736.3636363636364 -300.2393091724138" style="stroke:rgb(126,126,126);stroke-width:0.4;stroke-dasharray:1.5,1.5;"/>
      </g>
      <g style="clip-path:url(#clip62);">
        <g style="fill:rgb(0,0,0);clip-path:url(#clip63);">
          <path d="M 337.3863636363636 -295.23394837931033 L 337.3863636363636 -305.23394837931033 L 349.8863636363636 -305.23394837931033 L 349.8863636363636 -295.23394837931033 Z" style="stroke:none;"/>
        </g>
        <g>
          <path d="M 343.6363636363636 -295.23394837931033 L 337.3863636363636 -305.23394837931033 L 349.8863636363636 -305.23394837931033 Z"/>
          <g style="fill:rgb(0,0,0);clip-path:url(#clip64);">
            <path d="M 381.02272727272725 -295.2336123103448 L 381.02272727272725 -305.2336123103448 L 393.52272727272725 -305.2336123103448 L 393.52272727272725 -295.2336123103448 Z" style="stroke:none;"/>
          </g>
          <g>
            <path d="M 387.27272727272725 -295.2336123103448 L 381.02272727272725 -305.2336123103448 L 393.52272727272725 -305.2336123103448 Z"/>
            <g style="fill:rgb(0,0,0);clip-path:url(#clip65);">
              <path d="M 424.6590909090909 -295.2396513103448 L 424.6590909090909 -305.2396513103448 L 437.1590909090909 -305.2396513103448 L 437.1590909090909 -295.2396513103448 Z" style="stroke:none;"/>
            </g>
            <g>
              <path d="M 430.9090909090909 -295.2396513103448 L 424.6590909090909 -305.2396513103448 L 437.1590909090909 -305.2396513103448 Z"/>
              <g style="fill:rgb(0,0,0);clip-path:url(#clip66);">
                <path d="M 468.2954545454545 -295.234532137931 L 468.2954545454545 -305.234532137931 L 480.7954545454545 -305.234532137931 L 480.7954545454545 -295.234532137931 Z" style="stroke:none;"/>
              </g>
              <g>
                <path d="M 474.5454545454545 -295.234532137931 L 468.2954545454545 -305.234532137931 L 480.7954545454545 -305.234532137931 Z"/>
                <g style="fill:rgb(0,0,0);clip-path:url(#clip67);">
                  <path d="M 511.9318181818182 -295.2389355517241 L 511.9318181818182 -305.2389355517241 L 524.4318181818182 -305.2389355517241 L 524.4318181818182 -295.2389355517241 Z" style="stroke:none;"/>
                </g>
                <g>
                  <path d="M 518.1818181818182 -295.2389355517241 L 511.9318181818182 -305.2389355517241 L 524.4318181818182 -305.2389355517241 Z"/>
                  <g style="fill:rgb(0,0,0);clip-path:url(#clip68);">
                    <path d="M 555.5681818181818 -295.2387 L 555.5681818181818 -305.2387 L 568.0681818181818 -305.2387 L 568.0681818181818 -295.2387 Z" style="stroke:none;"/>
                  </g>
                  <g>
                    <path d="M 561.8181818181818 -295.2387 L 555.5681818181818 -305.2387 L 568.0681818181818 -305.2387 Z"/>
                    <g style="fill:rgb(0,0,0);clip-path:url(#clip69);">
                      <path d="M 599.2045454545455 -295.23816441379313 L 599.2045454545455 -305.23816441379313 L 611.7045454545455 -305.23816441379313 L 611.7045454545455 -295.23816441379313 Z" style="stroke:none;"/>
                    </g>
                    <g>
                      <path d="M 605.4545454545455 -295.23816441379313 L 599.2045454545455 -305.23816441379313 L 611.7045454545455 -305.23816441379313 Z"/>
                      <g style="fill:rgb(0,0,0);clip-path:url(#clip70);">
                        <path d="M 642.840909090909 -295.2389253103448 L 642.840909090909 -305.2389253103448 L 655.340909090909 -305.2389253103448 L 655.340909090909 -295.2389253103448 Z" style="stroke:none;"/>
                      </g>
                      <g>
                        <path d="M 649.090909090909 -295.2389253103448 L 642.840909090909 -305.2389253103448 L 655.340909090909 -305.2389253103448 Z"/>
                        <g style="fill:rgb(0,0,0);clip-path:url(#clip71);">
                          <path d="M 686.4772727272727 -295.23832334482756 L 686.4772727272727 -305.23832334482756 L 698.9772727272727 -305.23832334482756 L 698.9772727272727 -295.23832334482756 Z" style="stroke:none;"/>
                        </g>
                        <g>
                          <path d="M 692.7272727272727 -295.23832334482756 L 686.4772727272727 -305.23832334482756 L 698.9772727272727 -305.23832334482756 Z"/>
                          <g style="fill:rgb(0,0,0);clip-path:url(#clip72);">
                            <path d="M 730.1136363636364 -295.2393091724138 L 730.1136363636364 -305.2393091724138 L 742.6136363636364 -305.2393091724138 L 742.6136363636364 -295.2393091724138 Z" style="stroke:none;"/>
                          </g>
                          <g>
                            <path d="M 736.3636363636364 -295.2393091724138 L 730.1136363636364 -305.2393091724138 L 742.6136363636364 -305.2393091724138 Z"/>
                          </g>
                        </g>
                      </g>
                    </g>
                  </g>
                </g>
              </g>
            </g>
          </g>
        </g>
      </g>
      <g style="clip-path:url(#clip73);">
        <path d="M 343.6363636363636 -300.2339828965517 L 387.27272727272725 -300.23072803448275 L 430.9090909090909 -300.2317836551724 L 474.5454545454545 -300.2327497586207 L 518.1818181818182 -300.2326879310345 L 561.8181818181818 -300.23229837931035 L 605.4545454545455 -300.2339870689655 L 649.090909090909 -300.2349888275862 L 692.7272727272727 -300.23414220689654 L 736.3636363636364 -300.23535865517243" style="stroke:rgb(137,42,226);stroke-width:2;"/>
      </g>
      <g style="clip-path:url(#clip74);">
        <path d="M 336.4935064935065 -300.2339828965517 L 350.7792207792208 -300.2339828965517" style="stroke-width:1;"/>
        <path d="M 343.6363636363636 -293.0911257536946 L 343.6363636363636 -307.3768400394089" style="stroke-width:1;"/>
        <path d="M 380.12987012987014 -300.23072803448275 L 394.4155844155844 -300.23072803448275" style="stroke-width:1;"/>
        <path d="M 387.27272727272725 -293.08787089162564 L 387.27272727272725 -307.3735851773399" style="stroke-width:1;"/>
        <path d="M 423.76623376623377 -300.2317836551724 L 438.05194805194805 -300.2317836551724" style="stroke-width:1;"/>
        <path d="M 430.9090909090909 -293.08892651231525 L 430.9090909090909 -307.37464079802953" style="stroke-width:1;"/>
        <path d="M 467.4025974025974 -300.2327497586207 L 481.68831168831167 -300.2327497586207" style="stroke-width:1;"/>
        <path d="M 474.5454545454545 -293.0898926157636 L 474.5454545454545 -307.37560690147785" style="stroke-width:1;"/>
        <path d="M 511.038961038961 -300.2326879310345 L 525.3246753246754 -300.2326879310345" style="stroke-width:1;"/>
        <path d="M 518.1818181818182 -293.0898307881773 L 518.1818181818182 -307.3755450738916" style="stroke-width:1;"/>
        <path d="M 554.6753246753246 -300.23229837931035 L 568.961038961039 -300.23229837931035" style="stroke-width:1;"/>
        <path d="M 561.8181818181818 -293.0894412364532 L 561.8181818181818 -307.37515552216746" style="stroke-width:1;"/>
        <path d="M 598.3116883116883 -300.2339870689655 L 612.5974025974026 -300.2339870689655" style="stroke-width:1;"/>
        <path d="M 605.4545454545455 -293.09112992610835 L 605.4545454545455 -307.3768442118227" style="stroke-width:1;"/>
        <path d="M 641.9480519480519 -300.2349888275862 L 656.2337662337662 -300.2349888275862" style="stroke-width:1;"/>
        <path d="M 649.090909090909 -293.09213168472905 L 649.090909090909 -307.37784597044333" style="stroke-width:1;"/>
        <path d="M 685.5844155844156 -300.23414220689654 L 699.8701298701299 -300.23414220689654" style="stroke-width:1;"/>
        <path d="M 692.7272727272727 -293.0912850640394 L 692.7272727272727 -307.3769993497537" style="stroke-width:1;"/>
        <path d="M 729.2207792207791 -300.23535865517243 L 743.5064935064936 -300.23535865517243" style="stroke-width:1;"/>
        <path d="M 736.3636363636364 -293.09250151231527 L 736.3636363636364 -307.37821579802954" style="stroke-width:1;"/>
      </g>
    </g>
    <g style="fill:rgb(255,255,255);clip-path:url(#clip75);">
      <path d="M 290 6 L 290 -136 L 456.72 -136 L 456.72 6 Z" style="stroke:none;"/>
    </g>
    <path d="M 300 -125.33333333333334 L 316 -125.33333333333334" style="stroke:rgb(205,0,0);stroke-width:2;"/>
    <g style="fill:rgb(255,255,255);clip-path:url(#clip76);">
      <path d="M 301.75 -120.33333333333334 L 301.75 -130.33333333333334 L 314.25 -130.33333333333334 L 314.25 -120.33333333333334 Z" style="stroke:none;"/>
    </g>
    <g>
      <path d="M 308.0 -120.33333333333334 L 301.75 -130.33333333333334 L 314.25 -130.33333333333334 Z"/>
      <text style="font-size:16;stroke:none;fill:rgb(0,0,0);" x="316.0" y="-120.0">
        binary_heap
      </text>
      <path d="M 300 -105.33333333333334 L 316 -105.33333333333334" style="stroke:rgb(126,126,126);stroke-width:2;"/>
      <g style="fill:rgb(255,255,255);clip-path:url(#clip77);">
        <path d="M 300.85714285714283 -98.1904761904762 L 300.85714285714283 -112.47619047619048 L 315.14285714285717 -112.47619047619048 L 315.14285714285717 -98.1904761904762 Z" style="stroke:none;"/>
      </g>
      <g>
        <path d="M 300.85714285714283 -105.33333333333334 L 308.0 -112.47619047619048 L 315.14285714285717 -105.33333333333334 L 308.0 -98.1904761904762 Z"/>
        <text style="font-size:16;stroke:none;fill:rgb(0,0,0);" x="316.0" y="-100.0">
          rc_binomial_heap
        </text>
        <path d="M 300 -85.33333333333334 L 316 -85.33333333333334" style="stroke:rgb(126,126,126);stroke-width:0.4;stroke-dasharray:1.5,1.5;"/>
        <g style="fill:rgb(0,0,0);clip-path:url(#clip78);">
          <path d="M 301.75 -80.33333333333334 L 301.75 -90.33333333333334 L 314.25 -90.33333333333334 L 314.25 -80.33333333333334 Z" style="stroke:none;"/>
        </g>
        <g>
          <path d="M 308.0 -80.33333333333334 L 301.75 -90.33333333333334 L 314.25 -90.33333333333334 Z"/>
          <text style="font-size:16;stroke:none;fill:rgb(0,0,0);" x="316.0" y="-80.0">
            n_pq_deque
          </text>
          <path d="M 300 -65.33333333333334 L 316 -65.33333333333334" style="stroke:rgb(147,147,147);stroke-width:2;"/>
          <g style="fill:rgb(255,255,255);clip-path:url(#clip79);">
            <path d="M 301.75 -60.33333333333334 L 301.75 -70.33333333333334 L 314.25 -70.33333333333334 L 314.25 -60.33333333333334 Z" style="stroke:none;"/>
          </g>
          <g>
            <path d="M 301.75 -60.33333333333334 L 314.25 -60.33333333333334 L 308.0 -70.33333333333334 Z"/>
            <text style="font-size:16;stroke:none;fill:rgb(0,0,0);" x="316.0" y="-60.0">
              binomial_heap
            </text>
            <path d="M 300 -45.33333333333334 L 316 -45.33333333333334" style="stroke:rgb(126,126,126);stroke-width:0.4;stroke-dasharray:5,2,5,2;"/>
            <g style="fill:rgb(0,0,0);clip-path:url(#clip80);">
              <path d="M 300.85714285714283 -38.190476190476204 L 300.85714285714283 -52.47619047619048 L 315.14285714285717 -52.47619047619048 L 315.14285714285717 -38.190476190476204 Z" style="stroke:none;"/>
            </g>
            <g>
              <path d="M 300.85714285714283 -45.33333333333334 L 308.0 -52.47619047619048 L 315.14285714285717 -45.33333333333334 L 308.0 -38.190476190476204 Z"/>
              <text style="font-size:16;stroke:none;fill:rgb(0,0,0);" x="316.0" y="-40.0">
                n_pq_vector
              </text>
              <path d="M 300 -25.333333333333314 L 316 -25.333333333333314" style="stroke:rgb(126,126,126);stroke-width:0.4;stroke-dasharray:1.5,1.5;"/>
              <g style="fill:rgb(0,0,0);clip-path:url(#clip81);">
                <path d="M 301.75 -20.333333333333314 L 301.75 -30.333333333333314 L 314.25 -30.333333333333314 L 314.25 -20.333333333333314 Z" style="stroke:none;"/>
              </g>
              <g>
                <path d="M 308.0 -20.333333333333314 L 301.75 -30.333333333333314 L 314.25 -30.333333333333314 Z"/>
                <text style="font-size:16;stroke:none;fill:rgb(0,0,0);" x="316.0" y="-20.0">
                  thin_heap
                </text>
                <path d="M 300 -5.333333333333314 L 316 -5.333333333333314" style="stroke:rgb(137,42,226);stroke-width:2;"/>
                <path d="M 300.85714285714283 -5.333333333333314 L 315.14285714285717 -5.333333333333314" style="stroke-width:1;"/>
                <path d="M 308.0 1.8095238095238528 L 308.0 -12.476190476190482" style="stroke-width:1;"/>
                <text style="font-size:16;stroke:none;fill:rgb(0,0,0);" x="316.0" y="-0.0">
                  pairing_heap
                </text>
              </g>
            </g>
          </g>
        </g>
      </g>
    </g>
  </g>
</svg>
