<?xml version="1.0" ?>
<!--Created by PyChart 1.39 Copyright 1999-2006 Yasushi Saito-->
<svg viewBox="178 -544 620 556" xmlns="http://www.w3.org/2000/svg" xmlns:xlink="http://www.w3.org/1999/xlink">
  <defs>
    <clipPath id="clip0">
      <path d="M 294 -294 L 294 -526 L 786 -526 L 786 -294 Z"/>
    </clipPath>
    <clipPath id="clip1">
      <path d="M 294 -294 L 294 -526 L 786 -526 L 786 -294 Z"/>
    </clipPath>
    <clipPath id="clip2">
      <path d="M 280 -280 L 280 -540 L 800 -540 L 800 -280 Z"/>
    </clipPath>
    <clipPath id="clip3">
      <path d="M 321.8181818181818 -310.86099840318315 L 315.5681818181818 -320.86099840318315 L 328.0681818181818 -320.86099840318315 Z"/>
    </clipPath>
    <clipPath id="clip4">
      <path d="M 343.6363636363636 -330.01238187482005 L 337.3863636363636 -340.01238187482005 L 349.8863636363636 -340.01238187482005 Z"/>
    </clipPath>
    <clipPath id="clip5">
      <path d="M 365.45454545454544 -350.1980314651449 L 359.20454545454544 -360.1980314651449 L 371.70454545454544 -360.1980314651449 Z"/>
    </clipPath>
    <clipPath id="clip6">
      <path d="M 387.27272727272725 -372.15871312269314 L 381.02272727272725 -382.15871312269314 L 393.52272727272725 -382.15871312269314 Z"/>
    </clipPath>
    <clipPath id="clip7">
      <path d="M 409.0909090909091 -394.06128111829537 L 402.8409090909091 -404.06128111829537 L 415.3409090909091 -404.06128111829537 Z"/>
    </clipPath>
    <clipPath id="clip8">
      <path d="M 430.9090909090909 -416.80571189235883 L 424.6590909090909 -426.80571189235883 L 437.1590909090909 -426.80571189235883 Z"/>
    </clipPath>
    <clipPath id="clip9">
      <path d="M 452.72727272727275 -440.03285254312715 L 446.47727272727275 -450.03285254312715 L 458.97727272727275 -450.03285254312715 Z"/>
    </clipPath>
    <clipPath id="clip10">
      <path d="M 474.5454545454545 -463.5610324337059 L 468.2954545454545 -473.5610324337059 L 480.7954545454545 -473.5610324337059 Z"/>
    </clipPath>
    <clipPath id="clip11">
      <path d="M 496.3636363636364 -490.0048428051622 L 490.1136363636364 -500.0048428051622 L 502.6136363636364 -500.0048428051622 Z"/>
    </clipPath>
    <clipPath id="clip12">
      <path d="M 518.1818181818182 -515.0 L 511.9318181818182 -525.0 L 524.4318181818182 -525.0 Z"/>
    </clipPath>
    <clipPath id="clip13">
      <path d="M 294 -294 L 294 -526 L 786 -526 L 786 -294 Z"/>
    </clipPath>
    <clipPath id="clip14">
      <path d="M 280 -280 L 280 -540 L 800 -540 L 800 -280 Z"/>
    </clipPath>
    <clipPath id="clip15">
      <path d="M 314.67532467532465 -313.21064893589175 L 321.8181818181818 -320.35350607874886 L 328.961038961039 -313.21064893589175 L 321.8181818181818 -306.0677917930346 Z"/>
    </clipPath>
    <clipPath id="clip16">
      <path d="M 336.4935064935065 -328.6553231590796 L 343.6363636363636 -335.7981803019368 L 350.7792207792208 -328.6553231590796 L 343.6363636363636 -321.51246601622245 Z"/>
    </clipPath>
    <clipPath id="clip17">
      <path d="M 358.31168831168833 -345.90031674563494 L 365.45454545454544 -353.0431738884921 L 372.5974025974026 -345.90031674563494 L 365.45454545454544 -338.7574596027778 Z"/>
    </clipPath>
    <clipPath id="clip18">
      <path d="M 380.12987012987014 -361.46383602523497 L 387.27272727272725 -368.6066931680921 L 394.4155844155844 -361.46383602523497 L 387.27272727272725 -354.3209788823778 Z"/>
    </clipPath>
    <clipPath id="clip19">
      <path d="M 401.94805194805195 -378.8298735635193 L 409.0909090909091 -385.9727307063764 L 416.23376623376623 -378.8298735635193 L 409.0909090909091 -371.68701642066213 Z"/>
    </clipPath>
    <clipPath id="clip20">
      <path d="M 423.76623376623377 -397.67597706866314 L 430.9090909090909 -404.81883421152025 L 438.05194805194805 -397.67597706866314 L 430.9090909090909 -390.533119925806 Z"/>
    </clipPath>
    <clipPath id="clip21">
      <path d="M 445.5844155844156 -415.6268160519358 L 452.72727272727275 -422.769673194793 L 459.87012987012986 -415.6268160519358 L 452.72727272727275 -408.4839589090787 Z"/>
    </clipPath>
    <clipPath id="clip22">
      <path d="M 467.4025974025974 -434.10748409727495 L 474.5454545454545 -441.2503412401321 L 481.68831168831167 -434.10748409727495 L 474.5454545454545 -426.9646269544178 Z"/>
    </clipPath>
    <clipPath id="clip23">
      <path d="M 489.22077922077926 -452.3593623203581 L 496.3636363636364 -459.5022194632153 L 503.5064935064935 -452.3593623203581 L 496.3636363636364 -445.21650517750095 Z"/>
    </clipPath>
    <clipPath id="clip24">
      <path d="M 511.038961038961 -470.8007643778959 L 518.1818181818182 -477.943621520753 L 525.3246753246754 -470.8007643778959 L 518.1818181818182 -463.65790723503875 Z"/>
    </clipPath>
    <clipPath id="clip25">
      <path d="M 294 -294 L 294 -526 L 786 -526 L 786 -294 Z"/>
    </clipPath>
    <clipPath id="clip26">
      <path d="M 280 -280 L 280 -540 L 800 -540 L 800 -280 Z"/>
    </clipPath>
    <clipPath id="clip27">
      <path d="M 321.8181818181818 -295.19323002015653 L 315.5681818181818 -305.19323002015653 L 328.0681818181818 -305.19323002015653 Z"/>
    </clipPath>
    <clipPath id="clip28">
      <path d="M 343.6363636363636 -295.3478715216879 L 337.3863636363636 -305.3478715216879 L 349.8863636363636 -305.3478715216879 Z"/>
    </clipPath>
    <clipPath id="clip29">
      <path d="M 365.45454545454544 -295.42060521975867 L 359.20454545454544 -305.42060521975867 L 371.70454545454544 -305.42060521975867 Z"/>
    </clipPath>
    <clipPath id="clip30">
      <path d="M 387.27272727272725 -295.4688432239994 L 381.02272727272725 -305.4688432239994 L 393.52272727272725 -305.4688432239994 Z"/>
    </clipPath>
    <clipPath id="clip31">
      <path d="M 409.0909090909091 -295.4188372032146 L 402.8409090909091 -305.4188372032146 L 415.3409090909091 -305.4188372032146 Z"/>
    </clipPath>
    <clipPath id="clip32">
      <path d="M 430.9090909090909 -295.59743985759536 L 424.6590909090909 -305.59743985759536 L 437.1590909090909 -305.59743985759536 Z"/>
    </clipPath>
    <clipPath id="clip33">
      <path d="M 452.72727272727275 -295.8236067118662 L 446.47727272727275 -305.8236067118662 L 458.97727272727275 -305.8236067118662 Z"/>
    </clipPath>
    <clipPath id="clip34">
      <path d="M 474.5454545454545 -296.0907201382163 L 468.2954545454545 -306.0907201382163 L 480.7954545454545 -306.0907201382163 Z"/>
    </clipPath>
    <clipPath id="clip35">
      <path d="M 496.3636363636364 -295.9695295934661 L 490.1136363636364 -305.9695295934661 L 502.6136363636364 -305.9695295934661 Z"/>
    </clipPath>
    <clipPath id="clip36">
      <path d="M 518.1818181818182 -296.0470930080364 L 511.9318181818182 -306.0470930080364 L 524.4318181818182 -306.0470930080364 Z"/>
    </clipPath>
    <clipPath id="clip37">
      <path d="M 294 -294 L 294 -526 L 786 -526 L 786 -294 Z"/>
    </clipPath>
    <clipPath id="clip38">
      <path d="M 280 -280 L 280 -540 L 800 -540 L 800 -280 Z"/>
    </clipPath>
    <clipPath id="clip39">
      <path d="M 321.8181818181818 -295.21830109159447 L 315.5681818181818 -305.21830109159447 L 328.0681818181818 -305.21830109159447 Z"/>
    </clipPath>
    <clipPath id="clip40">
      <path d="M 343.6363636363636 -295.24091987120755 L 337.3863636363636 -305.24091987120755 L 349.8863636363636 -305.24091987120755 Z"/>
    </clipPath>
    <clipPath id="clip41">
      <path d="M 365.45454545454544 -295.27278448208165 L 359.20454545454544 -305.27278448208165 L 371.70454545454544 -305.27278448208165 Z"/>
    </clipPath>
    <clipPath id="clip42">
      <path d="M 387.27272727272725 -295.27917332007013 L 381.02272727272725 -305.27917332007013 L 393.52272727272725 -305.27917332007013 Z"/>
    </clipPath>
    <clipPath id="clip43">
      <path d="M 409.0909090909091 -295.2803523467972 L 402.8409090909091 -305.2803523467972 L 415.3409090909091 -305.2803523467972 Z"/>
    </clipPath>
    <clipPath id="clip44">
      <path d="M 430.9090909090909 -295.301039763357 L 424.6590909090909 -305.301039763357 L 437.1590909090909 -305.301039763357 Z"/>
    </clipPath>
    <clipPath id="clip45">
      <path d="M 452.72727272727275 -295.31042276380197 L 446.47727272727275 -305.31042276380197 L 458.97727272727275 -305.31042276380197 Z"/>
    </clipPath>
    <clipPath id="clip46">
      <path d="M 474.5454545454545 -295.3170283500432 L 468.2954545454545 -305.3170283500432 L 480.7954545454545 -305.3170283500432 Z"/>
    </clipPath>
    <clipPath id="clip47">
      <path d="M 496.3636363636364 -295.28411298133557 L 490.1136363636364 -305.28411298133557 L 502.6136363636364 -305.28411298133557 Z"/>
    </clipPath>
    <clipPath id="clip48">
      <path d="M 518.1818181818182 -295.3279620952331 L 511.9318181818182 -305.3279620952331 L 524.4318181818182 -305.3279620952331 Z"/>
    </clipPath>
    <clipPath id="clip49">
      <path d="M 294 -294 L 294 -526 L 786 -526 L 786 -294 Z"/>
    </clipPath>
    <clipPath id="clip50">
      <path d="M 280 -280 L 280 -540 L 800 -540 L 800 -280 Z"/>
    </clipPath>
    <clipPath id="clip51">
      <path d="M 314.67532467532465 -300.1630899714667 L 321.8181818181818 -307.3059471143239 L 328.961038961039 -300.1630899714667 L 321.8181818181818 -293.02023282860955 Z"/>
    </clipPath>
    <clipPath id="clip52">
      <path d="M 336.4935064935065 -300.16635637810526 L 343.6363636363636 -307.30921352096243 L 350.7792207792208 -300.16635637810526 L 343.6363636363636 -293.02349923524815 Z"/>
    </clipPath>
    <clipPath id="clip53">
      <path d="M 358.31168831168833 -300.18454961911993 L 365.45454545454544 -307.32740676197704 L 372.5974025974026 -300.18454961911993 L 365.45454545454544 -293.04169247626277 Z"/>
    </clipPath>
    <clipPath id="clip54">
      <path d="M 380.12987012987014 -300.1713866129159 L 387.27272727272725 -307.314243755773 L 394.4155844155844 -300.1713866129159 L 387.27272727272725 -293.02852947005874 Z"/>
    </clipPath>
    <clipPath id="clip55">
      <path d="M 401.94805194805195 -300.20018952383447 L 409.0909090909091 -307.3430466666916 L 416.23376623376623 -300.20018952383447 L 409.0909090909091 -293.0573323809773 Z"/>
    </clipPath>
    <clipPath id="clip56">
      <path d="M 423.76623376623377 -300.18787780424594 L 430.9090909090909 -307.3307349471031 L 438.05194805194805 -300.18787780424594 L 430.9090909090909 -293.04502066138883 Z"/>
    </clipPath>
    <clipPath id="clip57">
      <path d="M 445.5844155844156 -300.19715138347163 L 452.72727272727275 -307.3400085263288 L 459.87012987012986 -300.19715138347163 L 452.72727272727275 -293.05429424061447 Z"/>
    </clipPath>
    <clipPath id="clip58">
      <path d="M 467.4025974025974 -300.17971780843436 L 474.5454545454545 -307.3225749512915 L 481.68831168831167 -300.17971780843436 L 474.5454545454545 -293.0368606655772 Z"/>
    </clipPath>
    <clipPath id="clip59">
      <path d="M 489.22077922077926 -300.21577236198004 L 496.3636363636364 -307.3586295048372 L 503.5064935064935 -300.21577236198004 L 496.3636363636364 -293.07291521912293 Z"/>
    </clipPath>
    <clipPath id="clip60">
      <path d="M 511.038961038961 -300.1964393602262 L 518.1818181818182 -307.3392965030833 L 525.3246753246754 -300.1964393602262 L 518.1818181818182 -293.053582217369 Z"/>
    </clipPath>
    <clipPath id="clip61">
      <path d="M 294 -294 L 294 -526 L 786 -526 L 786 -294 Z"/>
    </clipPath>
    <clipPath id="clip62">
      <path d="M 280 -280 L 280 -540 L 800 -540 L 800 -280 Z"/>
    </clipPath>
    <clipPath id="clip63">
      <path d="M 315.5681818181818 -295.1218779613099 L 328.0681818181818 -295.1218779613099 L 321.8181818181818 -305.1218779613099 Z"/>
    </clipPath>
    <clipPath id="clip64">
      <path d="M 337.3863636363636 -295.12402973744145 L 349.8863636363636 -295.12402973744145 L 343.6363636363636 -305.12402973744145 Z"/>
    </clipPath>
    <clipPath id="clip65">
      <path d="M 359.20454545454544 -295.1222402554907 L 371.70454545454544 -295.1222402554907 L 365.45454545454544 -305.1222402554907 Z"/>
    </clipPath>
    <clipPath id="clip66">
      <path d="M 381.02272727272725 -295.12790293447813 L 393.52272727272725 -295.12790293447813 L 387.27272727272725 -305.12790293447813 Z"/>
    </clipPath>
    <clipPath id="clip67">
      <path d="M 402.8409090909091 -295.12224392031624 L 415.3409090909091 -295.12224392031624 L 409.0909090909091 -305.12224392031624 Z"/>
    </clipPath>
    <clipPath id="clip68">
      <path d="M 424.6590909090909 -295.1332085547499 L 437.1590909090909 -295.1332085547499 L 430.9090909090909 -305.1332085547499 Z"/>
    </clipPath>
    <clipPath id="clip69">
      <path d="M 446.47727272727275 -295.1205774717939 L 458.97727272727275 -295.1205774717939 L 452.72727272727275 -305.1205774717939 Z"/>
    </clipPath>
    <clipPath id="clip70">
      <path d="M 468.2954545454545 -295.1359205256407 L 480.7954545454545 -295.1359205256407 L 474.5454545454545 -305.1359205256407 Z"/>
    </clipPath>
    <clipPath id="clip71">
      <path d="M 490.1136363636364 -295.1614517944556 L 502.6136363636364 -295.1614517944556 L 496.3636363636364 -305.1614517944556 Z"/>
    </clipPath>
    <clipPath id="clip72">
      <path d="M 511.9318181818182 -295.11264364807204 L 524.4318181818182 -295.11264364807204 L 518.1818181818182 -305.11264364807204 Z"/>
    </clipPath>
    <clipPath id="clip73">
      <path d="M 294 -294 L 294 -526 L 786 -526 L 786 -294 Z"/>
    </clipPath>
    <clipPath id="clip74">
      <path d="M 280 -280 L 280 -540 L 800 -540 L 800 -280 Z"/>
    </clipPath>
    <clipPath id="clip75">
      <path d="M 290 6 L 290 -136 L 456.72 -136 L 456.72 6 Z"/>
    </clipPath>
    <clipPath id="clip76">
      <path d="M 308.0 -120.33333333333334 L 301.75 -130.33333333333334 L 314.25 -130.33333333333334 Z"/>
    </clipPath>
    <clipPath id="clip77">
      <path d="M 300.85714285714283 -105.33333333333334 L 308.0 -112.47619047619048 L 315.14285714285717 -105.33333333333334 L 308.0 -98.1904761904762 Z"/>
    </clipPath>
    <clipPath id="clip78">
      <path d="M 308.0 -80.33333333333334 L 301.75 -90.33333333333334 L 314.25 -90.33333333333334 Z"/>
    </clipPath>
    <clipPath id="clip79">
      <path d="M 308.0 -60.33333333333334 L 301.75 -70.33333333333334 L 314.25 -70.33333333333334 Z"/>
    </clipPath>
    <clipPath id="clip80">
      <path d="M 300.85714285714283 -45.33333333333334 L 308.0 -52.47619047619048 L 315.14285714285717 -45.33333333333334 L 308.0 -38.190476190476204 Z"/>
    </clipPath>
    <clipPath id="clip81">
      <path d="M 301.75 -20.333333333333314 L 314.25 -20.333333333333314 L 308.0 -30.333333333333314 Z"/>
    </clipPath>
  </defs>
  <g style="stroke-linejoin:miter;font-size:8;font-family:Helvetica;fill:none;stroke-linecap:butt;stroke:rgb(0,0,0);font-stretch:normal;stroke-dasharray:none;font-weight:normal;font-style:normal;stroke-width:0.5;">
    <path d="M 300 -300 L 780 -300"/>
    <path d="M 300 -300 L 780 -300"/>
    <path d="M 300.0 -300 L 300.0 -288"/>
    <text style="font-size:12;font-style:italic;stroke:none;fill:rgb(0,0,0);" transform="rotate(90,300,-288)" x="300.0" y="-288.0">
      0
    </text>
    <path d="M 343.6363636363636 -300 L 343.6363636363636 -288"/>
    <text style="font-size:12;font-style:italic;stroke:none;fill:rgb(0,0,0);" transform="rotate(90,343.636,-288)" x="343.6363636363636" y="-288.0">
      200
    </text>
    <path d="M 387.27272727272725 -300 L 387.27272727272725 -288"/>
    <text style="font-size:12;font-style:italic;stroke:none;fill:rgb(0,0,0);" transform="rotate(90,387.273,-288)" x="387.27272727272725" y="-288.0">
      400
    </text>
    <path d="M 430.9090909090909 -300 L 430.9090909090909 -288"/>
    <text style="font-size:12;font-style:italic;stroke:none;fill:rgb(0,0,0);" transform="rotate(90,430.909,-288)" x="430.9090909090909" y="-288.0">
      600
    </text>
    <path d="M 474.5454545454545 -300 L 474.5454545454545 -288"/>
    <text style="font-size:12;font-style:italic;stroke:none;fill:rgb(0,0,0);" transform="rotate(90,474.545,-288)" x="474.5454545454545" y="-288.0">
      800
    </text>
    <path d="M 518.1818181818182 -300 L 518.1818181818182 -288"/>
    <text style="font-size:12;font-style:italic;stroke:none;fill:rgb(0,0,0);" transform="rotate(90,518.182,-288)" x="518.1818181818182" y="-288.0">
      1000
    </text>
    <path d="M 561.8181818181818 -300 L 561.8181818181818 -288"/>
    <text style="font-size:12;font-style:italic;stroke:none;fill:rgb(0,0,0);" transform="rotate(90,561.818,-288)" x="561.8181818181818" y="-288.0">
      1200
    </text>
    <path d="M 605.4545454545455 -300 L 605.4545454545455 -288"/>
    <text style="font-size:12;font-style:italic;stroke:none;fill:rgb(0,0,0);" transform="rotate(90,605.455,-288)" x="605.4545454545455" y="-288.0">
      1400
    </text>
    <path d="M 649.090909090909 -300 L 649.090909090909 -288"/>
    <text style="font-size:12;font-style:italic;stroke:none;fill:rgb(0,0,0);" transform="rotate(90,649.091,-288)" x="649.090909090909" y="-288.0">
      1600
    </text>
    <path d="M 692.7272727272727 -300 L 692.7272727272727 -288"/>
    <text style="font-size:12;font-style:italic;stroke:none;fill:rgb(0,0,0);" transform="rotate(90,692.727,-288)" x="692.7272727272727" y="-288.0">
      1800
    </text>
    <path d="M 736.3636363636364 -300 L 736.3636363636364 -288"/>
    <text style="font-size:12;font-style:italic;stroke:none;fill:rgb(0,0,0);" transform="rotate(90,736.364,-288)" x="736.3636363636364" y="-288.0">
      2000
    </text>
    <path d="M 780.0 -300 L 780.0 -288"/>
    <text style="font-size:12;font-style:italic;stroke:none;fill:rgb(0,0,0);" transform="rotate(90,780,-288)" x="780.0" y="-288.0">
      2200
    </text>
    <text style="font-size:16;stroke:none;fill:rgb(0,0,0);" x="524.44" y="-220.0">
      Size
    </text>
    <path d="M 300 -300 L 300 -520"/>
    <path d="M 300 -300.0 L 288 -300.0"/>
    <text style="font-size:12;font-style:italic;stroke:none;fill:rgb(0,0,0);" x="238.0" y="-294.0">
      0.00e+00
    </text>
    <path d="M 300 -344.0 L 288 -344.0"/>
    <text style="font-size:12;font-style:italic;stroke:none;fill:rgb(0,0,0);" x="238.0" y="-338.0">
      8.40e-05
    </text>
    <path d="M 300 -388.0 L 288 -388.0"/>
    <text style="font-size:12;font-style:italic;stroke:none;fill:rgb(0,0,0);" x="238.0" y="-382.0">
      1.68e-04
    </text>
    <path d="M 300 -432.0 L 288 -432.0"/>
    <text style="font-size:12;font-style:italic;stroke:none;fill:rgb(0,0,0);" x="238.0" y="-426.0">
      2.52e-04
    </text>
    <path d="M 300 -476.0 L 288 -476.0"/>
    <text style="font-size:12;font-style:italic;stroke:none;fill:rgb(0,0,0);" x="238.0" y="-470.0">
      3.36e-04
    </text>
    <path d="M 300 -520.0 L 288 -520.0"/>
    <text style="font-size:12;font-style:italic;stroke:none;fill:rgb(0,0,0);" x="238.0" y="-514.0">
      4.20e-04
    </text>
    <text style="font-size:16;stroke:none;fill:rgb(0,0,0);" transform="rotate(-90,200,-340.648)" x="200.0" y="-340.648">
      Average time (sec.)
    </text>
    <g style="clip-path:url(#clip0);">
      <g style="clip-path:url(#clip1);">
        <path d="M 321.8181818181818 -315.86099840318315 L 343.6363636363636 -335.01238187482005 L 365.45454545454544 -355.1980314651449 L 387.27272727272725 -377.15871312269314 L 409.0909090909091 -399.06128111829537 L 430.9090909090909 -421.80571189235883 L 452.72727272727275 -445.03285254312715 L 474.5454545454545 -468.5610324337059 L 496.3636363636364 -495.0048428051622 L 518.1818181818182 -520.0" style="stroke:rgb(126,126,126);stroke-width:0.4;stroke-dasharray:1.5,1.5;"/>
      </g>
      <g style="clip-path:url(#clip2);">
        <g style="fill:rgb(0,0,0);clip-path:url(#clip3);">
          <path d="M 315.5681818181818 -310.86099840318315 L 315.5681818181818 -320.86099840318315 L 328.0681818181818 -320.86099840318315 L 328.0681818181818 -310.86099840318315 Z" style="stroke:none;"/>
        </g>
        <g>
          <path d="M 321.8181818181818 -310.86099840318315 L 315.5681818181818 -320.86099840318315 L 328.0681818181818 -320.86099840318315 Z"/>
          <g style="fill:rgb(0,0,0);clip-path:url(#clip4);">
            <path d="M 337.3863636363636 -330.01238187482005 L 337.3863636363636 -340.01238187482005 L 349.8863636363636 -340.01238187482005 L 349.8863636363636 -330.01238187482005 Z" style="stroke:none;"/>
          </g>
          <g>
            <path d="M 343.6363636363636 -330.01238187482005 L 337.3863636363636 -340.01238187482005 L 349.8863636363636 -340.01238187482005 Z"/>
            <g style="fill:rgb(0,0,0);clip-path:url(#clip5);">
              <path d="M 359.20454545454544 -350.1980314651449 L 359.20454545454544 -360.1980314651449 L 371.70454545454544 -360.1980314651449 L 371.70454545454544 -350.1980314651449 Z" style="stroke:none;"/>
            </g>
            <g>
              <path d="M 365.45454545454544 -350.1980314651449 L 359.20454545454544 -360.1980314651449 L 371.70454545454544 -360.1980314651449 Z"/>
              <g style="fill:rgb(0,0,0);clip-path:url(#clip6);">
                <path d="M 381.02272727272725 -372.15871312269314 L 381.02272727272725 -382.15871312269314 L 393.52272727272725 -382.15871312269314 L 393.52272727272725 -372.15871312269314 Z" style="stroke:none;"/>
              </g>
              <g>
                <path d="M 387.27272727272725 -372.15871312269314 L 381.02272727272725 -382.15871312269314 L 393.52272727272725 -382.15871312269314 Z"/>
                <g style="fill:rgb(0,0,0);clip-path:url(#clip7);">
                  <path d="M 402.8409090909091 -394.06128111829537 L 402.8409090909091 -404.06128111829537 L 415.3409090909091 -404.06128111829537 L 415.3409090909091 -394.06128111829537 Z" style="stroke:none;"/>
                </g>
                <g>
                  <path d="M 409.0909090909091 -394.06128111829537 L 402.8409090909091 -404.06128111829537 L 415.3409090909091 -404.06128111829537 Z"/>
                  <g style="fill:rgb(0,0,0);clip-path:url(#clip8);">
                    <path d="M 424.6590909090909 -416.80571189235883 L 424.6590909090909 -426.80571189235883 L 437.1590909090909 -426.80571189235883 L 437.1590909090909 -416.80571189235883 Z" style="stroke:none;"/>
                  </g>
                  <g>
                    <path d="M 430.9090909090909 -416.80571189235883 L 424.6590909090909 -426.80571189235883 L 437.1590909090909 -426.80571189235883 Z"/>
                    <g style="fill:rgb(0,0,0);clip-path:url(#clip9);">
                      <path d="M 446.47727272727275 -440.03285254312715 L 446.47727272727275 -450.03285254312715 L 458.97727272727275 -450.03285254312715 L 458.97727272727275 -440.03285254312715 Z" style="stroke:none;"/>
                    </g>
                    <g>
                      <path d="M 452.72727272727275 -440.03285254312715 L 446.47727272727275 -450.03285254312715 L 458.97727272727275 -450.03285254312715 Z"/>
                      <g style="fill:rgb(0,0,0);clip-path:url(#clip10);">
                        <path d="M 468.2954545454545 -463.5610324337059 L 468.2954545454545 -473.5610324337059 L 480.7954545454545 -473.5610324337059 L 480.7954545454545 -463.5610324337059 Z" style="stroke:none;"/>
                      </g>
                      <g>
                        <path d="M 474.5454545454545 -463.5610324337059 L 468.2954545454545 -473.5610324337059 L 480.7954545454545 -473.5610324337059 Z"/>
                        <g style="fill:rgb(0,0,0);clip-path:url(#clip11);">
                          <path d="M 490.1136363636364 -490.0048428051622 L 490.1136363636364 -500.0048428051622 L 502.6136363636364 -500.0048428051622 L 502.6136363636364 -490.0048428051622 Z" style="stroke:none;"/>
                        </g>
                        <g>
                          <path d="M 496.3636363636364 -490.0048428051622 L 490.1136363636364 -500.0048428051622 L 502.6136363636364 -500.0048428051622 Z"/>
                          <g style="fill:rgb(0,0,0);clip-path:url(#clip12);">
                            <path d="M 511.9318181818182 -515.0 L 511.9318181818182 -525.0 L 524.4318181818182 -525.0 L 524.4318181818182 -515.0 Z" style="stroke:none;"/>
                          </g>
                          <g>
                            <path d="M 518.1818181818182 -515.0 L 511.9318181818182 -525.0 L 524.4318181818182 -525.0 Z"/>
                          </g>
                        </g>
                      </g>
                    </g>
                  </g>
                </g>
              </g>
            </g>
          </g>
        </g>
      </g>
      <g style="clip-path:url(#clip13);">
        <path d="M 321.8181818181818 -313.21064893589175 L 343.6363636363636 -328.6553231590796 L 365.45454545454544 -345.90031674563494 L 387.27272727272725 -361.46383602523497 L 409.0909090909091 -378.8298735635193 L 430.9090909090909 -397.67597706866314 L 452.72727272727275 -415.6268160519358 L 474.5454545454545 -434.10748409727495 L 496.3636363636364 -452.3593623203581 L 518.1818181818182 -470.8007643778959" style="stroke:rgb(126,126,126);stroke-width:0.4;stroke-dasharray:5,2,5,2;"/>
      </g>
      <g style="clip-path:url(#clip14);">
        <g style="fill:rgb(0,0,0);clip-path:url(#clip15);">
          <path d="M 314.67532467532465 -306.0677917930346 L 314.67532467532465 -320.35350607874886 L 328.961038961039 -320.35350607874886 L 328.961038961039 -306.0677917930346 Z" style="stroke:none;"/>
        </g>
        <g>
          <path d="M 314.67532467532465 -313.21064893589175 L 321.8181818181818 -320.35350607874886 L 328.961038961039 -313.21064893589175 L 321.8181818181818 -306.0677917930346 Z"/>
          <g style="fill:rgb(0,0,0);clip-path:url(#clip16);">
            <path d="M 336.4935064935065 -321.51246601622245 L 336.4935064935065 -335.7981803019368 L 350.7792207792208 -335.7981803019368 L 350.7792207792208 -321.51246601622245 Z" style="stroke:none;"/>
          </g>
          <g>
            <path d="M 336.4935064935065 -328.6553231590796 L 343.6363636363636 -335.7981803019368 L 350.7792207792208 -328.6553231590796 L 343.6363636363636 -321.51246601622245 Z"/>
            <g style="fill:rgb(0,0,0);clip-path:url(#clip17);">
              <path d="M 358.31168831168833 -338.7574596027778 L 358.31168831168833 -353.0431738884921 L 372.5974025974026 -353.0431738884921 L 372.5974025974026 -338.7574596027778 Z" style="stroke:none;"/>
            </g>
            <g>
              <path d="M 358.31168831168833 -345.90031674563494 L 365.45454545454544 -353.0431738884921 L 372.5974025974026 -345.90031674563494 L 365.45454545454544 -338.7574596027778 Z"/>
              <g style="fill:rgb(0,0,0);clip-path:url(#clip18);">
                <path d="M 380.12987012987014 -354.3209788823778 L 380.12987012987014 -368.6066931680921 L 394.4155844155844 -368.6066931680921 L 394.4155844155844 -354.3209788823778 Z" style="stroke:none;"/>
              </g>
              <g>
                <path d="M 380.12987012987014 -361.46383602523497 L 387.27272727272725 -368.6066931680921 L 394.4155844155844 -361.46383602523497 L 387.27272727272725 -354.3209788823778 Z"/>
                <g style="fill:rgb(0,0,0);clip-path:url(#clip19);">
                  <path d="M 401.94805194805195 -371.68701642066213 L 401.94805194805195 -385.9727307063764 L 416.23376623376623 -385.9727307063764 L 416.23376623376623 -371.68701642066213 Z" style="stroke:none;"/>
                </g>
                <g>
                  <path d="M 401.94805194805195 -378.8298735635193 L 409.0909090909091 -385.9727307063764 L 416.23376623376623 -378.8298735635193 L 409.0909090909091 -371.68701642066213 Z"/>
                  <g style="fill:rgb(0,0,0);clip-path:url(#clip20);">
                    <path d="M 423.76623376623377 -390.533119925806 L 423.76623376623377 -404.81883421152025 L 438.05194805194805 -404.81883421152025 L 438.05194805194805 -390.533119925806 Z" style="stroke:none;"/>
                  </g>
                  <g>
                    <path d="M 423.76623376623377 -397.67597706866314 L 430.9090909090909 -404.81883421152025 L 438.05194805194805 -397.67597706866314 L 430.9090909090909 -390.533119925806 Z"/>
                    <g style="fill:rgb(0,0,0);clip-path:url(#clip21);">
                      <path d="M 445.5844155844156 -408.4839589090787 L 445.5844155844156 -422.769673194793 L 459.87012987012986 -422.769673194793 L 459.87012987012986 -408.4839589090787 Z" style="stroke:none;"/>
                    </g>
                    <g>
                      <path d="M 445.5844155844156 -415.6268160519358 L 452.72727272727275 -422.769673194793 L 459.87012987012986 -415.6268160519358 L 452.72727272727275 -408.4839589090787 Z"/>
                      <g style="fill:rgb(0,0,0);clip-path:url(#clip22);">
                        <path d="M 467.4025974025974 -426.9646269544178 L 467.4025974025974 -441.2503412401321 L 481.68831168831167 -441.2503412401321 L 481.68831168831167 -426.9646269544178 Z" style="stroke:none;"/>
                      </g>
                      <g>
                        <path d="M 467.4025974025974 -434.10748409727495 L 474.5454545454545 -441.2503412401321 L 481.68831168831167 -434.10748409727495 L 474.5454545454545 -426.9646269544178 Z"/>
                        <g style="fill:rgb(0,0,0);clip-path:url(#clip23);">
                          <path d="M 489.22077922077926 -445.21650517750095 L 489.22077922077926 -459.5022194632153 L 503.5064935064935 -459.5022194632153 L 503.5064935064935 -445.21650517750095 Z" style="stroke:none;"/>
                        </g>
                        <g>
                          <path d="M 489.22077922077926 -452.3593623203581 L 496.3636363636364 -459.5022194632153 L 503.5064935064935 -452.3593623203581 L 496.3636363636364 -445.21650517750095 Z"/>
                          <g style="fill:rgb(0,0,0);clip-path:url(#clip24);">
                            <path d="M 511.038961038961 -463.65790723503875 L 511.038961038961 -477.943621520753 L 525.3246753246754 -477.943621520753 L 525.3246753246754 -463.65790723503875 Z" style="stroke:none;"/>
                          </g>
                          <g>
                            <path d="M 511.038961038961 -470.8007643778959 L 518.1818181818182 -477.943621520753 L 525.3246753246754 -470.8007643778959 L 518.1818181818182 -463.65790723503875 Z"/>
                          </g>
                        </g>
                      </g>
                    </g>
                  </g>
                </g>
              </g>
            </g>
          </g>
        </g>
      </g>
      <g style="clip-path:url(#clip25);">
        <path d="M 321.8181818181818 -300.19323002015653 L 343.6363636363636 -300.3478715216879 L 365.45454545454544 -300.42060521975867 L 387.27272727272725 -300.4688432239994 L 409.0909090909091 -300.4188372032146 L 430.9090909090909 -300.59743985759536 L 452.72727272727275 -300.8236067118662 L 474.5454545454545 -301.0907201382163 L 496.3636363636364 -300.9695295934661 L 518.1818181818182 -301.0470930080364" style="stroke:rgb(205,0,0);stroke-width:2;"/>
      </g>
      <g style="clip-path:url(#clip26);">
        <g style="fill:rgb(255,255,255);clip-path:url(#clip27);">
          <path d="M 315.5681818181818 -295.19323002015653 L 315.5681818181818 -305.19323002015653 L 328.0681818181818 -305.19323002015653 L 328.0681818181818 -295.19323002015653 Z" style="stroke:none;"/>
        </g>
        <g>
          <path d="M 321.8181818181818 -295.19323002015653 L 315.5681818181818 -305.19323002015653 L 328.0681818181818 -305.19323002015653 Z"/>
          <g style="fill:rgb(255,255,255);clip-path:url(#clip28);">
            <path d="M 337.3863636363636 -295.3478715216879 L 337.3863636363636 -305.3478715216879 L 349.8863636363636 -305.3478715216879 L 349.8863636363636 -295.3478715216879 Z" style="stroke:none;"/>
          </g>
          <g>
            <path d="M 343.6363636363636 -295.3478715216879 L 337.3863636363636 -305.3478715216879 L 349.8863636363636 -305.3478715216879 Z"/>
            <g style="fill:rgb(255,255,255);clip-path:url(#clip29);">
              <path d="M 359.20454545454544 -295.42060521975867 L 359.20454545454544 -305.42060521975867 L 371.70454545454544 -305.42060521975867 L 371.70454545454544 -295.42060521975867 Z" style="stroke:none;"/>
            </g>
            <g>
              <path d="M 365.45454545454544 -295.42060521975867 L 359.20454545454544 -305.42060521975867 L 371.70454545454544 -305.42060521975867 Z"/>
              <g style="fill:rgb(255,255,255);clip-path:url(#clip30);">
                <path d="M 381.02272727272725 -295.4688432239994 L 381.02272727272725 -305.4688432239994 L 393.52272727272725 -305.4688432239994 L 393.52272727272725 -295.4688432239994 Z" style="stroke:none;"/>
              </g>
              <g>
                <path d="M 387.27272727272725 -295.4688432239994 L 381.02272727272725 -305.4688432239994 L 393.52272727272725 -305.4688432239994 Z"/>
                <g style="fill:rgb(255,255,255);clip-path:url(#clip31);">
                  <path d="M 402.8409090909091 -295.4188372032146 L 402.8409090909091 -305.4188372032146 L 415.3409090909091 -305.4188372032146 L 415.3409090909091 -295.4188372032146 Z" style="stroke:none;"/>
                </g>
                <g>
                  <path d="M 409.0909090909091 -295.4188372032146 L 402.8409090909091 -305.4188372032146 L 415.3409090909091 -305.4188372032146 Z"/>
                  <g style="fill:rgb(255,255,255);clip-path:url(#clip32);">
                    <path d="M 424.6590909090909 -295.59743985759536 L 424.6590909090909 -305.59743985759536 L 437.1590909090909 -305.59743985759536 L 437.1590909090909 -295.59743985759536 Z" style="stroke:none;"/>
                  </g>
                  <g>
                    <path d="M 430.9090909090909 -295.59743985759536 L 424.6590909090909 -305.59743985759536 L 437.1590909090909 -305.59743985759536 Z"/>
                    <g style="fill:rgb(255,255,255);clip-path:url(#clip33);">
                      <path d="M 446.47727272727275 -295.8236067118662 L 446.47727272727275 -305.8236067118662 L 458.97727272727275 -305.8236067118662 L 458.97727272727275 -295.8236067118662 Z" style="stroke:none;"/>
                    </g>
                    <g>
                      <path d="M 452.72727272727275 -295.8236067118662 L 446.47727272727275 -305.8236067118662 L 458.97727272727275 -305.8236067118662 Z"/>
                      <g style="fill:rgb(255,255,255);clip-path:url(#clip34);">
                        <path d="M 468.2954545454545 -296.0907201382163 L 468.2954545454545 -306.0907201382163 L 480.7954545454545 -306.0907201382163 L 480.7954545454545 -296.0907201382163 Z" style="stroke:none;"/>
                      </g>
                      <g>
                        <path d="M 474.5454545454545 -296.0907201382163 L 468.2954545454545 -306.0907201382163 L 480.7954545454545 -306.0907201382163 Z"/>
                        <g style="fill:rgb(255,255,255);clip-path:url(#clip35);">
                          <path d="M 490.1136363636364 -295.9695295934661 L 490.1136363636364 -305.9695295934661 L 502.6136363636364 -305.9695295934661 L 502.6136363636364 -295.9695295934661 Z" style="stroke:none;"/>
                        </g>
                        <g>
                          <path d="M 496.3636363636364 -295.9695295934661 L 490.1136363636364 -305.9695295934661 L 502.6136363636364 -305.9695295934661 Z"/>
                          <g style="fill:rgb(255,255,255);clip-path:url(#clip36);">
                            <path d="M 511.9318181818182 -296.0470930080364 L 511.9318181818182 -306.0470930080364 L 524.4318181818182 -306.0470930080364 L 524.4318181818182 -296.0470930080364 Z" style="stroke:none;"/>
                          </g>
                          <g>
                            <path d="M 518.1818181818182 -296.0470930080364 L 511.9318181818182 -306.0470930080364 L 524.4318181818182 -306.0470930080364 Z"/>
                          </g>
                        </g>
                      </g>
                    </g>
                  </g>
                </g>
              </g>
            </g>
          </g>
        </g>
      </g>
      <g style="clip-path:url(#clip37);">
        <path d="M 321.8181818181818 -300.21830109159447 L 343.6363636363636 -300.24091987120755 L 365.45454545454544 -300.27278448208165 L 387.27272727272725 -300.27917332007013 L 409.0909090909091 -300.2803523467972 L 430.9090909090909 -300.301039763357 L 452.72727272727275 -300.31042276380197 L 474.5454545454545 -300.3170283500432 L 496.3636363636364 -300.28411298133557 L 518.1818181818182 -300.3279620952331" style="stroke:rgb(126,126,126);stroke-width:0.4;stroke-dasharray:1.5,1.5;"/>
      </g>
      <g style="clip-path:url(#clip38);">
        <g style="fill:rgb(0,0,0);clip-path:url(#clip39);">
          <path d="M 315.5681818181818 -295.21830109159447 L 315.5681818181818 -305.21830109159447 L 328.0681818181818 -305.21830109159447 L 328.0681818181818 -295.21830109159447 Z" style="stroke:none;"/>
        </g>
        <g>
          <path d="M 321.8181818181818 -295.21830109159447 L 315.5681818181818 -305.21830109159447 L 328.0681818181818 -305.21830109159447 Z"/>
          <g style="fill:rgb(0,0,0);clip-path:url(#clip40);">
            <path d="M 337.3863636363636 -295.24091987120755 L 337.3863636363636 -305.24091987120755 L 349.8863636363636 -305.24091987120755 L 349.8863636363636 -295.24091987120755 Z" style="stroke:none;"/>
          </g>
          <g>
            <path d="M 343.6363636363636 -295.24091987120755 L 337.3863636363636 -305.24091987120755 L 349.8863636363636 -305.24091987120755 Z"/>
            <g style="fill:rgb(0,0,0);clip-path:url(#clip41);">
              <path d="M 359.20454545454544 -295.27278448208165 L 359.20454545454544 -305.27278448208165 L 371.70454545454544 -305.27278448208165 L 371.70454545454544 -295.27278448208165 Z" style="stroke:none;"/>
            </g>
            <g>
              <path d="M 365.45454545454544 -295.27278448208165 L 359.20454545454544 -305.27278448208165 L 371.70454545454544 -305.27278448208165 Z"/>
              <g style="fill:rgb(0,0,0);clip-path:url(#clip42);">
                <path d="M 381.02272727272725 -295.27917332007013 L 381.02272727272725 -305.27917332007013 L 393.52272727272725 -305.27917332007013 L 393.52272727272725 -295.27917332007013 Z" style="stroke:none;"/>
              </g>
              <g>
                <path d="M 387.27272727272725 -295.27917332007013 L 381.02272727272725 -305.27917332007013 L 393.52272727272725 -305.27917332007013 Z"/>
                <g style="fill:rgb(0,0,0);clip-path:url(#clip43);">
                  <path d="M 402.8409090909091 -295.2803523467972 L 402.8409090909091 -305.2803523467972 L 415.3409090909091 -305.2803523467972 L 415.3409090909091 -295.2803523467972 Z" style="stroke:none;"/>
                </g>
                <g>
                  <path d="M 409.0909090909091 -295.2803523467972 L 402.8409090909091 -305.2803523467972 L 415.3409090909091 -305.2803523467972 Z"/>
                  <g style="fill:rgb(0,0,0);clip-path:url(#clip44);">
                    <path d="M 424.6590909090909 -295.301039763357 L 424.6590909090909 -305.301039763357 L 437.1590909090909 -305.301039763357 L 437.1590909090909 -295.301039763357 Z" style="stroke:none;"/>
                  </g>
                  <g>
                    <path d="M 430.9090909090909 -295.301039763357 L 424.6590909090909 -305.301039763357 L 437.1590909090909 -305.301039763357 Z"/>
                    <g style="fill:rgb(0,0,0);clip-path:url(#clip45);">
                      <path d="M 446.47727272727275 -295.31042276380197 L 446.47727272727275 -305.31042276380197 L 458.97727272727275 -305.31042276380197 L 458.97727272727275 -295.31042276380197 Z" style="stroke:none;"/>
                    </g>
                    <g>
                      <path d="M 452.72727272727275 -295.31042276380197 L 446.47727272727275 -305.31042276380197 L 458.97727272727275 -305.31042276380197 Z"/>
                      <g style="fill:rgb(0,0,0);clip-path:url(#clip46);">
                        <path d="M 468.2954545454545 -295.3170283500432 L 468.2954545454545 -305.3170283500432 L 480.7954545454545 -305.3170283500432 L 480.7954545454545 -295.3170283500432 Z" style="stroke:none;"/>
                      </g>
                      <g>
                        <path d="M 474.5454545454545 -295.3170283500432 L 468.2954545454545 -305.3170283500432 L 480.7954545454545 -305.3170283500432 Z"/>
                        <g style="fill:rgb(0,0,0);clip-path:url(#clip47);">
                          <path d="M 490.1136363636364 -295.28411298133557 L 490.1136363636364 -305.28411298133557 L 502.6136363636364 -305.28411298133557 L 502.6136363636364 -295.28411298133557 Z" style="stroke:none;"/>
                        </g>
                        <g>
                          <path d="M 496.3636363636364 -295.28411298133557 L 490.1136363636364 -305.28411298133557 L 502.6136363636364 -305.28411298133557 Z"/>
                          <g style="fill:rgb(0,0,0);clip-path:url(#clip48);">
                            <path d="M 511.9318181818182 -295.3279620952331 L 511.9318181818182 -305.3279620952331 L 524.4318181818182 -305.3279620952331 L 524.4318181818182 -295.3279620952331 Z" style="stroke:none;"/>
                          </g>
                          <g>
                            <path d="M 518.1818181818182 -295.3279620952331 L 511.9318181818182 -305.3279620952331 L 524.4318181818182 -305.3279620952331 Z"/>
                          </g>
                        </g>
                      </g>
                    </g>
                  </g>
                </g>
              </g>
            </g>
          </g>
        </g>
      </g>
      <g style="clip-path:url(#clip49);">
        <path d="M 321.8181818181818 -300.1630899714667 L 343.6363636363636 -300.16635637810526 L 365.45454545454544 -300.18454961911993 L 387.27272727272725 -300.1713866129159 L 409.0909090909091 -300.20018952383447 L 430.9090909090909 -300.18787780424594 L 452.72727272727275 -300.19715138347163 L 474.5454545454545 -300.17971780843436 L 496.3636363636364 -300.21577236198004 L 518.1818181818182 -300.1964393602262" style="stroke:rgb(126,126,126);stroke-width:2;"/>
      </g>
      <g style="clip-path:url(#clip50);">
        <g style="fill:rgb(255,255,255);clip-path:url(#clip51);">
          <path d="M 314.67532467532465 -293.02023282860955 L 314.67532467532465 -307.3059471143239 L 328.961038961039 -307.3059471143239 L 328.961038961039 -293.02023282860955 Z" style="stroke:none;"/>
        </g>
        <g>
          <path d="M 314.67532467532465 -300.1630899714667 L 321.8181818181818 -307.3059471143239 L 328.961038961039 -300.1630899714667 L 321.8181818181818 -293.02023282860955 Z"/>
          <g style="fill:rgb(255,255,255);clip-path:url(#clip52);">
            <path d="M 336.4935064935065 -293.02349923524815 L 336.4935064935065 -307.30921352096243 L 350.7792207792208 -307.30921352096243 L 350.7792207792208 -293.02349923524815 Z" style="stroke:none;"/>
          </g>
          <g>
            <path d="M 336.4935064935065 -300.16635637810526 L 343.6363636363636 -307.30921352096243 L 350.7792207792208 -300.16635637810526 L 343.6363636363636 -293.02349923524815 Z"/>
            <g style="fill:rgb(255,255,255);clip-path:url(#clip53);">
              <path d="M 358.31168831168833 -293.04169247626277 L 358.31168831168833 -307.32740676197704 L 372.5974025974026 -307.32740676197704 L 372.5974025974026 -293.04169247626277 Z" style="stroke:none;"/>
            </g>
            <g>
              <path d="M 358.31168831168833 -300.18454961911993 L 365.45454545454544 -307.32740676197704 L 372.5974025974026 -300.18454961911993 L 365.45454545454544 -293.04169247626277 Z"/>
              <g style="fill:rgb(255,255,255);clip-path:url(#clip54);">
                <path d="M 380.12987012987014 -293.02852947005874 L 380.12987012987014 -307.314243755773 L 394.4155844155844 -307.314243755773 L 394.4155844155844 -293.02852947005874 Z" style="stroke:none;"/>
              </g>
              <g>
                <path d="M 380.12987012987014 -300.1713866129159 L 387.27272727272725 -307.314243755773 L 394.4155844155844 -300.1713866129159 L 387.27272727272725 -293.02852947005874 Z"/>
                <g style="fill:rgb(255,255,255);clip-path:url(#clip55);">
                  <path d="M 401.94805194805195 -293.0573323809773 L 401.94805194805195 -307.3430466666916 L 416.23376623376623 -307.3430466666916 L 416.23376623376623 -293.0573323809773 Z" style="stroke:none;"/>
                </g>
                <g>
                  <path d="M 401.94805194805195 -300.20018952383447 L 409.0909090909091 -307.3430466666916 L 416.23376623376623 -300.20018952383447 L 409.0909090909091 -293.0573323809773 Z"/>
                  <g style="fill:rgb(255,255,255);clip-path:url(#clip56);">
                    <path d="M 423.76623376623377 -293.04502066138883 L 423.76623376623377 -307.3307349471031 L 438.05194805194805 -307.3307349471031 L 438.05194805194805 -293.04502066138883 Z" style="stroke:none;"/>
                  </g>
                  <g>
                    <path d="M 423.76623376623377 -300.18787780424594 L 430.9090909090909 -307.3307349471031 L 438.05194805194805 -300.18787780424594 L 430.9090909090909 -293.04502066138883 Z"/>
                    <g style="fill:rgb(255,255,255);clip-path:url(#clip57);">
                      <path d="M 445.5844155844156 -293.05429424061447 L 445.5844155844156 -307.3400085263288 L 459.87012987012986 -307.3400085263288 L 459.87012987012986 -293.05429424061447 Z" style="stroke:none;"/>
                    </g>
                    <g>
                      <path d="M 445.5844155844156 -300.19715138347163 L 452.72727272727275 -307.3400085263288 L 459.87012987012986 -300.19715138347163 L 452.72727272727275 -293.05429424061447 Z"/>
                      <g style="fill:rgb(255,255,255);clip-path:url(#clip58);">
                        <path d="M 467.4025974025974 -293.0368606655772 L 467.4025974025974 -307.3225749512915 L 481.68831168831167 -307.3225749512915 L 481.68831168831167 -293.0368606655772 Z" style="stroke:none;"/>
                      </g>
                      <g>
                        <path d="M 467.4025974025974 -300.17971780843436 L 474.5454545454545 -307.3225749512915 L 481.68831168831167 -300.17971780843436 L 474.5454545454545 -293.0368606655772 Z"/>
                        <g style="fill:rgb(255,255,255);clip-path:url(#clip59);">
                          <path d="M 489.22077922077926 -293.07291521912293 L 489.22077922077926 -307.3586295048372 L 503.5064935064935 -307.3586295048372 L 503.5064935064935 -293.07291521912293 Z" style="stroke:none;"/>
                        </g>
                        <g>
                          <path d="M 489.22077922077926 -300.21577236198004 L 496.3636363636364 -307.3586295048372 L 503.5064935064935 -300.21577236198004 L 496.3636363636364 -293.07291521912293 Z"/>
                          <g style="fill:rgb(255,255,255);clip-path:url(#clip60);">
                            <path d="M 511.038961038961 -293.053582217369 L 511.038961038961 -307.3392965030833 L 525.3246753246754 -307.3392965030833 L 525.3246753246754 -293.053582217369 Z" style="stroke:none;"/>
                          </g>
                          <g>
                            <path d="M 511.038961038961 -300.1964393602262 L 518.1818181818182 -307.3392965030833 L 525.3246753246754 -300.1964393602262 L 518.1818181818182 -293.053582217369 Z"/>
                          </g>
                        </g>
                      </g>
                    </g>
                  </g>
                </g>
              </g>
            </g>
          </g>
        </g>
      </g>
      <g style="clip-path:url(#clip61);">
        <path d="M 321.8181818181818 -300.1218779613099 L 343.6363636363636 -300.12402973744145 L 365.45454545454544 -300.1222402554907 L 387.27272727272725 -300.12790293447813 L 409.0909090909091 -300.12224392031624 L 430.9090909090909 -300.1332085547499 L 452.72727272727275 -300.1205774717939 L 474.5454545454545 -300.1359205256407 L 496.3636363636364 -300.1614517944556 L 518.1818181818182 -300.11264364807204" style="stroke:rgb(147,147,147);stroke-width:2;"/>
      </g>
      <g style="clip-path:url(#clip62);">
        <g style="fill:rgb(255,255,255);clip-path:url(#clip63);">
          <path d="M 315.5681818181818 -295.1218779613099 L 315.5681818181818 -305.1218779613099 L 328.0681818181818 -305.1218779613099 L 328.0681818181818 -295.1218779613099 Z" style="stroke:none;"/>
        </g>
        <g>
          <path d="M 315.5681818181818 -295.1218779613099 L 328.0681818181818 -295.1218779613099 L 321.8181818181818 -305.1218779613099 Z"/>
          <g style="fill:rgb(255,255,255);clip-path:url(#clip64);">
            <path d="M 337.3863636363636 -295.12402973744145 L 337.3863636363636 -305.12402973744145 L 349.8863636363636 -305.12402973744145 L 349.8863636363636 -295.12402973744145 Z" style="stroke:none;"/>
          </g>
          <g>
            <path d="M 337.3863636363636 -295.12402973744145 L 349.8863636363636 -295.12402973744145 L 343.6363636363636 -305.12402973744145 Z"/>
            <g style="fill:rgb(255,255,255);clip-path:url(#clip65);">
              <path d="M 359.20454545454544 -295.1222402554907 L 359.20454545454544 -305.1222402554907 L 371.70454545454544 -305.1222402554907 L 371.70454545454544 -295.1222402554907 Z" style="stroke:none;"/>
            </g>
            <g>
              <path d="M 359.20454545454544 -295.1222402554907 L 371.70454545454544 -295.1222402554907 L 365.45454545454544 -305.1222402554907 Z"/>
              <g style="fill:rgb(255,255,255);clip-path:url(#clip66);">
                <path d="M 381.02272727272725 -295.12790293447813 L 381.02272727272725 -305.12790293447813 L 393.52272727272725 -305.12790293447813 L 393.52272727272725 -295.12790293447813 Z" style="stroke:none;"/>
              </g>
              <g>
                <path d="M 381.02272727272725 -295.12790293447813 L 393.52272727272725 -295.12790293447813 L 387.27272727272725 -305.12790293447813 Z"/>
                <g style="fill:rgb(255,255,255);clip-path:url(#clip67);">
                  <path d="M 402.8409090909091 -295.12224392031624 L 402.8409090909091 -305.12224392031624 L 415.3409090909091 -305.12224392031624 L 415.3409090909091 -295.12224392031624 Z" style="stroke:none;"/>
                </g>
                <g>
                  <path d="M 402.8409090909091 -295.12224392031624 L 415.3409090909091 -295.12224392031624 L 409.0909090909091 -305.12224392031624 Z"/>
                  <g style="fill:rgb(255,255,255);clip-path:url(#clip68);">
                    <path d="M 424.6590909090909 -295.1332085547499 L 424.6590909090909 -305.1332085547499 L 437.1590909090909 -305.1332085547499 L 437.1590909090909 -295.1332085547499 Z" style="stroke:none;"/>
                  </g>
                  <g>
                    <path d="M 424.6590909090909 -295.1332085547499 L 437.1590909090909 -295.1332085547499 L 430.9090909090909 -305.1332085547499 Z"/>
                    <g style="fill:rgb(255,255,255);clip-path:url(#clip69);">
                      <path d="M 446.47727272727275 -295.1205774717939 L 446.47727272727275 -305.1205774717939 L 458.97727272727275 -305.1205774717939 L 458.97727272727275 -295.1205774717939 Z" style="stroke:none;"/>
                    </g>
                    <g>
                      <path d="M 446.47727272727275 -295.1205774717939 L 458.97727272727275 -295.1205774717939 L 452.72727272727275 -305.1205774717939 Z"/>
                      <g style="fill:rgb(255,255,255);clip-path:url(#clip70);">
                        <path d="M 468.2954545454545 -295.1359205256407 L 468.2954545454545 -305.1359205256407 L 480.7954545454545 -305.1359205256407 L 480.7954545454545 -295.1359205256407 Z" style="stroke:none;"/>
                      </g>
                      <g>
                        <path d="M 468.2954545454545 -295.1359205256407 L 480.7954545454545 -295.1359205256407 L 474.5454545454545 -305.1359205256407 Z"/>
                        <g style="fill:rgb(255,255,255);clip-path:url(#clip71);">
                          <path d="M 490.1136363636364 -295.1614517944556 L 490.1136363636364 -305.1614517944556 L 502.6136363636364 -305.1614517944556 L 502.6136363636364 -295.1614517944556 Z" style="stroke:none;"/>
                        </g>
                        <g>
                          <path d="M 490.1136363636364 -295.1614517944556 L 502.6136363636364 -295.1614517944556 L 496.3636363636364 -305.1614517944556 Z"/>
                          <g style="fill:rgb(255,255,255);clip-path:url(#clip72);">
                            <path d="M 511.9318181818182 -295.11264364807204 L 511.9318181818182 -305.11264364807204 L 524.4318181818182 -305.11264364807204 L 524.4318181818182 -295.11264364807204 Z" style="stroke:none;"/>
                          </g>
                          <g>
                            <path d="M 511.9318181818182 -295.11264364807204 L 524.4318181818182 -295.11264364807204 L 518.1818181818182 -305.11264364807204 Z"/>
                          </g>
                        </g>
                      </g>
                    </g>
                  </g>
                </g>
              </g>
            </g>
          </g>
        </g>
      </g>
      <g style="clip-path:url(#clip73);">
        <path d="M 321.8181818181818 -300.0736875998011 L 343.6363636363636 -300.0783372163032 L 365.45454545454544 -300.08038585377346 L 387.27272727272725 -300.075962409361 L 409.0909090909091 -300.0780173293893 L 430.9090909090909 -300.0806774691762 L 452.72727272727275 -300.07853197560274 L 474.5454545454545 -300.0749435878642 L 496.3636363636364 -300.0799099500013 L 518.1818181818182 -300.0811162011466" style="stroke:rgb(137,42,226);stroke-width:2;"/>
      </g>
      <g style="clip-path:url(#clip74);">
        <path d="M 314.67532467532465 -300.0736875998011 L 328.961038961039 -300.0736875998011" style="stroke-width:1;"/>
        <path d="M 321.8181818181818 -292.9308304569439 L 321.8181818181818 -307.2165447426582" style="stroke-width:1;"/>
        <path d="M 336.4935064935065 -300.0783372163032 L 350.7792207792208 -300.0783372163032" style="stroke-width:1;"/>
        <path d="M 343.6363636363636 -292.9354800734461 L 343.6363636363636 -307.2211943591604" style="stroke-width:1;"/>
        <path d="M 358.31168831168833 -300.08038585377346 L 372.5974025974026 -300.08038585377346" style="stroke-width:1;"/>
        <path d="M 365.45454545454544 -292.9375287109163 L 365.45454545454544 -307.22324299663063" style="stroke-width:1;"/>
        <path d="M 380.12987012987014 -300.075962409361 L 394.4155844155844 -300.075962409361" style="stroke-width:1;"/>
        <path d="M 387.27272727272725 -292.93310526650384 L 387.27272727272725 -307.2188195522182" style="stroke-width:1;"/>
        <path d="M 401.94805194805195 -300.0780173293893 L 416.23376623376623 -300.0780173293893" style="stroke-width:1;"/>
        <path d="M 409.0909090909091 -292.93516018653213 L 409.0909090909091 -307.2208744722464" style="stroke-width:1;"/>
        <path d="M 423.76623376623377 -300.0806774691762 L 438.05194805194805 -300.0806774691762" style="stroke-width:1;"/>
        <path d="M 430.9090909090909 -292.93782032631907 L 430.9090909090909 -307.22353461203335" style="stroke-width:1;"/>
        <path d="M 445.5844155844156 -300.07853197560274 L 459.87012987012986 -300.07853197560274" style="stroke-width:1;"/>
        <path d="M 452.72727272727275 -292.9356748327456 L 452.72727272727275 -307.22138911845985" style="stroke-width:1;"/>
        <path d="M 467.4025974025974 -300.0749435878642 L 481.68831168831167 -300.0749435878642" style="stroke-width:1;"/>
        <path d="M 474.5454545454545 -292.93208644500703 L 474.5454545454545 -307.2178007307213" style="stroke-width:1;"/>
        <path d="M 489.22077922077926 -300.0799099500013 L 503.5064935064935 -300.0799099500013" style="stroke-width:1;"/>
        <path d="M 496.3636363636364 -292.93705280714414 L 496.3636363636364 -307.2227670928585" style="stroke-width:1;"/>
        <path d="M 511.038961038961 -300.0811162011466 L 525.3246753246754 -300.0811162011466" style="stroke-width:1;"/>
        <path d="M 518.1818181818182 -292.9382590582894 L 518.1818181818182 -307.2239733440037" style="stroke-width:1;"/>
      </g>
    </g>
    <g style="fill:rgb(255,255,255);clip-path:url(#clip75);">
      <path d="M 290 6 L 290 -136 L 456.72 -136 L 456.72 6 Z" style="stroke:none;"/>
    </g>
    <path d="M 300 -125.33333333333334 L 316 -125.33333333333334" style="stroke:rgb(126,126,126);stroke-width:0.4;stroke-dasharray:1.5,1.5;"/>
    <g style="fill:rgb(0,0,0);clip-path:url(#clip76);">
      <path d="M 301.75 -120.33333333333334 L 301.75 -130.33333333333334 L 314.25 -130.33333333333334 L 314.25 -120.33333333333334 Z" style="stroke:none;"/>
    </g>
    <g>
      <path d="M 308.0 -120.33333333333334 L 301.75 -130.33333333333334 L 314.25 -130.33333333333334 Z"/>
      <text style="font-size:16;stroke:none;fill:rgb(0,0,0);" x="316.0" y="-120.0">
        n_pq_deque
      </text>
      <path d="M 300 -105.33333333333334 L 316 -105.33333333333334" style="stroke:rgb(126,126,126);stroke-width:0.4;stroke-dasharray:5,2,5,2;"/>
      <g style="fill:rgb(0,0,0);clip-path:url(#clip77);">
        <path d="M 300.85714285714283 -98.1904761904762 L 300.85714285714283 -112.47619047619048 L 315.14285714285717 -112.47619047619048 L 315.14285714285717 -98.1904761904762 Z" style="stroke:none;"/>
      </g>
      <g>
        <path d="M 300.85714285714283 -105.33333333333334 L 308.0 -112.47619047619048 L 315.14285714285717 -105.33333333333334 L 308.0 -98.1904761904762 Z"/>
        <text style="font-size:16;stroke:none;fill:rgb(0,0,0);" x="316.0" y="-100.0">
          n_pq_vector
        </text>
        <path d="M 300 -85.33333333333334 L 316 -85.33333333333334" style="stroke:rgb(205,0,0);stroke-width:2;"/>
        <g style="fill:rgb(255,255,255);clip-path:url(#clip78);">
          <path d="M 301.75 -80.33333333333334 L 301.75 -90.33333333333334 L 314.25 -90.33333333333334 L 314.25 -80.33333333333334 Z" style="stroke:none;"/>
        </g>
        <g>
          <path d="M 308.0 -80.33333333333334 L 301.75 -90.33333333333334 L 314.25 -90.33333333333334 Z"/>
          <text style="font-size:16;stroke:none;fill:rgb(0,0,0);" x="316.0" y="-80.0">
            binary_heap
          </text>
          <path d="M 300 -65.33333333333334 L 316 -65.33333333333334" style="stroke:rgb(126,126,126);stroke-width:0.4;stroke-dasharray:1.5,1.5;"/>
          <g style="fill:rgb(0,0,0);clip-path:url(#clip79);">
            <path d="M 301.75 -60.33333333333334 L 301.75 -70.33333333333334 L 314.25 -70.33333333333334 L 314.25 -60.33333333333334 Z" style="stroke:none;"/>
          </g>
          <g>
            <path d="M 308.0 -60.33333333333334 L 301.75 -70.33333333333334 L 314.25 -70.33333333333334 Z"/>
            <text style="font-size:16;stroke:none;fill:rgb(0,0,0);" x="316.0" y="-60.0">
              thin_heap
            </text>
            <path d="M 300 -45.33333333333334 L 316 -45.33333333333334" style="stroke:rgb(126,126,126);stroke-width:2;"/>
            <g style="fill:rgb(255,255,255);clip-path:url(#clip80);">
              <path d="M 300.85714285714283 -38.190476190476204 L 300.85714285714283 -52.47619047619048 L 315.14285714285717 -52.47619047619048 L 315.14285714285717 -38.190476190476204 Z" style="stroke:none;"/>
            </g>
            <g>
              <path d="M 300.85714285714283 -45.33333333333334 L 308.0 -52.47619047619048 L 315.14285714285717 -45.33333333333334 L 308.0 -38.190476190476204 Z"/>
              <text style="font-size:16;stroke:none;fill:rgb(0,0,0);" x="316.0" y="-40.0">
                rc_binomial_heap
              </text>
              <path d="M 300 -25.333333333333314 L 316 -25.333333333333314" style="stroke:rgb(147,147,147);stroke-width:2;"/>
              <g style="fill:rgb(255,255,255);clip-path:url(#clip81);">
                <path d="M 301.75 -20.333333333333314 L 301.75 -30.333333333333314 L 314.25 -30.333333333333314 L 314.25 -20.333333333333314 Z" style="stroke:none;"/>
              </g>
              <g>
                <path d="M 301.75 -20.333333333333314 L 314.25 -20.333333333333314 L 308.0 -30.333333333333314 Z"/>
                <text style="font-size:16;stroke:none;fill:rgb(0,0,0);" x="316.0" y="-20.0">
                  binomial_heap
                </text>
                <path d="M 300 -5.333333333333314 L 316 -5.333333333333314" style="stroke:rgb(137,42,226);stroke-width:2;"/>
                <path d="M 300.85714285714283 -5.333333333333314 L 315.14285714285717 -5.333333333333314" style="stroke-width:1;"/>
                <path d="M 308.0 1.8095238095238528 L 308.0 -12.476190476190482" style="stroke-width:1;"/>
                <text style="font-size:16;stroke:none;fill:rgb(0,0,0);" x="316.0" y="-0.0">
                  pairing_heap
                </text>
              </g>
            </g>
          </g>
        </g>
      </g>
    </g>
  </g>
</svg>
