<?xml version="1.0" ?>
<!--Created by PyChart 1.39 Copyright 1999-2006 Yasushi Saito-->
<svg viewBox="178 -544 620 476" xmlns="http://www.w3.org/2000/svg" xmlns:xlink="http://www.w3.org/1999/xlink">
  <defs>
    <clipPath id="clip0">
      <path d="M 294 -294 L 294 -526 L 786 -526 L 786 -294 Z"/>
    </clipPath>
    <clipPath id="clip1">
      <path d="M 294 -294 L 294 -526 L 786 -526 L 786 -294 Z"/>
    </clipPath>
    <clipPath id="clip2">
      <path d="M 280 -280 L 280 -540 L 800 -540 L 800 -280 Z"/>
    </clipPath>
    <clipPath id="clip3">
      <path d="M 337.3863636363636 -473.63251018586266 L 349.8863636363636 -473.63251018586266 L 343.6363636363636 -483.63251018586266 Z"/>
    </clipPath>
    <clipPath id="clip4">
      <path d="M 381.02272727272725 -505.0758485981434 L 393.52272727272725 -505.0758485981434 L 387.27272727272725 -515.0758485981435 Z"/>
    </clipPath>
    <clipPath id="clip5">
      <path d="M 424.6590909090909 -494.7027808915231 L 437.1590909090909 -494.7027808915231 L 430.9090909090909 -504.7027808915231 Z"/>
    </clipPath>
    <clipPath id="clip6">
      <path d="M 468.2954545454545 -515.0 L 480.7954545454545 -515.0 L 474.5454545454545 -525.0 Z"/>
    </clipPath>
    <clipPath id="clip7">
      <path d="M 511.9318181818182 -481.4220940925353 L 524.4318181818182 -481.4220940925353 L 518.1818181818182 -491.4220940925353 Z"/>
    </clipPath>
    <clipPath id="clip8">
      <path d="M 555.5681818181818 -491.21408099019334 L 568.0681818181818 -491.21408099019334 L 561.8181818181818 -501.21408099019334 Z"/>
    </clipPath>
    <clipPath id="clip9">
      <path d="M 599.2045454545455 -503.70473416073196 L 611.7045454545455 -503.70473416073196 L 605.4545454545455 -513.704734160732 Z"/>
    </clipPath>
    <clipPath id="clip10">
      <path d="M 642.840909090909 -512.4659855954786 L 655.340909090909 -512.4659855954786 L 649.090909090909 -522.4659855954786 Z"/>
    </clipPath>
    <clipPath id="clip11">
      <path d="M 686.4772727272727 -474.35313899087805 L 698.9772727272727 -474.35313899087805 L 692.7272727272727 -484.35313899087805 Z"/>
    </clipPath>
    <clipPath id="clip12">
      <path d="M 730.1136363636364 -479.0608533974131 L 742.6136363636364 -479.0608533974131 L 736.3636363636364 -489.0608533974131 Z"/>
    </clipPath>
    <clipPath id="clip13">
      <path d="M 294 -294 L 294 -526 L 786 -526 L 786 -294 Z"/>
    </clipPath>
    <clipPath id="clip14">
      <path d="M 280 -280 L 280 -540 L 800 -540 L 800 -280 Z"/>
    </clipPath>
    <clipPath id="clip15">
      <path d="M 343.6363636363636 -418.9902403662212 L 337.3863636363636 -428.9902403662212 L 349.8863636363636 -428.9902403662212 Z"/>
    </clipPath>
    <clipPath id="clip16">
      <path d="M 387.27272727272725 -424.04719393748195 L 381.02272727272725 -434.04719393748195 L 393.52272727272725 -434.04719393748195 Z"/>
    </clipPath>
    <clipPath id="clip17">
      <path d="M 430.9090909090909 -418.64616964579375 L 424.6590909090909 -428.64616964579375 L 437.1590909090909 -428.64616964579375 Z"/>
    </clipPath>
    <clipPath id="clip18">
      <path d="M 474.5454545454545 -422.300259764668 L 468.2954545454545 -432.300259764668 L 480.7954545454545 -432.300259764668 Z"/>
    </clipPath>
    <clipPath id="clip19">
      <path d="M 518.1818181818182 -416.57879192648727 L 511.9318181818182 -426.57879192648727 L 524.4318181818182 -426.57879192648727 Z"/>
    </clipPath>
    <clipPath id="clip20">
      <path d="M 561.8181818181818 -422.94631530195124 L 555.5681818181818 -432.94631530195124 L 568.0681818181818 -432.94631530195124 Z"/>
    </clipPath>
    <clipPath id="clip21">
      <path d="M 605.4545454545455 -425.9321994079782 L 599.2045454545455 -435.9321994079782 L 611.7045454545455 -435.9321994079782 Z"/>
    </clipPath>
    <clipPath id="clip22">
      <path d="M 649.090909090909 -430.72630066921283 L 642.840909090909 -440.72630066921283 L 655.340909090909 -440.72630066921283 Z"/>
    </clipPath>
    <clipPath id="clip23">
      <path d="M 692.7272727272727 -431.0260704385123 L 686.4772727272727 -441.0260704385123 L 698.9772727272727 -441.0260704385123 Z"/>
    </clipPath>
    <clipPath id="clip24">
      <path d="M 736.3636363636364 -429.75610983950975 L 730.1136363636364 -439.75610983950975 L 742.6136363636364 -439.75610983950975 Z"/>
    </clipPath>
    <clipPath id="clip25">
      <path d="M 294 -294 L 294 -526 L 786 -526 L 786 -294 Z"/>
    </clipPath>
    <clipPath id="clip26">
      <path d="M 280 -280 L 280 -540 L 800 -540 L 800 -280 Z"/>
    </clipPath>
    <clipPath id="clip27">
      <path d="M 290 -74 L 290 -136 L 763.568 -136 L 763.568 -74 Z"/>
    </clipPath>
    <clipPath id="clip28">
      <path d="M 301.75 -120.33333333333334 L 314.25 -120.33333333333334 L 308.0 -130.33333333333334 Z"/>
    </clipPath>
    <clipPath id="clip29">
      <path d="M 308.0 -100.33333333333334 L 301.75 -110.33333333333334 L 314.25 -110.33333333333334 Z"/>
    </clipPath>
  </defs>
  <g style="stroke-linejoin:miter;font-size:8;font-family:Helvetica;fill:none;stroke-linecap:butt;stroke:rgb(0,0,0);font-stretch:normal;stroke-dasharray:none;font-weight:normal;font-style:normal;stroke-width:0.5;">
    <path d="M 300 -300 L 780 -300"/>
    <path d="M 300 -300 L 780 -300"/>
    <path d="M 300.0 -300 L 300.0 -288"/>
    <text style="font-size:12;font-style:italic;stroke:none;fill:rgb(0,0,0);" transform="rotate(90,300,-288)" x="300.0" y="-288.0">
      0
    </text>
    <path d="M 343.6363636363636 -300 L 343.6363636363636 -288"/>
    <text style="font-size:12;font-style:italic;stroke:none;fill:rgb(0,0,0);" transform="rotate(90,343.636,-288)" x="343.6363636363636" y="-288.0">
      200
    </text>
    <path d="M 387.27272727272725 -300 L 387.27272727272725 -288"/>
    <text style="font-size:12;font-style:italic;stroke:none;fill:rgb(0,0,0);" transform="rotate(90,387.273,-288)" x="387.27272727272725" y="-288.0">
      400
    </text>
    <path d="M 430.9090909090909 -300 L 430.9090909090909 -288"/>
    <text style="font-size:12;font-style:italic;stroke:none;fill:rgb(0,0,0);" transform="rotate(90,430.909,-288)" x="430.9090909090909" y="-288.0">
      600
    </text>
    <path d="M 474.5454545454545 -300 L 474.5454545454545 -288"/>
    <text style="font-size:12;font-style:italic;stroke:none;fill:rgb(0,0,0);" transform="rotate(90,474.545,-288)" x="474.5454545454545" y="-288.0">
      800
    </text>
    <path d="M 518.1818181818182 -300 L 518.1818181818182 -288"/>
    <text style="font-size:12;font-style:italic;stroke:none;fill:rgb(0,0,0);" transform="rotate(90,518.182,-288)" x="518.1818181818182" y="-288.0">
      1000
    </text>
    <path d="M 561.8181818181818 -300 L 561.8181818181818 -288"/>
    <text style="font-size:12;font-style:italic;stroke:none;fill:rgb(0,0,0);" transform="rotate(90,561.818,-288)" x="561.8181818181818" y="-288.0">
      1200
    </text>
    <path d="M 605.4545454545455 -300 L 605.4545454545455 -288"/>
    <text style="font-size:12;font-style:italic;stroke:none;fill:rgb(0,0,0);" transform="rotate(90,605.455,-288)" x="605.4545454545455" y="-288.0">
      1400
    </text>
    <path d="M 649.090909090909 -300 L 649.090909090909 -288"/>
    <text style="font-size:12;font-style:italic;stroke:none;fill:rgb(0,0,0);" transform="rotate(90,649.091,-288)" x="649.090909090909" y="-288.0">
      1600
    </text>
    <path d="M 692.7272727272727 -300 L 692.7272727272727 -288"/>
    <text style="font-size:12;font-style:italic;stroke:none;fill:rgb(0,0,0);" transform="rotate(90,692.727,-288)" x="692.7272727272727" y="-288.0">
      1800
    </text>
    <path d="M 736.3636363636364 -300 L 736.3636363636364 -288"/>
    <text style="font-size:12;font-style:italic;stroke:none;fill:rgb(0,0,0);" transform="rotate(90,736.364,-288)" x="736.3636363636364" y="-288.0">
      2000
    </text>
    <path d="M 780.0 -300 L 780.0 -288"/>
    <text style="font-size:12;font-style:italic;stroke:none;fill:rgb(0,0,0);" transform="rotate(90,780,-288)" x="780.0" y="-288.0">
      2200
    </text>
    <text style="font-size:16;stroke:none;fill:rgb(0,0,0);" x="524.44" y="-220.0">
      Size
    </text>
    <path d="M 300 -300 L 300 -520"/>
    <path d="M 300 -300.0 L 288 -300.0"/>
    <text style="font-size:12;font-style:italic;stroke:none;fill:rgb(0,0,0);" x="238.0" y="-294.0">
      0.00e+00
    </text>
    <path d="M 300 -344.0 L 288 -344.0"/>
    <text style="font-size:12;font-style:italic;stroke:none;fill:rgb(0,0,0);" x="238.0" y="-338.0">
      5.96e-09
    </text>
    <path d="M 300 -388.0 L 288 -388.0"/>
    <text style="font-size:12;font-style:italic;stroke:none;fill:rgb(0,0,0);" x="238.0" y="-382.0">
      1.19e-08
    </text>
    <path d="M 300 -432.0 L 288 -432.0"/>
    <text style="font-size:12;font-style:italic;stroke:none;fill:rgb(0,0,0);" x="238.0" y="-426.0">
      1.79e-08
    </text>
    <path d="M 300 -476.0 L 288 -476.0"/>
    <text style="font-size:12;font-style:italic;stroke:none;fill:rgb(0,0,0);" x="238.0" y="-470.0">
      2.38e-08
    </text>
    <path d="M 300 -520.0 L 288 -520.0"/>
    <text style="font-size:12;font-style:italic;stroke:none;fill:rgb(0,0,0);" x="238.0" y="-514.0">
      2.98e-08
    </text>
    <text style="font-size:16;stroke:none;fill:rgb(0,0,0);" transform="rotate(-90,200,-340.648)" x="200.0" y="-340.648">
      Average time (sec.)
    </text>
    <g style="clip-path:url(#clip0);">
      <g style="clip-path:url(#clip1);">
        <path d="M 343.6363636363636 -478.63251018586266 L 387.27272727272725 -510.0758485981434 L 430.9090909090909 -499.7027808915231 L 474.5454545454545 -520.0 L 518.1818181818182 -486.4220940925353 L 561.8181818181818 -496.21408099019334 L 605.4545454545455 -508.70473416073196 L 649.090909090909 -517.4659855954786 L 692.7272727272727 -479.35313899087805 L 736.3636363636364 -484.0608533974131" style="stroke:rgb(0,138,0);stroke-width:2;"/>
      </g>
      <g style="clip-path:url(#clip2);">
        <g style="fill:rgb(255,255,255);clip-path:url(#clip3);">
          <path d="M 337.3863636363636 -473.63251018586266 L 337.3863636363636 -483.63251018586266 L 349.8863636363636 -483.63251018586266 L 349.8863636363636 -473.63251018586266 Z" style="stroke:none;"/>
        </g>
        <g>
          <path d="M 337.3863636363636 -473.63251018586266 L 349.8863636363636 -473.63251018586266 L 343.6363636363636 -483.63251018586266 Z"/>
          <g style="fill:rgb(255,255,255);clip-path:url(#clip4);">
            <path d="M 381.02272727272725 -505.0758485981434 L 381.02272727272725 -515.0758485981435 L 393.52272727272725 -515.0758485981435 L 393.52272727272725 -505.0758485981434 Z" style="stroke:none;"/>
          </g>
          <g>
            <path d="M 381.02272727272725 -505.0758485981434 L 393.52272727272725 -505.0758485981434 L 387.27272727272725 -515.0758485981435 Z"/>
            <g style="fill:rgb(255,255,255);clip-path:url(#clip5);">
              <path d="M 424.6590909090909 -494.7027808915231 L 424.6590909090909 -504.7027808915231 L 437.1590909090909 -504.7027808915231 L 437.1590909090909 -494.7027808915231 Z" style="stroke:none;"/>
            </g>
            <g>
              <path d="M 424.6590909090909 -494.7027808915231 L 437.1590909090909 -494.7027808915231 L 430.9090909090909 -504.7027808915231 Z"/>
              <g style="fill:rgb(255,255,255);clip-path:url(#clip6);">
                <path d="M 468.2954545454545 -515.0 L 468.2954545454545 -525.0 L 480.7954545454545 -525.0 L 480.7954545454545 -515.0 Z" style="stroke:none;"/>
              </g>
              <g>
                <path d="M 468.2954545454545 -515.0 L 480.7954545454545 -515.0 L 474.5454545454545 -525.0 Z"/>
                <g style="fill:rgb(255,255,255);clip-path:url(#clip7);">
                  <path d="M 511.9318181818182 -481.4220940925353 L 511.9318181818182 -491.4220940925353 L 524.4318181818182 -491.4220940925353 L 524.4318181818182 -481.4220940925353 Z" style="stroke:none;"/>
                </g>
                <g>
                  <path d="M 511.9318181818182 -481.4220940925353 L 524.4318181818182 -481.4220940925353 L 518.1818181818182 -491.4220940925353 Z"/>
                  <g style="fill:rgb(255,255,255);clip-path:url(#clip8);">
                    <path d="M 555.5681818181818 -491.21408099019334 L 555.5681818181818 -501.21408099019334 L 568.0681818181818 -501.21408099019334 L 568.0681818181818 -491.21408099019334 Z" style="stroke:none;"/>
                  </g>
                  <g>
                    <path d="M 555.5681818181818 -491.21408099019334 L 568.0681818181818 -491.21408099019334 L 561.8181818181818 -501.21408099019334 Z"/>
                    <g style="fill:rgb(255,255,255);clip-path:url(#clip9);">
                      <path d="M 599.2045454545455 -503.70473416073196 L 599.2045454545455 -513.704734160732 L 611.7045454545455 -513.704734160732 L 611.7045454545455 -503.70473416073196 Z" style="stroke:none;"/>
                    </g>
                    <g>
                      <path d="M 599.2045454545455 -503.70473416073196 L 611.7045454545455 -503.70473416073196 L 605.4545454545455 -513.704734160732 Z"/>
                      <g style="fill:rgb(255,255,255);clip-path:url(#clip10);">
                        <path d="M 642.840909090909 -512.4659855954786 L 642.840909090909 -522.4659855954786 L 655.340909090909 -522.4659855954786 L 655.340909090909 -512.4659855954786 Z" style="stroke:none;"/>
                      </g>
                      <g>
                        <path d="M 642.840909090909 -512.4659855954786 L 655.340909090909 -512.4659855954786 L 649.090909090909 -522.4659855954786 Z"/>
                        <g style="fill:rgb(255,255,255);clip-path:url(#clip11);">
                          <path d="M 686.4772727272727 -474.35313899087805 L 686.4772727272727 -484.35313899087805 L 698.9772727272727 -484.35313899087805 L 698.9772727272727 -474.35313899087805 Z" style="stroke:none;"/>
                        </g>
                        <g>
                          <path d="M 686.4772727272727 -474.35313899087805 L 698.9772727272727 -474.35313899087805 L 692.7272727272727 -484.35313899087805 Z"/>
                          <g style="fill:rgb(255,255,255);clip-path:url(#clip12);">
                            <path d="M 730.1136363636364 -479.0608533974131 L 730.1136363636364 -489.0608533974131 L 742.6136363636364 -489.0608533974131 L 742.6136363636364 -479.0608533974131 Z" style="stroke:none;"/>
                          </g>
                          <g>
                            <path d="M 730.1136363636364 -479.0608533974131 L 742.6136363636364 -479.0608533974131 L 736.3636363636364 -489.0608533974131 Z"/>
                          </g>
                        </g>
                      </g>
                    </g>
                  </g>
                </g>
              </g>
            </g>
          </g>
        </g>
      </g>
      <g style="clip-path:url(#clip13);">
        <path d="M 343.6363636363636 -423.9902403662212 L 387.27272727272725 -429.04719393748195 L 430.9090909090909 -423.64616964579375 L 474.5454545454545 -427.300259764668 L 518.1818181818182 -421.57879192648727 L 561.8181818181818 -427.94631530195124 L 605.4545454545455 -430.9321994079782 L 649.090909090909 -435.72630066921283 L 692.7272727272727 -436.0260704385123 L 736.3636363636364 -434.75610983950975" style="stroke:rgb(126,126,126);stroke-width:0.4;stroke-dasharray:1.5,1.5;"/>
      </g>
      <g style="clip-path:url(#clip14);">
        <g style="fill:rgb(0,0,0);clip-path:url(#clip15);">
          <path d="M 337.3863636363636 -418.9902403662212 L 337.3863636363636 -428.9902403662212 L 349.8863636363636 -428.9902403662212 L 349.8863636363636 -418.9902403662212 Z" style="stroke:none;"/>
        </g>
        <g>
          <path d="M 343.6363636363636 -418.9902403662212 L 337.3863636363636 -428.9902403662212 L 349.8863636363636 -428.9902403662212 Z"/>
          <g style="fill:rgb(0,0,0);clip-path:url(#clip16);">
            <path d="M 381.02272727272725 -424.04719393748195 L 381.02272727272725 -434.04719393748195 L 393.52272727272725 -434.04719393748195 L 393.52272727272725 -424.04719393748195 Z" style="stroke:none;"/>
          </g>
          <g>
            <path d="M 387.27272727272725 -424.04719393748195 L 381.02272727272725 -434.04719393748195 L 393.52272727272725 -434.04719393748195 Z"/>
            <g style="fill:rgb(0,0,0);clip-path:url(#clip17);">
              <path d="M 424.6590909090909 -418.64616964579375 L 424.6590909090909 -428.64616964579375 L 437.1590909090909 -428.64616964579375 L 437.1590909090909 -418.64616964579375 Z" style="stroke:none;"/>
            </g>
            <g>
              <path d="M 430.9090909090909 -418.64616964579375 L 424.6590909090909 -428.64616964579375 L 437.1590909090909 -428.64616964579375 Z"/>
              <g style="fill:rgb(0,0,0);clip-path:url(#clip18);">
                <path d="M 468.2954545454545 -422.300259764668 L 468.2954545454545 -432.300259764668 L 480.7954545454545 -432.300259764668 L 480.7954545454545 -422.300259764668 Z" style="stroke:none;"/>
              </g>
              <g>
                <path d="M 474.5454545454545 -422.300259764668 L 468.2954545454545 -432.300259764668 L 480.7954545454545 -432.300259764668 Z"/>
                <g style="fill:rgb(0,0,0);clip-path:url(#clip19);">
                  <path d="M 511.9318181818182 -416.57879192648727 L 511.9318181818182 -426.57879192648727 L 524.4318181818182 -426.57879192648727 L 524.4318181818182 -416.57879192648727 Z" style="stroke:none;"/>
                </g>
                <g>
                  <path d="M 518.1818181818182 -416.57879192648727 L 511.9318181818182 -426.57879192648727 L 524.4318181818182 -426.57879192648727 Z"/>
                  <g style="fill:rgb(0,0,0);clip-path:url(#clip20);">
                    <path d="M 555.5681818181818 -422.94631530195124 L 555.5681818181818 -432.94631530195124 L 568.0681818181818 -432.94631530195124 L 568.0681818181818 -422.94631530195124 Z" style="stroke:none;"/>
                  </g>
                  <g>
                    <path d="M 561.8181818181818 -422.94631530195124 L 555.5681818181818 -432.94631530195124 L 568.0681818181818 -432.94631530195124 Z"/>
                    <g style="fill:rgb(0,0,0);clip-path:url(#clip21);">
                      <path d="M 599.2045454545455 -425.9321994079782 L 599.2045454545455 -435.9321994079782 L 611.7045454545455 -435.9321994079782 L 611.7045454545455 -425.9321994079782 Z" style="stroke:none;"/>
                    </g>
                    <g>
                      <path d="M 605.4545454545455 -425.9321994079782 L 599.2045454545455 -435.9321994079782 L 611.7045454545455 -435.9321994079782 Z"/>
                      <g style="fill:rgb(0,0,0);clip-path:url(#clip22);">
                        <path d="M 642.840909090909 -430.72630066921283 L 642.840909090909 -440.72630066921283 L 655.340909090909 -440.72630066921283 L 655.340909090909 -430.72630066921283 Z" style="stroke:none;"/>
                      </g>
                      <g>
                        <path d="M 649.090909090909 -430.72630066921283 L 642.840909090909 -440.72630066921283 L 655.340909090909 -440.72630066921283 Z"/>
                        <g style="fill:rgb(0,0,0);clip-path:url(#clip23);">
                          <path d="M 686.4772727272727 -431.0260704385123 L 686.4772727272727 -441.0260704385123 L 698.9772727272727 -441.0260704385123 L 698.9772727272727 -431.0260704385123 Z" style="stroke:none;"/>
                        </g>
                        <g>
                          <path d="M 692.7272727272727 -431.0260704385123 L 686.4772727272727 -441.0260704385123 L 698.9772727272727 -441.0260704385123 Z"/>
                          <g style="fill:rgb(0,0,0);clip-path:url(#clip24);">
                            <path d="M 730.1136363636364 -429.75610983950975 L 730.1136363636364 -439.75610983950975 L 742.6136363636364 -439.75610983950975 L 742.6136363636364 -429.75610983950975 Z" style="stroke:none;"/>
                          </g>
                          <g>
                            <path d="M 736.3636363636364 -429.75610983950975 L 730.1136363636364 -439.75610983950975 L 742.6136363636364 -439.75610983950975 Z"/>
                          </g>
                        </g>
                      </g>
                    </g>
                  </g>
                </g>
              </g>
            </g>
          </g>
        </g>
      </g>
      <g style="clip-path:url(#clip25);">
        <path d="M 343.6363636363636 -346.6816842416147 L 387.27272727272725 -363.6542646377726 L 430.9090909090909 -354.52413394996677 L 474.5454545454545 -365.9528933219672 L 518.1818181818182 -376.5926527543781 L 561.8181818181818 -357.2847477195079 L 605.4545454545455 -361.38760647330867 L 649.090909090909 -367.39319107805693 L 692.7272727272727 -372.23668789979934 L 736.3636363636364 -377.9556453507494" style="stroke:rgb(0,0,128);stroke-width:2;"/>
      </g>
      <g style="clip-path:url(#clip26);">
        <path d="M 338.6363636363636 -341.6816842416147 L 348.6363636363636 -351.6816842416147" style="stroke-width:0.7;"/>
        <path d="M 348.6363636363636 -341.6816842416147 L 338.6363636363636 -351.6816842416147" style="stroke-width:0.7;"/>
        <path d="M 382.27272727272725 -358.6542646377726 L 392.27272727272725 -368.6542646377726" style="stroke-width:0.7;"/>
        <path d="M 392.27272727272725 -358.6542646377726 L 382.27272727272725 -368.6542646377726" style="stroke-width:0.7;"/>
        <path d="M 425.9090909090909 -349.52413394996677 L 435.9090909090909 -359.52413394996677" style="stroke-width:0.7;"/>
        <path d="M 435.9090909090909 -349.52413394996677 L 425.9090909090909 -359.52413394996677" style="stroke-width:0.7;"/>
        <path d="M 469.5454545454545 -360.9528933219672 L 479.5454545454545 -370.9528933219672" style="stroke-width:0.7;"/>
        <path d="M 479.5454545454545 -360.9528933219672 L 469.5454545454545 -370.9528933219672" style="stroke-width:0.7;"/>
        <path d="M 513.1818181818182 -371.5926527543781 L 523.1818181818182 -381.5926527543781" style="stroke-width:0.7;"/>
        <path d="M 523.1818181818182 -371.5926527543781 L 513.1818181818182 -381.5926527543781" style="stroke-width:0.7;"/>
        <path d="M 556.8181818181818 -352.2847477195079 L 566.8181818181818 -362.2847477195079" style="stroke-width:0.7;"/>
        <path d="M 566.8181818181818 -352.2847477195079 L 556.8181818181818 -362.2847477195079" style="stroke-width:0.7;"/>
        <path d="M 600.4545454545455 -356.38760647330867 L 610.4545454545455 -366.38760647330867" style="stroke-width:0.7;"/>
        <path d="M 610.4545454545455 -356.38760647330867 L 600.4545454545455 -366.38760647330867" style="stroke-width:0.7;"/>
        <path d="M 644.090909090909 -362.39319107805693 L 654.090909090909 -372.39319107805693" style="stroke-width:0.7;"/>
        <path d="M 654.090909090909 -362.39319107805693 L 644.090909090909 -372.39319107805693" style="stroke-width:0.7;"/>
        <path d="M 687.7272727272727 -367.23668789979934 L 697.7272727272727 -377.23668789979934" style="stroke-width:0.7;"/>
        <path d="M 697.7272727272727 -367.23668789979934 L 687.7272727272727 -377.23668789979934" style="stroke-width:0.7;"/>
        <path d="M 731.3636363636364 -372.9556453507494 L 741.3636363636364 -382.9556453507494" style="stroke-width:0.7;"/>
        <path d="M 741.3636363636364 -372.9556453507494 L 731.3636363636364 -382.9556453507494" style="stroke-width:0.7;"/>
      </g>
    </g>
    <g style="fill:rgb(255,255,255);clip-path:url(#clip27);">
      <path d="M 290 -74 L 290 -136 L 763.568 -136 L 763.568 -74 Z" style="stroke:none;"/>
    </g>
    <path d="M 300 -125.33333333333334 L 316 -125.33333333333334" style="stroke:rgb(0,138,0);stroke-width:2;"/>
    <g style="fill:rgb(255,255,255);clip-path:url(#clip28);">
      <path d="M 301.75 -120.33333333333334 L 301.75 -130.33333333333334 L 314.25 -130.33333333333334 L 314.25 -120.33333333333334 Z" style="stroke:none;"/>
    </g>
    <g>
      <path d="M 301.75 -120.33333333333334 L 314.25 -120.33333333333334 L 308.0 -130.33333333333334 Z"/>
      <text style="font-size:16;stroke:none;fill:rgb(0,0,0);" x="316.0" y="-120.0">
        gp_hash_mod_quadp_prime_nea_lc_1div8_1div2_nsth_map
      </text>
      <path d="M 300 -105.33333333333334 L 316 -105.33333333333334" style="stroke:rgb(126,126,126);stroke-width:0.4;stroke-dasharray:1.5,1.5;"/>
      <g style="fill:rgb(0,0,0);clip-path:url(#clip29);">
        <path d="M 301.75 -100.33333333333334 L 301.75 -110.33333333333334 L 314.25 -110.33333333333334 L 314.25 -100.33333333333334 Z" style="stroke:none;"/>
      </g>
      <g>
        <path d="M 308.0 -100.33333333333334 L 301.75 -110.33333333333334 L 314.25 -110.33333333333334 Z"/>
        <text style="font-size:16;stroke:none;fill:rgb(0,0,0);" x="316.0" y="-100.0">
          n_hash_map_ncah
        </text>
        <path d="M 300 -85.33333333333334 L 316 -85.33333333333334" style="stroke:rgb(0,0,128);stroke-width:2;"/>
        <path d="M 303.0 -80.33333333333334 L 313.0 -90.33333333333334" style="stroke-width:0.7;"/>
        <path d="M 313.0 -80.33333333333334 L 303.0 -90.33333333333334" style="stroke-width:0.7;"/>
        <text style="font-size:16;stroke:none;fill:rgb(0,0,0);" x="316.0" y="-80.0">
          gp_hash_mask_linp_exp_nea_lc_1div8_1div2_nsth_map
        </text>
      </g>
    </g>
  </g>
</svg>
