<?xml version="1.0" ?>
<!--Created by PyChart 1.39 Copyright 1999-2006 Yasushi Saito-->
<svg viewBox="178 -526 620 538" xmlns="http://www.w3.org/2000/svg" xmlns:xlink="http://www.w3.org/1999/xlink">
  <defs>
    <clipPath id="clip0">
      <path d="M 294 -294 L 294 -526 L 786 -526 L 786 -294 Z"/>
    </clipPath>
    <clipPath id="clip1">
      <path d="M 294 -294 L 294 -526 L 786 -526 L 786 -294 Z"/>
    </clipPath>
    <clipPath id="clip2">
      <path d="M 280 -280 L 280 -540 L 800 -540 L 800 -280 Z"/>
    </clipPath>
    <clipPath id="clip3">
      <path d="M 336.4935064935065 -318.0224 L 343.6363636363636 -325.1652571428572 L 350.7792207792208 -318.0224 L 343.6363636363636 -310.87954285714284 Z"/>
    </clipPath>
    <clipPath id="clip4">
      <path d="M 380.12987012987014 -336.0448 L 387.27272727272725 -343.1876571428571 L 394.4155844155844 -336.0448 L 387.27272727272725 -328.90194285714284 Z"/>
    </clipPath>
    <clipPath id="clip5">
      <path d="M 423.76623376623377 -372.0896 L 430.9090909090909 -379.23245714285713 L 438.05194805194805 -372.0896 L 430.9090909090909 -364.94674285714285 Z"/>
    </clipPath>
    <clipPath id="clip6">
      <path d="M 467.4025974025974 -372.0896 L 474.5454545454545 -379.23245714285713 L 481.68831168831167 -372.0896 L 474.5454545454545 -364.94674285714285 Z"/>
    </clipPath>
    <clipPath id="clip7">
      <path d="M 511.038961038961 -372.0896 L 518.1818181818182 -379.23245714285713 L 525.3246753246754 -372.0896 L 518.1818181818182 -364.94674285714285 Z"/>
    </clipPath>
    <clipPath id="clip8">
      <path d="M 554.6753246753246 -444.17920000000004 L 561.8181818181818 -451.32205714285715 L 568.961038961039 -444.17920000000004 L 561.8181818181818 -437.03634285714287 Z"/>
    </clipPath>
    <clipPath id="clip9">
      <path d="M 598.3116883116883 -444.17920000000004 L 605.4545454545455 -451.32205714285715 L 612.5974025974026 -444.17920000000004 L 605.4545454545455 -437.03634285714287 Z"/>
    </clipPath>
    <clipPath id="clip10">
      <path d="M 641.9480519480519 -444.17920000000004 L 649.090909090909 -451.32205714285715 L 656.2337662337662 -444.17920000000004 L 649.090909090909 -437.03634285714287 Z"/>
    </clipPath>
    <clipPath id="clip11">
      <path d="M 685.5844155844156 -444.17920000000004 L 692.7272727272727 -451.32205714285715 L 699.8701298701299 -444.17920000000004 L 692.7272727272727 -437.03634285714287 Z"/>
    </clipPath>
    <clipPath id="clip12">
      <path d="M 729.2207792207791 -444.17920000000004 L 736.3636363636364 -451.32205714285715 L 743.5064935064936 -444.17920000000004 L 736.3636363636364 -437.03634285714287 Z"/>
    </clipPath>
    <clipPath id="clip13">
      <path d="M 294 -294 L 294 -526 L 786 -526 L 786 -294 Z"/>
    </clipPath>
    <clipPath id="clip14">
      <path d="M 280 -280 L 280 -540 L 800 -540 L 800 -280 Z"/>
    </clipPath>
    <clipPath id="clip15">
      <path d="M 343.6363636363636 -300.0688 L 337.3863636363636 -310.0688 L 349.8863636363636 -310.0688 Z"/>
    </clipPath>
    <clipPath id="clip16">
      <path d="M 387.27272727272725 -300.7728 L 381.02272727272725 -310.7728 L 393.52272727272725 -310.7728 Z"/>
    </clipPath>
    <clipPath id="clip17">
      <path d="M 430.9090909090909 -300.7728 L 424.6590909090909 -310.7728 L 437.1590909090909 -310.7728 Z"/>
    </clipPath>
    <clipPath id="clip18">
      <path d="M 474.5454545454545 -302.1808 L 468.2954545454545 -312.1808 L 480.7954545454545 -312.1808 Z"/>
    </clipPath>
    <clipPath id="clip19">
      <path d="M 518.1818181818182 -302.1808 L 511.9318181818182 -312.1808 L 524.4318181818182 -312.1808 Z"/>
    </clipPath>
    <clipPath id="clip20">
      <path d="M 561.8181818181818 -302.1808 L 555.5681818181818 -312.1808 L 568.0681818181818 -312.1808 Z"/>
    </clipPath>
    <clipPath id="clip21">
      <path d="M 605.4545454545455 -302.1808 L 599.2045454545455 -312.1808 L 611.7045454545455 -312.1808 Z"/>
    </clipPath>
    <clipPath id="clip22">
      <path d="M 649.090909090909 -302.1808 L 642.840909090909 -312.1808 L 655.340909090909 -312.1808 Z"/>
    </clipPath>
    <clipPath id="clip23">
      <path d="M 692.7272727272727 -304.9968 L 686.4772727272727 -314.9968 L 698.9772727272727 -314.9968 Z"/>
    </clipPath>
    <clipPath id="clip24">
      <path d="M 736.3636363636364 -304.9968 L 730.1136363636364 -314.9968 L 742.6136363636364 -314.9968 Z"/>
    </clipPath>
    <clipPath id="clip25">
      <path d="M 294 -294 L 294 -526 L 786 -526 L 786 -294 Z"/>
    </clipPath>
    <clipPath id="clip26">
      <path d="M 280 -280 L 280 -540 L 800 -540 L 800 -280 Z"/>
    </clipPath>
    <clipPath id="clip27">
      <path d="M 343.6363636363636 -296.1968 L 337.3863636363636 -306.1968 L 349.8863636363636 -306.1968 Z"/>
    </clipPath>
    <clipPath id="clip28">
      <path d="M 387.27272727272725 -296.1968 L 381.02272727272725 -306.1968 L 393.52272727272725 -306.1968 Z"/>
    </clipPath>
    <clipPath id="clip29">
      <path d="M 430.9090909090909 -296.1968 L 424.6590909090909 -306.1968 L 437.1590909090909 -306.1968 Z"/>
    </clipPath>
    <clipPath id="clip30">
      <path d="M 474.5454545454545 -296.1968 L 468.2954545454545 -306.1968 L 480.7954545454545 -306.1968 Z"/>
    </clipPath>
    <clipPath id="clip31">
      <path d="M 518.1818181818182 -296.1968 L 511.9318181818182 -306.1968 L 524.4318181818182 -306.1968 Z"/>
    </clipPath>
    <clipPath id="clip32">
      <path d="M 561.8181818181818 -296.1968 L 555.5681818181818 -306.1968 L 568.0681818181818 -306.1968 Z"/>
    </clipPath>
    <clipPath id="clip33">
      <path d="M 605.4545454545455 -296.1968 L 599.2045454545455 -306.1968 L 611.7045454545455 -306.1968 Z"/>
    </clipPath>
    <clipPath id="clip34">
      <path d="M 649.090909090909 -296.1968 L 642.840909090909 -306.1968 L 655.340909090909 -306.1968 Z"/>
    </clipPath>
    <clipPath id="clip35">
      <path d="M 692.7272727272727 -296.1968 L 686.4772727272727 -306.1968 L 698.9772727272727 -306.1968 Z"/>
    </clipPath>
    <clipPath id="clip36">
      <path d="M 736.3636363636364 -296.1968 L 730.1136363636364 -306.1968 L 742.6136363636364 -306.1968 Z"/>
    </clipPath>
    <clipPath id="clip37">
      <path d="M 294 -294 L 294 -526 L 786 -526 L 786 -294 Z"/>
    </clipPath>
    <clipPath id="clip38">
      <path d="M 280 -280 L 280 -540 L 800 -540 L 800 -280 Z"/>
    </clipPath>
    <clipPath id="clip39">
      <path d="M 343.6363636363636 -295.352 L 337.3863636363636 -305.352 L 349.8863636363636 -305.352 Z"/>
    </clipPath>
    <clipPath id="clip40">
      <path d="M 387.27272727272725 -295.352 L 381.02272727272725 -305.352 L 393.52272727272725 -305.352 Z"/>
    </clipPath>
    <clipPath id="clip41">
      <path d="M 430.9090909090909 -295.352 L 424.6590909090909 -305.352 L 437.1590909090909 -305.352 Z"/>
    </clipPath>
    <clipPath id="clip42">
      <path d="M 474.5454545454545 -295.352 L 468.2954545454545 -305.352 L 480.7954545454545 -305.352 Z"/>
    </clipPath>
    <clipPath id="clip43">
      <path d="M 518.1818181818182 -295.352 L 511.9318181818182 -305.352 L 524.4318181818182 -305.352 Z"/>
    </clipPath>
    <clipPath id="clip44">
      <path d="M 561.8181818181818 -295.352 L 555.5681818181818 -305.352 L 568.0681818181818 -305.352 Z"/>
    </clipPath>
    <clipPath id="clip45">
      <path d="M 605.4545454545455 -295.352 L 599.2045454545455 -305.352 L 611.7045454545455 -305.352 Z"/>
    </clipPath>
    <clipPath id="clip46">
      <path d="M 649.090909090909 -295.352 L 642.840909090909 -305.352 L 655.340909090909 -305.352 Z"/>
    </clipPath>
    <clipPath id="clip47">
      <path d="M 692.7272727272727 -295.352 L 686.4772727272727 -305.352 L 698.9772727272727 -305.352 Z"/>
    </clipPath>
    <clipPath id="clip48">
      <path d="M 736.3636363636364 -295.352 L 730.1136363636364 -305.352 L 742.6136363636364 -305.352 Z"/>
    </clipPath>
    <clipPath id="clip49">
      <path d="M 294 -294 L 294 -526 L 786 -526 L 786 -294 Z"/>
    </clipPath>
    <clipPath id="clip50">
      <path d="M 280 -280 L 280 -540 L 800 -540 L 800 -280 Z"/>
    </clipPath>
    <clipPath id="clip51">
      <path d="M 337.3863636363636 -295.352 L 349.8863636363636 -295.352 L 343.6363636363636 -305.352 Z"/>
    </clipPath>
    <clipPath id="clip52">
      <path d="M 381.02272727272725 -295.352 L 393.52272727272725 -295.352 L 387.27272727272725 -305.352 Z"/>
    </clipPath>
    <clipPath id="clip53">
      <path d="M 424.6590909090909 -295.352 L 437.1590909090909 -295.352 L 430.9090909090909 -305.352 Z"/>
    </clipPath>
    <clipPath id="clip54">
      <path d="M 468.2954545454545 -295.352 L 480.7954545454545 -295.352 L 474.5454545454545 -305.352 Z"/>
    </clipPath>
    <clipPath id="clip55">
      <path d="M 511.9318181818182 -295.352 L 524.4318181818182 -295.352 L 518.1818181818182 -305.352 Z"/>
    </clipPath>
    <clipPath id="clip56">
      <path d="M 555.5681818181818 -295.352 L 568.0681818181818 -295.352 L 561.8181818181818 -305.352 Z"/>
    </clipPath>
    <clipPath id="clip57">
      <path d="M 599.2045454545455 -295.352 L 611.7045454545455 -295.352 L 605.4545454545455 -305.352 Z"/>
    </clipPath>
    <clipPath id="clip58">
      <path d="M 642.840909090909 -295.352 L 655.340909090909 -295.352 L 649.090909090909 -305.352 Z"/>
    </clipPath>
    <clipPath id="clip59">
      <path d="M 686.4772727272727 -295.352 L 698.9772727272727 -295.352 L 692.7272727272727 -305.352 Z"/>
    </clipPath>
    <clipPath id="clip60">
      <path d="M 730.1136363636364 -295.352 L 742.6136363636364 -295.352 L 736.3636363636364 -305.352 Z"/>
    </clipPath>
    <clipPath id="clip61">
      <path d="M 294 -294 L 294 -526 L 786 -526 L 786 -294 Z"/>
    </clipPath>
    <clipPath id="clip62">
      <path d="M 280 -280 L 280 -540 L 800 -540 L 800 -280 Z"/>
    </clipPath>
    <clipPath id="clip63">
      <path d="M 336.4935064935065 -300.352 L 343.6363636363636 -307.49485714285714 L 350.7792207792208 -300.352 L 343.6363636363636 -293.20914285714287 Z"/>
    </clipPath>
    <clipPath id="clip64">
      <path d="M 380.12987012987014 -300.352 L 387.27272727272725 -307.49485714285714 L 394.4155844155844 -300.352 L 387.27272727272725 -293.20914285714287 Z"/>
    </clipPath>
    <clipPath id="clip65">
      <path d="M 423.76623376623377 -300.352 L 430.9090909090909 -307.49485714285714 L 438.05194805194805 -300.352 L 430.9090909090909 -293.20914285714287 Z"/>
    </clipPath>
    <clipPath id="clip66">
      <path d="M 467.4025974025974 -300.352 L 474.5454545454545 -307.49485714285714 L 481.68831168831167 -300.352 L 474.5454545454545 -293.20914285714287 Z"/>
    </clipPath>
    <clipPath id="clip67">
      <path d="M 511.038961038961 -300.352 L 518.1818181818182 -307.49485714285714 L 525.3246753246754 -300.352 L 518.1818181818182 -293.20914285714287 Z"/>
    </clipPath>
    <clipPath id="clip68">
      <path d="M 554.6753246753246 -300.352 L 561.8181818181818 -307.49485714285714 L 568.961038961039 -300.352 L 561.8181818181818 -293.20914285714287 Z"/>
    </clipPath>
    <clipPath id="clip69">
      <path d="M 598.3116883116883 -300.352 L 605.4545454545455 -307.49485714285714 L 612.5974025974026 -300.352 L 605.4545454545455 -293.20914285714287 Z"/>
    </clipPath>
    <clipPath id="clip70">
      <path d="M 641.9480519480519 -300.352 L 649.090909090909 -307.49485714285714 L 656.2337662337662 -300.352 L 649.090909090909 -293.20914285714287 Z"/>
    </clipPath>
    <clipPath id="clip71">
      <path d="M 685.5844155844156 -300.352 L 692.7272727272727 -307.49485714285714 L 699.8701298701299 -300.352 L 692.7272727272727 -293.20914285714287 Z"/>
    </clipPath>
    <clipPath id="clip72">
      <path d="M 729.2207792207791 -300.352 L 736.3636363636364 -307.49485714285714 L 743.5064935064936 -300.352 L 736.3636363636364 -293.20914285714287 Z"/>
    </clipPath>
    <clipPath id="clip73">
      <path d="M 294 -294 L 294 -526 L 786 -526 L 786 -294 Z"/>
    </clipPath>
    <clipPath id="clip74">
      <path d="M 280 -280 L 280 -540 L 800 -540 L 800 -280 Z"/>
    </clipPath>
    <clipPath id="clip75">
      <path d="M 290 6 L 290 -136 L 456.72 -136 L 456.72 6 Z"/>
    </clipPath>
    <clipPath id="clip76">
      <path d="M 300.85714285714283 -125.33333333333334 L 308.0 -132.47619047619048 L 315.14285714285717 -125.33333333333334 L 308.0 -118.1904761904762 Z"/>
    </clipPath>
    <clipPath id="clip77">
      <path d="M 308.0 -100.33333333333334 L 301.75 -110.33333333333334 L 314.25 -110.33333333333334 Z"/>
    </clipPath>
    <clipPath id="clip78">
      <path d="M 308.0 -80.33333333333334 L 301.75 -90.33333333333334 L 314.25 -90.33333333333334 Z"/>
    </clipPath>
    <clipPath id="clip79">
      <path d="M 308.0 -60.33333333333334 L 301.75 -70.33333333333334 L 314.25 -70.33333333333334 Z"/>
    </clipPath>
    <clipPath id="clip80">
      <path d="M 301.75 -40.33333333333337 L 314.25 -40.33333333333337 L 308.0 -50.33333333333334 Z"/>
    </clipPath>
    <clipPath id="clip81">
      <path d="M 300.85714285714283 -25.333333333333314 L 308.0 -32.47619047619048 L 315.14285714285717 -25.333333333333314 L 308.0 -18.190476190476147 Z"/>
    </clipPath>
  </defs>
  <g style="stroke-linejoin:miter;font-size:8;font-family:Helvetica;fill:none;stroke-linecap:butt;stroke:rgb(0,0,0);font-stretch:normal;stroke-dasharray:none;font-weight:normal;font-style:normal;stroke-width:0.5;">
    <path d="M 300 -300 L 780 -300"/>
    <path d="M 300 -300 L 780 -300"/>
    <path d="M 300.0 -300 L 300.0 -288"/>
    <text style="font-size:12;font-style:italic;stroke:none;fill:rgb(0,0,0);" transform="rotate(90,300,-288)" x="300.0" y="-288.0">
      0
    </text>
    <path d="M 343.6363636363636 -300 L 343.6363636363636 -288"/>
    <text style="font-size:12;font-style:italic;stroke:none;fill:rgb(0,0,0);" transform="rotate(90,343.636,-288)" x="343.6363636363636" y="-288.0">
      200
    </text>
    <path d="M 387.27272727272725 -300 L 387.27272727272725 -288"/>
    <text style="font-size:12;font-style:italic;stroke:none;fill:rgb(0,0,0);" transform="rotate(90,387.273,-288)" x="387.27272727272725" y="-288.0">
      400
    </text>
    <path d="M 430.9090909090909 -300 L 430.9090909090909 -288"/>
    <text style="font-size:12;font-style:italic;stroke:none;fill:rgb(0,0,0);" transform="rotate(90,430.909,-288)" x="430.9090909090909" y="-288.0">
      600
    </text>
    <path d="M 474.5454545454545 -300 L 474.5454545454545 -288"/>
    <text style="font-size:12;font-style:italic;stroke:none;fill:rgb(0,0,0);" transform="rotate(90,474.545,-288)" x="474.5454545454545" y="-288.0">
      800
    </text>
    <path d="M 518.1818181818182 -300 L 518.1818181818182 -288"/>
    <text style="font-size:12;font-style:italic;stroke:none;fill:rgb(0,0,0);" transform="rotate(90,518.182,-288)" x="518.1818181818182" y="-288.0">
      1000
    </text>
    <path d="M 561.8181818181818 -300 L 561.8181818181818 -288"/>
    <text style="font-size:12;font-style:italic;stroke:none;fill:rgb(0,0,0);" transform="rotate(90,561.818,-288)" x="561.8181818181818" y="-288.0">
      1200
    </text>
    <path d="M 605.4545454545455 -300 L 605.4545454545455 -288"/>
    <text style="font-size:12;font-style:italic;stroke:none;fill:rgb(0,0,0);" transform="rotate(90,605.455,-288)" x="605.4545454545455" y="-288.0">
      1400
    </text>
    <path d="M 649.090909090909 -300 L 649.090909090909 -288"/>
    <text style="font-size:12;font-style:italic;stroke:none;fill:rgb(0,0,0);" transform="rotate(90,649.091,-288)" x="649.090909090909" y="-288.0">
      1600
    </text>
    <path d="M 692.7272727272727 -300 L 692.7272727272727 -288"/>
    <text style="font-size:12;font-style:italic;stroke:none;fill:rgb(0,0,0);" transform="rotate(90,692.727,-288)" x="692.7272727272727" y="-288.0">
      1800
    </text>
    <path d="M 736.3636363636364 -300 L 736.3636363636364 -288"/>
    <text style="font-size:12;font-style:italic;stroke:none;fill:rgb(0,0,0);" transform="rotate(90,736.364,-288)" x="736.3636363636364" y="-288.0">
      2000
    </text>
    <path d="M 780.0 -300 L 780.0 -288"/>
    <text style="font-size:12;font-style:italic;stroke:none;fill:rgb(0,0,0);" transform="rotate(90,780,-288)" x="780.0" y="-288.0">
      2200
    </text>
    <text style="font-size:16;stroke:none;fill:rgb(0,0,0);" x="524.44" y="-220.0">
      Size
    </text>
    <path d="M 300 -388.0 L 780 -388.0" style="stroke:rgb(179,179,179);stroke-width:0.4;stroke-dasharray:1,1;"/>
    <path d="M 300 -476.0 L 780 -476.0" style="stroke:rgb(179,179,179);stroke-width:0.4;stroke-dasharray:1,1;"/>
    <path d="M 300 -300 L 300 -520"/>
    <path d="M 300 -300.0 L 288 -300.0"/>
    <text style="font-size:12;font-style:italic;stroke:none;fill:rgb(0,0,0);" x="238.0" y="-294.0">
      0.00e+00
    </text>
    <path d="M 300 -328.83584 L 288 -328.83584"/>
    <text style="font-size:12;font-style:italic;stroke:none;fill:rgb(0,0,0);" x="238.0" y="-322.83584">
      3.28e+03
    </text>
    <path d="M 300 -357.67168 L 288 -357.67168"/>
    <text style="font-size:12;font-style:italic;stroke:none;fill:rgb(0,0,0);" x="238.0" y="-351.67168">
      6.55e+03
    </text>
    <path d="M 300 -386.50752 L 288 -386.50752"/>
    <text style="font-size:12;font-style:italic;stroke:none;fill:rgb(0,0,0);" x="238.0" y="-380.50752">
      9.83e+03
    </text>
    <path d="M 300 -415.34336 L 288 -415.34336"/>
    <text style="font-size:12;font-style:italic;stroke:none;fill:rgb(0,0,0);" x="238.0" y="-409.34336">
      1.31e+04
    </text>
    <path d="M 300 -444.17920000000004 L 288 -444.17920000000004"/>
    <text style="font-size:12;font-style:italic;stroke:none;fill:rgb(0,0,0);" x="238.0" y="-438.17920000000004">
      1.64e+04
    </text>
    <path d="M 300 -473.01504 L 288 -473.01504"/>
    <text style="font-size:12;font-style:italic;stroke:none;fill:rgb(0,0,0);" x="238.0" y="-467.01504">
      1.97e+04
    </text>
    <path d="M 300 -501.85087999999996 L 288 -501.85087999999996"/>
    <text style="font-size:12;font-style:italic;stroke:none;fill:rgb(0,0,0);" x="238.0" y="-495.85087999999996">
      2.29e+04
    </text>
    <text style="font-size:16;stroke:none;fill:rgb(0,0,0);" transform="rotate(-90,200,-354.44)" x="200.0" y="-354.44">
      Memory (bytes)
    </text>
    <g style="clip-path:url(#clip0);">
      <g style="clip-path:url(#clip1);">
        <path d="M 343.6363636363636 -318.0224 L 387.27272727272725 -336.0448 L 430.9090909090909 -372.0896 L 474.5454545454545 -372.0896 L 518.1818181818182 -372.0896 L 561.8181818181818 -444.17920000000004 L 605.4545454545455 -444.17920000000004 L 649.090909090909 -444.17920000000004 L 692.7272727272727 -444.17920000000004 L 736.3636363636364 -444.17920000000004" style="stroke:rgb(126,126,126);stroke-width:0.4;stroke-dasharray:5,2,5,2;"/>
      </g>
      <g style="clip-path:url(#clip2);">
        <g style="fill:rgb(0,0,0);clip-path:url(#clip3);">
          <path d="M 336.4935064935065 -310.87954285714284 L 336.4935064935065 -325.1652571428572 L 350.7792207792208 -325.1652571428572 L 350.7792207792208 -310.87954285714284 Z" style="stroke:none;"/>
        </g>
        <g>
          <path d="M 336.4935064935065 -318.0224 L 343.6363636363636 -325.1652571428572 L 350.7792207792208 -318.0224 L 343.6363636363636 -310.87954285714284 Z"/>
          <g style="fill:rgb(0,0,0);clip-path:url(#clip4);">
            <path d="M 380.12987012987014 -328.90194285714284 L 380.12987012987014 -343.1876571428571 L 394.4155844155844 -343.1876571428571 L 394.4155844155844 -328.90194285714284 Z" style="stroke:none;"/>
          </g>
          <g>
            <path d="M 380.12987012987014 -336.0448 L 387.27272727272725 -343.1876571428571 L 394.4155844155844 -336.0448 L 387.27272727272725 -328.90194285714284 Z"/>
            <g style="fill:rgb(0,0,0);clip-path:url(#clip5);">
              <path d="M 423.76623376623377 -364.94674285714285 L 423.76623376623377 -379.23245714285713 L 438.05194805194805 -379.23245714285713 L 438.05194805194805 -364.94674285714285 Z" style="stroke:none;"/>
            </g>
            <g>
              <path d="M 423.76623376623377 -372.0896 L 430.9090909090909 -379.23245714285713 L 438.05194805194805 -372.0896 L 430.9090909090909 -364.94674285714285 Z"/>
              <g style="fill:rgb(0,0,0);clip-path:url(#clip6);">
                <path d="M 467.4025974025974 -364.94674285714285 L 467.4025974025974 -379.23245714285713 L 481.68831168831167 -379.23245714285713 L 481.68831168831167 -364.94674285714285 Z" style="stroke:none;"/>
              </g>
              <g>
                <path d="M 467.4025974025974 -372.0896 L 474.5454545454545 -379.23245714285713 L 481.68831168831167 -372.0896 L 474.5454545454545 -364.94674285714285 Z"/>
                <g style="fill:rgb(0,0,0);clip-path:url(#clip7);">
                  <path d="M 511.038961038961 -364.94674285714285 L 511.038961038961 -379.23245714285713 L 525.3246753246754 -379.23245714285713 L 525.3246753246754 -364.94674285714285 Z" style="stroke:none;"/>
                </g>
                <g>
                  <path d="M 511.038961038961 -372.0896 L 518.1818181818182 -379.23245714285713 L 525.3246753246754 -372.0896 L 518.1818181818182 -364.94674285714285 Z"/>
                  <g style="fill:rgb(0,0,0);clip-path:url(#clip8);">
                    <path d="M 554.6753246753246 -437.03634285714287 L 554.6753246753246 -451.32205714285715 L 568.961038961039 -451.32205714285715 L 568.961038961039 -437.03634285714287 Z" style="stroke:none;"/>
                  </g>
                  <g>
                    <path d="M 554.6753246753246 -444.17920000000004 L 561.8181818181818 -451.32205714285715 L 568.961038961039 -444.17920000000004 L 561.8181818181818 -437.03634285714287 Z"/>
                    <g style="fill:rgb(0,0,0);clip-path:url(#clip9);">
                      <path d="M 598.3116883116883 -437.03634285714287 L 598.3116883116883 -451.32205714285715 L 612.5974025974026 -451.32205714285715 L 612.5974025974026 -437.03634285714287 Z" style="stroke:none;"/>
                    </g>
                    <g>
                      <path d="M 598.3116883116883 -444.17920000000004 L 605.4545454545455 -451.32205714285715 L 612.5974025974026 -444.17920000000004 L 605.4545454545455 -437.03634285714287 Z"/>
                      <g style="fill:rgb(0,0,0);clip-path:url(#clip10);">
                        <path d="M 641.9480519480519 -437.03634285714287 L 641.9480519480519 -451.32205714285715 L 656.2337662337662 -451.32205714285715 L 656.2337662337662 -437.03634285714287 Z" style="stroke:none;"/>
                      </g>
                      <g>
                        <path d="M 641.9480519480519 -444.17920000000004 L 649.090909090909 -451.32205714285715 L 656.2337662337662 -444.17920000000004 L 649.090909090909 -437.03634285714287 Z"/>
                        <g style="fill:rgb(0,0,0);clip-path:url(#clip11);">
                          <path d="M 685.5844155844156 -437.03634285714287 L 685.5844155844156 -451.32205714285715 L 699.8701298701299 -451.32205714285715 L 699.8701298701299 -437.03634285714287 Z" style="stroke:none;"/>
                        </g>
                        <g>
                          <path d="M 685.5844155844156 -444.17920000000004 L 692.7272727272727 -451.32205714285715 L 699.8701298701299 -444.17920000000004 L 692.7272727272727 -437.03634285714287 Z"/>
                          <g style="fill:rgb(0,0,0);clip-path:url(#clip12);">
                            <path d="M 729.2207792207791 -437.03634285714287 L 729.2207792207791 -451.32205714285715 L 743.5064935064936 -451.32205714285715 L 743.5064935064936 -437.03634285714287 Z" style="stroke:none;"/>
                          </g>
                          <g>
                            <path d="M 729.2207792207791 -444.17920000000004 L 736.3636363636364 -451.32205714285715 L 743.5064935064936 -444.17920000000004 L 736.3636363636364 -437.03634285714287 Z"/>
                          </g>
                        </g>
                      </g>
                    </g>
                  </g>
                </g>
              </g>
            </g>
          </g>
        </g>
      </g>
      <g style="clip-path:url(#clip13);">
        <path d="M 343.6363636363636 -305.0688 L 387.27272727272725 -305.7728 L 430.9090909090909 -305.7728 L 474.5454545454545 -307.1808 L 518.1818181818182 -307.1808 L 561.8181818181818 -307.1808 L 605.4545454545455 -307.1808 L 649.090909090909 -307.1808 L 692.7272727272727 -309.9968 L 736.3636363636364 -309.9968" style="stroke:rgb(126,126,126);stroke-width:0.4;stroke-dasharray:1.5,1.5;"/>
      </g>
      <g style="clip-path:url(#clip14);">
        <g style="fill:rgb(0,0,0);clip-path:url(#clip15);">
          <path d="M 337.3863636363636 -300.0688 L 337.3863636363636 -310.0688 L 349.8863636363636 -310.0688 L 349.8863636363636 -300.0688 Z" style="stroke:none;"/>
        </g>
        <g>
          <path d="M 343.6363636363636 -300.0688 L 337.3863636363636 -310.0688 L 349.8863636363636 -310.0688 Z"/>
          <g style="fill:rgb(0,0,0);clip-path:url(#clip16);">
            <path d="M 381.02272727272725 -300.7728 L 381.02272727272725 -310.7728 L 393.52272727272725 -310.7728 L 393.52272727272725 -300.7728 Z" style="stroke:none;"/>
          </g>
          <g>
            <path d="M 387.27272727272725 -300.7728 L 381.02272727272725 -310.7728 L 393.52272727272725 -310.7728 Z"/>
            <g style="fill:rgb(0,0,0);clip-path:url(#clip17);">
              <path d="M 424.6590909090909 -300.7728 L 424.6590909090909 -310.7728 L 437.1590909090909 -310.7728 L 437.1590909090909 -300.7728 Z" style="stroke:none;"/>
            </g>
            <g>
              <path d="M 430.9090909090909 -300.7728 L 424.6590909090909 -310.7728 L 437.1590909090909 -310.7728 Z"/>
              <g style="fill:rgb(0,0,0);clip-path:url(#clip18);">
                <path d="M 468.2954545454545 -302.1808 L 468.2954545454545 -312.1808 L 480.7954545454545 -312.1808 L 480.7954545454545 -302.1808 Z" style="stroke:none;"/>
              </g>
              <g>
                <path d="M 474.5454545454545 -302.1808 L 468.2954545454545 -312.1808 L 480.7954545454545 -312.1808 Z"/>
                <g style="fill:rgb(0,0,0);clip-path:url(#clip19);">
                  <path d="M 511.9318181818182 -302.1808 L 511.9318181818182 -312.1808 L 524.4318181818182 -312.1808 L 524.4318181818182 -302.1808 Z" style="stroke:none;"/>
                </g>
                <g>
                  <path d="M 518.1818181818182 -302.1808 L 511.9318181818182 -312.1808 L 524.4318181818182 -312.1808 Z"/>
                  <g style="fill:rgb(0,0,0);clip-path:url(#clip20);">
                    <path d="M 555.5681818181818 -302.1808 L 555.5681818181818 -312.1808 L 568.0681818181818 -312.1808 L 568.0681818181818 -302.1808 Z" style="stroke:none;"/>
                  </g>
                  <g>
                    <path d="M 561.8181818181818 -302.1808 L 555.5681818181818 -312.1808 L 568.0681818181818 -312.1808 Z"/>
                    <g style="fill:rgb(0,0,0);clip-path:url(#clip21);">
                      <path d="M 599.2045454545455 -302.1808 L 599.2045454545455 -312.1808 L 611.7045454545455 -312.1808 L 611.7045454545455 -302.1808 Z" style="stroke:none;"/>
                    </g>
                    <g>
                      <path d="M 605.4545454545455 -302.1808 L 599.2045454545455 -312.1808 L 611.7045454545455 -312.1808 Z"/>
                      <g style="fill:rgb(0,0,0);clip-path:url(#clip22);">
                        <path d="M 642.840909090909 -302.1808 L 642.840909090909 -312.1808 L 655.340909090909 -312.1808 L 655.340909090909 -302.1808 Z" style="stroke:none;"/>
                      </g>
                      <g>
                        <path d="M 649.090909090909 -302.1808 L 642.840909090909 -312.1808 L 655.340909090909 -312.1808 Z"/>
                        <g style="fill:rgb(0,0,0);clip-path:url(#clip23);">
                          <path d="M 686.4772727272727 -304.9968 L 686.4772727272727 -314.9968 L 698.9772727272727 -314.9968 L 698.9772727272727 -304.9968 Z" style="stroke:none;"/>
                        </g>
                        <g>
                          <path d="M 692.7272727272727 -304.9968 L 686.4772727272727 -314.9968 L 698.9772727272727 -314.9968 Z"/>
                          <g style="fill:rgb(0,0,0);clip-path:url(#clip24);">
                            <path d="M 730.1136363636364 -304.9968 L 730.1136363636364 -314.9968 L 742.6136363636364 -314.9968 L 742.6136363636364 -304.9968 Z" style="stroke:none;"/>
                          </g>
                          <g>
                            <path d="M 736.3636363636364 -304.9968 L 730.1136363636364 -314.9968 L 742.6136363636364 -314.9968 Z"/>
                          </g>
                        </g>
                      </g>
                    </g>
                  </g>
                </g>
              </g>
            </g>
          </g>
        </g>
      </g>
      <g style="clip-path:url(#clip25);">
        <path d="M 343.6363636363636 -301.1968 L 387.27272727272725 -301.1968 L 430.9090909090909 -301.1968 L 474.5454545454545 -301.1968 L 518.1818181818182 -301.1968 L 561.8181818181818 -301.1968 L 605.4545454545455 -301.1968 L 649.090909090909 -301.1968 L 692.7272727272727 -301.1968 L 736.3636363636364 -301.1968" style="stroke:rgb(205,0,0);stroke-width:2;"/>
      </g>
      <g style="clip-path:url(#clip26);">
        <g style="fill:rgb(255,255,255);clip-path:url(#clip27);">
          <path d="M 337.3863636363636 -296.1968 L 337.3863636363636 -306.1968 L 349.8863636363636 -306.1968 L 349.8863636363636 -296.1968 Z" style="stroke:none;"/>
        </g>
        <g>
          <path d="M 343.6363636363636 -296.1968 L 337.3863636363636 -306.1968 L 349.8863636363636 -306.1968 Z"/>
          <g style="fill:rgb(255,255,255);clip-path:url(#clip28);">
            <path d="M 381.02272727272725 -296.1968 L 381.02272727272725 -306.1968 L 393.52272727272725 -306.1968 L 393.52272727272725 -296.1968 Z" style="stroke:none;"/>
          </g>
          <g>
            <path d="M 387.27272727272725 -296.1968 L 381.02272727272725 -306.1968 L 393.52272727272725 -306.1968 Z"/>
            <g style="fill:rgb(255,255,255);clip-path:url(#clip29);">
              <path d="M 424.6590909090909 -296.1968 L 424.6590909090909 -306.1968 L 437.1590909090909 -306.1968 L 437.1590909090909 -296.1968 Z" style="stroke:none;"/>
            </g>
            <g>
              <path d="M 430.9090909090909 -296.1968 L 424.6590909090909 -306.1968 L 437.1590909090909 -306.1968 Z"/>
              <g style="fill:rgb(255,255,255);clip-path:url(#clip30);">
                <path d="M 468.2954545454545 -296.1968 L 468.2954545454545 -306.1968 L 480.7954545454545 -306.1968 L 480.7954545454545 -296.1968 Z" style="stroke:none;"/>
              </g>
              <g>
                <path d="M 474.5454545454545 -296.1968 L 468.2954545454545 -306.1968 L 480.7954545454545 -306.1968 Z"/>
                <g style="fill:rgb(255,255,255);clip-path:url(#clip31);">
                  <path d="M 511.9318181818182 -296.1968 L 511.9318181818182 -306.1968 L 524.4318181818182 -306.1968 L 524.4318181818182 -296.1968 Z" style="stroke:none;"/>
                </g>
                <g>
                  <path d="M 518.1818181818182 -296.1968 L 511.9318181818182 -306.1968 L 524.4318181818182 -306.1968 Z"/>
                  <g style="fill:rgb(255,255,255);clip-path:url(#clip32);">
                    <path d="M 555.5681818181818 -296.1968 L 555.5681818181818 -306.1968 L 568.0681818181818 -306.1968 L 568.0681818181818 -296.1968 Z" style="stroke:none;"/>
                  </g>
                  <g>
                    <path d="M 561.8181818181818 -296.1968 L 555.5681818181818 -306.1968 L 568.0681818181818 -306.1968 Z"/>
                    <g style="fill:rgb(255,255,255);clip-path:url(#clip33);">
                      <path d="M 599.2045454545455 -296.1968 L 599.2045454545455 -306.1968 L 611.7045454545455 -306.1968 L 611.7045454545455 -296.1968 Z" style="stroke:none;"/>
                    </g>
                    <g>
                      <path d="M 605.4545454545455 -296.1968 L 599.2045454545455 -306.1968 L 611.7045454545455 -306.1968 Z"/>
                      <g style="fill:rgb(255,255,255);clip-path:url(#clip34);">
                        <path d="M 642.840909090909 -296.1968 L 642.840909090909 -306.1968 L 655.340909090909 -306.1968 L 655.340909090909 -296.1968 Z" style="stroke:none;"/>
                      </g>
                      <g>
                        <path d="M 649.090909090909 -296.1968 L 642.840909090909 -306.1968 L 655.340909090909 -306.1968 Z"/>
                        <g style="fill:rgb(255,255,255);clip-path:url(#clip35);">
                          <path d="M 686.4772727272727 -296.1968 L 686.4772727272727 -306.1968 L 698.9772727272727 -306.1968 L 698.9772727272727 -296.1968 Z" style="stroke:none;"/>
                        </g>
                        <g>
                          <path d="M 692.7272727272727 -296.1968 L 686.4772727272727 -306.1968 L 698.9772727272727 -306.1968 Z"/>
                          <g style="fill:rgb(255,255,255);clip-path:url(#clip36);">
                            <path d="M 730.1136363636364 -296.1968 L 730.1136363636364 -306.1968 L 742.6136363636364 -306.1968 L 742.6136363636364 -296.1968 Z" style="stroke:none;"/>
                          </g>
                          <g>
                            <path d="M 736.3636363636364 -296.1968 L 730.1136363636364 -306.1968 L 742.6136363636364 -306.1968 Z"/>
                          </g>
                        </g>
                      </g>
                    </g>
                  </g>
                </g>
              </g>
            </g>
          </g>
        </g>
      </g>
      <g style="clip-path:url(#clip37);">
        <path d="M 343.6363636363636 -300.352 L 387.27272727272725 -300.352 L 430.9090909090909 -300.352 L 474.5454545454545 -300.352 L 518.1818181818182 -300.352 L 561.8181818181818 -300.352 L 605.4545454545455 -300.352 L 649.090909090909 -300.352 L 692.7272727272727 -300.352 L 736.3636363636364 -300.352" style="stroke:rgb(126,126,126);stroke-width:0.4;stroke-dasharray:1.5,1.5;"/>
      </g>
      <g style="clip-path:url(#clip38);">
        <g style="fill:rgb(0,0,0);clip-path:url(#clip39);">
          <path d="M 337.3863636363636 -295.352 L 337.3863636363636 -305.352 L 349.8863636363636 -305.352 L 349.8863636363636 -295.352 Z" style="stroke:none;"/>
        </g>
        <g>
          <path d="M 343.6363636363636 -295.352 L 337.3863636363636 -305.352 L 349.8863636363636 -305.352 Z"/>
          <g style="fill:rgb(0,0,0);clip-path:url(#clip40);">
            <path d="M 381.02272727272725 -295.352 L 381.02272727272725 -305.352 L 393.52272727272725 -305.352 L 393.52272727272725 -295.352 Z" style="stroke:none;"/>
          </g>
          <g>
            <path d="M 387.27272727272725 -295.352 L 381.02272727272725 -305.352 L 393.52272727272725 -305.352 Z"/>
            <g style="fill:rgb(0,0,0);clip-path:url(#clip41);">
              <path d="M 424.6590909090909 -295.352 L 424.6590909090909 -305.352 L 437.1590909090909 -305.352 L 437.1590909090909 -295.352 Z" style="stroke:none;"/>
            </g>
            <g>
              <path d="M 430.9090909090909 -295.352 L 424.6590909090909 -305.352 L 437.1590909090909 -305.352 Z"/>
              <g style="fill:rgb(0,0,0);clip-path:url(#clip42);">
                <path d="M 468.2954545454545 -295.352 L 468.2954545454545 -305.352 L 480.7954545454545 -305.352 L 480.7954545454545 -295.352 Z" style="stroke:none;"/>
              </g>
              <g>
                <path d="M 474.5454545454545 -295.352 L 468.2954545454545 -305.352 L 480.7954545454545 -305.352 Z"/>
                <g style="fill:rgb(0,0,0);clip-path:url(#clip43);">
                  <path d="M 511.9318181818182 -295.352 L 511.9318181818182 -305.352 L 524.4318181818182 -305.352 L 524.4318181818182 -295.352 Z" style="stroke:none;"/>
                </g>
                <g>
                  <path d="M 518.1818181818182 -295.352 L 511.9318181818182 -305.352 L 524.4318181818182 -305.352 Z"/>
                  <g style="fill:rgb(0,0,0);clip-path:url(#clip44);">
                    <path d="M 555.5681818181818 -295.352 L 555.5681818181818 -305.352 L 568.0681818181818 -305.352 L 568.0681818181818 -295.352 Z" style="stroke:none;"/>
                  </g>
                  <g>
                    <path d="M 561.8181818181818 -295.352 L 555.5681818181818 -305.352 L 568.0681818181818 -305.352 Z"/>
                    <g style="fill:rgb(0,0,0);clip-path:url(#clip45);">
                      <path d="M 599.2045454545455 -295.352 L 599.2045454545455 -305.352 L 611.7045454545455 -305.352 L 611.7045454545455 -295.352 Z" style="stroke:none;"/>
                    </g>
                    <g>
                      <path d="M 605.4545454545455 -295.352 L 599.2045454545455 -305.352 L 611.7045454545455 -305.352 Z"/>
                      <g style="fill:rgb(0,0,0);clip-path:url(#clip46);">
                        <path d="M 642.840909090909 -295.352 L 642.840909090909 -305.352 L 655.340909090909 -305.352 L 655.340909090909 -295.352 Z" style="stroke:none;"/>
                      </g>
                      <g>
                        <path d="M 649.090909090909 -295.352 L 642.840909090909 -305.352 L 655.340909090909 -305.352 Z"/>
                        <g style="fill:rgb(0,0,0);clip-path:url(#clip47);">
                          <path d="M 686.4772727272727 -295.352 L 686.4772727272727 -305.352 L 698.9772727272727 -305.352 L 698.9772727272727 -295.352 Z" style="stroke:none;"/>
                        </g>
                        <g>
                          <path d="M 692.7272727272727 -295.352 L 686.4772727272727 -305.352 L 698.9772727272727 -305.352 Z"/>
                          <g style="fill:rgb(0,0,0);clip-path:url(#clip48);">
                            <path d="M 730.1136363636364 -295.352 L 730.1136363636364 -305.352 L 742.6136363636364 -305.352 L 742.6136363636364 -295.352 Z" style="stroke:none;"/>
                          </g>
                          <g>
                            <path d="M 736.3636363636364 -295.352 L 730.1136363636364 -305.352 L 742.6136363636364 -305.352 Z"/>
                          </g>
                        </g>
                      </g>
                    </g>
                  </g>
                </g>
              </g>
            </g>
          </g>
        </g>
      </g>
      <g style="clip-path:url(#clip49);">
        <path d="M 343.6363636363636 -300.352 L 387.27272727272725 -300.352 L 430.9090909090909 -300.352 L 474.5454545454545 -300.352 L 518.1818181818182 -300.352 L 561.8181818181818 -300.352 L 605.4545454545455 -300.352 L 649.090909090909 -300.352 L 692.7272727272727 -300.352 L 736.3636363636364 -300.352" style="stroke:rgb(147,147,147);stroke-width:2;"/>
      </g>
      <g style="clip-path:url(#clip50);">
        <g style="fill:rgb(255,255,255);clip-path:url(#clip51);">
          <path d="M 337.3863636363636 -295.352 L 337.3863636363636 -305.352 L 349.8863636363636 -305.352 L 349.8863636363636 -295.352 Z" style="stroke:none;"/>
        </g>
        <g>
          <path d="M 337.3863636363636 -295.352 L 349.8863636363636 -295.352 L 343.6363636363636 -305.352 Z"/>
          <g style="fill:rgb(255,255,255);clip-path:url(#clip52);">
            <path d="M 381.02272727272725 -295.352 L 381.02272727272725 -305.352 L 393.52272727272725 -305.352 L 393.52272727272725 -295.352 Z" style="stroke:none;"/>
          </g>
          <g>
            <path d="M 381.02272727272725 -295.352 L 393.52272727272725 -295.352 L 387.27272727272725 -305.352 Z"/>
            <g style="fill:rgb(255,255,255);clip-path:url(#clip53);">
              <path d="M 424.6590909090909 -295.352 L 424.6590909090909 -305.352 L 437.1590909090909 -305.352 L 437.1590909090909 -295.352 Z" style="stroke:none;"/>
            </g>
            <g>
              <path d="M 424.6590909090909 -295.352 L 437.1590909090909 -295.352 L 430.9090909090909 -305.352 Z"/>
              <g style="fill:rgb(255,255,255);clip-path:url(#clip54);">
                <path d="M 468.2954545454545 -295.352 L 468.2954545454545 -305.352 L 480.7954545454545 -305.352 L 480.7954545454545 -295.352 Z" style="stroke:none;"/>
              </g>
              <g>
                <path d="M 468.2954545454545 -295.352 L 480.7954545454545 -295.352 L 474.5454545454545 -305.352 Z"/>
                <g style="fill:rgb(255,255,255);clip-path:url(#clip55);">
                  <path d="M 511.9318181818182 -295.352 L 511.9318181818182 -305.352 L 524.4318181818182 -305.352 L 524.4318181818182 -295.352 Z" style="stroke:none;"/>
                </g>
                <g>
                  <path d="M 511.9318181818182 -295.352 L 524.4318181818182 -295.352 L 518.1818181818182 -305.352 Z"/>
                  <g style="fill:rgb(255,255,255);clip-path:url(#clip56);">
                    <path d="M 555.5681818181818 -295.352 L 555.5681818181818 -305.352 L 568.0681818181818 -305.352 L 568.0681818181818 -295.352 Z" style="stroke:none;"/>
                  </g>
                  <g>
                    <path d="M 555.5681818181818 -295.352 L 568.0681818181818 -295.352 L 561.8181818181818 -305.352 Z"/>
                    <g style="fill:rgb(255,255,255);clip-path:url(#clip57);">
                      <path d="M 599.2045454545455 -295.352 L 599.2045454545455 -305.352 L 611.7045454545455 -305.352 L 611.7045454545455 -295.352 Z" style="stroke:none;"/>
                    </g>
                    <g>
                      <path d="M 599.2045454545455 -295.352 L 611.7045454545455 -295.352 L 605.4545454545455 -305.352 Z"/>
                      <g style="fill:rgb(255,255,255);clip-path:url(#clip58);">
                        <path d="M 642.840909090909 -295.352 L 642.840909090909 -305.352 L 655.340909090909 -305.352 L 655.340909090909 -295.352 Z" style="stroke:none;"/>
                      </g>
                      <g>
                        <path d="M 642.840909090909 -295.352 L 655.340909090909 -295.352 L 649.090909090909 -305.352 Z"/>
                        <g style="fill:rgb(255,255,255);clip-path:url(#clip59);">
                          <path d="M 686.4772727272727 -295.352 L 686.4772727272727 -305.352 L 698.9772727272727 -305.352 L 698.9772727272727 -295.352 Z" style="stroke:none;"/>
                        </g>
                        <g>
                          <path d="M 686.4772727272727 -295.352 L 698.9772727272727 -295.352 L 692.7272727272727 -305.352 Z"/>
                          <g style="fill:rgb(255,255,255);clip-path:url(#clip60);">
                            <path d="M 730.1136363636364 -295.352 L 730.1136363636364 -305.352 L 742.6136363636364 -305.352 L 742.6136363636364 -295.352 Z" style="stroke:none;"/>
                          </g>
                          <g>
                            <path d="M 730.1136363636364 -295.352 L 742.6136363636364 -295.352 L 736.3636363636364 -305.352 Z"/>
                          </g>
                        </g>
                      </g>
                    </g>
                  </g>
                </g>
              </g>
            </g>
          </g>
        </g>
      </g>
      <g style="clip-path:url(#clip61);">
        <path d="M 343.6363636363636 -300.352 L 387.27272727272725 -300.352 L 430.9090909090909 -300.352 L 474.5454545454545 -300.352 L 518.1818181818182 -300.352 L 561.8181818181818 -300.352 L 605.4545454545455 -300.352 L 649.090909090909 -300.352 L 692.7272727272727 -300.352 L 736.3636363636364 -300.352" style="stroke:rgb(126,126,126);stroke-width:2;"/>
      </g>
      <g style="clip-path:url(#clip62);">
        <g style="fill:rgb(255,255,255);clip-path:url(#clip63);">
          <path d="M 336.4935064935065 -293.20914285714287 L 336.4935064935065 -307.49485714285714 L 350.7792207792208 -307.49485714285714 L 350.7792207792208 -293.20914285714287 Z" style="stroke:none;"/>
        </g>
        <g>
          <path d="M 336.4935064935065 -300.352 L 343.6363636363636 -307.49485714285714 L 350.7792207792208 -300.352 L 343.6363636363636 -293.20914285714287 Z"/>
          <g style="fill:rgb(255,255,255);clip-path:url(#clip64);">
            <path d="M 380.12987012987014 -293.20914285714287 L 380.12987012987014 -307.49485714285714 L 394.4155844155844 -307.49485714285714 L 394.4155844155844 -293.20914285714287 Z" style="stroke:none;"/>
          </g>
          <g>
            <path d="M 380.12987012987014 -300.352 L 387.27272727272725 -307.49485714285714 L 394.4155844155844 -300.352 L 387.27272727272725 -293.20914285714287 Z"/>
            <g style="fill:rgb(255,255,255);clip-path:url(#clip65);">
              <path d="M 423.76623376623377 -293.20914285714287 L 423.76623376623377 -307.49485714285714 L 438.05194805194805 -307.49485714285714 L 438.05194805194805 -293.20914285714287 Z" style="stroke:none;"/>
            </g>
            <g>
              <path d="M 423.76623376623377 -300.352 L 430.9090909090909 -307.49485714285714 L 438.05194805194805 -300.352 L 430.9090909090909 -293.20914285714287 Z"/>
              <g style="fill:rgb(255,255,255);clip-path:url(#clip66);">
                <path d="M 467.4025974025974 -293.20914285714287 L 467.4025974025974 -307.49485714285714 L 481.68831168831167 -307.49485714285714 L 481.68831168831167 -293.20914285714287 Z" style="stroke:none;"/>
              </g>
              <g>
                <path d="M 467.4025974025974 -300.352 L 474.5454545454545 -307.49485714285714 L 481.68831168831167 -300.352 L 474.5454545454545 -293.20914285714287 Z"/>
                <g style="fill:rgb(255,255,255);clip-path:url(#clip67);">
                  <path d="M 511.038961038961 -293.20914285714287 L 511.038961038961 -307.49485714285714 L 525.3246753246754 -307.49485714285714 L 525.3246753246754 -293.20914285714287 Z" style="stroke:none;"/>
                </g>
                <g>
                  <path d="M 511.038961038961 -300.352 L 518.1818181818182 -307.49485714285714 L 525.3246753246754 -300.352 L 518.1818181818182 -293.20914285714287 Z"/>
                  <g style="fill:rgb(255,255,255);clip-path:url(#clip68);">
                    <path d="M 554.6753246753246 -293.20914285714287 L 554.6753246753246 -307.49485714285714 L 568.961038961039 -307.49485714285714 L 568.961038961039 -293.20914285714287 Z" style="stroke:none;"/>
                  </g>
                  <g>
                    <path d="M 554.6753246753246 -300.352 L 561.8181818181818 -307.49485714285714 L 568.961038961039 -300.352 L 561.8181818181818 -293.20914285714287 Z"/>
                    <g style="fill:rgb(255,255,255);clip-path:url(#clip69);">
                      <path d="M 598.3116883116883 -293.20914285714287 L 598.3116883116883 -307.49485714285714 L 612.5974025974026 -307.49485714285714 L 612.5974025974026 -293.20914285714287 Z" style="stroke:none;"/>
                    </g>
                    <g>
                      <path d="M 598.3116883116883 -300.352 L 605.4545454545455 -307.49485714285714 L 612.5974025974026 -300.352 L 605.4545454545455 -293.20914285714287 Z"/>
                      <g style="fill:rgb(255,255,255);clip-path:url(#clip70);">
                        <path d="M 641.9480519480519 -293.20914285714287 L 641.9480519480519 -307.49485714285714 L 656.2337662337662 -307.49485714285714 L 656.2337662337662 -293.20914285714287 Z" style="stroke:none;"/>
                      </g>
                      <g>
                        <path d="M 641.9480519480519 -300.352 L 649.090909090909 -307.49485714285714 L 656.2337662337662 -300.352 L 649.090909090909 -293.20914285714287 Z"/>
                        <g style="fill:rgb(255,255,255);clip-path:url(#clip71);">
                          <path d="M 685.5844155844156 -293.20914285714287 L 685.5844155844156 -307.49485714285714 L 699.8701298701299 -307.49485714285714 L 699.8701298701299 -293.20914285714287 Z" style="stroke:none;"/>
                        </g>
                        <g>
                          <path d="M 685.5844155844156 -300.352 L 692.7272727272727 -307.49485714285714 L 699.8701298701299 -300.352 L 692.7272727272727 -293.20914285714287 Z"/>
                          <g style="fill:rgb(255,255,255);clip-path:url(#clip72);">
                            <path d="M 729.2207792207791 -293.20914285714287 L 729.2207792207791 -307.49485714285714 L 743.5064935064936 -307.49485714285714 L 743.5064935064936 -293.20914285714287 Z" style="stroke:none;"/>
                          </g>
                          <g>
                            <path d="M 729.2207792207791 -300.352 L 736.3636363636364 -307.49485714285714 L 743.5064935064936 -300.352 L 736.3636363636364 -293.20914285714287 Z"/>
                          </g>
                        </g>
                      </g>
                    </g>
                  </g>
                </g>
              </g>
            </g>
          </g>
        </g>
      </g>
      <g style="clip-path:url(#clip73);">
        <path d="M 343.6363636363636 -300.2816 L 387.27272727272725 -300.2816 L 430.9090909090909 -300.2816 L 474.5454545454545 -300.2816 L 518.1818181818182 -300.2816 L 561.8181818181818 -300.2816 L 605.4545454545455 -300.2816 L 649.090909090909 -300.2816 L 692.7272727272727 -300.2816 L 736.3636363636364 -300.2816" style="stroke:rgb(137,42,226);stroke-width:2;"/>
      </g>
      <g style="clip-path:url(#clip74);">
        <path d="M 336.4935064935065 -300.2816 L 350.7792207792208 -300.2816" style="stroke-width:1;"/>
        <path d="M 343.6363636363636 -293.13874285714286 L 343.6363636363636 -307.42445714285714" style="stroke-width:1;"/>
        <path d="M 380.12987012987014 -300.2816 L 394.4155844155844 -300.2816" style="stroke-width:1;"/>
        <path d="M 387.27272727272725 -293.13874285714286 L 387.27272727272725 -307.42445714285714" style="stroke-width:1;"/>
        <path d="M 423.76623376623377 -300.2816 L 438.05194805194805 -300.2816" style="stroke-width:1;"/>
        <path d="M 430.9090909090909 -293.13874285714286 L 430.9090909090909 -307.42445714285714" style="stroke-width:1;"/>
        <path d="M 467.4025974025974 -300.2816 L 481.68831168831167 -300.2816" style="stroke-width:1;"/>
        <path d="M 474.5454545454545 -293.13874285714286 L 474.5454545454545 -307.42445714285714" style="stroke-width:1;"/>
        <path d="M 511.038961038961 -300.2816 L 525.3246753246754 -300.2816" style="stroke-width:1;"/>
        <path d="M 518.1818181818182 -293.13874285714286 L 518.1818181818182 -307.42445714285714" style="stroke-width:1;"/>
        <path d="M 554.6753246753246 -300.2816 L 568.961038961039 -300.2816" style="stroke-width:1;"/>
        <path d="M 561.8181818181818 -293.13874285714286 L 561.8181818181818 -307.42445714285714" style="stroke-width:1;"/>
        <path d="M 598.3116883116883 -300.2816 L 612.5974025974026 -300.2816" style="stroke-width:1;"/>
        <path d="M 605.4545454545455 -293.13874285714286 L 605.4545454545455 -307.42445714285714" style="stroke-width:1;"/>
        <path d="M 641.9480519480519 -300.2816 L 656.2337662337662 -300.2816" style="stroke-width:1;"/>
        <path d="M 649.090909090909 -293.13874285714286 L 649.090909090909 -307.42445714285714" style="stroke-width:1;"/>
        <path d="M 685.5844155844156 -300.2816 L 699.8701298701299 -300.2816" style="stroke-width:1;"/>
        <path d="M 692.7272727272727 -293.13874285714286 L 692.7272727272727 -307.42445714285714" style="stroke-width:1;"/>
        <path d="M 729.2207792207791 -300.2816 L 743.5064935064936 -300.2816" style="stroke-width:1;"/>
        <path d="M 736.3636363636364 -293.13874285714286 L 736.3636363636364 -307.42445714285714" style="stroke-width:1;"/>
      </g>
    </g>
    <g style="fill:rgb(255,255,255);clip-path:url(#clip75);">
      <path d="M 290 6 L 290 -136 L 456.72 -136 L 456.72 6 Z" style="stroke:none;"/>
    </g>
    <path d="M 300 -125.33333333333334 L 316 -125.33333333333334" style="stroke:rgb(126,126,126);stroke-width:0.4;stroke-dasharray:5,2,5,2;"/>
    <g style="fill:rgb(0,0,0);clip-path:url(#clip76);">
      <path d="M 300.85714285714283 -118.1904761904762 L 300.85714285714283 -132.47619047619048 L 315.14285714285717 -132.47619047619048 L 315.14285714285717 -118.1904761904762 Z" style="stroke:none;"/>
    </g>
    <g>
      <path d="M 300.85714285714283 -125.33333333333334 L 308.0 -132.47619047619048 L 315.14285714285717 -125.33333333333334 L 308.0 -118.1904761904762 Z"/>
      <text style="font-size:16;stroke:none;fill:rgb(0,0,0);" x="316.0" y="-120.0">
        n_pq_vector
      </text>
      <path d="M 300 -105.33333333333334 L 316 -105.33333333333334" style="stroke:rgb(126,126,126);stroke-width:0.4;stroke-dasharray:1.5,1.5;"/>
      <g style="fill:rgb(0,0,0);clip-path:url(#clip77);">
        <path d="M 301.75 -100.33333333333334 L 301.75 -110.33333333333334 L 314.25 -110.33333333333334 L 314.25 -100.33333333333334 Z" style="stroke:none;"/>
      </g>
      <g>
        <path d="M 308.0 -100.33333333333334 L 301.75 -110.33333333333334 L 314.25 -110.33333333333334 Z"/>
        <text style="font-size:16;stroke:none;fill:rgb(0,0,0);" x="316.0" y="-100.0">
          n_pq_deque
        </text>
        <path d="M 300 -85.33333333333334 L 316 -85.33333333333334" style="stroke:rgb(205,0,0);stroke-width:2;"/>
        <g style="fill:rgb(255,255,255);clip-path:url(#clip78);">
          <path d="M 301.75 -80.33333333333334 L 301.75 -90.33333333333334 L 314.25 -90.33333333333334 L 314.25 -80.33333333333334 Z" style="stroke:none;"/>
        </g>
        <g>
          <path d="M 308.0 -80.33333333333334 L 301.75 -90.33333333333334 L 314.25 -90.33333333333334 Z"/>
          <text style="font-size:16;stroke:none;fill:rgb(0,0,0);" x="316.0" y="-80.0">
            binary_heap
          </text>
          <path d="M 300 -65.33333333333334 L 316 -65.33333333333334" style="stroke:rgb(126,126,126);stroke-width:0.4;stroke-dasharray:1.5,1.5;"/>
          <g style="fill:rgb(0,0,0);clip-path:url(#clip79);">
            <path d="M 301.75 -60.33333333333334 L 301.75 -70.33333333333334 L 314.25 -70.33333333333334 L 314.25 -60.33333333333334 Z" style="stroke:none;"/>
          </g>
          <g>
            <path d="M 308.0 -60.33333333333334 L 301.75 -70.33333333333334 L 314.25 -70.33333333333334 Z"/>
            <text style="font-size:16;stroke:none;fill:rgb(0,0,0);" x="316.0" y="-60.0">
              thin_heap
            </text>
            <path d="M 300 -45.33333333333334 L 316 -45.33333333333334" style="stroke:rgb(147,147,147);stroke-width:2;"/>
            <g style="fill:rgb(255,255,255);clip-path:url(#clip80);">
              <path d="M 301.75 -40.33333333333337 L 301.75 -50.33333333333334 L 314.25 -50.33333333333334 L 314.25 -40.33333333333337 Z" style="stroke:none;"/>
            </g>
            <g>
              <path d="M 301.75 -40.33333333333337 L 314.25 -40.33333333333337 L 308.0 -50.33333333333334 Z"/>
              <text style="font-size:16;stroke:none;fill:rgb(0,0,0);" x="316.0" y="-40.0">
                binomial_heap
              </text>
              <path d="M 300 -25.333333333333314 L 316 -25.333333333333314" style="stroke:rgb(126,126,126);stroke-width:2;"/>
              <g style="fill:rgb(255,255,255);clip-path:url(#clip81);">
                <path d="M 300.85714285714283 -18.190476190476147 L 300.85714285714283 -32.47619047619048 L 315.14285714285717 -32.47619047619048 L 315.14285714285717 -18.190476190476147 Z" style="stroke:none;"/>
              </g>
              <g>
                <path d="M 300.85714285714283 -25.333333333333314 L 308.0 -32.47619047619048 L 315.14285714285717 -25.333333333333314 L 308.0 -18.190476190476147 Z"/>
                <text style="font-size:16;stroke:none;fill:rgb(0,0,0);" x="316.0" y="-20.0">
                  rc_binomial_heap
                </text>
                <path d="M 300 -5.333333333333314 L 316 -5.333333333333314" style="stroke:rgb(137,42,226);stroke-width:2;"/>
                <path d="M 300.85714285714283 -5.333333333333314 L 315.14285714285717 -5.333333333333314" style="stroke-width:1;"/>
                <path d="M 308.0 1.8095238095238528 L 308.0 -12.476190476190482" style="stroke-width:1;"/>
                <text style="font-size:16;stroke:none;fill:rgb(0,0,0);" x="316.0" y="-0.0">
                  pairing_heap
                </text>
              </g>
            </g>
          </g>
        </g>
      </g>
    </g>
  </g>
</svg>
