<?xml version="1.0" encoding="UTF-8" standalone="no"?>
<svg
   height="540"
   width="1200"
   version="1.0"
   viewBox="-67.8426 -135.03825 587.9692 546.90491"
   id="svg128"
   sodipodi:docname="GNU_Compiler_Collection-Logo.wine.svg"
   inkscape:version="1.1.1 (3bf5ae0d25, 2021-09-20)"
   xmlns:inkscape="http://www.inkscape.org/namespaces/inkscape"
   xmlns:sodipodi="http://sodipodi.sourceforge.net/DTD/sodipodi-0.dtd"
   xmlns="http://www.w3.org/2000/svg"
   xmlns:svg="http://www.w3.org/2000/svg">
  <defs
     id="defs132" />
  <sodipodi:namedview
     id="namedview130"
     pagecolor="#ffffff"
     bordercolor="#666666"
     borderopacity="1.0"
     inkscape:pageshadow="2"
     inkscape:pageopacity="0.0"
     inkscape:pagecheckerboard="0"
     showgrid="false"
     inkscape:zoom="1.0925"
     inkscape:cx="374.82838"
     inkscape:cy="287.41419"
     inkscape:window-width="1920"
     inkscape:window-height="1131"
     inkscape:window-x="0"
     inkscape:window-y="0"
     inkscape:window-maximized="1"
     inkscape:current-layer="svg128" />
  <g
     fill-rule="evenodd"
     id="g116"
     transform="translate(0,-131.66225)">
    <path
       d="m 303,44.525 -20.28,31.012 96.148,111.602 c 4.512,-18.463 7.814,1.677 11.502,9.483 9.878,22.334 11.416,47.222 14.496,71.119 5.83,45.229 3.909,71.701 -0.24,96.382 -13.444,79.974 -61.135,126.653 -106.685,153.529 -15.58,9.193 -30.577,15.62 -52.573,18.622 -22.665,3.092 -44.872,1.868 -67.626,-2.566 -18.784,-3.66 -37.677,-9.828 -55.026,-17.78 C 95.053,503.251 72.219,481.309 54.346,457.238 37.056,433.95 26.15,406.161 17.866,378.315 2.8,327.665 -3.57,273.727 8.448,221.622 c 7.49,-32.48 18.292,-64.643 33.064,-94.3 15.676,-31.471 37.71,-59.974 64.381,-83.609 16.017,-14.193 33.428,-27.271 53.03,-35.166 14.378,-5.791 29.598,-7.096 45.31,-6.06 15.537,1.025 30.367,2.765 45.167,8.029 20.14,7.162 39.12,18.366 53.6,34.009 z"
       fill="#ffcfab"
       stroke="#000000"
       stroke-width="4.327"
       id="path102" />
    <path
       d="m 153.818,179.408 -11.16,-28.33 12.019,-6.008 24.038,-3.435 44.64,-54.942 24.895,3.434 16.31,-8.585 12.02,-2.575 -18.886,41.206 -36.914,4.293 z"
       fill="#f39105"
       stroke="#000000"
       stroke-width="1.041"
       id="path104" />
    <path
       d="m 314.352,64.373 19.746,24.895 5.15,8.586 -37.773,-12.878 4.293,-12.018 z"
       fill="#ffcfab"
       stroke="#000000"
       stroke-width="1.041"
       id="path106" />
    <path
       d="m 299.759,83.26 18.886,10.301 19.744,6.01 -26.612,14.594 -19.744,-1.718 -1.718,-13.735 z"
       fill="#f39a05"
       stroke="#000000"
       stroke-width="1.041"
       id="path108" />
    <path
       d="m 154.677,181.125 13.736,22.32 -13.736,35.197 32.622,6.01 6.867,6.867 20.604,31.764 65.244,-34.339 19.422,5.366 20.926,-6.224 -14.594,-15.453 2.575,-4.292 6.868,-4.292 3.434,11.16 6.009,13.735 16.31,19.745 4.293,-2.575 0.859,-12.877 15.16,-2.67 5.35,-4.157 13.393,-1.623 3.44,-16.875 -9.872,-40.777 v -17.17 l 15.453,-2.576 13.735,10.302 19.744,5.151 7.727,-1.717 -23.178,-29.188 -14.248,-14.587 -8.073,-5.157 -15.453,-10.302 -31.763,1.716 -24.895,6.01 -21.463,10.302 -12.876,-1.717 -16.311,-7.727 -5.151,-7.726 -33.48,-0.858 z"
       fill="#ab9a7e"
       stroke="#000000"
       stroke-width="1.041"
       id="path110" />
    <path
       d="m 315.211,223.19 4.292,11.16 -2.575,6.868 -12.877,-7.727 3.434,-6.009 z m 19.745,-46.357 13.735,-12.019 7.726,-0.858 2.576,4.292 -12.018,12.877 -6.868,2.575 z m 24.844,-59.538 -42.014,10.605 -27.472,11.16 -24.037,-6.867 -8.584,-10.302 22.32,-50.65 20.913,-25.9 13.7,-5.426 15.178,2.996 15.724,23.078 16.479,11.037 -1.898,3.338 -24.296,-8.265 -21.462,-9.443 -20.601,31.764 -4.292,11.161 3.434,10.302 55.8,-9.444 5.958,4.951 z m 16.363,6.312 9.835,12.59 6.206,0.175 22.94,25.516 5.706,6.92 10.255,-6.57 12.018,-26.612 6.668,-21.158 0.91,-17.724 -5.505,-6.617 h -19.242 l -14.595,3.434 c 0,0 -12.018,6.01 -8.584,6.01 3.434,0 19.744,5.15 19.744,5.15 l 6.868,5.15 1.718,7.727 -9.444,18.886 -4.292,4.293 -19.745,-12.877 -6.009,-4.293 -6.01,-0.858 z"
       fill="#ffffff"
       stroke="#000000"
       stroke-width="1.041"
       id="path112" />
    <path
       d="m 368.144,223.975 c -0.266,-1.973 -13.507,0 -13.507,0 0,0 -2.314,7.892 1.063,7.892 3.376,0 12.71,-5.919 12.444,-7.892 z"
       fill="#ffffff"
       stroke="#9e0000"
       stroke-width="1.041"
       id="path114" />
  </g>
  <path
     d="m 385.627,44.897838 c 1.924,-3.083004 6.639,-2.695004 14.34,2.072004 6.27,3.705008 14.536,4.468012 23.39,5.075012 14.502,0.994 13.344,-1.162004 6.537,-8.021016 l -8.202,-7.358016 c 0,0 3.018,1.747004 8.024,-2.880004 6.702,-6.195012 19.56,-34.70006626 21.84,-55.220105 2.565,-20.807021 -0.856,-23.942021 -23.087,-21.377021 -9.12,1.14 -20.103,3.82 -24.664,6.670001 0,0 -6.513,3.26 -5.515,5.112 0.998,1.853004 9.658,2.754004 9.658,2.754004 16.246,2.565004 20.695,7.940016 20.695,13.925028 0,6.2700117 -8.44,21.7020416 -12.43,21.7020416 -1.425,0 -6.555,-3.9900074 -11.4,-8.5500149 -9.691,-9.4060187 -14.907,-10.6380227 -24.283,-7.851015 -5.265,-1.4430037 -12.908,-2.2020037 -19.081,-5.7500117 -1.513,-0.870004 -0.552,-2.092004 -3.546,-5.855012 -5.412,-6.799012 -9.525,-6.196012 -15.225,-4.770008 -7.126,1.71 -7.41,1.71 -1.995,-2.281008 5.415,-3.990004 5.13,-4.560004 -6.84,-20.236005 l -11.971,-16.247 14.25,7.126 c 14.537,7.41 27.077,9.406 29.928,4.845 1.14,-1.425 -2.85,-5.13 -8.836,-7.98 -5.7,-2.85 -12.54,-9.406 -15.106,-14.251 -2.85,-5.13 -6.556,-11.116 -8.266,-13.396 -4.275,-4.846 -19.19,-7.454 -27.209,-4.421 -8.176,3.092 -13.246,11.403 -19.804,19.996 -5.537,7.254 -8.622,12.728 -11.21,17.135 -5.33,-1.259 -14.457,2.632 -18.162,6.052 -6.27,5.7 -7.695,5.986 -19.951,2.85 -12.256,-3.42 -13.681,-3.135 -20.237,2.85 -3.705,3.706 -13.966,16.532009 -22.801,28.503033 -8.55,12.256023 -16.531,22.2310416 -17.387,22.5160416 -0.855,0 -6.84,0.5699997 -13.11,1.1399997 -6.27,0.570004 -14.821,2.2800077 -19.097,3.9900077 -6.84,2.566008 -7.41,3.706008 -5.415,11.117024 1.425,4.275008 7.695,17.386036 14.25,28.787056 l 11.687,20.52104 -7.126,17.101036 c -3.99,9.406016 -6.555,18.24102 -5.7,19.38202 0.855,1.425 9.12,3.42 18.526,4.56 l 17.101,1.995 13.111,19.666 c 12.256,18.527 14.444,19.564 18.811,17.387 1.47,-0.733 8.551,-5.7 17.957,-10.261 9.405,-4.846 22.231,-11.971 28.502,-16.246 8.872,-5.856 17.855,-7.845 22.615,-6.036 2.886,1.096 4.22,3.588 3.036,7.46 -2.488,7.998 -2.374,12.975 -1.258,18.163 1.944,2.077 4.45,3.027 8.099,5.494 12.578,7.73 17.386,8.266 17.671,0 v -6.27 l 3.135,6.555 c 4.56,9.406 11.971,6.84 13.111,-4.845 0.855,-6.84 -0.855,-11.4 -5.415,-16.246 -3.42,-3.705 -5.2,-8.557 -3.776,-8.557 2.85,0 12.612,13.117 12.612,16.538 0,1.14 1.71,2.28 3.99,2.28 4.275,0 7.41,-5.986 7.41,-14.251 0,-3.15 8.505,-4.926 16.44,-7.738 2.118,-0.75 2.103,-1.813 4.13,-3.2 3.83,0.802 2.57,0.855 5.427,0.652 4.25,-0.302 6.144,-1.5 7.35,-3.395 5.986,-9.69 6.841,-21.94702 2.28,-32.77804 -2.28,-5.700012 -4.274,-17.529036 -3.99,-22.660044 0,0 0.273,-3.388008 1.526,-6.740016 m -33.163,37.666076 c 0,-5.700012 -1.14,-5.700012 -11.4,-0.285 -4.846,2.565004 -8.551,6.556012 -8.551,9.120016 0,6.556008 8.266,15.107008 14.536,15.107008 2.85,0 16.565,2.565 20.304,2.606 -0.08,1.09 -1.658,2.04 -2.698,2.373 -4.318,1.38 -11.374,0.61 -13.9,0.151 -4.561,-0.57 -5.131,0.855 -4.846,9.12 0.57,5.416 0,7.981 -1.14,5.701 -0.855,-2.28 -4.846,-7.41 -9.12,-11.4 -4.561,-4.276 -7.696,-11.116 -8.266,-17.102 C 321.301,90.86293 315.601,80.60191 304.2,70.91189 292.23,60.93587 287.67,52.955854 289.95,44.974838 c 1.14,-4.560008 3.705,-6.270012 9.12,-6.270012 9.69,-0.285 27.932,-8.551016 39.618,-18.242036 15.39,-13.3960234 10.26,-13.9660274 -7.98,-1.14 -15.107,10.54602 -19.382,12.256024 -36.483,13.111024 l -19.097,1.425004 9.406,-9.69002 c 4.845,-5.130008 9.12,-10.26102 9.12,-11.401024 0,-5.9860114 26.222,-17.1010297 45.889,-19.3820334 27.932,-3.1350079 29.357,-2.8500079 31.067,6.55601084 1.995,10.83001856 8.265,13.39602656 6.555,2.56500376 -1.14,-7.6950109 -1.14,-7.6950109 3.136,-2.56500376 2.565,3.13500776 4.56,8.83601486 4.56,12.82602256 0,3.990008 0.855,10.26002 1.71,13.680028 1.425,4.846012 0,6.271012 -7.41,7.981016 l -9.406,1.995004 1.995,16.817032 c 0.855,9.12002 3.705,21.376044 5.985,27.361056 4.276,9.97602 3.42,27.64704 -1.425,30.78304 -1.14,0.855 -8.265,0.57 -15.39,-0.285 -11.687,-1.71 -13.112,-2.566 -13.112,-9.406 M 326.432,-87.844308 c 2.565,1.14 7.125,6.84 9.976,12.826 3.135,5.985 8.55,12.826 11.97,15.106 3.495,2.483 12.566,6.022 12.045,6.512 -1.095,1.03 -17.58,-4.14 -28.006,-9.933 -7.98,-4.56 -16.246,-7.695 -18.241,-6.84 -2.28,0.57 -8.836,8.836 -15.106,18.526 -12.54,19.382001 -14.821,34.488029 -5.7,37.623033 5.415,1.710004 45.598,-7.799016 52.158,-8.836016 4.746,-0.750004 10.83,3.990008 10.83,7.410016 0,1.14 -8.55,2.851004 -18.81,3.706004 -12.256,1.140004 -23.372,4.2750076 -31.638,9.120019 -14.82,8.2660149 -23.371,8.8360146 -35.057,2.85000344 -11.686,-5.98501114 -11.116,-12.25502244 5.7,-45.88705944 18.527,-37.908 31.638,-49.024 49.879,-42.183 z m -1.425,34.487 c 12.256,18.526001 12.256,17.671001 3.705,15.391001 -12.54,-3.705001 -22.369,-9.513001 -24.73,-11.075001 2.04,-4.487 7.059,-14.862 10.479,-14.862 1.995,0 6.555,4.846 10.546,10.546 z m -54.154,4.846 c 0,0.57 -3.135,7.98 -7.126,16.816001 -6.555,13.966024 -8.265,15.676028 -17.956,17.386032 -5.7,0.855 -14.25,1.710004 -19.096,1.710004 -6.84,0 -13.396,4.5600077 -31.352,22.2320413 C 182.782,21.887794 168.531,34.713818 163.686,38.134826 l -8.836,5.985012 -5.13,-11.400024 c -6.27,-13.967028 -4.56,-16.247032 15.106,-17.957036 16.246,-1.425 17.956,-2.565004 31.067,-21.6620374 4.845,-7.1250156 13.68,-18.5260356 19.951,-25.3660476 9.69,-11.116001 11.686,-12.256001 17.101,-9.121001 9.121,4.845 19.382,3.705001 26.792,-2.565 6.27,-5.13 11.116,-7.126 11.116,-4.56 z m 51.019,13.965 12.54,3.990001 -9.69,4.846008 c -5.13,2.565008 -13.966,5.415012 -19.667,6.270016 -12.826,1.996004 -15.39,-1.995004 -9.69,-15.390024 2.352,-5.973001 3.931,-7.340001 5.25,-9.510001 1.484,0.567 14.416,7.514001 21.257,9.794 z m 126.963,6.086005 c 0.57,9.97602 -3.55,22.9870433 -9.25,36.9520693 C 430.749,30.72381 421.955,39.36683 416.824,30.24581 413.86,25.058802 406.978,14.679778 395.487,5.2477629 c -0.863,-0.709004 -1.98,-1.8550037 -4.438,-2.4200037 -3.59,-0.827004 -4.584,0.584 -5.518,-0.136004 -4.812,-6.4400112 -4.66,-9.3060146 1.61,-9.5900146 3.42,0 8.55,2.5650037 11.4,5.98501114 2.566,3.13500346 8.266,7.69501086 12.257,9.69001456 6.84,3.7060077 7.98,3.4200077 13.966,-2.8500034 4.56,-4.8450074 7.146,-11.7470226 7.599,-20.4800379 0.446,-8.592016 -2.754,-13.437028 -17.29,-16.572032 -4.275,-0.855 -12.722,-0.744 -11.582,-1.6 2.565,-2.565 27.258,-7.806001 35.524,-7.520001 6.555,0.57 9.553,-0.112 9.82,11.785005 z M 269.713,5.6417629 c 5.415,2.5650034 11.686,4.5600071 13.966,4.5600071 7.41,0 -1.425,10.54602 -13.396,15.962032 -5.985,2.565004 -10.83,5.700012 -10.83,6.840012 0,1.140004 5.7,3.135008 12.825,4.275012 11.4,1.426 12.826,2.566004 11.4,7.411012 -2.85,9.12002 3.421,20.52104 17.387,32.492064 11.116,9.12002 12.541,11.401024 9.12,14.536028 -2.85,2.850008 -7.125,3.420008 -16.53,1.710004 l -12.826,-2.280004 0.855,-14.820028 c 0.855,-16.247032 -3.42,-20.23704 -6.27,-5.986012 -4.276,21.661044 -1.71,25.652052 18.526,29.357056 5.7,0.855004 13.11,4.845004 16.53,8.550004 l 6.271,6.84 -8.265,2.851 c -4.846,1.71 -9.691,1.995 -10.831,0.57 -5.986,-5.13 -20.237,-5.13 -28.217,0 l -8.266,5.416 -11.4,-9.121 C 233.8,102.54895 231.805,99.413946 226.39,82.312914 222.4,68.631886 218.124,62.075874 215.274,64.925878 c -0.57,0.57 1.425,8.83602 4.845,18.812036 5.416,16.816036 13.111,27.077036 29.358,38.762036 3.135,2.28 5.13,4.56 4.275,5.416 -1.995,1.71 -36.483,19.096 -38.193,19.096 -0.855,0 -6.84,-8.265 -13.396,-18.526 -10.26,-15.961 -13.11,-18.526 -20.806,-18.811 -4.846,-0.286 -12.256,-1.14 -16.531,-2.28 l -7.41,-1.71 6.84,-16.532024 7.125,-16.531032 -6.27,-9.97602 c -3.706,-6.270012 -5.13,-11.686024 -3.99,-14.820028 1.995,-4.276008 2.565,-3.991008 3.99,1.710004 2.28,8.835016 6.84,8.265016 7.41,-0.856004 0,-3.990008 3.99,-10.83002 8.266,-15.106028 4.56,-4.275008 7.41,-6.270012 6.27,-4.275008 -1.995,3.990008 0.855,12.256024 4.275,12.256024 1.426,0 2.566,-4.276008 2.566,-9.40602 0,-6.555012 3.135,-12.540024 11.4,-21.946044 9.691,-11.11601826 11.116,-11.9710223 11.401,-6.5560108 0,3.7050074 1.71,6.5560108 3.705,6.5560108 2.566,0 3.42,-2.5660034 2.566,-8.2660148 l -1.14,-8.5500146 16.53,-0.856004 c 13.112,-0.5699999 17.387,0.285004 19.097,3.7060074 1.425,2.5650077 6.84,6.8400152 12.256,9.4050189 z m 80.732,89.2581751 c -0.223,1.481004 0.336,3.408008 0.966,4.551008 2.918,5.304004 11.358,3.511004 18.059,-4.027008 3.99,-4.276008 3.99,-5.416008 0.57,-6.841012 -4.01,-1.755004 -15.928,-0.137 -17.815,1.794004 -1.134,1.16 -1.557,3.046004 -1.78,4.523008 z m 55.792,-73.582144 c 3.136,3.990008 8.551,11.68602 12.256,16.817032 0,0 2.398,2.973004 5.164,5.682012 2.765,2.708004 5.899,5.152008 5.899,5.152008 0,0 -4.589,0.22 -14.483,-2.569004 -22.732,-6.408012 -24.227,-9.69002 -22.517,-16.531032 1.426,-5.415012 1.996,-5.415012 9.406,1.710004 3.99,3.990008 8.55,6.270012 9.406,5.130008 3.135,-2.850004 -12.256,-17.670032 -16.816,-15.960032 -3.99,1.424004 -7.574,-9.238016 -6.573,-14.1160274 0.27,-1.3169997 1.602,-1.3559997 3.366,-0.595 3.531,1.523004 8.456,7.2340154 14.892,15.2800314 z M 381.156,40.69983 c -1.14,0.855004 -2.85,0.855004 -3.99,0 -0.856,-1.14 0,-1.995004 1.995,-1.995004 1.995,0 2.85,0.855004 1.995,1.995004 z m -39.048,59.284116 c 0,7.410004 -3.99,9.405004 -7.126,4.275004 -2.565,-3.99 0.285,-11.400016 4.276,-11.400016 1.425,0 2.85,3.135008 2.85,7.125012 z m 23.712,-6.593012 c 0,1.568004 -9.047,6.954016 -10.242,3.605008 -1.23,-3.444008 1.287,-4.303008 4.408,-4.593008 3.269,-0.303 5.834,-0.580004 5.834,0.988 z m -49.364,6.593012 c 0,2.280004 -1.14,4.275004 -2.565,4.275004 -3.705,0 -6.27,-4.560004 -3.99,-6.840008 3.135,-3.136004 6.555,-1.710004 6.555,2.565004 z"
     id="path118" />
  <path
     d="m 356.929,26.447802 c 4.275,4.276008 8.836,6.841016 9.69,5.701012 2.85,-2.850004 -7.41,-13.396028 -12.825,-13.396028 -3.135,0 -2.28,1.995004 3.135,7.696016 z m -18.526,10.831024 c -6.27,5.986008 -7.126,8.551016 -4.846,12.826024 1.71,3.136004 5.13,5.700012 7.41,5.700012 5.986,0 21.947,-16.245032 20.522,-20.806044 -2.28,-6.555012 -14.82,-5.415008 -23.086,2.280008 z m 17.956,-1.425004 c 0,1.425004 -1.995,2.850004 -4.275,2.850004 -2.28,0 -5.416,2.566008 -7.126,5.701012 -1.71,3.135008 -4.56,4.845008 -6.27,3.990008 -1.995,-1.425004 -0.57,-4.560008 4.56,-8.835016 8.266,-6.840016 13.11,-8.266016 13.11,-3.706008 z"
     id="path120" />
  <path
     d="m 315.818,92.182934 c 0,0 -1.9,2.033004 -4.078,3.564004 -2.177,1.531004 -4.936,2.560008 -4.936,2.560008 0,0 10.265,13.270004 11.767,11.553004 1.503,-1.717 0.414,-4.67 -0.23,-8.533 -0.65,-3.904008 -2.523,-9.144016 -2.523,-9.144016 z"
     fill="#ffcfab"
     fill-rule="evenodd"
     stroke="#000000"
     stroke-width="1.291"
     id="path122" />
  <path
     d="m 112.598,300.82495 c -13.66,0 -24.324,-3.37 -31.996,-10.111 -7.672,-6.741 -11.508,-16.32 -11.508,-28.737 0,-9.136 1.408,-17.583 4.224,-25.344 2.816,-7.76 6.907,-14.523 12.273,-20.29 5.322,-5.72 11.852,-10.2 19.59,-13.436 7.738,-3.237 16.44,-4.856 26.109,-4.856 5.81,0 11.608,0.698 17.395,2.095 5.787,1.397 11.696,3.67 17.728,6.818 l -2.993,15.034 h -1.198 c -4.922,-4.612 -10.277,-7.949 -16.065,-10.01 -5.787,-2.063 -12.007,-3.094 -18.659,-3.094 -7.317,0 -13.725,1.442 -19.224,4.324 -5.499,2.883 -10.133,6.719 -13.903,11.508 -3.68,4.7 -6.463,10.178 -8.348,16.43 -1.885,6.253 -2.827,12.55 -2.827,18.892 0,9.535 2.605,16.896 7.816,22.085 5.21,5.189 12.916,7.783 23.116,7.783 4.479,0 8.68,-0.41 12.606,-1.23 3.924,-0.821 7.616,-1.874 11.076,-3.16 l 5.588,-25.344 H 116.99 l 2.527,-11.11 h 39.646 l -9.845,42.507 a 2926.464,2926.464 0 0 1 -7.916,3.226 c -2.35,0.953 -5.3,1.94 -8.847,2.96 a 90.918,90.918 0 0 1 -9.479,2.195 c -3.26,0.577 -6.752,0.865 -10.477,0.865 z m 102.37,-0.13 c -12.55,0 -22.395,-3.249 -29.535,-9.745 -7.14,-6.497 -10.71,-15.71 -10.71,-27.64 0,-9.135 1.375,-17.65 4.124,-25.543 2.75,-7.894 6.696,-14.812 11.841,-20.754 5.1,-5.854 11.375,-10.477 18.825,-13.87 7.45,-3.392 15.765,-5.088 24.945,-5.088 5.72,0 11.131,0.698 16.231,2.095 5.1,1.397 10.333,3.603 15.7,6.619 l -2.994,14.9 h -0.998 a 75.024,75.024 0 0 0 -4.424,-4.091 c -1.485,-1.264 -3.714,-2.65 -6.685,-4.158 -2.44,-1.286 -5.344,-2.361 -8.714,-3.226 -3.37,-0.865 -7.096,-1.297 -11.175,-1.297 -6.209,0 -11.907,1.297 -17.096,3.891 -5.189,2.595 -9.69,6.22 -13.504,10.876 -3.725,4.524 -6.652,10.022 -8.78,16.497 -2.13,6.475 -3.194,13.371 -3.194,20.688 0,9.136 2.373,16.242 7.118,21.32 4.745,5.078 11.597,7.617 20.555,7.617 4.213,0 8.215,-0.477 12.007,-1.43 3.792,-0.954 7.24,-2.162 10.344,-3.626 2.882,-1.374 5.477,-2.816 7.783,-4.323 2.306,-1.508 4.28,-2.905 5.92,-4.191 h 0.931 l -3.126,15.3 c -4.657,2.35 -10.011,4.468 -16.065,6.353 -6.054,1.884 -12.495,2.827 -19.324,2.827 z m 95.26,0 c -12.55,0 -22.395,-3.249 -29.535,-9.745 -7.14,-6.497 -10.71,-15.71 -10.71,-27.64 0,-9.135 1.375,-17.65 4.124,-25.543 2.75,-7.894 6.696,-14.812 11.841,-20.754 5.1,-5.854 11.375,-10.477 18.825,-13.87 7.45,-3.392 15.765,-5.088 24.945,-5.088 5.72,0 11.131,0.698 16.231,2.095 5.1,1.397 10.333,3.603 15.7,6.619 l -2.994,14.9 h -0.998 a 75.024,75.024 0 0 0 -4.424,-4.091 c -1.485,-1.264 -3.714,-2.65 -6.685,-4.158 -2.44,-1.286 -5.344,-2.361 -8.714,-3.226 -3.37,-0.865 -7.095,-1.297 -11.175,-1.297 -6.209,0 -11.907,1.297 -17.096,3.891 -5.189,2.595 -9.69,6.22 -13.504,10.876 -3.725,4.524 -6.652,10.022 -8.78,16.497 -2.13,6.475 -3.194,13.371 -3.194,20.688 0,9.136 2.373,16.242 7.118,21.32 4.745,5.078 11.597,7.617 20.555,7.617 4.213,0 8.215,-0.477 12.007,-1.43 3.792,-0.954 7.24,-2.162 10.344,-3.626 2.883,-1.374 5.477,-2.816 7.783,-4.323 2.306,-1.508 4.28,-2.905 5.92,-4.191 h 0.931 l -3.126,15.3 c -4.657,2.35 -10.011,4.468 -16.065,6.353 -6.053,1.884 -12.495,2.827 -19.324,2.827 z"
     font-size="32.055px"
     font-family="Sans"
     letter-spacing="0"
     word-spacing="0"
     id="path124" />
  <path
     d="m 343.483,91.25093 c -0.91,-4.060008 -11.913,3.490008 -12.065,7.891016 -0.151,4.401004 10.696,12.954004 11.534,9.106004 0.835,-3.832 1.435,-12.967012 0.531,-16.99702 z"
     fill="#ffffff"
     fill-rule="evenodd"
     stroke="#000000"
     stroke-width="1.041"
     id="path126" />
</svg>
